<?xml version="1.0" encoding="UTF-8" standalone="no"?>
<!-- Created with Inkscape (http://www.inkscape.org/) -->

<svg
   version="1.1"
   id="svg2"
   width="823.91998"
   height="624.5733"
   viewBox="0 0 823.91998 624.5733"
   sodipodi:docname="ADAMEDSmartUp_Logo1_RGB.svg"
   inkscape:version="1.2.2 (b0a8486541, 2022-12-01)"
   xmlns:inkscape="http://www.inkscape.org/namespaces/inkscape"
   xmlns:sodipodi="http://sodipodi.sourceforge.net/DTD/sodipodi-0.dtd"
   xmlns="http://www.w3.org/2000/svg"
   xmlns:svg="http://www.w3.org/2000/svg">
  <defs
     id="defs6" />
  <sodipodi:namedview
     id="namedview4"
     pagecolor="#ffffff"
     bordercolor="#000000"
     borderopacity="0.25"
     inkscape:showpageshadow="2"
     inkscape:pageopacity="0.0"
     inkscape:pagecheckerboard="0"
     inkscape:deskcolor="#d1d1d1"
     showgrid="false"
     inkscape:zoom="2.0269839"
     inkscape:cx="412.18878"
     inkscape:cy="307.10654"
     inkscape:window-width="2560"
     inkscape:window-height="1499"
     inkscape:window-x="0"
     inkscape:window-y="0"
     inkscape:window-maximized="1"
     inkscape:current-layer="g8" />
  <g
     id="g8"
     inkscape:groupmode="layer"
     inkscape:label="ink_ext_XXXXXX"
     transform="matrix(1.3333333,0,0,-1.3333333,0,624.57333)">
    <g
       id="g10"
       transform="matrix(-0.1,0,0,0.1,441.728,0)">
      <path
         d="m 1595.75,2239.06 c -3.27,20.43 -8.19,58.91 -55.66,58.91 -27.01,0 -53.22,-18.79 -53.22,-47.45 0,-36.01 16.39,-43.41 125.23,-92.55 112.97,-50.72 141.64,-103.08 141.64,-173.51 0,-88.4 -50.77,-185.79 -211.23,-185.79 -175.14,0 -218.51,114.57 -218.51,192.33 v 19.68 h 153.86 c 0,-70.42 43.38,-82.65 63.03,-82.65 36.85,0 58.94,30.25 58.94,58.1 0,40.04 -25.37,49.89 -118.68,89.18 -42.58,17.17 -148.19,59.77 -148.19,173.57 0,113.74 110.54,178.44 212.03,178.44 59.75,0 124.42,-22.14 163.73,-68.77 35.99,-44.21 38.45,-85.15 40.11,-119.49 h -153.08"
         style="fill:#6fafe3;fill-opacity:1;fill-rule:nonzero;stroke:none"
         id="path12" />
      <path
         d="m 1788.63,2264.41 h 126.87 v -48.28 h 1.64 c 10.63,18.79 40.07,63.81 125.22,63.81 40.12,0 94.98,-13.89 130.98,-81.01 27.82,44.21 74.52,81.01 144.05,81.01 31.92,0 82.66,-7.33 119.54,-45.8 42.56,-45.08 49.11,-75.37 49.11,-176.01 v -248.02 h -135.9 v 241.51 c 0,36.8 0,100.62 -69.58,100.62 -75.31,0 -75.31,-68.76 -75.31,-94.11 v -248.02 h -135.89 v 247.23 c 0,24.57 0,94.9 -67.91,94.9 -76.97,0 -76.97,-73.65 -76.97,-100.62 v -241.51 h -135.85 v 454.3"
         style="fill:#6fafe3;fill-opacity:1;fill-rule:nonzero;stroke:none"
         id="path14" />
      <path
         d="m 2766.42,1921.41 c 85.09,0 113.76,72.01 113.76,116.29 0,54.78 -37.65,115.38 -114.6,115.38 -77.76,0 -112.13,-65.45 -112.13,-117.06 0,-42.6 31.08,-114.61 112.97,-114.61 z m 249.65,-111.3 h -135.89 v 49.14 h -1.63 c -22.92,-44.2 -79.4,-64.74 -132.6,-64.74 -144.1,0 -228.4,112.96 -228.4,243.19 0,148.96 107.23,242.24 228.4,242.24 74.47,0 116.23,-36.01 132.6,-63.81 h 1.63 v 48.28 h 135.89 v -454.3"
         style="fill:#6fafe3;fill-opacity:1;fill-rule:nonzero;stroke:none"
         id="path16" />
      <path
         d="m 3071.28,2264.41 h 127.73 v -48.28 h 1.6 c 11.47,22.07 35.2,63.81 113.78,63.81 v -136.65 c -63.01,-1.66 -107.23,-14.79 -107.23,-83.5 v -249.68 h -135.88 v 454.3"
         style="fill:#6fafe3;fill-opacity:1;fill-rule:nonzero;stroke:none"
         id="path18" />
      <path
         d="m 3541.19,2265.08 h 65.45 v -103.17 h -65.45 v -351.15 h -135.92 v 351.15 h -67.08 v 103.17 h 67.08 v 151.44 h 135.92 v -151.44"
         style="fill:#6fafe3;fill-opacity:1;fill-rule:nonzero;stroke:none"
         id="path20" />
      <path
         d="m 3511.06,1601.7 h 64.81 c 94.89,0.98 141.22,-74.22 139.94,-138.12 -1.47,-76.1 -64.97,-132.19 -140.52,-132.11 l -58.58,-0.12 c -36.36,0.25 -54.47,14.79 -54.47,48.65 v 177.52 c 0.9,32.93 25.33,44.18 48.82,44.18 z m 38.33,-191.46 h 26.56 c 36.33,1.74 53.65,34.63 53.65,60.6 -0.88,25.94 -18.17,53.67 -54.54,54.53 h -25.67 v -115.13 0"
         style="fill:#254ba5;fill-opacity:1;fill-rule:evenodd;stroke:none"
         id="path22" />
      <path
         d="m 3302.55,1462.99 -52.41,-107.71 c -10.14,-20.86 -35.87,-29.87 -57.21,-19.93 v 0 c -21.33,9.91 -30.51,35.12 -20.36,56 l 90.76,186.45 c 5.22,10.74 14.57,18.3 25.3,21.83 l 0.1,0.02 h 0.11 c 4.24,1.39 8.47,2.05 12.78,2.13 h 0.5 0.17 c 4.57,0 9.16,-0.74 13.64,-2.25 l 0.52,-0.17 0.12,-0.02 c 10.29,-3.56 19.23,-10.9 24.38,-21.27 l 92.43,-186.43 c 10.32,-20.78 1.3,-46.09 -19.91,-56.17 v 0 c -21.31,-10.06 -47.07,-1.23 -57.39,19.53 l -53.53,107.99 v 0"
         style="fill:#254ba5;fill-opacity:1;fill-rule:evenodd;stroke:none"
         id="path24" />
      <path
         d="m 3856.48,1462.99 -52.45,-107.71 c -10.13,-20.86 -35.83,-29.87 -57.17,-19.93 v 0 c -21.34,9.91 -30.54,35.12 -20.36,56 l 90.72,186.45 c 5.24,10.74 14.6,18.3 25.37,21.83 l 0.03,0.02 h 0.12 c 4.21,1.39 8.51,2.05 12.8,2.13 h 0.47 0.21 c 4.54,0 9.14,-0.74 13.63,-2.25 l 0.53,-0.17 0.08,-0.02 c 10.32,-3.56 19.25,-10.9 24.38,-21.27 l 92.47,-186.43 c 10.3,-20.78 1.31,-46.09 -19.94,-56.17 v 0 c -21.26,-10.06 -47.02,-1.23 -57.32,19.53 l -53.57,107.99 v 0"
         style="fill:#254ba5;fill-opacity:1;fill-rule:evenodd;stroke:none"
         id="path26" />
      <path
         d="m 4176.27,1477.33 -44.93,94.18 c -11.21,22.93 -26.43,30.23 -42.51,30.27 -24.5,0 -39.78,-14.96 -44.64,-43.69 l -27.67,-172.83 c -10.33,-63.13 74.27,-76.23 82.8,-14.5 l 8.1,56.7 25,-60.84 c 7.81,-19.31 21.94,-35.6 43.85,-35.6 21.87,0 36,16.29 43.82,35.6 l 25,60.84 8.11,-56.7 c 8.53,-61.73 93.13,-48.63 82.74,14.5 l -27.62,172.83 c -4.83,28.73 -20.09,43.69 -44.66,43.69 -16.05,-0.04 -31.29,-7.34 -42.48,-30.27 l -44.91,-94.18 v 0"
         style="fill:#254ba5;fill-opacity:1;fill-rule:evenodd;stroke:none"
         id="path28" />
      <path
         d="m 4465.96,1499.94 h 41.87 c 19.72,0 35.87,-13.9 35.87,-30.97 v 0 c 0,-17.01 -16.15,-30.96 -35.87,-30.96 h -41.87 c 0,-8.69 0,-13.63 0,-22.34 h 56.68 c 56.33,0 51.92,-85.06 -0.13,-84.32 h -81.06 c -39.87,0 -61.98,17.99 -61.98,61 0,52.16 0,96.79 0,148.96 0,42.99 22.11,61 61.98,61 h 81.06 c 52.05,0.7 56.46,-84.34 0.13,-84.34 h -56.68 v -18.03 0"
         style="fill:#254ba5;fill-opacity:1;fill-rule:evenodd;stroke:none"
         id="path30" />
      <path
         d="m 4657.79,1601.7 h 64.73 c 94.95,0.98 141.29,-74.22 140.01,-138.12 -1.5,-76.1 -64.98,-132.19 -140.58,-132.11 l -58.52,-0.12 c -36.37,0.25 -54.49,14.79 -54.49,48.65 v 177.52 c 0.94,32.93 25.36,44.18 48.85,44.18 z m 38.25,-191.46 h 26.62 c 36.3,1.74 53.66,34.63 53.66,60.6 -0.87,25.94 -18.19,53.67 -54.54,54.53 h -25.74 v -115.13 0"
         style="fill:#254ba5;fill-opacity:1;fill-rule:evenodd;stroke:none"
         id="path32" />
      <path
         d="m 4617.77,2136.58 h -63.02 v 144.04 h 57.33 c 33.53,0 102.31,0 102.31,-71.18 0,-72.86 -67.16,-72.86 -96.62,-72.86 z m 173.56,235.74 c -32.75,26.97 -74.47,44.2 -186.66,44.2 h -513.2 v -365.9 c 0,-40.99 -2.42,-115.46 -78.55,-115.46 -76.13,0 -78.56,74.47 -78.56,115.45 v 365.91 h -154.71 v -365.91 c 0,-89.23 10.64,-131.8 60.57,-186.62 49.28,-53.38 128.18,-64.68 172.7,-64.68 44.52,0 123.42,11.3 172.69,64.68 49.94,54.82 60.58,97.39 60.58,186.63 v 199.97 h -44.25 c -0.69,0 -1.3,0.43 -1.54,1.09 -0.25,0.64 -0.07,1.37 0.47,1.83 l 121.69,122.48 c 0.61,0.53 1.56,0.53 2.18,0 l 121.7,-122.48 c 0.52,-0.46 0.7,-1.19 0.46,-1.83 -0.24,-0.66 -0.87,-1.09 -1.56,-1.09 h -44.45 v -439.83 h 153.86 v 189.88 h 67.07 c 94.16,0 135.13,17.2 176.85,52.4 38.55,32.79 63.89,97.42 63.89,158.81 0,61.47 -23.75,121.13 -71.23,160.47"
         style="fill:#254ba5;fill-opacity:1;fill-rule:nonzero;stroke:none"
         id="path34" />
      <path
         d="m 3107.92,3370.3 c 46.04,0 83.38,-37.34 83.38,-83.31 0,-46.05 -37.34,-83.38 -83.38,-83.38 -46.02,0 -83.35,37.33 -83.35,83.38 0,45.97 37.33,83.31 83.35,83.31 z m -315.1,-317.71 h 158.53 l -112.11,112.05 c -26.23,26.28 -27.06,68.36 -1.83,93.63 v 0 c 25.21,25.17 67.34,24.35 93.61,-1.91 l 176.93,-176.95 176.96,176.95 c 26.27,26.26 68.36,27.08 93.57,1.91 v 0 c 25.22,-25.27 24.38,-67.38 -1.85,-93.63 l -112.11,-112.05 h 158.56 c 37.12,0 67.49,-29.21 67.49,-64.93 v 0 c 0,-35.62 -30.44,-64.78 -67.49,-64.78 h -158.56 l 112.11,-112.18 c 26.23,-26.19 27.07,-68.38 1.85,-93.54 v 0 c -25.25,-25.23 -67.3,-24.39 -93.57,1.83 l -112.17,112.13 v -158.53 c 0,-37.11 -29.13,-67.52 -64.79,-67.52 v 0 c -35.71,0 -64.88,30.36 -64.88,67.52 v 158.53 l -112.05,-112.13 c -26.27,-26.22 -68.44,-27.06 -93.61,-1.83 v 0 c -25.23,25.21 -24.4,67.32 1.83,93.54 l 112.11,112.18 h -158.53 c -37.09,0 -67.46,29.16 -67.46,64.78 v 0 c 0,35.72 30.3,64.9 67.46,64.93 v 0"
         style="fill:#254ba5;fill-opacity:1;fill-rule:evenodd;stroke:none"
         id="path36" />
    </g>
  </g>
</svg>
