%TF.GenerationSoftware,KiCad,Pcbnew,7.0.2-0*%
%TF.CreationDate,2024-05-31T06:07:32-07:00*%
%TF.ProjectId,version_1,76657273-696f-46e5-9f31-2e6b69636164,rev?*%
%TF.SameCoordinates,Original*%
%TF.FileFunction,Other,Comment*%
%FSLAX46Y46*%
G04 Gerber Fmt 4.6, Leading zero omitted, Abs format (unit mm)*
G04 Created by KiCad (PCBNEW 7.0.2-0) date 2024-05-31 06:07:32*
%MOMM*%
%LPD*%
G01*
G04 APERTURE LIST*
%ADD10C,0.150000*%
G04 APERTURE END LIST*
D10*
%TO.C,U1*%
X16442380Y-64900002D02*
X16490000Y-64947621D01*
X16490000Y-64947621D02*
X16537619Y-65090478D01*
X16537619Y-65090478D02*
X16537619Y-65185716D01*
X16537619Y-65185716D02*
X16490000Y-65328573D01*
X16490000Y-65328573D02*
X16394761Y-65423811D01*
X16394761Y-65423811D02*
X16299523Y-65471430D01*
X16299523Y-65471430D02*
X16109047Y-65519049D01*
X16109047Y-65519049D02*
X15966190Y-65519049D01*
X15966190Y-65519049D02*
X15775714Y-65471430D01*
X15775714Y-65471430D02*
X15680476Y-65423811D01*
X15680476Y-65423811D02*
X15585238Y-65328573D01*
X15585238Y-65328573D02*
X15537619Y-65185716D01*
X15537619Y-65185716D02*
X15537619Y-65090478D01*
X15537619Y-65090478D02*
X15585238Y-64947621D01*
X15585238Y-64947621D02*
X15632857Y-64900002D01*
X16537619Y-64328573D02*
X16490000Y-64423811D01*
X16490000Y-64423811D02*
X16442380Y-64471430D01*
X16442380Y-64471430D02*
X16347142Y-64519049D01*
X16347142Y-64519049D02*
X16061428Y-64519049D01*
X16061428Y-64519049D02*
X15966190Y-64471430D01*
X15966190Y-64471430D02*
X15918571Y-64423811D01*
X15918571Y-64423811D02*
X15870952Y-64328573D01*
X15870952Y-64328573D02*
X15870952Y-64185716D01*
X15870952Y-64185716D02*
X15918571Y-64090478D01*
X15918571Y-64090478D02*
X15966190Y-64042859D01*
X15966190Y-64042859D02*
X16061428Y-63995240D01*
X16061428Y-63995240D02*
X16347142Y-63995240D01*
X16347142Y-63995240D02*
X16442380Y-64042859D01*
X16442380Y-64042859D02*
X16490000Y-64090478D01*
X16490000Y-64090478D02*
X16537619Y-64185716D01*
X16537619Y-64185716D02*
X16537619Y-64328573D01*
X15870952Y-63566668D02*
X16870952Y-63566668D01*
X15918571Y-63566668D02*
X15870952Y-63471430D01*
X15870952Y-63471430D02*
X15870952Y-63280954D01*
X15870952Y-63280954D02*
X15918571Y-63185716D01*
X15918571Y-63185716D02*
X15966190Y-63138097D01*
X15966190Y-63138097D02*
X16061428Y-63090478D01*
X16061428Y-63090478D02*
X16347142Y-63090478D01*
X16347142Y-63090478D02*
X16442380Y-63138097D01*
X16442380Y-63138097D02*
X16490000Y-63185716D01*
X16490000Y-63185716D02*
X16537619Y-63280954D01*
X16537619Y-63280954D02*
X16537619Y-63471430D01*
X16537619Y-63471430D02*
X16490000Y-63566668D01*
X15870952Y-62661906D02*
X16870952Y-62661906D01*
X15918571Y-62661906D02*
X15870952Y-62566668D01*
X15870952Y-62566668D02*
X15870952Y-62376192D01*
X15870952Y-62376192D02*
X15918571Y-62280954D01*
X15918571Y-62280954D02*
X15966190Y-62233335D01*
X15966190Y-62233335D02*
X16061428Y-62185716D01*
X16061428Y-62185716D02*
X16347142Y-62185716D01*
X16347142Y-62185716D02*
X16442380Y-62233335D01*
X16442380Y-62233335D02*
X16490000Y-62280954D01*
X16490000Y-62280954D02*
X16537619Y-62376192D01*
X16537619Y-62376192D02*
X16537619Y-62566668D01*
X16537619Y-62566668D02*
X16490000Y-62661906D01*
X16490000Y-61376192D02*
X16537619Y-61471430D01*
X16537619Y-61471430D02*
X16537619Y-61661906D01*
X16537619Y-61661906D02*
X16490000Y-61757144D01*
X16490000Y-61757144D02*
X16394761Y-61804763D01*
X16394761Y-61804763D02*
X16013809Y-61804763D01*
X16013809Y-61804763D02*
X15918571Y-61757144D01*
X15918571Y-61757144D02*
X15870952Y-61661906D01*
X15870952Y-61661906D02*
X15870952Y-61471430D01*
X15870952Y-61471430D02*
X15918571Y-61376192D01*
X15918571Y-61376192D02*
X16013809Y-61328573D01*
X16013809Y-61328573D02*
X16109047Y-61328573D01*
X16109047Y-61328573D02*
X16204285Y-61804763D01*
X16537619Y-60900001D02*
X15870952Y-60900001D01*
X16061428Y-60900001D02*
X15966190Y-60852382D01*
X15966190Y-60852382D02*
X15918571Y-60804763D01*
X15918571Y-60804763D02*
X15870952Y-60709525D01*
X15870952Y-60709525D02*
X15870952Y-60614287D01*
X16537619Y-59519048D02*
X15537619Y-59519048D01*
X16537619Y-58947620D02*
X15966190Y-59376191D01*
X15537619Y-58947620D02*
X16109047Y-59519048D01*
X16490000Y-58138096D02*
X16537619Y-58233334D01*
X16537619Y-58233334D02*
X16537619Y-58423810D01*
X16537619Y-58423810D02*
X16490000Y-58519048D01*
X16490000Y-58519048D02*
X16394761Y-58566667D01*
X16394761Y-58566667D02*
X16013809Y-58566667D01*
X16013809Y-58566667D02*
X15918571Y-58519048D01*
X15918571Y-58519048D02*
X15870952Y-58423810D01*
X15870952Y-58423810D02*
X15870952Y-58233334D01*
X15870952Y-58233334D02*
X15918571Y-58138096D01*
X15918571Y-58138096D02*
X16013809Y-58090477D01*
X16013809Y-58090477D02*
X16109047Y-58090477D01*
X16109047Y-58090477D02*
X16204285Y-58566667D01*
X16490000Y-57280953D02*
X16537619Y-57376191D01*
X16537619Y-57376191D02*
X16537619Y-57566667D01*
X16537619Y-57566667D02*
X16490000Y-57661905D01*
X16490000Y-57661905D02*
X16394761Y-57709524D01*
X16394761Y-57709524D02*
X16013809Y-57709524D01*
X16013809Y-57709524D02*
X15918571Y-57661905D01*
X15918571Y-57661905D02*
X15870952Y-57566667D01*
X15870952Y-57566667D02*
X15870952Y-57376191D01*
X15870952Y-57376191D02*
X15918571Y-57280953D01*
X15918571Y-57280953D02*
X16013809Y-57233334D01*
X16013809Y-57233334D02*
X16109047Y-57233334D01*
X16109047Y-57233334D02*
X16204285Y-57709524D01*
X15870952Y-56804762D02*
X16870952Y-56804762D01*
X15918571Y-56804762D02*
X15870952Y-56709524D01*
X15870952Y-56709524D02*
X15870952Y-56519048D01*
X15870952Y-56519048D02*
X15918571Y-56423810D01*
X15918571Y-56423810D02*
X15966190Y-56376191D01*
X15966190Y-56376191D02*
X16061428Y-56328572D01*
X16061428Y-56328572D02*
X16347142Y-56328572D01*
X16347142Y-56328572D02*
X16442380Y-56376191D01*
X16442380Y-56376191D02*
X16490000Y-56423810D01*
X16490000Y-56423810D02*
X16537619Y-56519048D01*
X16537619Y-56519048D02*
X16537619Y-56709524D01*
X16537619Y-56709524D02*
X16490000Y-56804762D01*
X16537619Y-55757143D02*
X16490000Y-55852381D01*
X16490000Y-55852381D02*
X16442380Y-55900000D01*
X16442380Y-55900000D02*
X16347142Y-55947619D01*
X16347142Y-55947619D02*
X16061428Y-55947619D01*
X16061428Y-55947619D02*
X15966190Y-55900000D01*
X15966190Y-55900000D02*
X15918571Y-55852381D01*
X15918571Y-55852381D02*
X15870952Y-55757143D01*
X15870952Y-55757143D02*
X15870952Y-55614286D01*
X15870952Y-55614286D02*
X15918571Y-55519048D01*
X15918571Y-55519048D02*
X15966190Y-55471429D01*
X15966190Y-55471429D02*
X16061428Y-55423810D01*
X16061428Y-55423810D02*
X16347142Y-55423810D01*
X16347142Y-55423810D02*
X16442380Y-55471429D01*
X16442380Y-55471429D02*
X16490000Y-55519048D01*
X16490000Y-55519048D02*
X16537619Y-55614286D01*
X16537619Y-55614286D02*
X16537619Y-55757143D01*
X15870952Y-54566667D02*
X16537619Y-54566667D01*
X15870952Y-54995238D02*
X16394761Y-54995238D01*
X16394761Y-54995238D02*
X16490000Y-54947619D01*
X16490000Y-54947619D02*
X16537619Y-54852381D01*
X16537619Y-54852381D02*
X16537619Y-54709524D01*
X16537619Y-54709524D02*
X16490000Y-54614286D01*
X16490000Y-54614286D02*
X16442380Y-54566667D01*
X15870952Y-54233333D02*
X15870952Y-53852381D01*
X15537619Y-54090476D02*
X16394761Y-54090476D01*
X16394761Y-54090476D02*
X16490000Y-54042857D01*
X16490000Y-54042857D02*
X16537619Y-53947619D01*
X16537619Y-53947619D02*
X16537619Y-53852381D01*
X16490000Y-53566666D02*
X16537619Y-53471428D01*
X16537619Y-53471428D02*
X16537619Y-53280952D01*
X16537619Y-53280952D02*
X16490000Y-53185714D01*
X16490000Y-53185714D02*
X16394761Y-53138095D01*
X16394761Y-53138095D02*
X16347142Y-53138095D01*
X16347142Y-53138095D02*
X16251904Y-53185714D01*
X16251904Y-53185714D02*
X16204285Y-53280952D01*
X16204285Y-53280952D02*
X16204285Y-53423809D01*
X16204285Y-53423809D02*
X16156666Y-53519047D01*
X16156666Y-53519047D02*
X16061428Y-53566666D01*
X16061428Y-53566666D02*
X16013809Y-53566666D01*
X16013809Y-53566666D02*
X15918571Y-53519047D01*
X15918571Y-53519047D02*
X15870952Y-53423809D01*
X15870952Y-53423809D02*
X15870952Y-53280952D01*
X15870952Y-53280952D02*
X15918571Y-53185714D01*
X16490000Y-51995237D02*
X16537619Y-51899999D01*
X16537619Y-51899999D02*
X16537619Y-51709523D01*
X16537619Y-51709523D02*
X16490000Y-51614285D01*
X16490000Y-51614285D02*
X16394761Y-51566666D01*
X16394761Y-51566666D02*
X16347142Y-51566666D01*
X16347142Y-51566666D02*
X16251904Y-51614285D01*
X16251904Y-51614285D02*
X16204285Y-51709523D01*
X16204285Y-51709523D02*
X16204285Y-51852380D01*
X16204285Y-51852380D02*
X16156666Y-51947618D01*
X16156666Y-51947618D02*
X16061428Y-51995237D01*
X16061428Y-51995237D02*
X16013809Y-51995237D01*
X16013809Y-51995237D02*
X15918571Y-51947618D01*
X15918571Y-51947618D02*
X15870952Y-51852380D01*
X15870952Y-51852380D02*
X15870952Y-51709523D01*
X15870952Y-51709523D02*
X15918571Y-51614285D01*
X16537619Y-51138094D02*
X15537619Y-51138094D01*
X16537619Y-50709523D02*
X16013809Y-50709523D01*
X16013809Y-50709523D02*
X15918571Y-50757142D01*
X15918571Y-50757142D02*
X15870952Y-50852380D01*
X15870952Y-50852380D02*
X15870952Y-50995237D01*
X15870952Y-50995237D02*
X15918571Y-51090475D01*
X15918571Y-51090475D02*
X15966190Y-51138094D01*
X16537619Y-50090475D02*
X16490000Y-50185713D01*
X16490000Y-50185713D02*
X16442380Y-50233332D01*
X16442380Y-50233332D02*
X16347142Y-50280951D01*
X16347142Y-50280951D02*
X16061428Y-50280951D01*
X16061428Y-50280951D02*
X15966190Y-50233332D01*
X15966190Y-50233332D02*
X15918571Y-50185713D01*
X15918571Y-50185713D02*
X15870952Y-50090475D01*
X15870952Y-50090475D02*
X15870952Y-49947618D01*
X15870952Y-49947618D02*
X15918571Y-49852380D01*
X15918571Y-49852380D02*
X15966190Y-49804761D01*
X15966190Y-49804761D02*
X16061428Y-49757142D01*
X16061428Y-49757142D02*
X16347142Y-49757142D01*
X16347142Y-49757142D02*
X16442380Y-49804761D01*
X16442380Y-49804761D02*
X16490000Y-49852380D01*
X16490000Y-49852380D02*
X16537619Y-49947618D01*
X16537619Y-49947618D02*
X16537619Y-50090475D01*
X15870952Y-49423808D02*
X16537619Y-49233332D01*
X16537619Y-49233332D02*
X16061428Y-49042856D01*
X16061428Y-49042856D02*
X16537619Y-48852380D01*
X16537619Y-48852380D02*
X15870952Y-48661904D01*
X15870952Y-48280951D02*
X16537619Y-48280951D01*
X15966190Y-48280951D02*
X15918571Y-48233332D01*
X15918571Y-48233332D02*
X15870952Y-48138094D01*
X15870952Y-48138094D02*
X15870952Y-47995237D01*
X15870952Y-47995237D02*
X15918571Y-47899999D01*
X15918571Y-47899999D02*
X16013809Y-47852380D01*
X16013809Y-47852380D02*
X16537619Y-47852380D01*
X16537619Y-46471427D02*
X16490000Y-46566665D01*
X16490000Y-46566665D02*
X16442380Y-46614284D01*
X16442380Y-46614284D02*
X16347142Y-46661903D01*
X16347142Y-46661903D02*
X16061428Y-46661903D01*
X16061428Y-46661903D02*
X15966190Y-46614284D01*
X15966190Y-46614284D02*
X15918571Y-46566665D01*
X15918571Y-46566665D02*
X15870952Y-46471427D01*
X15870952Y-46471427D02*
X15870952Y-46328570D01*
X15870952Y-46328570D02*
X15918571Y-46233332D01*
X15918571Y-46233332D02*
X15966190Y-46185713D01*
X15966190Y-46185713D02*
X16061428Y-46138094D01*
X16061428Y-46138094D02*
X16347142Y-46138094D01*
X16347142Y-46138094D02*
X16442380Y-46185713D01*
X16442380Y-46185713D02*
X16490000Y-46233332D01*
X16490000Y-46233332D02*
X16537619Y-46328570D01*
X16537619Y-46328570D02*
X16537619Y-46471427D01*
X15870952Y-45709522D02*
X16537619Y-45709522D01*
X15966190Y-45709522D02*
X15918571Y-45661903D01*
X15918571Y-45661903D02*
X15870952Y-45566665D01*
X15870952Y-45566665D02*
X15870952Y-45423808D01*
X15870952Y-45423808D02*
X15918571Y-45328570D01*
X15918571Y-45328570D02*
X16013809Y-45280951D01*
X16013809Y-45280951D02*
X16537619Y-45280951D01*
X16537619Y-44042855D02*
X15537619Y-44042855D01*
X15537619Y-44042855D02*
X15537619Y-43804760D01*
X15537619Y-43804760D02*
X15585238Y-43661903D01*
X15585238Y-43661903D02*
X15680476Y-43566665D01*
X15680476Y-43566665D02*
X15775714Y-43519046D01*
X15775714Y-43519046D02*
X15966190Y-43471427D01*
X15966190Y-43471427D02*
X16109047Y-43471427D01*
X16109047Y-43471427D02*
X16299523Y-43519046D01*
X16299523Y-43519046D02*
X16394761Y-43566665D01*
X16394761Y-43566665D02*
X16490000Y-43661903D01*
X16490000Y-43661903D02*
X16537619Y-43804760D01*
X16537619Y-43804760D02*
X16537619Y-44042855D01*
X15870952Y-43138093D02*
X16537619Y-42947617D01*
X16537619Y-42947617D02*
X16061428Y-42757141D01*
X16061428Y-42757141D02*
X16537619Y-42566665D01*
X16537619Y-42566665D02*
X15870952Y-42376189D01*
X15870952Y-41566665D02*
X16680476Y-41566665D01*
X16680476Y-41566665D02*
X16775714Y-41614284D01*
X16775714Y-41614284D02*
X16823333Y-41661903D01*
X16823333Y-41661903D02*
X16870952Y-41757141D01*
X16870952Y-41757141D02*
X16870952Y-41899998D01*
X16870952Y-41899998D02*
X16823333Y-41995236D01*
X16490000Y-41566665D02*
X16537619Y-41661903D01*
X16537619Y-41661903D02*
X16537619Y-41852379D01*
X16537619Y-41852379D02*
X16490000Y-41947617D01*
X16490000Y-41947617D02*
X16442380Y-41995236D01*
X16442380Y-41995236D02*
X16347142Y-42042855D01*
X16347142Y-42042855D02*
X16061428Y-42042855D01*
X16061428Y-42042855D02*
X15966190Y-41995236D01*
X15966190Y-41995236D02*
X15918571Y-41947617D01*
X15918571Y-41947617D02*
X15870952Y-41852379D01*
X15870952Y-41852379D02*
X15870952Y-41661903D01*
X15870952Y-41661903D02*
X15918571Y-41566665D01*
X16490000Y-41138093D02*
X16537619Y-41042855D01*
X16537619Y-41042855D02*
X16537619Y-40852379D01*
X16537619Y-40852379D02*
X16490000Y-40757141D01*
X16490000Y-40757141D02*
X16394761Y-40709522D01*
X16394761Y-40709522D02*
X16347142Y-40709522D01*
X16347142Y-40709522D02*
X16251904Y-40757141D01*
X16251904Y-40757141D02*
X16204285Y-40852379D01*
X16204285Y-40852379D02*
X16204285Y-40995236D01*
X16204285Y-40995236D02*
X16156666Y-41090474D01*
X16156666Y-41090474D02*
X16061428Y-41138093D01*
X16061428Y-41138093D02*
X16013809Y-41138093D01*
X16013809Y-41138093D02*
X15918571Y-41090474D01*
X15918571Y-41090474D02*
X15870952Y-40995236D01*
X15870952Y-40995236D02*
X15870952Y-40852379D01*
X15870952Y-40852379D02*
X15918571Y-40757141D01*
X16537619Y-39376188D02*
X16490000Y-39471426D01*
X16490000Y-39471426D02*
X16394761Y-39519045D01*
X16394761Y-39519045D02*
X15537619Y-39519045D01*
X16537619Y-38566664D02*
X16013809Y-38566664D01*
X16013809Y-38566664D02*
X15918571Y-38614283D01*
X15918571Y-38614283D02*
X15870952Y-38709521D01*
X15870952Y-38709521D02*
X15870952Y-38899997D01*
X15870952Y-38899997D02*
X15918571Y-38995235D01*
X16490000Y-38566664D02*
X16537619Y-38661902D01*
X16537619Y-38661902D02*
X16537619Y-38899997D01*
X16537619Y-38899997D02*
X16490000Y-38995235D01*
X16490000Y-38995235D02*
X16394761Y-39042854D01*
X16394761Y-39042854D02*
X16299523Y-39042854D01*
X16299523Y-39042854D02*
X16204285Y-38995235D01*
X16204285Y-38995235D02*
X16156666Y-38899997D01*
X16156666Y-38899997D02*
X16156666Y-38661902D01*
X16156666Y-38661902D02*
X16109047Y-38566664D01*
X15870952Y-38185711D02*
X16537619Y-37947616D01*
X15870952Y-37709521D02*
X16537619Y-37947616D01*
X16537619Y-37947616D02*
X16775714Y-38042854D01*
X16775714Y-38042854D02*
X16823333Y-38090473D01*
X16823333Y-38090473D02*
X16870952Y-38185711D01*
X16490000Y-36947616D02*
X16537619Y-37042854D01*
X16537619Y-37042854D02*
X16537619Y-37233330D01*
X16537619Y-37233330D02*
X16490000Y-37328568D01*
X16490000Y-37328568D02*
X16394761Y-37376187D01*
X16394761Y-37376187D02*
X16013809Y-37376187D01*
X16013809Y-37376187D02*
X15918571Y-37328568D01*
X15918571Y-37328568D02*
X15870952Y-37233330D01*
X15870952Y-37233330D02*
X15870952Y-37042854D01*
X15870952Y-37042854D02*
X15918571Y-36947616D01*
X15918571Y-36947616D02*
X16013809Y-36899997D01*
X16013809Y-36899997D02*
X16109047Y-36899997D01*
X16109047Y-36899997D02*
X16204285Y-37376187D01*
X16537619Y-36471425D02*
X15870952Y-36471425D01*
X16061428Y-36471425D02*
X15966190Y-36423806D01*
X15966190Y-36423806D02*
X15918571Y-36376187D01*
X15918571Y-36376187D02*
X15870952Y-36280949D01*
X15870952Y-36280949D02*
X15870952Y-36185711D01*
%TO.C,H2*%
X28200000Y-115000000D02*
G75*
G03*
X28200000Y-115000000I-3200000J0D01*
G01*
%TO.C,H1*%
X118200000Y-25000000D02*
G75*
G03*
X118200000Y-25000000I-3200000J0D01*
G01*
%TO.C,H4*%
X28200000Y-25000000D02*
G75*
G03*
X28200000Y-25000000I-3200000J0D01*
G01*
%TO.C,H3*%
X118200000Y-55000000D02*
G75*
G03*
X118200000Y-55000000I-3200000J0D01*
G01*
%TD*%
M02*
