%TF.GenerationSoftware,KiCad,Pcbnew,7.0.2-0*%
%TF.CreationDate,2024-05-31T06:07:32-07:00*%
%TF.ProjectId,version_1,76657273-696f-46e5-9f31-2e6b69636164,rev?*%
%TF.SameCoordinates,Original*%
%TF.FileFunction,Soldermask,Bot*%
%TF.FilePolarity,Negative*%
%FSLAX46Y46*%
G04 Gerber Fmt 4.6, Leading zero omitted, Abs format (unit mm)*
G04 Created by KiCad (PCBNEW 7.0.2-0) date 2024-05-31 06:07:32*
%MOMM*%
%LPD*%
G01*
G04 APERTURE LIST*
%ADD10R,1.700000X1.700000*%
%ADD11O,1.700000X1.700000*%
%ADD12C,1.600000*%
%ADD13C,0.770000*%
%ADD14C,3.200000*%
%ADD15O,1.800000X1.800000*%
%ADD16O,1.500000X1.500000*%
%ADD17C,2.500000*%
%ADD18C,1.800000*%
G04 APERTURE END LIST*
D10*
%TO.C,M8*%
X107950000Y-27305000D03*
D11*
X107950000Y-24765000D03*
X107950000Y-22225000D03*
%TD*%
D12*
%TO.C,CN3*%
X46902999Y-22296973D03*
X48902999Y-22296973D03*
X50902999Y-22296973D03*
X52902999Y-22296973D03*
X54902999Y-22296973D03*
X56902999Y-22296973D03*
%TD*%
D13*
%TO.C,U17*%
X34801000Y-33378973D03*
X36101000Y-33378973D03*
X37401000Y-33378973D03*
X34801000Y-32078973D03*
X36101000Y-32078973D03*
X37401000Y-32078973D03*
%TD*%
D12*
%TO.C,CN4*%
X31655000Y-22172973D03*
X33655000Y-22172973D03*
X35655000Y-22172973D03*
X37655000Y-22172973D03*
X39655000Y-22172973D03*
X41655000Y-22172973D03*
%TD*%
D13*
%TO.C,U16*%
X50049000Y-33502973D03*
X51349000Y-33502973D03*
X52649000Y-33502973D03*
X50049000Y-32202973D03*
X51349000Y-32202973D03*
X52649000Y-32202973D03*
%TD*%
%TO.C,U13*%
X80409000Y-33378973D03*
X81709000Y-33378973D03*
X83009000Y-33378973D03*
X80409000Y-32078973D03*
X81709000Y-32078973D03*
X83009000Y-32078973D03*
%TD*%
D14*
%TO.C,H2*%
X25000000Y-115000000D03*
%TD*%
D10*
%TO.C,M6*%
X98000000Y-27305000D03*
D11*
X98000000Y-24765000D03*
X98000000Y-22225000D03*
%TD*%
D10*
%TO.C,M5*%
X93000000Y-27305000D03*
D11*
X93000000Y-24765000D03*
X93000000Y-22225000D03*
%TD*%
D12*
%TO.C,CN2*%
X61942999Y-22188973D03*
X63942999Y-22188973D03*
X65942999Y-22188973D03*
X67942999Y-22188973D03*
X69942999Y-22188973D03*
X71942999Y-22188973D03*
%TD*%
D13*
%TO.C,U15*%
X65089000Y-33394973D03*
X66389000Y-33394973D03*
X67689000Y-33394973D03*
X65089000Y-32094973D03*
X66389000Y-32094973D03*
X67689000Y-32094973D03*
%TD*%
D15*
%TO.C,U1*%
X22275000Y-53725000D03*
D16*
X25305000Y-53425000D03*
X25305000Y-48575000D03*
D15*
X22275000Y-48275000D03*
D11*
X70175000Y-53540000D03*
D10*
X70175000Y-51000000D03*
D11*
X70175000Y-48460000D03*
%TD*%
D14*
%TO.C,H1*%
X115000000Y-25000000D03*
%TD*%
D10*
%TO.C,M7*%
X103000000Y-27305000D03*
D11*
X103000000Y-24765000D03*
X103000000Y-22225000D03*
%TD*%
D17*
%TO.C,U2*%
X104050025Y-59055000D03*
X99350000Y-59055000D03*
X94649975Y-59055000D03*
%TD*%
D18*
%TO.C,U6*%
X38499860Y-65589987D03*
%TD*%
D12*
%TO.C,CN1*%
X77262999Y-22172973D03*
X79262999Y-22172973D03*
X81262999Y-22172973D03*
X83262999Y-22172973D03*
X85262999Y-22172973D03*
X87262999Y-22172973D03*
%TD*%
D14*
%TO.C,H4*%
X25000000Y-25000000D03*
%TD*%
%TO.C,H3*%
X115000000Y-55000000D03*
%TD*%
M02*
