%TF.GenerationSoftware,KiCad,Pcbnew,7.0.2-0*%
%TF.CreationDate,2024-05-31T06:07:32-07:00*%
%TF.ProjectId,version_1,76657273-696f-46e5-9f31-2e6b69636164,rev?*%
%TF.SameCoordinates,Original*%
%TF.FileFunction,Paste,Top*%
%TF.FilePolarity,Positive*%
%FSLAX46Y46*%
G04 Gerber Fmt 4.6, Leading zero omitted, Abs format (unit mm)*
G04 Created by KiCad (PCBNEW 7.0.2-0) date 2024-05-31 06:07:32*
%MOMM*%
%LPD*%
G01*
G04 APERTURE LIST*
G04 Aperture macros list*
%AMRoundRect*
0 Rectangle with rounded corners*
0 $1 Rounding radius*
0 $2 $3 $4 $5 $6 $7 $8 $9 X,Y pos of 4 corners*
0 Add a 4 corners polygon primitive as box body*
4,1,4,$2,$3,$4,$5,$6,$7,$8,$9,$2,$3,0*
0 Add four circle primitives for the rounded corners*
1,1,$1+$1,$2,$3*
1,1,$1+$1,$4,$5*
1,1,$1+$1,$6,$7*
1,1,$1+$1,$8,$9*
0 Add four rect primitives between the rounded corners*
20,1,$1+$1,$2,$3,$4,$5,0*
20,1,$1+$1,$4,$5,$6,$7,0*
20,1,$1+$1,$6,$7,$8,$9,0*
20,1,$1+$1,$8,$9,$2,$3,0*%
G04 Aperture macros list end*
%ADD10RoundRect,0.250000X-0.337500X-0.475000X0.337500X-0.475000X0.337500X0.475000X-0.337500X0.475000X0*%
%ADD11RoundRect,0.237500X0.300000X0.237500X-0.300000X0.237500X-0.300000X-0.237500X0.300000X-0.237500X0*%
%ADD12RoundRect,0.237500X0.250000X0.237500X-0.250000X0.237500X-0.250000X-0.237500X0.250000X-0.237500X0*%
%ADD13RoundRect,0.150000X-0.850000X-0.150000X0.850000X-0.150000X0.850000X0.150000X-0.850000X0.150000X0*%
%ADD14RoundRect,0.237500X-0.237500X0.300000X-0.237500X-0.300000X0.237500X-0.300000X0.237500X0.300000X0*%
%ADD15RoundRect,0.237500X0.237500X-0.300000X0.237500X0.300000X-0.237500X0.300000X-0.237500X-0.300000X0*%
%ADD16RoundRect,0.237500X-0.250000X-0.237500X0.250000X-0.237500X0.250000X0.237500X-0.250000X0.237500X0*%
%ADD17R,3.100000X2.400000*%
%ADD18R,0.500000X2.200000*%
%ADD19R,1.550013X0.600000*%
%ADD20R,1.800000X1.200000*%
%ADD21R,2.500000X1.900000*%
%ADD22RoundRect,0.237500X-0.300000X-0.237500X0.300000X-0.237500X0.300000X0.237500X-0.300000X0.237500X0*%
%ADD23RoundRect,0.237500X0.237500X-0.250000X0.237500X0.250000X-0.237500X0.250000X-0.237500X-0.250000X0*%
%ADD24RoundRect,0.150000X-0.587500X-0.150000X0.587500X-0.150000X0.587500X0.150000X-0.587500X0.150000X0*%
%ADD25R,1.072009X0.532004*%
%ADD26RoundRect,0.250000X0.325000X0.450000X-0.325000X0.450000X-0.325000X-0.450000X0.325000X-0.450000X0*%
%ADD27RoundRect,0.250000X-0.475000X0.337500X-0.475000X-0.337500X0.475000X-0.337500X0.475000X0.337500X0*%
%ADD28RoundRect,0.150000X0.150000X-0.587500X0.150000X0.587500X-0.150000X0.587500X-0.150000X-0.587500X0*%
%ADD29RoundRect,0.250001X-1.074999X0.462499X-1.074999X-0.462499X1.074999X-0.462499X1.074999X0.462499X0*%
%ADD30RoundRect,0.250000X0.337500X0.475000X-0.337500X0.475000X-0.337500X-0.475000X0.337500X-0.475000X0*%
%ADD31RoundRect,0.250000X-1.500000X-0.650000X1.500000X-0.650000X1.500000X0.650000X-1.500000X0.650000X0*%
%ADD32R,5.200000X7.400000*%
%ADD33RoundRect,0.087500X0.225000X0.087500X-0.225000X0.087500X-0.225000X-0.087500X0.225000X-0.087500X0*%
%ADD34RoundRect,0.087500X0.087500X0.225000X-0.087500X0.225000X-0.087500X-0.225000X0.087500X-0.225000X0*%
%ADD35RoundRect,0.237500X-0.237500X0.250000X-0.237500X-0.250000X0.237500X-0.250000X0.237500X0.250000X0*%
%ADD36RoundRect,0.250000X0.475000X-0.337500X0.475000X0.337500X-0.475000X0.337500X-0.475000X-0.337500X0*%
%ADD37R,1.134011X3.358547*%
%ADD38R,10.566421X7.180544*%
%ADD39R,1.100000X2.000000*%
G04 APERTURE END LIST*
D10*
%TO.C,C37*%
X72354000Y-37973000D03*
X74429000Y-37973000D03*
%TD*%
D11*
%TO.C,C60*%
X95477500Y-36830000D03*
X93752500Y-36830000D03*
%TD*%
D12*
%TO.C,R27*%
X116889974Y-81195026D03*
X115064974Y-81195026D03*
%TD*%
D13*
%TO.C,U10*%
X112865000Y-32967973D03*
X112865000Y-34237973D03*
X112865000Y-35507973D03*
X112865000Y-36777973D03*
X112865000Y-38047973D03*
X112865000Y-39317973D03*
X112865000Y-40587973D03*
X112865000Y-41857973D03*
X117865000Y-41857973D03*
X117865000Y-40587973D03*
X117865000Y-39317973D03*
X117865000Y-38047973D03*
X117865000Y-36777973D03*
X117865000Y-35507973D03*
X117865000Y-34237973D03*
X117865000Y-32967973D03*
%TD*%
D10*
%TO.C,C30*%
X100962500Y-54000000D03*
X103037500Y-54000000D03*
%TD*%
D14*
%TO.C,C26*%
X70485000Y-34062500D03*
X70485000Y-35787500D03*
%TD*%
D12*
%TO.C,R25*%
X92227500Y-45155000D03*
X90402500Y-45155000D03*
%TD*%
D15*
%TO.C,C6*%
X89535000Y-49122500D03*
X89535000Y-47397500D03*
%TD*%
D14*
%TO.C,C7*%
X110473500Y-47042500D03*
X110473500Y-48767500D03*
%TD*%
D10*
%TO.C,C42*%
X72354000Y-35687000D03*
X74429000Y-35687000D03*
%TD*%
D16*
%TO.C,R29*%
X24217500Y-81229763D03*
X26042500Y-81229763D03*
%TD*%
D17*
%TO.C,U17*%
X36101000Y-32728973D03*
D18*
X34196000Y-35603973D03*
X35466000Y-35603973D03*
X36736000Y-35603973D03*
X38006000Y-35603973D03*
X38006000Y-29853973D03*
X36736000Y-29853973D03*
X35466000Y-29853973D03*
X34196000Y-29853973D03*
%TD*%
D12*
%TO.C,R17*%
X117635974Y-99433026D03*
X115810974Y-99433026D03*
%TD*%
D14*
%TO.C,C5*%
X79375000Y-47302500D03*
X79375000Y-49027500D03*
%TD*%
D19*
%TO.C,U18*%
X25433024Y-86130127D03*
X25433024Y-87130127D03*
X25432516Y-88130381D03*
X25432516Y-89130381D03*
D20*
X21556976Y-90430102D03*
X21557484Y-84829898D03*
%TD*%
D21*
%TO.C,U5*%
X96882500Y-50968538D03*
X96882500Y-46868462D03*
%TD*%
D14*
%TO.C,C50*%
X27940000Y-75972500D03*
X27940000Y-77697500D03*
%TD*%
D17*
%TO.C,U16*%
X51349000Y-32852973D03*
D18*
X49444000Y-35727973D03*
X50714000Y-35727973D03*
X51984000Y-35727973D03*
X53254000Y-35727973D03*
X53254000Y-29977973D03*
X51984000Y-29977973D03*
X50714000Y-29977973D03*
X49444000Y-29977973D03*
%TD*%
D10*
%TO.C,C11*%
X87889000Y-29667000D03*
X89964000Y-29667000D03*
%TD*%
D11*
%TO.C,C29*%
X113892500Y-30480000D03*
X112167500Y-30480000D03*
%TD*%
D14*
%TO.C,C28*%
X40005000Y-34062500D03*
X40005000Y-35787500D03*
%TD*%
D10*
%TO.C,C36*%
X87889000Y-37973000D03*
X89964000Y-37973000D03*
%TD*%
D17*
%TO.C,U13*%
X81709000Y-32728973D03*
D18*
X79804000Y-35603973D03*
X81074000Y-35603973D03*
X82344000Y-35603973D03*
X83614000Y-35603973D03*
X83614000Y-29853973D03*
X82344000Y-29853973D03*
X81074000Y-29853973D03*
X79804000Y-29853973D03*
%TD*%
D22*
%TO.C,C4*%
X42090000Y-27305000D03*
X43815000Y-27305000D03*
%TD*%
D23*
%TO.C,R23*%
X27305000Y-65747500D03*
X27305000Y-63922500D03*
%TD*%
D15*
%TO.C,C14*%
X103087500Y-50900000D03*
X103087500Y-49175000D03*
%TD*%
D24*
%TO.C,Q25*%
X24462500Y-96825000D03*
X24462500Y-98725000D03*
X26337500Y-97775000D03*
%TD*%
D25*
%TO.C,U4*%
X106022402Y-49087538D03*
X106022402Y-50037500D03*
X106022402Y-50987462D03*
X108320598Y-50987462D03*
X108320598Y-50037500D03*
X108320598Y-49087538D03*
%TD*%
D22*
%TO.C,C3*%
X57330000Y-27305000D03*
X59055000Y-27305000D03*
%TD*%
D26*
%TO.C,D1*%
X117865000Y-118110000D03*
X115815000Y-118110000D03*
%TD*%
D27*
%TO.C,C59*%
X118110000Y-47857500D03*
X118110000Y-49932500D03*
%TD*%
D28*
%TO.C,Q17*%
X92050000Y-33980473D03*
X93950000Y-33980473D03*
X93000000Y-32105473D03*
%TD*%
D10*
%TO.C,C39*%
X42169000Y-36830000D03*
X44244000Y-36830000D03*
%TD*%
D14*
%TO.C,C25*%
X85725000Y-34062500D03*
X85725000Y-35787500D03*
%TD*%
D26*
%TO.C,D7*%
X117002474Y-84497026D03*
X114952474Y-84497026D03*
%TD*%
%TO.C,D3*%
X117494474Y-102735026D03*
X115444474Y-102735026D03*
%TD*%
D22*
%TO.C,C2*%
X72275000Y-27305000D03*
X74000000Y-27305000D03*
%TD*%
D10*
%TO.C,C54*%
X42169000Y-34290000D03*
X44244000Y-34290000D03*
%TD*%
D29*
%TO.C,F1*%
X116662000Y-64045263D03*
X116662000Y-67020263D03*
%TD*%
D17*
%TO.C,U15*%
X66389000Y-32744973D03*
D18*
X64484000Y-35619973D03*
X65754000Y-35619973D03*
X67024000Y-35619973D03*
X68294000Y-35619973D03*
X68294000Y-29869973D03*
X67024000Y-29869973D03*
X65754000Y-29869973D03*
X64484000Y-29869973D03*
%TD*%
D30*
%TO.C,C13*%
X98037500Y-54000000D03*
X95962500Y-54000000D03*
%TD*%
D10*
%TO.C,C47*%
X57409000Y-35687000D03*
X59484000Y-35687000D03*
%TD*%
D12*
%TO.C,R20*%
X117752500Y-115570000D03*
X115927500Y-115570000D03*
%TD*%
D10*
%TO.C,C38*%
X57409000Y-37973000D03*
X59484000Y-37973000D03*
%TD*%
%TO.C,C45*%
X57409000Y-29667000D03*
X59484000Y-29667000D03*
%TD*%
%TO.C,C46*%
X57409000Y-32676999D03*
X59484000Y-32676999D03*
%TD*%
D23*
%TO.C,R4*%
X112122500Y-49576500D03*
X112122500Y-47751500D03*
%TD*%
D16*
%TO.C,R26*%
X86827500Y-45155000D03*
X88652500Y-45155000D03*
%TD*%
%TO.C,R30*%
X24217500Y-83229763D03*
X26042500Y-83229763D03*
%TD*%
D23*
%TO.C,R21*%
X22145000Y-65610000D03*
X22145000Y-63785000D03*
%TD*%
D10*
%TO.C,C58*%
X100925000Y-46863500D03*
X103000000Y-46863500D03*
%TD*%
D22*
%TO.C,C1*%
X87810000Y-27305000D03*
X89535000Y-27305000D03*
%TD*%
D24*
%TO.C,Q24*%
X24462500Y-93275000D03*
X24462500Y-95175000D03*
X26337500Y-94225000D03*
%TD*%
D10*
%TO.C,C15*%
X90402500Y-43180000D03*
X92477500Y-43180000D03*
%TD*%
D31*
%TO.C,D5*%
X24700000Y-36860000D03*
X29700000Y-36860000D03*
%TD*%
D32*
%TO.C,U6*%
X33350000Y-72940000D03*
X115649974Y-72940000D03*
X33350000Y-91440127D03*
X115649974Y-91440127D03*
X33350000Y-109940000D03*
X115649974Y-109940000D03*
%TD*%
D33*
%TO.C,U12*%
X26117500Y-78942263D03*
X26117500Y-78442263D03*
X26117500Y-77942263D03*
X26117500Y-77442263D03*
D34*
X25455000Y-77279763D03*
X24955000Y-77279763D03*
X24455000Y-77279763D03*
D33*
X23792500Y-77442263D03*
X23792500Y-77942263D03*
X23792500Y-78442263D03*
X23792500Y-78942263D03*
D34*
X24455000Y-79104763D03*
X24955000Y-79104763D03*
X25455000Y-79104763D03*
%TD*%
D11*
%TO.C,C61*%
X115162500Y-45085000D03*
X113437500Y-45085000D03*
%TD*%
D10*
%TO.C,C8*%
X101832500Y-41910000D03*
X103907500Y-41910000D03*
%TD*%
D14*
%TO.C,C27*%
X55245000Y-34062500D03*
X55245000Y-35787500D03*
%TD*%
D24*
%TO.C,Q22*%
X24462500Y-100450000D03*
X24462500Y-102350000D03*
X26337500Y-101400000D03*
%TD*%
D10*
%TO.C,C52*%
X42169000Y-29667000D03*
X44244000Y-29667000D03*
%TD*%
D15*
%TO.C,C16*%
X22225000Y-77697500D03*
X22225000Y-75972500D03*
%TD*%
D35*
%TO.C,R3*%
X115932500Y-48087500D03*
X115932500Y-49912500D03*
%TD*%
D36*
%TO.C,C31*%
X101087500Y-51075000D03*
X101087500Y-49000000D03*
%TD*%
D10*
%TO.C,C57*%
X100925000Y-44323500D03*
X103000000Y-44323500D03*
%TD*%
D28*
%TO.C,Q18*%
X97050000Y-33980473D03*
X98950000Y-33980473D03*
X98000000Y-32105473D03*
%TD*%
D24*
%TO.C,Q23*%
X24462500Y-107750000D03*
X24462500Y-109650000D03*
X26337500Y-108700000D03*
%TD*%
D10*
%TO.C,C53*%
X42169000Y-31750000D03*
X44244000Y-31750000D03*
%TD*%
D26*
%TO.C,D4*%
X108025000Y-54000000D03*
X105975000Y-54000000D03*
%TD*%
D10*
%TO.C,C32*%
X87889000Y-32676999D03*
X89964000Y-32676999D03*
%TD*%
D28*
%TO.C,Q20*%
X107050000Y-33980473D03*
X108950000Y-33980473D03*
X108000000Y-32105473D03*
%TD*%
D10*
%TO.C,C41*%
X72354000Y-32676999D03*
X74429000Y-32676999D03*
%TD*%
%TO.C,C40*%
X72354000Y-29667000D03*
X74429000Y-29667000D03*
%TD*%
D22*
%TO.C,C51*%
X116127000Y-30480000D03*
X117852000Y-30480000D03*
%TD*%
D24*
%TO.C,Q21*%
X24462500Y-104050000D03*
X24462500Y-105950000D03*
X26337500Y-105000000D03*
%TD*%
D28*
%TO.C,Q19*%
X102050000Y-33980473D03*
X103950000Y-33980473D03*
X103000000Y-32105473D03*
%TD*%
D16*
%TO.C,R1*%
X107087500Y-57000000D03*
X108912500Y-57000000D03*
%TD*%
D10*
%TO.C,C33*%
X87889000Y-35687000D03*
X89964000Y-35687000D03*
%TD*%
D23*
%TO.C,R2*%
X114027500Y-49912500D03*
X114027500Y-48087500D03*
%TD*%
D37*
%TO.C,U3*%
X86995005Y-48258731D03*
X81914995Y-48258731D03*
D38*
X84455000Y-58830487D03*
%TD*%
D39*
%TO.C,D6*%
X22430000Y-73415000D03*
X24130000Y-73415000D03*
X25830000Y-73415000D03*
X25830000Y-68615000D03*
X24130000Y-68615000D03*
X22430000Y-68615000D03*
%TD*%
D23*
%TO.C,R22*%
X24685000Y-65610000D03*
X24685000Y-63785000D03*
%TD*%
M02*
