%TF.GenerationSoftware,KiCad,Pcbnew,7.0.2-0*%
%TF.CreationDate,2024-06-06T04:37:27-07:00*%
%TF.ProjectId,version_1,76657273-696f-46e5-9f31-2e6b69636164,rev?*%
%TF.SameCoordinates,Original*%
%TF.FileFunction,Copper,L4,Bot*%
%TF.FilePolarity,Positive*%
%FSLAX46Y46*%
G04 Gerber Fmt 4.6, Leading zero omitted, Abs format (unit mm)*
G04 Created by KiCad (PCBNEW 7.0.2-0) date 2024-06-06 04:37:27*
%MOMM*%
%LPD*%
G01*
G04 APERTURE LIST*
%TA.AperFunction,ComponentPad*%
%ADD10R,1.700000X1.700000*%
%TD*%
%TA.AperFunction,ComponentPad*%
%ADD11O,1.700000X1.700000*%
%TD*%
%TA.AperFunction,ComponentPad*%
%ADD12C,1.600000*%
%TD*%
%TA.AperFunction,ComponentPad*%
%ADD13C,0.630000*%
%TD*%
%TA.AperFunction,SMDPad,CuDef*%
%ADD14R,3.300000X2.600000*%
%TD*%
%TA.AperFunction,ComponentPad*%
%ADD15C,1.800000*%
%TD*%
%TA.AperFunction,ViaPad*%
%ADD16C,0.500000*%
%TD*%
%TA.AperFunction,ViaPad*%
%ADD17C,0.800000*%
%TD*%
%TA.AperFunction,ViaPad*%
%ADD18C,0.600000*%
%TD*%
%TA.AperFunction,Conductor*%
%ADD19C,0.508000*%
%TD*%
%TA.AperFunction,Conductor*%
%ADD20C,0.254000*%
%TD*%
%TA.AperFunction,Conductor*%
%ADD21C,0.400000*%
%TD*%
%TA.AperFunction,Conductor*%
%ADD22C,0.600000*%
%TD*%
%TA.AperFunction,Conductor*%
%ADD23C,0.250000*%
%TD*%
G04 APERTURE END LIST*
D10*
%TO.P,M8,1,PWM*%
%TO.N,/Servo/PWM*%
X107950000Y-27305000D03*
D11*
%TO.P,M8,2,+*%
%TO.N,Net-(M8-+)*%
X107950000Y-24765000D03*
%TO.P,M8,3,-*%
%TO.N,GND*%
X107950000Y-22225000D03*
%TD*%
D12*
%TO.P,CN3,1,1*%
%TO.N,Net-(U16-OUT2)*%
X46902999Y-22225000D03*
%TO.P,CN3,2,2*%
%TO.N,ENC_PWR_G*%
X48902999Y-22225000D03*
%TO.P,CN3,3,3*%
%TO.N,/ENCODER5*%
X50902999Y-22225000D03*
%TO.P,CN3,4,4*%
%TO.N,/ENCODER6*%
X52902999Y-22225000D03*
%TO.P,CN3,5,5*%
%TO.N,ENC_PWR_P*%
X54902999Y-22225000D03*
%TO.P,CN3,6,6*%
%TO.N,Net-(U16-OUT1)*%
X56902999Y-22225000D03*
%TD*%
D13*
%TO.P,U17,9,GND*%
%TO.N,GND*%
X34801000Y-33378973D03*
X36101000Y-33378973D03*
X37401000Y-33378973D03*
D14*
X36101000Y-32728973D03*
D13*
X34801000Y-32078973D03*
X36101000Y-32078973D03*
X37401000Y-32078973D03*
%TD*%
D12*
%TO.P,CN4,1,1*%
%TO.N,Net-(U17-OUT2)*%
X31655000Y-22172973D03*
%TO.P,CN4,2,2*%
%TO.N,ENC_PWR_G*%
X33655000Y-22172973D03*
%TO.P,CN4,3,3*%
%TO.N,/ENCODER7*%
X35655000Y-22172973D03*
%TO.P,CN4,4,4*%
%TO.N,/ENCODER8*%
X37655000Y-22172973D03*
%TO.P,CN4,5,5*%
%TO.N,ENC_PWR_P*%
X39655000Y-22172973D03*
%TO.P,CN4,6,6*%
%TO.N,Net-(U17-OUT1)*%
X41655000Y-22172973D03*
%TD*%
D13*
%TO.P,U16,9,GND*%
%TO.N,GND*%
X50049000Y-33502973D03*
X51349000Y-33502973D03*
X52649000Y-33502973D03*
D14*
X51349000Y-32852973D03*
D13*
X50049000Y-32202973D03*
X51349000Y-32202973D03*
X52649000Y-32202973D03*
%TD*%
%TO.P,U13,9,GND*%
%TO.N,GND*%
X80409000Y-33378973D03*
X81709000Y-33378973D03*
X83009000Y-33378973D03*
D14*
X81709000Y-32728973D03*
D13*
X80409000Y-32078973D03*
X81709000Y-32078973D03*
X83009000Y-32078973D03*
%TD*%
D10*
%TO.P,M6,1,PWM*%
%TO.N,/Untitled Sheet4/PWM*%
X98000000Y-27305000D03*
D11*
%TO.P,M6,2,+*%
%TO.N,Net-(M6-+)*%
X98000000Y-24765000D03*
%TO.P,M6,3,-*%
%TO.N,GND*%
X98000000Y-22225000D03*
%TD*%
D10*
%TO.P,M5,1,PWM*%
%TO.N,/Untitled Sheet7/PWM*%
X93000000Y-27305000D03*
D11*
%TO.P,M5,2,+*%
%TO.N,Net-(M5-+)*%
X93000000Y-24765000D03*
%TO.P,M5,3,-*%
%TO.N,GND*%
X93000000Y-22225000D03*
%TD*%
D12*
%TO.P,CN2,1,1*%
%TO.N,Net-(U15-OUT2)*%
X61942999Y-22188973D03*
%TO.P,CN2,2,2*%
%TO.N,ENC_PWR_G*%
X63942999Y-22188973D03*
%TO.P,CN2,3,3*%
%TO.N,/ENCODER3*%
X65942999Y-22188973D03*
%TO.P,CN2,4,4*%
%TO.N,/ENCODER4*%
X67942999Y-22188973D03*
%TO.P,CN2,5,5*%
%TO.N,ENC_PWR_P*%
X69942999Y-22188973D03*
%TO.P,CN2,6,6*%
%TO.N,Net-(U15-OUT1)*%
X71942999Y-22188973D03*
%TD*%
D13*
%TO.P,U15,9,GND*%
%TO.N,GND*%
X65089000Y-33394973D03*
X66389000Y-33394973D03*
X67689000Y-33394973D03*
D14*
X66389000Y-32744973D03*
D13*
X65089000Y-32094973D03*
X66389000Y-32094973D03*
X67689000Y-32094973D03*
%TD*%
D10*
%TO.P,M7,1,PWM*%
%TO.N,/Servo2/PWM*%
X103000000Y-27305000D03*
D11*
%TO.P,M7,2,+*%
%TO.N,Net-(M7-+)*%
X103000000Y-24765000D03*
%TO.P,M7,3,-*%
%TO.N,GND*%
X103000000Y-22225000D03*
%TD*%
D15*
%TO.P,U7,1,1*%
%TO.N,VCC*%
X95249995Y-55244995D03*
%TO.P,U7,2,2*%
%TO.N,Net-(F2-Pad2)*%
X97790000Y-55244995D03*
%TO.P,U7,3,3*%
%TO.N,unconnected-(U7-Pad3)*%
X100330005Y-55244995D03*
%TO.P,U7,4,4*%
%TO.N,VCC*%
X95249995Y-60325005D03*
%TO.P,U7,5,5*%
%TO.N,Net-(F2-Pad2)*%
X97790000Y-60325005D03*
%TO.P,U7,6,6*%
%TO.N,unconnected-(U7-Pad6)*%
X100330005Y-60325005D03*
%TD*%
D12*
%TO.P,CN1,1,1*%
%TO.N,Net-(U13-OUT2)*%
X77262999Y-22172973D03*
%TO.P,CN1,2,2*%
%TO.N,ENC_PWR_G*%
X79262999Y-22172973D03*
%TO.P,CN1,3,3*%
%TO.N,/ENCODER1*%
X81262999Y-22172973D03*
%TO.P,CN1,4,4*%
%TO.N,/ENCODER2*%
X83262999Y-22172973D03*
%TO.P,CN1,5,5*%
%TO.N,ENC_PWR_P*%
X85262999Y-22172973D03*
%TO.P,CN1,6,6*%
%TO.N,Net-(U13-OUT1)*%
X87262999Y-22172973D03*
%TD*%
D16*
%TO.N,VCC*%
X92075000Y-39370000D03*
D17*
X70797546Y-26347546D03*
X40005000Y-26670000D03*
D16*
X93980000Y-42545000D03*
D17*
X85939174Y-26249174D03*
X55269290Y-27031512D03*
%TO.N,GND*%
X60325000Y-34290000D03*
X52705000Y-71755000D03*
X82550000Y-61637973D03*
X80645000Y-58325000D03*
X75565000Y-72390000D03*
D16*
X106680000Y-60325000D03*
D17*
X85725000Y-105410000D03*
X50800000Y-71755000D03*
X84455000Y-60367973D03*
D16*
X52966011Y-27198900D03*
D17*
X97790000Y-117475000D03*
D16*
X118745000Y-51435000D03*
D17*
X88265000Y-61637973D03*
X85725000Y-103505000D03*
X97155000Y-86995000D03*
X88265000Y-56515000D03*
X45720000Y-71755000D03*
X97155000Y-68580000D03*
X89535000Y-117475000D03*
D16*
X38100000Y-38735000D03*
D17*
X74295000Y-82550000D03*
X68580000Y-38100000D03*
X74295000Y-97790000D03*
X84455000Y-56515000D03*
X100330000Y-117475000D03*
X37465000Y-117475000D03*
X61595000Y-100330000D03*
D16*
X112395000Y-45085000D03*
D17*
X45482500Y-31115000D03*
X21927500Y-93345000D03*
X85725000Y-85090000D03*
X28575000Y-21590000D03*
X80645000Y-117475000D03*
X21292500Y-109220000D03*
X86360000Y-58462973D03*
X97155000Y-80010000D03*
X40005000Y-117475000D03*
X61595000Y-104775000D03*
X95885000Y-117475000D03*
X96520000Y-100965000D03*
X34925000Y-117475000D03*
X115297500Y-47498500D03*
X74295000Y-85090000D03*
D16*
X66675000Y-27940000D03*
D17*
X97155000Y-75565000D03*
X48260000Y-117475000D03*
X21292500Y-95250000D03*
X62230000Y-85090000D03*
X86360000Y-60367973D03*
X45085000Y-35560000D03*
X74295000Y-102870000D03*
X21927500Y-107200237D03*
X21590000Y-33020000D03*
X85725000Y-100965000D03*
D16*
X24130000Y-85725000D03*
D17*
X40005000Y-50165000D03*
X40005000Y-52705000D03*
X42545000Y-56515000D03*
X64135000Y-117475000D03*
X82550000Y-60367973D03*
X21292500Y-97155000D03*
X29845000Y-33020000D03*
X22562500Y-94500237D03*
X88265000Y-58462973D03*
X27305000Y-43815000D03*
X86995000Y-117475000D03*
X88265000Y-60367973D03*
X40005000Y-54610000D03*
X61595000Y-97790000D03*
X26670000Y-57785000D03*
X22562500Y-97675237D03*
X80645000Y-59595000D03*
X84455000Y-58462973D03*
X21292500Y-102870000D03*
X24765000Y-71185000D03*
X85725000Y-86995000D03*
X21292500Y-99060000D03*
X45085000Y-27940000D03*
X112395000Y-59055000D03*
D16*
X93345000Y-35560000D03*
D17*
X80645000Y-56420000D03*
D16*
X118745000Y-29210000D03*
D17*
X97155000Y-85090000D03*
X22362500Y-98700000D03*
X96520000Y-98425000D03*
X85725000Y-98425000D03*
X60325000Y-31115000D03*
X85725000Y-82550000D03*
X107950000Y-43815000D03*
X73660000Y-117475000D03*
X105137500Y-45593500D03*
D16*
X36830000Y-26035000D03*
D17*
X21590000Y-81915000D03*
X21292500Y-111125000D03*
X92075000Y-117475000D03*
X22562500Y-103390237D03*
D16*
X33020000Y-32385000D03*
D17*
X66675000Y-117475000D03*
D16*
X83185000Y-27305000D03*
D17*
X61595000Y-102870000D03*
X50800000Y-117475000D03*
X55880000Y-37465000D03*
X62230000Y-80010000D03*
X66675000Y-64135000D03*
D16*
X40005000Y-37465000D03*
D18*
X24755000Y-78204763D03*
D17*
X48989500Y-38100000D03*
X40005000Y-47625000D03*
X115873000Y-36904973D03*
X84455000Y-61637973D03*
X74295000Y-80010000D03*
X22362500Y-101700000D03*
X85725000Y-51435000D03*
X74915500Y-28321000D03*
X22225000Y-28575000D03*
X102870000Y-117475000D03*
X62230000Y-86995000D03*
X75565000Y-67310000D03*
X75565000Y-34290000D03*
X85725000Y-80010000D03*
X96520000Y-105410000D03*
D16*
X90929252Y-37151626D03*
D17*
X45085000Y-38100000D03*
X75565000Y-36830000D03*
X83820000Y-38100000D03*
X22562500Y-111010237D03*
X78105000Y-117475000D03*
X75565000Y-69850000D03*
X22860000Y-71185000D03*
X48260000Y-71755000D03*
X86360000Y-61637973D03*
X21292500Y-105410000D03*
X80645000Y-61500000D03*
X79349500Y-36670819D03*
X82550000Y-58462973D03*
D16*
X29210000Y-29845000D03*
D17*
X59690000Y-117475000D03*
X75565000Y-31115000D03*
D16*
X105410000Y-41910000D03*
D17*
X85090000Y-117475000D03*
X45482500Y-33655000D03*
X53340000Y-117475000D03*
X74295000Y-86995000D03*
D16*
X22225000Y-30480000D03*
D17*
X97155000Y-82550000D03*
X24042316Y-57758725D03*
X21292500Y-100330000D03*
X97155000Y-73660000D03*
X75565000Y-74295000D03*
X62230000Y-82550000D03*
X22362500Y-95700000D03*
X61595000Y-117475000D03*
D16*
X90805000Y-31115000D03*
D17*
X21590000Y-36195000D03*
X74295000Y-100330000D03*
X70485000Y-27940000D03*
X22362500Y-105700000D03*
X64029500Y-36686819D03*
X74295000Y-104775000D03*
X75565000Y-117475000D03*
X21292500Y-107950000D03*
D16*
X90704500Y-34163000D03*
D17*
X53975000Y-64135000D03*
X46355000Y-117475000D03*
X86360000Y-56515000D03*
D16*
X91440000Y-38100000D03*
D17*
X27940000Y-85090000D03*
X75565000Y-38100000D03*
X26670000Y-71185000D03*
D16*
X110490000Y-40005000D03*
D17*
X22362500Y-109700000D03*
X33020000Y-117475000D03*
X97155000Y-71120000D03*
X105772500Y-47663000D03*
X96520000Y-103505000D03*
D16*
X112395000Y-29210000D03*
D17*
X82550000Y-56515000D03*
%TO.N,+5V*%
X110490000Y-32332973D03*
X96520000Y-36275500D03*
X116381000Y-31824973D03*
D16*
X85725000Y-31750000D03*
X70485000Y-31115000D03*
X97155000Y-41275000D03*
X40005000Y-32385000D03*
D17*
X99695000Y-35507973D03*
X117475000Y-43762973D03*
D16*
X55245000Y-32385000D03*
D17*
X105410000Y-33602973D03*
D16*
%TO.N,+3.3V*%
X26035000Y-34290000D03*
D17*
X28575000Y-63565000D03*
D16*
X32222573Y-39058849D03*
D17*
X29210000Y-58000000D03*
%TO.N,/ENCODER2*%
X73660000Y-45720000D03*
X77672388Y-30480000D03*
X75565000Y-40640000D03*
D16*
X78105000Y-27940000D03*
D17*
%TO.N,/ENCODER1*%
X76613041Y-29297545D03*
D16*
X77470000Y-27305000D03*
D17*
X73660000Y-44450000D03*
X74295000Y-40640000D03*
D16*
%TO.N,/ENCODER4*%
X62230000Y-63500000D03*
X62230000Y-37465000D03*
D17*
X63356502Y-27576413D03*
D16*
X53975000Y-45720000D03*
D17*
X62303000Y-29312973D03*
D16*
X55245000Y-57150000D03*
%TO.N,/ENCODER3*%
X53340000Y-45085000D03*
D17*
X62303000Y-27576413D03*
D16*
X60325000Y-63500000D03*
X53975000Y-57150000D03*
X60960000Y-37465000D03*
D17*
X60862209Y-28549686D03*
%TO.N,/ENCODER6*%
X48386408Y-27499802D03*
D16*
X48895000Y-45085000D03*
D17*
X47263000Y-29420973D03*
D16*
X47625000Y-38735000D03*
%TO.N,/ENCODER5*%
X46990000Y-45085000D03*
X46355000Y-38735000D03*
D17*
X47487458Y-26950473D03*
X46263000Y-28420973D03*
D16*
%TO.N,/ENCODER8*%
X44450000Y-45085000D03*
D17*
X32015000Y-29296973D03*
D16*
X32385000Y-34925000D03*
D17*
X33015000Y-27296973D03*
D16*
%TO.N,/ENCODER7*%
X31115000Y-34290000D03*
D17*
X32015000Y-26296973D03*
D16*
X43180000Y-45720000D03*
D17*
X31015000Y-28296973D03*
D16*
%TO.N,/PWM_CS*%
X45085000Y-64770000D03*
X41842500Y-64770000D03*
%TO.N,Net-(U1-GPIO28_ADC2)*%
X80010000Y-51000000D03*
X56515000Y-56515000D03*
D18*
%TO.N,Net-(U1-GPIO4)*%
X28246500Y-64835000D03*
X34825000Y-65060000D03*
D17*
%TO.N,/SCL*%
X27940000Y-83185000D03*
X31115000Y-82000000D03*
%TO.N,Net-(U4-SW)*%
X107042500Y-46863500D03*
X104502500Y-50038500D03*
X99422500Y-50038500D03*
%TO.N,ENC_PWR_G*%
X29273000Y-24966973D03*
%TO.N,ENC_PWR_P*%
X52060000Y-25135473D03*
X29527000Y-27506973D03*
X67110000Y-25021973D03*
X36575000Y-24966971D03*
X82415270Y-25338672D03*
D16*
%TO.N,1S*%
X36830000Y-80010000D03*
X40005000Y-76835000D03*
%TO.N,Net-(D5-A)*%
X33655000Y-38100000D03*
X37595454Y-43684546D03*
X78236160Y-51566160D03*
X56455682Y-57844318D03*
D18*
%TO.N,Net-(Q21-G)*%
X26362500Y-103620000D03*
X26362500Y-106160000D03*
X26362500Y-100445000D03*
D17*
X37087552Y-81562449D03*
X41910000Y-77615500D03*
D18*
X26362500Y-96635000D03*
X26362500Y-95024500D03*
X26362500Y-93425500D03*
X26362500Y-102350000D03*
X26362500Y-99175000D03*
%TD*%
D19*
%TO.N,VCC*%
X41140028Y-25534972D02*
X40005000Y-26670000D01*
X84412506Y-26670000D02*
X85518348Y-26670000D01*
X51616466Y-25954146D02*
X49076466Y-25954146D01*
X93980000Y-41275000D02*
X93980000Y-42545000D01*
X48657292Y-25534972D02*
X41140028Y-25534972D01*
X49076466Y-25954146D02*
X48657292Y-25534972D01*
X85518348Y-26670000D02*
X85939174Y-26249174D01*
X83887078Y-26144572D02*
X84412506Y-26670000D01*
X54000000Y-26042973D02*
X70492973Y-26042973D01*
X92075000Y-39370000D02*
X93980000Y-41275000D01*
X54000000Y-26042973D02*
X54988539Y-27031512D01*
X71000520Y-26144572D02*
X83887078Y-26144572D01*
X54000000Y-26042973D02*
X51705293Y-26042973D01*
X51705293Y-26042973D02*
X51616466Y-25954146D01*
X54988539Y-27031512D02*
X55269290Y-27031512D01*
X70492973Y-26042973D02*
X70797546Y-26347546D01*
X70797546Y-26347546D02*
X71000520Y-26144572D01*
%TO.N,+5V*%
X107950000Y-32332973D02*
X110490000Y-32332973D01*
D20*
X70485000Y-29210000D02*
X68070913Y-26795913D01*
D19*
X91440000Y-30560500D02*
X91440000Y-27305000D01*
D20*
X70485000Y-31115000D02*
X70485000Y-29210000D01*
X70485000Y-29210000D02*
X73017527Y-26677473D01*
X83666343Y-26677473D02*
X85090000Y-28101130D01*
D19*
X99695000Y-35507973D02*
X98927473Y-36275500D01*
X117475000Y-32918973D02*
X116381000Y-31824973D01*
D20*
X73017527Y-26677473D02*
X83666343Y-26677473D01*
D19*
X117475000Y-43762973D02*
X117475000Y-32918973D01*
X97155000Y-41275000D02*
X97155000Y-36910500D01*
X98927473Y-36275500D02*
X97155000Y-36275500D01*
D20*
X85725000Y-29210000D02*
X85725000Y-31750000D01*
D19*
X97155000Y-36275500D02*
X96520000Y-36275500D01*
D20*
X53340000Y-26670000D02*
X48895000Y-26670000D01*
X55245000Y-27940000D02*
X54610000Y-27940000D01*
X48394473Y-26169473D02*
X41775527Y-26169473D01*
D19*
X99695000Y-35507973D02*
X104775000Y-35507973D01*
D20*
X40005000Y-27940000D02*
X40005000Y-32385000D01*
D19*
X104775000Y-35507973D02*
X105410000Y-34872973D01*
X97155000Y-36275500D02*
X91440000Y-30560500D01*
D20*
X85090000Y-28101130D02*
X85090000Y-28575000D01*
D19*
X105410000Y-34872973D02*
X107950000Y-32332973D01*
X90170000Y-26035000D02*
X87630000Y-26035000D01*
X87630000Y-26035000D02*
X85090000Y-28575000D01*
D20*
X60199087Y-26795913D02*
X59055000Y-27940000D01*
X41775527Y-26169473D02*
X40005000Y-27940000D01*
D19*
X91440000Y-27305000D02*
X90170000Y-26035000D01*
D20*
X59055000Y-27940000D02*
X55245000Y-27940000D01*
D19*
X97155000Y-36910500D02*
X96520000Y-36275500D01*
D20*
X48895000Y-26670000D02*
X48394473Y-26169473D01*
X54610000Y-27940000D02*
X53340000Y-26670000D01*
X55245000Y-27940000D02*
X55245000Y-32385000D01*
X68070913Y-26795913D02*
X60199087Y-26795913D01*
D19*
X105410000Y-33602973D02*
X105410000Y-34872973D01*
D20*
X85090000Y-28575000D02*
X85725000Y-29210000D01*
%TO.N,+3.3V*%
X26035000Y-34290000D02*
X30803849Y-39058849D01*
X30803849Y-39058849D02*
X32222573Y-39058849D01*
D21*
X28575000Y-58635000D02*
X29210000Y-58000000D01*
X28575000Y-63565000D02*
X28575000Y-58635000D01*
D20*
%TO.N,/ENCODER2*%
X77979973Y-27940000D02*
X77623000Y-28296973D01*
X75565000Y-43815000D02*
X73660000Y-45720000D01*
X77623000Y-28296973D02*
X77623000Y-30430612D01*
X78105000Y-27940000D02*
X77979973Y-27940000D01*
X75565000Y-40640000D02*
X75565000Y-43815000D01*
X77623000Y-30430612D02*
X77672388Y-30480000D01*
%TO.N,/ENCODER1*%
X74295000Y-43815000D02*
X73660000Y-44450000D01*
X76613041Y-28073271D02*
X77381312Y-27305000D01*
X77381312Y-27305000D02*
X77470000Y-27305000D01*
X76613041Y-28073271D02*
X76613041Y-29297545D01*
X74295000Y-40640000D02*
X74295000Y-43815000D01*
%TO.N,/ENCODER4*%
X62303000Y-29312973D02*
X63356503Y-28259470D01*
X61595000Y-63500000D02*
X62230000Y-63500000D01*
X63356503Y-28259470D02*
X63356503Y-27576413D01*
X58215802Y-60120802D02*
X61595000Y-63500000D01*
X55245000Y-57150000D02*
X55245000Y-57759952D01*
X55245000Y-57759952D02*
X57605850Y-60120802D01*
X62230000Y-37465000D02*
X53975000Y-45720000D01*
X57605850Y-60120802D02*
X58215802Y-60120802D01*
%TO.N,/ENCODER3*%
X61329727Y-28549686D02*
X62303000Y-27576413D01*
X53975000Y-57150000D02*
X60325000Y-63500000D01*
X60960000Y-37465000D02*
X53340000Y-45085000D01*
X60862209Y-28549686D02*
X61329727Y-28549686D01*
%TO.N,/ENCODER6*%
X47263000Y-28420973D02*
X47263000Y-29420973D01*
X47625000Y-43815000D02*
X48895000Y-45085000D01*
X47263000Y-29420973D02*
X47263000Y-28623207D01*
X48263000Y-27420973D02*
X47263000Y-28420973D01*
X47625000Y-38735000D02*
X47625000Y-43815000D01*
X47263000Y-28623207D02*
X48386406Y-27499801D01*
%TO.N,/ENCODER5*%
X46263000Y-28174931D02*
X47487458Y-26950473D01*
X46355000Y-38735000D02*
X46355000Y-44450000D01*
X46355000Y-44450000D02*
X46990000Y-45085000D01*
X46263000Y-28420973D02*
X46263000Y-28174931D01*
%TO.N,/ENCODER8*%
X43008602Y-45085000D02*
X44450000Y-45085000D01*
X32848602Y-34925000D02*
X43008602Y-45085000D01*
X32385000Y-34925000D02*
X32848602Y-34925000D01*
X32015000Y-28296973D02*
X32015000Y-29296973D01*
X33015000Y-27296973D02*
X32015000Y-28296973D01*
%TO.N,/ENCODER7*%
X31015000Y-27296973D02*
X31015000Y-28296973D01*
X31115000Y-34290000D02*
X31115000Y-34547369D01*
X39747631Y-43180000D02*
X40385182Y-43180000D01*
X32015000Y-26296973D02*
X31015000Y-27296973D01*
X43180000Y-45974818D02*
X43180000Y-45720000D01*
X40385182Y-43180000D02*
X43180000Y-45974818D01*
X31115000Y-34547369D02*
X39747631Y-43180000D01*
%TO.N,/PWM_CS*%
X45085000Y-64770000D02*
X41842500Y-64770000D01*
%TO.N,Net-(U1-GPIO28_ADC2)*%
X77470000Y-51435000D02*
X78105000Y-50800000D01*
X56515000Y-57150000D02*
X57150000Y-57785000D01*
X57150000Y-58157680D02*
X58047320Y-59055000D01*
X58047320Y-59055000D02*
X73977500Y-59055000D01*
X57150000Y-57785000D02*
X57150000Y-58157680D01*
X79810000Y-50800000D02*
X80010000Y-51000000D01*
X73977500Y-59055000D02*
X77470000Y-55562500D01*
X56515000Y-56515000D02*
X56515000Y-57150000D01*
X77470000Y-55562500D02*
X77470000Y-51435000D01*
X78105000Y-50800000D02*
X79810000Y-50800000D01*
D22*
%TO.N,Net-(U1-GPIO4)*%
X34825000Y-65060000D02*
X34600000Y-64835000D01*
X34600000Y-64835000D02*
X28246500Y-64835000D01*
D20*
%TO.N,/SCL*%
X29930000Y-83185000D02*
X31115000Y-82000000D01*
X27940000Y-83185000D02*
X29930000Y-83185000D01*
D21*
%TO.N,Net-(U4-SW)*%
X104502500Y-50038500D02*
X99422500Y-50038500D01*
X104502500Y-46863500D02*
X104502500Y-50038500D01*
X107042500Y-46863500D02*
X104502500Y-46863500D01*
D20*
%TO.N,ENC_PWR_G*%
X48902999Y-22225000D02*
X48895000Y-22225000D01*
D19*
X47751000Y-23696973D02*
X62229000Y-23696973D01*
X30543000Y-23696973D02*
X29527000Y-24712973D01*
D20*
X47625000Y-23495000D02*
X47625000Y-23696973D01*
D19*
X62229000Y-23696973D02*
X62662027Y-24130000D01*
X62355000Y-23712973D02*
X60831000Y-23712973D01*
X62419000Y-23712973D02*
X62387000Y-23744973D01*
X62387000Y-23744973D02*
X62355000Y-23712973D01*
X63943000Y-22188973D02*
X62387000Y-23744973D01*
X79263000Y-22172973D02*
X77707000Y-23728973D01*
X62419000Y-23712973D02*
X62387000Y-23744973D01*
X63943000Y-22188973D02*
X62387000Y-23744973D01*
X32067000Y-23696973D02*
X30543000Y-23696973D01*
X29527000Y-24712973D02*
X29273000Y-24966973D01*
X47783000Y-23696973D02*
X47625000Y-23696973D01*
X47625000Y-23696973D02*
X31051000Y-23696973D01*
X33655000Y-22172973D02*
X32099000Y-23728973D01*
X62355000Y-23712973D02*
X60831000Y-23712973D01*
X79263000Y-22172973D02*
X77707000Y-23728973D01*
X62662027Y-24130000D02*
X77241973Y-24130000D01*
X48895000Y-22225000D02*
X47625000Y-23495000D01*
X62387000Y-23744973D02*
X62355000Y-23712973D01*
X77241973Y-24130000D02*
X77675000Y-23696973D01*
%TO.N,ENC_PWR_P*%
X51697998Y-24773471D02*
X52060000Y-25135473D01*
X32067002Y-24966971D02*
X36575000Y-24966971D01*
X52228500Y-24966973D02*
X71595000Y-24966973D01*
X67079000Y-25021973D02*
X67110000Y-25021973D01*
X82233571Y-25156973D02*
X82415270Y-25338672D01*
X36575000Y-24966973D02*
X36768502Y-24773471D01*
X52060000Y-25135473D02*
X52228500Y-24966973D01*
X36768502Y-24773471D02*
X51697998Y-24773471D01*
X71785000Y-25156973D02*
X82233571Y-25156973D01*
X29527000Y-27506973D02*
X32067002Y-24966971D01*
X71595000Y-24966973D02*
X71785000Y-25156973D01*
X82310469Y-25443473D02*
X82415270Y-25338672D01*
D20*
%TO.N,1S*%
X40005000Y-76835000D02*
X36830000Y-80010000D01*
D19*
%TO.N,Net-(D5-A)*%
X57826585Y-59587901D02*
X56455682Y-58216998D01*
X37595454Y-42040454D02*
X37595454Y-43684546D01*
X56455682Y-58216998D02*
X56455682Y-57844318D01*
X74659419Y-59587901D02*
X57826585Y-59587901D01*
X33655000Y-38100000D02*
X37595454Y-42040454D01*
X78236160Y-51566160D02*
X78236160Y-56011160D01*
X78236160Y-56011160D02*
X74659419Y-59587901D01*
D21*
%TO.N,Net-(Q21-G)*%
X26362500Y-106160000D02*
X26362500Y-103620000D01*
X26362500Y-95024500D02*
X26362500Y-93425500D01*
D23*
X41910000Y-77615500D02*
X41034500Y-77615500D01*
D21*
X26362500Y-99175000D02*
X26362500Y-96635000D01*
D23*
X41034500Y-77615500D02*
X37087552Y-81562449D01*
D21*
X26362500Y-102350000D02*
X26362500Y-100445000D01*
%TD*%
%TA.AperFunction,Conductor*%
%TO.N,GND*%
G36*
X70120982Y-26622275D02*
G01*
X70158730Y-26665839D01*
X70159756Y-26665131D01*
X70166175Y-26674431D01*
X70167475Y-26675931D01*
X70167879Y-26676899D01*
X70168446Y-26677720D01*
X70168447Y-26677723D01*
X70265743Y-26818679D01*
X70265745Y-26818682D01*
X70284927Y-26835676D01*
X70393947Y-26932260D01*
X70545606Y-27011856D01*
X70711907Y-27052846D01*
X70711909Y-27052846D01*
X70883183Y-27052846D01*
X70883185Y-27052846D01*
X71049486Y-27011856D01*
X71201145Y-26932260D01*
X71329348Y-26818681D01*
X71346038Y-26794502D01*
X71371031Y-26758295D01*
X71426190Y-26713595D01*
X71474726Y-26703872D01*
X72075573Y-26703872D01*
X72143694Y-26723874D01*
X72190187Y-26777530D01*
X72200291Y-26847804D01*
X72170797Y-26912384D01*
X72164668Y-26918967D01*
X70574095Y-28509540D01*
X70511783Y-28543566D01*
X70440968Y-28538501D01*
X70395905Y-28509540D01*
X68703733Y-26817368D01*
X68669707Y-26755056D01*
X68674772Y-26684241D01*
X68717319Y-26627405D01*
X68783839Y-26602594D01*
X68792828Y-26602273D01*
X70052861Y-26602273D01*
X70120982Y-26622275D01*
G37*
%TD.AperFunction*%
%TA.AperFunction,Conductor*%
G36*
X119015723Y-20020502D02*
G01*
X119036697Y-20037405D01*
X119962594Y-20963302D01*
X119996620Y-21025614D01*
X119999499Y-21052397D01*
X119999499Y-118947602D01*
X119979497Y-119015723D01*
X119962598Y-119036692D01*
X119036695Y-119962596D01*
X118974385Y-119996620D01*
X118947602Y-119999500D01*
X21052397Y-119999500D01*
X20984276Y-119979498D01*
X20963306Y-119962599D01*
X20037402Y-119036694D01*
X20003379Y-118974385D01*
X20000500Y-118947602D01*
X20000500Y-115067766D01*
X23145787Y-115067766D01*
X23175413Y-115337015D01*
X23175414Y-115337018D01*
X23243928Y-115599088D01*
X23349870Y-115848390D01*
X23490982Y-116079610D01*
X23664255Y-116287820D01*
X23664256Y-116287821D01*
X23664258Y-116287823D01*
X23865993Y-116468578D01*
X23865995Y-116468579D01*
X23865998Y-116468582D01*
X24091910Y-116618044D01*
X24224104Y-116680014D01*
X24337171Y-116733018D01*
X24337173Y-116733018D01*
X24337176Y-116733020D01*
X24596569Y-116811060D01*
X24596572Y-116811060D01*
X24596574Y-116811061D01*
X24864558Y-116850500D01*
X24864561Y-116850500D01*
X25065330Y-116850500D01*
X25067631Y-116850500D01*
X25270156Y-116835677D01*
X25534553Y-116776780D01*
X25787558Y-116680014D01*
X26023777Y-116547441D01*
X26238177Y-116381888D01*
X26426186Y-116186881D01*
X26583799Y-115966579D01*
X26707656Y-115725675D01*
X26795118Y-115469305D01*
X26844319Y-115202933D01*
X26854212Y-114932235D01*
X26824586Y-114662982D01*
X26756072Y-114400912D01*
X26650130Y-114151610D01*
X26509018Y-113920390D01*
X26335745Y-113712180D01*
X26230759Y-113618112D01*
X26134006Y-113531421D01*
X26134003Y-113531419D01*
X26134002Y-113531418D01*
X25908090Y-113381956D01*
X25908086Y-113381954D01*
X25662828Y-113266981D01*
X25403425Y-113188938D01*
X25135442Y-113149500D01*
X25135439Y-113149500D01*
X24932369Y-113149500D01*
X24930099Y-113149666D01*
X24930075Y-113149667D01*
X24729839Y-113164323D01*
X24465449Y-113223219D01*
X24212441Y-113319985D01*
X23976225Y-113452557D01*
X23761820Y-113618114D01*
X23573815Y-113813117D01*
X23416200Y-114033422D01*
X23292342Y-114274328D01*
X23204882Y-114530693D01*
X23155681Y-114797065D01*
X23145787Y-115067766D01*
X20000500Y-115067766D01*
X20000500Y-106160000D01*
X25751977Y-106160000D01*
X25772779Y-106318014D01*
X25833772Y-106465263D01*
X25930794Y-106591705D01*
X26057236Y-106688727D01*
X26057237Y-106688727D01*
X26057238Y-106688728D01*
X26204485Y-106749720D01*
X26362500Y-106770523D01*
X26520515Y-106749720D01*
X26667762Y-106688728D01*
X26794205Y-106591705D01*
X26891228Y-106465262D01*
X26952220Y-106318015D01*
X26973023Y-106160000D01*
X26952220Y-106001985D01*
X26891228Y-105854739D01*
X26891226Y-105854737D01*
X26884880Y-105839415D01*
X26886360Y-105838801D01*
X26868236Y-105791912D01*
X26867800Y-105781435D01*
X26867800Y-103998565D01*
X26887802Y-103930444D01*
X26890915Y-103926016D01*
X26891226Y-103925263D01*
X26891228Y-103925262D01*
X26952220Y-103778015D01*
X26973023Y-103620000D01*
X26952220Y-103461985D01*
X26891228Y-103314739D01*
X26794205Y-103188295D01*
X26667762Y-103091272D01*
X26659539Y-103084962D01*
X26617672Y-103027624D01*
X26613450Y-102956754D01*
X26648214Y-102894851D01*
X26659539Y-102885038D01*
X26688865Y-102862535D01*
X26794205Y-102781705D01*
X26891228Y-102655262D01*
X26952220Y-102508015D01*
X26973023Y-102350000D01*
X26952220Y-102191985D01*
X26891228Y-102044739D01*
X26891226Y-102044737D01*
X26884880Y-102029415D01*
X26886360Y-102028801D01*
X26868236Y-101981912D01*
X26867800Y-101971435D01*
X26867800Y-100823565D01*
X26887802Y-100755444D01*
X26890915Y-100751016D01*
X26891226Y-100750263D01*
X26891228Y-100750262D01*
X26952220Y-100603015D01*
X26973023Y-100445000D01*
X26952220Y-100286985D01*
X26891228Y-100139739D01*
X26794205Y-100013295D01*
X26667762Y-99916272D01*
X26659539Y-99909962D01*
X26617672Y-99852624D01*
X26613450Y-99781754D01*
X26648214Y-99719851D01*
X26659539Y-99710038D01*
X26688865Y-99687535D01*
X26794205Y-99606705D01*
X26891228Y-99480262D01*
X26952220Y-99333015D01*
X26973023Y-99175000D01*
X26952220Y-99016985D01*
X26891228Y-98869739D01*
X26891226Y-98869737D01*
X26884880Y-98854415D01*
X26886360Y-98853801D01*
X26868236Y-98806912D01*
X26867800Y-98796435D01*
X26867800Y-97013565D01*
X26887802Y-96945444D01*
X26890915Y-96941016D01*
X26891226Y-96940263D01*
X26891228Y-96940262D01*
X26952220Y-96793015D01*
X26973023Y-96635000D01*
X26952220Y-96476985D01*
X26891228Y-96329739D01*
X26794205Y-96203295D01*
X26794203Y-96203293D01*
X26794202Y-96203292D01*
X26667763Y-96106272D01*
X26520514Y-96045279D01*
X26383302Y-96027215D01*
X26362500Y-96024477D01*
X26362499Y-96024477D01*
X26204485Y-96045279D01*
X26057239Y-96106271D01*
X25930795Y-96203295D01*
X25833771Y-96329739D01*
X25772779Y-96476985D01*
X25751977Y-96635000D01*
X25772779Y-96793014D01*
X25840120Y-96955588D01*
X25838638Y-96956201D01*
X25856763Y-97003076D01*
X25857200Y-97013565D01*
X25857200Y-98796435D01*
X25837198Y-98864556D01*
X25834086Y-98868981D01*
X25772779Y-99016987D01*
X25751977Y-99175000D01*
X25772779Y-99333014D01*
X25833772Y-99480263D01*
X25930794Y-99606705D01*
X26065460Y-99710038D01*
X26107327Y-99767376D01*
X26111549Y-99838247D01*
X26076785Y-99900150D01*
X26065460Y-99909962D01*
X25930797Y-100013292D01*
X25833771Y-100139739D01*
X25772779Y-100286985D01*
X25751977Y-100445000D01*
X25772779Y-100603014D01*
X25840120Y-100765588D01*
X25838638Y-100766201D01*
X25856763Y-100813076D01*
X25857200Y-100823565D01*
X25857200Y-101971435D01*
X25837198Y-102039556D01*
X25834086Y-102043981D01*
X25772779Y-102191987D01*
X25751977Y-102349999D01*
X25772779Y-102508014D01*
X25833772Y-102655263D01*
X25930794Y-102781705D01*
X26065460Y-102885038D01*
X26107327Y-102942376D01*
X26111549Y-103013247D01*
X26076785Y-103075150D01*
X26065460Y-103084962D01*
X25930797Y-103188292D01*
X25833771Y-103314739D01*
X25772779Y-103461985D01*
X25751977Y-103620000D01*
X25772779Y-103778014D01*
X25840120Y-103940588D01*
X25838638Y-103941201D01*
X25856763Y-103988076D01*
X25857200Y-103998565D01*
X25857200Y-105781435D01*
X25837198Y-105849556D01*
X25834086Y-105853981D01*
X25772779Y-106001987D01*
X25751977Y-106160000D01*
X20000500Y-106160000D01*
X20000500Y-95024500D01*
X25751977Y-95024500D01*
X25772779Y-95182514D01*
X25833772Y-95329763D01*
X25930794Y-95456205D01*
X26057236Y-95553227D01*
X26057237Y-95553227D01*
X26057238Y-95553228D01*
X26204485Y-95614220D01*
X26362500Y-95635023D01*
X26520515Y-95614220D01*
X26667762Y-95553228D01*
X26794205Y-95456205D01*
X26891228Y-95329762D01*
X26952220Y-95182515D01*
X26973023Y-95024500D01*
X26952220Y-94866485D01*
X26891228Y-94719239D01*
X26891226Y-94719237D01*
X26884880Y-94703915D01*
X26886360Y-94703301D01*
X26868236Y-94656412D01*
X26867800Y-94645935D01*
X26867800Y-93804065D01*
X26887802Y-93735944D01*
X26890915Y-93731516D01*
X26891226Y-93730763D01*
X26891228Y-93730762D01*
X26952220Y-93583515D01*
X26973023Y-93425500D01*
X26952220Y-93267485D01*
X26891228Y-93120239D01*
X26794205Y-92993795D01*
X26794203Y-92993793D01*
X26794202Y-92993792D01*
X26667763Y-92896772D01*
X26520514Y-92835779D01*
X26383301Y-92817715D01*
X26362500Y-92814977D01*
X26362499Y-92814977D01*
X26204485Y-92835779D01*
X26057239Y-92896771D01*
X25930795Y-92993795D01*
X25833771Y-93120239D01*
X25772779Y-93267485D01*
X25751977Y-93425499D01*
X25772779Y-93583514D01*
X25840120Y-93746088D01*
X25838638Y-93746701D01*
X25856763Y-93793576D01*
X25857200Y-93804065D01*
X25857200Y-94645935D01*
X25837198Y-94714056D01*
X25834086Y-94718481D01*
X25772779Y-94866487D01*
X25751977Y-95024500D01*
X20000500Y-95024500D01*
X20000500Y-83185000D01*
X27229520Y-83185000D01*
X27250164Y-83355027D01*
X27310899Y-83515174D01*
X27310900Y-83515176D01*
X27310901Y-83515177D01*
X27408198Y-83656135D01*
X27536401Y-83769714D01*
X27688060Y-83849310D01*
X27854361Y-83890300D01*
X27854363Y-83890300D01*
X28025637Y-83890300D01*
X28025639Y-83890300D01*
X28191940Y-83849310D01*
X28343599Y-83769714D01*
X28471802Y-83656135D01*
X28471802Y-83656134D01*
X28479869Y-83648988D01*
X28544122Y-83618787D01*
X28563423Y-83617300D01*
X29898647Y-83617300D01*
X29912754Y-83618092D01*
X29946347Y-83621877D01*
X30000116Y-83611703D01*
X30004729Y-83610919D01*
X30058862Y-83602760D01*
X30058862Y-83602759D01*
X30065316Y-83601787D01*
X30068626Y-83600697D01*
X30074390Y-83597650D01*
X30074392Y-83597650D01*
X30122787Y-83572071D01*
X30126949Y-83569970D01*
X30176274Y-83546218D01*
X30176276Y-83546215D01*
X30182142Y-83543391D01*
X30185001Y-83541363D01*
X30189605Y-83536758D01*
X30189608Y-83536757D01*
X30228336Y-83498027D01*
X30231675Y-83494811D01*
X30271803Y-83457579D01*
X30271804Y-83457576D01*
X30276570Y-83453155D01*
X30287652Y-83438711D01*
X30984161Y-82742202D01*
X31046471Y-82708179D01*
X31073254Y-82705300D01*
X31200637Y-82705300D01*
X31200639Y-82705300D01*
X31366940Y-82664310D01*
X31518599Y-82584714D01*
X31646802Y-82471135D01*
X31744099Y-82330177D01*
X31804835Y-82170029D01*
X31825480Y-82000000D01*
X31804835Y-81829971D01*
X31744099Y-81669823D01*
X31669983Y-81562448D01*
X36377072Y-81562448D01*
X36397716Y-81732476D01*
X36458451Y-81892623D01*
X36458452Y-81892625D01*
X36458453Y-81892626D01*
X36555750Y-82033584D01*
X36683953Y-82147163D01*
X36835612Y-82226759D01*
X37001913Y-82267749D01*
X37001915Y-82267749D01*
X37173189Y-82267749D01*
X37173191Y-82267749D01*
X37339492Y-82226759D01*
X37491151Y-82147163D01*
X37619354Y-82033584D01*
X37716651Y-81892626D01*
X37777387Y-81732478D01*
X37798032Y-81562449D01*
X37794388Y-81532441D01*
X37806032Y-81462410D01*
X37830371Y-81428164D01*
X41175831Y-78082705D01*
X41238143Y-78048679D01*
X41264926Y-78045800D01*
X41284319Y-78045800D01*
X41352440Y-78065802D01*
X41367873Y-78077488D01*
X41378198Y-78086635D01*
X41506401Y-78200214D01*
X41658060Y-78279810D01*
X41824361Y-78320800D01*
X41824363Y-78320800D01*
X41995637Y-78320800D01*
X41995639Y-78320800D01*
X42161940Y-78279810D01*
X42313599Y-78200214D01*
X42441802Y-78086635D01*
X42539099Y-77945677D01*
X42599835Y-77785529D01*
X42620480Y-77615500D01*
X42599835Y-77445471D01*
X42546769Y-77305546D01*
X42539100Y-77285325D01*
X42525327Y-77265371D01*
X42441802Y-77144365D01*
X42313599Y-77030786D01*
X42313598Y-77030785D01*
X42216759Y-76979961D01*
X42161940Y-76951190D01*
X41995639Y-76910200D01*
X41824361Y-76910200D01*
X41658060Y-76951190D01*
X41658058Y-76951190D01*
X41658058Y-76951191D01*
X41506401Y-77030785D01*
X41367873Y-77153512D01*
X41303620Y-77183713D01*
X41284319Y-77185200D01*
X41065742Y-77185200D01*
X41051635Y-77184408D01*
X41035690Y-77182611D01*
X41018229Y-77180644D01*
X41018228Y-77180644D01*
X40964707Y-77190770D01*
X40960065Y-77191558D01*
X40899795Y-77200642D01*
X40896533Y-77201716D01*
X40842605Y-77230217D01*
X40838403Y-77232338D01*
X40783495Y-77258781D01*
X40780695Y-77260768D01*
X40737588Y-77303874D01*
X40734198Y-77307139D01*
X40689493Y-77348620D01*
X40678446Y-77363016D01*
X37221220Y-80820244D01*
X37158908Y-80854269D01*
X37132125Y-80857149D01*
X37001913Y-80857149D01*
X36835612Y-80898139D01*
X36835610Y-80898139D01*
X36835610Y-80898140D01*
X36683953Y-80977734D01*
X36555751Y-81091312D01*
X36458451Y-81232274D01*
X36397716Y-81392421D01*
X36377072Y-81562448D01*
X31669983Y-81562448D01*
X31646802Y-81528865D01*
X31582098Y-81471542D01*
X31518598Y-81415285D01*
X31442769Y-81375488D01*
X31366940Y-81335690D01*
X31200639Y-81294700D01*
X31029361Y-81294700D01*
X30863060Y-81335690D01*
X30863058Y-81335690D01*
X30863058Y-81335691D01*
X30711401Y-81415285D01*
X30583199Y-81528863D01*
X30485899Y-81669825D01*
X30425164Y-81829972D01*
X30404520Y-81999997D01*
X30407857Y-82027481D01*
X30396210Y-82097516D01*
X30371871Y-82131762D01*
X29787840Y-82715795D01*
X29725527Y-82749820D01*
X29698744Y-82752700D01*
X28563423Y-82752700D01*
X28495302Y-82732698D01*
X28479869Y-82721012D01*
X28343598Y-82600285D01*
X28267769Y-82560487D01*
X28191940Y-82520690D01*
X28025639Y-82479700D01*
X27854361Y-82479700D01*
X27688060Y-82520690D01*
X27688058Y-82520690D01*
X27688058Y-82520691D01*
X27536401Y-82600285D01*
X27408199Y-82713863D01*
X27310899Y-82854825D01*
X27250164Y-83014972D01*
X27229520Y-83185000D01*
X20000500Y-83185000D01*
X20000500Y-80010000D01*
X36269908Y-80010000D01*
X36288992Y-80154961D01*
X36344945Y-80290044D01*
X36344946Y-80290046D01*
X36433955Y-80406045D01*
X36549954Y-80495054D01*
X36685038Y-80551007D01*
X36830000Y-80570092D01*
X36974962Y-80551007D01*
X37110046Y-80495054D01*
X37226045Y-80406045D01*
X37315054Y-80290046D01*
X37371007Y-80154962D01*
X37376735Y-80111450D01*
X37405457Y-80046524D01*
X37412550Y-80038813D01*
X40033803Y-77417560D01*
X40096113Y-77383536D01*
X40106443Y-77381736D01*
X40149962Y-77376007D01*
X40285046Y-77320054D01*
X40401045Y-77231045D01*
X40490054Y-77115046D01*
X40546007Y-76979962D01*
X40565092Y-76835000D01*
X40546007Y-76690038D01*
X40490054Y-76554954D01*
X40401045Y-76438955D01*
X40285046Y-76349946D01*
X40285044Y-76349945D01*
X40149961Y-76293992D01*
X40024083Y-76277420D01*
X40005000Y-76274908D01*
X40004999Y-76274908D01*
X39860038Y-76293992D01*
X39724955Y-76349945D01*
X39608955Y-76438955D01*
X39519945Y-76554955D01*
X39463992Y-76690038D01*
X39458263Y-76733551D01*
X39429539Y-76798478D01*
X39422436Y-76806197D01*
X36801197Y-79427436D01*
X36738885Y-79461462D01*
X36728551Y-79463263D01*
X36685038Y-79468992D01*
X36549955Y-79524945D01*
X36433955Y-79613955D01*
X36344945Y-79729955D01*
X36288992Y-79865038D01*
X36269908Y-80010000D01*
X20000500Y-80010000D01*
X20000500Y-65696597D01*
X37349360Y-65696597D01*
X37388538Y-65906184D01*
X37388539Y-65906185D01*
X37465562Y-66105008D01*
X37577807Y-66286288D01*
X37577808Y-66286289D01*
X37721453Y-66443859D01*
X37891605Y-66572353D01*
X38082471Y-66667392D01*
X38287550Y-66725743D01*
X38363341Y-66732765D01*
X38443749Y-66740217D01*
X38443755Y-66740217D01*
X38446666Y-66740487D01*
X38449579Y-66740487D01*
X38550141Y-66740487D01*
X38553054Y-66740487D01*
X38555965Y-66740217D01*
X38555970Y-66740217D01*
X38611114Y-66735106D01*
X38712170Y-66725743D01*
X38917249Y-66667392D01*
X39108115Y-66572353D01*
X39278267Y-66443859D01*
X39421912Y-66286289D01*
X39534158Y-66105006D01*
X39611181Y-65906185D01*
X39650360Y-65696597D01*
X39650360Y-65483377D01*
X39611181Y-65273789D01*
X39534158Y-65074968D01*
X39534157Y-65074965D01*
X39421912Y-64893685D01*
X39368412Y-64834999D01*
X39309156Y-64769999D01*
X41282408Y-64769999D01*
X41301492Y-64914961D01*
X41333823Y-64993015D01*
X41357446Y-65050046D01*
X41446455Y-65166045D01*
X41562454Y-65255054D01*
X41697538Y-65311007D01*
X41842500Y-65330092D01*
X41987462Y-65311007D01*
X42122546Y-65255054D01*
X42157363Y-65228337D01*
X42223582Y-65202737D01*
X42234067Y-65202300D01*
X44693433Y-65202300D01*
X44761554Y-65222302D01*
X44770128Y-65228331D01*
X44804954Y-65255054D01*
X44940038Y-65311007D01*
X45085000Y-65330092D01*
X45229962Y-65311007D01*
X45365046Y-65255054D01*
X45481045Y-65166045D01*
X45570054Y-65050046D01*
X45626007Y-64914962D01*
X45645092Y-64770000D01*
X45626007Y-64625038D01*
X45570054Y-64489954D01*
X45481045Y-64373955D01*
X45365046Y-64284946D01*
X45365044Y-64284945D01*
X45229961Y-64228992D01*
X45085000Y-64209908D01*
X44940038Y-64228992D01*
X44804954Y-64284945D01*
X44783289Y-64301569D01*
X44770136Y-64311662D01*
X44703918Y-64337263D01*
X44693433Y-64337700D01*
X42234067Y-64337700D01*
X42165946Y-64317698D01*
X42157371Y-64311668D01*
X42122546Y-64284946D01*
X42122545Y-64284945D01*
X41987461Y-64228992D01*
X41842500Y-64209908D01*
X41697538Y-64228992D01*
X41562455Y-64284945D01*
X41446455Y-64373955D01*
X41357445Y-64489955D01*
X41301492Y-64625038D01*
X41282408Y-64769999D01*
X39309156Y-64769999D01*
X39278267Y-64736115D01*
X39131179Y-64625038D01*
X39108117Y-64607622D01*
X38917247Y-64512581D01*
X38712166Y-64454230D01*
X38555970Y-64439756D01*
X38555944Y-64439754D01*
X38553054Y-64439487D01*
X38446666Y-64439487D01*
X38443776Y-64439754D01*
X38443749Y-64439756D01*
X38287553Y-64454230D01*
X38082472Y-64512581D01*
X37891602Y-64607622D01*
X37721454Y-64736114D01*
X37577807Y-64893685D01*
X37465562Y-65074965D01*
X37391283Y-65266705D01*
X37388539Y-65273789D01*
X37349360Y-65483377D01*
X37349360Y-65696597D01*
X20000500Y-65696597D01*
X20000500Y-64834999D01*
X27635977Y-64834999D01*
X27656779Y-64993014D01*
X27717772Y-65140263D01*
X27814794Y-65266705D01*
X27941236Y-65363727D01*
X27941237Y-65363727D01*
X27941238Y-65363728D01*
X28088485Y-65424720D01*
X28246500Y-65445523D01*
X28277984Y-65441378D01*
X28294431Y-65440300D01*
X34291714Y-65440300D01*
X34359835Y-65460302D01*
X34391674Y-65489593D01*
X34393292Y-65491702D01*
X34393293Y-65491703D01*
X34393295Y-65491705D01*
X34425038Y-65516062D01*
X34425041Y-65516065D01*
X34519737Y-65588728D01*
X34519738Y-65588728D01*
X34520104Y-65589009D01*
X34523533Y-65590300D01*
X34666985Y-65649720D01*
X34825000Y-65670523D01*
X34983015Y-65649720D01*
X35130262Y-65588728D01*
X35256705Y-65491705D01*
X35353728Y-65365262D01*
X35414720Y-65218015D01*
X35435523Y-65060000D01*
X35414720Y-64901985D01*
X35371591Y-64797866D01*
X35353728Y-64754738D01*
X35336820Y-64732703D01*
X35281065Y-64660040D01*
X35281054Y-64660027D01*
X35256704Y-64628293D01*
X35231506Y-64608958D01*
X35219116Y-64598092D01*
X35061904Y-64440880D01*
X35051042Y-64428496D01*
X35031705Y-64403295D01*
X34999961Y-64378937D01*
X34999959Y-64378935D01*
X34905262Y-64306272D01*
X34853776Y-64284946D01*
X34814159Y-64268536D01*
X34758013Y-64245279D01*
X34639673Y-64229700D01*
X34639667Y-64229698D01*
X34600001Y-64224476D01*
X34568515Y-64228622D01*
X34552069Y-64229700D01*
X29213267Y-64229700D01*
X29145146Y-64209698D01*
X29098653Y-64156042D01*
X29088549Y-64085768D01*
X29109571Y-64032124D01*
X29176834Y-63934677D01*
X29204099Y-63895177D01*
X29264835Y-63735029D01*
X29285480Y-63565000D01*
X29264835Y-63394971D01*
X29204099Y-63234823D01*
X29106802Y-63093865D01*
X29102604Y-63087783D01*
X29080368Y-63020359D01*
X29080300Y-63016207D01*
X29080300Y-58896492D01*
X29100302Y-58828371D01*
X29117205Y-58807397D01*
X29182397Y-58742205D01*
X29244709Y-58708179D01*
X29271492Y-58705300D01*
X29295637Y-58705300D01*
X29295639Y-58705300D01*
X29461940Y-58664310D01*
X29613599Y-58584714D01*
X29741802Y-58471135D01*
X29839099Y-58330177D01*
X29899835Y-58170029D01*
X29920480Y-58000000D01*
X29899835Y-57829971D01*
X29855306Y-57712557D01*
X29839100Y-57669825D01*
X29838011Y-57668247D01*
X29741802Y-57528865D01*
X29707861Y-57498796D01*
X29613598Y-57415285D01*
X29537769Y-57375488D01*
X29461940Y-57335690D01*
X29295639Y-57294700D01*
X29124361Y-57294700D01*
X28958060Y-57335690D01*
X28958058Y-57335690D01*
X28958058Y-57335691D01*
X28806401Y-57415285D01*
X28678199Y-57528863D01*
X28580899Y-57669825D01*
X28520164Y-57829971D01*
X28505329Y-57952147D01*
X28477261Y-58017360D01*
X28469343Y-58026053D01*
X28265692Y-58229704D01*
X28244723Y-58246603D01*
X28240697Y-58249190D01*
X28207883Y-58287060D01*
X28201757Y-58293640D01*
X28192143Y-58303254D01*
X28184004Y-58314126D01*
X28178367Y-58321122D01*
X28145541Y-58359006D01*
X28143555Y-58363356D01*
X28129814Y-58386516D01*
X28126949Y-58390343D01*
X28109437Y-58437293D01*
X28105996Y-58445600D01*
X28085182Y-58491175D01*
X28084502Y-58495909D01*
X28077843Y-58521999D01*
X28076169Y-58526486D01*
X28072594Y-58576471D01*
X28071634Y-58585405D01*
X28069700Y-58598862D01*
X28069700Y-58612454D01*
X28069379Y-58621441D01*
X28065805Y-58671417D01*
X28066820Y-58676082D01*
X28069700Y-58702867D01*
X28069700Y-63016207D01*
X28049698Y-63084328D01*
X28047396Y-63087783D01*
X27945900Y-63234823D01*
X27885164Y-63394972D01*
X27864520Y-63565000D01*
X27885164Y-63735027D01*
X27945899Y-63895174D01*
X27945900Y-63895176D01*
X27945901Y-63895177D01*
X28043198Y-64036135D01*
X28067671Y-64057816D01*
X28105396Y-64117960D01*
X28104616Y-64188952D01*
X28065578Y-64248253D01*
X28032337Y-64268536D01*
X27941240Y-64306270D01*
X27814792Y-64403297D01*
X27717773Y-64529735D01*
X27658547Y-64672718D01*
X27656779Y-64676985D01*
X27635977Y-64834999D01*
X20000500Y-64834999D01*
X20000500Y-57149999D01*
X53414908Y-57149999D01*
X53433992Y-57294961D01*
X53488827Y-57427345D01*
X53489946Y-57430046D01*
X53578955Y-57546045D01*
X53694954Y-57635054D01*
X53830038Y-57691007D01*
X53873548Y-57696735D01*
X53938475Y-57725457D01*
X53946197Y-57732562D01*
X59742436Y-63528801D01*
X59776462Y-63591113D01*
X59778263Y-63601447D01*
X59783992Y-63644961D01*
X59839945Y-63780043D01*
X59839946Y-63780046D01*
X59928955Y-63896045D01*
X60044954Y-63985054D01*
X60180038Y-64041007D01*
X60325000Y-64060092D01*
X60469962Y-64041007D01*
X60605046Y-63985054D01*
X60721045Y-63896045D01*
X60810054Y-63780046D01*
X60866007Y-63644962D01*
X60866007Y-63644961D01*
X60870754Y-63633501D01*
X60915302Y-63578219D01*
X60982665Y-63555798D01*
X61051456Y-63573356D01*
X61076258Y-63592623D01*
X61267142Y-63783507D01*
X61276558Y-63794042D01*
X61297641Y-63820479D01*
X61342866Y-63851313D01*
X61346669Y-63854011D01*
X61390719Y-63886520D01*
X61390721Y-63886520D01*
X61395960Y-63890387D01*
X61399096Y-63891970D01*
X61405312Y-63893887D01*
X61405313Y-63893888D01*
X61409489Y-63895176D01*
X61457597Y-63910016D01*
X61462074Y-63911489D01*
X61519864Y-63931711D01*
X61523330Y-63932300D01*
X61529841Y-63932300D01*
X61584549Y-63932300D01*
X61589260Y-63932388D01*
X61643949Y-63934434D01*
X61643949Y-63934433D01*
X61650449Y-63934677D01*
X61668501Y-63932300D01*
X61838433Y-63932300D01*
X61906554Y-63952302D01*
X61915128Y-63958331D01*
X61949954Y-63985054D01*
X62085038Y-64041007D01*
X62230000Y-64060092D01*
X62374962Y-64041007D01*
X62510046Y-63985054D01*
X62626045Y-63896045D01*
X62715054Y-63780046D01*
X62771007Y-63644962D01*
X62790092Y-63500000D01*
X62771007Y-63355038D01*
X62715054Y-63219954D01*
X62626045Y-63103955D01*
X62510046Y-63014946D01*
X62510044Y-63014945D01*
X62374961Y-62958992D01*
X62230000Y-62939908D01*
X62085038Y-62958992D01*
X61949954Y-63014945D01*
X61929299Y-63030795D01*
X61915136Y-63041662D01*
X61848918Y-63067263D01*
X61838433Y-63067700D01*
X61826255Y-63067700D01*
X61758134Y-63047698D01*
X61737160Y-63030795D01*
X59068661Y-60362296D01*
X59048298Y-60325005D01*
X94039531Y-60325005D01*
X94060141Y-60547429D01*
X94121271Y-60762278D01*
X94220836Y-60962230D01*
X94220838Y-60962232D01*
X94355451Y-61140489D01*
X94520527Y-61290976D01*
X94710445Y-61408568D01*
X94918736Y-61489260D01*
X95138307Y-61530305D01*
X95138309Y-61530305D01*
X95361681Y-61530305D01*
X95361683Y-61530305D01*
X95581254Y-61489260D01*
X95789545Y-61408568D01*
X95979463Y-61290976D01*
X96144539Y-61140489D01*
X96279152Y-60962232D01*
X96378719Y-60762275D01*
X96398807Y-60691672D01*
X96436687Y-60631626D01*
X96501018Y-60601592D01*
X96571374Y-60611104D01*
X96625419Y-60657145D01*
X96641187Y-60691672D01*
X96661276Y-60762278D01*
X96760841Y-60962230D01*
X96760843Y-60962232D01*
X96895456Y-61140489D01*
X97060532Y-61290976D01*
X97250450Y-61408568D01*
X97458741Y-61489260D01*
X97678312Y-61530305D01*
X97678314Y-61530305D01*
X97901686Y-61530305D01*
X97901688Y-61530305D01*
X98121259Y-61489260D01*
X98329550Y-61408568D01*
X98519468Y-61290976D01*
X98684544Y-61140489D01*
X98819157Y-60962232D01*
X98918724Y-60762275D01*
X98938812Y-60691672D01*
X98976692Y-60631626D01*
X99041023Y-60601592D01*
X99111379Y-60611104D01*
X99165424Y-60657145D01*
X99181192Y-60691672D01*
X99201281Y-60762278D01*
X99300846Y-60962230D01*
X99300848Y-60962232D01*
X99435461Y-61140489D01*
X99600537Y-61290976D01*
X99790455Y-61408568D01*
X99998746Y-61489260D01*
X100218317Y-61530305D01*
X100218319Y-61530305D01*
X100441691Y-61530305D01*
X100441693Y-61530305D01*
X100661264Y-61489260D01*
X100869555Y-61408568D01*
X101059473Y-61290976D01*
X101224549Y-61140489D01*
X101359162Y-60962232D01*
X101458729Y-60762275D01*
X101519859Y-60547427D01*
X101540469Y-60325005D01*
X101519859Y-60102583D01*
X101458729Y-59887735D01*
X101458728Y-59887732D01*
X101458728Y-59887731D01*
X101359163Y-59687779D01*
X101326204Y-59644134D01*
X101224549Y-59509521D01*
X101059473Y-59359034D01*
X101006684Y-59326348D01*
X100869556Y-59241442D01*
X100661264Y-59160750D01*
X100661263Y-59160749D01*
X100441693Y-59119705D01*
X100218317Y-59119705D01*
X100071936Y-59147068D01*
X99998745Y-59160750D01*
X99790453Y-59241442D01*
X99600538Y-59359033D01*
X99435460Y-59509522D01*
X99300846Y-59687779D01*
X99201282Y-59887730D01*
X99181192Y-59958338D01*
X99143311Y-60018384D01*
X99078980Y-60048418D01*
X99008623Y-60038904D01*
X98954579Y-59992863D01*
X98938812Y-59958336D01*
X98918723Y-59887732D01*
X98819158Y-59687779D01*
X98786199Y-59644134D01*
X98684544Y-59509521D01*
X98519468Y-59359034D01*
X98466679Y-59326348D01*
X98329551Y-59241442D01*
X98121259Y-59160750D01*
X97901688Y-59119705D01*
X97678312Y-59119705D01*
X97531931Y-59147068D01*
X97458740Y-59160750D01*
X97250448Y-59241442D01*
X97060533Y-59359033D01*
X96895455Y-59509522D01*
X96760841Y-59687779D01*
X96661277Y-59887730D01*
X96641187Y-59958338D01*
X96603306Y-60018384D01*
X96538975Y-60048418D01*
X96468618Y-60038904D01*
X96414574Y-59992863D01*
X96398807Y-59958336D01*
X96378718Y-59887732D01*
X96279153Y-59687779D01*
X96246194Y-59644134D01*
X96144539Y-59509521D01*
X95979463Y-59359034D01*
X95926674Y-59326348D01*
X95789546Y-59241442D01*
X95581254Y-59160750D01*
X95361683Y-59119705D01*
X95138307Y-59119705D01*
X94991926Y-59147068D01*
X94918735Y-59160750D01*
X94710443Y-59241442D01*
X94520528Y-59359033D01*
X94355450Y-59509522D01*
X94220836Y-59687779D01*
X94121271Y-59887731D01*
X94060141Y-60102580D01*
X94039531Y-60325005D01*
X59048298Y-60325005D01*
X59034635Y-60299984D01*
X59039700Y-60229169D01*
X59082247Y-60172333D01*
X59148767Y-60147522D01*
X59157756Y-60147201D01*
X74647716Y-60147201D01*
X74652017Y-60147274D01*
X74654270Y-60147350D01*
X74717153Y-60149499D01*
X74757715Y-60139613D01*
X74770366Y-60137209D01*
X74811735Y-60131524D01*
X74828458Y-60124258D01*
X74848821Y-60117411D01*
X74866529Y-60113097D01*
X74902915Y-60092637D01*
X74914466Y-60086901D01*
X74923607Y-60082930D01*
X74952754Y-60070270D01*
X74966892Y-60058766D01*
X74984648Y-60046682D01*
X75000546Y-60037744D01*
X75030071Y-60008217D01*
X75039629Y-59999591D01*
X75072018Y-59973242D01*
X75082533Y-59958343D01*
X75096367Y-59941921D01*
X78623382Y-56414905D01*
X78626416Y-56411972D01*
X78674094Y-56367446D01*
X78695790Y-56331766D01*
X78703039Y-56321117D01*
X78728263Y-56287856D01*
X78734949Y-56270898D01*
X78744508Y-56251654D01*
X78753979Y-56236081D01*
X78765244Y-56195874D01*
X78769351Y-56183662D01*
X78784666Y-56144827D01*
X78786529Y-56126694D01*
X78790543Y-56105581D01*
X78795460Y-56088034D01*
X78795460Y-56046286D01*
X78796121Y-56033401D01*
X78796476Y-56029945D01*
X78800389Y-55991885D01*
X78797292Y-55973921D01*
X78795460Y-55952514D01*
X78795460Y-55244994D01*
X94039531Y-55244994D01*
X94060141Y-55467419D01*
X94121271Y-55682268D01*
X94220836Y-55882220D01*
X94220838Y-55882222D01*
X94355451Y-56060479D01*
X94520527Y-56210966D01*
X94586241Y-56251654D01*
X94706733Y-56326260D01*
X94710445Y-56328558D01*
X94918736Y-56409250D01*
X95138307Y-56450295D01*
X95138309Y-56450295D01*
X95361681Y-56450295D01*
X95361683Y-56450295D01*
X95581254Y-56409250D01*
X95789545Y-56328558D01*
X95979463Y-56210966D01*
X96144539Y-56060479D01*
X96279152Y-55882222D01*
X96378719Y-55682265D01*
X96398807Y-55611662D01*
X96436687Y-55551616D01*
X96501018Y-55521582D01*
X96571374Y-55531094D01*
X96625419Y-55577135D01*
X96641187Y-55611662D01*
X96661276Y-55682268D01*
X96760841Y-55882220D01*
X96760843Y-55882222D01*
X96895456Y-56060479D01*
X97060532Y-56210966D01*
X97126246Y-56251654D01*
X97246738Y-56326260D01*
X97250450Y-56328558D01*
X97458741Y-56409250D01*
X97678312Y-56450295D01*
X97678314Y-56450295D01*
X97901686Y-56450295D01*
X97901688Y-56450295D01*
X98121259Y-56409250D01*
X98329550Y-56328558D01*
X98519468Y-56210966D01*
X98684544Y-56060479D01*
X98819157Y-55882222D01*
X98918724Y-55682265D01*
X98938812Y-55611662D01*
X98976692Y-55551616D01*
X99041023Y-55521582D01*
X99111379Y-55531094D01*
X99165424Y-55577135D01*
X99181192Y-55611662D01*
X99201281Y-55682268D01*
X99300846Y-55882220D01*
X99300848Y-55882222D01*
X99435461Y-56060479D01*
X99600537Y-56210966D01*
X99666251Y-56251654D01*
X99786743Y-56326260D01*
X99790455Y-56328558D01*
X99998746Y-56409250D01*
X100218317Y-56450295D01*
X100218319Y-56450295D01*
X100441691Y-56450295D01*
X100441693Y-56450295D01*
X100661264Y-56409250D01*
X100869555Y-56328558D01*
X101059473Y-56210966D01*
X101224549Y-56060479D01*
X101359162Y-55882222D01*
X101376009Y-55848388D01*
X101458728Y-55682268D01*
X101501741Y-55531094D01*
X101519859Y-55467417D01*
X101540469Y-55244995D01*
X101524047Y-55067766D01*
X113145787Y-55067766D01*
X113175413Y-55337015D01*
X113175414Y-55337018D01*
X113243928Y-55599088D01*
X113349870Y-55848390D01*
X113490982Y-56079610D01*
X113664255Y-56287820D01*
X113664256Y-56287821D01*
X113664258Y-56287823D01*
X113865993Y-56468578D01*
X113865995Y-56468579D01*
X113865998Y-56468582D01*
X114091910Y-56618044D01*
X114181327Y-56659961D01*
X114337171Y-56733018D01*
X114337173Y-56733018D01*
X114337176Y-56733020D01*
X114596569Y-56811060D01*
X114596572Y-56811060D01*
X114596574Y-56811061D01*
X114864558Y-56850500D01*
X114864561Y-56850500D01*
X115065330Y-56850500D01*
X115067631Y-56850500D01*
X115270156Y-56835677D01*
X115534553Y-56776780D01*
X115787558Y-56680014D01*
X116023777Y-56547441D01*
X116238177Y-56381888D01*
X116426186Y-56186881D01*
X116583799Y-55966579D01*
X116707656Y-55725675D01*
X116795118Y-55469305D01*
X116844319Y-55202933D01*
X116854212Y-54932235D01*
X116852079Y-54912853D01*
X116839339Y-54797065D01*
X116824586Y-54662982D01*
X116756072Y-54400912D01*
X116650130Y-54151610D01*
X116509018Y-53920390D01*
X116335745Y-53712180D01*
X116335741Y-53712176D01*
X116134006Y-53531421D01*
X116134003Y-53531419D01*
X116134002Y-53531418D01*
X115908090Y-53381956D01*
X115821918Y-53341560D01*
X115662828Y-53266981D01*
X115403425Y-53188938D01*
X115135442Y-53149500D01*
X115135439Y-53149500D01*
X114932369Y-53149500D01*
X114930099Y-53149666D01*
X114930075Y-53149667D01*
X114729839Y-53164323D01*
X114465449Y-53223219D01*
X114212441Y-53319985D01*
X113976225Y-53452557D01*
X113761820Y-53618114D01*
X113573815Y-53813117D01*
X113416200Y-54033422D01*
X113292342Y-54274328D01*
X113204882Y-54530693D01*
X113155681Y-54797065D01*
X113145787Y-55067766D01*
X101524047Y-55067766D01*
X101519859Y-55022573D01*
X101471817Y-54853724D01*
X101458728Y-54807721D01*
X101359163Y-54607769D01*
X101300958Y-54530693D01*
X101224549Y-54429511D01*
X101059473Y-54279024D01*
X100951815Y-54212365D01*
X100869556Y-54161432D01*
X100661264Y-54080740D01*
X100661263Y-54080740D01*
X100441693Y-54039695D01*
X100218317Y-54039695D01*
X100129708Y-54056259D01*
X99998745Y-54080740D01*
X99790453Y-54161432D01*
X99600538Y-54279023D01*
X99435460Y-54429512D01*
X99300846Y-54607769D01*
X99201282Y-54807720D01*
X99181192Y-54878328D01*
X99143311Y-54938374D01*
X99078980Y-54968408D01*
X99008623Y-54958894D01*
X98954579Y-54912853D01*
X98938812Y-54878326D01*
X98918723Y-54807722D01*
X98819158Y-54607769D01*
X98760953Y-54530693D01*
X98684544Y-54429511D01*
X98519468Y-54279024D01*
X98411810Y-54212365D01*
X98329551Y-54161432D01*
X98121259Y-54080740D01*
X97901688Y-54039695D01*
X97678312Y-54039695D01*
X97589703Y-54056259D01*
X97458740Y-54080740D01*
X97250448Y-54161432D01*
X97060533Y-54279023D01*
X96895455Y-54429512D01*
X96760841Y-54607769D01*
X96661277Y-54807720D01*
X96641187Y-54878328D01*
X96603306Y-54938374D01*
X96538975Y-54968408D01*
X96468618Y-54958894D01*
X96414574Y-54912853D01*
X96398807Y-54878326D01*
X96378718Y-54807722D01*
X96279153Y-54607769D01*
X96220948Y-54530693D01*
X96144539Y-54429511D01*
X95979463Y-54279024D01*
X95871805Y-54212365D01*
X95789546Y-54161432D01*
X95581254Y-54080740D01*
X95581253Y-54080740D01*
X95361683Y-54039695D01*
X95138307Y-54039695D01*
X95049698Y-54056259D01*
X94918735Y-54080740D01*
X94710443Y-54161432D01*
X94520528Y-54279023D01*
X94355450Y-54429512D01*
X94220836Y-54607769D01*
X94121271Y-54807721D01*
X94060141Y-55022570D01*
X94039531Y-55244994D01*
X78795460Y-55244994D01*
X78795460Y-51580434D01*
X78796395Y-51566160D01*
X78795460Y-51551887D01*
X78795460Y-51532210D01*
X78795460Y-51532209D01*
X78795460Y-51527905D01*
X78779783Y-51413844D01*
X78777460Y-51408497D01*
X78768667Y-51338051D01*
X78799356Y-51274030D01*
X78859786Y-51236764D01*
X78893029Y-51232300D01*
X79426172Y-51232300D01*
X79494293Y-51252302D01*
X79526134Y-51281595D01*
X79569455Y-51338051D01*
X79613955Y-51396045D01*
X79729954Y-51485054D01*
X79865038Y-51541007D01*
X80010000Y-51560092D01*
X80154962Y-51541007D01*
X80290046Y-51485054D01*
X80406045Y-51396045D01*
X80495054Y-51280046D01*
X80551007Y-51144962D01*
X80570092Y-51000000D01*
X80551007Y-50855038D01*
X80495054Y-50719954D01*
X80406045Y-50603955D01*
X80290046Y-50514946D01*
X80290044Y-50514945D01*
X80154961Y-50458992D01*
X80091017Y-50450574D01*
X80032643Y-50427031D01*
X80009059Y-50409625D01*
X80005889Y-50408025D01*
X79947407Y-50389985D01*
X79942932Y-50388512D01*
X79885156Y-50368295D01*
X79881651Y-50367700D01*
X79875159Y-50367700D01*
X79820451Y-50367700D01*
X79815740Y-50367612D01*
X79754550Y-50365322D01*
X79736499Y-50367700D01*
X78136361Y-50367700D01*
X78122255Y-50366908D01*
X78088653Y-50363122D01*
X78088652Y-50363122D01*
X78088651Y-50363122D01*
X78034891Y-50373294D01*
X78030247Y-50374083D01*
X77969731Y-50383205D01*
X77966340Y-50384321D01*
X77960608Y-50387349D01*
X77960608Y-50387350D01*
X77912243Y-50412911D01*
X77908040Y-50415032D01*
X77852880Y-50441596D01*
X77849981Y-50443653D01*
X77806686Y-50486948D01*
X77803294Y-50490215D01*
X77758433Y-50531840D01*
X77747347Y-50546286D01*
X77186489Y-51107144D01*
X77175957Y-51116557D01*
X77149522Y-51137639D01*
X77118701Y-51182845D01*
X77115977Y-51186685D01*
X77079629Y-51235935D01*
X77078023Y-51239117D01*
X77059983Y-51297600D01*
X77058510Y-51302074D01*
X77038296Y-51359842D01*
X77037700Y-51363351D01*
X77037700Y-51424549D01*
X77037612Y-51429260D01*
X77035322Y-51490449D01*
X77037700Y-51508501D01*
X77037700Y-55331244D01*
X77017698Y-55399365D01*
X77000795Y-55420339D01*
X73835340Y-58585795D01*
X73773028Y-58619821D01*
X73746245Y-58622700D01*
X58278575Y-58622700D01*
X58210454Y-58602698D01*
X58189480Y-58585795D01*
X58169333Y-58565648D01*
X58135307Y-58503336D01*
X58136054Y-58492888D01*
X58132778Y-58493365D01*
X58068146Y-58463985D01*
X58061396Y-58457711D01*
X57929185Y-58325500D01*
X58276415Y-58325500D01*
X58276459Y-58350540D01*
X58276996Y-58350539D01*
X58277000Y-58350541D01*
X58277003Y-58350539D01*
X58302016Y-58350524D01*
X58302016Y-58350528D01*
X58302158Y-58350500D01*
X71729842Y-58350500D01*
X71729985Y-58350528D01*
X71729986Y-58350524D01*
X71754997Y-58350539D01*
X71755000Y-58350541D01*
X71755383Y-58350383D01*
X71755500Y-58350099D01*
X71755541Y-58350000D01*
X71755584Y-58325500D01*
X71755500Y-58325072D01*
X71755500Y-50038500D01*
X98712020Y-50038500D01*
X98732664Y-50208527D01*
X98793399Y-50368674D01*
X98793400Y-50368676D01*
X98793401Y-50368677D01*
X98890698Y-50509635D01*
X99018901Y-50623214D01*
X99170560Y-50702810D01*
X99336861Y-50743800D01*
X99336863Y-50743800D01*
X99508137Y-50743800D01*
X99508139Y-50743800D01*
X99674440Y-50702810D01*
X99826099Y-50623214D01*
X99879969Y-50575488D01*
X99944223Y-50545287D01*
X99963524Y-50543800D01*
X103961476Y-50543800D01*
X104029597Y-50563802D01*
X104045030Y-50575488D01*
X104098901Y-50623214D01*
X104250560Y-50702810D01*
X104416861Y-50743800D01*
X104416863Y-50743800D01*
X104588137Y-50743800D01*
X104588139Y-50743800D01*
X104754440Y-50702810D01*
X104906099Y-50623214D01*
X105034302Y-50509635D01*
X105131599Y-50368677D01*
X105192335Y-50208529D01*
X105212980Y-50038500D01*
X105192335Y-49868471D01*
X105131599Y-49708323D01*
X105034302Y-49567365D01*
X105034299Y-49567363D01*
X105030103Y-49561283D01*
X105007867Y-49493858D01*
X105007799Y-49489706D01*
X105007800Y-47494800D01*
X105027802Y-47426679D01*
X105081458Y-47380186D01*
X105133800Y-47368800D01*
X106501476Y-47368800D01*
X106569597Y-47388802D01*
X106585030Y-47400488D01*
X106638901Y-47448214D01*
X106790560Y-47527810D01*
X106956861Y-47568800D01*
X106956863Y-47568800D01*
X107128137Y-47568800D01*
X107128139Y-47568800D01*
X107294440Y-47527810D01*
X107446099Y-47448214D01*
X107574302Y-47334635D01*
X107671599Y-47193677D01*
X107732335Y-47033529D01*
X107752980Y-46863500D01*
X107732335Y-46693471D01*
X107695228Y-46595629D01*
X107671600Y-46533325D01*
X107668750Y-46529196D01*
X107574302Y-46392365D01*
X107573200Y-46391389D01*
X107446098Y-46278785D01*
X107369157Y-46238404D01*
X107294440Y-46199190D01*
X107128139Y-46158200D01*
X106956861Y-46158200D01*
X106790560Y-46199190D01*
X106790558Y-46199190D01*
X106790558Y-46199191D01*
X106638901Y-46278785D01*
X106585030Y-46326512D01*
X106520777Y-46356713D01*
X106501476Y-46358200D01*
X104575151Y-46358200D01*
X104429849Y-46358200D01*
X104404766Y-46365565D01*
X104403458Y-46365949D01*
X104385895Y-46369769D01*
X104358678Y-46373682D01*
X104333650Y-46385111D01*
X104316816Y-46391389D01*
X104290431Y-46399136D01*
X104267294Y-46414005D01*
X104251526Y-46422615D01*
X104226502Y-46434043D01*
X104205717Y-46452054D01*
X104191331Y-46462824D01*
X104168195Y-46477693D01*
X104150186Y-46498477D01*
X104137477Y-46511186D01*
X104116693Y-46529195D01*
X104101824Y-46552331D01*
X104091054Y-46566717D01*
X104073043Y-46587502D01*
X104061615Y-46612526D01*
X104053005Y-46628294D01*
X104038136Y-46651431D01*
X104030389Y-46677816D01*
X104024111Y-46694650D01*
X104012682Y-46719678D01*
X104008769Y-46746895D01*
X104004949Y-46764458D01*
X103997200Y-46790849D01*
X103997200Y-49407200D01*
X103977198Y-49475321D01*
X103923542Y-49521814D01*
X103871200Y-49533200D01*
X99963524Y-49533200D01*
X99895403Y-49513198D01*
X99879970Y-49501512D01*
X99826098Y-49453785D01*
X99730713Y-49403724D01*
X99674440Y-49374190D01*
X99508139Y-49333200D01*
X99336861Y-49333200D01*
X99170560Y-49374190D01*
X99170558Y-49374190D01*
X99170558Y-49374191D01*
X99018901Y-49453785D01*
X98890699Y-49567363D01*
X98793399Y-49708325D01*
X98732664Y-49868472D01*
X98712020Y-50038500D01*
X71755500Y-50038500D01*
X71755500Y-45720000D01*
X72949520Y-45720000D01*
X72970164Y-45890027D01*
X73030899Y-46050174D01*
X73030900Y-46050176D01*
X73030901Y-46050177D01*
X73109814Y-46164502D01*
X73128199Y-46191136D01*
X73227133Y-46278785D01*
X73256401Y-46304714D01*
X73408060Y-46384310D01*
X73574361Y-46425300D01*
X73574363Y-46425300D01*
X73745637Y-46425300D01*
X73745639Y-46425300D01*
X73911940Y-46384310D01*
X74063599Y-46304714D01*
X74191802Y-46191135D01*
X74289099Y-46050177D01*
X74349835Y-45890029D01*
X74370480Y-45720000D01*
X74367142Y-45692515D01*
X74378786Y-45622485D01*
X74403125Y-45588238D01*
X75848518Y-44142845D01*
X75859048Y-44133436D01*
X75885478Y-44112360D01*
X75916319Y-44067122D01*
X75919010Y-44063329D01*
X75951520Y-44019282D01*
X75951521Y-44019277D01*
X75955387Y-44014040D01*
X75956968Y-44010910D01*
X75975018Y-43952394D01*
X75976482Y-43947943D01*
X75994562Y-43896278D01*
X75994562Y-43896276D01*
X75996712Y-43890133D01*
X75997300Y-43886674D01*
X75997300Y-43825450D01*
X75997388Y-43820739D01*
X75999677Y-43759555D01*
X75997300Y-43741499D01*
X75997300Y-41255993D01*
X76017302Y-41187872D01*
X76039742Y-41161685D01*
X76096802Y-41111135D01*
X76194099Y-40970177D01*
X76254835Y-40810029D01*
X76275480Y-40640000D01*
X76254835Y-40469971D01*
X76194099Y-40309823D01*
X76096802Y-40168865D01*
X75968599Y-40055286D01*
X75968598Y-40055285D01*
X75892769Y-40015488D01*
X75816940Y-39975690D01*
X75650639Y-39934700D01*
X75479361Y-39934700D01*
X75313060Y-39975690D01*
X75313058Y-39975690D01*
X75313058Y-39975691D01*
X75161401Y-40055285D01*
X75021747Y-40179010D01*
X75021137Y-40178321D01*
X74978535Y-40212844D01*
X74907966Y-40220625D01*
X74844393Y-40189019D01*
X74827349Y-40169350D01*
X74826799Y-40168863D01*
X74698599Y-40055286D01*
X74698598Y-40055285D01*
X74622769Y-40015488D01*
X74546940Y-39975690D01*
X74380639Y-39934700D01*
X74209361Y-39934700D01*
X74043060Y-39975690D01*
X74043058Y-39975690D01*
X74043058Y-39975691D01*
X73891401Y-40055285D01*
X73763199Y-40168863D01*
X73665899Y-40309825D01*
X73605164Y-40469972D01*
X73584520Y-40640000D01*
X73605164Y-40810027D01*
X73665899Y-40970174D01*
X73665900Y-40970176D01*
X73665901Y-40970177D01*
X73763198Y-41111135D01*
X73820254Y-41161682D01*
X73857978Y-41221824D01*
X73862700Y-41255993D01*
X73862700Y-43583743D01*
X73842698Y-43651864D01*
X73825795Y-43672838D01*
X73790838Y-43707795D01*
X73728526Y-43741821D01*
X73701743Y-43744700D01*
X73574361Y-43744700D01*
X73408060Y-43785690D01*
X73408058Y-43785690D01*
X73408058Y-43785691D01*
X73256401Y-43865285D01*
X73128199Y-43978863D01*
X73030899Y-44119825D01*
X72970164Y-44279972D01*
X72949520Y-44449999D01*
X72970164Y-44620027D01*
X73030899Y-44780174D01*
X73030900Y-44780176D01*
X73030901Y-44780177D01*
X73128198Y-44921135D01*
X73206706Y-44990688D01*
X73244431Y-45050831D01*
X73243651Y-45121823D01*
X73206707Y-45179310D01*
X73128199Y-45248863D01*
X73030899Y-45389825D01*
X72970164Y-45549972D01*
X72949520Y-45720000D01*
X71755500Y-45720000D01*
X71755500Y-43675157D01*
X71755528Y-43675014D01*
X71755524Y-43675014D01*
X71755539Y-43650002D01*
X71755541Y-43650000D01*
X71755383Y-43649617D01*
X71755379Y-43649615D01*
X71755097Y-43649499D01*
X71755000Y-43649459D01*
X71730048Y-43649459D01*
X71729842Y-43649500D01*
X58302158Y-43649500D01*
X58301952Y-43649459D01*
X58276999Y-43649459D01*
X58276900Y-43649500D01*
X58276618Y-43649615D01*
X58276617Y-43649617D01*
X58276459Y-43650000D01*
X58276476Y-43675014D01*
X58276471Y-43675014D01*
X58276500Y-43675157D01*
X58276500Y-58325072D01*
X58276415Y-58325500D01*
X57929185Y-58325500D01*
X57619205Y-58015520D01*
X57585179Y-57953208D01*
X57582300Y-57926425D01*
X57582300Y-57816361D01*
X57583092Y-57802254D01*
X57583350Y-57799968D01*
X57586878Y-57768653D01*
X57576692Y-57714824D01*
X57575915Y-57710253D01*
X57567760Y-57656138D01*
X57567759Y-57656137D01*
X57566791Y-57649709D01*
X57565688Y-57646356D01*
X57537089Y-57592245D01*
X57534965Y-57588037D01*
X57518430Y-57553702D01*
X57511218Y-57538726D01*
X57511217Y-57538725D01*
X57508396Y-57532867D01*
X57506356Y-57529991D01*
X57501757Y-57525392D01*
X57463038Y-57486673D01*
X57459796Y-57483307D01*
X57435970Y-57457629D01*
X57422579Y-57443197D01*
X57422577Y-57443196D01*
X57418158Y-57438433D01*
X57403710Y-57427345D01*
X56984205Y-57007840D01*
X56950179Y-56945528D01*
X56947300Y-56918745D01*
X56947300Y-56906567D01*
X56967302Y-56838446D01*
X56973331Y-56829871D01*
X57000054Y-56795046D01*
X57056007Y-56659962D01*
X57075092Y-56515000D01*
X57056007Y-56370038D01*
X57000054Y-56234954D01*
X56911045Y-56118955D01*
X56795046Y-56029946D01*
X56795044Y-56029945D01*
X56659961Y-55973992D01*
X56515000Y-55954908D01*
X56370038Y-55973992D01*
X56234955Y-56029945D01*
X56118955Y-56118955D01*
X56029945Y-56234955D01*
X55973992Y-56370038D01*
X55954908Y-56515000D01*
X55973992Y-56659961D01*
X56029945Y-56795045D01*
X56029946Y-56795046D01*
X56056662Y-56829863D01*
X56082263Y-56896082D01*
X56082700Y-56906567D01*
X56082700Y-57118646D01*
X56081908Y-57132753D01*
X56078122Y-57166348D01*
X56088298Y-57220132D01*
X56089086Y-57224772D01*
X56098209Y-57285295D01*
X56103899Y-57302584D01*
X56105879Y-57313046D01*
X56103488Y-57313498D01*
X56112032Y-57355524D01*
X56086316Y-57421699D01*
X56072489Y-57436906D01*
X56067918Y-57441175D01*
X56058632Y-57449043D01*
X56056863Y-57450400D01*
X56050305Y-57457625D01*
X56022807Y-57483307D01*
X56017748Y-57488032D01*
X55977812Y-57553702D01*
X55970132Y-57564918D01*
X55969239Y-57566081D01*
X55963972Y-57576460D01*
X55937230Y-57620436D01*
X55884746Y-57668247D01*
X55814745Y-57680093D01*
X55749451Y-57652214D01*
X55740478Y-57644064D01*
X55719793Y-57623379D01*
X55685767Y-57561067D01*
X55690832Y-57490252D01*
X55708924Y-57457581D01*
X55730054Y-57430046D01*
X55786007Y-57294962D01*
X55805092Y-57150000D01*
X55786007Y-57005038D01*
X55730054Y-56869954D01*
X55641045Y-56753955D01*
X55525046Y-56664946D01*
X55525044Y-56664945D01*
X55389961Y-56608992D01*
X55245000Y-56589908D01*
X55100038Y-56608992D01*
X54964955Y-56664945D01*
X54848955Y-56753955D01*
X54759943Y-56869957D01*
X54726407Y-56950921D01*
X54681859Y-57006202D01*
X54614495Y-57028622D01*
X54545704Y-57011063D01*
X54497326Y-56959101D01*
X54493590Y-56950919D01*
X54480263Y-56918745D01*
X54460054Y-56869954D01*
X54371045Y-56753955D01*
X54255046Y-56664946D01*
X54255044Y-56664945D01*
X54119961Y-56608992D01*
X53975000Y-56589908D01*
X53830038Y-56608992D01*
X53694955Y-56664945D01*
X53578955Y-56753955D01*
X53489945Y-56869955D01*
X53433992Y-57005038D01*
X53414908Y-57149999D01*
X20000500Y-57149999D01*
X20000500Y-57126500D01*
X20020502Y-57058379D01*
X20074158Y-57011886D01*
X20126500Y-57000500D01*
X34974842Y-57000500D01*
X34974985Y-57000528D01*
X34974986Y-57000524D01*
X34999997Y-57000539D01*
X35000000Y-57000541D01*
X35000383Y-57000383D01*
X35000500Y-57000099D01*
X35000541Y-57000000D01*
X35000584Y-56975500D01*
X35000500Y-56975072D01*
X35000500Y-45025157D01*
X35000528Y-45025014D01*
X35000524Y-45025014D01*
X35000539Y-45000002D01*
X35000541Y-45000000D01*
X35000383Y-44999617D01*
X35000099Y-44999500D01*
X35000000Y-44999459D01*
X34975048Y-44999459D01*
X34974842Y-44999500D01*
X20126500Y-44999500D01*
X20058379Y-44979498D01*
X20011886Y-44925842D01*
X20000500Y-44873500D01*
X20000500Y-34289999D01*
X25474908Y-34289999D01*
X25493992Y-34434961D01*
X25536871Y-34538480D01*
X25549946Y-34570046D01*
X25638955Y-34686045D01*
X25754954Y-34775054D01*
X25890038Y-34831007D01*
X25933548Y-34836735D01*
X25998475Y-34865457D01*
X26006197Y-34872562D01*
X30475991Y-39342356D01*
X30485407Y-39352891D01*
X30500049Y-39371252D01*
X30506490Y-39379328D01*
X30551719Y-39410165D01*
X30555543Y-39412878D01*
X30599567Y-39445369D01*
X30599568Y-39445369D01*
X30604799Y-39449230D01*
X30607949Y-39450821D01*
X30621155Y-39454894D01*
X30666459Y-39468868D01*
X30670865Y-39470317D01*
X30722571Y-39488411D01*
X30722574Y-39488411D01*
X30728715Y-39490560D01*
X30732178Y-39491149D01*
X30738690Y-39491149D01*
X30793398Y-39491149D01*
X30798109Y-39491237D01*
X30852798Y-39493283D01*
X30852798Y-39493282D01*
X30859298Y-39493526D01*
X30877350Y-39491149D01*
X31831006Y-39491149D01*
X31899127Y-39511151D01*
X31907701Y-39517180D01*
X31942527Y-39543903D01*
X32077611Y-39599856D01*
X32222573Y-39618941D01*
X32367535Y-39599856D01*
X32502619Y-39543903D01*
X32618618Y-39454894D01*
X32707627Y-39338895D01*
X32763580Y-39203811D01*
X32782665Y-39058849D01*
X32763580Y-38913887D01*
X32707627Y-38778803D01*
X32618618Y-38662804D01*
X32502619Y-38573795D01*
X32502617Y-38573794D01*
X32367534Y-38517841D01*
X32222573Y-38498757D01*
X32077611Y-38517841D01*
X31942527Y-38573794D01*
X31921872Y-38589644D01*
X31907709Y-38600511D01*
X31841491Y-38626112D01*
X31831006Y-38626549D01*
X31035104Y-38626549D01*
X30966983Y-38606547D01*
X30946009Y-38589644D01*
X26646364Y-34289999D01*
X30554908Y-34289999D01*
X30573992Y-34434961D01*
X30629946Y-34570047D01*
X30673987Y-34627443D01*
X30687723Y-34659742D01*
X30689002Y-34659127D01*
X30693620Y-34668717D01*
X30699310Y-34686008D01*
X30727921Y-34740145D01*
X30730043Y-34744349D01*
X30756603Y-34799502D01*
X30758644Y-34802378D01*
X30763242Y-34806976D01*
X30763243Y-34806977D01*
X30801959Y-34845693D01*
X30805202Y-34849060D01*
X30846845Y-34893940D01*
X30861290Y-34905024D01*
X33380999Y-37424733D01*
X33415025Y-37487045D01*
X33409960Y-37557860D01*
X33367413Y-37614696D01*
X33346021Y-37627614D01*
X33345370Y-37627923D01*
X33229482Y-37728972D01*
X33145162Y-37857530D01*
X33116561Y-37947642D01*
X33112891Y-37957701D01*
X33112065Y-37959696D01*
X33110480Y-37966802D01*
X33098650Y-38004078D01*
X33095743Y-38089134D01*
X33094742Y-38101252D01*
X33094450Y-38103471D01*
X33094922Y-38113219D01*
X33093401Y-38157733D01*
X33111597Y-38232400D01*
X33114100Y-38245773D01*
X33114291Y-38247225D01*
X33117905Y-38258285D01*
X33129803Y-38307110D01*
X33163826Y-38367621D01*
X33170402Y-38381147D01*
X33170469Y-38381308D01*
X33177590Y-38392100D01*
X33205157Y-38441127D01*
X33249424Y-38485394D01*
X33258855Y-38496147D01*
X33269612Y-38505582D01*
X36999249Y-42235219D01*
X37033275Y-42297531D01*
X37036154Y-42324314D01*
X37036154Y-43670273D01*
X37035218Y-43684546D01*
X37036154Y-43698820D01*
X37036154Y-43722801D01*
X37036739Y-43727060D01*
X37036740Y-43727069D01*
X37051830Y-43836862D01*
X37113083Y-43977878D01*
X37113084Y-43977879D01*
X37113085Y-43977881D01*
X37210113Y-44097145D01*
X37335721Y-44185809D01*
X37480591Y-44237296D01*
X37633981Y-44247788D01*
X37784513Y-44216507D01*
X37868426Y-44173025D01*
X37878199Y-44168482D01*
X37880204Y-44167652D01*
X37886380Y-44163722D01*
X37921023Y-44145773D01*
X37983208Y-44087694D01*
X37992537Y-44079794D01*
X37994292Y-44078447D01*
X38000855Y-44071213D01*
X38033388Y-44040832D01*
X38073317Y-43975169D01*
X38081011Y-43963936D01*
X38081903Y-43962772D01*
X38087169Y-43952391D01*
X38113273Y-43909467D01*
X38132002Y-43842618D01*
X38136925Y-43828386D01*
X38136986Y-43828238D01*
X38139577Y-43815585D01*
X38154754Y-43761420D01*
X38154754Y-43698819D01*
X38155689Y-43684546D01*
X38154754Y-43670273D01*
X38154754Y-42502677D01*
X38174756Y-42434556D01*
X38228412Y-42388063D01*
X38298686Y-42377959D01*
X38363266Y-42407453D01*
X38369834Y-42413568D01*
X38895060Y-42938794D01*
X39419773Y-43463507D01*
X39429189Y-43474042D01*
X39450272Y-43500479D01*
X39495501Y-43531316D01*
X39499325Y-43534029D01*
X39543349Y-43566520D01*
X39543350Y-43566520D01*
X39548581Y-43570381D01*
X39551731Y-43571972D01*
X39569401Y-43577422D01*
X39610241Y-43590019D01*
X39614647Y-43591468D01*
X39666353Y-43609562D01*
X39666356Y-43609562D01*
X39672497Y-43611711D01*
X39675960Y-43612300D01*
X39682472Y-43612300D01*
X39737180Y-43612300D01*
X39741891Y-43612388D01*
X39796580Y-43614434D01*
X39796580Y-43614433D01*
X39803080Y-43614677D01*
X39821132Y-43612300D01*
X40153927Y-43612300D01*
X40222048Y-43632302D01*
X40243022Y-43649205D01*
X42866919Y-46273101D01*
X42870164Y-46276468D01*
X42907421Y-46316621D01*
X42927031Y-46327943D01*
X42936693Y-46333521D01*
X42948514Y-46341261D01*
X42969452Y-46356713D01*
X42975719Y-46361338D01*
X42987803Y-46365566D01*
X43009182Y-46375373D01*
X43020279Y-46381780D01*
X43053252Y-46389305D01*
X43066794Y-46393206D01*
X43098723Y-46404380D01*
X43111520Y-46404858D01*
X43134844Y-46407929D01*
X43147329Y-46410779D01*
X43181042Y-46408251D01*
X43195155Y-46407987D01*
X43228949Y-46409252D01*
X43241322Y-46405936D01*
X43264512Y-46401996D01*
X43277282Y-46401040D01*
X43308762Y-46388684D01*
X43322153Y-46384278D01*
X43354826Y-46375524D01*
X43365674Y-46368706D01*
X43386670Y-46358107D01*
X43398591Y-46353430D01*
X43425022Y-46332350D01*
X43436537Y-46324180D01*
X43465169Y-46306191D01*
X43473527Y-46296478D01*
X43490465Y-46280162D01*
X43500478Y-46272178D01*
X43519519Y-46244248D01*
X43528121Y-46233039D01*
X43550174Y-46207414D01*
X43555296Y-46195672D01*
X43566677Y-46175079D01*
X43573888Y-46164505D01*
X43583848Y-46132211D01*
X43588765Y-46118960D01*
X43590037Y-46116045D01*
X43602287Y-46087970D01*
X43602287Y-46087968D01*
X43602327Y-46087877D01*
X43617850Y-46061561D01*
X43665054Y-46000046D01*
X43721007Y-45864962D01*
X43740092Y-45720000D01*
X43732159Y-45659745D01*
X43743098Y-45589598D01*
X43790226Y-45536499D01*
X43857081Y-45517300D01*
X44058433Y-45517300D01*
X44126554Y-45537302D01*
X44135128Y-45543331D01*
X44169954Y-45570054D01*
X44305038Y-45626007D01*
X44450000Y-45645092D01*
X44594962Y-45626007D01*
X44730046Y-45570054D01*
X44846045Y-45481045D01*
X44935054Y-45365046D01*
X44991007Y-45229962D01*
X45010092Y-45085000D01*
X44991007Y-44940038D01*
X44935054Y-44804954D01*
X44846045Y-44688955D01*
X44730046Y-44599946D01*
X44730044Y-44599945D01*
X44594961Y-44543992D01*
X44469084Y-44527420D01*
X44450000Y-44524908D01*
X44449999Y-44524908D01*
X44305038Y-44543992D01*
X44169954Y-44599945D01*
X44149299Y-44615795D01*
X44135136Y-44626662D01*
X44068918Y-44652263D01*
X44058433Y-44652700D01*
X43239857Y-44652700D01*
X43171736Y-44632698D01*
X43150762Y-44615795D01*
X37269966Y-38734999D01*
X45794908Y-38734999D01*
X45813992Y-38879961D01*
X45869945Y-39015045D01*
X45869946Y-39015046D01*
X45896662Y-39049863D01*
X45922263Y-39116082D01*
X45922700Y-39126567D01*
X45922700Y-44418646D01*
X45921908Y-44432753D01*
X45918122Y-44466348D01*
X45928298Y-44520132D01*
X45929086Y-44524772D01*
X45938209Y-44585295D01*
X45939310Y-44588639D01*
X45942349Y-44594390D01*
X45942350Y-44594392D01*
X45953662Y-44615795D01*
X45967921Y-44642776D01*
X45970043Y-44646980D01*
X45996603Y-44702133D01*
X45998644Y-44705009D01*
X46003242Y-44709607D01*
X46003243Y-44709608D01*
X46041959Y-44748324D01*
X46045202Y-44751691D01*
X46086845Y-44796571D01*
X46101290Y-44807655D01*
X46407436Y-45113801D01*
X46441462Y-45176113D01*
X46443263Y-45186447D01*
X46448992Y-45229961D01*
X46504945Y-45365044D01*
X46504946Y-45365046D01*
X46593955Y-45481045D01*
X46709954Y-45570054D01*
X46845038Y-45626007D01*
X46990000Y-45645092D01*
X47134962Y-45626007D01*
X47270046Y-45570054D01*
X47386045Y-45481045D01*
X47475054Y-45365046D01*
X47531007Y-45229962D01*
X47550092Y-45085000D01*
X47531007Y-44940038D01*
X47475054Y-44804954D01*
X47386045Y-44688955D01*
X47270046Y-44599946D01*
X47270044Y-44599945D01*
X47134961Y-44543992D01*
X47091449Y-44538263D01*
X47026522Y-44509539D01*
X47018803Y-44502436D01*
X46824205Y-44307838D01*
X46790179Y-44245526D01*
X46787300Y-44218743D01*
X46787300Y-39126567D01*
X46807302Y-39058446D01*
X46813331Y-39049871D01*
X46840054Y-39015046D01*
X46873590Y-38934080D01*
X46918139Y-38878799D01*
X46985502Y-38856378D01*
X47054294Y-38873936D01*
X47102672Y-38925898D01*
X47106409Y-38934080D01*
X47139945Y-39015045D01*
X47139946Y-39015046D01*
X47166662Y-39049863D01*
X47192263Y-39116082D01*
X47192700Y-39126567D01*
X47192700Y-43783646D01*
X47191908Y-43797753D01*
X47188122Y-43831348D01*
X47198298Y-43885132D01*
X47199086Y-43889772D01*
X47208209Y-43950295D01*
X47209310Y-43953639D01*
X47212349Y-43959390D01*
X47212350Y-43959392D01*
X47217612Y-43969348D01*
X47237921Y-44007776D01*
X47240043Y-44011980D01*
X47266603Y-44067133D01*
X47268644Y-44070009D01*
X47273242Y-44074607D01*
X47273243Y-44074608D01*
X47311959Y-44113324D01*
X47315202Y-44116691D01*
X47356845Y-44161571D01*
X47371290Y-44172655D01*
X48312436Y-45113801D01*
X48346462Y-45176113D01*
X48348263Y-45186447D01*
X48353992Y-45229961D01*
X48409945Y-45365044D01*
X48409946Y-45365046D01*
X48498955Y-45481045D01*
X48614954Y-45570054D01*
X48750038Y-45626007D01*
X48895000Y-45645092D01*
X49039962Y-45626007D01*
X49175046Y-45570054D01*
X49291045Y-45481045D01*
X49380054Y-45365046D01*
X49436007Y-45229962D01*
X49455092Y-45085000D01*
X52779908Y-45085000D01*
X52798992Y-45229961D01*
X52854945Y-45365044D01*
X52854946Y-45365046D01*
X52943955Y-45481045D01*
X53059954Y-45570054D01*
X53195038Y-45626007D01*
X53310339Y-45641187D01*
X53375264Y-45669908D01*
X53414356Y-45729173D01*
X53418813Y-45749662D01*
X53433992Y-45864961D01*
X53489945Y-46000044D01*
X53489946Y-46000046D01*
X53578955Y-46116045D01*
X53694954Y-46205054D01*
X53830038Y-46261007D01*
X53975000Y-46280092D01*
X54119962Y-46261007D01*
X54255046Y-46205054D01*
X54371045Y-46116045D01*
X54460054Y-46000046D01*
X54516007Y-45864962D01*
X54521735Y-45821450D01*
X54550457Y-45756524D01*
X54557550Y-45748813D01*
X60878630Y-39427733D01*
X91513401Y-39427733D01*
X91531597Y-39502400D01*
X91534100Y-39515773D01*
X91534291Y-39517225D01*
X91537905Y-39528285D01*
X91549803Y-39577110D01*
X91583826Y-39637621D01*
X91590402Y-39651147D01*
X91590469Y-39651308D01*
X91597590Y-39662100D01*
X91625157Y-39711127D01*
X91669424Y-39755394D01*
X91678855Y-39766147D01*
X91689612Y-39775582D01*
X93383794Y-41469763D01*
X93417819Y-41532075D01*
X93420699Y-41558858D01*
X93420699Y-42530734D01*
X93419765Y-42545001D01*
X93420699Y-42559259D01*
X93420699Y-42578947D01*
X93420699Y-42578959D01*
X93420700Y-42583255D01*
X93421285Y-42587513D01*
X93421286Y-42587524D01*
X93436376Y-42697316D01*
X93497629Y-42838332D01*
X93497630Y-42838333D01*
X93497631Y-42838335D01*
X93594659Y-42957599D01*
X93720267Y-43046263D01*
X93865137Y-43097750D01*
X94018527Y-43108242D01*
X94169059Y-43076961D01*
X94252972Y-43033479D01*
X94262745Y-43028936D01*
X94264750Y-43028106D01*
X94270926Y-43024176D01*
X94305569Y-43006227D01*
X94367754Y-42948148D01*
X94377083Y-42940248D01*
X94378838Y-42938901D01*
X94385401Y-42931667D01*
X94417934Y-42901286D01*
X94457863Y-42835623D01*
X94465557Y-42824390D01*
X94466449Y-42823226D01*
X94471715Y-42812845D01*
X94497819Y-42769921D01*
X94516548Y-42703072D01*
X94521471Y-42688840D01*
X94521532Y-42688692D01*
X94524123Y-42676039D01*
X94539300Y-42621874D01*
X94539299Y-42559283D01*
X94540236Y-42544999D01*
X94539299Y-42530717D01*
X94539299Y-42198488D01*
X94539299Y-41286642D01*
X94539370Y-41282460D01*
X94541598Y-41217266D01*
X94531714Y-41176708D01*
X94529307Y-41164036D01*
X94523623Y-41122684D01*
X94516362Y-41105968D01*
X94509512Y-41085601D01*
X94505197Y-41067890D01*
X94484729Y-41031488D01*
X94479001Y-41019957D01*
X94462369Y-40981665D01*
X94450867Y-40967529D01*
X94438776Y-40949762D01*
X94429843Y-40933873D01*
X94400319Y-40904349D01*
X94391683Y-40894779D01*
X94365342Y-40862401D01*
X94350448Y-40851888D01*
X94334015Y-40838045D01*
X92480586Y-38984617D01*
X92471146Y-38973854D01*
X92460385Y-38964416D01*
X92446484Y-38950515D01*
X92443434Y-38947465D01*
X92351696Y-38877897D01*
X92351695Y-38877896D01*
X92351693Y-38877895D01*
X92208667Y-38821493D01*
X92055728Y-38805771D01*
X92055727Y-38805771D01*
X92055726Y-38805771D01*
X91964542Y-38821493D01*
X91904211Y-38831895D01*
X91765368Y-38897925D01*
X91649482Y-38998972D01*
X91565162Y-39127530D01*
X91536561Y-39217642D01*
X91532891Y-39227701D01*
X91532065Y-39229696D01*
X91530480Y-39236802D01*
X91518650Y-39274078D01*
X91515743Y-39359134D01*
X91514742Y-39371252D01*
X91514450Y-39373471D01*
X91514922Y-39383219D01*
X91513401Y-39427733D01*
X60878630Y-39427733D01*
X62258803Y-38047560D01*
X62321113Y-38013536D01*
X62331443Y-38011736D01*
X62374962Y-38006007D01*
X62510046Y-37950054D01*
X62626045Y-37861045D01*
X62715054Y-37745046D01*
X62771007Y-37609962D01*
X62790092Y-37465000D01*
X62771007Y-37320038D01*
X62715054Y-37184954D01*
X62626045Y-37068955D01*
X62510046Y-36979946D01*
X62491792Y-36972385D01*
X62374961Y-36923992D01*
X62230000Y-36904908D01*
X62085038Y-36923992D01*
X61949955Y-36979945D01*
X61833955Y-37068955D01*
X61744945Y-37184955D01*
X61711409Y-37265920D01*
X61666861Y-37321201D01*
X61599497Y-37343622D01*
X61530706Y-37326064D01*
X61482328Y-37274102D01*
X61478591Y-37265920D01*
X61469278Y-37243437D01*
X61445054Y-37184954D01*
X61356045Y-37068955D01*
X61240046Y-36979946D01*
X61221792Y-36972385D01*
X61104961Y-36923992D01*
X60960000Y-36904908D01*
X60815038Y-36923992D01*
X60679955Y-36979945D01*
X60563955Y-37068955D01*
X60474945Y-37184955D01*
X60418992Y-37320038D01*
X60413263Y-37363552D01*
X60384539Y-37428479D01*
X60377436Y-37436198D01*
X53311197Y-44502436D01*
X53248885Y-44536462D01*
X53238551Y-44538263D01*
X53195038Y-44543992D01*
X53059955Y-44599945D01*
X52943955Y-44688955D01*
X52854945Y-44804955D01*
X52798992Y-44940038D01*
X52779908Y-45085000D01*
X49455092Y-45085000D01*
X49436007Y-44940038D01*
X49380054Y-44804954D01*
X49291045Y-44688955D01*
X49175046Y-44599946D01*
X49175044Y-44599945D01*
X49039961Y-44543992D01*
X48996450Y-44538264D01*
X48931523Y-44509541D01*
X48923801Y-44502437D01*
X48094204Y-43672839D01*
X48060179Y-43610527D01*
X48057300Y-43583744D01*
X48057300Y-39126567D01*
X48077302Y-39058446D01*
X48083331Y-39049871D01*
X48110054Y-39015046D01*
X48166007Y-38879962D01*
X48185092Y-38735000D01*
X48166007Y-38590038D01*
X48110054Y-38454954D01*
X48021045Y-38338955D01*
X47905046Y-38249946D01*
X47898477Y-38247225D01*
X47769961Y-38193992D01*
X47625000Y-38174908D01*
X47480038Y-38193992D01*
X47344955Y-38249945D01*
X47228955Y-38338955D01*
X47139945Y-38454955D01*
X47106409Y-38535920D01*
X47061861Y-38591201D01*
X46994497Y-38613622D01*
X46925706Y-38596064D01*
X46877328Y-38544102D01*
X46873591Y-38535920D01*
X46858604Y-38499738D01*
X46840054Y-38454954D01*
X46751045Y-38338955D01*
X46635046Y-38249946D01*
X46628477Y-38247225D01*
X46499961Y-38193992D01*
X46374084Y-38177420D01*
X46355000Y-38174908D01*
X46354999Y-38174908D01*
X46210038Y-38193992D01*
X46074955Y-38249945D01*
X45958955Y-38338955D01*
X45869945Y-38454955D01*
X45813992Y-38590038D01*
X45794908Y-38734999D01*
X37269966Y-38734999D01*
X33176455Y-34641488D01*
X33167038Y-34630951D01*
X33145961Y-34604520D01*
X33100764Y-34573706D01*
X33096923Y-34570981D01*
X33047660Y-34534624D01*
X33044491Y-34533025D01*
X32986009Y-34514985D01*
X32981534Y-34513512D01*
X32923758Y-34493295D01*
X32920253Y-34492700D01*
X32913761Y-34492700D01*
X32859053Y-34492700D01*
X32854342Y-34492612D01*
X32841458Y-34492130D01*
X32799653Y-34490566D01*
X32799652Y-34490566D01*
X32780674Y-34489856D01*
X32780764Y-34487448D01*
X32737814Y-34486423D01*
X32699482Y-34466370D01*
X32665045Y-34439945D01*
X32529961Y-34383992D01*
X32385000Y-34364908D01*
X32240038Y-34383992D01*
X32104955Y-34439945D01*
X32066287Y-34469615D01*
X31988955Y-34528955D01*
X31988954Y-34528956D01*
X31988953Y-34528957D01*
X31954412Y-34573971D01*
X31897074Y-34615837D01*
X31826203Y-34620058D01*
X31765356Y-34586360D01*
X31695052Y-34516056D01*
X31661026Y-34453744D01*
X31659225Y-34410518D01*
X31675092Y-34290000D01*
X31656007Y-34145038D01*
X31600054Y-34009954D01*
X31511045Y-33893955D01*
X31395046Y-33804946D01*
X31317926Y-33773002D01*
X31259961Y-33748992D01*
X31115000Y-33729908D01*
X30970038Y-33748992D01*
X30834955Y-33804945D01*
X30718955Y-33893955D01*
X30629945Y-34009955D01*
X30573992Y-34145038D01*
X30554908Y-34289999D01*
X26646364Y-34289999D01*
X26617562Y-34261197D01*
X26583536Y-34198885D01*
X26581735Y-34188548D01*
X26576007Y-34145038D01*
X26546389Y-34073534D01*
X26520054Y-34009954D01*
X26431045Y-33893955D01*
X26315046Y-33804946D01*
X26237926Y-33773002D01*
X26179961Y-33748992D01*
X26035000Y-33729908D01*
X25890038Y-33748992D01*
X25754955Y-33804945D01*
X25638955Y-33893955D01*
X25549945Y-34009955D01*
X25493992Y-34145038D01*
X25474908Y-34289999D01*
X20000500Y-34289999D01*
X20000500Y-30480000D01*
X33655000Y-30480000D01*
X33655000Y-34925000D01*
X38100000Y-34925000D01*
X38100000Y-30480000D01*
X33655000Y-30480000D01*
X20000500Y-30480000D01*
X20000500Y-25067766D01*
X23145787Y-25067766D01*
X23175413Y-25337015D01*
X23175414Y-25337018D01*
X23243928Y-25599088D01*
X23310541Y-25755842D01*
X23340285Y-25825836D01*
X23349870Y-25848390D01*
X23490982Y-26079610D01*
X23664255Y-26287820D01*
X23664256Y-26287821D01*
X23664258Y-26287823D01*
X23865993Y-26468578D01*
X23865995Y-26468579D01*
X23865998Y-26468582D01*
X24091910Y-26618044D01*
X24192356Y-26665131D01*
X24337171Y-26733018D01*
X24337173Y-26733018D01*
X24337176Y-26733020D01*
X24596569Y-26811060D01*
X24596572Y-26811060D01*
X24596574Y-26811061D01*
X24864558Y-26850500D01*
X24864561Y-26850500D01*
X25065330Y-26850500D01*
X25067631Y-26850500D01*
X25270156Y-26835677D01*
X25534553Y-26776780D01*
X25787558Y-26680014D01*
X26023777Y-26547441D01*
X26238177Y-26381888D01*
X26426186Y-26186881D01*
X26583799Y-25966579D01*
X26707656Y-25725675D01*
X26795118Y-25469305D01*
X26799777Y-25444085D01*
X26826917Y-25297147D01*
X26844319Y-25202933D01*
X26852942Y-24966972D01*
X28562520Y-24966972D01*
X28583164Y-25137000D01*
X28643899Y-25297147D01*
X28643900Y-25297149D01*
X28643901Y-25297150D01*
X28741195Y-25438104D01*
X28741199Y-25438109D01*
X28862647Y-25545703D01*
X28869401Y-25551687D01*
X29021060Y-25631283D01*
X29187361Y-25672273D01*
X29187363Y-25672273D01*
X29358637Y-25672273D01*
X29358639Y-25672273D01*
X29524940Y-25631283D01*
X29676599Y-25551687D01*
X29804802Y-25438108D01*
X29902099Y-25297150D01*
X29962835Y-25137002D01*
X29967115Y-25101744D01*
X29995181Y-25036536D01*
X30003080Y-25027861D01*
X30737766Y-24293175D01*
X30800076Y-24259152D01*
X30826859Y-24256273D01*
X30974126Y-24256273D01*
X31699791Y-24256273D01*
X31767912Y-24276275D01*
X31814405Y-24329931D01*
X31824509Y-24400205D01*
X31795015Y-24464785D01*
X31779301Y-24480018D01*
X31759521Y-24496108D01*
X31741769Y-24508190D01*
X31725874Y-24517127D01*
X31696351Y-24546650D01*
X31686779Y-24555289D01*
X31654401Y-24581631D01*
X31643887Y-24596526D01*
X31630048Y-24612953D01*
X29466158Y-26776844D01*
X29407218Y-26810087D01*
X29275060Y-26842662D01*
X29123401Y-26922258D01*
X28995199Y-27035836D01*
X28897899Y-27176798D01*
X28837164Y-27336945D01*
X28816520Y-27506973D01*
X28837164Y-27677000D01*
X28897899Y-27837147D01*
X28897900Y-27837149D01*
X28897901Y-27837150D01*
X28987391Y-27966798D01*
X28995199Y-27978109D01*
X29073579Y-28047548D01*
X29123401Y-28091687D01*
X29275060Y-28171283D01*
X29441361Y-28212273D01*
X29441363Y-28212273D01*
X29612637Y-28212273D01*
X29612639Y-28212273D01*
X29778940Y-28171283D01*
X29930599Y-28091687D01*
X30058802Y-27978108D01*
X30156099Y-27837150D01*
X30216835Y-27677002D01*
X30221115Y-27641746D01*
X30249181Y-27576537D01*
X30257089Y-27567852D01*
X30367605Y-27457336D01*
X30429917Y-27423312D01*
X30500733Y-27428378D01*
X30557569Y-27470924D01*
X30582379Y-27537445D01*
X30582700Y-27546433D01*
X30582700Y-27680978D01*
X30562698Y-27749099D01*
X30540254Y-27775290D01*
X30483199Y-27825836D01*
X30385899Y-27966798D01*
X30325164Y-28126945D01*
X30304520Y-28296973D01*
X30325164Y-28467000D01*
X30385899Y-28627147D01*
X30385900Y-28627149D01*
X30385901Y-28627150D01*
X30449794Y-28719715D01*
X30483199Y-28768109D01*
X30590797Y-28863433D01*
X30611401Y-28881687D01*
X30763060Y-28961283D01*
X30929361Y-29002273D01*
X30929363Y-29002273D01*
X31100640Y-29002273D01*
X31138757Y-28992877D01*
X31170457Y-28985064D01*
X31241385Y-28988181D01*
X31299368Y-29029151D01*
X31325997Y-29094965D01*
X31325693Y-29122589D01*
X31304519Y-29296972D01*
X31325164Y-29467000D01*
X31385899Y-29627147D01*
X31385900Y-29627149D01*
X31385901Y-29627150D01*
X31483198Y-29768108D01*
X31611401Y-29881687D01*
X31763060Y-29961283D01*
X31929361Y-30002273D01*
X31929363Y-30002273D01*
X32100637Y-30002273D01*
X32100639Y-30002273D01*
X32266940Y-29961283D01*
X32418599Y-29881687D01*
X32546802Y-29768108D01*
X32644099Y-29627150D01*
X32704835Y-29467002D01*
X32725480Y-29296973D01*
X32704835Y-29126944D01*
X32646115Y-28972111D01*
X32644100Y-28966798D01*
X32641020Y-28962336D01*
X32546802Y-28825838D01*
X32507929Y-28791399D01*
X32489746Y-28775290D01*
X32452021Y-28715145D01*
X32447300Y-28680978D01*
X32447300Y-28528227D01*
X32467302Y-28460106D01*
X32484205Y-28439132D01*
X32884159Y-28039178D01*
X32946471Y-28005152D01*
X32973254Y-28002273D01*
X33100637Y-28002273D01*
X33100639Y-28002273D01*
X33266940Y-27961283D01*
X33418599Y-27881687D01*
X33546802Y-27768108D01*
X33644099Y-27627150D01*
X33704835Y-27467002D01*
X33725480Y-27296973D01*
X33704835Y-27126944D01*
X33661187Y-27011854D01*
X33644100Y-26966798D01*
X33644099Y-26966796D01*
X33546802Y-26825838D01*
X33544324Y-26823643D01*
X33418598Y-26712258D01*
X33328803Y-26665131D01*
X33266940Y-26632663D01*
X33100639Y-26591673D01*
X32929361Y-26591673D01*
X32859540Y-26608882D01*
X32788612Y-26605763D01*
X32730630Y-26564793D01*
X32704002Y-26498979D01*
X32704306Y-26471355D01*
X32704835Y-26467002D01*
X32725480Y-26296973D01*
X32704835Y-26126944D01*
X32654154Y-25993309D01*
X32644100Y-25966798D01*
X32643949Y-25966579D01*
X32546802Y-25825838D01*
X32546800Y-25825836D01*
X32457343Y-25746583D01*
X32419618Y-25686438D01*
X32420398Y-25615446D01*
X32459436Y-25556145D01*
X32524337Y-25527364D01*
X32540897Y-25526271D01*
X36094929Y-25526271D01*
X36157774Y-25544724D01*
X36157853Y-25544575D01*
X36158597Y-25544965D01*
X36163050Y-25546273D01*
X36167479Y-25549627D01*
X36197285Y-25565270D01*
X36323060Y-25631281D01*
X36489361Y-25672271D01*
X36489363Y-25672271D01*
X36660637Y-25672271D01*
X36660639Y-25672271D01*
X36826940Y-25631281D01*
X36978599Y-25551685D01*
X37106802Y-25438106D01*
X37118710Y-25420853D01*
X37141945Y-25387194D01*
X37197103Y-25342495D01*
X37245640Y-25332771D01*
X40247068Y-25332771D01*
X40315189Y-25352773D01*
X40361682Y-25406429D01*
X40371786Y-25476703D01*
X40342292Y-25541283D01*
X40336163Y-25547867D01*
X39944155Y-25939873D01*
X39885215Y-25973115D01*
X39753060Y-26005689D01*
X39601401Y-26085285D01*
X39473199Y-26198863D01*
X39375899Y-26339825D01*
X39315164Y-26499972D01*
X39294520Y-26670000D01*
X39315164Y-26840027D01*
X39375899Y-27000174D01*
X39375900Y-27000176D01*
X39375901Y-27000177D01*
X39463403Y-27126945D01*
X39473199Y-27141136D01*
X39574906Y-27231241D01*
X39601401Y-27254714D01*
X39744417Y-27329774D01*
X39762936Y-27339493D01*
X39813959Y-27388861D01*
X39830192Y-27457977D01*
X39806481Y-27524897D01*
X39793477Y-27540157D01*
X39721484Y-27612149D01*
X39710952Y-27621561D01*
X39684522Y-27642639D01*
X39653701Y-27687845D01*
X39650977Y-27691685D01*
X39614629Y-27740935D01*
X39613023Y-27744117D01*
X39594983Y-27802600D01*
X39593510Y-27807074D01*
X39573296Y-27864842D01*
X39572700Y-27868351D01*
X39572700Y-27929549D01*
X39572612Y-27934260D01*
X39570322Y-27995449D01*
X39572700Y-28013501D01*
X39572699Y-31993432D01*
X39552697Y-32061553D01*
X39546663Y-32070134D01*
X39519946Y-32104952D01*
X39463992Y-32240038D01*
X39444908Y-32385000D01*
X39463992Y-32529961D01*
X39519479Y-32663919D01*
X39519946Y-32665046D01*
X39608955Y-32781045D01*
X39724954Y-32870054D01*
X39860038Y-32926007D01*
X40005000Y-32945092D01*
X40149962Y-32926007D01*
X40285046Y-32870054D01*
X40401045Y-32781045D01*
X40490054Y-32665046D01*
X40546007Y-32529962D01*
X40565092Y-32385000D01*
X40546007Y-32240038D01*
X40490054Y-32104954D01*
X40463336Y-32070134D01*
X40437736Y-32003916D01*
X40437300Y-31993455D01*
X40437300Y-30480000D01*
X48895000Y-30480000D01*
X48895000Y-34925000D01*
X53340000Y-34925000D01*
X53340000Y-30480000D01*
X48895000Y-30480000D01*
X40437300Y-30480000D01*
X40437300Y-28171254D01*
X40457302Y-28103133D01*
X40474205Y-28082159D01*
X41917686Y-26638678D01*
X41979998Y-26604652D01*
X42006781Y-26601773D01*
X46682842Y-26601773D01*
X46750963Y-26621775D01*
X46797456Y-26675431D01*
X46807560Y-26745705D01*
X46800655Y-26772447D01*
X46797623Y-26780444D01*
X46797622Y-26780447D01*
X46779189Y-26932260D01*
X46776978Y-26950473D01*
X46778960Y-26966796D01*
X46780315Y-26977956D01*
X46768668Y-27047991D01*
X46744328Y-27082236D01*
X46113987Y-27712577D01*
X46055048Y-27745820D01*
X46011061Y-27756662D01*
X45859401Y-27836258D01*
X45731199Y-27949836D01*
X45633899Y-28090798D01*
X45573164Y-28250945D01*
X45552520Y-28420973D01*
X45573164Y-28591000D01*
X45633899Y-28751147D01*
X45633900Y-28751149D01*
X45633901Y-28751150D01*
X45726038Y-28884633D01*
X45731199Y-28892109D01*
X45815505Y-28966798D01*
X45859401Y-29005687D01*
X46011060Y-29085283D01*
X46177361Y-29126273D01*
X46177363Y-29126273D01*
X46348640Y-29126273D01*
X46386757Y-29116877D01*
X46418457Y-29109064D01*
X46489385Y-29112181D01*
X46547368Y-29153151D01*
X46573997Y-29218965D01*
X46573693Y-29246589D01*
X46552519Y-29420972D01*
X46573164Y-29591000D01*
X46633899Y-29751147D01*
X46633900Y-29751149D01*
X46633901Y-29751150D01*
X46731198Y-29892108D01*
X46859401Y-30005687D01*
X47011060Y-30085283D01*
X47177361Y-30126273D01*
X47177363Y-30126273D01*
X47348637Y-30126273D01*
X47348639Y-30126273D01*
X47514940Y-30085283D01*
X47666599Y-30005687D01*
X47794802Y-29892108D01*
X47892099Y-29751150D01*
X47952835Y-29591002D01*
X47973480Y-29420973D01*
X47952835Y-29250944D01*
X47907479Y-29131349D01*
X47892100Y-29090798D01*
X47892099Y-29090796D01*
X47794802Y-28949838D01*
X47763982Y-28922533D01*
X47726258Y-28862391D01*
X47727038Y-28791399D01*
X47758438Y-28739132D01*
X48255566Y-28242004D01*
X48317876Y-28207981D01*
X48344659Y-28205102D01*
X48472045Y-28205102D01*
X48472047Y-28205102D01*
X48638348Y-28164112D01*
X48790007Y-28084516D01*
X48918210Y-27970937D01*
X49015507Y-27829979D01*
X49076243Y-27669831D01*
X49096888Y-27499802D01*
X49076243Y-27329773D01*
X49054703Y-27272979D01*
X49049250Y-27202194D01*
X49082932Y-27139695D01*
X49145057Y-27105328D01*
X49172516Y-27102300D01*
X53108745Y-27102300D01*
X53176866Y-27122302D01*
X53197840Y-27139205D01*
X54282142Y-28223507D01*
X54291558Y-28234042D01*
X54307468Y-28253993D01*
X54312641Y-28260479D01*
X54357870Y-28291316D01*
X54361694Y-28294029D01*
X54405718Y-28326520D01*
X54405719Y-28326520D01*
X54410950Y-28330381D01*
X54414100Y-28331972D01*
X54427306Y-28336045D01*
X54472610Y-28350019D01*
X54477016Y-28351468D01*
X54528722Y-28369562D01*
X54528725Y-28369562D01*
X54534866Y-28371711D01*
X54538329Y-28372300D01*
X54544841Y-28372300D01*
X54599549Y-28372300D01*
X54604260Y-28372388D01*
X54658949Y-28374434D01*
X54658949Y-28374433D01*
X54665449Y-28374677D01*
X54683501Y-28372300D01*
X54686700Y-28372300D01*
X54754821Y-28392302D01*
X54801314Y-28445958D01*
X54812700Y-28498300D01*
X54812700Y-31993432D01*
X54792698Y-32061553D01*
X54786663Y-32070135D01*
X54759946Y-32104953D01*
X54703992Y-32240038D01*
X54684908Y-32385000D01*
X54703992Y-32529961D01*
X54759479Y-32663919D01*
X54759946Y-32665046D01*
X54848955Y-32781045D01*
X54964954Y-32870054D01*
X55100038Y-32926007D01*
X55245000Y-32945092D01*
X55389962Y-32926007D01*
X55525046Y-32870054D01*
X55641045Y-32781045D01*
X55730054Y-32665046D01*
X55786007Y-32529962D01*
X55805092Y-32385000D01*
X55786007Y-32240038D01*
X55730054Y-32104954D01*
X55706678Y-32074489D01*
X55703337Y-32070135D01*
X55677737Y-32003915D01*
X55677300Y-31993432D01*
X55677300Y-30480000D01*
X64135000Y-30480000D01*
X64135000Y-34925000D01*
X68580000Y-34925000D01*
X68580000Y-30480000D01*
X64135000Y-30480000D01*
X55677300Y-30480000D01*
X55677300Y-28498300D01*
X55697302Y-28430179D01*
X55750958Y-28383686D01*
X55803300Y-28372300D01*
X59023647Y-28372300D01*
X59037754Y-28373092D01*
X59071347Y-28376877D01*
X59125116Y-28366703D01*
X59129729Y-28365919D01*
X59183862Y-28357760D01*
X59183862Y-28357759D01*
X59190316Y-28356787D01*
X59193626Y-28355697D01*
X59199390Y-28352650D01*
X59199392Y-28352650D01*
X59247787Y-28327071D01*
X59251949Y-28324970D01*
X59301274Y-28301218D01*
X59301276Y-28301215D01*
X59307142Y-28298391D01*
X59310001Y-28296363D01*
X59314605Y-28291758D01*
X59314608Y-28291757D01*
X59353336Y-28253027D01*
X59356675Y-28249811D01*
X59396803Y-28212579D01*
X59396804Y-28212576D01*
X59401570Y-28208155D01*
X59412652Y-28193711D01*
X60341248Y-27265115D01*
X60403558Y-27231092D01*
X60430341Y-27228213D01*
X61498194Y-27228213D01*
X61566315Y-27248215D01*
X61612808Y-27301871D01*
X61622912Y-27372145D01*
X61616006Y-27398893D01*
X61613164Y-27406384D01*
X61593561Y-27567840D01*
X61592520Y-27576413D01*
X61594031Y-27588859D01*
X61595857Y-27603896D01*
X61584210Y-27673931D01*
X61559870Y-27708176D01*
X61355805Y-27912241D01*
X61293493Y-27946267D01*
X61222678Y-27941202D01*
X61208156Y-27934714D01*
X61154569Y-27906590D01*
X61114149Y-27885376D01*
X60947848Y-27844386D01*
X60776570Y-27844386D01*
X60610269Y-27885376D01*
X60610267Y-27885376D01*
X60610267Y-27885377D01*
X60458610Y-27964971D01*
X60330408Y-28078549D01*
X60233108Y-28219511D01*
X60172373Y-28379658D01*
X60153087Y-28538501D01*
X60151729Y-28549686D01*
X60152597Y-28556831D01*
X60172373Y-28719713D01*
X60233108Y-28879860D01*
X60233109Y-28879862D01*
X60233110Y-28879863D01*
X60316280Y-29000355D01*
X60330408Y-29020822D01*
X60376111Y-29061312D01*
X60458610Y-29134400D01*
X60610269Y-29213996D01*
X60776570Y-29254986D01*
X60776572Y-29254986D01*
X60947846Y-29254986D01*
X60947848Y-29254986D01*
X61114149Y-29213996D01*
X61265808Y-29134400D01*
X61394011Y-29020821D01*
X61394011Y-29020820D01*
X61405463Y-29010675D01*
X61406003Y-29011285D01*
X61448880Y-28976536D01*
X61519449Y-28968751D01*
X61583024Y-29000355D01*
X61619420Y-29061312D01*
X61617083Y-29132270D01*
X61615233Y-29137490D01*
X61613164Y-29142943D01*
X61592520Y-29312973D01*
X61613164Y-29483000D01*
X61673899Y-29643147D01*
X61673900Y-29643149D01*
X61673901Y-29643150D01*
X61771198Y-29784108D01*
X61899401Y-29897687D01*
X62051060Y-29977283D01*
X62217361Y-30018273D01*
X62217363Y-30018273D01*
X62388637Y-30018273D01*
X62388639Y-30018273D01*
X62554940Y-29977283D01*
X62706599Y-29897687D01*
X62834802Y-29784108D01*
X62932099Y-29643150D01*
X62992835Y-29483002D01*
X63013480Y-29312973D01*
X63010142Y-29285488D01*
X63021786Y-29215458D01*
X63046125Y-29181211D01*
X63640021Y-28587315D01*
X63650551Y-28577906D01*
X63653309Y-28575707D01*
X63676981Y-28556830D01*
X63707822Y-28511592D01*
X63710513Y-28507799D01*
X63743023Y-28463752D01*
X63743024Y-28463747D01*
X63746890Y-28458510D01*
X63748471Y-28455380D01*
X63751378Y-28445958D01*
X63762089Y-28411233D01*
X63766521Y-28396864D01*
X63767985Y-28392413D01*
X63786065Y-28340748D01*
X63786065Y-28340746D01*
X63788215Y-28334603D01*
X63788803Y-28331144D01*
X63788803Y-28269920D01*
X63788891Y-28265209D01*
X63791647Y-28191544D01*
X63795254Y-28191678D01*
X63796174Y-28152822D01*
X63832640Y-28096862D01*
X63888304Y-28047548D01*
X63985601Y-27906590D01*
X64046337Y-27746442D01*
X64066982Y-27576413D01*
X64046337Y-27406384D01*
X64043495Y-27398892D01*
X64038042Y-27328106D01*
X64071725Y-27265608D01*
X64133850Y-27231241D01*
X64161308Y-27228213D01*
X67839658Y-27228213D01*
X67907779Y-27248215D01*
X67928753Y-27265118D01*
X70015795Y-29352159D01*
X70049820Y-29414471D01*
X70052700Y-29441254D01*
X70052700Y-30723432D01*
X70032698Y-30791553D01*
X70026663Y-30800135D01*
X69999946Y-30834953D01*
X69943992Y-30970038D01*
X69924908Y-31114999D01*
X69943992Y-31259961D01*
X69982876Y-31353836D01*
X69999946Y-31395046D01*
X70088955Y-31511045D01*
X70204954Y-31600054D01*
X70340038Y-31656007D01*
X70485000Y-31675092D01*
X70629962Y-31656007D01*
X70765046Y-31600054D01*
X70881045Y-31511045D01*
X70970054Y-31395046D01*
X71026007Y-31259962D01*
X71045092Y-31115000D01*
X71026007Y-30970038D01*
X70970054Y-30834954D01*
X70943337Y-30800135D01*
X70917737Y-30733915D01*
X70917300Y-30723432D01*
X70917300Y-29441254D01*
X70937302Y-29373133D01*
X70954200Y-29352164D01*
X73159687Y-27146677D01*
X73221999Y-27112652D01*
X73248782Y-27109773D01*
X76660983Y-27109773D01*
X76729104Y-27129775D01*
X76775597Y-27183431D01*
X76785701Y-27253705D01*
X76756207Y-27318285D01*
X76750078Y-27324869D01*
X76329525Y-27745420D01*
X76318993Y-27754832D01*
X76292563Y-27775910D01*
X76261742Y-27821116D01*
X76259020Y-27824952D01*
X76258368Y-27825837D01*
X76222670Y-27874206D01*
X76221064Y-27877388D01*
X76203024Y-27935871D01*
X76201551Y-27940345D01*
X76181337Y-27998113D01*
X76180741Y-28001622D01*
X76180741Y-28062820D01*
X76180653Y-28067531D01*
X76178363Y-28128720D01*
X76180741Y-28146772D01*
X76180741Y-28681550D01*
X76160739Y-28749671D01*
X76138295Y-28775862D01*
X76081240Y-28826408D01*
X75983940Y-28967370D01*
X75923205Y-29127517D01*
X75902561Y-29297545D01*
X75923205Y-29467572D01*
X75983940Y-29627719D01*
X76081240Y-29768681D01*
X76139450Y-29820251D01*
X76209442Y-29882259D01*
X76361101Y-29961855D01*
X76527402Y-30002845D01*
X76527404Y-30002845D01*
X76698678Y-30002845D01*
X76698680Y-30002845D01*
X76864981Y-29961855D01*
X76895384Y-29945898D01*
X76964995Y-29931953D01*
X77031097Y-29957857D01*
X77072701Y-30015386D01*
X77076598Y-30086276D01*
X77057632Y-30129042D01*
X77043289Y-30149820D01*
X76982552Y-30309972D01*
X76961908Y-30480000D01*
X76982552Y-30650027D01*
X77043287Y-30810174D01*
X77043288Y-30810176D01*
X77043289Y-30810177D01*
X77140586Y-30951135D01*
X77268789Y-31064714D01*
X77420448Y-31144310D01*
X77586749Y-31185300D01*
X77586751Y-31185300D01*
X77758025Y-31185300D01*
X77758027Y-31185300D01*
X77924328Y-31144310D01*
X78075987Y-31064714D01*
X78204190Y-30951135D01*
X78301487Y-30810177D01*
X78362223Y-30650029D01*
X78382868Y-30480000D01*
X79375000Y-30480000D01*
X79375000Y-34925000D01*
X83820000Y-34925000D01*
X83820000Y-30480000D01*
X79375000Y-30480000D01*
X78382868Y-30480000D01*
X78362223Y-30309971D01*
X78301487Y-30149823D01*
X78204190Y-30008865D01*
X78168539Y-29977281D01*
X78097746Y-29914563D01*
X78060021Y-29854419D01*
X78055300Y-29820251D01*
X78055300Y-28617133D01*
X78075302Y-28549012D01*
X78128958Y-28502519D01*
X78164849Y-28492212D01*
X78249962Y-28481007D01*
X78385046Y-28425054D01*
X78501045Y-28336045D01*
X78590054Y-28220046D01*
X78646007Y-28084962D01*
X78665092Y-27940000D01*
X78646007Y-27795038D01*
X78590054Y-27659954D01*
X78501045Y-27543955D01*
X78385046Y-27454946D01*
X78359576Y-27444396D01*
X78249961Y-27398992D01*
X78134662Y-27383813D01*
X78069734Y-27355090D01*
X78030643Y-27295825D01*
X78026186Y-27275334D01*
X78023143Y-27252216D01*
X78034084Y-27182068D01*
X78081213Y-27128970D01*
X78148065Y-27109773D01*
X83435088Y-27109773D01*
X83503209Y-27129775D01*
X83524183Y-27146678D01*
X84561494Y-28183989D01*
X84595520Y-28246301D01*
X84590455Y-28317116D01*
X84589614Y-28319307D01*
X84541493Y-28441332D01*
X84526107Y-28591002D01*
X84525771Y-28594274D01*
X84546612Y-28715145D01*
X84551895Y-28745788D01*
X84615657Y-28879863D01*
X84617926Y-28884633D01*
X84718970Y-29000515D01*
X84718972Y-29000517D01*
X84847530Y-29084837D01*
X84847532Y-29084838D01*
X84912051Y-29105315D01*
X85010583Y-29136589D01*
X85009895Y-29138756D01*
X85054163Y-29153410D01*
X85071566Y-29167931D01*
X85255794Y-29352159D01*
X85289820Y-29414471D01*
X85292699Y-29441254D01*
X85292698Y-31358432D01*
X85272696Y-31426553D01*
X85266663Y-31435133D01*
X85239946Y-31469952D01*
X85183992Y-31605038D01*
X85164908Y-31750000D01*
X85183992Y-31894961D01*
X85235251Y-32018712D01*
X85239946Y-32030046D01*
X85328955Y-32146045D01*
X85444954Y-32235054D01*
X85580038Y-32291007D01*
X85725000Y-32310092D01*
X85869962Y-32291007D01*
X86005046Y-32235054D01*
X86121045Y-32146045D01*
X86210054Y-32030046D01*
X86266007Y-31894962D01*
X86285092Y-31750000D01*
X86266007Y-31605038D01*
X86210054Y-31469954D01*
X86183337Y-31435135D01*
X86157737Y-31368915D01*
X86157300Y-31358432D01*
X86157300Y-29241361D01*
X86158092Y-29227254D01*
X86159421Y-29215458D01*
X86161878Y-29193653D01*
X86151692Y-29139824D01*
X86150915Y-29135253D01*
X86142760Y-29081138D01*
X86142759Y-29081137D01*
X86141791Y-29074709D01*
X86140688Y-29071356D01*
X86112089Y-29017245D01*
X86109965Y-29013037D01*
X86088009Y-28967446D01*
X86086218Y-28963726D01*
X86086217Y-28963725D01*
X86083396Y-28957867D01*
X86081356Y-28954991D01*
X86062031Y-28935666D01*
X86038038Y-28911673D01*
X86034796Y-28908307D01*
X86019765Y-28892108D01*
X85997579Y-28868197D01*
X85997577Y-28868196D01*
X85993158Y-28863433D01*
X85978710Y-28852345D01*
X85880262Y-28753897D01*
X85846236Y-28691585D01*
X85851301Y-28620770D01*
X85880262Y-28575707D01*
X86828820Y-27627150D01*
X87824764Y-26631205D01*
X87887077Y-26597179D01*
X87913860Y-26594300D01*
X89886140Y-26594300D01*
X89954261Y-26614302D01*
X89975229Y-26631199D01*
X90843797Y-27499767D01*
X90877820Y-27562076D01*
X90880700Y-27588859D01*
X90880700Y-30548797D01*
X90880627Y-30553098D01*
X90878402Y-30618236D01*
X90888285Y-30658794D01*
X90890693Y-30671466D01*
X90896376Y-30712814D01*
X90903640Y-30729536D01*
X90910489Y-30749904D01*
X90914803Y-30767609D01*
X90935261Y-30803994D01*
X90940995Y-30815537D01*
X90957631Y-30853835D01*
X90969134Y-30867975D01*
X90981218Y-30885729D01*
X90990157Y-30901627D01*
X90990159Y-30901630D01*
X91019671Y-30931142D01*
X91028314Y-30940718D01*
X91054658Y-30973098D01*
X91069550Y-30983610D01*
X91085983Y-30997453D01*
X95875026Y-35786496D01*
X95909052Y-35848808D01*
X95903987Y-35919623D01*
X95891731Y-35943131D01*
X95830164Y-36105472D01*
X95809520Y-36275499D01*
X95830164Y-36445527D01*
X95890899Y-36605674D01*
X95890900Y-36605676D01*
X95890901Y-36605677D01*
X95973500Y-36725342D01*
X95988199Y-36746636D01*
X96049220Y-36800696D01*
X96116401Y-36860214D01*
X96268060Y-36939810D01*
X96311166Y-36950434D01*
X96400218Y-36972385D01*
X96459158Y-37005628D01*
X96558794Y-37105264D01*
X96592820Y-37167576D01*
X96595699Y-37194359D01*
X96595699Y-41260727D01*
X96594764Y-41274995D01*
X96595700Y-41289274D01*
X96595700Y-41313255D01*
X96596285Y-41317514D01*
X96596286Y-41317523D01*
X96611376Y-41427316D01*
X96672629Y-41568332D01*
X96672630Y-41568333D01*
X96672631Y-41568335D01*
X96769659Y-41687599D01*
X96895267Y-41776263D01*
X97040137Y-41827750D01*
X97193527Y-41838242D01*
X97344059Y-41806961D01*
X97427972Y-41763479D01*
X97437745Y-41758936D01*
X97439750Y-41758106D01*
X97445926Y-41754176D01*
X97480569Y-41736227D01*
X97542754Y-41678148D01*
X97552083Y-41670248D01*
X97553838Y-41668901D01*
X97560401Y-41661667D01*
X97592934Y-41631286D01*
X97632863Y-41565623D01*
X97640557Y-41554390D01*
X97641449Y-41553226D01*
X97646715Y-41542845D01*
X97672819Y-41499921D01*
X97691548Y-41433072D01*
X97696471Y-41418840D01*
X97696532Y-41418692D01*
X97699123Y-41406039D01*
X97714300Y-41351874D01*
X97714300Y-41289273D01*
X97715235Y-41275004D01*
X97714300Y-41260742D01*
X97714300Y-36960800D01*
X97734302Y-36892679D01*
X97787958Y-36846186D01*
X97840300Y-36834800D01*
X98915770Y-36834800D01*
X98920071Y-36834873D01*
X98922324Y-36834949D01*
X98985207Y-36837098D01*
X99025769Y-36827212D01*
X99038420Y-36824808D01*
X99079789Y-36819123D01*
X99096512Y-36811857D01*
X99116875Y-36805010D01*
X99134583Y-36800696D01*
X99170969Y-36780236D01*
X99182520Y-36774500D01*
X99191661Y-36770529D01*
X99220808Y-36757869D01*
X99234946Y-36746365D01*
X99252702Y-36734281D01*
X99268600Y-36725343D01*
X99298130Y-36695811D01*
X99307678Y-36687193D01*
X99340072Y-36660841D01*
X99350587Y-36645942D01*
X99364421Y-36629520D01*
X99755843Y-36238098D01*
X99814779Y-36204857D01*
X99946940Y-36172283D01*
X100074241Y-36105471D01*
X100112147Y-36085577D01*
X100113699Y-36088535D01*
X100155762Y-36068761D01*
X100175071Y-36067273D01*
X104763297Y-36067273D01*
X104767598Y-36067346D01*
X104769851Y-36067422D01*
X104832734Y-36069571D01*
X104873296Y-36059685D01*
X104885947Y-36057281D01*
X104927316Y-36051596D01*
X104944039Y-36044330D01*
X104964402Y-36037483D01*
X104982110Y-36033169D01*
X105018496Y-36012709D01*
X105030047Y-36006973D01*
X105039188Y-36003002D01*
X105068335Y-35990342D01*
X105082473Y-35978838D01*
X105100229Y-35966754D01*
X105116127Y-35957816D01*
X105145652Y-35928289D01*
X105155224Y-35919652D01*
X105155260Y-35919623D01*
X105187599Y-35893314D01*
X105198114Y-35878415D01*
X105211947Y-35861993D01*
X105740749Y-35333192D01*
X105740759Y-35333184D01*
X105751127Y-35322816D01*
X105797250Y-35276691D01*
X105800319Y-35273727D01*
X105851019Y-35226378D01*
X105863677Y-35210264D01*
X108144764Y-32929178D01*
X108207077Y-32895152D01*
X108233860Y-32892273D01*
X110009929Y-32892273D01*
X110072774Y-32910726D01*
X110072853Y-32910577D01*
X110073597Y-32910967D01*
X110078050Y-32912275D01*
X110082479Y-32915629D01*
X110102983Y-32926390D01*
X110238060Y-32997283D01*
X110404361Y-33038273D01*
X110404363Y-33038273D01*
X110575637Y-33038273D01*
X110575639Y-33038273D01*
X110741940Y-32997283D01*
X110893599Y-32917687D01*
X111021802Y-32804108D01*
X111119099Y-32663150D01*
X111179835Y-32503002D01*
X111200480Y-32332973D01*
X111179835Y-32162944D01*
X111119524Y-32003916D01*
X111119100Y-32002798D01*
X111113719Y-31995002D01*
X111021802Y-31861838D01*
X110990351Y-31833975D01*
X110980190Y-31824973D01*
X115670520Y-31824973D01*
X115691164Y-31995000D01*
X115751899Y-32155147D01*
X115751900Y-32155149D01*
X115751901Y-32155150D01*
X115814228Y-32245446D01*
X115849199Y-32296109D01*
X115887649Y-32330173D01*
X115977401Y-32409687D01*
X116129060Y-32489283D01*
X116261218Y-32521856D01*
X116320155Y-32555097D01*
X116878797Y-33113739D01*
X116912820Y-33176048D01*
X116915700Y-33202831D01*
X116915700Y-43292411D01*
X116895698Y-43360532D01*
X116893396Y-43363987D01*
X116845900Y-43432796D01*
X116785164Y-43592945D01*
X116764520Y-43762973D01*
X116785164Y-43933000D01*
X116845899Y-44093147D01*
X116845900Y-44093149D01*
X116845901Y-44093150D01*
X116932592Y-44218743D01*
X116943199Y-44234109D01*
X116994966Y-44279971D01*
X117071401Y-44347687D01*
X117223060Y-44427283D01*
X117389361Y-44468273D01*
X117389363Y-44468273D01*
X117560637Y-44468273D01*
X117560639Y-44468273D01*
X117726940Y-44427283D01*
X117878599Y-44347687D01*
X118006802Y-44234108D01*
X118104099Y-44093150D01*
X118164835Y-43933002D01*
X118185480Y-43762973D01*
X118164835Y-43592944D01*
X118104099Y-43432796D01*
X118104099Y-43432795D01*
X118056604Y-43363987D01*
X118034368Y-43296562D01*
X118034300Y-43292411D01*
X118034300Y-32930692D01*
X118034373Y-32926390D01*
X118034670Y-32917687D01*
X118036599Y-32861239D01*
X118026715Y-32820682D01*
X118024307Y-32808009D01*
X118020600Y-32781044D01*
X118018623Y-32766657D01*
X118011357Y-32749930D01*
X118004514Y-32729580D01*
X118000197Y-32711863D01*
X117979737Y-32675475D01*
X117973997Y-32663919D01*
X117957369Y-32625637D01*
X117945869Y-32611503D01*
X117933778Y-32593739D01*
X117924843Y-32577847D01*
X117895323Y-32548327D01*
X117886687Y-32538757D01*
X117860341Y-32506373D01*
X117845441Y-32495855D01*
X117829009Y-32482013D01*
X117111101Y-31764105D01*
X117077075Y-31701793D01*
X117075118Y-31690220D01*
X117070835Y-31654944D01*
X117024573Y-31532960D01*
X117010100Y-31494798D01*
X116995528Y-31473687D01*
X116912802Y-31353838D01*
X116850308Y-31298473D01*
X116784598Y-31240258D01*
X116679882Y-31185300D01*
X116632940Y-31160663D01*
X116466639Y-31119673D01*
X116295361Y-31119673D01*
X116129060Y-31160663D01*
X116129058Y-31160663D01*
X116129058Y-31160664D01*
X115977401Y-31240258D01*
X115849199Y-31353836D01*
X115751899Y-31494798D01*
X115691164Y-31654945D01*
X115670520Y-31824973D01*
X110980190Y-31824973D01*
X110893598Y-31748258D01*
X110817769Y-31708460D01*
X110741940Y-31668663D01*
X110575639Y-31627673D01*
X110404361Y-31627673D01*
X110238060Y-31668663D01*
X110238058Y-31668663D01*
X110238058Y-31668664D01*
X110072853Y-31755369D01*
X110071300Y-31752410D01*
X110029238Y-31772185D01*
X110009929Y-31773673D01*
X107961690Y-31773673D01*
X107957388Y-31773600D01*
X107942977Y-31773107D01*
X107892266Y-31771375D01*
X107892265Y-31771375D01*
X107892264Y-31771375D01*
X107851709Y-31781258D01*
X107839036Y-31783666D01*
X107797682Y-31789350D01*
X107780956Y-31796615D01*
X107760596Y-31803462D01*
X107742891Y-31807776D01*
X107706496Y-31828239D01*
X107694952Y-31833972D01*
X107674074Y-31843041D01*
X107656662Y-31850605D01*
X107642521Y-31862109D01*
X107624767Y-31874192D01*
X107608872Y-31883129D01*
X107579349Y-31912652D01*
X107569777Y-31921291D01*
X107537399Y-31947633D01*
X107526885Y-31962528D01*
X107513046Y-31978955D01*
X106219556Y-33272446D01*
X106157244Y-33306471D01*
X106086429Y-33301407D01*
X106029593Y-33258860D01*
X106026777Y-33254945D01*
X105941802Y-33131838D01*
X105813599Y-33018259D01*
X105813598Y-33018258D01*
X105737769Y-32978460D01*
X105661940Y-32938663D01*
X105495639Y-32897673D01*
X105324361Y-32897673D01*
X105158060Y-32938663D01*
X105158058Y-32938663D01*
X105158058Y-32938664D01*
X105006401Y-33018258D01*
X104878199Y-33131836D01*
X104780899Y-33272798D01*
X104720164Y-33432945D01*
X104699520Y-33602972D01*
X104720164Y-33773001D01*
X104780901Y-33933151D01*
X104828395Y-34001957D01*
X104850632Y-34069382D01*
X104850700Y-34073534D01*
X104850700Y-34589113D01*
X104830698Y-34657234D01*
X104813795Y-34678208D01*
X104580234Y-34911769D01*
X104517924Y-34945793D01*
X104491141Y-34948673D01*
X100175071Y-34948673D01*
X100112225Y-34930219D01*
X100112147Y-34930369D01*
X100111402Y-34929978D01*
X100106950Y-34928671D01*
X100102520Y-34925316D01*
X99988465Y-34865457D01*
X99946940Y-34843663D01*
X99780639Y-34802673D01*
X99609361Y-34802673D01*
X99443060Y-34843663D01*
X99443058Y-34843663D01*
X99443058Y-34843664D01*
X99291401Y-34923258D01*
X99163199Y-35036836D01*
X99065899Y-35177798D01*
X99005164Y-35337943D01*
X99000884Y-35373197D01*
X98972816Y-35438410D01*
X98964899Y-35447103D01*
X98732709Y-35679295D01*
X98670397Y-35713320D01*
X98643613Y-35716200D01*
X97438859Y-35716200D01*
X97370738Y-35696198D01*
X97349764Y-35679295D01*
X92036205Y-30365735D01*
X92002179Y-30303423D01*
X91999300Y-30276640D01*
X91999300Y-28586299D01*
X92019302Y-28518178D01*
X92072958Y-28471685D01*
X92125295Y-28460299D01*
X93895578Y-28460299D01*
X93921109Y-28457338D01*
X94025525Y-28411234D01*
X94106234Y-28330525D01*
X94152338Y-28226109D01*
X94155300Y-28200579D01*
X94155299Y-26409422D01*
X94152338Y-26383891D01*
X94152337Y-26383889D01*
X94106233Y-26279473D01*
X94025526Y-26198766D01*
X93921110Y-26152662D01*
X93918002Y-26152301D01*
X93895579Y-26149700D01*
X93891932Y-26149700D01*
X93239624Y-26149700D01*
X93171503Y-26129698D01*
X93125010Y-26076042D01*
X93114906Y-26005768D01*
X93144400Y-25941188D01*
X93204126Y-25902804D01*
X93216455Y-25899849D01*
X93317517Y-25880957D01*
X93517167Y-25803612D01*
X93699206Y-25690899D01*
X93857434Y-25546655D01*
X93986464Y-25375792D01*
X94081900Y-25184130D01*
X94140494Y-24978195D01*
X94160249Y-24765000D01*
X96839751Y-24765000D01*
X96859506Y-24978197D01*
X96918099Y-25184128D01*
X97013537Y-25375794D01*
X97078051Y-25461223D01*
X97142566Y-25546655D01*
X97300794Y-25690899D01*
X97482833Y-25803612D01*
X97682483Y-25880957D01*
X97783530Y-25899846D01*
X97846814Y-25932024D01*
X97882656Y-25993309D01*
X97879675Y-26064243D01*
X97838817Y-26122305D01*
X97773055Y-26149060D01*
X97760376Y-26149700D01*
X97108058Y-26149700D01*
X97108040Y-26149700D01*
X97104422Y-26149701D01*
X97100812Y-26150119D01*
X97100806Y-26150120D01*
X97078890Y-26152661D01*
X96974473Y-26198766D01*
X96893766Y-26279473D01*
X96847662Y-26383889D01*
X96847662Y-26383890D01*
X96847662Y-26383891D01*
X96844700Y-26409421D01*
X96844700Y-26413066D01*
X96844700Y-26413067D01*
X96844700Y-28196941D01*
X96844700Y-28196958D01*
X96844701Y-28200578D01*
X96845119Y-28204188D01*
X96845120Y-28204193D01*
X96847661Y-28226109D01*
X96893766Y-28330526D01*
X96974473Y-28411233D01*
X96974474Y-28411233D01*
X96974475Y-28411234D01*
X97078891Y-28457338D01*
X97104421Y-28460300D01*
X98895578Y-28460299D01*
X98921109Y-28457338D01*
X99025525Y-28411234D01*
X99106234Y-28330525D01*
X99152338Y-28226109D01*
X99155300Y-28200579D01*
X99155299Y-26409422D01*
X99152338Y-26383891D01*
X99152337Y-26383889D01*
X99106233Y-26279473D01*
X99025526Y-26198766D01*
X98921110Y-26152662D01*
X98918002Y-26152301D01*
X98895579Y-26149700D01*
X98891932Y-26149700D01*
X98239624Y-26149700D01*
X98171503Y-26129698D01*
X98125010Y-26076042D01*
X98114906Y-26005768D01*
X98144400Y-25941188D01*
X98204126Y-25902804D01*
X98216455Y-25899849D01*
X98317517Y-25880957D01*
X98517167Y-25803612D01*
X98699206Y-25690899D01*
X98857434Y-25546655D01*
X98986464Y-25375792D01*
X99081900Y-25184130D01*
X99140494Y-24978195D01*
X99160249Y-24765000D01*
X101839751Y-24765000D01*
X101859506Y-24978197D01*
X101918099Y-25184128D01*
X102013537Y-25375794D01*
X102078050Y-25461223D01*
X102142566Y-25546655D01*
X102300794Y-25690899D01*
X102482833Y-25803612D01*
X102682483Y-25880957D01*
X102783530Y-25899846D01*
X102846814Y-25932024D01*
X102882656Y-25993309D01*
X102879675Y-26064243D01*
X102838817Y-26122305D01*
X102773055Y-26149060D01*
X102760376Y-26149700D01*
X102108058Y-26149700D01*
X102108040Y-26149700D01*
X102104422Y-26149701D01*
X102100812Y-26150119D01*
X102100806Y-26150120D01*
X102078890Y-26152661D01*
X101974473Y-26198766D01*
X101893766Y-26279473D01*
X101847662Y-26383889D01*
X101847662Y-26383890D01*
X101847662Y-26383891D01*
X101844700Y-26409421D01*
X101844700Y-26413066D01*
X101844700Y-26413067D01*
X101844700Y-28196941D01*
X101844700Y-28196958D01*
X101844701Y-28200578D01*
X101845119Y-28204188D01*
X101845120Y-28204193D01*
X101847661Y-28226109D01*
X101893766Y-28330526D01*
X101974473Y-28411233D01*
X101974474Y-28411233D01*
X101974475Y-28411234D01*
X102078891Y-28457338D01*
X102104421Y-28460300D01*
X103895578Y-28460299D01*
X103921109Y-28457338D01*
X104025525Y-28411234D01*
X104106234Y-28330525D01*
X104152338Y-28226109D01*
X104155300Y-28200579D01*
X104155299Y-26409422D01*
X104152338Y-26383891D01*
X104152337Y-26383889D01*
X104106233Y-26279473D01*
X104025526Y-26198766D01*
X103921110Y-26152662D01*
X103918002Y-26152301D01*
X103895579Y-26149700D01*
X103891932Y-26149700D01*
X103239624Y-26149700D01*
X103171503Y-26129698D01*
X103125010Y-26076042D01*
X103114906Y-26005768D01*
X103144400Y-25941188D01*
X103204126Y-25902804D01*
X103216455Y-25899849D01*
X103317517Y-25880957D01*
X103517167Y-25803612D01*
X103699206Y-25690899D01*
X103857434Y-25546655D01*
X103986464Y-25375792D01*
X104081900Y-25184130D01*
X104140494Y-24978195D01*
X104160249Y-24765000D01*
X106789751Y-24765000D01*
X106809506Y-24978197D01*
X106868099Y-25184128D01*
X106963537Y-25375794D01*
X107028051Y-25461223D01*
X107092566Y-25546655D01*
X107250794Y-25690899D01*
X107432833Y-25803612D01*
X107632483Y-25880957D01*
X107733530Y-25899846D01*
X107796814Y-25932024D01*
X107832656Y-25993309D01*
X107829675Y-26064243D01*
X107788817Y-26122305D01*
X107723055Y-26149060D01*
X107710376Y-26149700D01*
X107058058Y-26149700D01*
X107058040Y-26149700D01*
X107054422Y-26149701D01*
X107050812Y-26150119D01*
X107050806Y-26150120D01*
X107028890Y-26152661D01*
X106924473Y-26198766D01*
X106843766Y-26279473D01*
X106797662Y-26383889D01*
X106797662Y-26383890D01*
X106797662Y-26383891D01*
X106794700Y-26409421D01*
X106794700Y-26413066D01*
X106794700Y-26413067D01*
X106794700Y-28196941D01*
X106794700Y-28196958D01*
X106794701Y-28200578D01*
X106795119Y-28204188D01*
X106795120Y-28204193D01*
X106797661Y-28226109D01*
X106843766Y-28330526D01*
X106924473Y-28411233D01*
X106924474Y-28411233D01*
X106924475Y-28411234D01*
X107028891Y-28457338D01*
X107054421Y-28460300D01*
X108845578Y-28460299D01*
X108871109Y-28457338D01*
X108975525Y-28411234D01*
X109056234Y-28330525D01*
X109102338Y-28226109D01*
X109105300Y-28200579D01*
X109105299Y-26409422D01*
X109102338Y-26383891D01*
X109102337Y-26383889D01*
X109056233Y-26279473D01*
X108975526Y-26198766D01*
X108871110Y-26152662D01*
X108868002Y-26152301D01*
X108845579Y-26149700D01*
X108841932Y-26149700D01*
X108189624Y-26149700D01*
X108121503Y-26129698D01*
X108075010Y-26076042D01*
X108064906Y-26005768D01*
X108094400Y-25941188D01*
X108154126Y-25902804D01*
X108166455Y-25899849D01*
X108267517Y-25880957D01*
X108467167Y-25803612D01*
X108649206Y-25690899D01*
X108807434Y-25546655D01*
X108936464Y-25375792D01*
X109031900Y-25184130D01*
X109065009Y-25067766D01*
X113145787Y-25067766D01*
X113175413Y-25337015D01*
X113175414Y-25337018D01*
X113243928Y-25599088D01*
X113310541Y-25755842D01*
X113340285Y-25825836D01*
X113349870Y-25848390D01*
X113490982Y-26079610D01*
X113664255Y-26287820D01*
X113664256Y-26287821D01*
X113664258Y-26287823D01*
X113865993Y-26468578D01*
X113865995Y-26468579D01*
X113865998Y-26468582D01*
X114091910Y-26618044D01*
X114192356Y-26665131D01*
X114337171Y-26733018D01*
X114337173Y-26733018D01*
X114337176Y-26733020D01*
X114596569Y-26811060D01*
X114596572Y-26811060D01*
X114596574Y-26811061D01*
X114864558Y-26850500D01*
X114864561Y-26850500D01*
X115065330Y-26850500D01*
X115067631Y-26850500D01*
X115270156Y-26835677D01*
X115534553Y-26776780D01*
X115787558Y-26680014D01*
X116023777Y-26547441D01*
X116238177Y-26381888D01*
X116426186Y-26186881D01*
X116583799Y-25966579D01*
X116707656Y-25725675D01*
X116795118Y-25469305D01*
X116799777Y-25444085D01*
X116826917Y-25297147D01*
X116844319Y-25202933D01*
X116854212Y-24932235D01*
X116824586Y-24662982D01*
X116756072Y-24400912D01*
X116650130Y-24151610D01*
X116509018Y-23920390D01*
X116335745Y-23712180D01*
X116230759Y-23618112D01*
X116134006Y-23531421D01*
X116134003Y-23531419D01*
X116134002Y-23531418D01*
X115908090Y-23381956D01*
X115908086Y-23381954D01*
X115662828Y-23266981D01*
X115403425Y-23188938D01*
X115135442Y-23149500D01*
X115135439Y-23149500D01*
X114932369Y-23149500D01*
X114930099Y-23149666D01*
X114930075Y-23149667D01*
X114729839Y-23164323D01*
X114465449Y-23223219D01*
X114212441Y-23319985D01*
X113976225Y-23452557D01*
X113761820Y-23618114D01*
X113573815Y-23813117D01*
X113416200Y-24033422D01*
X113292342Y-24274328D01*
X113204882Y-24530693D01*
X113155681Y-24797065D01*
X113145787Y-25067766D01*
X109065009Y-25067766D01*
X109090494Y-24978195D01*
X109110249Y-24765000D01*
X109090494Y-24551805D01*
X109031900Y-24345870D01*
X108936464Y-24154208D01*
X108807434Y-23983345D01*
X108649206Y-23839101D01*
X108467167Y-23726388D01*
X108267517Y-23649043D01*
X108057054Y-23609700D01*
X107842946Y-23609700D01*
X107685098Y-23639207D01*
X107632482Y-23649043D01*
X107432833Y-23726388D01*
X107250793Y-23839101D01*
X107092565Y-23983346D01*
X106963537Y-24154205D01*
X106868099Y-24345871D01*
X106809506Y-24551802D01*
X106789751Y-24765000D01*
X104160249Y-24765000D01*
X104140494Y-24551805D01*
X104081900Y-24345870D01*
X103986464Y-24154208D01*
X103857434Y-23983345D01*
X103699206Y-23839101D01*
X103517167Y-23726388D01*
X103317517Y-23649043D01*
X103107054Y-23609700D01*
X102892946Y-23609700D01*
X102735098Y-23639207D01*
X102682482Y-23649043D01*
X102482833Y-23726388D01*
X102300793Y-23839101D01*
X102142565Y-23983346D01*
X102013537Y-24154205D01*
X101918099Y-24345871D01*
X101859506Y-24551802D01*
X101839751Y-24765000D01*
X99160249Y-24765000D01*
X99140494Y-24551805D01*
X99081900Y-24345870D01*
X98986464Y-24154208D01*
X98857434Y-23983345D01*
X98699206Y-23839101D01*
X98517167Y-23726388D01*
X98317517Y-23649043D01*
X98107054Y-23609700D01*
X97892946Y-23609700D01*
X97735098Y-23639207D01*
X97682482Y-23649043D01*
X97482833Y-23726388D01*
X97300793Y-23839101D01*
X97142565Y-23983346D01*
X97013537Y-24154205D01*
X96918099Y-24345871D01*
X96859506Y-24551802D01*
X96839751Y-24765000D01*
X94160249Y-24765000D01*
X94140494Y-24551805D01*
X94081900Y-24345870D01*
X93986464Y-24154208D01*
X93857434Y-23983345D01*
X93699206Y-23839101D01*
X93517167Y-23726388D01*
X93317517Y-23649043D01*
X93107054Y-23609700D01*
X92892946Y-23609700D01*
X92735098Y-23639207D01*
X92682482Y-23649043D01*
X92482833Y-23726388D01*
X92300793Y-23839101D01*
X92142565Y-23983346D01*
X92013537Y-24154205D01*
X91918099Y-24345871D01*
X91859506Y-24551802D01*
X91839751Y-24765000D01*
X91859506Y-24978197D01*
X91918099Y-25184128D01*
X92013537Y-25375794D01*
X92078050Y-25461223D01*
X92142566Y-25546655D01*
X92300794Y-25690899D01*
X92482833Y-25803612D01*
X92682483Y-25880957D01*
X92783530Y-25899846D01*
X92846814Y-25932024D01*
X92882656Y-25993309D01*
X92879675Y-26064243D01*
X92838817Y-26122305D01*
X92773055Y-26149060D01*
X92760376Y-26149700D01*
X92108058Y-26149700D01*
X92108040Y-26149700D01*
X92104422Y-26149701D01*
X92100812Y-26150119D01*
X92100806Y-26150120D01*
X92078890Y-26152661D01*
X91974473Y-26198766D01*
X91893766Y-26279473D01*
X91847662Y-26383889D01*
X91847662Y-26383890D01*
X91847662Y-26383891D01*
X91844700Y-26409421D01*
X91844700Y-26413066D01*
X91844700Y-26413067D01*
X91844700Y-26614540D01*
X91824698Y-26682661D01*
X91771042Y-26729154D01*
X91700768Y-26739258D01*
X91636188Y-26709764D01*
X91629605Y-26703635D01*
X90573773Y-25647804D01*
X90570783Y-25644711D01*
X90558238Y-25631279D01*
X90526286Y-25597066D01*
X90526285Y-25597065D01*
X90490613Y-25575372D01*
X90479948Y-25568113D01*
X90475923Y-25565061D01*
X90446696Y-25542897D01*
X90446694Y-25542896D01*
X90429732Y-25536206D01*
X90410495Y-25526651D01*
X90394921Y-25517180D01*
X90354726Y-25505918D01*
X90342501Y-25501807D01*
X90303666Y-25486493D01*
X90285534Y-25484629D01*
X90264432Y-25480619D01*
X90246874Y-25475700D01*
X90205128Y-25475700D01*
X90192241Y-25475039D01*
X90150727Y-25470770D01*
X90135467Y-25473402D01*
X90132763Y-25473868D01*
X90111355Y-25475700D01*
X87641690Y-25475700D01*
X87637388Y-25475627D01*
X87620178Y-25475039D01*
X87572266Y-25473402D01*
X87572265Y-25473402D01*
X87572264Y-25473402D01*
X87531709Y-25483285D01*
X87519036Y-25485693D01*
X87477682Y-25491377D01*
X87460956Y-25498642D01*
X87440596Y-25505489D01*
X87422891Y-25509803D01*
X87386496Y-25530266D01*
X87374952Y-25535999D01*
X87354313Y-25544965D01*
X87336662Y-25552632D01*
X87322521Y-25564136D01*
X87304767Y-25576219D01*
X87288872Y-25585156D01*
X87259349Y-25614679D01*
X87249777Y-25623318D01*
X87217397Y-25649662D01*
X87206886Y-25664552D01*
X87193048Y-25680979D01*
X86812420Y-26061607D01*
X86750108Y-26095633D01*
X86679293Y-26090568D01*
X86622457Y-26048021D01*
X86605513Y-26017192D01*
X86568274Y-25918999D01*
X86568273Y-25918997D01*
X86470976Y-25778039D01*
X86444144Y-25754268D01*
X86342772Y-25664459D01*
X86256620Y-25619244D01*
X86191114Y-25584864D01*
X86024813Y-25543874D01*
X85853535Y-25543874D01*
X85687234Y-25584864D01*
X85687232Y-25584864D01*
X85687232Y-25584865D01*
X85535575Y-25664459D01*
X85407373Y-25778037D01*
X85310073Y-25918999D01*
X85268212Y-26029380D01*
X85225354Y-26085981D01*
X85158698Y-26110426D01*
X85150400Y-26110700D01*
X84696367Y-26110700D01*
X84628246Y-26090698D01*
X84607272Y-26073796D01*
X84290837Y-25757362D01*
X84287847Y-25754268D01*
X84243363Y-25706637D01*
X84207691Y-25684944D01*
X84197026Y-25677685D01*
X84189889Y-25672273D01*
X84163774Y-25652469D01*
X84163772Y-25652468D01*
X84146810Y-25645778D01*
X84127573Y-25636223D01*
X84111999Y-25626752D01*
X84071804Y-25615490D01*
X84059579Y-25611379D01*
X84020744Y-25596065D01*
X84002612Y-25594201D01*
X83981510Y-25590191D01*
X83963952Y-25585272D01*
X83922206Y-25585272D01*
X83909319Y-25584611D01*
X83867805Y-25580342D01*
X83852551Y-25582973D01*
X83849841Y-25583440D01*
X83828433Y-25585272D01*
X83238032Y-25585272D01*
X83169911Y-25565270D01*
X83123418Y-25511614D01*
X83112951Y-25444085D01*
X83125750Y-25338672D01*
X83109269Y-25202934D01*
X83105105Y-25168643D01*
X83044369Y-25008495D01*
X82947072Y-24867537D01*
X82818869Y-24753958D01*
X82818868Y-24753957D01*
X82743039Y-24714160D01*
X82667210Y-24674362D01*
X82500909Y-24633372D01*
X82500907Y-24633372D01*
X82455178Y-24633372D01*
X82421163Y-24628694D01*
X82418274Y-24627884D01*
X82406069Y-24623778D01*
X82367239Y-24608466D01*
X82349105Y-24606602D01*
X82328003Y-24602592D01*
X82310445Y-24597673D01*
X82268699Y-24597673D01*
X82255812Y-24597012D01*
X82214298Y-24592743D01*
X82199027Y-24595376D01*
X82196334Y-24595841D01*
X82174926Y-24597673D01*
X77869460Y-24597673D01*
X77801339Y-24577671D01*
X77754846Y-24524015D01*
X77744742Y-24453741D01*
X77774236Y-24389161D01*
X77780364Y-24382578D01*
X77889670Y-24273271D01*
X77917009Y-24252538D01*
X78048127Y-24178816D01*
X78935082Y-23291859D01*
X78997393Y-23257836D01*
X79047327Y-23257102D01*
X79130264Y-23272606D01*
X79160577Y-23278273D01*
X79160578Y-23278273D01*
X79365418Y-23278273D01*
X79365420Y-23278273D01*
X79566774Y-23240633D01*
X79757784Y-23166636D01*
X79931945Y-23058800D01*
X80083325Y-22920799D01*
X80162450Y-22816020D01*
X80219462Y-22773714D01*
X80290299Y-22768946D01*
X80352468Y-22803232D01*
X80363545Y-22816016D01*
X80442673Y-22920799D01*
X80594053Y-23058800D01*
X80594055Y-23058801D01*
X80594056Y-23058802D01*
X80768210Y-23166634D01*
X80768212Y-23166634D01*
X80768214Y-23166636D01*
X80959224Y-23240633D01*
X81160578Y-23278273D01*
X81160580Y-23278273D01*
X81365418Y-23278273D01*
X81365420Y-23278273D01*
X81566774Y-23240633D01*
X81757784Y-23166636D01*
X81931945Y-23058800D01*
X82083325Y-22920799D01*
X82162450Y-22816020D01*
X82219462Y-22773714D01*
X82290299Y-22768946D01*
X82352468Y-22803232D01*
X82363545Y-22816016D01*
X82442673Y-22920799D01*
X82594053Y-23058800D01*
X82594055Y-23058801D01*
X82594056Y-23058802D01*
X82768210Y-23166634D01*
X82768212Y-23166634D01*
X82768214Y-23166636D01*
X82959224Y-23240633D01*
X83160578Y-23278273D01*
X83160580Y-23278273D01*
X83365418Y-23278273D01*
X83365420Y-23278273D01*
X83566774Y-23240633D01*
X83757784Y-23166636D01*
X83931945Y-23058800D01*
X84083325Y-22920799D01*
X84162450Y-22816020D01*
X84219462Y-22773714D01*
X84290299Y-22768946D01*
X84352468Y-22803232D01*
X84363545Y-22816016D01*
X84442673Y-22920799D01*
X84594053Y-23058800D01*
X84594055Y-23058801D01*
X84594056Y-23058802D01*
X84768210Y-23166634D01*
X84768212Y-23166634D01*
X84768214Y-23166636D01*
X84959224Y-23240633D01*
X85160578Y-23278273D01*
X85160580Y-23278273D01*
X85365418Y-23278273D01*
X85365420Y-23278273D01*
X85566774Y-23240633D01*
X85757784Y-23166636D01*
X85931945Y-23058800D01*
X86083325Y-22920799D01*
X86162450Y-22816020D01*
X86219462Y-22773714D01*
X86290299Y-22768946D01*
X86352468Y-22803232D01*
X86363545Y-22816016D01*
X86442673Y-22920799D01*
X86594053Y-23058800D01*
X86594055Y-23058801D01*
X86594056Y-23058802D01*
X86768210Y-23166634D01*
X86768212Y-23166634D01*
X86768214Y-23166636D01*
X86959224Y-23240633D01*
X87160578Y-23278273D01*
X87160580Y-23278273D01*
X87365418Y-23278273D01*
X87365420Y-23278273D01*
X87566774Y-23240633D01*
X87757784Y-23166636D01*
X87931945Y-23058800D01*
X88083325Y-22920799D01*
X88206770Y-22757331D01*
X88298076Y-22573964D01*
X88354134Y-22376941D01*
X88373034Y-22172973D01*
X88363733Y-22072599D01*
X91956713Y-22072599D01*
X91956714Y-22072600D01*
X92523640Y-22072600D01*
X92500000Y-22153111D01*
X92500000Y-22296889D01*
X92523640Y-22377400D01*
X91956714Y-22377400D01*
X91962038Y-22431464D01*
X92022261Y-22629990D01*
X92120058Y-22812958D01*
X92251671Y-22973328D01*
X92412041Y-23104941D01*
X92595005Y-23202736D01*
X92793542Y-23262961D01*
X92847599Y-23268285D01*
X92847600Y-23268285D01*
X92847600Y-22705074D01*
X92857685Y-22709680D01*
X92964237Y-22725000D01*
X93035763Y-22725000D01*
X93142315Y-22709680D01*
X93152400Y-22705074D01*
X93152400Y-23268285D01*
X93206457Y-23262961D01*
X93404994Y-23202736D01*
X93587958Y-23104941D01*
X93748328Y-22973328D01*
X93879941Y-22812958D01*
X93977738Y-22629990D01*
X94037961Y-22431464D01*
X94043286Y-22377400D01*
X93476360Y-22377400D01*
X93500000Y-22296889D01*
X93500000Y-22153111D01*
X93476360Y-22072600D01*
X94043286Y-22072600D01*
X94043286Y-22072599D01*
X96956713Y-22072599D01*
X96956714Y-22072600D01*
X97523640Y-22072600D01*
X97500000Y-22153111D01*
X97500000Y-22296889D01*
X97523640Y-22377400D01*
X96956714Y-22377400D01*
X96962038Y-22431464D01*
X97022261Y-22629990D01*
X97120058Y-22812958D01*
X97251671Y-22973328D01*
X97412041Y-23104941D01*
X97595005Y-23202736D01*
X97793542Y-23262961D01*
X97847599Y-23268285D01*
X97847600Y-23268284D01*
X97847600Y-22705074D01*
X97857685Y-22709680D01*
X97964237Y-22725000D01*
X98035763Y-22725000D01*
X98142315Y-22709680D01*
X98152400Y-22705074D01*
X98152400Y-23268285D01*
X98206457Y-23262961D01*
X98404994Y-23202736D01*
X98587958Y-23104941D01*
X98748328Y-22973328D01*
X98879941Y-22812958D01*
X98977738Y-22629990D01*
X99037961Y-22431464D01*
X99043286Y-22377400D01*
X98476360Y-22377400D01*
X98500000Y-22296889D01*
X98500000Y-22153111D01*
X98476360Y-22072600D01*
X99043286Y-22072600D01*
X99043286Y-22072599D01*
X101956713Y-22072599D01*
X101956714Y-22072600D01*
X102523640Y-22072600D01*
X102500000Y-22153111D01*
X102500000Y-22296889D01*
X102523640Y-22377400D01*
X101956714Y-22377400D01*
X101962038Y-22431464D01*
X102022261Y-22629990D01*
X102120058Y-22812958D01*
X102251671Y-22973328D01*
X102412041Y-23104941D01*
X102595005Y-23202736D01*
X102793542Y-23262961D01*
X102847599Y-23268285D01*
X102847600Y-23268285D01*
X102847600Y-22705074D01*
X102857685Y-22709680D01*
X102964237Y-22725000D01*
X103035763Y-22725000D01*
X103142315Y-22709680D01*
X103152400Y-22705074D01*
X103152400Y-23268285D01*
X103206457Y-23262961D01*
X103404994Y-23202736D01*
X103587958Y-23104941D01*
X103748328Y-22973328D01*
X103879941Y-22812958D01*
X103977738Y-22629990D01*
X104037961Y-22431464D01*
X104043286Y-22377400D01*
X103476360Y-22377400D01*
X103500000Y-22296889D01*
X103500000Y-22153111D01*
X103476360Y-22072600D01*
X104043286Y-22072600D01*
X104043286Y-22072599D01*
X106906713Y-22072599D01*
X106906714Y-22072600D01*
X107473640Y-22072600D01*
X107450000Y-22153111D01*
X107450000Y-22296889D01*
X107473640Y-22377400D01*
X106906714Y-22377400D01*
X106912038Y-22431464D01*
X106972261Y-22629990D01*
X107070058Y-22812958D01*
X107201671Y-22973328D01*
X107362041Y-23104941D01*
X107545005Y-23202736D01*
X107743542Y-23262961D01*
X107797599Y-23268285D01*
X107797600Y-23268285D01*
X107797600Y-22705074D01*
X107807685Y-22709680D01*
X107914237Y-22725000D01*
X107985763Y-22725000D01*
X108092315Y-22709680D01*
X108102400Y-22705074D01*
X108102400Y-23268285D01*
X108156457Y-23262961D01*
X108354994Y-23202736D01*
X108537958Y-23104941D01*
X108698328Y-22973328D01*
X108829941Y-22812958D01*
X108927738Y-22629990D01*
X108987961Y-22431464D01*
X108993286Y-22377400D01*
X108426360Y-22377400D01*
X108450000Y-22296889D01*
X108450000Y-22153111D01*
X108426360Y-22072600D01*
X108993286Y-22072600D01*
X108993286Y-22072599D01*
X108987961Y-22018535D01*
X108927738Y-21820009D01*
X108829941Y-21637041D01*
X108698328Y-21476671D01*
X108537958Y-21345058D01*
X108354990Y-21247261D01*
X108156464Y-21187038D01*
X108102400Y-21181713D01*
X108102400Y-21744925D01*
X108092315Y-21740320D01*
X107985763Y-21725000D01*
X107914237Y-21725000D01*
X107807685Y-21740320D01*
X107797600Y-21744925D01*
X107797600Y-21181714D01*
X107797599Y-21181713D01*
X107743535Y-21187038D01*
X107545009Y-21247261D01*
X107362041Y-21345058D01*
X107201671Y-21476671D01*
X107070058Y-21637041D01*
X106972261Y-21820009D01*
X106912038Y-22018535D01*
X106906713Y-22072599D01*
X104043286Y-22072599D01*
X104037961Y-22018535D01*
X103977738Y-21820009D01*
X103879941Y-21637041D01*
X103748328Y-21476671D01*
X103587958Y-21345058D01*
X103404990Y-21247261D01*
X103206464Y-21187038D01*
X103152400Y-21181713D01*
X103152400Y-21744925D01*
X103142315Y-21740320D01*
X103035763Y-21725000D01*
X102964237Y-21725000D01*
X102857685Y-21740320D01*
X102847600Y-21744925D01*
X102847600Y-21181714D01*
X102847599Y-21181713D01*
X102793535Y-21187038D01*
X102595009Y-21247261D01*
X102412041Y-21345058D01*
X102251671Y-21476671D01*
X102120058Y-21637041D01*
X102022261Y-21820009D01*
X101962038Y-22018535D01*
X101956713Y-22072599D01*
X99043286Y-22072599D01*
X99037961Y-22018535D01*
X98977738Y-21820009D01*
X98879941Y-21637041D01*
X98748328Y-21476671D01*
X98587958Y-21345058D01*
X98404990Y-21247261D01*
X98206464Y-21187038D01*
X98152400Y-21181713D01*
X98152400Y-21744925D01*
X98142315Y-21740320D01*
X98035763Y-21725000D01*
X97964237Y-21725000D01*
X97857685Y-21740320D01*
X97847600Y-21744925D01*
X97847600Y-21181713D01*
X97793535Y-21187038D01*
X97595009Y-21247261D01*
X97412041Y-21345058D01*
X97251671Y-21476671D01*
X97120058Y-21637041D01*
X97022261Y-21820009D01*
X96962038Y-22018535D01*
X96956713Y-22072599D01*
X94043286Y-22072599D01*
X94037961Y-22018535D01*
X93977738Y-21820009D01*
X93879941Y-21637041D01*
X93748328Y-21476671D01*
X93587958Y-21345058D01*
X93404990Y-21247261D01*
X93206464Y-21187038D01*
X93152400Y-21181713D01*
X93152400Y-21744925D01*
X93142315Y-21740320D01*
X93035763Y-21725000D01*
X92964237Y-21725000D01*
X92857685Y-21740320D01*
X92847600Y-21744925D01*
X92847600Y-21181714D01*
X92847599Y-21181713D01*
X92793535Y-21187038D01*
X92595009Y-21247261D01*
X92412041Y-21345058D01*
X92251671Y-21476671D01*
X92120058Y-21637041D01*
X92022261Y-21820009D01*
X91962038Y-22018535D01*
X91956713Y-22072599D01*
X88363733Y-22072599D01*
X88354134Y-21969005D01*
X88298076Y-21771982D01*
X88288905Y-21753564D01*
X88206771Y-21588616D01*
X88162449Y-21529924D01*
X88083325Y-21425147D01*
X87931945Y-21287146D01*
X87931942Y-21287144D01*
X87931941Y-21287143D01*
X87757787Y-21179311D01*
X87566774Y-21105313D01*
X87365420Y-21067673D01*
X87160578Y-21067673D01*
X87074987Y-21083673D01*
X86959223Y-21105313D01*
X86768210Y-21179311D01*
X86594056Y-21287143D01*
X86442672Y-21425148D01*
X86363549Y-21529924D01*
X86306535Y-21572232D01*
X86235699Y-21576999D01*
X86173530Y-21542712D01*
X86162449Y-21529924D01*
X86141219Y-21501811D01*
X86083325Y-21425147D01*
X85931945Y-21287146D01*
X85931942Y-21287144D01*
X85931941Y-21287143D01*
X85757787Y-21179311D01*
X85566774Y-21105313D01*
X85365420Y-21067673D01*
X85160578Y-21067673D01*
X85074987Y-21083673D01*
X84959223Y-21105313D01*
X84768210Y-21179311D01*
X84594056Y-21287143D01*
X84442672Y-21425148D01*
X84363549Y-21529924D01*
X84306535Y-21572232D01*
X84235699Y-21576999D01*
X84173530Y-21542712D01*
X84162449Y-21529924D01*
X84141219Y-21501811D01*
X84083325Y-21425147D01*
X83931945Y-21287146D01*
X83931942Y-21287144D01*
X83931941Y-21287143D01*
X83757787Y-21179311D01*
X83566774Y-21105313D01*
X83365420Y-21067673D01*
X83160578Y-21067673D01*
X83074987Y-21083673D01*
X82959223Y-21105313D01*
X82768210Y-21179311D01*
X82594056Y-21287143D01*
X82442672Y-21425148D01*
X82363549Y-21529924D01*
X82306535Y-21572232D01*
X82235699Y-21576999D01*
X82173530Y-21542712D01*
X82162449Y-21529924D01*
X82141219Y-21501811D01*
X82083325Y-21425147D01*
X81931945Y-21287146D01*
X81931942Y-21287144D01*
X81931941Y-21287143D01*
X81757787Y-21179311D01*
X81566774Y-21105313D01*
X81365420Y-21067673D01*
X81160578Y-21067673D01*
X81074987Y-21083673D01*
X80959223Y-21105313D01*
X80768210Y-21179311D01*
X80594056Y-21287143D01*
X80442672Y-21425148D01*
X80363549Y-21529924D01*
X80306535Y-21572232D01*
X80235699Y-21576999D01*
X80173530Y-21542712D01*
X80162449Y-21529924D01*
X80141219Y-21501811D01*
X80083325Y-21425147D01*
X79931945Y-21287146D01*
X79931942Y-21287144D01*
X79931941Y-21287143D01*
X79757787Y-21179311D01*
X79566774Y-21105313D01*
X79365420Y-21067673D01*
X79160578Y-21067673D01*
X79074987Y-21083673D01*
X78959223Y-21105313D01*
X78768210Y-21179311D01*
X78594056Y-21287143D01*
X78442672Y-21425148D01*
X78363549Y-21529924D01*
X78306535Y-21572232D01*
X78235699Y-21576999D01*
X78173530Y-21542712D01*
X78162449Y-21529924D01*
X78141219Y-21501811D01*
X78083325Y-21425147D01*
X77931945Y-21287146D01*
X77931942Y-21287144D01*
X77931941Y-21287143D01*
X77757787Y-21179311D01*
X77566774Y-21105313D01*
X77365420Y-21067673D01*
X77160578Y-21067673D01*
X77074987Y-21083673D01*
X76959223Y-21105313D01*
X76768210Y-21179311D01*
X76594056Y-21287143D01*
X76442672Y-21425148D01*
X76319226Y-21588616D01*
X76227922Y-21771979D01*
X76193147Y-21894202D01*
X76171864Y-21969005D01*
X76152964Y-22172973D01*
X76171864Y-22376941D01*
X76171864Y-22376944D01*
X76171865Y-22376945D01*
X76227922Y-22573966D01*
X76319226Y-22757329D01*
X76365973Y-22819232D01*
X76442673Y-22920799D01*
X76594053Y-23058800D01*
X76594055Y-23058801D01*
X76594056Y-23058802D01*
X76768210Y-23166634D01*
X76768212Y-23166634D01*
X76768214Y-23166636D01*
X76959224Y-23240633D01*
X77045378Y-23256738D01*
X77108659Y-23288914D01*
X77144502Y-23350199D01*
X77141521Y-23421133D01*
X77111317Y-23469686D01*
X77047207Y-23533796D01*
X76984898Y-23567820D01*
X76958114Y-23570700D01*
X63656433Y-23570700D01*
X63588312Y-23550698D01*
X63541819Y-23497042D01*
X63531715Y-23426768D01*
X63561209Y-23362188D01*
X63567337Y-23355605D01*
X63587613Y-23335329D01*
X63615082Y-23307859D01*
X63677391Y-23273836D01*
X63727327Y-23273102D01*
X63810264Y-23288606D01*
X63840577Y-23294273D01*
X63840578Y-23294273D01*
X64045418Y-23294273D01*
X64045420Y-23294273D01*
X64246774Y-23256633D01*
X64437784Y-23182636D01*
X64611945Y-23074800D01*
X64763325Y-22936799D01*
X64842450Y-22832020D01*
X64899462Y-22789714D01*
X64970299Y-22784946D01*
X65032468Y-22819232D01*
X65043545Y-22832016D01*
X65122673Y-22936799D01*
X65274053Y-23074800D01*
X65274055Y-23074801D01*
X65274056Y-23074802D01*
X65448210Y-23182634D01*
X65448212Y-23182634D01*
X65448214Y-23182636D01*
X65639224Y-23256633D01*
X65840578Y-23294273D01*
X65840580Y-23294273D01*
X66045418Y-23294273D01*
X66045420Y-23294273D01*
X66246774Y-23256633D01*
X66437784Y-23182636D01*
X66611945Y-23074800D01*
X66763325Y-22936799D01*
X66842450Y-22832020D01*
X66899462Y-22789714D01*
X66970299Y-22784946D01*
X67032468Y-22819232D01*
X67043545Y-22832016D01*
X67122673Y-22936799D01*
X67274053Y-23074800D01*
X67274055Y-23074801D01*
X67274056Y-23074802D01*
X67448210Y-23182634D01*
X67448212Y-23182634D01*
X67448214Y-23182636D01*
X67639224Y-23256633D01*
X67840578Y-23294273D01*
X67840580Y-23294273D01*
X68045418Y-23294273D01*
X68045420Y-23294273D01*
X68246774Y-23256633D01*
X68437784Y-23182636D01*
X68611945Y-23074800D01*
X68763325Y-22936799D01*
X68842450Y-22832020D01*
X68899462Y-22789714D01*
X68970299Y-22784946D01*
X69032468Y-22819232D01*
X69043545Y-22832016D01*
X69122673Y-22936799D01*
X69274053Y-23074800D01*
X69274055Y-23074801D01*
X69274056Y-23074802D01*
X69448210Y-23182634D01*
X69448212Y-23182634D01*
X69448214Y-23182636D01*
X69639224Y-23256633D01*
X69840578Y-23294273D01*
X69840580Y-23294273D01*
X70045418Y-23294273D01*
X70045420Y-23294273D01*
X70246774Y-23256633D01*
X70437784Y-23182636D01*
X70611945Y-23074800D01*
X70763325Y-22936799D01*
X70842450Y-22832020D01*
X70899462Y-22789714D01*
X70970299Y-22784946D01*
X71032468Y-22819232D01*
X71043545Y-22832016D01*
X71122673Y-22936799D01*
X71274053Y-23074800D01*
X71274055Y-23074801D01*
X71274056Y-23074802D01*
X71448210Y-23182634D01*
X71448212Y-23182634D01*
X71448214Y-23182636D01*
X71639224Y-23256633D01*
X71840578Y-23294273D01*
X71840580Y-23294273D01*
X72045418Y-23294273D01*
X72045420Y-23294273D01*
X72246774Y-23256633D01*
X72437784Y-23182636D01*
X72611945Y-23074800D01*
X72763325Y-22936799D01*
X72886770Y-22773331D01*
X72978076Y-22589964D01*
X73034134Y-22392941D01*
X73053034Y-22188973D01*
X73034134Y-21985005D01*
X72978076Y-21787982D01*
X72970109Y-21771982D01*
X72886771Y-21604616D01*
X72830366Y-21529924D01*
X72763325Y-21441147D01*
X72611945Y-21303146D01*
X72611942Y-21303144D01*
X72611941Y-21303143D01*
X72437787Y-21195311D01*
X72246774Y-21121313D01*
X72238145Y-21119700D01*
X72045420Y-21083673D01*
X71840578Y-21083673D01*
X71706342Y-21108766D01*
X71639223Y-21121313D01*
X71448210Y-21195311D01*
X71274056Y-21303143D01*
X71122672Y-21441148D01*
X71043549Y-21545924D01*
X70986535Y-21588232D01*
X70915699Y-21592999D01*
X70853530Y-21558712D01*
X70842449Y-21545924D01*
X70790531Y-21477174D01*
X70763325Y-21441147D01*
X70611945Y-21303146D01*
X70611942Y-21303144D01*
X70611941Y-21303143D01*
X70437787Y-21195311D01*
X70246774Y-21121313D01*
X70238145Y-21119700D01*
X70045420Y-21083673D01*
X69840578Y-21083673D01*
X69706342Y-21108766D01*
X69639223Y-21121313D01*
X69448210Y-21195311D01*
X69274056Y-21303143D01*
X69122672Y-21441148D01*
X69043549Y-21545924D01*
X68986535Y-21588232D01*
X68915699Y-21592999D01*
X68853530Y-21558712D01*
X68842449Y-21545924D01*
X68790531Y-21477174D01*
X68763325Y-21441147D01*
X68611945Y-21303146D01*
X68611942Y-21303144D01*
X68611941Y-21303143D01*
X68437787Y-21195311D01*
X68246774Y-21121313D01*
X68238145Y-21119700D01*
X68045420Y-21083673D01*
X67840578Y-21083673D01*
X67706342Y-21108766D01*
X67639223Y-21121313D01*
X67448210Y-21195311D01*
X67274056Y-21303143D01*
X67122674Y-21441146D01*
X67043548Y-21545925D01*
X66986533Y-21588232D01*
X66915697Y-21592999D01*
X66853529Y-21558712D01*
X66842460Y-21545939D01*
X66763325Y-21441147D01*
X66611945Y-21303146D01*
X66611942Y-21303144D01*
X66611941Y-21303143D01*
X66437787Y-21195311D01*
X66246774Y-21121313D01*
X66238145Y-21119700D01*
X66045420Y-21083673D01*
X65840578Y-21083673D01*
X65706342Y-21108766D01*
X65639223Y-21121313D01*
X65448210Y-21195311D01*
X65274056Y-21303143D01*
X65122674Y-21441146D01*
X65043548Y-21545925D01*
X64986533Y-21588232D01*
X64915697Y-21592999D01*
X64853529Y-21558712D01*
X64842460Y-21545939D01*
X64763325Y-21441147D01*
X64611945Y-21303146D01*
X64611942Y-21303144D01*
X64611941Y-21303143D01*
X64437787Y-21195311D01*
X64246774Y-21121313D01*
X64238145Y-21119700D01*
X64045420Y-21083673D01*
X63840578Y-21083673D01*
X63706342Y-21108766D01*
X63639223Y-21121313D01*
X63448210Y-21195311D01*
X63274056Y-21303143D01*
X63122674Y-21441146D01*
X63043548Y-21545925D01*
X62986533Y-21588232D01*
X62915697Y-21592999D01*
X62853529Y-21558712D01*
X62842460Y-21545939D01*
X62763325Y-21441147D01*
X62611945Y-21303146D01*
X62611942Y-21303144D01*
X62611941Y-21303143D01*
X62437787Y-21195311D01*
X62246774Y-21121313D01*
X62238145Y-21119700D01*
X62045420Y-21083673D01*
X61840578Y-21083673D01*
X61706342Y-21108766D01*
X61639223Y-21121313D01*
X61448210Y-21195311D01*
X61274056Y-21303143D01*
X61122672Y-21441148D01*
X60999226Y-21604616D01*
X60907922Y-21787979D01*
X60856416Y-21969005D01*
X60851864Y-21985005D01*
X60832964Y-22188973D01*
X60851864Y-22392941D01*
X60851864Y-22392944D01*
X60851865Y-22392945D01*
X60907922Y-22589966D01*
X60999226Y-22773329D01*
X61121874Y-22935741D01*
X61146964Y-23002157D01*
X61132164Y-23071593D01*
X61082173Y-23122006D01*
X61021324Y-23137673D01*
X57851880Y-23137673D01*
X57783759Y-23117671D01*
X57737266Y-23064015D01*
X57727162Y-22993741D01*
X57751330Y-22935741D01*
X57762615Y-22920797D01*
X57846770Y-22809358D01*
X57938076Y-22625991D01*
X57994134Y-22428968D01*
X58013034Y-22225000D01*
X57994134Y-22021032D01*
X57938076Y-21824009D01*
X57938075Y-21824006D01*
X57846771Y-21640643D01*
X57772817Y-21542712D01*
X57723325Y-21477174D01*
X57571945Y-21339173D01*
X57571942Y-21339171D01*
X57571941Y-21339170D01*
X57397787Y-21231338D01*
X57206774Y-21157340D01*
X57206773Y-21157340D01*
X57005420Y-21119700D01*
X56800578Y-21119700D01*
X56666341Y-21144793D01*
X56599223Y-21157340D01*
X56408210Y-21231338D01*
X56234056Y-21339170D01*
X56082674Y-21477173D01*
X56003548Y-21581952D01*
X55946533Y-21624259D01*
X55875697Y-21629026D01*
X55813529Y-21594739D01*
X55802460Y-21581966D01*
X55723325Y-21477174D01*
X55571945Y-21339173D01*
X55571942Y-21339171D01*
X55571941Y-21339170D01*
X55397787Y-21231338D01*
X55206774Y-21157340D01*
X55206773Y-21157340D01*
X55005420Y-21119700D01*
X54800578Y-21119700D01*
X54666341Y-21144793D01*
X54599223Y-21157340D01*
X54408210Y-21231338D01*
X54234056Y-21339170D01*
X54082674Y-21477173D01*
X54003548Y-21581952D01*
X53946533Y-21624259D01*
X53875697Y-21629026D01*
X53813529Y-21594739D01*
X53802460Y-21581966D01*
X53723325Y-21477174D01*
X53571945Y-21339173D01*
X53571942Y-21339171D01*
X53571941Y-21339170D01*
X53397787Y-21231338D01*
X53206774Y-21157340D01*
X53206773Y-21157340D01*
X53005420Y-21119700D01*
X52800578Y-21119700D01*
X52666341Y-21144793D01*
X52599223Y-21157340D01*
X52408210Y-21231338D01*
X52234056Y-21339170D01*
X52082674Y-21477173D01*
X52003548Y-21581952D01*
X51946533Y-21624259D01*
X51875697Y-21629026D01*
X51813529Y-21594739D01*
X51802460Y-21581966D01*
X51723325Y-21477174D01*
X51571945Y-21339173D01*
X51571942Y-21339171D01*
X51571941Y-21339170D01*
X51397787Y-21231338D01*
X51206774Y-21157340D01*
X51206773Y-21157340D01*
X51005420Y-21119700D01*
X50800578Y-21119700D01*
X50666341Y-21144793D01*
X50599223Y-21157340D01*
X50408210Y-21231338D01*
X50234056Y-21339170D01*
X50082674Y-21477173D01*
X50003548Y-21581952D01*
X49946533Y-21624259D01*
X49875697Y-21629026D01*
X49813529Y-21594739D01*
X49802460Y-21581966D01*
X49723325Y-21477174D01*
X49571945Y-21339173D01*
X49571942Y-21339171D01*
X49571941Y-21339170D01*
X49397787Y-21231338D01*
X49206774Y-21157340D01*
X49206773Y-21157340D01*
X49005420Y-21119700D01*
X48800578Y-21119700D01*
X48666341Y-21144793D01*
X48599223Y-21157340D01*
X48408210Y-21231338D01*
X48234056Y-21339170D01*
X48082674Y-21477173D01*
X48003548Y-21581952D01*
X47946533Y-21624259D01*
X47875697Y-21629026D01*
X47813529Y-21594739D01*
X47802460Y-21581966D01*
X47723325Y-21477174D01*
X47571945Y-21339173D01*
X47571942Y-21339171D01*
X47571941Y-21339170D01*
X47397787Y-21231338D01*
X47206774Y-21157340D01*
X47206773Y-21157340D01*
X47005420Y-21119700D01*
X46800578Y-21119700D01*
X46666341Y-21144793D01*
X46599223Y-21157340D01*
X46408210Y-21231338D01*
X46234056Y-21339170D01*
X46082672Y-21477175D01*
X45959226Y-21640643D01*
X45867922Y-21824006D01*
X45812574Y-22018535D01*
X45811864Y-22021032D01*
X45792964Y-22225000D01*
X45811864Y-22428968D01*
X45811864Y-22428971D01*
X45811865Y-22428972D01*
X45867922Y-22625993D01*
X45959226Y-22809356D01*
X46054668Y-22935741D01*
X46079758Y-23002156D01*
X46064958Y-23071593D01*
X46014967Y-23122006D01*
X45954118Y-23137673D01*
X42562670Y-23137673D01*
X42494549Y-23117671D01*
X42448056Y-23064015D01*
X42437952Y-22993741D01*
X42467446Y-22929161D01*
X42474387Y-22922041D01*
X42475322Y-22920802D01*
X42475326Y-22920799D01*
X42598771Y-22757331D01*
X42690077Y-22573964D01*
X42746135Y-22376941D01*
X42765035Y-22172973D01*
X42746135Y-21969005D01*
X42690077Y-21771982D01*
X42680906Y-21753564D01*
X42598772Y-21588616D01*
X42554450Y-21529924D01*
X42475326Y-21425147D01*
X42323946Y-21287146D01*
X42323943Y-21287144D01*
X42323942Y-21287143D01*
X42149788Y-21179311D01*
X41958775Y-21105313D01*
X41757421Y-21067673D01*
X41552579Y-21067673D01*
X41466988Y-21083673D01*
X41351224Y-21105313D01*
X41160211Y-21179311D01*
X40986057Y-21287143D01*
X40834673Y-21425148D01*
X40755550Y-21529924D01*
X40698536Y-21572232D01*
X40627700Y-21576999D01*
X40565531Y-21542712D01*
X40554450Y-21529924D01*
X40533220Y-21501811D01*
X40475326Y-21425147D01*
X40323946Y-21287146D01*
X40323943Y-21287144D01*
X40323942Y-21287143D01*
X40149788Y-21179311D01*
X39958775Y-21105313D01*
X39757421Y-21067673D01*
X39552579Y-21067673D01*
X39466988Y-21083673D01*
X39351224Y-21105313D01*
X39160211Y-21179311D01*
X38986057Y-21287143D01*
X38834673Y-21425148D01*
X38755550Y-21529924D01*
X38698536Y-21572232D01*
X38627700Y-21576999D01*
X38565531Y-21542712D01*
X38554450Y-21529924D01*
X38533220Y-21501811D01*
X38475326Y-21425147D01*
X38323946Y-21287146D01*
X38323943Y-21287144D01*
X38323942Y-21287143D01*
X38149788Y-21179311D01*
X37958775Y-21105313D01*
X37757421Y-21067673D01*
X37552579Y-21067673D01*
X37466988Y-21083673D01*
X37351224Y-21105313D01*
X37160211Y-21179311D01*
X36986057Y-21287143D01*
X36834673Y-21425148D01*
X36755550Y-21529924D01*
X36698536Y-21572232D01*
X36627700Y-21576999D01*
X36565531Y-21542712D01*
X36554450Y-21529924D01*
X36533220Y-21501811D01*
X36475326Y-21425147D01*
X36323946Y-21287146D01*
X36323943Y-21287144D01*
X36323942Y-21287143D01*
X36149788Y-21179311D01*
X35958775Y-21105313D01*
X35757421Y-21067673D01*
X35552579Y-21067673D01*
X35466988Y-21083673D01*
X35351224Y-21105313D01*
X35160211Y-21179311D01*
X34986057Y-21287143D01*
X34834673Y-21425148D01*
X34755550Y-21529924D01*
X34698536Y-21572232D01*
X34627700Y-21576999D01*
X34565531Y-21542712D01*
X34554450Y-21529924D01*
X34533220Y-21501811D01*
X34475326Y-21425147D01*
X34323946Y-21287146D01*
X34323943Y-21287144D01*
X34323942Y-21287143D01*
X34149788Y-21179311D01*
X33958775Y-21105313D01*
X33757421Y-21067673D01*
X33552579Y-21067673D01*
X33466988Y-21083673D01*
X33351224Y-21105313D01*
X33160211Y-21179311D01*
X32986057Y-21287143D01*
X32834673Y-21425148D01*
X32755550Y-21529924D01*
X32698536Y-21572232D01*
X32627700Y-21576999D01*
X32565531Y-21542712D01*
X32554450Y-21529924D01*
X32533220Y-21501811D01*
X32475326Y-21425147D01*
X32323946Y-21287146D01*
X32323943Y-21287144D01*
X32323942Y-21287143D01*
X32149788Y-21179311D01*
X31958775Y-21105313D01*
X31757421Y-21067673D01*
X31552579Y-21067673D01*
X31466988Y-21083673D01*
X31351224Y-21105313D01*
X31160211Y-21179311D01*
X30986057Y-21287143D01*
X30834673Y-21425148D01*
X30711227Y-21588616D01*
X30619923Y-21771979D01*
X30585148Y-21894202D01*
X30563865Y-21969005D01*
X30544965Y-22172973D01*
X30563865Y-22376941D01*
X30563865Y-22376944D01*
X30563866Y-22376945D01*
X30619923Y-22573966D01*
X30711227Y-22757329D01*
X30757974Y-22819232D01*
X30834672Y-22920797D01*
X30841710Y-22930116D01*
X30840016Y-22931395D01*
X30869083Y-22979235D01*
X30867292Y-23050209D01*
X30827414Y-23108948D01*
X30762110Y-23136803D01*
X30747330Y-23137673D01*
X30554703Y-23137673D01*
X30550402Y-23137600D01*
X30527069Y-23136803D01*
X30485266Y-23135375D01*
X30485265Y-23135375D01*
X30485264Y-23135375D01*
X30444711Y-23145257D01*
X30432039Y-23147665D01*
X30390684Y-23153349D01*
X30373961Y-23160613D01*
X30353600Y-23167460D01*
X30335890Y-23171776D01*
X30299500Y-23192236D01*
X30287952Y-23197972D01*
X30249663Y-23214604D01*
X30235526Y-23226106D01*
X30217765Y-23238194D01*
X30201872Y-23247129D01*
X30172349Y-23276652D01*
X30162777Y-23285291D01*
X30130397Y-23311635D01*
X30119886Y-23326525D01*
X30106049Y-23342952D01*
X29212157Y-24236845D01*
X29153216Y-24270088D01*
X29021060Y-24302662D01*
X28869401Y-24382258D01*
X28741199Y-24495836D01*
X28643899Y-24636798D01*
X28583164Y-24796945D01*
X28562520Y-24966972D01*
X26852942Y-24966972D01*
X26854212Y-24932235D01*
X26824586Y-24662982D01*
X26756072Y-24400912D01*
X26650130Y-24151610D01*
X26509018Y-23920390D01*
X26335745Y-23712180D01*
X26230759Y-23618112D01*
X26134006Y-23531421D01*
X26134003Y-23531419D01*
X26134002Y-23531418D01*
X25908090Y-23381956D01*
X25908086Y-23381954D01*
X25662828Y-23266981D01*
X25403425Y-23188938D01*
X25135442Y-23149500D01*
X25135439Y-23149500D01*
X24932369Y-23149500D01*
X24930099Y-23149666D01*
X24930075Y-23149667D01*
X24729839Y-23164323D01*
X24465449Y-23223219D01*
X24212441Y-23319985D01*
X23976225Y-23452557D01*
X23761820Y-23618114D01*
X23573815Y-23813117D01*
X23416200Y-24033422D01*
X23292342Y-24274328D01*
X23204882Y-24530693D01*
X23155681Y-24797065D01*
X23145787Y-25067766D01*
X20000500Y-25067766D01*
X20000500Y-21052396D01*
X20020502Y-20984275D01*
X20037396Y-20963310D01*
X20963304Y-20037402D01*
X21025614Y-20003379D01*
X21052397Y-20000500D01*
X118947602Y-20000500D01*
X119015723Y-20020502D01*
G37*
%TD.AperFunction*%
%TD*%
%TA.AperFunction,Conductor*%
%TO.N,GND*%
G36*
X38100000Y-34925000D02*
G01*
X33655000Y-34925000D01*
X33655000Y-30480000D01*
X38100000Y-30480000D01*
X38100000Y-34925000D01*
G37*
%TD.AperFunction*%
%TD*%
%TA.AperFunction,Conductor*%
%TO.N,GND*%
G36*
X53340000Y-34925000D02*
G01*
X48895000Y-34925000D01*
X48895000Y-30480000D01*
X53340000Y-30480000D01*
X53340000Y-34925000D01*
G37*
%TD.AperFunction*%
%TD*%
%TA.AperFunction,Conductor*%
%TO.N,GND*%
G36*
X83820000Y-34925000D02*
G01*
X79375000Y-34925000D01*
X79375000Y-30480000D01*
X83820000Y-30480000D01*
X83820000Y-34925000D01*
G37*
%TD.AperFunction*%
%TD*%
%TA.AperFunction,Conductor*%
%TO.N,GND*%
G36*
X68580000Y-34925000D02*
G01*
X64135000Y-34925000D01*
X64135000Y-30480000D01*
X68580000Y-30480000D01*
X68580000Y-34925000D01*
G37*
%TD.AperFunction*%
%TD*%
M02*
