M48
; DRILL file {KiCad 7.0.2-0} date 2024 June 06, Thursday 04:37:27
; FORMAT={-:-/ absolute / inch / decimal}
; #@! TF.CreationDate,2024-06-06T04:37:27-07:00
; #@! TF.GenerationSoftware,Kicad,Pcbnew,7.0.2-0
; #@! TF.FileFunction,Plated,1,4,PTH
FMAT,2
INCH
; #@! TA.AperFunction,Plated,PTH,ViaDrill
T1C0.0118
; #@! TA.AperFunction,Plated,PTH,ComponentDrill
T2C0.0130
; #@! TA.AperFunction,Plated,PTH,ViaDrill
T3C0.0157
; #@! TA.AperFunction,Plated,PTH,ComponentDrill
T4C0.0394
; #@! TA.AperFunction,Plated,PTH,ComponentDrill
T5C0.0472
%
G90
G05
T1
X0.875Y-1.2
X0.95Y-3.375
X0.9746Y-3.0789
X1.025Y-1.35
X1.0379Y-3.6782
X1.0379Y-3.7411
X1.0379Y-3.8045
X1.0379Y-3.9045
X1.0379Y-3.9545
X1.0379Y-4.0295
X1.0379Y-4.0795
X1.0379Y-4.1795
X1.1121Y-2.5526
X1.15Y-1.175
X1.225Y-1.35
X1.2686Y-1.5377
X1.275Y-1.375
X1.3Y-1.275
X1.325Y-1.5
X1.3711Y-2.5614
X1.45Y-1.025
X1.45Y-3.15
X1.4801Y-1.7199
X1.5Y-1.525
X1.575Y-1.275
X1.575Y-1.475
X1.575Y-3.025
X1.6473Y-2.55
X1.7Y-1.8
X1.75Y-1.775
X1.775Y-2.55
X1.825Y-1.525
X1.85Y-1.775
X1.875Y-1.525
X1.925Y-1.775
X2.0853Y-1.0708
X2.1Y-1.775
X2.125Y-1.8
X2.125Y-2.25
X2.175Y-1.275
X2.175Y-2.25
X2.2227Y-2.2773
X2.225Y-2.225
X2.375Y-2.5
X2.4Y-1.475
X2.45Y-1.475
X2.45Y-2.5
X2.625Y-1.1
X2.775Y-1.225
X3.05Y-1.075
X3.075Y-1.1
X3.0802Y-2.0302
X3.15Y-2.0079
X3.275Y-1.075
X3.375Y-1.25
X3.571Y-1.345
X3.575Y-1.225
X3.5799Y-1.4627
X3.6Y-1.5
X3.625Y-1.55
X3.675Y-1.4
X3.7Y-1.675
X3.825Y-1.625
X4.15Y-1.65
X4.2Y-2.375
X4.35Y-1.575
X4.425Y-1.15
X4.425Y-1.775
X4.675Y-1.15
X4.675Y-2.025
T2
X1.3701Y-1.263
X1.3701Y-1.3141
X1.4213Y-1.263
X1.4213Y-1.3141
X1.4725Y-1.263
X1.4725Y-1.3141
X1.9704Y-1.2678
X1.9704Y-1.319
X2.0216Y-1.2678
X2.0216Y-1.319
X2.0728Y-1.2678
X2.0728Y-1.319
X2.5626Y-1.2636
X2.5626Y-1.3148
X2.6137Y-1.2636
X2.6137Y-1.3148
X2.6649Y-1.2636
X2.6649Y-1.3148
X3.1657Y-1.263
X3.1657Y-1.3141
X3.2169Y-1.263
X3.2169Y-1.3141
X3.2681Y-1.263
X3.2681Y-1.3141
T3
X0.8383Y-3.75
X0.8383Y-3.825
X0.8383Y-3.9
X0.8383Y-3.95
X0.8383Y-4.05
X0.8383Y-4.15
X0.8383Y-4.25
X0.8383Y-4.3
X0.8383Y-4.375
X0.85Y-1.3
X0.85Y-1.425
X0.85Y-3.225
X0.8633Y-3.675
X0.8633Y-4.2205
X0.875Y-1.125
X0.8804Y-3.7677
X0.8804Y-3.8858
X0.8804Y-4.0039
X0.8804Y-4.1614
X0.8804Y-4.3189
X0.8883Y-3.7205
X0.8883Y-3.8455
X0.8883Y-4.0705
X0.8883Y-4.3705
X0.9Y-2.8026
X0.9465Y-2.274
X0.975Y-2.8026
X1.05Y-2.275
X1.05Y-2.8026
X1.075Y-1.725
X1.1Y-3.275
X1.1Y-3.35
X1.125Y-0.85
X1.125Y-2.5026
X1.15Y-2.2835
X1.1525Y-0.983
X1.1625Y-1.083
X1.175Y-1.3
X1.2211Y-1.1141
X1.225Y-3.2283
X1.2604Y-1.0353
X1.2604Y-1.1534
X1.2998Y-1.0747
X1.3Y-4.625
X1.375Y-4.625
X1.44Y-0.983
X1.4601Y-3.2111
X1.475Y-4.625
X1.575Y-1.05
X1.575Y-1.875
X1.575Y-1.975
X1.575Y-2.075
X1.575Y-2.15
X1.575Y-4.625
X1.65Y-3.0557
X1.675Y-2.225
X1.775Y-1.1
X1.775Y-1.4
X1.775Y-1.5
X1.7906Y-1.225
X1.7906Y-1.325
X1.8Y-2.825
X1.8214Y-1.1189
X1.825Y-4.625
X1.8607Y-1.1583
X1.8696Y-1.061
X1.9Y-2.825
X1.9Y-4.625
X1.905Y-1.0827
X1.9287Y-1.5
X2.0Y-2.825
X2.0Y-4.625
X2.0496Y-0.9896
X2.075Y-2.825
X2.1Y-4.625
X2.125Y-2.525
X2.176Y-1.0642
X2.2Y-1.475
X2.35Y-4.625
X2.375Y-1.225
X2.375Y-1.35
X2.3961Y-1.124
X2.425Y-3.85
X2.425Y-3.95
X2.425Y-4.05
X2.425Y-4.125
X2.425Y-4.625
X2.45Y-3.15
X2.45Y-3.25
X2.45Y-3.35
X2.45Y-3.425
X2.4529Y-1.0857
X2.4529Y-1.1541
X2.4944Y-1.0857
X2.5208Y-1.4444
X2.525Y-4.625
X2.625Y-2.525
X2.625Y-4.625
X2.6421Y-0.9851
X2.7Y-1.5
X2.775Y-1.1
X2.7873Y-1.0373
X2.9Y-1.75
X2.9Y-1.8
X2.9Y-4.625
X2.925Y-1.6
X2.925Y-3.15
X2.925Y-3.25
X2.925Y-3.35
X2.925Y-3.425
X2.925Y-3.85
X2.925Y-3.95
X2.925Y-4.05
X2.925Y-4.125
X2.9494Y-1.115
X2.975Y-1.225
X2.975Y-1.35
X2.975Y-1.45
X2.975Y-1.5
X2.975Y-1.6
X2.975Y-2.65
X2.975Y-2.75
X2.975Y-2.85
X2.975Y-2.925
X2.975Y-4.625
X3.0163Y-1.1534
X3.058Y-1.2
X3.075Y-4.625
X3.124Y-1.4437
X3.175Y-2.2213
X3.175Y-2.2963
X3.175Y-2.3463
X3.175Y-2.4213
X3.175Y-4.625
X3.2447Y-0.9976
X3.25Y-2.225
X3.25Y-2.3017
X3.25Y-2.3767
X3.25Y-2.4267
X3.3Y-1.5
X3.325Y-2.225
X3.325Y-2.3017
X3.325Y-2.3767
X3.325Y-2.4267
X3.35Y-4.625
X3.375Y-2.025
X3.375Y-3.15
X3.375Y-3.25
X3.375Y-3.35
X3.375Y-3.425
X3.375Y-3.875
X3.375Y-3.975
X3.375Y-4.075
X3.375Y-4.15
X3.3834Y-1.0334
X3.4Y-2.225
X3.4Y-2.3017
X3.4Y-2.3767
X3.4Y-2.4267
X3.425Y-4.625
X3.475Y-2.225
X3.475Y-2.3017
X3.475Y-2.3767
X3.475Y-2.4267
X3.525Y-4.625
X3.625Y-4.625
X3.775Y-4.625
X3.8Y-1.4282
X3.8Y-3.875
X3.8Y-3.975
X3.8Y-4.075
X3.8Y-4.15
X3.825Y-2.7
X3.825Y-2.8
X3.825Y-2.9
X3.825Y-2.975
X3.825Y-3.15
X3.825Y-3.25
X3.825Y-3.35
X3.825Y-3.425
X3.85Y-4.625
X3.9143Y-1.97
X3.925Y-1.398
X3.95Y-4.625
X4.05Y-4.625
X4.1143Y-1.97
X4.1393Y-1.795
X4.15Y-1.323
X4.1643Y-1.8765
X4.2143Y-1.845
X4.25Y-1.725
X4.35Y-1.273
X4.425Y-2.325
X4.5393Y-1.87
X4.5619Y-1.453
X4.5819Y-1.253
X4.625Y-1.723
T4
X1.2463Y-0.873
X1.325Y-0.873
X1.4037Y-0.873
X1.4825Y-0.873
X1.5612Y-0.873
X1.64Y-0.873
X1.8466Y-0.875
X1.9253Y-0.875
X2.0041Y-0.875
X2.0828Y-0.875
X2.1615Y-0.875
X2.2403Y-0.875
X2.4387Y-0.8736
X2.5174Y-0.8736
X2.5962Y-0.8736
X2.6749Y-0.8736
X2.7537Y-0.8736
X2.8324Y-0.8736
X3.0419Y-0.873
X3.1206Y-0.873
X3.1993Y-0.873
X3.2781Y-0.873
X3.3568Y-0.873
X3.4356Y-0.873
X3.6614Y-0.875
X3.6614Y-0.975
X3.6614Y-1.075
X3.8583Y-0.875
X3.8583Y-0.975
X3.8583Y-1.075
X4.0551Y-0.875
X4.0551Y-0.975
X4.0551Y-1.075
X4.25Y-0.875
X4.25Y-0.975
X4.25Y-1.075
T5
X3.75Y-2.175
X3.75Y-2.375
X3.85Y-2.175
X3.85Y-2.375
X3.95Y-2.175
X3.95Y-2.375
T0
M30
