%TF.GenerationSoftware,KiCad,Pcbnew,7.0.2-0*%
%TF.CreationDate,2024-06-06T04:37:27-07:00*%
%TF.ProjectId,version_1,76657273-696f-46e5-9f31-2e6b69636164,rev?*%
%TF.SameCoordinates,Original*%
%TF.FileFunction,Legend,Bot*%
%TF.FilePolarity,Positive*%
%FSLAX46Y46*%
G04 Gerber Fmt 4.6, Leading zero omitted, Abs format (unit mm)*
G04 Created by KiCad (PCBNEW 7.0.2-0) date 2024-06-06 04:37:27*
%MOMM*%
%LPD*%
G01*
G04 APERTURE LIST*
%ADD10C,0.000000*%
%ADD11C,0.150000*%
%ADD12C,0.300000*%
%ADD13R,1.700000X1.700000*%
%ADD14O,1.700000X1.700000*%
%ADD15C,1.600000*%
%ADD16C,0.770000*%
%ADD17C,3.200000*%
%ADD18O,1.800000X1.800000*%
%ADD19O,1.500000X1.500000*%
%ADD20C,1.800000*%
G04 APERTURE END LIST*
D10*
G36*
X66043164Y-94282544D02*
G01*
X66094337Y-94287356D01*
X66144931Y-94295593D01*
X66194530Y-94307433D01*
X66218826Y-94314760D01*
X66242716Y-94323055D01*
X66266149Y-94332339D01*
X66289072Y-94342635D01*
X66311434Y-94353966D01*
X66333181Y-94366353D01*
X66354263Y-94379818D01*
X66374626Y-94394385D01*
X66394218Y-94410074D01*
X66412988Y-94426909D01*
X66430883Y-94444911D01*
X66447852Y-94464104D01*
X66463841Y-94484508D01*
X66478798Y-94506147D01*
X66492673Y-94529042D01*
X66505412Y-94553216D01*
X66516963Y-94578691D01*
X66527274Y-94605489D01*
X66536293Y-94633632D01*
X66543967Y-94663144D01*
X66550246Y-94694045D01*
X66555075Y-94726358D01*
X66558404Y-94760106D01*
X66560180Y-94795310D01*
X66560180Y-96861937D01*
X66559563Y-96898235D01*
X66557709Y-96933226D01*
X66554620Y-96966920D01*
X66550295Y-96999329D01*
X66544733Y-97030463D01*
X66537934Y-97060332D01*
X66529898Y-97088948D01*
X66520624Y-97116321D01*
X66510113Y-97142462D01*
X66498364Y-97167382D01*
X66485376Y-97191091D01*
X66471150Y-97213600D01*
X66455685Y-97234920D01*
X66438981Y-97255061D01*
X66421037Y-97274035D01*
X66401854Y-97291851D01*
X66381430Y-97308522D01*
X66359766Y-97324056D01*
X66336861Y-97338466D01*
X66312715Y-97351762D01*
X66287328Y-97363954D01*
X66260699Y-97375053D01*
X66232829Y-97385071D01*
X66203716Y-97394017D01*
X66173361Y-97401902D01*
X66141763Y-97408738D01*
X66074837Y-97419303D01*
X66002936Y-97425797D01*
X65926059Y-97428306D01*
X65244087Y-97426911D01*
X65162060Y-97425095D01*
X65080962Y-97419525D01*
X65000898Y-97410277D01*
X64921977Y-97397430D01*
X64844303Y-97381059D01*
X64767984Y-97361241D01*
X64693126Y-97338055D01*
X64619836Y-97311577D01*
X64548220Y-97281884D01*
X64478385Y-97249054D01*
X64410438Y-97213162D01*
X64344484Y-97174287D01*
X64280631Y-97132505D01*
X64218985Y-97087894D01*
X64159652Y-97040531D01*
X64102739Y-96990492D01*
X64048353Y-96937855D01*
X63996600Y-96882697D01*
X63947587Y-96825095D01*
X63901420Y-96765126D01*
X63858206Y-96702867D01*
X63818051Y-96638395D01*
X63781062Y-96571787D01*
X63747345Y-96503121D01*
X63717007Y-96432473D01*
X63690155Y-96359921D01*
X63666894Y-96285541D01*
X63647332Y-96209411D01*
X63631576Y-96131607D01*
X63619730Y-96052208D01*
X63611903Y-95971289D01*
X63608201Y-95888929D01*
X63610425Y-95804409D01*
X64611829Y-95804409D01*
X64614196Y-95861933D01*
X64621319Y-95920696D01*
X64633224Y-95980048D01*
X64649942Y-96039341D01*
X64671501Y-96097925D01*
X64684105Y-96126748D01*
X64697930Y-96155151D01*
X64712980Y-96183052D01*
X64729257Y-96210370D01*
X64746767Y-96237023D01*
X64765513Y-96262932D01*
X64785497Y-96288014D01*
X64806724Y-96312189D01*
X64829197Y-96335375D01*
X64852921Y-96357491D01*
X64877897Y-96378456D01*
X64904131Y-96398188D01*
X64931626Y-96416608D01*
X64960385Y-96433633D01*
X64990411Y-96449182D01*
X65021710Y-96463175D01*
X65054283Y-96475530D01*
X65088135Y-96486165D01*
X65123269Y-96495001D01*
X65159690Y-96501955D01*
X65197400Y-96506946D01*
X65236403Y-96509894D01*
X65545607Y-96509894D01*
X65545607Y-95169589D01*
X65246765Y-95169589D01*
X65207720Y-95171434D01*
X65169971Y-95175050D01*
X65133513Y-95180377D01*
X65098338Y-95187354D01*
X65064443Y-95195920D01*
X65031820Y-95206013D01*
X65000465Y-95217572D01*
X64970372Y-95230536D01*
X64941534Y-95244845D01*
X64913947Y-95260437D01*
X64887604Y-95277250D01*
X64862500Y-95295225D01*
X64838629Y-95314299D01*
X64815986Y-95334412D01*
X64794565Y-95355502D01*
X64774360Y-95377509D01*
X64755365Y-95400372D01*
X64737575Y-95424028D01*
X64720984Y-95448418D01*
X64705587Y-95473480D01*
X64691377Y-95499153D01*
X64678349Y-95525376D01*
X64655817Y-95579227D01*
X64637944Y-95634545D01*
X64624685Y-95690840D01*
X64615995Y-95747625D01*
X64611829Y-95804409D01*
X63610425Y-95804409D01*
X63611905Y-95748153D01*
X63628616Y-95605787D01*
X63658349Y-95463321D01*
X63701122Y-95322248D01*
X63727403Y-95252699D01*
X63756950Y-95184058D01*
X63789765Y-95116511D01*
X63825849Y-95050245D01*
X63865206Y-94985445D01*
X63907836Y-94922299D01*
X63953743Y-94860993D01*
X64002927Y-94801713D01*
X64055391Y-94744645D01*
X64111138Y-94689978D01*
X64170168Y-94637895D01*
X64232485Y-94588586D01*
X64298090Y-94542234D01*
X64366984Y-94499028D01*
X64439171Y-94459154D01*
X64514653Y-94422798D01*
X64593430Y-94390147D01*
X64675506Y-94361386D01*
X64760881Y-94336703D01*
X64849560Y-94316284D01*
X64941542Y-94300316D01*
X65036831Y-94288985D01*
X65135428Y-94282477D01*
X65237335Y-94280979D01*
X65991831Y-94280979D01*
X66043164Y-94282544D01*
G37*
G36*
X62000240Y-94280719D02*
G01*
X62018970Y-94282041D01*
X62037683Y-94284038D01*
X62056366Y-94286729D01*
X62075005Y-94290136D01*
X62093586Y-94294278D01*
X62112096Y-94299175D01*
X62130521Y-94304849D01*
X62131922Y-94304849D01*
X62132010Y-94304907D01*
X62132097Y-94304964D01*
X62132184Y-94305023D01*
X62132268Y-94305081D01*
X62155578Y-94313334D01*
X62178456Y-94322671D01*
X62200857Y-94333080D01*
X62222735Y-94344544D01*
X62244043Y-94357050D01*
X62264736Y-94370584D01*
X62284766Y-94385130D01*
X62304088Y-94400674D01*
X62322656Y-94417202D01*
X62340422Y-94434699D01*
X62357342Y-94453150D01*
X62373369Y-94472542D01*
X62388456Y-94492860D01*
X62402558Y-94514088D01*
X62415628Y-94536213D01*
X62427620Y-94559220D01*
X63483752Y-96729808D01*
X63494204Y-96752737D01*
X63503350Y-96775919D01*
X63511204Y-96799314D01*
X63517783Y-96822878D01*
X63523102Y-96846570D01*
X63527176Y-96870348D01*
X63530020Y-96894171D01*
X63531650Y-96917996D01*
X63532082Y-96941782D01*
X63531331Y-96965486D01*
X63529413Y-96989068D01*
X63526342Y-97012484D01*
X63522134Y-97035694D01*
X63516805Y-97058655D01*
X63510370Y-97081325D01*
X63502845Y-97103664D01*
X63494244Y-97125628D01*
X63484584Y-97147176D01*
X63473880Y-97168267D01*
X63462147Y-97188857D01*
X63449400Y-97208907D01*
X63435656Y-97228373D01*
X63420930Y-97247213D01*
X63405236Y-97265387D01*
X63388591Y-97282852D01*
X63371009Y-97299566D01*
X63352507Y-97315487D01*
X63333100Y-97330574D01*
X63312802Y-97344785D01*
X63291631Y-97358077D01*
X63269600Y-97370410D01*
X63246726Y-97381741D01*
X63223294Y-97391946D01*
X63199607Y-97400873D01*
X63175707Y-97408537D01*
X63151638Y-97414955D01*
X63127441Y-97420140D01*
X63103159Y-97424109D01*
X63078835Y-97426875D01*
X63054510Y-97428455D01*
X63030228Y-97428864D01*
X63006031Y-97428116D01*
X62981961Y-97426227D01*
X62958061Y-97423211D01*
X62934374Y-97419085D01*
X62910942Y-97413863D01*
X62887806Y-97407560D01*
X62865011Y-97400191D01*
X62842598Y-97391772D01*
X62820610Y-97382318D01*
X62799089Y-97371843D01*
X62778078Y-97360363D01*
X62757619Y-97347894D01*
X62737755Y-97334449D01*
X62718528Y-97320045D01*
X62699981Y-97304697D01*
X62682156Y-97288419D01*
X62665096Y-97271227D01*
X62648843Y-97253136D01*
X62633440Y-97234160D01*
X62618929Y-97214316D01*
X62605352Y-97193618D01*
X62592753Y-97172082D01*
X62581173Y-97149722D01*
X61970567Y-95895797D01*
X61346925Y-97152983D01*
X61335163Y-97175231D01*
X61322390Y-97196651D01*
X61308646Y-97217227D01*
X61293976Y-97236945D01*
X61278421Y-97255789D01*
X61262025Y-97273746D01*
X61244829Y-97290800D01*
X61226876Y-97306936D01*
X61208210Y-97322140D01*
X61188871Y-97336397D01*
X61168904Y-97349691D01*
X61148350Y-97362008D01*
X61127252Y-97373334D01*
X61105653Y-97383653D01*
X61083594Y-97392950D01*
X61061120Y-97401211D01*
X61038271Y-97408421D01*
X61015092Y-97414565D01*
X60991623Y-97419628D01*
X60967909Y-97423596D01*
X60943991Y-97426453D01*
X60919911Y-97428184D01*
X60895714Y-97428776D01*
X60871440Y-97428212D01*
X60847133Y-97426479D01*
X60822835Y-97423561D01*
X60798589Y-97419443D01*
X60774437Y-97414111D01*
X60750421Y-97407550D01*
X60726585Y-97399745D01*
X60702971Y-97390681D01*
X60679622Y-97380344D01*
X60656850Y-97368830D01*
X60634930Y-97356319D01*
X60613876Y-97342854D01*
X60593703Y-97328476D01*
X60574426Y-97313228D01*
X60556061Y-97297151D01*
X60538622Y-97280288D01*
X60522124Y-97262682D01*
X60506582Y-97244373D01*
X60492011Y-97225405D01*
X60478427Y-97205819D01*
X60465843Y-97185658D01*
X60454276Y-97164963D01*
X60443740Y-97143777D01*
X60434250Y-97122141D01*
X60425821Y-97100099D01*
X60418468Y-97077691D01*
X60412206Y-97054961D01*
X60407050Y-97031950D01*
X60403015Y-97008701D01*
X60400116Y-96985255D01*
X60398368Y-96961655D01*
X60397786Y-96937942D01*
X60398385Y-96914160D01*
X60400180Y-96890350D01*
X60403186Y-96866553D01*
X60407418Y-96842813D01*
X60412890Y-96819172D01*
X60419619Y-96795670D01*
X60427619Y-96772352D01*
X60436904Y-96749258D01*
X60447490Y-96726431D01*
X61523996Y-94556076D01*
X61535705Y-94533855D01*
X61548410Y-94512475D01*
X61562069Y-94491946D01*
X61576642Y-94472283D01*
X61592087Y-94453498D01*
X61608364Y-94435603D01*
X61625431Y-94418612D01*
X61643248Y-94402537D01*
X61661772Y-94387391D01*
X61680963Y-94373186D01*
X61700780Y-94359937D01*
X61721182Y-94347655D01*
X61742128Y-94336353D01*
X61763576Y-94326045D01*
X61785485Y-94316742D01*
X61807815Y-94308457D01*
X61808748Y-94308223D01*
X61814919Y-94306247D01*
X61834577Y-94300073D01*
X61854332Y-94294737D01*
X61874160Y-94290232D01*
X61894038Y-94286556D01*
X61913944Y-94283703D01*
X61933854Y-94281671D01*
X61953745Y-94280455D01*
X61973594Y-94280050D01*
X61981507Y-94280050D01*
X62000240Y-94280719D01*
G37*
G36*
X71111605Y-86565935D02*
G01*
X71111602Y-86565935D01*
X71111602Y-86565933D01*
X71111605Y-86565935D01*
G37*
G36*
X88991193Y-84671590D02*
G01*
X89102589Y-84678172D01*
X89214091Y-84689099D01*
X89325447Y-84704340D01*
X89436400Y-84723861D01*
X89546696Y-84747628D01*
X89656079Y-84775609D01*
X89764296Y-84807769D01*
X89871090Y-84844075D01*
X89976208Y-84884495D01*
X90079393Y-84928994D01*
X90180392Y-84977539D01*
X90278949Y-85030097D01*
X90374809Y-85086634D01*
X90467718Y-85147117D01*
X90557420Y-85211513D01*
X90643661Y-85279789D01*
X90726185Y-85351910D01*
X90804738Y-85427843D01*
X90879065Y-85507556D01*
X90948911Y-85591015D01*
X91014020Y-85678185D01*
X91074139Y-85769035D01*
X91129011Y-85863531D01*
X91178383Y-85961638D01*
X91221999Y-86063325D01*
X91259604Y-86168556D01*
X91290943Y-86277300D01*
X91315762Y-86389523D01*
X91333806Y-86505191D01*
X91344819Y-86624270D01*
X91348546Y-86746729D01*
X91345004Y-86868518D01*
X91334618Y-86985549D01*
X91317746Y-87097918D01*
X91294749Y-87205723D01*
X91265986Y-87309062D01*
X91231816Y-87408032D01*
X91192599Y-87502730D01*
X91148695Y-87593254D01*
X91100463Y-87679703D01*
X91048262Y-87762172D01*
X90992451Y-87840761D01*
X90933391Y-87915566D01*
X90871441Y-87986685D01*
X90806960Y-88054215D01*
X90740308Y-88118255D01*
X90671845Y-88178902D01*
X90530920Y-88290405D01*
X90387062Y-88389506D01*
X90243147Y-88476986D01*
X90102050Y-88553624D01*
X89966648Y-88620201D01*
X89839817Y-88677498D01*
X89623368Y-88767374D01*
X89252118Y-88924190D01*
X89092485Y-88993091D01*
X88949211Y-89057009D01*
X88821571Y-89116963D01*
X88708839Y-89173968D01*
X88657836Y-89201683D01*
X88610288Y-89229042D01*
X88566104Y-89256172D01*
X88525193Y-89283201D01*
X88487465Y-89310255D01*
X88452829Y-89337463D01*
X88421193Y-89364950D01*
X88392468Y-89392843D01*
X88366562Y-89421271D01*
X88343385Y-89450360D01*
X88322846Y-89480238D01*
X88304854Y-89511030D01*
X88289319Y-89542865D01*
X88276149Y-89575870D01*
X88265255Y-89610172D01*
X88256545Y-89645897D01*
X88249928Y-89683173D01*
X88245314Y-89722127D01*
X88242613Y-89762887D01*
X88241732Y-89805578D01*
X88242483Y-89836044D01*
X88244725Y-89866604D01*
X88248443Y-89897188D01*
X88253620Y-89927728D01*
X88260242Y-89958152D01*
X88268292Y-89988393D01*
X88277756Y-90018379D01*
X88288617Y-90048042D01*
X88300860Y-90077312D01*
X88314469Y-90106119D01*
X88329429Y-90134394D01*
X88345724Y-90162068D01*
X88363338Y-90189069D01*
X88382255Y-90215330D01*
X88402461Y-90240780D01*
X88423939Y-90265349D01*
X88446674Y-90288969D01*
X88470650Y-90311569D01*
X88495852Y-90333081D01*
X88522264Y-90353433D01*
X88549870Y-90372558D01*
X88578654Y-90390384D01*
X88608602Y-90406843D01*
X88639697Y-90421865D01*
X88671924Y-90435381D01*
X88705267Y-90447320D01*
X88739711Y-90457613D01*
X88775240Y-90466191D01*
X88811838Y-90472984D01*
X88849489Y-90477922D01*
X88888179Y-90480936D01*
X88927891Y-90481956D01*
X88973830Y-90480157D01*
X89025100Y-90474237D01*
X89080555Y-90463413D01*
X89139052Y-90446900D01*
X89199446Y-90423916D01*
X89260592Y-90393675D01*
X89321346Y-90355395D01*
X89351219Y-90332996D01*
X89380564Y-90308292D01*
X89409240Y-90281187D01*
X89437102Y-90251582D01*
X89464007Y-90219379D01*
X89489814Y-90184481D01*
X89514377Y-90146789D01*
X89537556Y-90106205D01*
X89559206Y-90062631D01*
X89579184Y-90015971D01*
X89597348Y-89966124D01*
X89613554Y-89912994D01*
X89627659Y-89856483D01*
X89639520Y-89796492D01*
X89648995Y-89732923D01*
X89655940Y-89665680D01*
X89660211Y-89594662D01*
X89661667Y-89519774D01*
X91452852Y-89519774D01*
X91452852Y-89748882D01*
X91446684Y-89923209D01*
X91427175Y-90104999D01*
X91392818Y-90291669D01*
X91342104Y-90480637D01*
X91273527Y-90669324D01*
X91185579Y-90855147D01*
X91133869Y-90946177D01*
X91076752Y-91035524D01*
X91014038Y-91122864D01*
X90945539Y-91207874D01*
X90871066Y-91290232D01*
X90790432Y-91369616D01*
X90703448Y-91445702D01*
X90609925Y-91518167D01*
X90509674Y-91586690D01*
X90402509Y-91650948D01*
X90288239Y-91710617D01*
X90166676Y-91765375D01*
X90037633Y-91814899D01*
X89900920Y-91858868D01*
X89756350Y-91896957D01*
X89603733Y-91928844D01*
X89442882Y-91954207D01*
X89273608Y-91972723D01*
X89095722Y-91984069D01*
X88909036Y-91987923D01*
X88737629Y-91984639D01*
X88573578Y-91974939D01*
X88416759Y-91959049D01*
X88267045Y-91937196D01*
X88124311Y-91909607D01*
X87988432Y-91876508D01*
X87859281Y-91838127D01*
X87736733Y-91794690D01*
X87620663Y-91746423D01*
X87510944Y-91693555D01*
X87407452Y-91636310D01*
X87310061Y-91574917D01*
X87218645Y-91509602D01*
X87133078Y-91440591D01*
X87053236Y-91368112D01*
X86978991Y-91292392D01*
X86910220Y-91213656D01*
X86846795Y-91132132D01*
X86788592Y-91048046D01*
X86735485Y-90961626D01*
X86687348Y-90873098D01*
X86644056Y-90782689D01*
X86605483Y-90690625D01*
X86571504Y-90597134D01*
X86541993Y-90502441D01*
X86516824Y-90406775D01*
X86479010Y-90213427D01*
X86457059Y-90018904D01*
X86449965Y-89825020D01*
X86454035Y-89673703D01*
X86466876Y-89527036D01*
X86489436Y-89384740D01*
X86522666Y-89246533D01*
X86567513Y-89112136D01*
X86594589Y-89046278D01*
X86624925Y-88981268D01*
X86658640Y-88917070D01*
X86695853Y-88853649D01*
X86736681Y-88790971D01*
X86781243Y-88729000D01*
X86829659Y-88667701D01*
X86882046Y-88607039D01*
X86938524Y-88546980D01*
X86999210Y-88487488D01*
X87064223Y-88428528D01*
X87133683Y-88370065D01*
X87286413Y-88254490D01*
X87458351Y-88140483D01*
X87650444Y-88027765D01*
X87863641Y-87916054D01*
X88098890Y-87805072D01*
X88525324Y-87611722D01*
X88703946Y-87529132D01*
X88861233Y-87454331D01*
X88998484Y-87386120D01*
X89060001Y-87354112D01*
X89116995Y-87323300D01*
X89169629Y-87293537D01*
X89218064Y-87264671D01*
X89262463Y-87236553D01*
X89302987Y-87209033D01*
X89339799Y-87181960D01*
X89373061Y-87155186D01*
X89402935Y-87128559D01*
X89429584Y-87101930D01*
X89453169Y-87075150D01*
X89473852Y-87048067D01*
X89491796Y-87020532D01*
X89507163Y-86992395D01*
X89520115Y-86963507D01*
X89530814Y-86933716D01*
X89539422Y-86902874D01*
X89546101Y-86870830D01*
X89551014Y-86837434D01*
X89554323Y-86802537D01*
X89556189Y-86765988D01*
X89556775Y-86727637D01*
X89555890Y-86696697D01*
X89553271Y-86666450D01*
X89548973Y-86636913D01*
X89543050Y-86608108D01*
X89535555Y-86580051D01*
X89526543Y-86552763D01*
X89516069Y-86526262D01*
X89504185Y-86500567D01*
X89490948Y-86475698D01*
X89476409Y-86451673D01*
X89460625Y-86428512D01*
X89443648Y-86406233D01*
X89425534Y-86384855D01*
X89406336Y-86364398D01*
X89386109Y-86344880D01*
X89364906Y-86326321D01*
X89342781Y-86308739D01*
X89319790Y-86292154D01*
X89295986Y-86276584D01*
X89271423Y-86262049D01*
X89246156Y-86248567D01*
X89220238Y-86236158D01*
X89166668Y-86214633D01*
X89111146Y-86197627D01*
X89054106Y-86185292D01*
X89025152Y-86180923D01*
X88995981Y-86177779D01*
X88966647Y-86175879D01*
X88937204Y-86175241D01*
X88886832Y-86176533D01*
X88839275Y-86180330D01*
X88794446Y-86186510D01*
X88752257Y-86194954D01*
X88712623Y-86205541D01*
X88675455Y-86218150D01*
X88640667Y-86232660D01*
X88608171Y-86248952D01*
X88577879Y-86266905D01*
X88549706Y-86286398D01*
X88523563Y-86307311D01*
X88499364Y-86329523D01*
X88477020Y-86352915D01*
X88456446Y-86377364D01*
X88437554Y-86402751D01*
X88420257Y-86428955D01*
X88404467Y-86455857D01*
X88390097Y-86483334D01*
X88365270Y-86539536D01*
X88345078Y-86596597D01*
X88328823Y-86653554D01*
X88315809Y-86709441D01*
X88305337Y-86763295D01*
X88289231Y-86861050D01*
X88289231Y-86861052D01*
X86507125Y-86861052D01*
X86515552Y-86707611D01*
X86529318Y-86547420D01*
X86539598Y-86464936D01*
X86552887Y-86380935D01*
X86569743Y-86295474D01*
X86590725Y-86208610D01*
X86616391Y-86120399D01*
X86647298Y-86030898D01*
X86684005Y-85940164D01*
X86727070Y-85848254D01*
X86777051Y-85755225D01*
X86834506Y-85661133D01*
X86899994Y-85566035D01*
X86974073Y-85469988D01*
X87063252Y-85371537D01*
X87158835Y-85279729D01*
X87260305Y-85194523D01*
X87367145Y-85115879D01*
X87478839Y-85043756D01*
X87594871Y-84978116D01*
X87714724Y-84918917D01*
X87837882Y-84866119D01*
X87963829Y-84819683D01*
X88092048Y-84779569D01*
X88222022Y-84745736D01*
X88353237Y-84718144D01*
X88485174Y-84696754D01*
X88617318Y-84681525D01*
X88749152Y-84672416D01*
X88880160Y-84669389D01*
X88991193Y-84671590D01*
G37*
G36*
X83180995Y-86386649D02*
G01*
X83268319Y-86391078D01*
X83352001Y-86398275D01*
X83432119Y-86408086D01*
X83508751Y-86420362D01*
X83581976Y-86434948D01*
X83651874Y-86451695D01*
X83718521Y-86470449D01*
X83781998Y-86491059D01*
X83842382Y-86513373D01*
X83899753Y-86537239D01*
X83954190Y-86562505D01*
X84005769Y-86589020D01*
X84054572Y-86616631D01*
X84100675Y-86645187D01*
X84144158Y-86674536D01*
X84185100Y-86704526D01*
X84223578Y-86735004D01*
X84259672Y-86765820D01*
X84293461Y-86796821D01*
X84354436Y-86858770D01*
X84407132Y-86919639D01*
X84452179Y-86978210D01*
X84490206Y-87033270D01*
X84521842Y-87083603D01*
X84547717Y-87127994D01*
X84566811Y-87127994D01*
X84566811Y-86565935D01*
X86043785Y-86565935D01*
X86043782Y-86565938D01*
X86043782Y-91854747D01*
X84462264Y-91854747D01*
X84462264Y-89043168D01*
X84460514Y-88902689D01*
X84456357Y-88818474D01*
X84448263Y-88727679D01*
X84434918Y-88632355D01*
X84415011Y-88534555D01*
X84402186Y-88485368D01*
X84387228Y-88436330D01*
X84369973Y-88387700D01*
X84350256Y-88339733D01*
X84327915Y-88292686D01*
X84302784Y-88246815D01*
X84274701Y-88202377D01*
X84243499Y-88159629D01*
X84209016Y-88118826D01*
X84171088Y-88080226D01*
X84129550Y-88044085D01*
X84084239Y-88010659D01*
X84034989Y-87980204D01*
X83981638Y-87952979D01*
X83924021Y-87929238D01*
X83861974Y-87909238D01*
X83795333Y-87893236D01*
X83723933Y-87881489D01*
X83647612Y-87874252D01*
X83566204Y-87871783D01*
X83494379Y-87874140D01*
X83427041Y-87881048D01*
X83364045Y-87892258D01*
X83305248Y-87907523D01*
X83250505Y-87926595D01*
X83199669Y-87949227D01*
X83152598Y-87975172D01*
X83109145Y-88004183D01*
X83069167Y-88036011D01*
X83032519Y-88070409D01*
X82999055Y-88107130D01*
X82968631Y-88145926D01*
X82941102Y-88186550D01*
X82916324Y-88228754D01*
X82894151Y-88272292D01*
X82874440Y-88316915D01*
X82857044Y-88362376D01*
X82841820Y-88408427D01*
X82817307Y-88501311D01*
X82799743Y-88593589D01*
X82787969Y-88683279D01*
X82780828Y-88768402D01*
X82777160Y-88846979D01*
X82775616Y-88976575D01*
X82775616Y-91854744D01*
X81193632Y-91854744D01*
X81193632Y-88967378D01*
X81191919Y-88835571D01*
X81187853Y-88756682D01*
X81179933Y-88671688D01*
X81166876Y-88582501D01*
X81147398Y-88491034D01*
X81134850Y-88445043D01*
X81120214Y-88399199D01*
X81103331Y-88353742D01*
X81084040Y-88308910D01*
X81062181Y-88264943D01*
X81037593Y-88222080D01*
X81010114Y-88180559D01*
X80979586Y-88140620D01*
X80945847Y-88102503D01*
X80908737Y-88066445D01*
X80868095Y-88032687D01*
X80823761Y-88001467D01*
X80775574Y-87973024D01*
X80723373Y-87947598D01*
X80666999Y-87925428D01*
X80606290Y-87906753D01*
X80541087Y-87891811D01*
X80471228Y-87880842D01*
X80396552Y-87874086D01*
X80316901Y-87871781D01*
X80243309Y-87873925D01*
X80174315Y-87880229D01*
X80109771Y-87890499D01*
X80049528Y-87904542D01*
X79993438Y-87922163D01*
X79941352Y-87943170D01*
X79893123Y-87967368D01*
X79848602Y-87994564D01*
X79807641Y-88024564D01*
X79770091Y-88057175D01*
X79735804Y-88092202D01*
X79704632Y-88129453D01*
X79676426Y-88168734D01*
X79651039Y-88209851D01*
X79628321Y-88252610D01*
X79608125Y-88296818D01*
X79590301Y-88342281D01*
X79574703Y-88388805D01*
X79549587Y-88484264D01*
X79531591Y-88581645D01*
X79519528Y-88679399D01*
X79512210Y-88775978D01*
X79508453Y-88869831D01*
X79506871Y-89043166D01*
X79506871Y-91854744D01*
X77924771Y-91854744D01*
X77924771Y-88967378D01*
X77925748Y-88757055D01*
X77929015Y-88564476D01*
X77935074Y-88388188D01*
X77944427Y-88226739D01*
X77957577Y-88078678D01*
X77975026Y-87942552D01*
X77997277Y-87816910D01*
X78010359Y-87757566D01*
X78024831Y-87700299D01*
X78040754Y-87644927D01*
X78058192Y-87591268D01*
X78077206Y-87539142D01*
X78097861Y-87488366D01*
X78120219Y-87438758D01*
X78144342Y-87390139D01*
X78170293Y-87342325D01*
X78198135Y-87295136D01*
X78227932Y-87248390D01*
X78259745Y-87201905D01*
X78329673Y-87108995D01*
X78408421Y-87014953D01*
X78496493Y-86918327D01*
X78537205Y-86877395D01*
X78578793Y-86838536D01*
X78621187Y-86801699D01*
X78664318Y-86766834D01*
X78752509Y-86702817D01*
X78842811Y-86646079D01*
X78934665Y-86596212D01*
X79027514Y-86552813D01*
X79120802Y-86515473D01*
X79213970Y-86483788D01*
X79306461Y-86457351D01*
X79397718Y-86435757D01*
X79487184Y-86418598D01*
X79574301Y-86405470D01*
X79658513Y-86395966D01*
X79739261Y-86389680D01*
X79815989Y-86386207D01*
X79888139Y-86385139D01*
X79963247Y-86386384D01*
X80036806Y-86390076D01*
X80108825Y-86396153D01*
X80179312Y-86404553D01*
X80248276Y-86415212D01*
X80315724Y-86428068D01*
X80381665Y-86443058D01*
X80446108Y-86460121D01*
X80509061Y-86479192D01*
X80570532Y-86500209D01*
X80630530Y-86523111D01*
X80689064Y-86547833D01*
X80746141Y-86574314D01*
X80801771Y-86602491D01*
X80855961Y-86632300D01*
X80908720Y-86663681D01*
X80960057Y-86696569D01*
X81009979Y-86730902D01*
X81058496Y-86766618D01*
X81105615Y-86803654D01*
X81195695Y-86881434D01*
X81280287Y-86963742D01*
X81359459Y-87050077D01*
X81433276Y-87139938D01*
X81501808Y-87232822D01*
X81565121Y-87328229D01*
X81605043Y-87256776D01*
X81646180Y-87188869D01*
X81688460Y-87124426D01*
X81731811Y-87063362D01*
X81776163Y-87005594D01*
X81821443Y-86951037D01*
X81867580Y-86899608D01*
X81914502Y-86851223D01*
X81962137Y-86805798D01*
X82010415Y-86763250D01*
X82059262Y-86723494D01*
X82108609Y-86686446D01*
X82158382Y-86652023D01*
X82208511Y-86620141D01*
X82309548Y-86563663D01*
X82411147Y-86516343D01*
X82512736Y-86477508D01*
X82613740Y-86446489D01*
X82713588Y-86422614D01*
X82811705Y-86405212D01*
X82907520Y-86393613D01*
X83000459Y-86387146D01*
X83089949Y-86385139D01*
X83180995Y-86386649D01*
G37*
G36*
X68448832Y-94280719D02*
G01*
X68467531Y-94282041D01*
X68486168Y-94284038D01*
X68504754Y-94286729D01*
X68523302Y-94290136D01*
X68541824Y-94294278D01*
X68560332Y-94299175D01*
X68578840Y-94304849D01*
X68580121Y-94304849D01*
X68581288Y-94305081D01*
X68604514Y-94313334D01*
X68627316Y-94322671D01*
X68649647Y-94333080D01*
X68671462Y-94344544D01*
X68692712Y-94357050D01*
X68713351Y-94370584D01*
X68733333Y-94385130D01*
X68752610Y-94400674D01*
X68771134Y-94417202D01*
X68788861Y-94434699D01*
X68805742Y-94453150D01*
X68821730Y-94472542D01*
X68836779Y-94492860D01*
X68850842Y-94514088D01*
X68863872Y-94536213D01*
X68875821Y-94559220D01*
X69932421Y-96729808D01*
X69942842Y-96752737D01*
X69951959Y-96775919D01*
X69959789Y-96799314D01*
X69966346Y-96822878D01*
X69971645Y-96846570D01*
X69975703Y-96870348D01*
X69978534Y-96894171D01*
X69980154Y-96917996D01*
X69980577Y-96941782D01*
X69979820Y-96965486D01*
X69977897Y-96989068D01*
X69974824Y-97012484D01*
X69970616Y-97035694D01*
X69965289Y-97058655D01*
X69958857Y-97081325D01*
X69951337Y-97103664D01*
X69942742Y-97125628D01*
X69933090Y-97147176D01*
X69922394Y-97168267D01*
X69910670Y-97188857D01*
X69897934Y-97208907D01*
X69884201Y-97228373D01*
X69869486Y-97247213D01*
X69853805Y-97265387D01*
X69837172Y-97282852D01*
X69819603Y-97299566D01*
X69801114Y-97315487D01*
X69781719Y-97330574D01*
X69761435Y-97344785D01*
X69740275Y-97358077D01*
X69718256Y-97370410D01*
X69695393Y-97381741D01*
X69671960Y-97391946D01*
X69648270Y-97400873D01*
X69624366Y-97408537D01*
X69600290Y-97414955D01*
X69576085Y-97420140D01*
X69551794Y-97424109D01*
X69527458Y-97426875D01*
X69503122Y-97428455D01*
X69478826Y-97428864D01*
X69454614Y-97428116D01*
X69430529Y-97426227D01*
X69406613Y-97423211D01*
X69382908Y-97419085D01*
X69359458Y-97413863D01*
X69336304Y-97407560D01*
X69313490Y-97400191D01*
X69291058Y-97391772D01*
X69269050Y-97382318D01*
X69247509Y-97371843D01*
X69226479Y-97360363D01*
X69206000Y-97347894D01*
X69186117Y-97334449D01*
X69166871Y-97320045D01*
X69148305Y-97304697D01*
X69130462Y-97288419D01*
X69113384Y-97271227D01*
X69097115Y-97253136D01*
X69081695Y-97234160D01*
X69067169Y-97214316D01*
X69053578Y-97193618D01*
X69040966Y-97172082D01*
X69029375Y-97149722D01*
X68419238Y-95895797D01*
X68419231Y-95895797D01*
X67796054Y-97152983D01*
X67784271Y-97175231D01*
X67771478Y-97196651D01*
X67757716Y-97217227D01*
X67743028Y-97236945D01*
X67727457Y-97255789D01*
X67711044Y-97273746D01*
X67693832Y-97290800D01*
X67675864Y-97306936D01*
X67657182Y-97322140D01*
X67637829Y-97336397D01*
X67617846Y-97349691D01*
X67597276Y-97362008D01*
X67576162Y-97373334D01*
X67554546Y-97383653D01*
X67532470Y-97392950D01*
X67509977Y-97401211D01*
X67487109Y-97408421D01*
X67463908Y-97414565D01*
X67440418Y-97419628D01*
X67416680Y-97423596D01*
X67392737Y-97426453D01*
X67368630Y-97428184D01*
X67344404Y-97428776D01*
X67320099Y-97428212D01*
X67295759Y-97426479D01*
X67271426Y-97423561D01*
X67247141Y-97419443D01*
X67222948Y-97414111D01*
X67198890Y-97407550D01*
X67175007Y-97399745D01*
X67151343Y-97390681D01*
X67127941Y-97380344D01*
X67105210Y-97368830D01*
X67083327Y-97356319D01*
X67062305Y-97342854D01*
X67042161Y-97328476D01*
X67022909Y-97313228D01*
X67004564Y-97297151D01*
X66987143Y-97280288D01*
X66970660Y-97262682D01*
X66955130Y-97244373D01*
X66940569Y-97225405D01*
X66926992Y-97205819D01*
X66914415Y-97185658D01*
X66902851Y-97164963D01*
X66892317Y-97143777D01*
X66882828Y-97122141D01*
X66874400Y-97100099D01*
X66867046Y-97077691D01*
X66860784Y-97054961D01*
X66855627Y-97031950D01*
X66851591Y-97008701D01*
X66848691Y-96985255D01*
X66846943Y-96961655D01*
X66846362Y-96937942D01*
X66846963Y-96914160D01*
X66848762Y-96890350D01*
X66851773Y-96866553D01*
X66856011Y-96842813D01*
X66861493Y-96819172D01*
X66868233Y-96795670D01*
X66876246Y-96772352D01*
X66885549Y-96749258D01*
X66896155Y-96726431D01*
X67972195Y-94556076D01*
X67983946Y-94533855D01*
X67996690Y-94512475D01*
X68010385Y-94491946D01*
X68024989Y-94472283D01*
X68040460Y-94453498D01*
X68056758Y-94435603D01*
X68073840Y-94418612D01*
X68091665Y-94402537D01*
X68110192Y-94387391D01*
X68129378Y-94373186D01*
X68149182Y-94359937D01*
X68169562Y-94347655D01*
X68190478Y-94336353D01*
X68211886Y-94326045D01*
X68233746Y-94316742D01*
X68256016Y-94308457D01*
X68257415Y-94308223D01*
X68263469Y-94306247D01*
X68283084Y-94300073D01*
X68302801Y-94294737D01*
X68322603Y-94290232D01*
X68342472Y-94286556D01*
X68362389Y-94283703D01*
X68382338Y-94281671D01*
X68402301Y-94280455D01*
X68422259Y-94280050D01*
X68430058Y-94280050D01*
X68448832Y-94280719D01*
G37*
G36*
X52693323Y-94282544D02*
G01*
X52744492Y-94287356D01*
X52795083Y-94295593D01*
X52844678Y-94307433D01*
X52868973Y-94314760D01*
X52892863Y-94323055D01*
X52916295Y-94332339D01*
X52939219Y-94342635D01*
X52961582Y-94353966D01*
X52983332Y-94366353D01*
X53004417Y-94379818D01*
X53024784Y-94394385D01*
X53044383Y-94410074D01*
X53063160Y-94426909D01*
X53081065Y-94444911D01*
X53098044Y-94464104D01*
X53114046Y-94484508D01*
X53129019Y-94506147D01*
X53142910Y-94529042D01*
X53155668Y-94553216D01*
X53167241Y-94578691D01*
X53177576Y-94605489D01*
X53186622Y-94633632D01*
X53194326Y-94663144D01*
X53200637Y-94694045D01*
X53205503Y-94726358D01*
X53208871Y-94760106D01*
X53210689Y-94795310D01*
X53210689Y-96861937D01*
X53210071Y-96898235D01*
X53208217Y-96933226D01*
X53205126Y-96966920D01*
X53200798Y-96999329D01*
X53195233Y-97030463D01*
X53188431Y-97060332D01*
X53180391Y-97088948D01*
X53171113Y-97116321D01*
X53160596Y-97142462D01*
X53148842Y-97167382D01*
X53135848Y-97191091D01*
X53121616Y-97213600D01*
X53106144Y-97234920D01*
X53089432Y-97255061D01*
X53071480Y-97274035D01*
X53052289Y-97291851D01*
X53031857Y-97308522D01*
X53010184Y-97324056D01*
X52987270Y-97338466D01*
X52963115Y-97351762D01*
X52937718Y-97363954D01*
X52911079Y-97375053D01*
X52883198Y-97385071D01*
X52854075Y-97394017D01*
X52823710Y-97401902D01*
X52792101Y-97408738D01*
X52725153Y-97419303D01*
X52653231Y-97425797D01*
X52576331Y-97428306D01*
X51895060Y-97426911D01*
X51812980Y-97425095D01*
X51731834Y-97419525D01*
X51651727Y-97410277D01*
X51572766Y-97397430D01*
X51495056Y-97381059D01*
X51418705Y-97361241D01*
X51343818Y-97338055D01*
X51270502Y-97311577D01*
X51198863Y-97281884D01*
X51129007Y-97249054D01*
X51061041Y-97213162D01*
X50995070Y-97174287D01*
X50931202Y-97132505D01*
X50869542Y-97087894D01*
X50810197Y-97040531D01*
X50753273Y-96990492D01*
X50698877Y-96937855D01*
X50647113Y-96882697D01*
X50598090Y-96825095D01*
X50551913Y-96765126D01*
X50508688Y-96702867D01*
X50468522Y-96638395D01*
X50431521Y-96571787D01*
X50397791Y-96503121D01*
X50367439Y-96432473D01*
X50340571Y-96359921D01*
X50317292Y-96285541D01*
X50297710Y-96209411D01*
X50281931Y-96131607D01*
X50270061Y-96052208D01*
X50262206Y-95971289D01*
X50258473Y-95888929D01*
X50260697Y-95804409D01*
X51262098Y-95804409D01*
X51264470Y-95861933D01*
X51271607Y-95920696D01*
X51283534Y-95980048D01*
X51300279Y-96039341D01*
X51321868Y-96097925D01*
X51334488Y-96126748D01*
X51348329Y-96155151D01*
X51363394Y-96183052D01*
X51379688Y-96210370D01*
X51397213Y-96237023D01*
X51415972Y-96262932D01*
X51435970Y-96288014D01*
X51457209Y-96312189D01*
X51479692Y-96335375D01*
X51503424Y-96357491D01*
X51528408Y-96378456D01*
X51554646Y-96398188D01*
X51582143Y-96416608D01*
X51610901Y-96433633D01*
X51640924Y-96449182D01*
X51672216Y-96463175D01*
X51704779Y-96475530D01*
X51738617Y-96486165D01*
X51773734Y-96495001D01*
X51810133Y-96501955D01*
X51847817Y-96506946D01*
X51886789Y-96509894D01*
X52196694Y-96509894D01*
X52196694Y-95169589D01*
X51897032Y-95169589D01*
X51858007Y-95171434D01*
X51820275Y-95175050D01*
X51783830Y-95180377D01*
X51748667Y-95187354D01*
X51714780Y-95195920D01*
X51682163Y-95206013D01*
X51650812Y-95217572D01*
X51620720Y-95230536D01*
X51591882Y-95244845D01*
X51564293Y-95260437D01*
X51537947Y-95277250D01*
X51512838Y-95295225D01*
X51488962Y-95314299D01*
X51466312Y-95334412D01*
X51444884Y-95355502D01*
X51424671Y-95377509D01*
X51405668Y-95400372D01*
X51387869Y-95424028D01*
X51371270Y-95448418D01*
X51355865Y-95473480D01*
X51341647Y-95499153D01*
X51328612Y-95525376D01*
X51306068Y-95579227D01*
X51288189Y-95634545D01*
X51274930Y-95690840D01*
X51266248Y-95747625D01*
X51262098Y-95804409D01*
X50260697Y-95804409D01*
X50262177Y-95748153D01*
X50278892Y-95605787D01*
X50308634Y-95463321D01*
X50351420Y-95322248D01*
X50377709Y-95252699D01*
X50407266Y-95184058D01*
X50440093Y-95116511D01*
X50476190Y-95050245D01*
X50515562Y-94985445D01*
X50558209Y-94922299D01*
X50604134Y-94860993D01*
X50653339Y-94801713D01*
X50705827Y-94744645D01*
X50761598Y-94689978D01*
X50820656Y-94637895D01*
X50883002Y-94588586D01*
X50948638Y-94542234D01*
X51017568Y-94499028D01*
X51089792Y-94459154D01*
X51165312Y-94422798D01*
X51244132Y-94390147D01*
X51326253Y-94361386D01*
X51411677Y-94336703D01*
X51500407Y-94316284D01*
X51592443Y-94300316D01*
X51687790Y-94288985D01*
X51786448Y-94282477D01*
X51888419Y-94280979D01*
X52641991Y-94280979D01*
X52693323Y-94282544D01*
G37*
D11*
X30000000Y-20000000D02*
X30000000Y-120000000D01*
D10*
G36*
X68112338Y-74783962D02*
G01*
X68149326Y-74787337D01*
X68186211Y-74792463D01*
X68222923Y-74799340D01*
X68259392Y-74807966D01*
X68295548Y-74818341D01*
X68331323Y-74830463D01*
X68366646Y-74844330D01*
X68401447Y-74859942D01*
X68435657Y-74877298D01*
X68469207Y-74896396D01*
X68502025Y-74917235D01*
X68534044Y-74939815D01*
X68565192Y-74964133D01*
X68595401Y-74990188D01*
X68624600Y-75017981D01*
X70684707Y-77077976D01*
X72744467Y-75017981D01*
X72773667Y-74990188D01*
X72803880Y-74964133D01*
X72835034Y-74939815D01*
X72867061Y-74917235D01*
X72899890Y-74896396D01*
X72933452Y-74877298D01*
X72967677Y-74859942D01*
X73002494Y-74844330D01*
X73037834Y-74830463D01*
X73073627Y-74818341D01*
X73109803Y-74807967D01*
X73146292Y-74799341D01*
X73183025Y-74792464D01*
X73219931Y-74787338D01*
X73256940Y-74783963D01*
X73293984Y-74782341D01*
X73330991Y-74782474D01*
X73367892Y-74784362D01*
X73404618Y-74788006D01*
X73441097Y-74793407D01*
X73477261Y-74800568D01*
X73513040Y-74809488D01*
X73548362Y-74820170D01*
X73583160Y-74832614D01*
X73617363Y-74846821D01*
X73650900Y-74862793D01*
X73683703Y-74880531D01*
X73715700Y-74900036D01*
X73746823Y-74921309D01*
X73777002Y-74944351D01*
X73806166Y-74969164D01*
X73834246Y-74995748D01*
X73860893Y-75023889D01*
X73885764Y-75053108D01*
X73908861Y-75083334D01*
X73930184Y-75114498D01*
X73949735Y-75146531D01*
X73967515Y-75179363D01*
X73983527Y-75212924D01*
X73997770Y-75247146D01*
X74010247Y-75281958D01*
X74020959Y-75317291D01*
X74029908Y-75353076D01*
X74037095Y-75389243D01*
X74042520Y-75425722D01*
X74046187Y-75462445D01*
X74048095Y-75499341D01*
X74048247Y-75536341D01*
X74046644Y-75573375D01*
X74043287Y-75610374D01*
X74038178Y-75647269D01*
X74031318Y-75683989D01*
X74022709Y-75720466D01*
X74012351Y-75756630D01*
X74000247Y-75792412D01*
X73986397Y-75827741D01*
X73970804Y-75862548D01*
X73953468Y-75896764D01*
X73934391Y-75930320D01*
X73913574Y-75963146D01*
X73891019Y-75995171D01*
X73866728Y-76026328D01*
X73840701Y-76056545D01*
X73812940Y-76085755D01*
X72507793Y-77390204D01*
X74353345Y-77390204D01*
X74393659Y-77391223D01*
X74433456Y-77394182D01*
X74472684Y-77399033D01*
X74511295Y-77405728D01*
X74549238Y-77414219D01*
X74586463Y-77424457D01*
X74622920Y-77436394D01*
X74658560Y-77449982D01*
X74693332Y-77465173D01*
X74727187Y-77481919D01*
X74760073Y-77500171D01*
X74791943Y-77519881D01*
X74822744Y-77541002D01*
X74852429Y-77563484D01*
X74880945Y-77587280D01*
X74908245Y-77612341D01*
X74934277Y-77638620D01*
X74958991Y-77666067D01*
X74982338Y-77694636D01*
X75004268Y-77724277D01*
X75024731Y-77754943D01*
X75043676Y-77786585D01*
X75061055Y-77819155D01*
X75076816Y-77852605D01*
X75090910Y-77886886D01*
X75103287Y-77921951D01*
X75113897Y-77957752D01*
X75122689Y-77994239D01*
X75129615Y-78031365D01*
X75134624Y-78069083D01*
X75137666Y-78107342D01*
X75138691Y-78146096D01*
X75137664Y-78184744D01*
X75134615Y-78222902D01*
X75129596Y-78260523D01*
X75122656Y-78297559D01*
X75113846Y-78333960D01*
X75103217Y-78369678D01*
X75090819Y-78404666D01*
X75076701Y-78438874D01*
X75060916Y-78472254D01*
X75043513Y-78504759D01*
X75024542Y-78536338D01*
X75004054Y-78566945D01*
X74982099Y-78596530D01*
X74958728Y-78625046D01*
X74933992Y-78652444D01*
X74907940Y-78678675D01*
X74880623Y-78703691D01*
X74852091Y-78727444D01*
X74822395Y-78749885D01*
X74791585Y-78770967D01*
X74759712Y-78790640D01*
X74726826Y-78808856D01*
X74692978Y-78825566D01*
X74658217Y-78840724D01*
X74622595Y-78854279D01*
X74586161Y-78866184D01*
X74548967Y-78876390D01*
X74511062Y-78884849D01*
X74472496Y-78891512D01*
X74433322Y-78896332D01*
X74393588Y-78899259D01*
X74353345Y-78900245D01*
X72507793Y-78900245D01*
X73812940Y-80206204D01*
X73840701Y-80235351D01*
X73866728Y-80265512D01*
X73891019Y-80296618D01*
X73913574Y-80328597D01*
X73934391Y-80361381D01*
X73953468Y-80394899D01*
X73970804Y-80429082D01*
X73986397Y-80463859D01*
X74000247Y-80499161D01*
X74012351Y-80534918D01*
X74022709Y-80571060D01*
X74031318Y-80607516D01*
X74038178Y-80644218D01*
X74043287Y-80681095D01*
X74046644Y-80718078D01*
X74048247Y-80755096D01*
X74048095Y-80792079D01*
X74046187Y-80828959D01*
X74042520Y-80865663D01*
X74037095Y-80902124D01*
X74029908Y-80938271D01*
X74020959Y-80974034D01*
X74010247Y-81009343D01*
X73997770Y-81044128D01*
X73983527Y-81078319D01*
X73967515Y-81111847D01*
X73949735Y-81144642D01*
X73930184Y-81176633D01*
X73908861Y-81207751D01*
X73885764Y-81237926D01*
X73860893Y-81267088D01*
X73834246Y-81295167D01*
X73806207Y-81321815D01*
X73777078Y-81346685D01*
X73746930Y-81369780D01*
X73715833Y-81391101D01*
X73683857Y-81410649D01*
X73651072Y-81428427D01*
X73617548Y-81444435D01*
X73583356Y-81458675D01*
X73548564Y-81471149D01*
X73513245Y-81481858D01*
X73477467Y-81490803D01*
X73441301Y-81497986D01*
X73404817Y-81503408D01*
X73368085Y-81507071D01*
X73331175Y-81508976D01*
X73294158Y-81509125D01*
X73257103Y-81507520D01*
X73220080Y-81504161D01*
X73183161Y-81499050D01*
X73146414Y-81492189D01*
X73109910Y-81483579D01*
X73073720Y-81473221D01*
X73037913Y-81461118D01*
X73002559Y-81447270D01*
X72967728Y-81431679D01*
X72933492Y-81414347D01*
X72899919Y-81395274D01*
X72867080Y-81374463D01*
X72835045Y-81351915D01*
X72803885Y-81327631D01*
X72773668Y-81301613D01*
X72744467Y-81273863D01*
X71440018Y-79968483D01*
X71440018Y-81814035D01*
X71439032Y-81854352D01*
X71436103Y-81894154D01*
X71431282Y-81933392D01*
X71424615Y-81972016D01*
X71416151Y-82009975D01*
X71405939Y-82047219D01*
X71394027Y-82083698D01*
X71380462Y-82119361D01*
X71365294Y-82154159D01*
X71348570Y-82188041D01*
X71330339Y-82220957D01*
X71310648Y-82252856D01*
X71289547Y-82283689D01*
X71267083Y-82313405D01*
X71243304Y-82341955D01*
X71218260Y-82369287D01*
X71191997Y-82395352D01*
X71164565Y-82420099D01*
X71136011Y-82443478D01*
X71106384Y-82465439D01*
X71075732Y-82485932D01*
X71044103Y-82504907D01*
X71011546Y-82522312D01*
X70978109Y-82538099D01*
X70943839Y-82552217D01*
X70908786Y-82564615D01*
X70872997Y-82575243D01*
X70836521Y-82584052D01*
X70799405Y-82590991D01*
X70761699Y-82596009D01*
X70723450Y-82599057D01*
X70684707Y-82600084D01*
X70646018Y-82599055D01*
X70607823Y-82596003D01*
X70570170Y-82590977D01*
X70533106Y-82584028D01*
X70496681Y-82575207D01*
X70460942Y-82564565D01*
X70425937Y-82552151D01*
X70391715Y-82538017D01*
X70358324Y-82522213D01*
X70325812Y-82504790D01*
X70294227Y-82485797D01*
X70263618Y-82465286D01*
X70234032Y-82443307D01*
X70205517Y-82419911D01*
X70178123Y-82395148D01*
X70151897Y-82369069D01*
X70126887Y-82341724D01*
X70103141Y-82313164D01*
X70080708Y-82283439D01*
X70059636Y-82252601D01*
X70039972Y-82220698D01*
X70021766Y-82187783D01*
X70005065Y-82153905D01*
X69989918Y-82119116D01*
X69976372Y-82083465D01*
X69964476Y-82047003D01*
X69954278Y-82009781D01*
X69945826Y-81971849D01*
X69939168Y-81933258D01*
X69934353Y-81894058D01*
X69931429Y-81854301D01*
X69930443Y-81814035D01*
X69930443Y-79968483D01*
X68624600Y-81273863D01*
X68595402Y-81301613D01*
X68565197Y-81327631D01*
X68534055Y-81351915D01*
X68502045Y-81374463D01*
X68469236Y-81395274D01*
X68435697Y-81414347D01*
X68401499Y-81431679D01*
X68366711Y-81447270D01*
X68331402Y-81461118D01*
X68295642Y-81473221D01*
X68259500Y-81483579D01*
X68223045Y-81492189D01*
X68186348Y-81499050D01*
X68149476Y-81504161D01*
X68112501Y-81507520D01*
X68075491Y-81509125D01*
X68038516Y-81508976D01*
X68001645Y-81507071D01*
X67964948Y-81503408D01*
X67928494Y-81497986D01*
X67892352Y-81490803D01*
X67856593Y-81481858D01*
X67821285Y-81471149D01*
X67786498Y-81458675D01*
X67752301Y-81444435D01*
X67718764Y-81428427D01*
X67685956Y-81410649D01*
X67653948Y-81391101D01*
X67622807Y-81369780D01*
X67592604Y-81346685D01*
X67563408Y-81321815D01*
X67535288Y-81295167D01*
X67508652Y-81267138D01*
X67483791Y-81238018D01*
X67460705Y-81207877D01*
X67439393Y-81176785D01*
X67419853Y-81144814D01*
X67402083Y-81112033D01*
X67386082Y-81078512D01*
X67371848Y-81044323D01*
X67359381Y-81009535D01*
X67348679Y-80974220D01*
X67339740Y-80938447D01*
X67332563Y-80902286D01*
X67327146Y-80865809D01*
X67323489Y-80829086D01*
X67321589Y-80792187D01*
X67321445Y-80755182D01*
X67323056Y-80718142D01*
X67326421Y-80681137D01*
X67331537Y-80644238D01*
X67338404Y-80607515D01*
X67347020Y-80571039D01*
X67357384Y-80534879D01*
X67369494Y-80499107D01*
X67383348Y-80463793D01*
X67398946Y-80429006D01*
X67416286Y-80394819D01*
X67435367Y-80361300D01*
X67456186Y-80328520D01*
X67478743Y-80296551D01*
X67503036Y-80265461D01*
X67529064Y-80235322D01*
X67556826Y-80206204D01*
X68861974Y-78900245D01*
X67016072Y-78900245D01*
X66975869Y-78899259D01*
X66936168Y-78896332D01*
X66897020Y-78891512D01*
X66858474Y-78884849D01*
X66820583Y-78876390D01*
X66783397Y-78866184D01*
X66746966Y-78854279D01*
X66711342Y-78840724D01*
X66676575Y-78825566D01*
X66642717Y-78808856D01*
X66609817Y-78790640D01*
X66577926Y-78770967D01*
X66547097Y-78749885D01*
X66517378Y-78727444D01*
X66488822Y-78703691D01*
X66461478Y-78678675D01*
X66435398Y-78652444D01*
X66410632Y-78625046D01*
X66387232Y-78596530D01*
X66365248Y-78566945D01*
X66344730Y-78536338D01*
X66325730Y-78504759D01*
X66308299Y-78472254D01*
X66292487Y-78438874D01*
X66278345Y-78404666D01*
X66265923Y-78369678D01*
X66255274Y-78333960D01*
X66246446Y-78297559D01*
X66239492Y-78260523D01*
X66234462Y-78222902D01*
X66231407Y-78184744D01*
X66230377Y-78146096D01*
X66231404Y-78107341D01*
X66234453Y-78069079D01*
X66239473Y-78031357D01*
X66246413Y-77994225D01*
X66255223Y-77957730D01*
X66265853Y-77921921D01*
X66278253Y-77886847D01*
X66292372Y-77852556D01*
X66308160Y-77819095D01*
X66325566Y-77786514D01*
X66344541Y-77754862D01*
X66365033Y-77724185D01*
X66386992Y-77694533D01*
X66410369Y-77665955D01*
X66435112Y-77638498D01*
X66461172Y-77612210D01*
X66488498Y-77587141D01*
X66517039Y-77563339D01*
X66546746Y-77540852D01*
X66577568Y-77519728D01*
X66609454Y-77500016D01*
X66642355Y-77481764D01*
X66676220Y-77465021D01*
X66710998Y-77449835D01*
X66746640Y-77436254D01*
X66783094Y-77424327D01*
X66820311Y-77414102D01*
X66858240Y-77405628D01*
X66896831Y-77398953D01*
X66936034Y-77394125D01*
X66975797Y-77391193D01*
X67016072Y-77390204D01*
X68861974Y-77390204D01*
X67556826Y-76085755D01*
X67529064Y-76056576D01*
X67503036Y-76026385D01*
X67478743Y-75995252D01*
X67456186Y-75963246D01*
X67435367Y-75930437D01*
X67416286Y-75896895D01*
X67398946Y-75862689D01*
X67383348Y-75827889D01*
X67369494Y-75792565D01*
X67357384Y-75756786D01*
X67347020Y-75720622D01*
X67338404Y-75684144D01*
X67331537Y-75647420D01*
X67326421Y-75610520D01*
X67323056Y-75573515D01*
X67321445Y-75536473D01*
X67321589Y-75499464D01*
X67323489Y-75462559D01*
X67327146Y-75425826D01*
X67332563Y-75389336D01*
X67339740Y-75353159D01*
X67348679Y-75317363D01*
X67359381Y-75282019D01*
X67371848Y-75247196D01*
X67386082Y-75212964D01*
X67402083Y-75179394D01*
X67419853Y-75146553D01*
X67439393Y-75114513D01*
X67460705Y-75083343D01*
X67483791Y-75053112D01*
X67508652Y-75023891D01*
X67535288Y-74995748D01*
X67563367Y-74969164D01*
X67592527Y-74944351D01*
X67622699Y-74921308D01*
X67653814Y-74900035D01*
X67685801Y-74880530D01*
X67718591Y-74862792D01*
X67752114Y-74846820D01*
X67786301Y-74832613D01*
X67821082Y-74820169D01*
X67856386Y-74809487D01*
X67892145Y-74800567D01*
X67928289Y-74793406D01*
X67964748Y-74788005D01*
X68001452Y-74784361D01*
X68038331Y-74782473D01*
X68075317Y-74782340D01*
X68112338Y-74783962D01*
G37*
G36*
X55245137Y-94276356D02*
G01*
X55324810Y-94283866D01*
X55362778Y-94289545D01*
X55399489Y-94296527D01*
X55434933Y-94304827D01*
X55469100Y-94314460D01*
X55501981Y-94325439D01*
X55533568Y-94337781D01*
X55563850Y-94351500D01*
X55592819Y-94366611D01*
X55620465Y-94383129D01*
X55646780Y-94401069D01*
X55671752Y-94420445D01*
X55695375Y-94441272D01*
X55717637Y-94463566D01*
X55738531Y-94487340D01*
X55758046Y-94512611D01*
X55776174Y-94539392D01*
X55792904Y-94567700D01*
X55808229Y-94597547D01*
X55822137Y-94628950D01*
X55834622Y-94661924D01*
X55845672Y-94696482D01*
X55855279Y-94732640D01*
X55863433Y-94770414D01*
X55870126Y-94809816D01*
X55875347Y-94850864D01*
X55879088Y-94893571D01*
X55881340Y-94937952D01*
X55882092Y-94984022D01*
X55882092Y-96718163D01*
X55881340Y-96764254D01*
X55879088Y-96808653D01*
X55875347Y-96851375D01*
X55870126Y-96892435D01*
X55863433Y-96931849D01*
X55855279Y-96969630D01*
X55845672Y-97005795D01*
X55834622Y-97040359D01*
X55822137Y-97073335D01*
X55808229Y-97104740D01*
X55792904Y-97134588D01*
X55776174Y-97162894D01*
X55758046Y-97189673D01*
X55738531Y-97214940D01*
X55717637Y-97238710D01*
X55695375Y-97260999D01*
X55671752Y-97281820D01*
X55646780Y-97301190D01*
X55620465Y-97319122D01*
X55592819Y-97335633D01*
X55563850Y-97350737D01*
X55533568Y-97364448D01*
X55501981Y-97376783D01*
X55469100Y-97387756D01*
X55434933Y-97397382D01*
X55399489Y-97405675D01*
X55362778Y-97412652D01*
X55324810Y-97418326D01*
X55245137Y-97425829D01*
X55160544Y-97428303D01*
X54216867Y-97428303D01*
X54161689Y-97426245D01*
X54109789Y-97418699D01*
X54061194Y-97406028D01*
X54015933Y-97388598D01*
X53974033Y-97366771D01*
X53935522Y-97340913D01*
X53900428Y-97311388D01*
X53868780Y-97278559D01*
X53840604Y-97242792D01*
X53815930Y-97204449D01*
X53794784Y-97163897D01*
X53777195Y-97121498D01*
X53763191Y-97077616D01*
X53752800Y-97032617D01*
X53746049Y-96986865D01*
X53742967Y-96940722D01*
X53743581Y-96894555D01*
X53747919Y-96848726D01*
X53756010Y-96803601D01*
X53767881Y-96759543D01*
X53783560Y-96716917D01*
X53803075Y-96676086D01*
X53826454Y-96637416D01*
X53853725Y-96601270D01*
X53884916Y-96568012D01*
X53920055Y-96538007D01*
X53959169Y-96511619D01*
X54002287Y-96489212D01*
X54049436Y-96471151D01*
X54100645Y-96457798D01*
X54155941Y-96449520D01*
X54215353Y-96446680D01*
X54875206Y-96446680D01*
X54875206Y-96186606D01*
X54387772Y-96186606D01*
X54366375Y-96186134D01*
X54345249Y-96184734D01*
X54324419Y-96182429D01*
X54303914Y-96179241D01*
X54283760Y-96175195D01*
X54263983Y-96170314D01*
X54244611Y-96164620D01*
X54225670Y-96158137D01*
X54207187Y-96150888D01*
X54189188Y-96142897D01*
X54171702Y-96134186D01*
X54154754Y-96124779D01*
X54138372Y-96114698D01*
X54122581Y-96103968D01*
X54107410Y-96092612D01*
X54092884Y-96080652D01*
X54079031Y-96068112D01*
X54065878Y-96055015D01*
X54053450Y-96041384D01*
X54041776Y-96027243D01*
X54030881Y-96012614D01*
X54020793Y-95997522D01*
X54011539Y-95981988D01*
X54003145Y-95966037D01*
X53995638Y-95949691D01*
X53989045Y-95932975D01*
X53983393Y-95915910D01*
X53978708Y-95898520D01*
X53975018Y-95880829D01*
X53972349Y-95862859D01*
X53970727Y-95844634D01*
X53970181Y-95826177D01*
X53970727Y-95807659D01*
X53972349Y-95789380D01*
X53975018Y-95771363D01*
X53978708Y-95753631D01*
X53983393Y-95736207D01*
X53989045Y-95719113D01*
X53995638Y-95702372D01*
X54003145Y-95686008D01*
X54011539Y-95670043D01*
X54020793Y-95654500D01*
X54030881Y-95639403D01*
X54041776Y-95624772D01*
X54053450Y-95610633D01*
X54065878Y-95597007D01*
X54079031Y-95583918D01*
X54092884Y-95571388D01*
X54107410Y-95559440D01*
X54122581Y-95548097D01*
X54138372Y-95537382D01*
X54154754Y-95527318D01*
X54171702Y-95517927D01*
X54189188Y-95509234D01*
X54207187Y-95501259D01*
X54225670Y-95494027D01*
X54244611Y-95487560D01*
X54263983Y-95481881D01*
X54283760Y-95477013D01*
X54303914Y-95472979D01*
X54324419Y-95469801D01*
X54345249Y-95467503D01*
X54366375Y-95466108D01*
X54387772Y-95465638D01*
X54875206Y-95465638D01*
X54875206Y-95255737D01*
X54215353Y-95255737D01*
X54155941Y-95252897D01*
X54100645Y-95244621D01*
X54049436Y-95231272D01*
X54002287Y-95213214D01*
X53959169Y-95190811D01*
X53920055Y-95164428D01*
X53884916Y-95134428D01*
X53853725Y-95101176D01*
X53826454Y-95065035D01*
X53803075Y-95026370D01*
X53783560Y-94985545D01*
X53767881Y-94942923D01*
X53756010Y-94898869D01*
X53747919Y-94853746D01*
X53743581Y-94807920D01*
X53742967Y-94761753D01*
X53746049Y-94715610D01*
X53752800Y-94669855D01*
X53763191Y-94624852D01*
X53777195Y-94580965D01*
X53794784Y-94538558D01*
X53815930Y-94497995D01*
X53840604Y-94459640D01*
X53868780Y-94423857D01*
X53900428Y-94391011D01*
X53935522Y-94361465D01*
X53974033Y-94335583D01*
X54015933Y-94313729D01*
X54061194Y-94296268D01*
X54109789Y-94283563D01*
X54161689Y-94275979D01*
X54216867Y-94273879D01*
X55160544Y-94273879D01*
X55245137Y-94276356D01*
G37*
G36*
X70734973Y-73692794D02*
G01*
X70784240Y-73696543D01*
X70832791Y-73702717D01*
X70880567Y-73711254D01*
X70927505Y-73722094D01*
X70973546Y-73735175D01*
X71018627Y-73750435D01*
X71062689Y-73767815D01*
X71105669Y-73787251D01*
X71147507Y-73808684D01*
X71188141Y-73832052D01*
X71227512Y-73857294D01*
X71265557Y-73884349D01*
X71302215Y-73913155D01*
X71337426Y-73943652D01*
X71371129Y-73975777D01*
X71403261Y-74009470D01*
X71433764Y-74044670D01*
X71462574Y-74081316D01*
X71489632Y-74119346D01*
X71514876Y-74158698D01*
X71538245Y-74199313D01*
X71559679Y-74241128D01*
X71579115Y-74284083D01*
X71596493Y-74328116D01*
X71611753Y-74373166D01*
X71624832Y-74419172D01*
X71635670Y-74466073D01*
X71644206Y-74513807D01*
X71650379Y-74562313D01*
X71654127Y-74611530D01*
X71655390Y-74661398D01*
X71654127Y-74711349D01*
X71650379Y-74760645D01*
X71644206Y-74809224D01*
X71635670Y-74857025D01*
X71624832Y-74903988D01*
X71611753Y-74950051D01*
X71596493Y-74995153D01*
X71579115Y-75039233D01*
X71559679Y-75082231D01*
X71538245Y-75124085D01*
X71514876Y-75164734D01*
X71489632Y-75204117D01*
X71462574Y-75242174D01*
X71433764Y-75278844D01*
X71403261Y-75314065D01*
X71371129Y-75347776D01*
X71337426Y-75379916D01*
X71302215Y-75410425D01*
X71265557Y-75439241D01*
X71227512Y-75466304D01*
X71188141Y-75491552D01*
X71147507Y-75514925D01*
X71105669Y-75536361D01*
X71062689Y-75555800D01*
X71018627Y-75573180D01*
X70973546Y-75588441D01*
X70927505Y-75601521D01*
X70880567Y-75612360D01*
X70832791Y-75620896D01*
X70784240Y-75627069D01*
X70734973Y-75630817D01*
X70685053Y-75632080D01*
X70635112Y-75630817D01*
X70585826Y-75627069D01*
X70537255Y-75620896D01*
X70489460Y-75612360D01*
X70442504Y-75601521D01*
X70396445Y-75588441D01*
X70351347Y-75573180D01*
X70307269Y-75555800D01*
X70264273Y-75536362D01*
X70222420Y-75514926D01*
X70181771Y-75491553D01*
X70142387Y-75466305D01*
X70104329Y-75439242D01*
X70067658Y-75410426D01*
X70032435Y-75379917D01*
X69998722Y-75347777D01*
X69966578Y-75314066D01*
X69936066Y-75278845D01*
X69907247Y-75242176D01*
X69880180Y-75204119D01*
X69854928Y-75164735D01*
X69831552Y-75124086D01*
X69810112Y-75082232D01*
X69790670Y-75039234D01*
X69773286Y-74995154D01*
X69758023Y-74950051D01*
X69744940Y-74903989D01*
X69734098Y-74857026D01*
X69725560Y-74809225D01*
X69719386Y-74760645D01*
X69715636Y-74711349D01*
X69714373Y-74661398D01*
X69715636Y-74611530D01*
X69719386Y-74562313D01*
X69725560Y-74513807D01*
X69734098Y-74466073D01*
X69744939Y-74419172D01*
X69758022Y-74373166D01*
X69773286Y-74328116D01*
X69790669Y-74284083D01*
X69810111Y-74241128D01*
X69831551Y-74199313D01*
X69854927Y-74158698D01*
X69880179Y-74119346D01*
X69907245Y-74081316D01*
X69936064Y-74044670D01*
X69966576Y-74009470D01*
X69998719Y-73975777D01*
X70032433Y-73943652D01*
X70067656Y-73913155D01*
X70104327Y-73884349D01*
X70142385Y-73857294D01*
X70181769Y-73832052D01*
X70222418Y-73808684D01*
X70264271Y-73787251D01*
X70307267Y-73767815D01*
X70351344Y-73750435D01*
X70396443Y-73735175D01*
X70442502Y-73722094D01*
X70489459Y-73711254D01*
X70537253Y-73702717D01*
X70585825Y-73696543D01*
X70635112Y-73692794D01*
X70685053Y-73691530D01*
X70734973Y-73692794D01*
G37*
G36*
X59292052Y-94280557D02*
G01*
X59317846Y-94282085D01*
X59343005Y-94284628D01*
X59367528Y-94288184D01*
X59391411Y-94292751D01*
X59414653Y-94298325D01*
X59437251Y-94304904D01*
X59459201Y-94312486D01*
X59480503Y-94321069D01*
X59501152Y-94330649D01*
X59521147Y-94341224D01*
X59540484Y-94352791D01*
X59559162Y-94365349D01*
X59577178Y-94378894D01*
X59594529Y-94393424D01*
X59611213Y-94408937D01*
X59627227Y-94425429D01*
X59642568Y-94442899D01*
X59657235Y-94461343D01*
X59671224Y-94480760D01*
X59684533Y-94501146D01*
X59697159Y-94522500D01*
X59709100Y-94544818D01*
X59720353Y-94568099D01*
X59730916Y-94592339D01*
X59740786Y-94617536D01*
X59749961Y-94643687D01*
X59758438Y-94670791D01*
X59773287Y-94727843D01*
X59785314Y-94788673D01*
X60107438Y-96800701D01*
X60115535Y-96867886D01*
X60117522Y-96931606D01*
X60113761Y-96991808D01*
X60104619Y-97048438D01*
X60090460Y-97101444D01*
X60071647Y-97150773D01*
X60048546Y-97196372D01*
X60021522Y-97238188D01*
X59990938Y-97276169D01*
X59957159Y-97310261D01*
X59920550Y-97340412D01*
X59881475Y-97366568D01*
X59840299Y-97388678D01*
X59797386Y-97406687D01*
X59753100Y-97420544D01*
X59707807Y-97430195D01*
X59661871Y-97435588D01*
X59615656Y-97436669D01*
X59569527Y-97433386D01*
X59523848Y-97425686D01*
X59478984Y-97413516D01*
X59435300Y-97396823D01*
X59393159Y-97375554D01*
X59352926Y-97349657D01*
X59314967Y-97319078D01*
X59279645Y-97283765D01*
X59247325Y-97243665D01*
X59218371Y-97198724D01*
X59193148Y-97148891D01*
X59172021Y-97094112D01*
X59155353Y-97034334D01*
X59143510Y-96969505D01*
X59049211Y-96309425D01*
X58758166Y-97017702D01*
X58740252Y-97059402D01*
X58720589Y-97100053D01*
X58699152Y-97139426D01*
X58675915Y-97177297D01*
X58650854Y-97213438D01*
X58623945Y-97247624D01*
X58595162Y-97279628D01*
X58564479Y-97309223D01*
X58548419Y-97323047D01*
X58531874Y-97336185D01*
X58514842Y-97348607D01*
X58497319Y-97360285D01*
X58479304Y-97371192D01*
X58460791Y-97381299D01*
X58441780Y-97390577D01*
X58422265Y-97398999D01*
X58402245Y-97406536D01*
X58381716Y-97413160D01*
X58360674Y-97418843D01*
X58339118Y-97423555D01*
X58317043Y-97427270D01*
X58294447Y-97429958D01*
X58271326Y-97431592D01*
X58247678Y-97432143D01*
X58224072Y-97431592D01*
X58200991Y-97429958D01*
X58178433Y-97427270D01*
X58156393Y-97423555D01*
X58134868Y-97418842D01*
X58113857Y-97413160D01*
X58093355Y-97406536D01*
X58073360Y-97398999D01*
X58053869Y-97390577D01*
X58034878Y-97381298D01*
X58016384Y-97371191D01*
X57998385Y-97360285D01*
X57980878Y-97348606D01*
X57963858Y-97336184D01*
X57931273Y-97309222D01*
X57900604Y-97279627D01*
X57871828Y-97247623D01*
X57844920Y-97213437D01*
X57819855Y-97177296D01*
X57796610Y-97139425D01*
X57775160Y-97100052D01*
X57755480Y-97059402D01*
X57737547Y-97017702D01*
X57446502Y-96309425D01*
X57352091Y-96969505D01*
X57340247Y-97034334D01*
X57323580Y-97094112D01*
X57302452Y-97148891D01*
X57277230Y-97198724D01*
X57248277Y-97243665D01*
X57215959Y-97283765D01*
X57180639Y-97319078D01*
X57142683Y-97349657D01*
X57102455Y-97375554D01*
X57060320Y-97396823D01*
X57016642Y-97413516D01*
X56971787Y-97425686D01*
X56926118Y-97433386D01*
X56880001Y-97436669D01*
X56833799Y-97435588D01*
X56787878Y-97430195D01*
X56742603Y-97420544D01*
X56698337Y-97406687D01*
X56655446Y-97388678D01*
X56614294Y-97366568D01*
X56575246Y-97340412D01*
X56538666Y-97310261D01*
X56504919Y-97276169D01*
X56474371Y-97238188D01*
X56447384Y-97196372D01*
X56424325Y-97150773D01*
X56405557Y-97101444D01*
X56391446Y-97048438D01*
X56382355Y-96991808D01*
X56378650Y-96931606D01*
X56380695Y-96867886D01*
X56388855Y-96800701D01*
X56560148Y-95728858D01*
X58247678Y-95728858D01*
X58247689Y-95728858D01*
X58247683Y-95728847D01*
X58247678Y-95728858D01*
X56560148Y-95728858D01*
X56710399Y-94788673D01*
X56722363Y-94727843D01*
X56737152Y-94670791D01*
X56754750Y-94617536D01*
X56775136Y-94568099D01*
X56786368Y-94544818D01*
X56798291Y-94522500D01*
X56810901Y-94501146D01*
X56824196Y-94480760D01*
X56838174Y-94461343D01*
X56852833Y-94442899D01*
X56868169Y-94425429D01*
X56884182Y-94408937D01*
X56900867Y-94393424D01*
X56918223Y-94378894D01*
X56936248Y-94365349D01*
X56954939Y-94352791D01*
X56974294Y-94341224D01*
X56994310Y-94330649D01*
X57014985Y-94321069D01*
X57036317Y-94312486D01*
X57058302Y-94304904D01*
X57080940Y-94298325D01*
X57104227Y-94292751D01*
X57128161Y-94288184D01*
X57152740Y-94284628D01*
X57177961Y-94282085D01*
X57203822Y-94280557D01*
X57230320Y-94280048D01*
X57265234Y-94281150D01*
X57299871Y-94284375D01*
X57334178Y-94289867D01*
X57368097Y-94297768D01*
X57401575Y-94308221D01*
X57434556Y-94321368D01*
X57466984Y-94337353D01*
X57482973Y-94346454D01*
X57498804Y-94356318D01*
X57514469Y-94366962D01*
X57529962Y-94378405D01*
X57545275Y-94390664D01*
X57560401Y-94403758D01*
X57575334Y-94417703D01*
X57590067Y-94432519D01*
X57604592Y-94448222D01*
X57618904Y-94464831D01*
X57632994Y-94482363D01*
X57646857Y-94500836D01*
X57660484Y-94520269D01*
X57673870Y-94540678D01*
X57687007Y-94562083D01*
X57699889Y-94584499D01*
X57724858Y-94632443D01*
X58247683Y-95728847D01*
X58770743Y-94632443D01*
X58783113Y-94607947D01*
X58795750Y-94584499D01*
X58808647Y-94562083D01*
X58821797Y-94540678D01*
X58835195Y-94520269D01*
X58848832Y-94500836D01*
X58862702Y-94482363D01*
X58876799Y-94464831D01*
X58891116Y-94448222D01*
X58905646Y-94432519D01*
X58920383Y-94417703D01*
X58935319Y-94403758D01*
X58950448Y-94390664D01*
X58965763Y-94378405D01*
X58981258Y-94366962D01*
X58996926Y-94356318D01*
X59012760Y-94346454D01*
X59028753Y-94337353D01*
X59044898Y-94328997D01*
X59061190Y-94321368D01*
X59094184Y-94308221D01*
X59127682Y-94297768D01*
X59161629Y-94289867D01*
X59195971Y-94284375D01*
X59230655Y-94281150D01*
X59265627Y-94280048D01*
X59292052Y-94280557D01*
G37*
D11*
X110000000Y-20000000D02*
X110000000Y-120000000D01*
D10*
G36*
X75030724Y-86388307D02*
G01*
X75161312Y-86397758D01*
X75290551Y-86413411D01*
X75418242Y-86435187D01*
X75544187Y-86463005D01*
X75668187Y-86496786D01*
X75790042Y-86536448D01*
X75909555Y-86581912D01*
X76026526Y-86633098D01*
X76140756Y-86689926D01*
X76252047Y-86752314D01*
X76360200Y-86820184D01*
X76465015Y-86893456D01*
X76566294Y-86972048D01*
X76663838Y-87055881D01*
X76757449Y-87144874D01*
X76846926Y-87238948D01*
X76932073Y-87338023D01*
X77012688Y-87442017D01*
X77088575Y-87550852D01*
X77159533Y-87664447D01*
X77225365Y-87782721D01*
X77285870Y-87905595D01*
X77340851Y-88032988D01*
X77390108Y-88164821D01*
X77433443Y-88301013D01*
X77470656Y-88441484D01*
X77501550Y-88586153D01*
X77525924Y-88734942D01*
X77543581Y-88887769D01*
X77554320Y-89044554D01*
X77557944Y-89205218D01*
X77555078Y-89346728D01*
X77546513Y-89486857D01*
X77532303Y-89625399D01*
X77512499Y-89762152D01*
X77487153Y-89896910D01*
X77456318Y-90029471D01*
X77420046Y-90159630D01*
X77378390Y-90287183D01*
X77331401Y-90411926D01*
X77279131Y-90533656D01*
X77221634Y-90652167D01*
X77158960Y-90767257D01*
X77091163Y-90878721D01*
X77018295Y-90986355D01*
X76940407Y-91089956D01*
X76857553Y-91189319D01*
X76769783Y-91284240D01*
X76677152Y-91374515D01*
X76579709Y-91459941D01*
X76477509Y-91540313D01*
X76370603Y-91615428D01*
X76259043Y-91685081D01*
X76142882Y-91749069D01*
X76022172Y-91807187D01*
X75896965Y-91859231D01*
X75767313Y-91904999D01*
X75633269Y-91944284D01*
X75494884Y-91976884D01*
X75352211Y-92002595D01*
X75205303Y-92021213D01*
X75054211Y-92032533D01*
X74898987Y-92036351D01*
X74782519Y-92033540D01*
X74665783Y-92025072D01*
X74549410Y-92010892D01*
X74434026Y-91990949D01*
X74320260Y-91965188D01*
X74208740Y-91933558D01*
X74100095Y-91896003D01*
X73994952Y-91852472D01*
X73943891Y-91828448D01*
X73893941Y-91802911D01*
X73845181Y-91775852D01*
X73797689Y-91747266D01*
X73751544Y-91717146D01*
X73706825Y-91685485D01*
X73663609Y-91652277D01*
X73621976Y-91617515D01*
X73582004Y-91581192D01*
X73543771Y-91543302D01*
X73507357Y-91503837D01*
X73472839Y-91462792D01*
X73440296Y-91420160D01*
X73409807Y-91375934D01*
X73381450Y-91330107D01*
X73355304Y-91282673D01*
X73336329Y-91282673D01*
X73336329Y-91854744D01*
X71754343Y-91854744D01*
X71754343Y-89205215D01*
X73336329Y-89205215D01*
X73340319Y-89305369D01*
X73352605Y-89411389D01*
X73373660Y-89521573D01*
X73403957Y-89634221D01*
X73443970Y-89747631D01*
X73494172Y-89860103D01*
X73523241Y-89915456D01*
X73555035Y-89969936D01*
X73589613Y-90023332D01*
X73627034Y-90075429D01*
X73667357Y-90126017D01*
X73710642Y-90174882D01*
X73756947Y-90221811D01*
X73806331Y-90266592D01*
X73858854Y-90309012D01*
X73914575Y-90348859D01*
X73973553Y-90385921D01*
X74035848Y-90419983D01*
X74101517Y-90450835D01*
X74170621Y-90478263D01*
X74243219Y-90502054D01*
X74319370Y-90521997D01*
X74399133Y-90537878D01*
X74482567Y-90549485D01*
X74569731Y-90556605D01*
X74660684Y-90559025D01*
X74748334Y-90556605D01*
X74832559Y-90549489D01*
X74913402Y-90537894D01*
X74990906Y-90522035D01*
X75065112Y-90502129D01*
X75136063Y-90478392D01*
X75203800Y-90451040D01*
X75268365Y-90420289D01*
X75329801Y-90386356D01*
X75388150Y-90349456D01*
X75443454Y-90309807D01*
X75495754Y-90267623D01*
X75545093Y-90223122D01*
X75591513Y-90176519D01*
X75635055Y-90128031D01*
X75675763Y-90077874D01*
X75713678Y-90026264D01*
X75748842Y-89973417D01*
X75781297Y-89919550D01*
X75811085Y-89864878D01*
X75862829Y-89753986D01*
X75904411Y-89642472D01*
X75936167Y-89532063D01*
X75958433Y-89424491D01*
X75971545Y-89321484D01*
X75975842Y-89224772D01*
X75971127Y-89110454D01*
X75956881Y-88993712D01*
X75932949Y-88875898D01*
X75899178Y-88758364D01*
X75855414Y-88642463D01*
X75829736Y-88585547D01*
X75801503Y-88529546D01*
X75770694Y-88474630D01*
X75737290Y-88420966D01*
X75701274Y-88368725D01*
X75662624Y-88318075D01*
X75621322Y-88269185D01*
X75577349Y-88222225D01*
X75530685Y-88177362D01*
X75481311Y-88134768D01*
X75429208Y-88094609D01*
X75374357Y-88057056D01*
X75316739Y-88022277D01*
X75256334Y-87990441D01*
X75193123Y-87961718D01*
X75127086Y-87936276D01*
X75058206Y-87914285D01*
X74986461Y-87895913D01*
X74911834Y-87881329D01*
X74834305Y-87870703D01*
X74753854Y-87864203D01*
X74670463Y-87861999D01*
X74587819Y-87864043D01*
X74507853Y-87870078D01*
X74430560Y-87879964D01*
X74355937Y-87893559D01*
X74283981Y-87910721D01*
X74214688Y-87931309D01*
X74148055Y-87955181D01*
X74084078Y-87982196D01*
X74022753Y-88012212D01*
X73964078Y-88045087D01*
X73908049Y-88080680D01*
X73854661Y-88118849D01*
X73803912Y-88159453D01*
X73755798Y-88202351D01*
X73710315Y-88247399D01*
X73667461Y-88294458D01*
X73627231Y-88343385D01*
X73589622Y-88394039D01*
X73554631Y-88446278D01*
X73522253Y-88499960D01*
X73492486Y-88554945D01*
X73465326Y-88611090D01*
X73440769Y-88668254D01*
X73418812Y-88726295D01*
X73382683Y-88844442D01*
X73356912Y-88964400D01*
X73341470Y-89085035D01*
X73336329Y-89205215D01*
X71754343Y-89205215D01*
X71754343Y-86565935D01*
X73336329Y-86565935D01*
X73336329Y-87127994D01*
X73355304Y-87127994D01*
X73394521Y-87066318D01*
X73440791Y-87003155D01*
X73494238Y-86939261D01*
X73554987Y-86875388D01*
X73623164Y-86812292D01*
X73698892Y-86750726D01*
X73782297Y-86691445D01*
X73873503Y-86635202D01*
X73972636Y-86582752D01*
X74079820Y-86534849D01*
X74195180Y-86492246D01*
X74318840Y-86455699D01*
X74450926Y-86425960D01*
X74591563Y-86403784D01*
X74740875Y-86389926D01*
X74898987Y-86385139D01*
X75030724Y-86388307D01*
G37*
G36*
X67223404Y-86558133D02*
G01*
X68004327Y-86558133D01*
X68004327Y-87759202D01*
X67223404Y-87759202D01*
X67223404Y-91847171D01*
X65641070Y-91847171D01*
X65641070Y-87759202D01*
X64879124Y-87759202D01*
X64879124Y-86558133D01*
X65641070Y-86558133D01*
X65641070Y-84795121D01*
X67223404Y-84795121D01*
X67223404Y-86558133D01*
G37*
G36*
X68365304Y-86386541D02*
G01*
X68445560Y-86390659D01*
X68522257Y-86397362D01*
X68595484Y-86406520D01*
X68665334Y-86418002D01*
X68731895Y-86431676D01*
X68795260Y-86447412D01*
X68855519Y-86465079D01*
X68912763Y-86484546D01*
X68967082Y-86505682D01*
X69018568Y-86528356D01*
X69067311Y-86552437D01*
X69113402Y-86577795D01*
X69156931Y-86604298D01*
X69197990Y-86631816D01*
X69236670Y-86660217D01*
X69273060Y-86689371D01*
X69307253Y-86719147D01*
X69339338Y-86749414D01*
X69369406Y-86780041D01*
X69423857Y-86841851D01*
X69471331Y-86903530D01*
X69512555Y-86964031D01*
X69548255Y-87022307D01*
X69579157Y-87077310D01*
X69605987Y-87127994D01*
X69624614Y-87127994D01*
X69624614Y-86565935D01*
X71111602Y-86565935D01*
X71111602Y-91854739D01*
X69529732Y-91854739D01*
X69529732Y-88948052D01*
X69528233Y-88874941D01*
X69523772Y-88805528D01*
X69516403Y-88739718D01*
X69506180Y-88677416D01*
X69493157Y-88618531D01*
X69477389Y-88562966D01*
X69458930Y-88510628D01*
X69437834Y-88461424D01*
X69414155Y-88415258D01*
X69387948Y-88372038D01*
X69359267Y-88331668D01*
X69328165Y-88294056D01*
X69294698Y-88259107D01*
X69258919Y-88226726D01*
X69220882Y-88196820D01*
X69180642Y-88169296D01*
X69138254Y-88144058D01*
X69093770Y-88121013D01*
X69047246Y-88100066D01*
X68998735Y-88081125D01*
X68895971Y-88048880D01*
X68785912Y-88023525D01*
X68668991Y-88004309D01*
X68545642Y-87990480D01*
X68416300Y-87981284D01*
X68281396Y-87975971D01*
X68281396Y-86385139D01*
X68365304Y-86386541D01*
G37*
G36*
X59234894Y-89054805D02*
G01*
X59237836Y-89249568D01*
X59243336Y-89356049D01*
X59253144Y-89466143D01*
X59268475Y-89578009D01*
X59290545Y-89689805D01*
X59320569Y-89799690D01*
X59338945Y-89853341D01*
X59359764Y-89905825D01*
X59383181Y-89956910D01*
X59409346Y-90006367D01*
X59438411Y-90053966D01*
X59470528Y-90099476D01*
X59505851Y-90142668D01*
X59544529Y-90183312D01*
X59586716Y-90221176D01*
X59632563Y-90256032D01*
X59682222Y-90287649D01*
X59735846Y-90315797D01*
X59793586Y-90340246D01*
X59855594Y-90360766D01*
X59922022Y-90377126D01*
X59993022Y-90389097D01*
X60068746Y-90396448D01*
X60149347Y-90398950D01*
X60229947Y-90396448D01*
X60305672Y-90389097D01*
X60376673Y-90377126D01*
X60443103Y-90360766D01*
X60505113Y-90340247D01*
X60562856Y-90315798D01*
X60616483Y-90287651D01*
X60666146Y-90256034D01*
X60711998Y-90221179D01*
X60754189Y-90183315D01*
X60792872Y-90142673D01*
X60828199Y-90099482D01*
X60860322Y-90053973D01*
X60889393Y-90006376D01*
X60915563Y-89956921D01*
X60938985Y-89905839D01*
X60959811Y-89853358D01*
X60978192Y-89799710D01*
X60994280Y-89745125D01*
X61008227Y-89689832D01*
X61020186Y-89634062D01*
X61030307Y-89578045D01*
X61045648Y-89466191D01*
X61055463Y-89356110D01*
X61060970Y-89249644D01*
X61063916Y-89054918D01*
X61063916Y-84795121D01*
X62865000Y-84795121D01*
X62865000Y-89054918D01*
X62863467Y-89243493D01*
X62858543Y-89420341D01*
X62849738Y-89586467D01*
X62836564Y-89742875D01*
X62818532Y-89890570D01*
X62795155Y-90030558D01*
X62765943Y-90163841D01*
X62730408Y-90291426D01*
X62688061Y-90414316D01*
X62638414Y-90533516D01*
X62580977Y-90650031D01*
X62515264Y-90764866D01*
X62440784Y-90879024D01*
X62357050Y-90993511D01*
X62263572Y-91109332D01*
X62159863Y-91227490D01*
X62105091Y-91284324D01*
X62048435Y-91338354D01*
X61990031Y-91389645D01*
X61930016Y-91438262D01*
X61805699Y-91527739D01*
X61676574Y-91607308D01*
X61543732Y-91677496D01*
X61408266Y-91738826D01*
X61271267Y-91791825D01*
X61133825Y-91837016D01*
X60997033Y-91874925D01*
X60861981Y-91906076D01*
X60729762Y-91930995D01*
X60601466Y-91950206D01*
X60478186Y-91964234D01*
X60361011Y-91973605D01*
X60251034Y-91978842D01*
X60149347Y-91980471D01*
X60047660Y-91978842D01*
X59937684Y-91973605D01*
X59820510Y-91964234D01*
X59697231Y-91950206D01*
X59568937Y-91930995D01*
X59436720Y-91906076D01*
X59301672Y-91874925D01*
X59164885Y-91837016D01*
X59027449Y-91791825D01*
X58890457Y-91738826D01*
X58755000Y-91677496D01*
X58622170Y-91607308D01*
X58493058Y-91527739D01*
X58368756Y-91438262D01*
X58308750Y-91389645D01*
X58250355Y-91338354D01*
X58193709Y-91284324D01*
X58138948Y-91227490D01*
X58035219Y-91109332D01*
X57941724Y-90993511D01*
X57857974Y-90879023D01*
X57783482Y-90764864D01*
X57717757Y-90650028D01*
X57660311Y-90533510D01*
X57610657Y-90414306D01*
X57568304Y-90291412D01*
X57532764Y-90163821D01*
X57503548Y-90030530D01*
X57480168Y-89890534D01*
X57462135Y-89742827D01*
X57448959Y-89586406D01*
X57440154Y-89420265D01*
X57435229Y-89243400D01*
X57433696Y-89054805D01*
X57433696Y-86726819D01*
X57948842Y-86726819D01*
X57950336Y-86726761D01*
X57951803Y-86726589D01*
X57953238Y-86726306D01*
X57954637Y-86725917D01*
X57955995Y-86725424D01*
X57957305Y-86724830D01*
X57958565Y-86724140D01*
X57959768Y-86723356D01*
X57960909Y-86722483D01*
X57961984Y-86721522D01*
X57962989Y-86720478D01*
X57963917Y-86719355D01*
X57964764Y-86718155D01*
X57965525Y-86716882D01*
X57966195Y-86715539D01*
X57966769Y-86714129D01*
X57967256Y-86712721D01*
X57967627Y-86711295D01*
X57967882Y-86709856D01*
X57968025Y-86708411D01*
X57968054Y-86706966D01*
X57967972Y-86705527D01*
X57967780Y-86704100D01*
X57967479Y-86702691D01*
X57967071Y-86701308D01*
X57966556Y-86699955D01*
X57965935Y-86698638D01*
X57965211Y-86697365D01*
X57964383Y-86696141D01*
X57963454Y-86694972D01*
X57962425Y-86693865D01*
X57961296Y-86692825D01*
X56544621Y-85266953D01*
X56543944Y-85266392D01*
X56543245Y-85265868D01*
X56542526Y-85265380D01*
X56541788Y-85264928D01*
X56541033Y-85264512D01*
X56540261Y-85264133D01*
X56539475Y-85263789D01*
X56538675Y-85263482D01*
X56537864Y-85263211D01*
X56537043Y-85262975D01*
X56536212Y-85262777D01*
X56535374Y-85262614D01*
X56534530Y-85262487D01*
X56533681Y-85262397D01*
X56531975Y-85262325D01*
X56530268Y-85262397D01*
X56529417Y-85262487D01*
X56528571Y-85262614D01*
X56527730Y-85262777D01*
X56526895Y-85262975D01*
X56526069Y-85263211D01*
X56525252Y-85263482D01*
X56524447Y-85263789D01*
X56523654Y-85264133D01*
X56522874Y-85264512D01*
X56522111Y-85264928D01*
X56521364Y-85265380D01*
X56520635Y-85265868D01*
X56519926Y-85266392D01*
X56519238Y-85266953D01*
X55102446Y-86692825D01*
X55101890Y-86693336D01*
X55101357Y-86693865D01*
X55100848Y-86694410D01*
X55100363Y-86694972D01*
X55099901Y-86695549D01*
X55099464Y-86696141D01*
X55098662Y-86697365D01*
X55097958Y-86698638D01*
X55097354Y-86699954D01*
X55096851Y-86701307D01*
X55096450Y-86702691D01*
X55096153Y-86704099D01*
X55095961Y-86705525D01*
X55095875Y-86706964D01*
X55095897Y-86708410D01*
X55096028Y-86709855D01*
X55096135Y-86710576D01*
X55096270Y-86711294D01*
X55096433Y-86712009D01*
X55096623Y-86712721D01*
X55096842Y-86713428D01*
X55097090Y-86714129D01*
X55097365Y-86714842D01*
X55097667Y-86715538D01*
X55097993Y-86716217D01*
X55098344Y-86716880D01*
X55098719Y-86717525D01*
X55099117Y-86718153D01*
X55099537Y-86718762D01*
X55099979Y-86719353D01*
X55100441Y-86719924D01*
X55100924Y-86720476D01*
X55101427Y-86721008D01*
X55101948Y-86721520D01*
X55102488Y-86722011D01*
X55103045Y-86722481D01*
X55103619Y-86722929D01*
X55104208Y-86723355D01*
X55104813Y-86723758D01*
X55105433Y-86724139D01*
X55106067Y-86724496D01*
X55106714Y-86724829D01*
X55107373Y-86725138D01*
X55108044Y-86725423D01*
X55108726Y-86725682D01*
X55109419Y-86725916D01*
X55110122Y-86726124D01*
X55110833Y-86726306D01*
X55111553Y-86726461D01*
X55112280Y-86726588D01*
X55113014Y-86726688D01*
X55113755Y-86726760D01*
X55114501Y-86726804D01*
X55115252Y-86726819D01*
X55632726Y-86726819D01*
X55632726Y-91847171D01*
X53841541Y-91847171D01*
X53841541Y-89636653D01*
X53060738Y-89636653D01*
X52862307Y-89634304D01*
X52677470Y-89627249D01*
X52505306Y-89615473D01*
X52344895Y-89598963D01*
X52195318Y-89577706D01*
X52055654Y-89551688D01*
X51924985Y-89520894D01*
X51802389Y-89485312D01*
X51686948Y-89444928D01*
X51577741Y-89399728D01*
X51473849Y-89349699D01*
X51374351Y-89294826D01*
X51278328Y-89235097D01*
X51184859Y-89170497D01*
X51093026Y-89101013D01*
X51001908Y-89026632D01*
X50919598Y-88950813D01*
X50841099Y-88866905D01*
X50766618Y-88775506D01*
X50696361Y-88677214D01*
X50630536Y-88572628D01*
X50569350Y-88462345D01*
X50513010Y-88346963D01*
X50461721Y-88227082D01*
X50415692Y-88103299D01*
X50375128Y-87976212D01*
X50340238Y-87846420D01*
X50311228Y-87714521D01*
X50288304Y-87581113D01*
X50271673Y-87446794D01*
X50261543Y-87312162D01*
X50258836Y-87205874D01*
X51983065Y-87205874D01*
X51985318Y-87282935D01*
X51991929Y-87355181D01*
X52002674Y-87422768D01*
X52017330Y-87485851D01*
X52035673Y-87544585D01*
X52057480Y-87599125D01*
X52082526Y-87649628D01*
X52110589Y-87696247D01*
X52141445Y-87739139D01*
X52174870Y-87778459D01*
X52210642Y-87814362D01*
X52248536Y-87847004D01*
X52288328Y-87876539D01*
X52329796Y-87903123D01*
X52372716Y-87926912D01*
X52416864Y-87948061D01*
X52462017Y-87966724D01*
X52507951Y-87983058D01*
X52554443Y-87997217D01*
X52601269Y-88009357D01*
X52695030Y-88028202D01*
X52787445Y-88040834D01*
X52876726Y-88048496D01*
X52961085Y-88052431D01*
X53107885Y-88054087D01*
X53841541Y-88054087D01*
X53841541Y-86377221D01*
X53174126Y-86377221D01*
X53010876Y-86378839D01*
X52919259Y-86382683D01*
X52823347Y-86390169D01*
X52724912Y-86402509D01*
X52625729Y-86420919D01*
X52527573Y-86446612D01*
X52479434Y-86462569D01*
X52432217Y-86480802D01*
X52386143Y-86501463D01*
X52341435Y-86524703D01*
X52298314Y-86550675D01*
X52257002Y-86579529D01*
X52217720Y-86611418D01*
X52180691Y-86646493D01*
X52146135Y-86684906D01*
X52114276Y-86726809D01*
X52085335Y-86772353D01*
X52059532Y-86821691D01*
X52037091Y-86874974D01*
X52018233Y-86932354D01*
X52003180Y-86993982D01*
X51992153Y-87060010D01*
X51985374Y-87130590D01*
X51983065Y-87205874D01*
X50258836Y-87205874D01*
X50258121Y-87177817D01*
X50261361Y-87043939D01*
X50271081Y-86910871D01*
X50287280Y-86778928D01*
X50309959Y-86648426D01*
X50339117Y-86519681D01*
X50374753Y-86393007D01*
X50416867Y-86268721D01*
X50465459Y-86147139D01*
X50520529Y-86028576D01*
X50582076Y-85913347D01*
X50650099Y-85801769D01*
X50724599Y-85694156D01*
X50805575Y-85590826D01*
X50893026Y-85492093D01*
X50986953Y-85398272D01*
X51087355Y-85309681D01*
X51160241Y-85252160D01*
X51236624Y-85197425D01*
X51317551Y-85145603D01*
X51404072Y-85096822D01*
X51497236Y-85051209D01*
X51598091Y-85008892D01*
X51707686Y-84970000D01*
X51827070Y-84934659D01*
X51957292Y-84902998D01*
X52099400Y-84875144D01*
X52254443Y-84851224D01*
X52423470Y-84831368D01*
X52607530Y-84815701D01*
X52807671Y-84804353D01*
X53024943Y-84797450D01*
X53260394Y-84795121D01*
X59234894Y-84795121D01*
X59234894Y-89054805D01*
G37*
D12*
X90328809Y-25028333D02*
X88805000Y-25028333D01*
X89566904Y-25790238D02*
X89566904Y-24266428D01*
X90328809Y-22488333D02*
X88805000Y-22488333D01*
D11*
X112809523Y-23580000D02*
X112666666Y-23627619D01*
X112666666Y-23627619D02*
X112428571Y-23627619D01*
X112428571Y-23627619D02*
X112333333Y-23580000D01*
X112333333Y-23580000D02*
X112285714Y-23532380D01*
X112285714Y-23532380D02*
X112238095Y-23437142D01*
X112238095Y-23437142D02*
X112238095Y-23341904D01*
X112238095Y-23341904D02*
X112285714Y-23246666D01*
X112285714Y-23246666D02*
X112333333Y-23199047D01*
X112333333Y-23199047D02*
X112428571Y-23151428D01*
X112428571Y-23151428D02*
X112619047Y-23103809D01*
X112619047Y-23103809D02*
X112714285Y-23056190D01*
X112714285Y-23056190D02*
X112761904Y-23008571D01*
X112761904Y-23008571D02*
X112809523Y-22913333D01*
X112809523Y-22913333D02*
X112809523Y-22818095D01*
X112809523Y-22818095D02*
X112761904Y-22722857D01*
X112761904Y-22722857D02*
X112714285Y-22675238D01*
X112714285Y-22675238D02*
X112619047Y-22627619D01*
X112619047Y-22627619D02*
X112380952Y-22627619D01*
X112380952Y-22627619D02*
X112238095Y-22675238D01*
X111857142Y-22722857D02*
X111809523Y-22675238D01*
X111809523Y-22675238D02*
X111714285Y-22627619D01*
X111714285Y-22627619D02*
X111476190Y-22627619D01*
X111476190Y-22627619D02*
X111380952Y-22675238D01*
X111380952Y-22675238D02*
X111333333Y-22722857D01*
X111333333Y-22722857D02*
X111285714Y-22818095D01*
X111285714Y-22818095D02*
X111285714Y-22913333D01*
X111285714Y-22913333D02*
X111333333Y-23056190D01*
X111333333Y-23056190D02*
X111904761Y-23627619D01*
X111904761Y-23627619D02*
X111285714Y-23627619D01*
D12*
X87153809Y-27060238D02*
X87153809Y-25060238D01*
X87153809Y-25060238D02*
X86487142Y-26488809D01*
X86487142Y-26488809D02*
X85820476Y-25060238D01*
X85820476Y-25060238D02*
X85820476Y-27060238D01*
X84010952Y-25726904D02*
X84010952Y-27060238D01*
X84487143Y-24965000D02*
X84963333Y-26393571D01*
X84963333Y-26393571D02*
X83725238Y-26393571D01*
X70099047Y-27060238D02*
X70099047Y-25060238D01*
X70099047Y-25060238D02*
X69432380Y-26488809D01*
X69432380Y-26488809D02*
X68765714Y-25060238D01*
X68765714Y-25060238D02*
X68765714Y-27060238D01*
X68003809Y-25060238D02*
X66765714Y-25060238D01*
X66765714Y-25060238D02*
X67432381Y-25822142D01*
X67432381Y-25822142D02*
X67146666Y-25822142D01*
X67146666Y-25822142D02*
X66956190Y-25917380D01*
X66956190Y-25917380D02*
X66860952Y-26012619D01*
X66860952Y-26012619D02*
X66765714Y-26203095D01*
X66765714Y-26203095D02*
X66765714Y-26679285D01*
X66765714Y-26679285D02*
X66860952Y-26869761D01*
X66860952Y-26869761D02*
X66956190Y-26965000D01*
X66956190Y-26965000D02*
X67146666Y-27060238D01*
X67146666Y-27060238D02*
X67718095Y-27060238D01*
X67718095Y-27060238D02*
X67908571Y-26965000D01*
X67908571Y-26965000D02*
X68003809Y-26869761D01*
X99314047Y-32045000D02*
X99028333Y-32140238D01*
X99028333Y-32140238D02*
X98552142Y-32140238D01*
X98552142Y-32140238D02*
X98361666Y-32045000D01*
X98361666Y-32045000D02*
X98266428Y-31949761D01*
X98266428Y-31949761D02*
X98171190Y-31759285D01*
X98171190Y-31759285D02*
X98171190Y-31568809D01*
X98171190Y-31568809D02*
X98266428Y-31378333D01*
X98266428Y-31378333D02*
X98361666Y-31283095D01*
X98361666Y-31283095D02*
X98552142Y-31187857D01*
X98552142Y-31187857D02*
X98933095Y-31092619D01*
X98933095Y-31092619D02*
X99123571Y-30997380D01*
X99123571Y-30997380D02*
X99218809Y-30902142D01*
X99218809Y-30902142D02*
X99314047Y-30711666D01*
X99314047Y-30711666D02*
X99314047Y-30521190D01*
X99314047Y-30521190D02*
X99218809Y-30330714D01*
X99218809Y-30330714D02*
X99123571Y-30235476D01*
X99123571Y-30235476D02*
X98933095Y-30140238D01*
X98933095Y-30140238D02*
X98456904Y-30140238D01*
X98456904Y-30140238D02*
X98171190Y-30235476D01*
X97409285Y-30330714D02*
X97314047Y-30235476D01*
X97314047Y-30235476D02*
X97123571Y-30140238D01*
X97123571Y-30140238D02*
X96647380Y-30140238D01*
X96647380Y-30140238D02*
X96456904Y-30235476D01*
X96456904Y-30235476D02*
X96361666Y-30330714D01*
X96361666Y-30330714D02*
X96266428Y-30521190D01*
X96266428Y-30521190D02*
X96266428Y-30711666D01*
X96266428Y-30711666D02*
X96361666Y-30997380D01*
X96361666Y-30997380D02*
X97504523Y-32140238D01*
X97504523Y-32140238D02*
X96266428Y-32140238D01*
X90424047Y-28235000D02*
X90138333Y-28330238D01*
X90138333Y-28330238D02*
X89662142Y-28330238D01*
X89662142Y-28330238D02*
X89471666Y-28235000D01*
X89471666Y-28235000D02*
X89376428Y-28139761D01*
X89376428Y-28139761D02*
X89281190Y-27949285D01*
X89281190Y-27949285D02*
X89281190Y-27758809D01*
X89281190Y-27758809D02*
X89376428Y-27568333D01*
X89376428Y-27568333D02*
X89471666Y-27473095D01*
X89471666Y-27473095D02*
X89662142Y-27377857D01*
X89662142Y-27377857D02*
X90043095Y-27282619D01*
X90043095Y-27282619D02*
X90233571Y-27187380D01*
X90233571Y-27187380D02*
X90328809Y-27092142D01*
X90328809Y-27092142D02*
X90424047Y-26901666D01*
X90424047Y-26901666D02*
X90424047Y-26711190D01*
X90424047Y-26711190D02*
X90328809Y-26520714D01*
X90328809Y-26520714D02*
X90233571Y-26425476D01*
X90233571Y-26425476D02*
X90043095Y-26330238D01*
X90043095Y-26330238D02*
X89566904Y-26330238D01*
X89566904Y-26330238D02*
X89281190Y-26425476D01*
X39528809Y-27060238D02*
X39528809Y-25060238D01*
X39528809Y-25060238D02*
X38862142Y-26488809D01*
X38862142Y-26488809D02*
X38195476Y-25060238D01*
X38195476Y-25060238D02*
X38195476Y-27060238D01*
X36195476Y-27060238D02*
X37338333Y-27060238D01*
X36766905Y-27060238D02*
X36766905Y-25060238D01*
X36766905Y-25060238D02*
X36957381Y-25345952D01*
X36957381Y-25345952D02*
X37147857Y-25536428D01*
X37147857Y-25536428D02*
X37338333Y-25631666D01*
X109474047Y-32045000D02*
X109188333Y-32140238D01*
X109188333Y-32140238D02*
X108712142Y-32140238D01*
X108712142Y-32140238D02*
X108521666Y-32045000D01*
X108521666Y-32045000D02*
X108426428Y-31949761D01*
X108426428Y-31949761D02*
X108331190Y-31759285D01*
X108331190Y-31759285D02*
X108331190Y-31568809D01*
X108331190Y-31568809D02*
X108426428Y-31378333D01*
X108426428Y-31378333D02*
X108521666Y-31283095D01*
X108521666Y-31283095D02*
X108712142Y-31187857D01*
X108712142Y-31187857D02*
X109093095Y-31092619D01*
X109093095Y-31092619D02*
X109283571Y-30997380D01*
X109283571Y-30997380D02*
X109378809Y-30902142D01*
X109378809Y-30902142D02*
X109474047Y-30711666D01*
X109474047Y-30711666D02*
X109474047Y-30521190D01*
X109474047Y-30521190D02*
X109378809Y-30330714D01*
X109378809Y-30330714D02*
X109283571Y-30235476D01*
X109283571Y-30235476D02*
X109093095Y-30140238D01*
X109093095Y-30140238D02*
X108616904Y-30140238D01*
X108616904Y-30140238D02*
X108331190Y-30235476D01*
X106616904Y-30806904D02*
X106616904Y-32140238D01*
X107093095Y-30045000D02*
X107569285Y-31473571D01*
X107569285Y-31473571D02*
X106331190Y-31473571D01*
X106735714Y-114226428D02*
X107235714Y-113512142D01*
X107592857Y-114226428D02*
X107592857Y-112726428D01*
X107592857Y-112726428D02*
X107021428Y-112726428D01*
X107021428Y-112726428D02*
X106878571Y-112797857D01*
X106878571Y-112797857D02*
X106807142Y-112869285D01*
X106807142Y-112869285D02*
X106735714Y-113012142D01*
X106735714Y-113012142D02*
X106735714Y-113226428D01*
X106735714Y-113226428D02*
X106807142Y-113369285D01*
X106807142Y-113369285D02*
X106878571Y-113440714D01*
X106878571Y-113440714D02*
X107021428Y-113512142D01*
X107021428Y-113512142D02*
X107592857Y-113512142D01*
X105878571Y-114226428D02*
X106021428Y-114155000D01*
X106021428Y-114155000D02*
X106092857Y-114083571D01*
X106092857Y-114083571D02*
X106164285Y-113940714D01*
X106164285Y-113940714D02*
X106164285Y-113512142D01*
X106164285Y-113512142D02*
X106092857Y-113369285D01*
X106092857Y-113369285D02*
X106021428Y-113297857D01*
X106021428Y-113297857D02*
X105878571Y-113226428D01*
X105878571Y-113226428D02*
X105664285Y-113226428D01*
X105664285Y-113226428D02*
X105521428Y-113297857D01*
X105521428Y-113297857D02*
X105450000Y-113369285D01*
X105450000Y-113369285D02*
X105378571Y-113512142D01*
X105378571Y-113512142D02*
X105378571Y-113940714D01*
X105378571Y-113940714D02*
X105450000Y-114083571D01*
X105450000Y-114083571D02*
X105521428Y-114155000D01*
X105521428Y-114155000D02*
X105664285Y-114226428D01*
X105664285Y-114226428D02*
X105878571Y-114226428D01*
X104735714Y-114226428D02*
X104735714Y-112726428D01*
X104735714Y-113297857D02*
X104592857Y-113226428D01*
X104592857Y-113226428D02*
X104307142Y-113226428D01*
X104307142Y-113226428D02*
X104164285Y-113297857D01*
X104164285Y-113297857D02*
X104092857Y-113369285D01*
X104092857Y-113369285D02*
X104021428Y-113512142D01*
X104021428Y-113512142D02*
X104021428Y-113940714D01*
X104021428Y-113940714D02*
X104092857Y-114083571D01*
X104092857Y-114083571D02*
X104164285Y-114155000D01*
X104164285Y-114155000D02*
X104307142Y-114226428D01*
X104307142Y-114226428D02*
X104592857Y-114226428D01*
X104592857Y-114226428D02*
X104735714Y-114155000D01*
X103164285Y-114226428D02*
X103307142Y-114155000D01*
X103307142Y-114155000D02*
X103378571Y-114083571D01*
X103378571Y-114083571D02*
X103449999Y-113940714D01*
X103449999Y-113940714D02*
X103449999Y-113512142D01*
X103449999Y-113512142D02*
X103378571Y-113369285D01*
X103378571Y-113369285D02*
X103307142Y-113297857D01*
X103307142Y-113297857D02*
X103164285Y-113226428D01*
X103164285Y-113226428D02*
X102949999Y-113226428D01*
X102949999Y-113226428D02*
X102807142Y-113297857D01*
X102807142Y-113297857D02*
X102735714Y-113369285D01*
X102735714Y-113369285D02*
X102664285Y-113512142D01*
X102664285Y-113512142D02*
X102664285Y-113940714D01*
X102664285Y-113940714D02*
X102735714Y-114083571D01*
X102735714Y-114083571D02*
X102807142Y-114155000D01*
X102807142Y-114155000D02*
X102949999Y-114226428D01*
X102949999Y-114226428D02*
X103164285Y-114226428D01*
X102235713Y-113226428D02*
X101664285Y-113226428D01*
X102021428Y-112726428D02*
X102021428Y-114012142D01*
X102021428Y-114012142D02*
X101949999Y-114155000D01*
X101949999Y-114155000D02*
X101807142Y-114226428D01*
X101807142Y-114226428D02*
X101664285Y-114226428D01*
X101307142Y-113226428D02*
X100949999Y-114226428D01*
X100592856Y-113226428D02*
X100949999Y-114226428D01*
X100949999Y-114226428D02*
X101092856Y-114583571D01*
X101092856Y-114583571D02*
X101164285Y-114655000D01*
X101164285Y-114655000D02*
X101307142Y-114726428D01*
X100021428Y-114226428D02*
X100021428Y-112726428D01*
X99878571Y-113655000D02*
X99449999Y-114226428D01*
X99449999Y-113226428D02*
X100021428Y-113797857D01*
X98164285Y-114226428D02*
X98164285Y-113440714D01*
X98164285Y-113440714D02*
X98235713Y-113297857D01*
X98235713Y-113297857D02*
X98378570Y-113226428D01*
X98378570Y-113226428D02*
X98664285Y-113226428D01*
X98664285Y-113226428D02*
X98807142Y-113297857D01*
X98164285Y-114155000D02*
X98307142Y-114226428D01*
X98307142Y-114226428D02*
X98664285Y-114226428D01*
X98664285Y-114226428D02*
X98807142Y-114155000D01*
X98807142Y-114155000D02*
X98878570Y-114012142D01*
X98878570Y-114012142D02*
X98878570Y-113869285D01*
X98878570Y-113869285D02*
X98807142Y-113726428D01*
X98807142Y-113726428D02*
X98664285Y-113655000D01*
X98664285Y-113655000D02*
X98307142Y-113655000D01*
X98307142Y-113655000D02*
X98164285Y-113583571D01*
X96449999Y-113226428D02*
X96092856Y-114226428D01*
X96092856Y-114226428D02*
X95735713Y-113226428D01*
X95235713Y-112869285D02*
X95164285Y-112797857D01*
X95164285Y-112797857D02*
X95021428Y-112726428D01*
X95021428Y-112726428D02*
X94664285Y-112726428D01*
X94664285Y-112726428D02*
X94521428Y-112797857D01*
X94521428Y-112797857D02*
X94449999Y-112869285D01*
X94449999Y-112869285D02*
X94378570Y-113012142D01*
X94378570Y-113012142D02*
X94378570Y-113155000D01*
X94378570Y-113155000D02*
X94449999Y-113369285D01*
X94449999Y-113369285D02*
X95307142Y-114226428D01*
X95307142Y-114226428D02*
X94378570Y-114226428D01*
X107664285Y-115299285D02*
X107592857Y-115227857D01*
X107592857Y-115227857D02*
X107450000Y-115156428D01*
X107450000Y-115156428D02*
X107092857Y-115156428D01*
X107092857Y-115156428D02*
X106950000Y-115227857D01*
X106950000Y-115227857D02*
X106878571Y-115299285D01*
X106878571Y-115299285D02*
X106807142Y-115442142D01*
X106807142Y-115442142D02*
X106807142Y-115585000D01*
X106807142Y-115585000D02*
X106878571Y-115799285D01*
X106878571Y-115799285D02*
X107735714Y-116656428D01*
X107735714Y-116656428D02*
X106807142Y-116656428D01*
X105878571Y-115156428D02*
X105735714Y-115156428D01*
X105735714Y-115156428D02*
X105592857Y-115227857D01*
X105592857Y-115227857D02*
X105521429Y-115299285D01*
X105521429Y-115299285D02*
X105450000Y-115442142D01*
X105450000Y-115442142D02*
X105378571Y-115727857D01*
X105378571Y-115727857D02*
X105378571Y-116085000D01*
X105378571Y-116085000D02*
X105450000Y-116370714D01*
X105450000Y-116370714D02*
X105521429Y-116513571D01*
X105521429Y-116513571D02*
X105592857Y-116585000D01*
X105592857Y-116585000D02*
X105735714Y-116656428D01*
X105735714Y-116656428D02*
X105878571Y-116656428D01*
X105878571Y-116656428D02*
X106021429Y-116585000D01*
X106021429Y-116585000D02*
X106092857Y-116513571D01*
X106092857Y-116513571D02*
X106164286Y-116370714D01*
X106164286Y-116370714D02*
X106235714Y-116085000D01*
X106235714Y-116085000D02*
X106235714Y-115727857D01*
X106235714Y-115727857D02*
X106164286Y-115442142D01*
X106164286Y-115442142D02*
X106092857Y-115299285D01*
X106092857Y-115299285D02*
X106021429Y-115227857D01*
X106021429Y-115227857D02*
X105878571Y-115156428D01*
X104807143Y-115299285D02*
X104735715Y-115227857D01*
X104735715Y-115227857D02*
X104592858Y-115156428D01*
X104592858Y-115156428D02*
X104235715Y-115156428D01*
X104235715Y-115156428D02*
X104092858Y-115227857D01*
X104092858Y-115227857D02*
X104021429Y-115299285D01*
X104021429Y-115299285D02*
X103950000Y-115442142D01*
X103950000Y-115442142D02*
X103950000Y-115585000D01*
X103950000Y-115585000D02*
X104021429Y-115799285D01*
X104021429Y-115799285D02*
X104878572Y-116656428D01*
X104878572Y-116656428D02*
X103950000Y-116656428D01*
X102664287Y-115656428D02*
X102664287Y-116656428D01*
X103021429Y-115085000D02*
X103378572Y-116156428D01*
X103378572Y-116156428D02*
X102450001Y-116156428D01*
X101878573Y-116085000D02*
X100735716Y-116085000D01*
X99735715Y-115156428D02*
X99592858Y-115156428D01*
X99592858Y-115156428D02*
X99450001Y-115227857D01*
X99450001Y-115227857D02*
X99378573Y-115299285D01*
X99378573Y-115299285D02*
X99307144Y-115442142D01*
X99307144Y-115442142D02*
X99235715Y-115727857D01*
X99235715Y-115727857D02*
X99235715Y-116085000D01*
X99235715Y-116085000D02*
X99307144Y-116370714D01*
X99307144Y-116370714D02*
X99378573Y-116513571D01*
X99378573Y-116513571D02*
X99450001Y-116585000D01*
X99450001Y-116585000D02*
X99592858Y-116656428D01*
X99592858Y-116656428D02*
X99735715Y-116656428D01*
X99735715Y-116656428D02*
X99878573Y-116585000D01*
X99878573Y-116585000D02*
X99950001Y-116513571D01*
X99950001Y-116513571D02*
X100021430Y-116370714D01*
X100021430Y-116370714D02*
X100092858Y-116085000D01*
X100092858Y-116085000D02*
X100092858Y-115727857D01*
X100092858Y-115727857D02*
X100021430Y-115442142D01*
X100021430Y-115442142D02*
X99950001Y-115299285D01*
X99950001Y-115299285D02*
X99878573Y-115227857D01*
X99878573Y-115227857D02*
X99735715Y-115156428D01*
X97878573Y-115156428D02*
X98592859Y-115156428D01*
X98592859Y-115156428D02*
X98664287Y-115870714D01*
X98664287Y-115870714D02*
X98592859Y-115799285D01*
X98592859Y-115799285D02*
X98450002Y-115727857D01*
X98450002Y-115727857D02*
X98092859Y-115727857D01*
X98092859Y-115727857D02*
X97950002Y-115799285D01*
X97950002Y-115799285D02*
X97878573Y-115870714D01*
X97878573Y-115870714D02*
X97807144Y-116013571D01*
X97807144Y-116013571D02*
X97807144Y-116370714D01*
X97807144Y-116370714D02*
X97878573Y-116513571D01*
X97878573Y-116513571D02*
X97950002Y-116585000D01*
X97950002Y-116585000D02*
X98092859Y-116656428D01*
X98092859Y-116656428D02*
X98450002Y-116656428D01*
X98450002Y-116656428D02*
X98592859Y-116585000D01*
X98592859Y-116585000D02*
X98664287Y-116513571D01*
X97164288Y-116085000D02*
X96021431Y-116085000D01*
X95450002Y-115156428D02*
X94521430Y-115156428D01*
X94521430Y-115156428D02*
X95021430Y-115727857D01*
X95021430Y-115727857D02*
X94807145Y-115727857D01*
X94807145Y-115727857D02*
X94664288Y-115799285D01*
X94664288Y-115799285D02*
X94592859Y-115870714D01*
X94592859Y-115870714D02*
X94521430Y-116013571D01*
X94521430Y-116013571D02*
X94521430Y-116370714D01*
X94521430Y-116370714D02*
X94592859Y-116513571D01*
X94592859Y-116513571D02*
X94664288Y-116585000D01*
X94664288Y-116585000D02*
X94807145Y-116656428D01*
X94807145Y-116656428D02*
X95235716Y-116656428D01*
X95235716Y-116656428D02*
X95378573Y-116585000D01*
X95378573Y-116585000D02*
X95450002Y-116513571D01*
X93092859Y-116656428D02*
X93950002Y-116656428D01*
X93521431Y-116656428D02*
X93521431Y-115156428D01*
X93521431Y-115156428D02*
X93664288Y-115370714D01*
X93664288Y-115370714D02*
X93807145Y-115513571D01*
X93807145Y-115513571D02*
X93950002Y-115585000D01*
X56038809Y-27060238D02*
X56038809Y-25060238D01*
X56038809Y-25060238D02*
X55372142Y-26488809D01*
X55372142Y-26488809D02*
X54705476Y-25060238D01*
X54705476Y-25060238D02*
X54705476Y-27060238D01*
X53848333Y-25250714D02*
X53753095Y-25155476D01*
X53753095Y-25155476D02*
X53562619Y-25060238D01*
X53562619Y-25060238D02*
X53086428Y-25060238D01*
X53086428Y-25060238D02*
X52895952Y-25155476D01*
X52895952Y-25155476D02*
X52800714Y-25250714D01*
X52800714Y-25250714D02*
X52705476Y-25441190D01*
X52705476Y-25441190D02*
X52705476Y-25631666D01*
X52705476Y-25631666D02*
X52800714Y-25917380D01*
X52800714Y-25917380D02*
X53943571Y-27060238D01*
X53943571Y-27060238D02*
X52705476Y-27060238D01*
X104394047Y-32045000D02*
X104108333Y-32140238D01*
X104108333Y-32140238D02*
X103632142Y-32140238D01*
X103632142Y-32140238D02*
X103441666Y-32045000D01*
X103441666Y-32045000D02*
X103346428Y-31949761D01*
X103346428Y-31949761D02*
X103251190Y-31759285D01*
X103251190Y-31759285D02*
X103251190Y-31568809D01*
X103251190Y-31568809D02*
X103346428Y-31378333D01*
X103346428Y-31378333D02*
X103441666Y-31283095D01*
X103441666Y-31283095D02*
X103632142Y-31187857D01*
X103632142Y-31187857D02*
X104013095Y-31092619D01*
X104013095Y-31092619D02*
X104203571Y-30997380D01*
X104203571Y-30997380D02*
X104298809Y-30902142D01*
X104298809Y-30902142D02*
X104394047Y-30711666D01*
X104394047Y-30711666D02*
X104394047Y-30521190D01*
X104394047Y-30521190D02*
X104298809Y-30330714D01*
X104298809Y-30330714D02*
X104203571Y-30235476D01*
X104203571Y-30235476D02*
X104013095Y-30140238D01*
X104013095Y-30140238D02*
X103536904Y-30140238D01*
X103536904Y-30140238D02*
X103251190Y-30235476D01*
X102584523Y-30140238D02*
X101346428Y-30140238D01*
X101346428Y-30140238D02*
X102013095Y-30902142D01*
X102013095Y-30902142D02*
X101727380Y-30902142D01*
X101727380Y-30902142D02*
X101536904Y-30997380D01*
X101536904Y-30997380D02*
X101441666Y-31092619D01*
X101441666Y-31092619D02*
X101346428Y-31283095D01*
X101346428Y-31283095D02*
X101346428Y-31759285D01*
X101346428Y-31759285D02*
X101441666Y-31949761D01*
X101441666Y-31949761D02*
X101536904Y-32045000D01*
X101536904Y-32045000D02*
X101727380Y-32140238D01*
X101727380Y-32140238D02*
X102298809Y-32140238D01*
X102298809Y-32140238D02*
X102489285Y-32045000D01*
X102489285Y-32045000D02*
X102584523Y-31949761D01*
X94234047Y-32045000D02*
X93948333Y-32140238D01*
X93948333Y-32140238D02*
X93472142Y-32140238D01*
X93472142Y-32140238D02*
X93281666Y-32045000D01*
X93281666Y-32045000D02*
X93186428Y-31949761D01*
X93186428Y-31949761D02*
X93091190Y-31759285D01*
X93091190Y-31759285D02*
X93091190Y-31568809D01*
X93091190Y-31568809D02*
X93186428Y-31378333D01*
X93186428Y-31378333D02*
X93281666Y-31283095D01*
X93281666Y-31283095D02*
X93472142Y-31187857D01*
X93472142Y-31187857D02*
X93853095Y-31092619D01*
X93853095Y-31092619D02*
X94043571Y-30997380D01*
X94043571Y-30997380D02*
X94138809Y-30902142D01*
X94138809Y-30902142D02*
X94234047Y-30711666D01*
X94234047Y-30711666D02*
X94234047Y-30521190D01*
X94234047Y-30521190D02*
X94138809Y-30330714D01*
X94138809Y-30330714D02*
X94043571Y-30235476D01*
X94043571Y-30235476D02*
X93853095Y-30140238D01*
X93853095Y-30140238D02*
X93376904Y-30140238D01*
X93376904Y-30140238D02*
X93091190Y-30235476D01*
X91186428Y-32140238D02*
X92329285Y-32140238D01*
X91757857Y-32140238D02*
X91757857Y-30140238D01*
X91757857Y-30140238D02*
X91948333Y-30425952D01*
X91948333Y-30425952D02*
X92138809Y-30616428D01*
X92138809Y-30616428D02*
X92329285Y-30711666D01*
%LPC*%
D13*
%TO.C,M8*%
X107950000Y-27305000D03*
D14*
X107950000Y-24765000D03*
X107950000Y-22225000D03*
%TD*%
D15*
%TO.C,CN3*%
X46902999Y-22225000D03*
X48902999Y-22225000D03*
X50902999Y-22225000D03*
X52902999Y-22225000D03*
X54902999Y-22225000D03*
X56902999Y-22225000D03*
%TD*%
D16*
%TO.C,U17*%
X34801000Y-33378973D03*
X36101000Y-33378973D03*
X37401000Y-33378973D03*
X34801000Y-32078973D03*
X36101000Y-32078973D03*
X37401000Y-32078973D03*
%TD*%
D15*
%TO.C,CN4*%
X31655000Y-22172973D03*
X33655000Y-22172973D03*
X35655000Y-22172973D03*
X37655000Y-22172973D03*
X39655000Y-22172973D03*
X41655000Y-22172973D03*
%TD*%
D16*
%TO.C,U16*%
X50049000Y-33502973D03*
X51349000Y-33502973D03*
X52649000Y-33502973D03*
X50049000Y-32202973D03*
X51349000Y-32202973D03*
X52649000Y-32202973D03*
%TD*%
%TO.C,U13*%
X80409000Y-33378973D03*
X81709000Y-33378973D03*
X83009000Y-33378973D03*
X80409000Y-32078973D03*
X81709000Y-32078973D03*
X83009000Y-32078973D03*
%TD*%
D17*
%TO.C,H2*%
X25000000Y-115000000D03*
%TD*%
D13*
%TO.C,M6*%
X98000000Y-27305000D03*
D14*
X98000000Y-24765000D03*
X98000000Y-22225000D03*
%TD*%
D13*
%TO.C,M5*%
X93000000Y-27305000D03*
D14*
X93000000Y-24765000D03*
X93000000Y-22225000D03*
%TD*%
D15*
%TO.C,CN2*%
X61942999Y-22188973D03*
X63942999Y-22188973D03*
X65942999Y-22188973D03*
X67942999Y-22188973D03*
X69942999Y-22188973D03*
X71942999Y-22188973D03*
%TD*%
D16*
%TO.C,U15*%
X65089000Y-33394973D03*
X66389000Y-33394973D03*
X67689000Y-33394973D03*
X65089000Y-32094973D03*
X66389000Y-32094973D03*
X67689000Y-32094973D03*
%TD*%
D18*
%TO.C,U1*%
X22275000Y-53725000D03*
D19*
X25305000Y-53425000D03*
X25305000Y-48575000D03*
D18*
X22275000Y-48275000D03*
%TD*%
D17*
%TO.C,H1*%
X115000000Y-25000000D03*
%TD*%
D13*
%TO.C,M7*%
X103000000Y-27305000D03*
D14*
X103000000Y-24765000D03*
X103000000Y-22225000D03*
%TD*%
D20*
%TO.C,U7*%
X95249995Y-55244995D03*
X97790000Y-55244995D03*
X100330005Y-55244995D03*
X95249995Y-60325005D03*
X97790000Y-60325005D03*
X100330005Y-60325005D03*
%TD*%
%TO.C,U6*%
X38499860Y-65589987D03*
%TD*%
D15*
%TO.C,CN1*%
X77262999Y-22172973D03*
X79262999Y-22172973D03*
X81262999Y-22172973D03*
X83262999Y-22172973D03*
X85262999Y-22172973D03*
X87262999Y-22172973D03*
%TD*%
D17*
%TO.C,H4*%
X25000000Y-25000000D03*
%TD*%
%TO.C,H3*%
X115000000Y-55000000D03*
%TD*%
%LPD*%
M02*
