%TF.GenerationSoftware,KiCad,Pcbnew,7.0.2-0*%
%TF.CreationDate,2024-06-06T04:37:27-07:00*%
%TF.ProjectId,version_1,76657273-696f-46e5-9f31-2e6b69636164,rev?*%
%TF.SameCoordinates,Original*%
%TF.FileFunction,Legend,Top*%
%TF.FilePolarity,Positive*%
%FSLAX46Y46*%
G04 Gerber Fmt 4.6, Leading zero omitted, Abs format (unit mm)*
G04 Created by KiCad (PCBNEW 7.0.2-0) date 2024-06-06 04:37:27*
%MOMM*%
%LPD*%
G01*
G04 APERTURE LIST*
G04 Aperture macros list*
%AMRoundRect*
0 Rectangle with rounded corners*
0 $1 Rounding radius*
0 $2 $3 $4 $5 $6 $7 $8 $9 X,Y pos of 4 corners*
0 Add a 4 corners polygon primitive as box body*
4,1,4,$2,$3,$4,$5,$6,$7,$8,$9,$2,$3,0*
0 Add four circle primitives for the rounded corners*
1,1,$1+$1,$2,$3*
1,1,$1+$1,$4,$5*
1,1,$1+$1,$6,$7*
1,1,$1+$1,$8,$9*
0 Add four rect primitives between the rounded corners*
20,1,$1+$1,$2,$3,$4,$5,0*
20,1,$1+$1,$4,$5,$6,$7,0*
20,1,$1+$1,$6,$7,$8,$9,0*
20,1,$1+$1,$8,$9,$2,$3,0*%
%AMFreePoly0*
4,1,19,0.550000,-0.750000,0.000000,-0.750000,0.000000,-0.744911,-0.071157,-0.744911,-0.207708,-0.704816,-0.327430,-0.627875,-0.420627,-0.520320,-0.479746,-0.390866,-0.500000,-0.250000,-0.500000,0.250000,-0.479746,0.390866,-0.420627,0.520320,-0.327430,0.627875,-0.207708,0.704816,-0.071157,0.744911,0.000000,0.744911,0.000000,0.750000,0.550000,0.750000,0.550000,-0.750000,0.550000,-0.750000,
$1*%
%AMFreePoly1*
4,1,19,0.000000,0.744911,0.071157,0.744911,0.207708,0.704816,0.327430,0.627875,0.420627,0.520320,0.479746,0.390866,0.500000,0.250000,0.500000,-0.250000,0.479746,-0.390866,0.420627,-0.520320,0.327430,-0.627875,0.207708,-0.704816,0.071157,-0.744911,0.000000,-0.744911,0.000000,-0.750000,-0.550000,-0.750000,-0.550000,0.750000,0.000000,0.750000,0.000000,0.744911,0.000000,0.744911,
$1*%
G04 Aperture macros list end*
%ADD10C,0.300000*%
%ADD11C,0.100000*%
%ADD12C,0.304800*%
%ADD13C,0.150000*%
%ADD14C,0.120000*%
%ADD15C,0.254000*%
%ADD16C,0.059995*%
%ADD17C,0.152400*%
%ADD18RoundRect,0.237500X-0.250000X-0.237500X0.250000X-0.237500X0.250000X0.237500X-0.250000X0.237500X0*%
%ADD19RoundRect,0.250000X-0.337500X-0.475000X0.337500X-0.475000X0.337500X0.475000X-0.337500X0.475000X0*%
%ADD20R,1.700000X1.700000*%
%ADD21O,1.700000X1.700000*%
%ADD22RoundRect,0.237500X0.237500X-0.250000X0.237500X0.250000X-0.237500X0.250000X-0.237500X-0.250000X0*%
%ADD23RoundRect,0.237500X0.300000X0.237500X-0.300000X0.237500X-0.300000X-0.237500X0.300000X-0.237500X0*%
%ADD24RoundRect,0.237500X0.250000X0.237500X-0.250000X0.237500X-0.250000X-0.237500X0.250000X-0.237500X0*%
%ADD25FreePoly0,270.000000*%
%ADD26R,1.500000X1.000000*%
%ADD27FreePoly1,270.000000*%
%ADD28RoundRect,0.150000X-0.850000X-0.150000X0.850000X-0.150000X0.850000X0.150000X-0.850000X0.150000X0*%
%ADD29FreePoly0,90.000000*%
%ADD30FreePoly1,90.000000*%
%ADD31RoundRect,0.250000X-0.475000X0.337500X-0.475000X-0.337500X0.475000X-0.337500X0.475000X0.337500X0*%
%ADD32RoundRect,0.237500X-0.237500X0.300000X-0.237500X-0.300000X0.237500X-0.300000X0.237500X0.300000X0*%
%ADD33FreePoly0,180.000000*%
%ADD34R,1.000000X1.500000*%
%ADD35FreePoly1,180.000000*%
%ADD36C,1.600000*%
%ADD37R,3.100000X2.400000*%
%ADD38RoundRect,0.070000X0.250000X-1.100000X0.250000X1.100000X-0.250000X1.100000X-0.250000X-1.100000X0*%
%ADD39C,0.770000*%
%ADD40R,1.550013X0.600000*%
%ADD41R,1.800000X1.200000*%
%ADD42R,2.500000X1.900000*%
%ADD43RoundRect,0.237500X-0.237500X0.250000X-0.237500X-0.250000X0.237500X-0.250000X0.237500X0.250000X0*%
%ADD44C,3.200000*%
%ADD45RoundRect,0.237500X-0.300000X-0.237500X0.300000X-0.237500X0.300000X0.237500X-0.300000X0.237500X0*%
%ADD46RoundRect,0.237500X0.237500X-0.300000X0.237500X0.300000X-0.237500X0.300000X-0.237500X-0.300000X0*%
%ADD47RoundRect,0.150000X-0.587500X-0.150000X0.587500X-0.150000X0.587500X0.150000X-0.587500X0.150000X0*%
%ADD48R,1.072009X0.532004*%
%ADD49RoundRect,0.250000X0.325000X0.450000X-0.325000X0.450000X-0.325000X-0.450000X0.325000X-0.450000X0*%
%ADD50RoundRect,0.150000X0.150000X-0.587500X0.150000X0.587500X-0.150000X0.587500X-0.150000X-0.587500X0*%
%ADD51O,1.800000X1.800000*%
%ADD52O,1.500000X1.500000*%
%ADD53R,1.700000X3.500000*%
%ADD54C,1.800000*%
%ADD55RoundRect,0.250000X-1.500000X-0.650000X1.500000X-0.650000X1.500000X0.650000X-1.500000X0.650000X0*%
%ADD56R,5.200000X7.400000*%
%ADD57RoundRect,0.087500X0.225000X0.087500X-0.225000X0.087500X-0.225000X-0.087500X0.225000X-0.087500X0*%
%ADD58RoundRect,0.087500X0.087500X0.225000X-0.087500X0.225000X-0.087500X-0.225000X0.087500X-0.225000X0*%
%ADD59R,5.300000X2.000000*%
%ADD60RoundRect,0.250000X0.475000X-0.337500X0.475000X0.337500X-0.475000X0.337500X-0.475000X-0.337500X0*%
%ADD61RoundRect,0.250000X0.450000X-0.325000X0.450000X0.325000X-0.450000X0.325000X-0.450000X-0.325000X0*%
%ADD62R,1.134011X3.358547*%
%ADD63R,10.566421X7.180544*%
%ADD64R,1.100000X2.000000*%
G04 APERTURE END LIST*
D10*
X110463896Y-22216377D02*
X111987706Y-22216377D01*
X100000000Y-72993333D02*
X101523810Y-72993333D01*
X100761905Y-73755238D02*
X100761905Y-72231428D01*
X48000000Y-72993333D02*
X49523810Y-72993333D01*
X60166190Y-27695238D02*
X60166190Y-25695238D01*
X60166190Y-25695238D02*
X60832857Y-27123809D01*
X60832857Y-27123809D02*
X61499523Y-25695238D01*
X61499523Y-25695238D02*
X61499523Y-27695238D01*
X62261428Y-25695238D02*
X63499523Y-25695238D01*
X63499523Y-25695238D02*
X62832856Y-26457142D01*
X62832856Y-26457142D02*
X63118571Y-26457142D01*
X63118571Y-26457142D02*
X63309047Y-26552380D01*
X63309047Y-26552380D02*
X63404285Y-26647619D01*
X63404285Y-26647619D02*
X63499523Y-26838095D01*
X63499523Y-26838095D02*
X63499523Y-27314285D01*
X63499523Y-27314285D02*
X63404285Y-27504761D01*
X63404285Y-27504761D02*
X63309047Y-27600000D01*
X63309047Y-27600000D02*
X63118571Y-27695238D01*
X63118571Y-27695238D02*
X62547142Y-27695238D01*
X62547142Y-27695238D02*
X62356666Y-27600000D01*
X62356666Y-27600000D02*
X62261428Y-27504761D01*
D11*
X21150238Y-30353095D02*
X21102619Y-30448333D01*
X21102619Y-30448333D02*
X21102619Y-30591190D01*
X21102619Y-30591190D02*
X21150238Y-30734047D01*
X21150238Y-30734047D02*
X21245476Y-30829285D01*
X21245476Y-30829285D02*
X21340714Y-30876904D01*
X21340714Y-30876904D02*
X21531190Y-30924523D01*
X21531190Y-30924523D02*
X21674047Y-30924523D01*
X21674047Y-30924523D02*
X21864523Y-30876904D01*
X21864523Y-30876904D02*
X21959761Y-30829285D01*
X21959761Y-30829285D02*
X22055000Y-30734047D01*
X22055000Y-30734047D02*
X22102619Y-30591190D01*
X22102619Y-30591190D02*
X22102619Y-30495952D01*
X22102619Y-30495952D02*
X22055000Y-30353095D01*
X22055000Y-30353095D02*
X22007380Y-30305476D01*
X22007380Y-30305476D02*
X21674047Y-30305476D01*
X21674047Y-30305476D02*
X21674047Y-30495952D01*
X22102619Y-29876904D02*
X21102619Y-29876904D01*
X21102619Y-29876904D02*
X22102619Y-29305476D01*
X22102619Y-29305476D02*
X21102619Y-29305476D01*
X22102619Y-28829285D02*
X21102619Y-28829285D01*
X21102619Y-28829285D02*
X21102619Y-28591190D01*
X21102619Y-28591190D02*
X21150238Y-28448333D01*
X21150238Y-28448333D02*
X21245476Y-28353095D01*
X21245476Y-28353095D02*
X21340714Y-28305476D01*
X21340714Y-28305476D02*
X21531190Y-28257857D01*
X21531190Y-28257857D02*
X21674047Y-28257857D01*
X21674047Y-28257857D02*
X21864523Y-28305476D01*
X21864523Y-28305476D02*
X21959761Y-28353095D01*
X21959761Y-28353095D02*
X22055000Y-28448333D01*
X22055000Y-28448333D02*
X22102619Y-28591190D01*
X22102619Y-28591190D02*
X22102619Y-28829285D01*
D10*
X45401190Y-27516211D02*
X45401190Y-25516211D01*
X45401190Y-25516211D02*
X46067857Y-26944782D01*
X46067857Y-26944782D02*
X46734523Y-25516211D01*
X46734523Y-25516211D02*
X46734523Y-27516211D01*
X47591666Y-25706687D02*
X47686904Y-25611449D01*
X47686904Y-25611449D02*
X47877380Y-25516211D01*
X47877380Y-25516211D02*
X48353571Y-25516211D01*
X48353571Y-25516211D02*
X48544047Y-25611449D01*
X48544047Y-25611449D02*
X48639285Y-25706687D01*
X48639285Y-25706687D02*
X48734523Y-25897163D01*
X48734523Y-25897163D02*
X48734523Y-26087639D01*
X48734523Y-26087639D02*
X48639285Y-26373353D01*
X48639285Y-26373353D02*
X47496428Y-27516211D01*
X47496428Y-27516211D02*
X48734523Y-27516211D01*
X100000000Y-90993333D02*
X101523810Y-90993333D01*
X100761905Y-91755238D02*
X100761905Y-90231428D01*
D11*
X21102619Y-34782142D02*
X21102619Y-34163095D01*
X21102619Y-34163095D02*
X21483571Y-34496428D01*
X21483571Y-34496428D02*
X21483571Y-34353571D01*
X21483571Y-34353571D02*
X21531190Y-34258333D01*
X21531190Y-34258333D02*
X21578809Y-34210714D01*
X21578809Y-34210714D02*
X21674047Y-34163095D01*
X21674047Y-34163095D02*
X21912142Y-34163095D01*
X21912142Y-34163095D02*
X22007380Y-34210714D01*
X22007380Y-34210714D02*
X22055000Y-34258333D01*
X22055000Y-34258333D02*
X22102619Y-34353571D01*
X22102619Y-34353571D02*
X22102619Y-34639285D01*
X22102619Y-34639285D02*
X22055000Y-34734523D01*
X22055000Y-34734523D02*
X22007380Y-34782142D01*
X21435952Y-33829761D02*
X22102619Y-33591666D01*
X22102619Y-33591666D02*
X21435952Y-33353571D01*
X21102619Y-33067856D02*
X21102619Y-32448809D01*
X21102619Y-32448809D02*
X21483571Y-32782142D01*
X21483571Y-32782142D02*
X21483571Y-32639285D01*
X21483571Y-32639285D02*
X21531190Y-32544047D01*
X21531190Y-32544047D02*
X21578809Y-32496428D01*
X21578809Y-32496428D02*
X21674047Y-32448809D01*
X21674047Y-32448809D02*
X21912142Y-32448809D01*
X21912142Y-32448809D02*
X22007380Y-32496428D01*
X22007380Y-32496428D02*
X22055000Y-32544047D01*
X22055000Y-32544047D02*
X22102619Y-32639285D01*
X22102619Y-32639285D02*
X22102619Y-32924999D01*
X22102619Y-32924999D02*
X22055000Y-33020237D01*
X22055000Y-33020237D02*
X22007380Y-33067856D01*
D10*
X110463896Y-24445905D02*
X111987706Y-24445905D01*
X111225801Y-25207810D02*
X111225801Y-23684000D01*
X29749190Y-27770211D02*
X29749190Y-25770211D01*
X29749190Y-25770211D02*
X30415857Y-27198782D01*
X30415857Y-27198782D02*
X31082523Y-25770211D01*
X31082523Y-25770211D02*
X31082523Y-27770211D01*
X33082523Y-27770211D02*
X31939666Y-27770211D01*
X32511094Y-27770211D02*
X32511094Y-25770211D01*
X32511094Y-25770211D02*
X32320618Y-26055925D01*
X32320618Y-26055925D02*
X32130142Y-26246401D01*
X32130142Y-26246401D02*
X31939666Y-26341639D01*
X47000000Y-90993333D02*
X48523810Y-90993333D01*
X100000000Y-109993333D02*
X101523810Y-109993333D01*
X100761905Y-110755238D02*
X100761905Y-109231428D01*
X106380952Y-30702973D02*
X106666666Y-30798211D01*
X106666666Y-30798211D02*
X107142857Y-30798211D01*
X107142857Y-30798211D02*
X107333333Y-30702973D01*
X107333333Y-30702973D02*
X107428571Y-30607734D01*
X107428571Y-30607734D02*
X107523809Y-30417258D01*
X107523809Y-30417258D02*
X107523809Y-30226782D01*
X107523809Y-30226782D02*
X107428571Y-30036306D01*
X107428571Y-30036306D02*
X107333333Y-29941068D01*
X107333333Y-29941068D02*
X107142857Y-29845830D01*
X107142857Y-29845830D02*
X106761904Y-29750592D01*
X106761904Y-29750592D02*
X106571428Y-29655353D01*
X106571428Y-29655353D02*
X106476190Y-29560115D01*
X106476190Y-29560115D02*
X106380952Y-29369639D01*
X106380952Y-29369639D02*
X106380952Y-29179163D01*
X106380952Y-29179163D02*
X106476190Y-28988687D01*
X106476190Y-28988687D02*
X106571428Y-28893449D01*
X106571428Y-28893449D02*
X106761904Y-28798211D01*
X106761904Y-28798211D02*
X107238095Y-28798211D01*
X107238095Y-28798211D02*
X107523809Y-28893449D01*
X109238095Y-29464877D02*
X109238095Y-30798211D01*
X108761904Y-28702973D02*
X108285714Y-30131544D01*
X108285714Y-30131544D02*
X109523809Y-30131544D01*
X103165238Y-61118333D02*
X103165238Y-60737380D01*
X103165238Y-60737380D02*
X103260476Y-60546904D01*
X103260476Y-60546904D02*
X103450952Y-60356428D01*
X103450952Y-60356428D02*
X103831904Y-60261190D01*
X103831904Y-60261190D02*
X104498571Y-60261190D01*
X104498571Y-60261190D02*
X104879523Y-60356428D01*
X104879523Y-60356428D02*
X105070000Y-60546904D01*
X105070000Y-60546904D02*
X105165238Y-60737380D01*
X105165238Y-60737380D02*
X105165238Y-61118333D01*
X105165238Y-61118333D02*
X105070000Y-61308809D01*
X105070000Y-61308809D02*
X104879523Y-61499285D01*
X104879523Y-61499285D02*
X104498571Y-61594523D01*
X104498571Y-61594523D02*
X103831904Y-61594523D01*
X103831904Y-61594523D02*
X103450952Y-61499285D01*
X103450952Y-61499285D02*
X103260476Y-61308809D01*
X103260476Y-61308809D02*
X103165238Y-61118333D01*
X105165238Y-59404047D02*
X103165238Y-59404047D01*
X103165238Y-59404047D02*
X105165238Y-58261190D01*
X105165238Y-58261190D02*
X103165238Y-58261190D01*
D11*
X118733809Y-104838571D02*
X118733809Y-105171904D01*
X119257619Y-105171904D02*
X118257619Y-105171904D01*
X118257619Y-105171904D02*
X118257619Y-104695714D01*
X119257619Y-104171904D02*
X119210000Y-104267142D01*
X119210000Y-104267142D02*
X119114761Y-104314761D01*
X119114761Y-104314761D02*
X118257619Y-104314761D01*
X119257619Y-103790951D02*
X118590952Y-103790951D01*
X118257619Y-103790951D02*
X118305238Y-103838570D01*
X118305238Y-103838570D02*
X118352857Y-103790951D01*
X118352857Y-103790951D02*
X118305238Y-103743332D01*
X118305238Y-103743332D02*
X118257619Y-103790951D01*
X118257619Y-103790951D02*
X118352857Y-103790951D01*
X118590952Y-103314761D02*
X119590952Y-103314761D01*
X118638571Y-103314761D02*
X118590952Y-103219523D01*
X118590952Y-103219523D02*
X118590952Y-103029047D01*
X118590952Y-103029047D02*
X118638571Y-102933809D01*
X118638571Y-102933809D02*
X118686190Y-102886190D01*
X118686190Y-102886190D02*
X118781428Y-102838571D01*
X118781428Y-102838571D02*
X119067142Y-102838571D01*
X119067142Y-102838571D02*
X119162380Y-102886190D01*
X119162380Y-102886190D02*
X119210000Y-102933809D01*
X119210000Y-102933809D02*
X119257619Y-103029047D01*
X119257619Y-103029047D02*
X119257619Y-103219523D01*
X119257619Y-103219523D02*
X119210000Y-103314761D01*
X118590952Y-102409999D02*
X119590952Y-102409999D01*
X118638571Y-102409999D02*
X118590952Y-102314761D01*
X118590952Y-102314761D02*
X118590952Y-102124285D01*
X118590952Y-102124285D02*
X118638571Y-102029047D01*
X118638571Y-102029047D02*
X118686190Y-101981428D01*
X118686190Y-101981428D02*
X118781428Y-101933809D01*
X118781428Y-101933809D02*
X119067142Y-101933809D01*
X119067142Y-101933809D02*
X119162380Y-101981428D01*
X119162380Y-101981428D02*
X119210000Y-102029047D01*
X119210000Y-102029047D02*
X119257619Y-102124285D01*
X119257619Y-102124285D02*
X119257619Y-102314761D01*
X119257619Y-102314761D02*
X119210000Y-102409999D01*
X119210000Y-101124285D02*
X119257619Y-101219523D01*
X119257619Y-101219523D02*
X119257619Y-101409999D01*
X119257619Y-101409999D02*
X119210000Y-101505237D01*
X119210000Y-101505237D02*
X119114761Y-101552856D01*
X119114761Y-101552856D02*
X118733809Y-101552856D01*
X118733809Y-101552856D02*
X118638571Y-101505237D01*
X118638571Y-101505237D02*
X118590952Y-101409999D01*
X118590952Y-101409999D02*
X118590952Y-101219523D01*
X118590952Y-101219523D02*
X118638571Y-101124285D01*
X118638571Y-101124285D02*
X118733809Y-101076666D01*
X118733809Y-101076666D02*
X118829047Y-101076666D01*
X118829047Y-101076666D02*
X118924285Y-101552856D01*
X119257619Y-100219523D02*
X118257619Y-100219523D01*
X119210000Y-100219523D02*
X119257619Y-100314761D01*
X119257619Y-100314761D02*
X119257619Y-100505237D01*
X119257619Y-100505237D02*
X119210000Y-100600475D01*
X119210000Y-100600475D02*
X119162380Y-100648094D01*
X119162380Y-100648094D02*
X119067142Y-100695713D01*
X119067142Y-100695713D02*
X118781428Y-100695713D01*
X118781428Y-100695713D02*
X118686190Y-100648094D01*
X118686190Y-100648094D02*
X118638571Y-100600475D01*
X118638571Y-100600475D02*
X118590952Y-100505237D01*
X118590952Y-100505237D02*
X118590952Y-100314761D01*
X118590952Y-100314761D02*
X118638571Y-100219523D01*
X119162380Y-98409999D02*
X119210000Y-98457618D01*
X119210000Y-98457618D02*
X119257619Y-98600475D01*
X119257619Y-98600475D02*
X119257619Y-98695713D01*
X119257619Y-98695713D02*
X119210000Y-98838570D01*
X119210000Y-98838570D02*
X119114761Y-98933808D01*
X119114761Y-98933808D02*
X119019523Y-98981427D01*
X119019523Y-98981427D02*
X118829047Y-99029046D01*
X118829047Y-99029046D02*
X118686190Y-99029046D01*
X118686190Y-99029046D02*
X118495714Y-98981427D01*
X118495714Y-98981427D02*
X118400476Y-98933808D01*
X118400476Y-98933808D02*
X118305238Y-98838570D01*
X118305238Y-98838570D02*
X118257619Y-98695713D01*
X118257619Y-98695713D02*
X118257619Y-98600475D01*
X118257619Y-98600475D02*
X118305238Y-98457618D01*
X118305238Y-98457618D02*
X118352857Y-98409999D01*
X119210000Y-97600475D02*
X119257619Y-97695713D01*
X119257619Y-97695713D02*
X119257619Y-97886189D01*
X119257619Y-97886189D02*
X119210000Y-97981427D01*
X119210000Y-97981427D02*
X119114761Y-98029046D01*
X119114761Y-98029046D02*
X118733809Y-98029046D01*
X118733809Y-98029046D02*
X118638571Y-97981427D01*
X118638571Y-97981427D02*
X118590952Y-97886189D01*
X118590952Y-97886189D02*
X118590952Y-97695713D01*
X118590952Y-97695713D02*
X118638571Y-97600475D01*
X118638571Y-97600475D02*
X118733809Y-97552856D01*
X118733809Y-97552856D02*
X118829047Y-97552856D01*
X118829047Y-97552856D02*
X118924285Y-98029046D01*
X119257619Y-96981427D02*
X119210000Y-97076665D01*
X119210000Y-97076665D02*
X119114761Y-97124284D01*
X119114761Y-97124284D02*
X118257619Y-97124284D01*
X119257619Y-96457617D02*
X119210000Y-96552855D01*
X119210000Y-96552855D02*
X119114761Y-96600474D01*
X119114761Y-96600474D02*
X118257619Y-96600474D01*
X119162380Y-96076664D02*
X119210000Y-96029045D01*
X119210000Y-96029045D02*
X119257619Y-96076664D01*
X119257619Y-96076664D02*
X119210000Y-96124283D01*
X119210000Y-96124283D02*
X119162380Y-96076664D01*
X119162380Y-96076664D02*
X119257619Y-96076664D01*
X118876666Y-96076664D02*
X118305238Y-96124283D01*
X118305238Y-96124283D02*
X118257619Y-96076664D01*
X118257619Y-96076664D02*
X118305238Y-96029045D01*
X118305238Y-96029045D02*
X118876666Y-96076664D01*
X118876666Y-96076664D02*
X118257619Y-96076664D01*
D10*
X90465238Y-61181667D02*
X90465238Y-60800714D01*
X90465238Y-60800714D02*
X90560476Y-60610238D01*
X90560476Y-60610238D02*
X90750952Y-60419762D01*
X90750952Y-60419762D02*
X91131904Y-60324524D01*
X91131904Y-60324524D02*
X91798571Y-60324524D01*
X91798571Y-60324524D02*
X92179523Y-60419762D01*
X92179523Y-60419762D02*
X92370000Y-60610238D01*
X92370000Y-60610238D02*
X92465238Y-60800714D01*
X92465238Y-60800714D02*
X92465238Y-61181667D01*
X92465238Y-61181667D02*
X92370000Y-61372143D01*
X92370000Y-61372143D02*
X92179523Y-61562619D01*
X92179523Y-61562619D02*
X91798571Y-61657857D01*
X91798571Y-61657857D02*
X91131904Y-61657857D01*
X91131904Y-61657857D02*
X90750952Y-61562619D01*
X90750952Y-61562619D02*
X90560476Y-61372143D01*
X90560476Y-61372143D02*
X90465238Y-61181667D01*
X91417619Y-58800714D02*
X91417619Y-59467381D01*
X92465238Y-59467381D02*
X90465238Y-59467381D01*
X90465238Y-59467381D02*
X90465238Y-58515000D01*
X91417619Y-57086428D02*
X91417619Y-57753095D01*
X92465238Y-57753095D02*
X90465238Y-57753095D01*
X90465238Y-57753095D02*
X90465238Y-56800714D01*
X75406190Y-27695238D02*
X75406190Y-25695238D01*
X75406190Y-25695238D02*
X76072857Y-27123809D01*
X76072857Y-27123809D02*
X76739523Y-25695238D01*
X76739523Y-25695238D02*
X76739523Y-27695238D01*
X78549047Y-26361904D02*
X78549047Y-27695238D01*
X78072856Y-25600000D02*
X77596666Y-27028571D01*
X77596666Y-27028571D02*
X78834761Y-27028571D01*
D12*
G36*
X78362629Y-61852629D02*
G01*
X72767371Y-61852629D01*
X72767371Y-59417724D01*
X73893027Y-59417724D01*
X73896582Y-59424614D01*
X73896582Y-59990028D01*
X73895277Y-60032417D01*
X73908254Y-60054046D01*
X73915362Y-60078252D01*
X73930808Y-60091636D01*
X74054164Y-60297228D01*
X74062184Y-60322714D01*
X74093629Y-60348918D01*
X74123727Y-60376666D01*
X74127778Y-60377376D01*
X74225725Y-60458999D01*
X74239346Y-60478704D01*
X74279673Y-60495507D01*
X74319695Y-60512861D01*
X74320864Y-60512669D01*
X74558499Y-60611684D01*
X74584805Y-60628590D01*
X74621222Y-60628590D01*
X74657428Y-60632559D01*
X74665398Y-60628590D01*
X74906362Y-60628590D01*
X74937149Y-60634078D01*
X74970765Y-60620070D01*
X75005712Y-60609810D01*
X75011543Y-60603080D01*
X75249541Y-60503913D01*
X75273312Y-60500962D01*
X75306847Y-60473015D01*
X75340783Y-60445552D01*
X75341155Y-60444425D01*
X75438977Y-60362907D01*
X75462927Y-60351066D01*
X75483989Y-60315961D01*
X75506778Y-60281961D01*
X75506857Y-60277848D01*
X75618348Y-60092029D01*
X75633525Y-60079034D01*
X75640904Y-60054435D01*
X75642366Y-60052000D01*
X75647185Y-60033499D01*
X75786046Y-59570628D01*
X75908094Y-59367216D01*
X76015713Y-59277533D01*
X76256605Y-59177161D01*
X76485930Y-59177161D01*
X76726824Y-59277534D01*
X76834441Y-59367214D01*
X76944582Y-59550782D01*
X76944582Y-60083982D01*
X76802202Y-60439935D01*
X76795885Y-60506295D01*
X76836919Y-60585831D01*
X76914439Y-60630557D01*
X77003833Y-60626273D01*
X77076721Y-60574338D01*
X77233069Y-60183465D01*
X77249382Y-60158082D01*
X77249382Y-60120572D01*
X77252937Y-60083227D01*
X77249382Y-60076336D01*
X77249382Y-59510922D01*
X77250687Y-59468534D01*
X77237709Y-59446903D01*
X77230602Y-59422699D01*
X77215155Y-59409315D01*
X77091799Y-59203719D01*
X77083781Y-59178237D01*
X77052342Y-59152037D01*
X77022238Y-59124285D01*
X77018186Y-59123574D01*
X76920239Y-59041952D01*
X76906620Y-59022248D01*
X76866313Y-59005453D01*
X76826269Y-58988090D01*
X76825099Y-58988281D01*
X76587466Y-58889266D01*
X76561160Y-58872361D01*
X76524743Y-58872361D01*
X76488537Y-58868392D01*
X76480566Y-58872361D01*
X76239603Y-58872361D01*
X76208816Y-58866873D01*
X76175199Y-58880879D01*
X76140253Y-58891141D01*
X76134421Y-58897870D01*
X75896423Y-58997037D01*
X75872654Y-58999989D01*
X75839124Y-59027930D01*
X75805181Y-59055401D01*
X75804809Y-59056526D01*
X75706988Y-59138043D01*
X75683038Y-59149885D01*
X75661974Y-59184991D01*
X75639187Y-59218990D01*
X75639107Y-59223101D01*
X75527615Y-59408922D01*
X75512440Y-59421917D01*
X75505061Y-59446511D01*
X75503598Y-59448951D01*
X75498774Y-59467467D01*
X75359918Y-59930321D01*
X75237868Y-60133738D01*
X75130251Y-60223418D01*
X74889360Y-60323790D01*
X74660034Y-60323790D01*
X74419138Y-60223417D01*
X74311523Y-60133737D01*
X74201382Y-59950167D01*
X74201382Y-59416969D01*
X74343763Y-59061016D01*
X74350080Y-58994656D01*
X74309046Y-58915120D01*
X74231527Y-58870394D01*
X74142132Y-58874678D01*
X74069244Y-58926613D01*
X73912894Y-59317486D01*
X73896582Y-59342870D01*
X73896582Y-59380378D01*
X73893027Y-59417724D01*
X72767371Y-59417724D01*
X72767371Y-57938734D01*
X73890169Y-57938734D01*
X73893233Y-57948583D01*
X73891765Y-57958794D01*
X73906336Y-57990700D01*
X73916755Y-58024191D01*
X73924657Y-58030820D01*
X73928943Y-58040204D01*
X73958451Y-58059168D01*
X73985323Y-58081709D01*
X73995555Y-58083013D01*
X74004233Y-58088590D01*
X74039307Y-58088590D01*
X74074102Y-58093025D01*
X74083415Y-58088590D01*
X77118894Y-58088590D01*
X77182854Y-58069810D01*
X77241462Y-58002172D01*
X77254199Y-57913586D01*
X77217021Y-57832176D01*
X77141731Y-57783790D01*
X74723495Y-57783790D01*
X77151550Y-56627572D01*
X77182854Y-56618381D01*
X77205823Y-56591872D01*
X77231960Y-56568482D01*
X77234707Y-56558538D01*
X77241462Y-56550743D01*
X77246453Y-56516025D01*
X77255795Y-56482217D01*
X77252730Y-56472367D01*
X77254199Y-56462157D01*
X77239627Y-56430250D01*
X77229209Y-56396760D01*
X77221306Y-56390130D01*
X77217021Y-56380747D01*
X77187512Y-56361782D01*
X77160641Y-56339242D01*
X77150408Y-56337937D01*
X77141731Y-56332361D01*
X77106657Y-56332361D01*
X77071862Y-56327926D01*
X77062549Y-56332361D01*
X74027070Y-56332361D01*
X73963110Y-56351141D01*
X73904502Y-56418779D01*
X73891765Y-56507365D01*
X73928943Y-56588775D01*
X74004233Y-56637161D01*
X76422469Y-56637161D01*
X73994413Y-57793378D01*
X73963110Y-57802570D01*
X73940140Y-57829078D01*
X73914004Y-57852469D01*
X73911256Y-57862412D01*
X73904502Y-57870208D01*
X73899510Y-57904925D01*
X73890169Y-57938734D01*
X72767371Y-57938734D01*
X72767371Y-55278297D01*
X75051320Y-55278297D01*
X75054338Y-55287890D01*
X75052908Y-55297842D01*
X75057085Y-55306989D01*
X75056892Y-55317043D01*
X75070431Y-55339030D01*
X75078184Y-55363668D01*
X75085908Y-55370105D01*
X75090086Y-55379252D01*
X75098547Y-55384689D01*
X75103819Y-55393251D01*
X75127097Y-55404428D01*
X75238562Y-55497315D01*
X75248961Y-55514203D01*
X75272243Y-55525382D01*
X75274538Y-55527295D01*
X75291941Y-55534841D01*
X75329639Y-55552943D01*
X75332786Y-55552552D01*
X75335696Y-55553814D01*
X75376962Y-55547066D01*
X75418455Y-55541915D01*
X75420891Y-55539884D01*
X75424021Y-55539373D01*
X75455089Y-55511386D01*
X75566034Y-55418932D01*
X75569163Y-55418421D01*
X75576633Y-55411691D01*
X75586283Y-55408858D01*
X75607481Y-55384392D01*
X75614809Y-55378287D01*
X75616473Y-55375803D01*
X75635659Y-55358521D01*
X75638305Y-55348819D01*
X75644891Y-55341220D01*
X75646321Y-55331268D01*
X75651921Y-55322914D01*
X75652418Y-55297094D01*
X75657547Y-55278297D01*
X76647892Y-55278297D01*
X76650910Y-55287890D01*
X76649480Y-55297842D01*
X76653657Y-55306989D01*
X76653464Y-55317043D01*
X76667003Y-55339030D01*
X76674756Y-55363668D01*
X76682480Y-55370105D01*
X76686658Y-55379252D01*
X76695119Y-55384689D01*
X76700391Y-55393251D01*
X76723669Y-55404428D01*
X76835134Y-55497315D01*
X76845533Y-55514203D01*
X76868814Y-55525382D01*
X76871110Y-55527295D01*
X76888519Y-55534843D01*
X76926212Y-55552943D01*
X76929358Y-55552552D01*
X76932268Y-55553814D01*
X76973546Y-55547065D01*
X77015027Y-55541914D01*
X77017461Y-55539884D01*
X77020593Y-55539373D01*
X77051675Y-55511373D01*
X77162605Y-55418932D01*
X77165733Y-55418421D01*
X77173203Y-55411691D01*
X77182854Y-55408858D01*
X77204052Y-55384392D01*
X77211380Y-55378287D01*
X77213046Y-55375801D01*
X77232229Y-55358521D01*
X77234875Y-55348821D01*
X77241462Y-55341220D01*
X77242893Y-55331267D01*
X77248492Y-55322913D01*
X77248989Y-55297091D01*
X77255786Y-55272180D01*
X77252767Y-55262588D01*
X77254199Y-55252634D01*
X77250021Y-55243486D01*
X77250215Y-55233433D01*
X77236674Y-55211442D01*
X77228923Y-55186809D01*
X77221198Y-55180371D01*
X77217021Y-55171224D01*
X77208561Y-55165787D01*
X77203289Y-55157225D01*
X77180008Y-55146046D01*
X77068544Y-55053158D01*
X77058146Y-55036272D01*
X77034868Y-55025094D01*
X77032572Y-55023181D01*
X77015152Y-55015627D01*
X76977468Y-54997532D01*
X76974323Y-54997922D01*
X76971414Y-54996661D01*
X76930141Y-55003408D01*
X76888653Y-55008561D01*
X76886217Y-55010590D01*
X76883089Y-55011102D01*
X76852017Y-55039090D01*
X76741072Y-55131544D01*
X76737945Y-55132056D01*
X76730475Y-55138784D01*
X76720825Y-55141618D01*
X76699626Y-55166083D01*
X76692299Y-55172189D01*
X76690633Y-55174673D01*
X76671449Y-55191955D01*
X76668802Y-55201656D01*
X76662217Y-55209256D01*
X76660786Y-55219207D01*
X76655187Y-55227562D01*
X76654689Y-55253381D01*
X76647892Y-55278297D01*
X75657547Y-55278297D01*
X75659216Y-55272180D01*
X75656197Y-55262586D01*
X75657628Y-55252634D01*
X75653451Y-55243488D01*
X75653645Y-55233433D01*
X75640103Y-55211441D01*
X75632352Y-55186809D01*
X75624627Y-55180372D01*
X75620450Y-55171224D01*
X75611990Y-55165787D01*
X75606718Y-55157225D01*
X75583435Y-55146045D01*
X75471972Y-55053159D01*
X75461574Y-55036272D01*
X75438293Y-55025093D01*
X75435999Y-55023181D01*
X75418589Y-55015631D01*
X75380896Y-54997532D01*
X75377750Y-54997922D01*
X75374841Y-54996661D01*
X75333565Y-55003409D01*
X75292081Y-55008561D01*
X75289645Y-55010590D01*
X75286516Y-55011102D01*
X75255445Y-55039090D01*
X75144500Y-55131544D01*
X75141373Y-55132056D01*
X75133903Y-55138784D01*
X75124253Y-55141618D01*
X75103054Y-55166083D01*
X75095727Y-55172189D01*
X75094061Y-55174673D01*
X75074877Y-55191955D01*
X75072230Y-55201656D01*
X75065645Y-55209256D01*
X75064214Y-55219207D01*
X75058615Y-55227562D01*
X75058117Y-55253381D01*
X75051320Y-55278297D01*
X72767371Y-55278297D01*
X72767371Y-39977181D01*
X78362629Y-39977181D01*
X78362629Y-61852629D01*
G37*
D11*
X118733809Y-86423571D02*
X118733809Y-86756904D01*
X119257619Y-86756904D02*
X118257619Y-86756904D01*
X118257619Y-86756904D02*
X118257619Y-86280714D01*
X119257619Y-85756904D02*
X119210000Y-85852142D01*
X119210000Y-85852142D02*
X119114761Y-85899761D01*
X119114761Y-85899761D02*
X118257619Y-85899761D01*
X119257619Y-85375951D02*
X118590952Y-85375951D01*
X118257619Y-85375951D02*
X118305238Y-85423570D01*
X118305238Y-85423570D02*
X118352857Y-85375951D01*
X118352857Y-85375951D02*
X118305238Y-85328332D01*
X118305238Y-85328332D02*
X118257619Y-85375951D01*
X118257619Y-85375951D02*
X118352857Y-85375951D01*
X118590952Y-84899761D02*
X119590952Y-84899761D01*
X118638571Y-84899761D02*
X118590952Y-84804523D01*
X118590952Y-84804523D02*
X118590952Y-84614047D01*
X118590952Y-84614047D02*
X118638571Y-84518809D01*
X118638571Y-84518809D02*
X118686190Y-84471190D01*
X118686190Y-84471190D02*
X118781428Y-84423571D01*
X118781428Y-84423571D02*
X119067142Y-84423571D01*
X119067142Y-84423571D02*
X119162380Y-84471190D01*
X119162380Y-84471190D02*
X119210000Y-84518809D01*
X119210000Y-84518809D02*
X119257619Y-84614047D01*
X119257619Y-84614047D02*
X119257619Y-84804523D01*
X119257619Y-84804523D02*
X119210000Y-84899761D01*
X118590952Y-83994999D02*
X119590952Y-83994999D01*
X118638571Y-83994999D02*
X118590952Y-83899761D01*
X118590952Y-83899761D02*
X118590952Y-83709285D01*
X118590952Y-83709285D02*
X118638571Y-83614047D01*
X118638571Y-83614047D02*
X118686190Y-83566428D01*
X118686190Y-83566428D02*
X118781428Y-83518809D01*
X118781428Y-83518809D02*
X119067142Y-83518809D01*
X119067142Y-83518809D02*
X119162380Y-83566428D01*
X119162380Y-83566428D02*
X119210000Y-83614047D01*
X119210000Y-83614047D02*
X119257619Y-83709285D01*
X119257619Y-83709285D02*
X119257619Y-83899761D01*
X119257619Y-83899761D02*
X119210000Y-83994999D01*
X119210000Y-82709285D02*
X119257619Y-82804523D01*
X119257619Y-82804523D02*
X119257619Y-82994999D01*
X119257619Y-82994999D02*
X119210000Y-83090237D01*
X119210000Y-83090237D02*
X119114761Y-83137856D01*
X119114761Y-83137856D02*
X118733809Y-83137856D01*
X118733809Y-83137856D02*
X118638571Y-83090237D01*
X118638571Y-83090237D02*
X118590952Y-82994999D01*
X118590952Y-82994999D02*
X118590952Y-82804523D01*
X118590952Y-82804523D02*
X118638571Y-82709285D01*
X118638571Y-82709285D02*
X118733809Y-82661666D01*
X118733809Y-82661666D02*
X118829047Y-82661666D01*
X118829047Y-82661666D02*
X118924285Y-83137856D01*
X119257619Y-81804523D02*
X118257619Y-81804523D01*
X119210000Y-81804523D02*
X119257619Y-81899761D01*
X119257619Y-81899761D02*
X119257619Y-82090237D01*
X119257619Y-82090237D02*
X119210000Y-82185475D01*
X119210000Y-82185475D02*
X119162380Y-82233094D01*
X119162380Y-82233094D02*
X119067142Y-82280713D01*
X119067142Y-82280713D02*
X118781428Y-82280713D01*
X118781428Y-82280713D02*
X118686190Y-82233094D01*
X118686190Y-82233094D02*
X118638571Y-82185475D01*
X118638571Y-82185475D02*
X118590952Y-82090237D01*
X118590952Y-82090237D02*
X118590952Y-81899761D01*
X118590952Y-81899761D02*
X118638571Y-81804523D01*
X119162380Y-79994999D02*
X119210000Y-80042618D01*
X119210000Y-80042618D02*
X119257619Y-80185475D01*
X119257619Y-80185475D02*
X119257619Y-80280713D01*
X119257619Y-80280713D02*
X119210000Y-80423570D01*
X119210000Y-80423570D02*
X119114761Y-80518808D01*
X119114761Y-80518808D02*
X119019523Y-80566427D01*
X119019523Y-80566427D02*
X118829047Y-80614046D01*
X118829047Y-80614046D02*
X118686190Y-80614046D01*
X118686190Y-80614046D02*
X118495714Y-80566427D01*
X118495714Y-80566427D02*
X118400476Y-80518808D01*
X118400476Y-80518808D02*
X118305238Y-80423570D01*
X118305238Y-80423570D02*
X118257619Y-80280713D01*
X118257619Y-80280713D02*
X118257619Y-80185475D01*
X118257619Y-80185475D02*
X118305238Y-80042618D01*
X118305238Y-80042618D02*
X118352857Y-79994999D01*
X119210000Y-79185475D02*
X119257619Y-79280713D01*
X119257619Y-79280713D02*
X119257619Y-79471189D01*
X119257619Y-79471189D02*
X119210000Y-79566427D01*
X119210000Y-79566427D02*
X119114761Y-79614046D01*
X119114761Y-79614046D02*
X118733809Y-79614046D01*
X118733809Y-79614046D02*
X118638571Y-79566427D01*
X118638571Y-79566427D02*
X118590952Y-79471189D01*
X118590952Y-79471189D02*
X118590952Y-79280713D01*
X118590952Y-79280713D02*
X118638571Y-79185475D01*
X118638571Y-79185475D02*
X118733809Y-79137856D01*
X118733809Y-79137856D02*
X118829047Y-79137856D01*
X118829047Y-79137856D02*
X118924285Y-79614046D01*
X119257619Y-78566427D02*
X119210000Y-78661665D01*
X119210000Y-78661665D02*
X119114761Y-78709284D01*
X119114761Y-78709284D02*
X118257619Y-78709284D01*
X119257619Y-78042617D02*
X119210000Y-78137855D01*
X119210000Y-78137855D02*
X119114761Y-78185474D01*
X119114761Y-78185474D02*
X118257619Y-78185474D01*
X119162380Y-77661664D02*
X119210000Y-77614045D01*
X119210000Y-77614045D02*
X119257619Y-77661664D01*
X119257619Y-77661664D02*
X119210000Y-77709283D01*
X119210000Y-77709283D02*
X119162380Y-77661664D01*
X119162380Y-77661664D02*
X119257619Y-77661664D01*
X118876666Y-77661664D02*
X118305238Y-77709283D01*
X118305238Y-77709283D02*
X118257619Y-77661664D01*
X118257619Y-77661664D02*
X118305238Y-77614045D01*
X118305238Y-77614045D02*
X118876666Y-77661664D01*
X118876666Y-77661664D02*
X118257619Y-77661664D01*
D10*
X110634870Y-28157374D02*
X110920584Y-28252612D01*
X110920584Y-28252612D02*
X111396775Y-28252612D01*
X111396775Y-28252612D02*
X111587251Y-28157374D01*
X111587251Y-28157374D02*
X111682489Y-28062135D01*
X111682489Y-28062135D02*
X111777727Y-27871659D01*
X111777727Y-27871659D02*
X111777727Y-27681183D01*
X111777727Y-27681183D02*
X111682489Y-27490707D01*
X111682489Y-27490707D02*
X111587251Y-27395469D01*
X111587251Y-27395469D02*
X111396775Y-27300231D01*
X111396775Y-27300231D02*
X111015822Y-27204993D01*
X111015822Y-27204993D02*
X110825346Y-27109754D01*
X110825346Y-27109754D02*
X110730108Y-27014516D01*
X110730108Y-27014516D02*
X110634870Y-26824040D01*
X110634870Y-26824040D02*
X110634870Y-26633564D01*
X110634870Y-26633564D02*
X110730108Y-26443088D01*
X110730108Y-26443088D02*
X110825346Y-26347850D01*
X110825346Y-26347850D02*
X111015822Y-26252612D01*
X111015822Y-26252612D02*
X111492013Y-26252612D01*
X111492013Y-26252612D02*
X111777727Y-26347850D01*
X91380952Y-30702973D02*
X91666666Y-30798211D01*
X91666666Y-30798211D02*
X92142857Y-30798211D01*
X92142857Y-30798211D02*
X92333333Y-30702973D01*
X92333333Y-30702973D02*
X92428571Y-30607734D01*
X92428571Y-30607734D02*
X92523809Y-30417258D01*
X92523809Y-30417258D02*
X92523809Y-30226782D01*
X92523809Y-30226782D02*
X92428571Y-30036306D01*
X92428571Y-30036306D02*
X92333333Y-29941068D01*
X92333333Y-29941068D02*
X92142857Y-29845830D01*
X92142857Y-29845830D02*
X91761904Y-29750592D01*
X91761904Y-29750592D02*
X91571428Y-29655353D01*
X91571428Y-29655353D02*
X91476190Y-29560115D01*
X91476190Y-29560115D02*
X91380952Y-29369639D01*
X91380952Y-29369639D02*
X91380952Y-29179163D01*
X91380952Y-29179163D02*
X91476190Y-28988687D01*
X91476190Y-28988687D02*
X91571428Y-28893449D01*
X91571428Y-28893449D02*
X91761904Y-28798211D01*
X91761904Y-28798211D02*
X92238095Y-28798211D01*
X92238095Y-28798211D02*
X92523809Y-28893449D01*
X94428571Y-30798211D02*
X93285714Y-30798211D01*
X93857142Y-30798211D02*
X93857142Y-28798211D01*
X93857142Y-28798211D02*
X93666666Y-29083925D01*
X93666666Y-29083925D02*
X93476190Y-29274401D01*
X93476190Y-29274401D02*
X93285714Y-29369639D01*
D11*
X119102216Y-118330218D02*
X119102216Y-118663551D01*
X119626026Y-118663551D02*
X118626026Y-118663551D01*
X118626026Y-118663551D02*
X118626026Y-118187361D01*
X119626026Y-117663551D02*
X119578407Y-117758789D01*
X119578407Y-117758789D02*
X119483168Y-117806408D01*
X119483168Y-117806408D02*
X118626026Y-117806408D01*
X119626026Y-117282598D02*
X118959359Y-117282598D01*
X118626026Y-117282598D02*
X118673645Y-117330217D01*
X118673645Y-117330217D02*
X118721264Y-117282598D01*
X118721264Y-117282598D02*
X118673645Y-117234979D01*
X118673645Y-117234979D02*
X118626026Y-117282598D01*
X118626026Y-117282598D02*
X118721264Y-117282598D01*
X118959359Y-116806408D02*
X119959359Y-116806408D01*
X119006978Y-116806408D02*
X118959359Y-116711170D01*
X118959359Y-116711170D02*
X118959359Y-116520694D01*
X118959359Y-116520694D02*
X119006978Y-116425456D01*
X119006978Y-116425456D02*
X119054597Y-116377837D01*
X119054597Y-116377837D02*
X119149835Y-116330218D01*
X119149835Y-116330218D02*
X119435549Y-116330218D01*
X119435549Y-116330218D02*
X119530787Y-116377837D01*
X119530787Y-116377837D02*
X119578407Y-116425456D01*
X119578407Y-116425456D02*
X119626026Y-116520694D01*
X119626026Y-116520694D02*
X119626026Y-116711170D01*
X119626026Y-116711170D02*
X119578407Y-116806408D01*
X118959359Y-115901646D02*
X119959359Y-115901646D01*
X119006978Y-115901646D02*
X118959359Y-115806408D01*
X118959359Y-115806408D02*
X118959359Y-115615932D01*
X118959359Y-115615932D02*
X119006978Y-115520694D01*
X119006978Y-115520694D02*
X119054597Y-115473075D01*
X119054597Y-115473075D02*
X119149835Y-115425456D01*
X119149835Y-115425456D02*
X119435549Y-115425456D01*
X119435549Y-115425456D02*
X119530787Y-115473075D01*
X119530787Y-115473075D02*
X119578407Y-115520694D01*
X119578407Y-115520694D02*
X119626026Y-115615932D01*
X119626026Y-115615932D02*
X119626026Y-115806408D01*
X119626026Y-115806408D02*
X119578407Y-115901646D01*
X119578407Y-114615932D02*
X119626026Y-114711170D01*
X119626026Y-114711170D02*
X119626026Y-114901646D01*
X119626026Y-114901646D02*
X119578407Y-114996884D01*
X119578407Y-114996884D02*
X119483168Y-115044503D01*
X119483168Y-115044503D02*
X119102216Y-115044503D01*
X119102216Y-115044503D02*
X119006978Y-114996884D01*
X119006978Y-114996884D02*
X118959359Y-114901646D01*
X118959359Y-114901646D02*
X118959359Y-114711170D01*
X118959359Y-114711170D02*
X119006978Y-114615932D01*
X119006978Y-114615932D02*
X119102216Y-114568313D01*
X119102216Y-114568313D02*
X119197454Y-114568313D01*
X119197454Y-114568313D02*
X119292692Y-115044503D01*
X119626026Y-113711170D02*
X118626026Y-113711170D01*
X119578407Y-113711170D02*
X119626026Y-113806408D01*
X119626026Y-113806408D02*
X119626026Y-113996884D01*
X119626026Y-113996884D02*
X119578407Y-114092122D01*
X119578407Y-114092122D02*
X119530787Y-114139741D01*
X119530787Y-114139741D02*
X119435549Y-114187360D01*
X119435549Y-114187360D02*
X119149835Y-114187360D01*
X119149835Y-114187360D02*
X119054597Y-114139741D01*
X119054597Y-114139741D02*
X119006978Y-114092122D01*
X119006978Y-114092122D02*
X118959359Y-113996884D01*
X118959359Y-113996884D02*
X118959359Y-113806408D01*
X118959359Y-113806408D02*
X119006978Y-113711170D01*
X119530787Y-111901646D02*
X119578407Y-111949265D01*
X119578407Y-111949265D02*
X119626026Y-112092122D01*
X119626026Y-112092122D02*
X119626026Y-112187360D01*
X119626026Y-112187360D02*
X119578407Y-112330217D01*
X119578407Y-112330217D02*
X119483168Y-112425455D01*
X119483168Y-112425455D02*
X119387930Y-112473074D01*
X119387930Y-112473074D02*
X119197454Y-112520693D01*
X119197454Y-112520693D02*
X119054597Y-112520693D01*
X119054597Y-112520693D02*
X118864121Y-112473074D01*
X118864121Y-112473074D02*
X118768883Y-112425455D01*
X118768883Y-112425455D02*
X118673645Y-112330217D01*
X118673645Y-112330217D02*
X118626026Y-112187360D01*
X118626026Y-112187360D02*
X118626026Y-112092122D01*
X118626026Y-112092122D02*
X118673645Y-111949265D01*
X118673645Y-111949265D02*
X118721264Y-111901646D01*
X119578407Y-111092122D02*
X119626026Y-111187360D01*
X119626026Y-111187360D02*
X119626026Y-111377836D01*
X119626026Y-111377836D02*
X119578407Y-111473074D01*
X119578407Y-111473074D02*
X119483168Y-111520693D01*
X119483168Y-111520693D02*
X119102216Y-111520693D01*
X119102216Y-111520693D02*
X119006978Y-111473074D01*
X119006978Y-111473074D02*
X118959359Y-111377836D01*
X118959359Y-111377836D02*
X118959359Y-111187360D01*
X118959359Y-111187360D02*
X119006978Y-111092122D01*
X119006978Y-111092122D02*
X119102216Y-111044503D01*
X119102216Y-111044503D02*
X119197454Y-111044503D01*
X119197454Y-111044503D02*
X119292692Y-111520693D01*
X119626026Y-110473074D02*
X119578407Y-110568312D01*
X119578407Y-110568312D02*
X119483168Y-110615931D01*
X119483168Y-110615931D02*
X118626026Y-110615931D01*
X119626026Y-109949264D02*
X119578407Y-110044502D01*
X119578407Y-110044502D02*
X119483168Y-110092121D01*
X119483168Y-110092121D02*
X118626026Y-110092121D01*
X119530787Y-109568311D02*
X119578407Y-109520692D01*
X119578407Y-109520692D02*
X119626026Y-109568311D01*
X119626026Y-109568311D02*
X119578407Y-109615930D01*
X119578407Y-109615930D02*
X119530787Y-109568311D01*
X119530787Y-109568311D02*
X119626026Y-109568311D01*
X119245073Y-109568311D02*
X118673645Y-109615930D01*
X118673645Y-109615930D02*
X118626026Y-109568311D01*
X118626026Y-109568311D02*
X118673645Y-109520692D01*
X118673645Y-109520692D02*
X119245073Y-109568311D01*
X119245073Y-109568311D02*
X118626026Y-109568311D01*
D10*
X96380952Y-30702973D02*
X96666666Y-30798211D01*
X96666666Y-30798211D02*
X97142857Y-30798211D01*
X97142857Y-30798211D02*
X97333333Y-30702973D01*
X97333333Y-30702973D02*
X97428571Y-30607734D01*
X97428571Y-30607734D02*
X97523809Y-30417258D01*
X97523809Y-30417258D02*
X97523809Y-30226782D01*
X97523809Y-30226782D02*
X97428571Y-30036306D01*
X97428571Y-30036306D02*
X97333333Y-29941068D01*
X97333333Y-29941068D02*
X97142857Y-29845830D01*
X97142857Y-29845830D02*
X96761904Y-29750592D01*
X96761904Y-29750592D02*
X96571428Y-29655353D01*
X96571428Y-29655353D02*
X96476190Y-29560115D01*
X96476190Y-29560115D02*
X96380952Y-29369639D01*
X96380952Y-29369639D02*
X96380952Y-29179163D01*
X96380952Y-29179163D02*
X96476190Y-28988687D01*
X96476190Y-28988687D02*
X96571428Y-28893449D01*
X96571428Y-28893449D02*
X96761904Y-28798211D01*
X96761904Y-28798211D02*
X97238095Y-28798211D01*
X97238095Y-28798211D02*
X97523809Y-28893449D01*
X98285714Y-28988687D02*
X98380952Y-28893449D01*
X98380952Y-28893449D02*
X98571428Y-28798211D01*
X98571428Y-28798211D02*
X99047619Y-28798211D01*
X99047619Y-28798211D02*
X99238095Y-28893449D01*
X99238095Y-28893449D02*
X99333333Y-28988687D01*
X99333333Y-28988687D02*
X99428571Y-29179163D01*
X99428571Y-29179163D02*
X99428571Y-29369639D01*
X99428571Y-29369639D02*
X99333333Y-29655353D01*
X99333333Y-29655353D02*
X98190476Y-30798211D01*
X98190476Y-30798211D02*
X99428571Y-30798211D01*
X101380952Y-30702973D02*
X101666666Y-30798211D01*
X101666666Y-30798211D02*
X102142857Y-30798211D01*
X102142857Y-30798211D02*
X102333333Y-30702973D01*
X102333333Y-30702973D02*
X102428571Y-30607734D01*
X102428571Y-30607734D02*
X102523809Y-30417258D01*
X102523809Y-30417258D02*
X102523809Y-30226782D01*
X102523809Y-30226782D02*
X102428571Y-30036306D01*
X102428571Y-30036306D02*
X102333333Y-29941068D01*
X102333333Y-29941068D02*
X102142857Y-29845830D01*
X102142857Y-29845830D02*
X101761904Y-29750592D01*
X101761904Y-29750592D02*
X101571428Y-29655353D01*
X101571428Y-29655353D02*
X101476190Y-29560115D01*
X101476190Y-29560115D02*
X101380952Y-29369639D01*
X101380952Y-29369639D02*
X101380952Y-29179163D01*
X101380952Y-29179163D02*
X101476190Y-28988687D01*
X101476190Y-28988687D02*
X101571428Y-28893449D01*
X101571428Y-28893449D02*
X101761904Y-28798211D01*
X101761904Y-28798211D02*
X102238095Y-28798211D01*
X102238095Y-28798211D02*
X102523809Y-28893449D01*
X103190476Y-28798211D02*
X104428571Y-28798211D01*
X104428571Y-28798211D02*
X103761904Y-29560115D01*
X103761904Y-29560115D02*
X104047619Y-29560115D01*
X104047619Y-29560115D02*
X104238095Y-29655353D01*
X104238095Y-29655353D02*
X104333333Y-29750592D01*
X104333333Y-29750592D02*
X104428571Y-29941068D01*
X104428571Y-29941068D02*
X104428571Y-30417258D01*
X104428571Y-30417258D02*
X104333333Y-30607734D01*
X104333333Y-30607734D02*
X104238095Y-30702973D01*
X104238095Y-30702973D02*
X104047619Y-30798211D01*
X104047619Y-30798211D02*
X103476190Y-30798211D01*
X103476190Y-30798211D02*
X103285714Y-30702973D01*
X103285714Y-30702973D02*
X103190476Y-30607734D01*
D11*
X27817619Y-91201904D02*
X26817619Y-91201904D01*
X26912857Y-90773333D02*
X26865238Y-90725714D01*
X26865238Y-90725714D02*
X26817619Y-90630476D01*
X26817619Y-90630476D02*
X26817619Y-90392381D01*
X26817619Y-90392381D02*
X26865238Y-90297143D01*
X26865238Y-90297143D02*
X26912857Y-90249524D01*
X26912857Y-90249524D02*
X27008095Y-90201905D01*
X27008095Y-90201905D02*
X27103333Y-90201905D01*
X27103333Y-90201905D02*
X27246190Y-90249524D01*
X27246190Y-90249524D02*
X27817619Y-90820952D01*
X27817619Y-90820952D02*
X27817619Y-90201905D01*
X27722380Y-89201905D02*
X27770000Y-89249524D01*
X27770000Y-89249524D02*
X27817619Y-89392381D01*
X27817619Y-89392381D02*
X27817619Y-89487619D01*
X27817619Y-89487619D02*
X27770000Y-89630476D01*
X27770000Y-89630476D02*
X27674761Y-89725714D01*
X27674761Y-89725714D02*
X27579523Y-89773333D01*
X27579523Y-89773333D02*
X27389047Y-89820952D01*
X27389047Y-89820952D02*
X27246190Y-89820952D01*
X27246190Y-89820952D02*
X27055714Y-89773333D01*
X27055714Y-89773333D02*
X26960476Y-89725714D01*
X26960476Y-89725714D02*
X26865238Y-89630476D01*
X26865238Y-89630476D02*
X26817619Y-89487619D01*
X26817619Y-89487619D02*
X26817619Y-89392381D01*
X26817619Y-89392381D02*
X26865238Y-89249524D01*
X26865238Y-89249524D02*
X26912857Y-89201905D01*
X27912857Y-87344762D02*
X27865238Y-87440000D01*
X27865238Y-87440000D02*
X27770000Y-87535238D01*
X27770000Y-87535238D02*
X27627142Y-87678095D01*
X27627142Y-87678095D02*
X27579523Y-87773333D01*
X27579523Y-87773333D02*
X27579523Y-87868571D01*
X27817619Y-87820952D02*
X27770000Y-87916190D01*
X27770000Y-87916190D02*
X27674761Y-88011428D01*
X27674761Y-88011428D02*
X27484285Y-88059047D01*
X27484285Y-88059047D02*
X27150952Y-88059047D01*
X27150952Y-88059047D02*
X26960476Y-88011428D01*
X26960476Y-88011428D02*
X26865238Y-87916190D01*
X26865238Y-87916190D02*
X26817619Y-87820952D01*
X26817619Y-87820952D02*
X26817619Y-87630476D01*
X26817619Y-87630476D02*
X26865238Y-87535238D01*
X26865238Y-87535238D02*
X26960476Y-87440000D01*
X26960476Y-87440000D02*
X27150952Y-87392381D01*
X27150952Y-87392381D02*
X27484285Y-87392381D01*
X27484285Y-87392381D02*
X27674761Y-87440000D01*
X27674761Y-87440000D02*
X27770000Y-87535238D01*
X27770000Y-87535238D02*
X27817619Y-87630476D01*
X27817619Y-87630476D02*
X27817619Y-87820952D01*
X27150952Y-87059047D02*
X27817619Y-86868571D01*
X27817619Y-86868571D02*
X27341428Y-86678095D01*
X27341428Y-86678095D02*
X27817619Y-86487619D01*
X27817619Y-86487619D02*
X27150952Y-86297143D01*
X27817619Y-85916190D02*
X27150952Y-85916190D01*
X26817619Y-85916190D02*
X26865238Y-85963809D01*
X26865238Y-85963809D02*
X26912857Y-85916190D01*
X26912857Y-85916190D02*
X26865238Y-85868571D01*
X26865238Y-85868571D02*
X26817619Y-85916190D01*
X26817619Y-85916190D02*
X26912857Y-85916190D01*
X27817619Y-85440000D02*
X27150952Y-85440000D01*
X26817619Y-85440000D02*
X26865238Y-85487619D01*
X26865238Y-85487619D02*
X26912857Y-85440000D01*
X26912857Y-85440000D02*
X26865238Y-85392381D01*
X26865238Y-85392381D02*
X26817619Y-85440000D01*
X26817619Y-85440000D02*
X26912857Y-85440000D01*
X27770000Y-84535239D02*
X27817619Y-84630477D01*
X27817619Y-84630477D02*
X27817619Y-84820953D01*
X27817619Y-84820953D02*
X27770000Y-84916191D01*
X27770000Y-84916191D02*
X27722380Y-84963810D01*
X27722380Y-84963810D02*
X27627142Y-85011429D01*
X27627142Y-85011429D02*
X27341428Y-85011429D01*
X27341428Y-85011429D02*
X27246190Y-84963810D01*
X27246190Y-84963810D02*
X27198571Y-84916191D01*
X27198571Y-84916191D02*
X27150952Y-84820953D01*
X27150952Y-84820953D02*
X27150952Y-84630477D01*
X27150952Y-84630477D02*
X27198571Y-84535239D01*
D10*
X47000000Y-109993333D02*
X48523810Y-109993333D01*
D13*
%TO.C,R5*%
X91902619Y-55411666D02*
X91426428Y-55744999D01*
X91902619Y-55983094D02*
X90902619Y-55983094D01*
X90902619Y-55983094D02*
X90902619Y-55602142D01*
X90902619Y-55602142D02*
X90950238Y-55506904D01*
X90950238Y-55506904D02*
X90997857Y-55459285D01*
X90997857Y-55459285D02*
X91093095Y-55411666D01*
X91093095Y-55411666D02*
X91235952Y-55411666D01*
X91235952Y-55411666D02*
X91331190Y-55459285D01*
X91331190Y-55459285D02*
X91378809Y-55506904D01*
X91378809Y-55506904D02*
X91426428Y-55602142D01*
X91426428Y-55602142D02*
X91426428Y-55983094D01*
X90902619Y-54506904D02*
X90902619Y-54983094D01*
X90902619Y-54983094D02*
X91378809Y-55030713D01*
X91378809Y-55030713D02*
X91331190Y-54983094D01*
X91331190Y-54983094D02*
X91283571Y-54887856D01*
X91283571Y-54887856D02*
X91283571Y-54649761D01*
X91283571Y-54649761D02*
X91331190Y-54554523D01*
X91331190Y-54554523D02*
X91378809Y-54506904D01*
X91378809Y-54506904D02*
X91474047Y-54459285D01*
X91474047Y-54459285D02*
X91712142Y-54459285D01*
X91712142Y-54459285D02*
X91807380Y-54506904D01*
X91807380Y-54506904D02*
X91855000Y-54554523D01*
X91855000Y-54554523D02*
X91902619Y-54649761D01*
X91902619Y-54649761D02*
X91902619Y-54887856D01*
X91902619Y-54887856D02*
X91855000Y-54983094D01*
X91855000Y-54983094D02*
X91807380Y-55030713D01*
%TO.C,C60*%
X93972142Y-38627380D02*
X93924523Y-38675000D01*
X93924523Y-38675000D02*
X93781666Y-38722619D01*
X93781666Y-38722619D02*
X93686428Y-38722619D01*
X93686428Y-38722619D02*
X93543571Y-38675000D01*
X93543571Y-38675000D02*
X93448333Y-38579761D01*
X93448333Y-38579761D02*
X93400714Y-38484523D01*
X93400714Y-38484523D02*
X93353095Y-38294047D01*
X93353095Y-38294047D02*
X93353095Y-38151190D01*
X93353095Y-38151190D02*
X93400714Y-37960714D01*
X93400714Y-37960714D02*
X93448333Y-37865476D01*
X93448333Y-37865476D02*
X93543571Y-37770238D01*
X93543571Y-37770238D02*
X93686428Y-37722619D01*
X93686428Y-37722619D02*
X93781666Y-37722619D01*
X93781666Y-37722619D02*
X93924523Y-37770238D01*
X93924523Y-37770238D02*
X93972142Y-37817857D01*
X94829285Y-37722619D02*
X94638809Y-37722619D01*
X94638809Y-37722619D02*
X94543571Y-37770238D01*
X94543571Y-37770238D02*
X94495952Y-37817857D01*
X94495952Y-37817857D02*
X94400714Y-37960714D01*
X94400714Y-37960714D02*
X94353095Y-38151190D01*
X94353095Y-38151190D02*
X94353095Y-38532142D01*
X94353095Y-38532142D02*
X94400714Y-38627380D01*
X94400714Y-38627380D02*
X94448333Y-38675000D01*
X94448333Y-38675000D02*
X94543571Y-38722619D01*
X94543571Y-38722619D02*
X94734047Y-38722619D01*
X94734047Y-38722619D02*
X94829285Y-38675000D01*
X94829285Y-38675000D02*
X94876904Y-38627380D01*
X94876904Y-38627380D02*
X94924523Y-38532142D01*
X94924523Y-38532142D02*
X94924523Y-38294047D01*
X94924523Y-38294047D02*
X94876904Y-38198809D01*
X94876904Y-38198809D02*
X94829285Y-38151190D01*
X94829285Y-38151190D02*
X94734047Y-38103571D01*
X94734047Y-38103571D02*
X94543571Y-38103571D01*
X94543571Y-38103571D02*
X94448333Y-38151190D01*
X94448333Y-38151190D02*
X94400714Y-38198809D01*
X94400714Y-38198809D02*
X94353095Y-38294047D01*
X95543571Y-37722619D02*
X95638809Y-37722619D01*
X95638809Y-37722619D02*
X95734047Y-37770238D01*
X95734047Y-37770238D02*
X95781666Y-37817857D01*
X95781666Y-37817857D02*
X95829285Y-37913095D01*
X95829285Y-37913095D02*
X95876904Y-38103571D01*
X95876904Y-38103571D02*
X95876904Y-38341666D01*
X95876904Y-38341666D02*
X95829285Y-38532142D01*
X95829285Y-38532142D02*
X95781666Y-38627380D01*
X95781666Y-38627380D02*
X95734047Y-38675000D01*
X95734047Y-38675000D02*
X95638809Y-38722619D01*
X95638809Y-38722619D02*
X95543571Y-38722619D01*
X95543571Y-38722619D02*
X95448333Y-38675000D01*
X95448333Y-38675000D02*
X95400714Y-38627380D01*
X95400714Y-38627380D02*
X95353095Y-38532142D01*
X95353095Y-38532142D02*
X95305476Y-38341666D01*
X95305476Y-38341666D02*
X95305476Y-38103571D01*
X95305476Y-38103571D02*
X95353095Y-37913095D01*
X95353095Y-37913095D02*
X95400714Y-37817857D01*
X95400714Y-37817857D02*
X95448333Y-37770238D01*
X95448333Y-37770238D02*
X95543571Y-37722619D01*
%TO.C,R27*%
X115334616Y-79837619D02*
X115001283Y-79361428D01*
X114763188Y-79837619D02*
X114763188Y-78837619D01*
X114763188Y-78837619D02*
X115144140Y-78837619D01*
X115144140Y-78837619D02*
X115239378Y-78885238D01*
X115239378Y-78885238D02*
X115286997Y-78932857D01*
X115286997Y-78932857D02*
X115334616Y-79028095D01*
X115334616Y-79028095D02*
X115334616Y-79170952D01*
X115334616Y-79170952D02*
X115286997Y-79266190D01*
X115286997Y-79266190D02*
X115239378Y-79313809D01*
X115239378Y-79313809D02*
X115144140Y-79361428D01*
X115144140Y-79361428D02*
X114763188Y-79361428D01*
X115715569Y-78932857D02*
X115763188Y-78885238D01*
X115763188Y-78885238D02*
X115858426Y-78837619D01*
X115858426Y-78837619D02*
X116096521Y-78837619D01*
X116096521Y-78837619D02*
X116191759Y-78885238D01*
X116191759Y-78885238D02*
X116239378Y-78932857D01*
X116239378Y-78932857D02*
X116286997Y-79028095D01*
X116286997Y-79028095D02*
X116286997Y-79123333D01*
X116286997Y-79123333D02*
X116239378Y-79266190D01*
X116239378Y-79266190D02*
X115667950Y-79837619D01*
X115667950Y-79837619D02*
X116286997Y-79837619D01*
X116620331Y-78837619D02*
X117286997Y-78837619D01*
X117286997Y-78837619D02*
X116858426Y-79837619D01*
%TO.C,JP2*%
X23296666Y-34387619D02*
X23296666Y-35101904D01*
X23296666Y-35101904D02*
X23249047Y-35244761D01*
X23249047Y-35244761D02*
X23153809Y-35340000D01*
X23153809Y-35340000D02*
X23010952Y-35387619D01*
X23010952Y-35387619D02*
X22915714Y-35387619D01*
X23772857Y-35387619D02*
X23772857Y-34387619D01*
X23772857Y-34387619D02*
X24153809Y-34387619D01*
X24153809Y-34387619D02*
X24249047Y-34435238D01*
X24249047Y-34435238D02*
X24296666Y-34482857D01*
X24296666Y-34482857D02*
X24344285Y-34578095D01*
X24344285Y-34578095D02*
X24344285Y-34720952D01*
X24344285Y-34720952D02*
X24296666Y-34816190D01*
X24296666Y-34816190D02*
X24249047Y-34863809D01*
X24249047Y-34863809D02*
X24153809Y-34911428D01*
X24153809Y-34911428D02*
X23772857Y-34911428D01*
X24725238Y-34482857D02*
X24772857Y-34435238D01*
X24772857Y-34435238D02*
X24868095Y-34387619D01*
X24868095Y-34387619D02*
X25106190Y-34387619D01*
X25106190Y-34387619D02*
X25201428Y-34435238D01*
X25201428Y-34435238D02*
X25249047Y-34482857D01*
X25249047Y-34482857D02*
X25296666Y-34578095D01*
X25296666Y-34578095D02*
X25296666Y-34673333D01*
X25296666Y-34673333D02*
X25249047Y-34816190D01*
X25249047Y-34816190D02*
X24677619Y-35387619D01*
X24677619Y-35387619D02*
X25296666Y-35387619D01*
%TO.C,U10*%
X108616905Y-36927619D02*
X108616905Y-37737142D01*
X108616905Y-37737142D02*
X108664524Y-37832380D01*
X108664524Y-37832380D02*
X108712143Y-37880000D01*
X108712143Y-37880000D02*
X108807381Y-37927619D01*
X108807381Y-37927619D02*
X108997857Y-37927619D01*
X108997857Y-37927619D02*
X109093095Y-37880000D01*
X109093095Y-37880000D02*
X109140714Y-37832380D01*
X109140714Y-37832380D02*
X109188333Y-37737142D01*
X109188333Y-37737142D02*
X109188333Y-36927619D01*
X110188333Y-37927619D02*
X109616905Y-37927619D01*
X109902619Y-37927619D02*
X109902619Y-36927619D01*
X109902619Y-36927619D02*
X109807381Y-37070476D01*
X109807381Y-37070476D02*
X109712143Y-37165714D01*
X109712143Y-37165714D02*
X109616905Y-37213333D01*
X110807381Y-36927619D02*
X110902619Y-36927619D01*
X110902619Y-36927619D02*
X110997857Y-36975238D01*
X110997857Y-36975238D02*
X111045476Y-37022857D01*
X111045476Y-37022857D02*
X111093095Y-37118095D01*
X111093095Y-37118095D02*
X111140714Y-37308571D01*
X111140714Y-37308571D02*
X111140714Y-37546666D01*
X111140714Y-37546666D02*
X111093095Y-37737142D01*
X111093095Y-37737142D02*
X111045476Y-37832380D01*
X111045476Y-37832380D02*
X110997857Y-37880000D01*
X110997857Y-37880000D02*
X110902619Y-37927619D01*
X110902619Y-37927619D02*
X110807381Y-37927619D01*
X110807381Y-37927619D02*
X110712143Y-37880000D01*
X110712143Y-37880000D02*
X110664524Y-37832380D01*
X110664524Y-37832380D02*
X110616905Y-37737142D01*
X110616905Y-37737142D02*
X110569286Y-37546666D01*
X110569286Y-37546666D02*
X110569286Y-37308571D01*
X110569286Y-37308571D02*
X110616905Y-37118095D01*
X110616905Y-37118095D02*
X110664524Y-37022857D01*
X110664524Y-37022857D02*
X110712143Y-36975238D01*
X110712143Y-36975238D02*
X110807381Y-36927619D01*
%TO.C,JP3*%
X27106666Y-34387619D02*
X27106666Y-35101904D01*
X27106666Y-35101904D02*
X27059047Y-35244761D01*
X27059047Y-35244761D02*
X26963809Y-35340000D01*
X26963809Y-35340000D02*
X26820952Y-35387619D01*
X26820952Y-35387619D02*
X26725714Y-35387619D01*
X27582857Y-35387619D02*
X27582857Y-34387619D01*
X27582857Y-34387619D02*
X27963809Y-34387619D01*
X27963809Y-34387619D02*
X28059047Y-34435238D01*
X28059047Y-34435238D02*
X28106666Y-34482857D01*
X28106666Y-34482857D02*
X28154285Y-34578095D01*
X28154285Y-34578095D02*
X28154285Y-34720952D01*
X28154285Y-34720952D02*
X28106666Y-34816190D01*
X28106666Y-34816190D02*
X28059047Y-34863809D01*
X28059047Y-34863809D02*
X27963809Y-34911428D01*
X27963809Y-34911428D02*
X27582857Y-34911428D01*
X28487619Y-34387619D02*
X29106666Y-34387619D01*
X29106666Y-34387619D02*
X28773333Y-34768571D01*
X28773333Y-34768571D02*
X28916190Y-34768571D01*
X28916190Y-34768571D02*
X29011428Y-34816190D01*
X29011428Y-34816190D02*
X29059047Y-34863809D01*
X29059047Y-34863809D02*
X29106666Y-34959047D01*
X29106666Y-34959047D02*
X29106666Y-35197142D01*
X29106666Y-35197142D02*
X29059047Y-35292380D01*
X29059047Y-35292380D02*
X29011428Y-35340000D01*
X29011428Y-35340000D02*
X28916190Y-35387619D01*
X28916190Y-35387619D02*
X28630476Y-35387619D01*
X28630476Y-35387619D02*
X28535238Y-35340000D01*
X28535238Y-35340000D02*
X28487619Y-35292380D01*
%TO.C,JP4*%
X96321666Y-40102619D02*
X96321666Y-40816904D01*
X96321666Y-40816904D02*
X96274047Y-40959761D01*
X96274047Y-40959761D02*
X96178809Y-41055000D01*
X96178809Y-41055000D02*
X96035952Y-41102619D01*
X96035952Y-41102619D02*
X95940714Y-41102619D01*
X96797857Y-41102619D02*
X96797857Y-40102619D01*
X96797857Y-40102619D02*
X97178809Y-40102619D01*
X97178809Y-40102619D02*
X97274047Y-40150238D01*
X97274047Y-40150238D02*
X97321666Y-40197857D01*
X97321666Y-40197857D02*
X97369285Y-40293095D01*
X97369285Y-40293095D02*
X97369285Y-40435952D01*
X97369285Y-40435952D02*
X97321666Y-40531190D01*
X97321666Y-40531190D02*
X97274047Y-40578809D01*
X97274047Y-40578809D02*
X97178809Y-40626428D01*
X97178809Y-40626428D02*
X96797857Y-40626428D01*
X98226428Y-40435952D02*
X98226428Y-41102619D01*
X97988333Y-40055000D02*
X97750238Y-40769285D01*
X97750238Y-40769285D02*
X98369285Y-40769285D01*
%TO.C,CN3*%
X51212522Y-24592380D02*
X51164903Y-24640000D01*
X51164903Y-24640000D02*
X51022046Y-24687619D01*
X51022046Y-24687619D02*
X50926808Y-24687619D01*
X50926808Y-24687619D02*
X50783951Y-24640000D01*
X50783951Y-24640000D02*
X50688713Y-24544761D01*
X50688713Y-24544761D02*
X50641094Y-24449523D01*
X50641094Y-24449523D02*
X50593475Y-24259047D01*
X50593475Y-24259047D02*
X50593475Y-24116190D01*
X50593475Y-24116190D02*
X50641094Y-23925714D01*
X50641094Y-23925714D02*
X50688713Y-23830476D01*
X50688713Y-23830476D02*
X50783951Y-23735238D01*
X50783951Y-23735238D02*
X50926808Y-23687619D01*
X50926808Y-23687619D02*
X51022046Y-23687619D01*
X51022046Y-23687619D02*
X51164903Y-23735238D01*
X51164903Y-23735238D02*
X51212522Y-23782857D01*
X51641094Y-24687619D02*
X51641094Y-23687619D01*
X51641094Y-23687619D02*
X52212522Y-24687619D01*
X52212522Y-24687619D02*
X52212522Y-23687619D01*
X52593475Y-23687619D02*
X53212522Y-23687619D01*
X53212522Y-23687619D02*
X52879189Y-24068571D01*
X52879189Y-24068571D02*
X53022046Y-24068571D01*
X53022046Y-24068571D02*
X53117284Y-24116190D01*
X53117284Y-24116190D02*
X53164903Y-24163809D01*
X53164903Y-24163809D02*
X53212522Y-24259047D01*
X53212522Y-24259047D02*
X53212522Y-24497142D01*
X53212522Y-24497142D02*
X53164903Y-24592380D01*
X53164903Y-24592380D02*
X53117284Y-24640000D01*
X53117284Y-24640000D02*
X53022046Y-24687619D01*
X53022046Y-24687619D02*
X52736332Y-24687619D01*
X52736332Y-24687619D02*
X52641094Y-24640000D01*
X52641094Y-24640000D02*
X52593475Y-24592380D01*
%TO.C,C6*%
X89267380Y-50966666D02*
X89315000Y-51014285D01*
X89315000Y-51014285D02*
X89362619Y-51157142D01*
X89362619Y-51157142D02*
X89362619Y-51252380D01*
X89362619Y-51252380D02*
X89315000Y-51395237D01*
X89315000Y-51395237D02*
X89219761Y-51490475D01*
X89219761Y-51490475D02*
X89124523Y-51538094D01*
X89124523Y-51538094D02*
X88934047Y-51585713D01*
X88934047Y-51585713D02*
X88791190Y-51585713D01*
X88791190Y-51585713D02*
X88600714Y-51538094D01*
X88600714Y-51538094D02*
X88505476Y-51490475D01*
X88505476Y-51490475D02*
X88410238Y-51395237D01*
X88410238Y-51395237D02*
X88362619Y-51252380D01*
X88362619Y-51252380D02*
X88362619Y-51157142D01*
X88362619Y-51157142D02*
X88410238Y-51014285D01*
X88410238Y-51014285D02*
X88457857Y-50966666D01*
X88362619Y-50109523D02*
X88362619Y-50299999D01*
X88362619Y-50299999D02*
X88410238Y-50395237D01*
X88410238Y-50395237D02*
X88457857Y-50442856D01*
X88457857Y-50442856D02*
X88600714Y-50538094D01*
X88600714Y-50538094D02*
X88791190Y-50585713D01*
X88791190Y-50585713D02*
X89172142Y-50585713D01*
X89172142Y-50585713D02*
X89267380Y-50538094D01*
X89267380Y-50538094D02*
X89315000Y-50490475D01*
X89315000Y-50490475D02*
X89362619Y-50395237D01*
X89362619Y-50395237D02*
X89362619Y-50204761D01*
X89362619Y-50204761D02*
X89315000Y-50109523D01*
X89315000Y-50109523D02*
X89267380Y-50061904D01*
X89267380Y-50061904D02*
X89172142Y-50014285D01*
X89172142Y-50014285D02*
X88934047Y-50014285D01*
X88934047Y-50014285D02*
X88838809Y-50061904D01*
X88838809Y-50061904D02*
X88791190Y-50109523D01*
X88791190Y-50109523D02*
X88743571Y-50204761D01*
X88743571Y-50204761D02*
X88743571Y-50395237D01*
X88743571Y-50395237D02*
X88791190Y-50490475D01*
X88791190Y-50490475D02*
X88838809Y-50538094D01*
X88838809Y-50538094D02*
X88934047Y-50585713D01*
%TO.C,C7*%
X110857380Y-45251666D02*
X110905000Y-45299285D01*
X110905000Y-45299285D02*
X110952619Y-45442142D01*
X110952619Y-45442142D02*
X110952619Y-45537380D01*
X110952619Y-45537380D02*
X110905000Y-45680237D01*
X110905000Y-45680237D02*
X110809761Y-45775475D01*
X110809761Y-45775475D02*
X110714523Y-45823094D01*
X110714523Y-45823094D02*
X110524047Y-45870713D01*
X110524047Y-45870713D02*
X110381190Y-45870713D01*
X110381190Y-45870713D02*
X110190714Y-45823094D01*
X110190714Y-45823094D02*
X110095476Y-45775475D01*
X110095476Y-45775475D02*
X110000238Y-45680237D01*
X110000238Y-45680237D02*
X109952619Y-45537380D01*
X109952619Y-45537380D02*
X109952619Y-45442142D01*
X109952619Y-45442142D02*
X110000238Y-45299285D01*
X110000238Y-45299285D02*
X110047857Y-45251666D01*
X109952619Y-44918332D02*
X109952619Y-44251666D01*
X109952619Y-44251666D02*
X110952619Y-44680237D01*
%TO.C,U17*%
X31462619Y-33623094D02*
X32272142Y-33623094D01*
X32272142Y-33623094D02*
X32367380Y-33575475D01*
X32367380Y-33575475D02*
X32415000Y-33527856D01*
X32415000Y-33527856D02*
X32462619Y-33432618D01*
X32462619Y-33432618D02*
X32462619Y-33242142D01*
X32462619Y-33242142D02*
X32415000Y-33146904D01*
X32415000Y-33146904D02*
X32367380Y-33099285D01*
X32367380Y-33099285D02*
X32272142Y-33051666D01*
X32272142Y-33051666D02*
X31462619Y-33051666D01*
X32462619Y-32051666D02*
X32462619Y-32623094D01*
X32462619Y-32337380D02*
X31462619Y-32337380D01*
X31462619Y-32337380D02*
X31605476Y-32432618D01*
X31605476Y-32432618D02*
X31700714Y-32527856D01*
X31700714Y-32527856D02*
X31748333Y-32623094D01*
X31462619Y-31718332D02*
X31462619Y-31051666D01*
X31462619Y-31051666D02*
X32462619Y-31480237D01*
%TO.C,R17*%
X114927142Y-98252619D02*
X114593809Y-97776428D01*
X114355714Y-98252619D02*
X114355714Y-97252619D01*
X114355714Y-97252619D02*
X114736666Y-97252619D01*
X114736666Y-97252619D02*
X114831904Y-97300238D01*
X114831904Y-97300238D02*
X114879523Y-97347857D01*
X114879523Y-97347857D02*
X114927142Y-97443095D01*
X114927142Y-97443095D02*
X114927142Y-97585952D01*
X114927142Y-97585952D02*
X114879523Y-97681190D01*
X114879523Y-97681190D02*
X114831904Y-97728809D01*
X114831904Y-97728809D02*
X114736666Y-97776428D01*
X114736666Y-97776428D02*
X114355714Y-97776428D01*
X115879523Y-98252619D02*
X115308095Y-98252619D01*
X115593809Y-98252619D02*
X115593809Y-97252619D01*
X115593809Y-97252619D02*
X115498571Y-97395476D01*
X115498571Y-97395476D02*
X115403333Y-97490714D01*
X115403333Y-97490714D02*
X115308095Y-97538333D01*
X116212857Y-97252619D02*
X116879523Y-97252619D01*
X116879523Y-97252619D02*
X116450952Y-98252619D01*
%TO.C,C5*%
X79742380Y-50966666D02*
X79790000Y-51014285D01*
X79790000Y-51014285D02*
X79837619Y-51157142D01*
X79837619Y-51157142D02*
X79837619Y-51252380D01*
X79837619Y-51252380D02*
X79790000Y-51395237D01*
X79790000Y-51395237D02*
X79694761Y-51490475D01*
X79694761Y-51490475D02*
X79599523Y-51538094D01*
X79599523Y-51538094D02*
X79409047Y-51585713D01*
X79409047Y-51585713D02*
X79266190Y-51585713D01*
X79266190Y-51585713D02*
X79075714Y-51538094D01*
X79075714Y-51538094D02*
X78980476Y-51490475D01*
X78980476Y-51490475D02*
X78885238Y-51395237D01*
X78885238Y-51395237D02*
X78837619Y-51252380D01*
X78837619Y-51252380D02*
X78837619Y-51157142D01*
X78837619Y-51157142D02*
X78885238Y-51014285D01*
X78885238Y-51014285D02*
X78932857Y-50966666D01*
X78837619Y-50061904D02*
X78837619Y-50538094D01*
X78837619Y-50538094D02*
X79313809Y-50585713D01*
X79313809Y-50585713D02*
X79266190Y-50538094D01*
X79266190Y-50538094D02*
X79218571Y-50442856D01*
X79218571Y-50442856D02*
X79218571Y-50204761D01*
X79218571Y-50204761D02*
X79266190Y-50109523D01*
X79266190Y-50109523D02*
X79313809Y-50061904D01*
X79313809Y-50061904D02*
X79409047Y-50014285D01*
X79409047Y-50014285D02*
X79647142Y-50014285D01*
X79647142Y-50014285D02*
X79742380Y-50061904D01*
X79742380Y-50061904D02*
X79790000Y-50109523D01*
X79790000Y-50109523D02*
X79837619Y-50204761D01*
X79837619Y-50204761D02*
X79837619Y-50442856D01*
X79837619Y-50442856D02*
X79790000Y-50538094D01*
X79790000Y-50538094D02*
X79742380Y-50585713D01*
%TO.C,U18*%
X23526905Y-90902619D02*
X23526905Y-91712142D01*
X23526905Y-91712142D02*
X23574524Y-91807380D01*
X23574524Y-91807380D02*
X23622143Y-91855000D01*
X23622143Y-91855000D02*
X23717381Y-91902619D01*
X23717381Y-91902619D02*
X23907857Y-91902619D01*
X23907857Y-91902619D02*
X24003095Y-91855000D01*
X24003095Y-91855000D02*
X24050714Y-91807380D01*
X24050714Y-91807380D02*
X24098333Y-91712142D01*
X24098333Y-91712142D02*
X24098333Y-90902619D01*
X25098333Y-91902619D02*
X24526905Y-91902619D01*
X24812619Y-91902619D02*
X24812619Y-90902619D01*
X24812619Y-90902619D02*
X24717381Y-91045476D01*
X24717381Y-91045476D02*
X24622143Y-91140714D01*
X24622143Y-91140714D02*
X24526905Y-91188333D01*
X25669762Y-91331190D02*
X25574524Y-91283571D01*
X25574524Y-91283571D02*
X25526905Y-91235952D01*
X25526905Y-91235952D02*
X25479286Y-91140714D01*
X25479286Y-91140714D02*
X25479286Y-91093095D01*
X25479286Y-91093095D02*
X25526905Y-90997857D01*
X25526905Y-90997857D02*
X25574524Y-90950238D01*
X25574524Y-90950238D02*
X25669762Y-90902619D01*
X25669762Y-90902619D02*
X25860238Y-90902619D01*
X25860238Y-90902619D02*
X25955476Y-90950238D01*
X25955476Y-90950238D02*
X26003095Y-90997857D01*
X26003095Y-90997857D02*
X26050714Y-91093095D01*
X26050714Y-91093095D02*
X26050714Y-91140714D01*
X26050714Y-91140714D02*
X26003095Y-91235952D01*
X26003095Y-91235952D02*
X25955476Y-91283571D01*
X25955476Y-91283571D02*
X25860238Y-91331190D01*
X25860238Y-91331190D02*
X25669762Y-91331190D01*
X25669762Y-91331190D02*
X25574524Y-91378809D01*
X25574524Y-91378809D02*
X25526905Y-91426428D01*
X25526905Y-91426428D02*
X25479286Y-91521666D01*
X25479286Y-91521666D02*
X25479286Y-91712142D01*
X25479286Y-91712142D02*
X25526905Y-91807380D01*
X25526905Y-91807380D02*
X25574524Y-91855000D01*
X25574524Y-91855000D02*
X25669762Y-91902619D01*
X25669762Y-91902619D02*
X25860238Y-91902619D01*
X25860238Y-91902619D02*
X25955476Y-91855000D01*
X25955476Y-91855000D02*
X26003095Y-91807380D01*
X26003095Y-91807380D02*
X26050714Y-91712142D01*
X26050714Y-91712142D02*
X26050714Y-91521666D01*
X26050714Y-91521666D02*
X26003095Y-91426428D01*
X26003095Y-91426428D02*
X25955476Y-91378809D01*
X25955476Y-91378809D02*
X25860238Y-91331190D01*
%TO.C,U5*%
X93853095Y-44547619D02*
X93853095Y-45357142D01*
X93853095Y-45357142D02*
X93900714Y-45452380D01*
X93900714Y-45452380D02*
X93948333Y-45500000D01*
X93948333Y-45500000D02*
X94043571Y-45547619D01*
X94043571Y-45547619D02*
X94234047Y-45547619D01*
X94234047Y-45547619D02*
X94329285Y-45500000D01*
X94329285Y-45500000D02*
X94376904Y-45452380D01*
X94376904Y-45452380D02*
X94424523Y-45357142D01*
X94424523Y-45357142D02*
X94424523Y-44547619D01*
X95376904Y-44547619D02*
X94900714Y-44547619D01*
X94900714Y-44547619D02*
X94853095Y-45023809D01*
X94853095Y-45023809D02*
X94900714Y-44976190D01*
X94900714Y-44976190D02*
X94995952Y-44928571D01*
X94995952Y-44928571D02*
X95234047Y-44928571D01*
X95234047Y-44928571D02*
X95329285Y-44976190D01*
X95329285Y-44976190D02*
X95376904Y-45023809D01*
X95376904Y-45023809D02*
X95424523Y-45119047D01*
X95424523Y-45119047D02*
X95424523Y-45357142D01*
X95424523Y-45357142D02*
X95376904Y-45452380D01*
X95376904Y-45452380D02*
X95329285Y-45500000D01*
X95329285Y-45500000D02*
X95234047Y-45547619D01*
X95234047Y-45547619D02*
X94995952Y-45547619D01*
X94995952Y-45547619D02*
X94900714Y-45500000D01*
X94900714Y-45500000D02*
X94853095Y-45452380D01*
%TO.C,CN4*%
X35964523Y-24540353D02*
X35916904Y-24587973D01*
X35916904Y-24587973D02*
X35774047Y-24635592D01*
X35774047Y-24635592D02*
X35678809Y-24635592D01*
X35678809Y-24635592D02*
X35535952Y-24587973D01*
X35535952Y-24587973D02*
X35440714Y-24492734D01*
X35440714Y-24492734D02*
X35393095Y-24397496D01*
X35393095Y-24397496D02*
X35345476Y-24207020D01*
X35345476Y-24207020D02*
X35345476Y-24064163D01*
X35345476Y-24064163D02*
X35393095Y-23873687D01*
X35393095Y-23873687D02*
X35440714Y-23778449D01*
X35440714Y-23778449D02*
X35535952Y-23683211D01*
X35535952Y-23683211D02*
X35678809Y-23635592D01*
X35678809Y-23635592D02*
X35774047Y-23635592D01*
X35774047Y-23635592D02*
X35916904Y-23683211D01*
X35916904Y-23683211D02*
X35964523Y-23730830D01*
X36393095Y-24635592D02*
X36393095Y-23635592D01*
X36393095Y-23635592D02*
X36964523Y-24635592D01*
X36964523Y-24635592D02*
X36964523Y-23635592D01*
X37869285Y-23968925D02*
X37869285Y-24635592D01*
X37631190Y-23587973D02*
X37393095Y-24302258D01*
X37393095Y-24302258D02*
X38012142Y-24302258D01*
%TO.C,R6*%
X93807619Y-47791666D02*
X93331428Y-48124999D01*
X93807619Y-48363094D02*
X92807619Y-48363094D01*
X92807619Y-48363094D02*
X92807619Y-47982142D01*
X92807619Y-47982142D02*
X92855238Y-47886904D01*
X92855238Y-47886904D02*
X92902857Y-47839285D01*
X92902857Y-47839285D02*
X92998095Y-47791666D01*
X92998095Y-47791666D02*
X93140952Y-47791666D01*
X93140952Y-47791666D02*
X93236190Y-47839285D01*
X93236190Y-47839285D02*
X93283809Y-47886904D01*
X93283809Y-47886904D02*
X93331428Y-47982142D01*
X93331428Y-47982142D02*
X93331428Y-48363094D01*
X92807619Y-46934523D02*
X92807619Y-47124999D01*
X92807619Y-47124999D02*
X92855238Y-47220237D01*
X92855238Y-47220237D02*
X92902857Y-47267856D01*
X92902857Y-47267856D02*
X93045714Y-47363094D01*
X93045714Y-47363094D02*
X93236190Y-47410713D01*
X93236190Y-47410713D02*
X93617142Y-47410713D01*
X93617142Y-47410713D02*
X93712380Y-47363094D01*
X93712380Y-47363094D02*
X93760000Y-47315475D01*
X93760000Y-47315475D02*
X93807619Y-47220237D01*
X93807619Y-47220237D02*
X93807619Y-47029761D01*
X93807619Y-47029761D02*
X93760000Y-46934523D01*
X93760000Y-46934523D02*
X93712380Y-46886904D01*
X93712380Y-46886904D02*
X93617142Y-46839285D01*
X93617142Y-46839285D02*
X93379047Y-46839285D01*
X93379047Y-46839285D02*
X93283809Y-46886904D01*
X93283809Y-46886904D02*
X93236190Y-46934523D01*
X93236190Y-46934523D02*
X93188571Y-47029761D01*
X93188571Y-47029761D02*
X93188571Y-47220237D01*
X93188571Y-47220237D02*
X93236190Y-47315475D01*
X93236190Y-47315475D02*
X93283809Y-47363094D01*
X93283809Y-47363094D02*
X93379047Y-47410713D01*
%TO.C,U16*%
X50196905Y-37562619D02*
X50196905Y-38372142D01*
X50196905Y-38372142D02*
X50244524Y-38467380D01*
X50244524Y-38467380D02*
X50292143Y-38515000D01*
X50292143Y-38515000D02*
X50387381Y-38562619D01*
X50387381Y-38562619D02*
X50577857Y-38562619D01*
X50577857Y-38562619D02*
X50673095Y-38515000D01*
X50673095Y-38515000D02*
X50720714Y-38467380D01*
X50720714Y-38467380D02*
X50768333Y-38372142D01*
X50768333Y-38372142D02*
X50768333Y-37562619D01*
X51768333Y-38562619D02*
X51196905Y-38562619D01*
X51482619Y-38562619D02*
X51482619Y-37562619D01*
X51482619Y-37562619D02*
X51387381Y-37705476D01*
X51387381Y-37705476D02*
X51292143Y-37800714D01*
X51292143Y-37800714D02*
X51196905Y-37848333D01*
X52625476Y-37562619D02*
X52435000Y-37562619D01*
X52435000Y-37562619D02*
X52339762Y-37610238D01*
X52339762Y-37610238D02*
X52292143Y-37657857D01*
X52292143Y-37657857D02*
X52196905Y-37800714D01*
X52196905Y-37800714D02*
X52149286Y-37991190D01*
X52149286Y-37991190D02*
X52149286Y-38372142D01*
X52149286Y-38372142D02*
X52196905Y-38467380D01*
X52196905Y-38467380D02*
X52244524Y-38515000D01*
X52244524Y-38515000D02*
X52339762Y-38562619D01*
X52339762Y-38562619D02*
X52530238Y-38562619D01*
X52530238Y-38562619D02*
X52625476Y-38515000D01*
X52625476Y-38515000D02*
X52673095Y-38467380D01*
X52673095Y-38467380D02*
X52720714Y-38372142D01*
X52720714Y-38372142D02*
X52720714Y-38134047D01*
X52720714Y-38134047D02*
X52673095Y-38038809D01*
X52673095Y-38038809D02*
X52625476Y-37991190D01*
X52625476Y-37991190D02*
X52530238Y-37943571D01*
X52530238Y-37943571D02*
X52339762Y-37943571D01*
X52339762Y-37943571D02*
X52244524Y-37991190D01*
X52244524Y-37991190D02*
X52196905Y-38038809D01*
X52196905Y-38038809D02*
X52149286Y-38134047D01*
%TO.C,C28*%
X40372380Y-31757857D02*
X40420000Y-31805476D01*
X40420000Y-31805476D02*
X40467619Y-31948333D01*
X40467619Y-31948333D02*
X40467619Y-32043571D01*
X40467619Y-32043571D02*
X40420000Y-32186428D01*
X40420000Y-32186428D02*
X40324761Y-32281666D01*
X40324761Y-32281666D02*
X40229523Y-32329285D01*
X40229523Y-32329285D02*
X40039047Y-32376904D01*
X40039047Y-32376904D02*
X39896190Y-32376904D01*
X39896190Y-32376904D02*
X39705714Y-32329285D01*
X39705714Y-32329285D02*
X39610476Y-32281666D01*
X39610476Y-32281666D02*
X39515238Y-32186428D01*
X39515238Y-32186428D02*
X39467619Y-32043571D01*
X39467619Y-32043571D02*
X39467619Y-31948333D01*
X39467619Y-31948333D02*
X39515238Y-31805476D01*
X39515238Y-31805476D02*
X39562857Y-31757857D01*
X39562857Y-31376904D02*
X39515238Y-31329285D01*
X39515238Y-31329285D02*
X39467619Y-31234047D01*
X39467619Y-31234047D02*
X39467619Y-30995952D01*
X39467619Y-30995952D02*
X39515238Y-30900714D01*
X39515238Y-30900714D02*
X39562857Y-30853095D01*
X39562857Y-30853095D02*
X39658095Y-30805476D01*
X39658095Y-30805476D02*
X39753333Y-30805476D01*
X39753333Y-30805476D02*
X39896190Y-30853095D01*
X39896190Y-30853095D02*
X40467619Y-31424523D01*
X40467619Y-31424523D02*
X40467619Y-30805476D01*
X39896190Y-30234047D02*
X39848571Y-30329285D01*
X39848571Y-30329285D02*
X39800952Y-30376904D01*
X39800952Y-30376904D02*
X39705714Y-30424523D01*
X39705714Y-30424523D02*
X39658095Y-30424523D01*
X39658095Y-30424523D02*
X39562857Y-30376904D01*
X39562857Y-30376904D02*
X39515238Y-30329285D01*
X39515238Y-30329285D02*
X39467619Y-30234047D01*
X39467619Y-30234047D02*
X39467619Y-30043571D01*
X39467619Y-30043571D02*
X39515238Y-29948333D01*
X39515238Y-29948333D02*
X39562857Y-29900714D01*
X39562857Y-29900714D02*
X39658095Y-29853095D01*
X39658095Y-29853095D02*
X39705714Y-29853095D01*
X39705714Y-29853095D02*
X39800952Y-29900714D01*
X39800952Y-29900714D02*
X39848571Y-29948333D01*
X39848571Y-29948333D02*
X39896190Y-30043571D01*
X39896190Y-30043571D02*
X39896190Y-30234047D01*
X39896190Y-30234047D02*
X39943809Y-30329285D01*
X39943809Y-30329285D02*
X39991428Y-30376904D01*
X39991428Y-30376904D02*
X40086666Y-30424523D01*
X40086666Y-30424523D02*
X40277142Y-30424523D01*
X40277142Y-30424523D02*
X40372380Y-30376904D01*
X40372380Y-30376904D02*
X40420000Y-30329285D01*
X40420000Y-30329285D02*
X40467619Y-30234047D01*
X40467619Y-30234047D02*
X40467619Y-30043571D01*
X40467619Y-30043571D02*
X40420000Y-29948333D01*
X40420000Y-29948333D02*
X40372380Y-29900714D01*
X40372380Y-29900714D02*
X40277142Y-29853095D01*
X40277142Y-29853095D02*
X40086666Y-29853095D01*
X40086666Y-29853095D02*
X39991428Y-29900714D01*
X39991428Y-29900714D02*
X39943809Y-29948333D01*
X39943809Y-29948333D02*
X39896190Y-30043571D01*
%TO.C,U13*%
X77671619Y-33967067D02*
X78481142Y-33967067D01*
X78481142Y-33967067D02*
X78576380Y-33919448D01*
X78576380Y-33919448D02*
X78624000Y-33871829D01*
X78624000Y-33871829D02*
X78671619Y-33776591D01*
X78671619Y-33776591D02*
X78671619Y-33586115D01*
X78671619Y-33586115D02*
X78624000Y-33490877D01*
X78624000Y-33490877D02*
X78576380Y-33443258D01*
X78576380Y-33443258D02*
X78481142Y-33395639D01*
X78481142Y-33395639D02*
X77671619Y-33395639D01*
X78671619Y-32395639D02*
X78671619Y-32967067D01*
X78671619Y-32681353D02*
X77671619Y-32681353D01*
X77671619Y-32681353D02*
X77814476Y-32776591D01*
X77814476Y-32776591D02*
X77909714Y-32871829D01*
X77909714Y-32871829D02*
X77957333Y-32967067D01*
X77671619Y-32062305D02*
X77671619Y-31443258D01*
X77671619Y-31443258D02*
X78052571Y-31776591D01*
X78052571Y-31776591D02*
X78052571Y-31633734D01*
X78052571Y-31633734D02*
X78100190Y-31538496D01*
X78100190Y-31538496D02*
X78147809Y-31490877D01*
X78147809Y-31490877D02*
X78243047Y-31443258D01*
X78243047Y-31443258D02*
X78481142Y-31443258D01*
X78481142Y-31443258D02*
X78576380Y-31490877D01*
X78576380Y-31490877D02*
X78624000Y-31538496D01*
X78624000Y-31538496D02*
X78671619Y-31633734D01*
X78671619Y-31633734D02*
X78671619Y-31919448D01*
X78671619Y-31919448D02*
X78624000Y-32014686D01*
X78624000Y-32014686D02*
X78576380Y-32062305D01*
%TO.C,C4*%
X39838333Y-27672380D02*
X39790714Y-27720000D01*
X39790714Y-27720000D02*
X39647857Y-27767619D01*
X39647857Y-27767619D02*
X39552619Y-27767619D01*
X39552619Y-27767619D02*
X39409762Y-27720000D01*
X39409762Y-27720000D02*
X39314524Y-27624761D01*
X39314524Y-27624761D02*
X39266905Y-27529523D01*
X39266905Y-27529523D02*
X39219286Y-27339047D01*
X39219286Y-27339047D02*
X39219286Y-27196190D01*
X39219286Y-27196190D02*
X39266905Y-27005714D01*
X39266905Y-27005714D02*
X39314524Y-26910476D01*
X39314524Y-26910476D02*
X39409762Y-26815238D01*
X39409762Y-26815238D02*
X39552619Y-26767619D01*
X39552619Y-26767619D02*
X39647857Y-26767619D01*
X39647857Y-26767619D02*
X39790714Y-26815238D01*
X39790714Y-26815238D02*
X39838333Y-26862857D01*
X40695476Y-27100952D02*
X40695476Y-27767619D01*
X40457381Y-26720000D02*
X40219286Y-27434285D01*
X40219286Y-27434285D02*
X40838333Y-27434285D01*
%TO.C,Q25*%
X29132857Y-98361428D02*
X29085238Y-98456666D01*
X29085238Y-98456666D02*
X28990000Y-98551904D01*
X28990000Y-98551904D02*
X28847142Y-98694761D01*
X28847142Y-98694761D02*
X28799523Y-98789999D01*
X28799523Y-98789999D02*
X28799523Y-98885237D01*
X29037619Y-98837618D02*
X28990000Y-98932856D01*
X28990000Y-98932856D02*
X28894761Y-99028094D01*
X28894761Y-99028094D02*
X28704285Y-99075713D01*
X28704285Y-99075713D02*
X28370952Y-99075713D01*
X28370952Y-99075713D02*
X28180476Y-99028094D01*
X28180476Y-99028094D02*
X28085238Y-98932856D01*
X28085238Y-98932856D02*
X28037619Y-98837618D01*
X28037619Y-98837618D02*
X28037619Y-98647142D01*
X28037619Y-98647142D02*
X28085238Y-98551904D01*
X28085238Y-98551904D02*
X28180476Y-98456666D01*
X28180476Y-98456666D02*
X28370952Y-98409047D01*
X28370952Y-98409047D02*
X28704285Y-98409047D01*
X28704285Y-98409047D02*
X28894761Y-98456666D01*
X28894761Y-98456666D02*
X28990000Y-98551904D01*
X28990000Y-98551904D02*
X29037619Y-98647142D01*
X29037619Y-98647142D02*
X29037619Y-98837618D01*
X28132857Y-98028094D02*
X28085238Y-97980475D01*
X28085238Y-97980475D02*
X28037619Y-97885237D01*
X28037619Y-97885237D02*
X28037619Y-97647142D01*
X28037619Y-97647142D02*
X28085238Y-97551904D01*
X28085238Y-97551904D02*
X28132857Y-97504285D01*
X28132857Y-97504285D02*
X28228095Y-97456666D01*
X28228095Y-97456666D02*
X28323333Y-97456666D01*
X28323333Y-97456666D02*
X28466190Y-97504285D01*
X28466190Y-97504285D02*
X29037619Y-98075713D01*
X29037619Y-98075713D02*
X29037619Y-97456666D01*
X28037619Y-96551904D02*
X28037619Y-97028094D01*
X28037619Y-97028094D02*
X28513809Y-97075713D01*
X28513809Y-97075713D02*
X28466190Y-97028094D01*
X28466190Y-97028094D02*
X28418571Y-96932856D01*
X28418571Y-96932856D02*
X28418571Y-96694761D01*
X28418571Y-96694761D02*
X28466190Y-96599523D01*
X28466190Y-96599523D02*
X28513809Y-96551904D01*
X28513809Y-96551904D02*
X28609047Y-96504285D01*
X28609047Y-96504285D02*
X28847142Y-96504285D01*
X28847142Y-96504285D02*
X28942380Y-96551904D01*
X28942380Y-96551904D02*
X28990000Y-96599523D01*
X28990000Y-96599523D02*
X29037619Y-96694761D01*
X29037619Y-96694761D02*
X29037619Y-96932856D01*
X29037619Y-96932856D02*
X28990000Y-97028094D01*
X28990000Y-97028094D02*
X28942380Y-97075713D01*
%TO.C,U4*%
X107823095Y-47087619D02*
X107823095Y-47897142D01*
X107823095Y-47897142D02*
X107870714Y-47992380D01*
X107870714Y-47992380D02*
X107918333Y-48040000D01*
X107918333Y-48040000D02*
X108013571Y-48087619D01*
X108013571Y-48087619D02*
X108204047Y-48087619D01*
X108204047Y-48087619D02*
X108299285Y-48040000D01*
X108299285Y-48040000D02*
X108346904Y-47992380D01*
X108346904Y-47992380D02*
X108394523Y-47897142D01*
X108394523Y-47897142D02*
X108394523Y-47087619D01*
X109299285Y-47420952D02*
X109299285Y-48087619D01*
X109061190Y-47040000D02*
X108823095Y-47754285D01*
X108823095Y-47754285D02*
X109442142Y-47754285D01*
%TO.C,D1*%
X114127619Y-118848094D02*
X113127619Y-118848094D01*
X113127619Y-118848094D02*
X113127619Y-118609999D01*
X113127619Y-118609999D02*
X113175238Y-118467142D01*
X113175238Y-118467142D02*
X113270476Y-118371904D01*
X113270476Y-118371904D02*
X113365714Y-118324285D01*
X113365714Y-118324285D02*
X113556190Y-118276666D01*
X113556190Y-118276666D02*
X113699047Y-118276666D01*
X113699047Y-118276666D02*
X113889523Y-118324285D01*
X113889523Y-118324285D02*
X113984761Y-118371904D01*
X113984761Y-118371904D02*
X114080000Y-118467142D01*
X114080000Y-118467142D02*
X114127619Y-118609999D01*
X114127619Y-118609999D02*
X114127619Y-118848094D01*
X114127619Y-117324285D02*
X114127619Y-117895713D01*
X114127619Y-117609999D02*
X113127619Y-117609999D01*
X113127619Y-117609999D02*
X113270476Y-117705237D01*
X113270476Y-117705237D02*
X113365714Y-117800475D01*
X113365714Y-117800475D02*
X113413333Y-117895713D01*
%TO.C,C59*%
X119112380Y-45727857D02*
X119160000Y-45775476D01*
X119160000Y-45775476D02*
X119207619Y-45918333D01*
X119207619Y-45918333D02*
X119207619Y-46013571D01*
X119207619Y-46013571D02*
X119160000Y-46156428D01*
X119160000Y-46156428D02*
X119064761Y-46251666D01*
X119064761Y-46251666D02*
X118969523Y-46299285D01*
X118969523Y-46299285D02*
X118779047Y-46346904D01*
X118779047Y-46346904D02*
X118636190Y-46346904D01*
X118636190Y-46346904D02*
X118445714Y-46299285D01*
X118445714Y-46299285D02*
X118350476Y-46251666D01*
X118350476Y-46251666D02*
X118255238Y-46156428D01*
X118255238Y-46156428D02*
X118207619Y-46013571D01*
X118207619Y-46013571D02*
X118207619Y-45918333D01*
X118207619Y-45918333D02*
X118255238Y-45775476D01*
X118255238Y-45775476D02*
X118302857Y-45727857D01*
X118207619Y-44823095D02*
X118207619Y-45299285D01*
X118207619Y-45299285D02*
X118683809Y-45346904D01*
X118683809Y-45346904D02*
X118636190Y-45299285D01*
X118636190Y-45299285D02*
X118588571Y-45204047D01*
X118588571Y-45204047D02*
X118588571Y-44965952D01*
X118588571Y-44965952D02*
X118636190Y-44870714D01*
X118636190Y-44870714D02*
X118683809Y-44823095D01*
X118683809Y-44823095D02*
X118779047Y-44775476D01*
X118779047Y-44775476D02*
X119017142Y-44775476D01*
X119017142Y-44775476D02*
X119112380Y-44823095D01*
X119112380Y-44823095D02*
X119160000Y-44870714D01*
X119160000Y-44870714D02*
X119207619Y-44965952D01*
X119207619Y-44965952D02*
X119207619Y-45204047D01*
X119207619Y-45204047D02*
X119160000Y-45299285D01*
X119160000Y-45299285D02*
X119112380Y-45346904D01*
X119207619Y-44299285D02*
X119207619Y-44108809D01*
X119207619Y-44108809D02*
X119160000Y-44013571D01*
X119160000Y-44013571D02*
X119112380Y-43965952D01*
X119112380Y-43965952D02*
X118969523Y-43870714D01*
X118969523Y-43870714D02*
X118779047Y-43823095D01*
X118779047Y-43823095D02*
X118398095Y-43823095D01*
X118398095Y-43823095D02*
X118302857Y-43870714D01*
X118302857Y-43870714D02*
X118255238Y-43918333D01*
X118255238Y-43918333D02*
X118207619Y-44013571D01*
X118207619Y-44013571D02*
X118207619Y-44204047D01*
X118207619Y-44204047D02*
X118255238Y-44299285D01*
X118255238Y-44299285D02*
X118302857Y-44346904D01*
X118302857Y-44346904D02*
X118398095Y-44394523D01*
X118398095Y-44394523D02*
X118636190Y-44394523D01*
X118636190Y-44394523D02*
X118731428Y-44346904D01*
X118731428Y-44346904D02*
X118779047Y-44299285D01*
X118779047Y-44299285D02*
X118826666Y-44204047D01*
X118826666Y-44204047D02*
X118826666Y-44013571D01*
X118826666Y-44013571D02*
X118779047Y-43918333D01*
X118779047Y-43918333D02*
X118731428Y-43870714D01*
X118731428Y-43870714D02*
X118636190Y-43823095D01*
%TO.C,C39*%
X46347142Y-37197380D02*
X46299523Y-37245000D01*
X46299523Y-37245000D02*
X46156666Y-37292619D01*
X46156666Y-37292619D02*
X46061428Y-37292619D01*
X46061428Y-37292619D02*
X45918571Y-37245000D01*
X45918571Y-37245000D02*
X45823333Y-37149761D01*
X45823333Y-37149761D02*
X45775714Y-37054523D01*
X45775714Y-37054523D02*
X45728095Y-36864047D01*
X45728095Y-36864047D02*
X45728095Y-36721190D01*
X45728095Y-36721190D02*
X45775714Y-36530714D01*
X45775714Y-36530714D02*
X45823333Y-36435476D01*
X45823333Y-36435476D02*
X45918571Y-36340238D01*
X45918571Y-36340238D02*
X46061428Y-36292619D01*
X46061428Y-36292619D02*
X46156666Y-36292619D01*
X46156666Y-36292619D02*
X46299523Y-36340238D01*
X46299523Y-36340238D02*
X46347142Y-36387857D01*
X46680476Y-36292619D02*
X47299523Y-36292619D01*
X47299523Y-36292619D02*
X46966190Y-36673571D01*
X46966190Y-36673571D02*
X47109047Y-36673571D01*
X47109047Y-36673571D02*
X47204285Y-36721190D01*
X47204285Y-36721190D02*
X47251904Y-36768809D01*
X47251904Y-36768809D02*
X47299523Y-36864047D01*
X47299523Y-36864047D02*
X47299523Y-37102142D01*
X47299523Y-37102142D02*
X47251904Y-37197380D01*
X47251904Y-37197380D02*
X47204285Y-37245000D01*
X47204285Y-37245000D02*
X47109047Y-37292619D01*
X47109047Y-37292619D02*
X46823333Y-37292619D01*
X46823333Y-37292619D02*
X46728095Y-37245000D01*
X46728095Y-37245000D02*
X46680476Y-37197380D01*
X47775714Y-37292619D02*
X47966190Y-37292619D01*
X47966190Y-37292619D02*
X48061428Y-37245000D01*
X48061428Y-37245000D02*
X48109047Y-37197380D01*
X48109047Y-37197380D02*
X48204285Y-37054523D01*
X48204285Y-37054523D02*
X48251904Y-36864047D01*
X48251904Y-36864047D02*
X48251904Y-36483095D01*
X48251904Y-36483095D02*
X48204285Y-36387857D01*
X48204285Y-36387857D02*
X48156666Y-36340238D01*
X48156666Y-36340238D02*
X48061428Y-36292619D01*
X48061428Y-36292619D02*
X47870952Y-36292619D01*
X47870952Y-36292619D02*
X47775714Y-36340238D01*
X47775714Y-36340238D02*
X47728095Y-36387857D01*
X47728095Y-36387857D02*
X47680476Y-36483095D01*
X47680476Y-36483095D02*
X47680476Y-36721190D01*
X47680476Y-36721190D02*
X47728095Y-36816428D01*
X47728095Y-36816428D02*
X47775714Y-36864047D01*
X47775714Y-36864047D02*
X47870952Y-36911666D01*
X47870952Y-36911666D02*
X48061428Y-36911666D01*
X48061428Y-36911666D02*
X48156666Y-36864047D01*
X48156666Y-36864047D02*
X48204285Y-36816428D01*
X48204285Y-36816428D02*
X48251904Y-36721190D01*
%TO.C,D7*%
X115239379Y-86822619D02*
X115239379Y-85822619D01*
X115239379Y-85822619D02*
X115477474Y-85822619D01*
X115477474Y-85822619D02*
X115620331Y-85870238D01*
X115620331Y-85870238D02*
X115715569Y-85965476D01*
X115715569Y-85965476D02*
X115763188Y-86060714D01*
X115763188Y-86060714D02*
X115810807Y-86251190D01*
X115810807Y-86251190D02*
X115810807Y-86394047D01*
X115810807Y-86394047D02*
X115763188Y-86584523D01*
X115763188Y-86584523D02*
X115715569Y-86679761D01*
X115715569Y-86679761D02*
X115620331Y-86775000D01*
X115620331Y-86775000D02*
X115477474Y-86822619D01*
X115477474Y-86822619D02*
X115239379Y-86822619D01*
X116144141Y-85822619D02*
X116810807Y-85822619D01*
X116810807Y-85822619D02*
X116382236Y-86822619D01*
%TO.C,D3*%
X114831905Y-105237619D02*
X114831905Y-104237619D01*
X114831905Y-104237619D02*
X115070000Y-104237619D01*
X115070000Y-104237619D02*
X115212857Y-104285238D01*
X115212857Y-104285238D02*
X115308095Y-104380476D01*
X115308095Y-104380476D02*
X115355714Y-104475714D01*
X115355714Y-104475714D02*
X115403333Y-104666190D01*
X115403333Y-104666190D02*
X115403333Y-104809047D01*
X115403333Y-104809047D02*
X115355714Y-104999523D01*
X115355714Y-104999523D02*
X115308095Y-105094761D01*
X115308095Y-105094761D02*
X115212857Y-105190000D01*
X115212857Y-105190000D02*
X115070000Y-105237619D01*
X115070000Y-105237619D02*
X114831905Y-105237619D01*
X115736667Y-104237619D02*
X116355714Y-104237619D01*
X116355714Y-104237619D02*
X116022381Y-104618571D01*
X116022381Y-104618571D02*
X116165238Y-104618571D01*
X116165238Y-104618571D02*
X116260476Y-104666190D01*
X116260476Y-104666190D02*
X116308095Y-104713809D01*
X116308095Y-104713809D02*
X116355714Y-104809047D01*
X116355714Y-104809047D02*
X116355714Y-105047142D01*
X116355714Y-105047142D02*
X116308095Y-105142380D01*
X116308095Y-105142380D02*
X116260476Y-105190000D01*
X116260476Y-105190000D02*
X116165238Y-105237619D01*
X116165238Y-105237619D02*
X115879524Y-105237619D01*
X115879524Y-105237619D02*
X115784286Y-105190000D01*
X115784286Y-105190000D02*
X115736667Y-105142380D01*
%TO.C,CN2*%
X66252522Y-24556353D02*
X66204903Y-24603973D01*
X66204903Y-24603973D02*
X66062046Y-24651592D01*
X66062046Y-24651592D02*
X65966808Y-24651592D01*
X65966808Y-24651592D02*
X65823951Y-24603973D01*
X65823951Y-24603973D02*
X65728713Y-24508734D01*
X65728713Y-24508734D02*
X65681094Y-24413496D01*
X65681094Y-24413496D02*
X65633475Y-24223020D01*
X65633475Y-24223020D02*
X65633475Y-24080163D01*
X65633475Y-24080163D02*
X65681094Y-23889687D01*
X65681094Y-23889687D02*
X65728713Y-23794449D01*
X65728713Y-23794449D02*
X65823951Y-23699211D01*
X65823951Y-23699211D02*
X65966808Y-23651592D01*
X65966808Y-23651592D02*
X66062046Y-23651592D01*
X66062046Y-23651592D02*
X66204903Y-23699211D01*
X66204903Y-23699211D02*
X66252522Y-23746830D01*
X66681094Y-24651592D02*
X66681094Y-23651592D01*
X66681094Y-23651592D02*
X67252522Y-24651592D01*
X67252522Y-24651592D02*
X67252522Y-23651592D01*
X67681094Y-23746830D02*
X67728713Y-23699211D01*
X67728713Y-23699211D02*
X67823951Y-23651592D01*
X67823951Y-23651592D02*
X68062046Y-23651592D01*
X68062046Y-23651592D02*
X68157284Y-23699211D01*
X68157284Y-23699211D02*
X68204903Y-23746830D01*
X68204903Y-23746830D02*
X68252522Y-23842068D01*
X68252522Y-23842068D02*
X68252522Y-23937306D01*
X68252522Y-23937306D02*
X68204903Y-24080163D01*
X68204903Y-24080163D02*
X67633475Y-24651592D01*
X67633475Y-24651592D02*
X68252522Y-24651592D01*
%TO.C,C54*%
X46347142Y-34657380D02*
X46299523Y-34705000D01*
X46299523Y-34705000D02*
X46156666Y-34752619D01*
X46156666Y-34752619D02*
X46061428Y-34752619D01*
X46061428Y-34752619D02*
X45918571Y-34705000D01*
X45918571Y-34705000D02*
X45823333Y-34609761D01*
X45823333Y-34609761D02*
X45775714Y-34514523D01*
X45775714Y-34514523D02*
X45728095Y-34324047D01*
X45728095Y-34324047D02*
X45728095Y-34181190D01*
X45728095Y-34181190D02*
X45775714Y-33990714D01*
X45775714Y-33990714D02*
X45823333Y-33895476D01*
X45823333Y-33895476D02*
X45918571Y-33800238D01*
X45918571Y-33800238D02*
X46061428Y-33752619D01*
X46061428Y-33752619D02*
X46156666Y-33752619D01*
X46156666Y-33752619D02*
X46299523Y-33800238D01*
X46299523Y-33800238D02*
X46347142Y-33847857D01*
X47251904Y-33752619D02*
X46775714Y-33752619D01*
X46775714Y-33752619D02*
X46728095Y-34228809D01*
X46728095Y-34228809D02*
X46775714Y-34181190D01*
X46775714Y-34181190D02*
X46870952Y-34133571D01*
X46870952Y-34133571D02*
X47109047Y-34133571D01*
X47109047Y-34133571D02*
X47204285Y-34181190D01*
X47204285Y-34181190D02*
X47251904Y-34228809D01*
X47251904Y-34228809D02*
X47299523Y-34324047D01*
X47299523Y-34324047D02*
X47299523Y-34562142D01*
X47299523Y-34562142D02*
X47251904Y-34657380D01*
X47251904Y-34657380D02*
X47204285Y-34705000D01*
X47204285Y-34705000D02*
X47109047Y-34752619D01*
X47109047Y-34752619D02*
X46870952Y-34752619D01*
X46870952Y-34752619D02*
X46775714Y-34705000D01*
X46775714Y-34705000D02*
X46728095Y-34657380D01*
X48156666Y-34085952D02*
X48156666Y-34752619D01*
X47918571Y-33705000D02*
X47680476Y-34419285D01*
X47680476Y-34419285D02*
X48299523Y-34419285D01*
%TO.C,U15*%
X62351619Y-33983067D02*
X63161142Y-33983067D01*
X63161142Y-33983067D02*
X63256380Y-33935448D01*
X63256380Y-33935448D02*
X63304000Y-33887829D01*
X63304000Y-33887829D02*
X63351619Y-33792591D01*
X63351619Y-33792591D02*
X63351619Y-33602115D01*
X63351619Y-33602115D02*
X63304000Y-33506877D01*
X63304000Y-33506877D02*
X63256380Y-33459258D01*
X63256380Y-33459258D02*
X63161142Y-33411639D01*
X63161142Y-33411639D02*
X62351619Y-33411639D01*
X63351619Y-32411639D02*
X63351619Y-32983067D01*
X63351619Y-32697353D02*
X62351619Y-32697353D01*
X62351619Y-32697353D02*
X62494476Y-32792591D01*
X62494476Y-32792591D02*
X62589714Y-32887829D01*
X62589714Y-32887829D02*
X62637333Y-32983067D01*
X62351619Y-31506877D02*
X62351619Y-31983067D01*
X62351619Y-31983067D02*
X62827809Y-32030686D01*
X62827809Y-32030686D02*
X62780190Y-31983067D01*
X62780190Y-31983067D02*
X62732571Y-31887829D01*
X62732571Y-31887829D02*
X62732571Y-31649734D01*
X62732571Y-31649734D02*
X62780190Y-31554496D01*
X62780190Y-31554496D02*
X62827809Y-31506877D01*
X62827809Y-31506877D02*
X62923047Y-31459258D01*
X62923047Y-31459258D02*
X63161142Y-31459258D01*
X63161142Y-31459258D02*
X63256380Y-31506877D01*
X63256380Y-31506877D02*
X63304000Y-31554496D01*
X63304000Y-31554496D02*
X63351619Y-31649734D01*
X63351619Y-31649734D02*
X63351619Y-31887829D01*
X63351619Y-31887829D02*
X63304000Y-31983067D01*
X63304000Y-31983067D02*
X63256380Y-32030686D01*
%TO.C,R20*%
X114127619Y-116212857D02*
X113651428Y-116546190D01*
X114127619Y-116784285D02*
X113127619Y-116784285D01*
X113127619Y-116784285D02*
X113127619Y-116403333D01*
X113127619Y-116403333D02*
X113175238Y-116308095D01*
X113175238Y-116308095D02*
X113222857Y-116260476D01*
X113222857Y-116260476D02*
X113318095Y-116212857D01*
X113318095Y-116212857D02*
X113460952Y-116212857D01*
X113460952Y-116212857D02*
X113556190Y-116260476D01*
X113556190Y-116260476D02*
X113603809Y-116308095D01*
X113603809Y-116308095D02*
X113651428Y-116403333D01*
X113651428Y-116403333D02*
X113651428Y-116784285D01*
X113222857Y-115831904D02*
X113175238Y-115784285D01*
X113175238Y-115784285D02*
X113127619Y-115689047D01*
X113127619Y-115689047D02*
X113127619Y-115450952D01*
X113127619Y-115450952D02*
X113175238Y-115355714D01*
X113175238Y-115355714D02*
X113222857Y-115308095D01*
X113222857Y-115308095D02*
X113318095Y-115260476D01*
X113318095Y-115260476D02*
X113413333Y-115260476D01*
X113413333Y-115260476D02*
X113556190Y-115308095D01*
X113556190Y-115308095D02*
X114127619Y-115879523D01*
X114127619Y-115879523D02*
X114127619Y-115260476D01*
X113127619Y-114641428D02*
X113127619Y-114546190D01*
X113127619Y-114546190D02*
X113175238Y-114450952D01*
X113175238Y-114450952D02*
X113222857Y-114403333D01*
X113222857Y-114403333D02*
X113318095Y-114355714D01*
X113318095Y-114355714D02*
X113508571Y-114308095D01*
X113508571Y-114308095D02*
X113746666Y-114308095D01*
X113746666Y-114308095D02*
X113937142Y-114355714D01*
X113937142Y-114355714D02*
X114032380Y-114403333D01*
X114032380Y-114403333D02*
X114080000Y-114450952D01*
X114080000Y-114450952D02*
X114127619Y-114546190D01*
X114127619Y-114546190D02*
X114127619Y-114641428D01*
X114127619Y-114641428D02*
X114080000Y-114736666D01*
X114080000Y-114736666D02*
X114032380Y-114784285D01*
X114032380Y-114784285D02*
X113937142Y-114831904D01*
X113937142Y-114831904D02*
X113746666Y-114879523D01*
X113746666Y-114879523D02*
X113508571Y-114879523D01*
X113508571Y-114879523D02*
X113318095Y-114831904D01*
X113318095Y-114831904D02*
X113222857Y-114784285D01*
X113222857Y-114784285D02*
X113175238Y-114736666D01*
X113175238Y-114736666D02*
X113127619Y-114641428D01*
%TO.C,R10*%
X34917142Y-26337619D02*
X34583809Y-25861428D01*
X34345714Y-26337619D02*
X34345714Y-25337619D01*
X34345714Y-25337619D02*
X34726666Y-25337619D01*
X34726666Y-25337619D02*
X34821904Y-25385238D01*
X34821904Y-25385238D02*
X34869523Y-25432857D01*
X34869523Y-25432857D02*
X34917142Y-25528095D01*
X34917142Y-25528095D02*
X34917142Y-25670952D01*
X34917142Y-25670952D02*
X34869523Y-25766190D01*
X34869523Y-25766190D02*
X34821904Y-25813809D01*
X34821904Y-25813809D02*
X34726666Y-25861428D01*
X34726666Y-25861428D02*
X34345714Y-25861428D01*
X35869523Y-26337619D02*
X35298095Y-26337619D01*
X35583809Y-26337619D02*
X35583809Y-25337619D01*
X35583809Y-25337619D02*
X35488571Y-25480476D01*
X35488571Y-25480476D02*
X35393333Y-25575714D01*
X35393333Y-25575714D02*
X35298095Y-25623333D01*
X36488571Y-25337619D02*
X36583809Y-25337619D01*
X36583809Y-25337619D02*
X36679047Y-25385238D01*
X36679047Y-25385238D02*
X36726666Y-25432857D01*
X36726666Y-25432857D02*
X36774285Y-25528095D01*
X36774285Y-25528095D02*
X36821904Y-25718571D01*
X36821904Y-25718571D02*
X36821904Y-25956666D01*
X36821904Y-25956666D02*
X36774285Y-26147142D01*
X36774285Y-26147142D02*
X36726666Y-26242380D01*
X36726666Y-26242380D02*
X36679047Y-26290000D01*
X36679047Y-26290000D02*
X36583809Y-26337619D01*
X36583809Y-26337619D02*
X36488571Y-26337619D01*
X36488571Y-26337619D02*
X36393333Y-26290000D01*
X36393333Y-26290000D02*
X36345714Y-26242380D01*
X36345714Y-26242380D02*
X36298095Y-26147142D01*
X36298095Y-26147142D02*
X36250476Y-25956666D01*
X36250476Y-25956666D02*
X36250476Y-25718571D01*
X36250476Y-25718571D02*
X36298095Y-25528095D01*
X36298095Y-25528095D02*
X36345714Y-25432857D01*
X36345714Y-25432857D02*
X36393333Y-25385238D01*
X36393333Y-25385238D02*
X36488571Y-25337619D01*
%TO.C,R4*%
X112857619Y-51601666D02*
X112381428Y-51934999D01*
X112857619Y-52173094D02*
X111857619Y-52173094D01*
X111857619Y-52173094D02*
X111857619Y-51792142D01*
X111857619Y-51792142D02*
X111905238Y-51696904D01*
X111905238Y-51696904D02*
X111952857Y-51649285D01*
X111952857Y-51649285D02*
X112048095Y-51601666D01*
X112048095Y-51601666D02*
X112190952Y-51601666D01*
X112190952Y-51601666D02*
X112286190Y-51649285D01*
X112286190Y-51649285D02*
X112333809Y-51696904D01*
X112333809Y-51696904D02*
X112381428Y-51792142D01*
X112381428Y-51792142D02*
X112381428Y-52173094D01*
X112190952Y-50744523D02*
X112857619Y-50744523D01*
X111810000Y-50982618D02*
X112524285Y-51220713D01*
X112524285Y-51220713D02*
X112524285Y-50601666D01*
%TO.C,C58*%
X104767142Y-47357380D02*
X104719523Y-47405000D01*
X104719523Y-47405000D02*
X104576666Y-47452619D01*
X104576666Y-47452619D02*
X104481428Y-47452619D01*
X104481428Y-47452619D02*
X104338571Y-47405000D01*
X104338571Y-47405000D02*
X104243333Y-47309761D01*
X104243333Y-47309761D02*
X104195714Y-47214523D01*
X104195714Y-47214523D02*
X104148095Y-47024047D01*
X104148095Y-47024047D02*
X104148095Y-46881190D01*
X104148095Y-46881190D02*
X104195714Y-46690714D01*
X104195714Y-46690714D02*
X104243333Y-46595476D01*
X104243333Y-46595476D02*
X104338571Y-46500238D01*
X104338571Y-46500238D02*
X104481428Y-46452619D01*
X104481428Y-46452619D02*
X104576666Y-46452619D01*
X104576666Y-46452619D02*
X104719523Y-46500238D01*
X104719523Y-46500238D02*
X104767142Y-46547857D01*
X105671904Y-46452619D02*
X105195714Y-46452619D01*
X105195714Y-46452619D02*
X105148095Y-46928809D01*
X105148095Y-46928809D02*
X105195714Y-46881190D01*
X105195714Y-46881190D02*
X105290952Y-46833571D01*
X105290952Y-46833571D02*
X105529047Y-46833571D01*
X105529047Y-46833571D02*
X105624285Y-46881190D01*
X105624285Y-46881190D02*
X105671904Y-46928809D01*
X105671904Y-46928809D02*
X105719523Y-47024047D01*
X105719523Y-47024047D02*
X105719523Y-47262142D01*
X105719523Y-47262142D02*
X105671904Y-47357380D01*
X105671904Y-47357380D02*
X105624285Y-47405000D01*
X105624285Y-47405000D02*
X105529047Y-47452619D01*
X105529047Y-47452619D02*
X105290952Y-47452619D01*
X105290952Y-47452619D02*
X105195714Y-47405000D01*
X105195714Y-47405000D02*
X105148095Y-47357380D01*
X106290952Y-46881190D02*
X106195714Y-46833571D01*
X106195714Y-46833571D02*
X106148095Y-46785952D01*
X106148095Y-46785952D02*
X106100476Y-46690714D01*
X106100476Y-46690714D02*
X106100476Y-46643095D01*
X106100476Y-46643095D02*
X106148095Y-46547857D01*
X106148095Y-46547857D02*
X106195714Y-46500238D01*
X106195714Y-46500238D02*
X106290952Y-46452619D01*
X106290952Y-46452619D02*
X106481428Y-46452619D01*
X106481428Y-46452619D02*
X106576666Y-46500238D01*
X106576666Y-46500238D02*
X106624285Y-46547857D01*
X106624285Y-46547857D02*
X106671904Y-46643095D01*
X106671904Y-46643095D02*
X106671904Y-46690714D01*
X106671904Y-46690714D02*
X106624285Y-46785952D01*
X106624285Y-46785952D02*
X106576666Y-46833571D01*
X106576666Y-46833571D02*
X106481428Y-46881190D01*
X106481428Y-46881190D02*
X106290952Y-46881190D01*
X106290952Y-46881190D02*
X106195714Y-46928809D01*
X106195714Y-46928809D02*
X106148095Y-46976428D01*
X106148095Y-46976428D02*
X106100476Y-47071666D01*
X106100476Y-47071666D02*
X106100476Y-47262142D01*
X106100476Y-47262142D02*
X106148095Y-47357380D01*
X106148095Y-47357380D02*
X106195714Y-47405000D01*
X106195714Y-47405000D02*
X106290952Y-47452619D01*
X106290952Y-47452619D02*
X106481428Y-47452619D01*
X106481428Y-47452619D02*
X106576666Y-47405000D01*
X106576666Y-47405000D02*
X106624285Y-47357380D01*
X106624285Y-47357380D02*
X106671904Y-47262142D01*
X106671904Y-47262142D02*
X106671904Y-47071666D01*
X106671904Y-47071666D02*
X106624285Y-46976428D01*
X106624285Y-46976428D02*
X106576666Y-46928809D01*
X106576666Y-46928809D02*
X106481428Y-46881190D01*
%TO.C,C1*%
X88505833Y-26242380D02*
X88458214Y-26290000D01*
X88458214Y-26290000D02*
X88315357Y-26337619D01*
X88315357Y-26337619D02*
X88220119Y-26337619D01*
X88220119Y-26337619D02*
X88077262Y-26290000D01*
X88077262Y-26290000D02*
X87982024Y-26194761D01*
X87982024Y-26194761D02*
X87934405Y-26099523D01*
X87934405Y-26099523D02*
X87886786Y-25909047D01*
X87886786Y-25909047D02*
X87886786Y-25766190D01*
X87886786Y-25766190D02*
X87934405Y-25575714D01*
X87934405Y-25575714D02*
X87982024Y-25480476D01*
X87982024Y-25480476D02*
X88077262Y-25385238D01*
X88077262Y-25385238D02*
X88220119Y-25337619D01*
X88220119Y-25337619D02*
X88315357Y-25337619D01*
X88315357Y-25337619D02*
X88458214Y-25385238D01*
X88458214Y-25385238D02*
X88505833Y-25432857D01*
X89458214Y-26337619D02*
X88886786Y-26337619D01*
X89172500Y-26337619D02*
X89172500Y-25337619D01*
X89172500Y-25337619D02*
X89077262Y-25480476D01*
X89077262Y-25480476D02*
X88982024Y-25575714D01*
X88982024Y-25575714D02*
X88886786Y-25623333D01*
%TO.C,Q24*%
X29132857Y-94551428D02*
X29085238Y-94646666D01*
X29085238Y-94646666D02*
X28990000Y-94741904D01*
X28990000Y-94741904D02*
X28847142Y-94884761D01*
X28847142Y-94884761D02*
X28799523Y-94979999D01*
X28799523Y-94979999D02*
X28799523Y-95075237D01*
X29037619Y-95027618D02*
X28990000Y-95122856D01*
X28990000Y-95122856D02*
X28894761Y-95218094D01*
X28894761Y-95218094D02*
X28704285Y-95265713D01*
X28704285Y-95265713D02*
X28370952Y-95265713D01*
X28370952Y-95265713D02*
X28180476Y-95218094D01*
X28180476Y-95218094D02*
X28085238Y-95122856D01*
X28085238Y-95122856D02*
X28037619Y-95027618D01*
X28037619Y-95027618D02*
X28037619Y-94837142D01*
X28037619Y-94837142D02*
X28085238Y-94741904D01*
X28085238Y-94741904D02*
X28180476Y-94646666D01*
X28180476Y-94646666D02*
X28370952Y-94599047D01*
X28370952Y-94599047D02*
X28704285Y-94599047D01*
X28704285Y-94599047D02*
X28894761Y-94646666D01*
X28894761Y-94646666D02*
X28990000Y-94741904D01*
X28990000Y-94741904D02*
X29037619Y-94837142D01*
X29037619Y-94837142D02*
X29037619Y-95027618D01*
X28132857Y-94218094D02*
X28085238Y-94170475D01*
X28085238Y-94170475D02*
X28037619Y-94075237D01*
X28037619Y-94075237D02*
X28037619Y-93837142D01*
X28037619Y-93837142D02*
X28085238Y-93741904D01*
X28085238Y-93741904D02*
X28132857Y-93694285D01*
X28132857Y-93694285D02*
X28228095Y-93646666D01*
X28228095Y-93646666D02*
X28323333Y-93646666D01*
X28323333Y-93646666D02*
X28466190Y-93694285D01*
X28466190Y-93694285D02*
X29037619Y-94265713D01*
X29037619Y-94265713D02*
X29037619Y-93646666D01*
X28370952Y-92789523D02*
X29037619Y-92789523D01*
X27990000Y-93027618D02*
X28704285Y-93265713D01*
X28704285Y-93265713D02*
X28704285Y-92646666D01*
%TO.C,U7*%
X92172619Y-56641904D02*
X92982142Y-56641904D01*
X92982142Y-56641904D02*
X93077380Y-56594285D01*
X93077380Y-56594285D02*
X93125000Y-56546666D01*
X93125000Y-56546666D02*
X93172619Y-56451428D01*
X93172619Y-56451428D02*
X93172619Y-56260952D01*
X93172619Y-56260952D02*
X93125000Y-56165714D01*
X93125000Y-56165714D02*
X93077380Y-56118095D01*
X93077380Y-56118095D02*
X92982142Y-56070476D01*
X92982142Y-56070476D02*
X92172619Y-56070476D01*
X92172619Y-55689523D02*
X92172619Y-55022857D01*
X92172619Y-55022857D02*
X93172619Y-55451428D01*
%TO.C,D5*%
X20851905Y-38562619D02*
X20851905Y-37562619D01*
X20851905Y-37562619D02*
X21090000Y-37562619D01*
X21090000Y-37562619D02*
X21232857Y-37610238D01*
X21232857Y-37610238D02*
X21328095Y-37705476D01*
X21328095Y-37705476D02*
X21375714Y-37800714D01*
X21375714Y-37800714D02*
X21423333Y-37991190D01*
X21423333Y-37991190D02*
X21423333Y-38134047D01*
X21423333Y-38134047D02*
X21375714Y-38324523D01*
X21375714Y-38324523D02*
X21328095Y-38419761D01*
X21328095Y-38419761D02*
X21232857Y-38515000D01*
X21232857Y-38515000D02*
X21090000Y-38562619D01*
X21090000Y-38562619D02*
X20851905Y-38562619D01*
X22328095Y-37562619D02*
X21851905Y-37562619D01*
X21851905Y-37562619D02*
X21804286Y-38038809D01*
X21804286Y-38038809D02*
X21851905Y-37991190D01*
X21851905Y-37991190D02*
X21947143Y-37943571D01*
X21947143Y-37943571D02*
X22185238Y-37943571D01*
X22185238Y-37943571D02*
X22280476Y-37991190D01*
X22280476Y-37991190D02*
X22328095Y-38038809D01*
X22328095Y-38038809D02*
X22375714Y-38134047D01*
X22375714Y-38134047D02*
X22375714Y-38372142D01*
X22375714Y-38372142D02*
X22328095Y-38467380D01*
X22328095Y-38467380D02*
X22280476Y-38515000D01*
X22280476Y-38515000D02*
X22185238Y-38562619D01*
X22185238Y-38562619D02*
X21947143Y-38562619D01*
X21947143Y-38562619D02*
X21851905Y-38515000D01*
X21851905Y-38515000D02*
X21804286Y-38467380D01*
%TO.C,U6*%
X73738082Y-60502644D02*
X73738082Y-61312167D01*
X73738082Y-61312167D02*
X73785701Y-61407405D01*
X73785701Y-61407405D02*
X73833320Y-61455025D01*
X73833320Y-61455025D02*
X73928558Y-61502644D01*
X73928558Y-61502644D02*
X74119034Y-61502644D01*
X74119034Y-61502644D02*
X74214272Y-61455025D01*
X74214272Y-61455025D02*
X74261891Y-61407405D01*
X74261891Y-61407405D02*
X74309510Y-61312167D01*
X74309510Y-61312167D02*
X74309510Y-60502644D01*
X75214272Y-60502644D02*
X75023796Y-60502644D01*
X75023796Y-60502644D02*
X74928558Y-60550263D01*
X74928558Y-60550263D02*
X74880939Y-60597882D01*
X74880939Y-60597882D02*
X74785701Y-60740739D01*
X74785701Y-60740739D02*
X74738082Y-60931215D01*
X74738082Y-60931215D02*
X74738082Y-61312167D01*
X74738082Y-61312167D02*
X74785701Y-61407405D01*
X74785701Y-61407405D02*
X74833320Y-61455025D01*
X74833320Y-61455025D02*
X74928558Y-61502644D01*
X74928558Y-61502644D02*
X75119034Y-61502644D01*
X75119034Y-61502644D02*
X75214272Y-61455025D01*
X75214272Y-61455025D02*
X75261891Y-61407405D01*
X75261891Y-61407405D02*
X75309510Y-61312167D01*
X75309510Y-61312167D02*
X75309510Y-61074072D01*
X75309510Y-61074072D02*
X75261891Y-60978834D01*
X75261891Y-60978834D02*
X75214272Y-60931215D01*
X75214272Y-60931215D02*
X75119034Y-60883596D01*
X75119034Y-60883596D02*
X74928558Y-60883596D01*
X74928558Y-60883596D02*
X74833320Y-60931215D01*
X74833320Y-60931215D02*
X74785701Y-60978834D01*
X74785701Y-60978834D02*
X74738082Y-61074072D01*
%TO.C,U12*%
X27402619Y-81630357D02*
X28212142Y-81630357D01*
X28212142Y-81630357D02*
X28307380Y-81582738D01*
X28307380Y-81582738D02*
X28355000Y-81535119D01*
X28355000Y-81535119D02*
X28402619Y-81439881D01*
X28402619Y-81439881D02*
X28402619Y-81249405D01*
X28402619Y-81249405D02*
X28355000Y-81154167D01*
X28355000Y-81154167D02*
X28307380Y-81106548D01*
X28307380Y-81106548D02*
X28212142Y-81058929D01*
X28212142Y-81058929D02*
X27402619Y-81058929D01*
X28402619Y-80058929D02*
X28402619Y-80630357D01*
X28402619Y-80344643D02*
X27402619Y-80344643D01*
X27402619Y-80344643D02*
X27545476Y-80439881D01*
X27545476Y-80439881D02*
X27640714Y-80535119D01*
X27640714Y-80535119D02*
X27688333Y-80630357D01*
X27497857Y-79677976D02*
X27450238Y-79630357D01*
X27450238Y-79630357D02*
X27402619Y-79535119D01*
X27402619Y-79535119D02*
X27402619Y-79297024D01*
X27402619Y-79297024D02*
X27450238Y-79201786D01*
X27450238Y-79201786D02*
X27497857Y-79154167D01*
X27497857Y-79154167D02*
X27593095Y-79106548D01*
X27593095Y-79106548D02*
X27688333Y-79106548D01*
X27688333Y-79106548D02*
X27831190Y-79154167D01*
X27831190Y-79154167D02*
X28402619Y-79725595D01*
X28402619Y-79725595D02*
X28402619Y-79106548D01*
%TO.C,JP1*%
X81081666Y-40737619D02*
X81081666Y-41451904D01*
X81081666Y-41451904D02*
X81034047Y-41594761D01*
X81034047Y-41594761D02*
X80938809Y-41690000D01*
X80938809Y-41690000D02*
X80795952Y-41737619D01*
X80795952Y-41737619D02*
X80700714Y-41737619D01*
X81557857Y-41737619D02*
X81557857Y-40737619D01*
X81557857Y-40737619D02*
X81938809Y-40737619D01*
X81938809Y-40737619D02*
X82034047Y-40785238D01*
X82034047Y-40785238D02*
X82081666Y-40832857D01*
X82081666Y-40832857D02*
X82129285Y-40928095D01*
X82129285Y-40928095D02*
X82129285Y-41070952D01*
X82129285Y-41070952D02*
X82081666Y-41166190D01*
X82081666Y-41166190D02*
X82034047Y-41213809D01*
X82034047Y-41213809D02*
X81938809Y-41261428D01*
X81938809Y-41261428D02*
X81557857Y-41261428D01*
X83081666Y-41737619D02*
X82510238Y-41737619D01*
X82795952Y-41737619D02*
X82795952Y-40737619D01*
X82795952Y-40737619D02*
X82700714Y-40880476D01*
X82700714Y-40880476D02*
X82605476Y-40975714D01*
X82605476Y-40975714D02*
X82510238Y-41023333D01*
%TO.C,C61*%
X113022142Y-44182380D02*
X112974523Y-44230000D01*
X112974523Y-44230000D02*
X112831666Y-44277619D01*
X112831666Y-44277619D02*
X112736428Y-44277619D01*
X112736428Y-44277619D02*
X112593571Y-44230000D01*
X112593571Y-44230000D02*
X112498333Y-44134761D01*
X112498333Y-44134761D02*
X112450714Y-44039523D01*
X112450714Y-44039523D02*
X112403095Y-43849047D01*
X112403095Y-43849047D02*
X112403095Y-43706190D01*
X112403095Y-43706190D02*
X112450714Y-43515714D01*
X112450714Y-43515714D02*
X112498333Y-43420476D01*
X112498333Y-43420476D02*
X112593571Y-43325238D01*
X112593571Y-43325238D02*
X112736428Y-43277619D01*
X112736428Y-43277619D02*
X112831666Y-43277619D01*
X112831666Y-43277619D02*
X112974523Y-43325238D01*
X112974523Y-43325238D02*
X113022142Y-43372857D01*
X113879285Y-43277619D02*
X113688809Y-43277619D01*
X113688809Y-43277619D02*
X113593571Y-43325238D01*
X113593571Y-43325238D02*
X113545952Y-43372857D01*
X113545952Y-43372857D02*
X113450714Y-43515714D01*
X113450714Y-43515714D02*
X113403095Y-43706190D01*
X113403095Y-43706190D02*
X113403095Y-44087142D01*
X113403095Y-44087142D02*
X113450714Y-44182380D01*
X113450714Y-44182380D02*
X113498333Y-44230000D01*
X113498333Y-44230000D02*
X113593571Y-44277619D01*
X113593571Y-44277619D02*
X113784047Y-44277619D01*
X113784047Y-44277619D02*
X113879285Y-44230000D01*
X113879285Y-44230000D02*
X113926904Y-44182380D01*
X113926904Y-44182380D02*
X113974523Y-44087142D01*
X113974523Y-44087142D02*
X113974523Y-43849047D01*
X113974523Y-43849047D02*
X113926904Y-43753809D01*
X113926904Y-43753809D02*
X113879285Y-43706190D01*
X113879285Y-43706190D02*
X113784047Y-43658571D01*
X113784047Y-43658571D02*
X113593571Y-43658571D01*
X113593571Y-43658571D02*
X113498333Y-43706190D01*
X113498333Y-43706190D02*
X113450714Y-43753809D01*
X113450714Y-43753809D02*
X113403095Y-43849047D01*
X114926904Y-44277619D02*
X114355476Y-44277619D01*
X114641190Y-44277619D02*
X114641190Y-43277619D01*
X114641190Y-43277619D02*
X114545952Y-43420476D01*
X114545952Y-43420476D02*
X114450714Y-43515714D01*
X114450714Y-43515714D02*
X114355476Y-43563333D01*
%TO.C,C8*%
X105878333Y-42277380D02*
X105830714Y-42325000D01*
X105830714Y-42325000D02*
X105687857Y-42372619D01*
X105687857Y-42372619D02*
X105592619Y-42372619D01*
X105592619Y-42372619D02*
X105449762Y-42325000D01*
X105449762Y-42325000D02*
X105354524Y-42229761D01*
X105354524Y-42229761D02*
X105306905Y-42134523D01*
X105306905Y-42134523D02*
X105259286Y-41944047D01*
X105259286Y-41944047D02*
X105259286Y-41801190D01*
X105259286Y-41801190D02*
X105306905Y-41610714D01*
X105306905Y-41610714D02*
X105354524Y-41515476D01*
X105354524Y-41515476D02*
X105449762Y-41420238D01*
X105449762Y-41420238D02*
X105592619Y-41372619D01*
X105592619Y-41372619D02*
X105687857Y-41372619D01*
X105687857Y-41372619D02*
X105830714Y-41420238D01*
X105830714Y-41420238D02*
X105878333Y-41467857D01*
X106449762Y-41801190D02*
X106354524Y-41753571D01*
X106354524Y-41753571D02*
X106306905Y-41705952D01*
X106306905Y-41705952D02*
X106259286Y-41610714D01*
X106259286Y-41610714D02*
X106259286Y-41563095D01*
X106259286Y-41563095D02*
X106306905Y-41467857D01*
X106306905Y-41467857D02*
X106354524Y-41420238D01*
X106354524Y-41420238D02*
X106449762Y-41372619D01*
X106449762Y-41372619D02*
X106640238Y-41372619D01*
X106640238Y-41372619D02*
X106735476Y-41420238D01*
X106735476Y-41420238D02*
X106783095Y-41467857D01*
X106783095Y-41467857D02*
X106830714Y-41563095D01*
X106830714Y-41563095D02*
X106830714Y-41610714D01*
X106830714Y-41610714D02*
X106783095Y-41705952D01*
X106783095Y-41705952D02*
X106735476Y-41753571D01*
X106735476Y-41753571D02*
X106640238Y-41801190D01*
X106640238Y-41801190D02*
X106449762Y-41801190D01*
X106449762Y-41801190D02*
X106354524Y-41848809D01*
X106354524Y-41848809D02*
X106306905Y-41896428D01*
X106306905Y-41896428D02*
X106259286Y-41991666D01*
X106259286Y-41991666D02*
X106259286Y-42182142D01*
X106259286Y-42182142D02*
X106306905Y-42277380D01*
X106306905Y-42277380D02*
X106354524Y-42325000D01*
X106354524Y-42325000D02*
X106449762Y-42372619D01*
X106449762Y-42372619D02*
X106640238Y-42372619D01*
X106640238Y-42372619D02*
X106735476Y-42325000D01*
X106735476Y-42325000D02*
X106783095Y-42277380D01*
X106783095Y-42277380D02*
X106830714Y-42182142D01*
X106830714Y-42182142D02*
X106830714Y-41991666D01*
X106830714Y-41991666D02*
X106783095Y-41896428D01*
X106783095Y-41896428D02*
X106735476Y-41848809D01*
X106735476Y-41848809D02*
X106640238Y-41801190D01*
%TO.C,Q22*%
X29132857Y-102171428D02*
X29085238Y-102266666D01*
X29085238Y-102266666D02*
X28990000Y-102361904D01*
X28990000Y-102361904D02*
X28847142Y-102504761D01*
X28847142Y-102504761D02*
X28799523Y-102599999D01*
X28799523Y-102599999D02*
X28799523Y-102695237D01*
X29037619Y-102647618D02*
X28990000Y-102742856D01*
X28990000Y-102742856D02*
X28894761Y-102838094D01*
X28894761Y-102838094D02*
X28704285Y-102885713D01*
X28704285Y-102885713D02*
X28370952Y-102885713D01*
X28370952Y-102885713D02*
X28180476Y-102838094D01*
X28180476Y-102838094D02*
X28085238Y-102742856D01*
X28085238Y-102742856D02*
X28037619Y-102647618D01*
X28037619Y-102647618D02*
X28037619Y-102457142D01*
X28037619Y-102457142D02*
X28085238Y-102361904D01*
X28085238Y-102361904D02*
X28180476Y-102266666D01*
X28180476Y-102266666D02*
X28370952Y-102219047D01*
X28370952Y-102219047D02*
X28704285Y-102219047D01*
X28704285Y-102219047D02*
X28894761Y-102266666D01*
X28894761Y-102266666D02*
X28990000Y-102361904D01*
X28990000Y-102361904D02*
X29037619Y-102457142D01*
X29037619Y-102457142D02*
X29037619Y-102647618D01*
X28132857Y-101838094D02*
X28085238Y-101790475D01*
X28085238Y-101790475D02*
X28037619Y-101695237D01*
X28037619Y-101695237D02*
X28037619Y-101457142D01*
X28037619Y-101457142D02*
X28085238Y-101361904D01*
X28085238Y-101361904D02*
X28132857Y-101314285D01*
X28132857Y-101314285D02*
X28228095Y-101266666D01*
X28228095Y-101266666D02*
X28323333Y-101266666D01*
X28323333Y-101266666D02*
X28466190Y-101314285D01*
X28466190Y-101314285D02*
X29037619Y-101885713D01*
X29037619Y-101885713D02*
X29037619Y-101266666D01*
X28132857Y-100885713D02*
X28085238Y-100838094D01*
X28085238Y-100838094D02*
X28037619Y-100742856D01*
X28037619Y-100742856D02*
X28037619Y-100504761D01*
X28037619Y-100504761D02*
X28085238Y-100409523D01*
X28085238Y-100409523D02*
X28132857Y-100361904D01*
X28132857Y-100361904D02*
X28228095Y-100314285D01*
X28228095Y-100314285D02*
X28323333Y-100314285D01*
X28323333Y-100314285D02*
X28466190Y-100361904D01*
X28466190Y-100361904D02*
X29037619Y-100933332D01*
X29037619Y-100933332D02*
X29037619Y-100314285D01*
%TO.C,C52*%
X46347142Y-30212380D02*
X46299523Y-30260000D01*
X46299523Y-30260000D02*
X46156666Y-30307619D01*
X46156666Y-30307619D02*
X46061428Y-30307619D01*
X46061428Y-30307619D02*
X45918571Y-30260000D01*
X45918571Y-30260000D02*
X45823333Y-30164761D01*
X45823333Y-30164761D02*
X45775714Y-30069523D01*
X45775714Y-30069523D02*
X45728095Y-29879047D01*
X45728095Y-29879047D02*
X45728095Y-29736190D01*
X45728095Y-29736190D02*
X45775714Y-29545714D01*
X45775714Y-29545714D02*
X45823333Y-29450476D01*
X45823333Y-29450476D02*
X45918571Y-29355238D01*
X45918571Y-29355238D02*
X46061428Y-29307619D01*
X46061428Y-29307619D02*
X46156666Y-29307619D01*
X46156666Y-29307619D02*
X46299523Y-29355238D01*
X46299523Y-29355238D02*
X46347142Y-29402857D01*
X47251904Y-29307619D02*
X46775714Y-29307619D01*
X46775714Y-29307619D02*
X46728095Y-29783809D01*
X46728095Y-29783809D02*
X46775714Y-29736190D01*
X46775714Y-29736190D02*
X46870952Y-29688571D01*
X46870952Y-29688571D02*
X47109047Y-29688571D01*
X47109047Y-29688571D02*
X47204285Y-29736190D01*
X47204285Y-29736190D02*
X47251904Y-29783809D01*
X47251904Y-29783809D02*
X47299523Y-29879047D01*
X47299523Y-29879047D02*
X47299523Y-30117142D01*
X47299523Y-30117142D02*
X47251904Y-30212380D01*
X47251904Y-30212380D02*
X47204285Y-30260000D01*
X47204285Y-30260000D02*
X47109047Y-30307619D01*
X47109047Y-30307619D02*
X46870952Y-30307619D01*
X46870952Y-30307619D02*
X46775714Y-30260000D01*
X46775714Y-30260000D02*
X46728095Y-30212380D01*
X47680476Y-29402857D02*
X47728095Y-29355238D01*
X47728095Y-29355238D02*
X47823333Y-29307619D01*
X47823333Y-29307619D02*
X48061428Y-29307619D01*
X48061428Y-29307619D02*
X48156666Y-29355238D01*
X48156666Y-29355238D02*
X48204285Y-29402857D01*
X48204285Y-29402857D02*
X48251904Y-29498095D01*
X48251904Y-29498095D02*
X48251904Y-29593333D01*
X48251904Y-29593333D02*
X48204285Y-29736190D01*
X48204285Y-29736190D02*
X47632857Y-30307619D01*
X47632857Y-30307619D02*
X48251904Y-30307619D01*
%TO.C,CN1*%
X81572522Y-24540353D02*
X81524903Y-24587973D01*
X81524903Y-24587973D02*
X81382046Y-24635592D01*
X81382046Y-24635592D02*
X81286808Y-24635592D01*
X81286808Y-24635592D02*
X81143951Y-24587973D01*
X81143951Y-24587973D02*
X81048713Y-24492734D01*
X81048713Y-24492734D02*
X81001094Y-24397496D01*
X81001094Y-24397496D02*
X80953475Y-24207020D01*
X80953475Y-24207020D02*
X80953475Y-24064163D01*
X80953475Y-24064163D02*
X81001094Y-23873687D01*
X81001094Y-23873687D02*
X81048713Y-23778449D01*
X81048713Y-23778449D02*
X81143951Y-23683211D01*
X81143951Y-23683211D02*
X81286808Y-23635592D01*
X81286808Y-23635592D02*
X81382046Y-23635592D01*
X81382046Y-23635592D02*
X81524903Y-23683211D01*
X81524903Y-23683211D02*
X81572522Y-23730830D01*
X82001094Y-24635592D02*
X82001094Y-23635592D01*
X82001094Y-23635592D02*
X82572522Y-24635592D01*
X82572522Y-24635592D02*
X82572522Y-23635592D01*
X83572522Y-24635592D02*
X83001094Y-24635592D01*
X83286808Y-24635592D02*
X83286808Y-23635592D01*
X83286808Y-23635592D02*
X83191570Y-23778449D01*
X83191570Y-23778449D02*
X83096332Y-23873687D01*
X83096332Y-23873687D02*
X83001094Y-23921306D01*
%TO.C,F2*%
X118411666Y-57723809D02*
X118078333Y-57723809D01*
X118078333Y-58247619D02*
X118078333Y-57247619D01*
X118078333Y-57247619D02*
X118554523Y-57247619D01*
X118887857Y-57342857D02*
X118935476Y-57295238D01*
X118935476Y-57295238D02*
X119030714Y-57247619D01*
X119030714Y-57247619D02*
X119268809Y-57247619D01*
X119268809Y-57247619D02*
X119364047Y-57295238D01*
X119364047Y-57295238D02*
X119411666Y-57342857D01*
X119411666Y-57342857D02*
X119459285Y-57438095D01*
X119459285Y-57438095D02*
X119459285Y-57533333D01*
X119459285Y-57533333D02*
X119411666Y-57676190D01*
X119411666Y-57676190D02*
X118840238Y-58247619D01*
X118840238Y-58247619D02*
X119459285Y-58247619D01*
%TO.C,R3*%
X116038333Y-46817619D02*
X115705000Y-46341428D01*
X115466905Y-46817619D02*
X115466905Y-45817619D01*
X115466905Y-45817619D02*
X115847857Y-45817619D01*
X115847857Y-45817619D02*
X115943095Y-45865238D01*
X115943095Y-45865238D02*
X115990714Y-45912857D01*
X115990714Y-45912857D02*
X116038333Y-46008095D01*
X116038333Y-46008095D02*
X116038333Y-46150952D01*
X116038333Y-46150952D02*
X115990714Y-46246190D01*
X115990714Y-46246190D02*
X115943095Y-46293809D01*
X115943095Y-46293809D02*
X115847857Y-46341428D01*
X115847857Y-46341428D02*
X115466905Y-46341428D01*
X116371667Y-45817619D02*
X116990714Y-45817619D01*
X116990714Y-45817619D02*
X116657381Y-46198571D01*
X116657381Y-46198571D02*
X116800238Y-46198571D01*
X116800238Y-46198571D02*
X116895476Y-46246190D01*
X116895476Y-46246190D02*
X116943095Y-46293809D01*
X116943095Y-46293809D02*
X116990714Y-46389047D01*
X116990714Y-46389047D02*
X116990714Y-46627142D01*
X116990714Y-46627142D02*
X116943095Y-46722380D01*
X116943095Y-46722380D02*
X116895476Y-46770000D01*
X116895476Y-46770000D02*
X116800238Y-46817619D01*
X116800238Y-46817619D02*
X116514524Y-46817619D01*
X116514524Y-46817619D02*
X116419286Y-46770000D01*
X116419286Y-46770000D02*
X116371667Y-46722380D01*
%TO.C,C57*%
X104767142Y-44182380D02*
X104719523Y-44230000D01*
X104719523Y-44230000D02*
X104576666Y-44277619D01*
X104576666Y-44277619D02*
X104481428Y-44277619D01*
X104481428Y-44277619D02*
X104338571Y-44230000D01*
X104338571Y-44230000D02*
X104243333Y-44134761D01*
X104243333Y-44134761D02*
X104195714Y-44039523D01*
X104195714Y-44039523D02*
X104148095Y-43849047D01*
X104148095Y-43849047D02*
X104148095Y-43706190D01*
X104148095Y-43706190D02*
X104195714Y-43515714D01*
X104195714Y-43515714D02*
X104243333Y-43420476D01*
X104243333Y-43420476D02*
X104338571Y-43325238D01*
X104338571Y-43325238D02*
X104481428Y-43277619D01*
X104481428Y-43277619D02*
X104576666Y-43277619D01*
X104576666Y-43277619D02*
X104719523Y-43325238D01*
X104719523Y-43325238D02*
X104767142Y-43372857D01*
X105671904Y-43277619D02*
X105195714Y-43277619D01*
X105195714Y-43277619D02*
X105148095Y-43753809D01*
X105148095Y-43753809D02*
X105195714Y-43706190D01*
X105195714Y-43706190D02*
X105290952Y-43658571D01*
X105290952Y-43658571D02*
X105529047Y-43658571D01*
X105529047Y-43658571D02*
X105624285Y-43706190D01*
X105624285Y-43706190D02*
X105671904Y-43753809D01*
X105671904Y-43753809D02*
X105719523Y-43849047D01*
X105719523Y-43849047D02*
X105719523Y-44087142D01*
X105719523Y-44087142D02*
X105671904Y-44182380D01*
X105671904Y-44182380D02*
X105624285Y-44230000D01*
X105624285Y-44230000D02*
X105529047Y-44277619D01*
X105529047Y-44277619D02*
X105290952Y-44277619D01*
X105290952Y-44277619D02*
X105195714Y-44230000D01*
X105195714Y-44230000D02*
X105148095Y-44182380D01*
X106052857Y-43277619D02*
X106719523Y-43277619D01*
X106719523Y-43277619D02*
X106290952Y-44277619D01*
%TO.C,Q23*%
X29132857Y-109156428D02*
X29085238Y-109251666D01*
X29085238Y-109251666D02*
X28990000Y-109346904D01*
X28990000Y-109346904D02*
X28847142Y-109489761D01*
X28847142Y-109489761D02*
X28799523Y-109584999D01*
X28799523Y-109584999D02*
X28799523Y-109680237D01*
X29037619Y-109632618D02*
X28990000Y-109727856D01*
X28990000Y-109727856D02*
X28894761Y-109823094D01*
X28894761Y-109823094D02*
X28704285Y-109870713D01*
X28704285Y-109870713D02*
X28370952Y-109870713D01*
X28370952Y-109870713D02*
X28180476Y-109823094D01*
X28180476Y-109823094D02*
X28085238Y-109727856D01*
X28085238Y-109727856D02*
X28037619Y-109632618D01*
X28037619Y-109632618D02*
X28037619Y-109442142D01*
X28037619Y-109442142D02*
X28085238Y-109346904D01*
X28085238Y-109346904D02*
X28180476Y-109251666D01*
X28180476Y-109251666D02*
X28370952Y-109204047D01*
X28370952Y-109204047D02*
X28704285Y-109204047D01*
X28704285Y-109204047D02*
X28894761Y-109251666D01*
X28894761Y-109251666D02*
X28990000Y-109346904D01*
X28990000Y-109346904D02*
X29037619Y-109442142D01*
X29037619Y-109442142D02*
X29037619Y-109632618D01*
X28132857Y-108823094D02*
X28085238Y-108775475D01*
X28085238Y-108775475D02*
X28037619Y-108680237D01*
X28037619Y-108680237D02*
X28037619Y-108442142D01*
X28037619Y-108442142D02*
X28085238Y-108346904D01*
X28085238Y-108346904D02*
X28132857Y-108299285D01*
X28132857Y-108299285D02*
X28228095Y-108251666D01*
X28228095Y-108251666D02*
X28323333Y-108251666D01*
X28323333Y-108251666D02*
X28466190Y-108299285D01*
X28466190Y-108299285D02*
X29037619Y-108870713D01*
X29037619Y-108870713D02*
X29037619Y-108251666D01*
X28037619Y-107918332D02*
X28037619Y-107299285D01*
X28037619Y-107299285D02*
X28418571Y-107632618D01*
X28418571Y-107632618D02*
X28418571Y-107489761D01*
X28418571Y-107489761D02*
X28466190Y-107394523D01*
X28466190Y-107394523D02*
X28513809Y-107346904D01*
X28513809Y-107346904D02*
X28609047Y-107299285D01*
X28609047Y-107299285D02*
X28847142Y-107299285D01*
X28847142Y-107299285D02*
X28942380Y-107346904D01*
X28942380Y-107346904D02*
X28990000Y-107394523D01*
X28990000Y-107394523D02*
X29037619Y-107489761D01*
X29037619Y-107489761D02*
X29037619Y-107775475D01*
X29037619Y-107775475D02*
X28990000Y-107870713D01*
X28990000Y-107870713D02*
X28942380Y-107918332D01*
%TO.C,C53*%
X46347142Y-32117380D02*
X46299523Y-32165000D01*
X46299523Y-32165000D02*
X46156666Y-32212619D01*
X46156666Y-32212619D02*
X46061428Y-32212619D01*
X46061428Y-32212619D02*
X45918571Y-32165000D01*
X45918571Y-32165000D02*
X45823333Y-32069761D01*
X45823333Y-32069761D02*
X45775714Y-31974523D01*
X45775714Y-31974523D02*
X45728095Y-31784047D01*
X45728095Y-31784047D02*
X45728095Y-31641190D01*
X45728095Y-31641190D02*
X45775714Y-31450714D01*
X45775714Y-31450714D02*
X45823333Y-31355476D01*
X45823333Y-31355476D02*
X45918571Y-31260238D01*
X45918571Y-31260238D02*
X46061428Y-31212619D01*
X46061428Y-31212619D02*
X46156666Y-31212619D01*
X46156666Y-31212619D02*
X46299523Y-31260238D01*
X46299523Y-31260238D02*
X46347142Y-31307857D01*
X47251904Y-31212619D02*
X46775714Y-31212619D01*
X46775714Y-31212619D02*
X46728095Y-31688809D01*
X46728095Y-31688809D02*
X46775714Y-31641190D01*
X46775714Y-31641190D02*
X46870952Y-31593571D01*
X46870952Y-31593571D02*
X47109047Y-31593571D01*
X47109047Y-31593571D02*
X47204285Y-31641190D01*
X47204285Y-31641190D02*
X47251904Y-31688809D01*
X47251904Y-31688809D02*
X47299523Y-31784047D01*
X47299523Y-31784047D02*
X47299523Y-32022142D01*
X47299523Y-32022142D02*
X47251904Y-32117380D01*
X47251904Y-32117380D02*
X47204285Y-32165000D01*
X47204285Y-32165000D02*
X47109047Y-32212619D01*
X47109047Y-32212619D02*
X46870952Y-32212619D01*
X46870952Y-32212619D02*
X46775714Y-32165000D01*
X46775714Y-32165000D02*
X46728095Y-32117380D01*
X47632857Y-31212619D02*
X48251904Y-31212619D01*
X48251904Y-31212619D02*
X47918571Y-31593571D01*
X47918571Y-31593571D02*
X48061428Y-31593571D01*
X48061428Y-31593571D02*
X48156666Y-31641190D01*
X48156666Y-31641190D02*
X48204285Y-31688809D01*
X48204285Y-31688809D02*
X48251904Y-31784047D01*
X48251904Y-31784047D02*
X48251904Y-32022142D01*
X48251904Y-32022142D02*
X48204285Y-32117380D01*
X48204285Y-32117380D02*
X48156666Y-32165000D01*
X48156666Y-32165000D02*
X48061428Y-32212619D01*
X48061428Y-32212619D02*
X47775714Y-32212619D01*
X47775714Y-32212619D02*
X47680476Y-32165000D01*
X47680476Y-32165000D02*
X47632857Y-32117380D01*
%TO.C,D4*%
X110952619Y-55308332D02*
X109952619Y-55308332D01*
X109952619Y-55308332D02*
X109952619Y-54927380D01*
X109952619Y-54927380D02*
X110000238Y-54832142D01*
X110000238Y-54832142D02*
X110047857Y-54784523D01*
X110047857Y-54784523D02*
X110143095Y-54736904D01*
X110143095Y-54736904D02*
X110285952Y-54736904D01*
X110285952Y-54736904D02*
X110381190Y-54784523D01*
X110381190Y-54784523D02*
X110428809Y-54832142D01*
X110428809Y-54832142D02*
X110476428Y-54927380D01*
X110476428Y-54927380D02*
X110476428Y-55308332D01*
X109952619Y-54403570D02*
X110952619Y-54165475D01*
X110952619Y-54165475D02*
X110238333Y-53974999D01*
X110238333Y-53974999D02*
X110952619Y-53784523D01*
X110952619Y-53784523D02*
X109952619Y-53546428D01*
X110952619Y-52594047D02*
X110476428Y-52927380D01*
X110952619Y-53165475D02*
X109952619Y-53165475D01*
X109952619Y-53165475D02*
X109952619Y-52784523D01*
X109952619Y-52784523D02*
X110000238Y-52689285D01*
X110000238Y-52689285D02*
X110047857Y-52641666D01*
X110047857Y-52641666D02*
X110143095Y-52594047D01*
X110143095Y-52594047D02*
X110285952Y-52594047D01*
X110285952Y-52594047D02*
X110381190Y-52641666D01*
X110381190Y-52641666D02*
X110428809Y-52689285D01*
X110428809Y-52689285D02*
X110476428Y-52784523D01*
X110476428Y-52784523D02*
X110476428Y-53165475D01*
%TO.C,C51*%
X116346642Y-29417380D02*
X116299023Y-29465000D01*
X116299023Y-29465000D02*
X116156166Y-29512619D01*
X116156166Y-29512619D02*
X116060928Y-29512619D01*
X116060928Y-29512619D02*
X115918071Y-29465000D01*
X115918071Y-29465000D02*
X115822833Y-29369761D01*
X115822833Y-29369761D02*
X115775214Y-29274523D01*
X115775214Y-29274523D02*
X115727595Y-29084047D01*
X115727595Y-29084047D02*
X115727595Y-28941190D01*
X115727595Y-28941190D02*
X115775214Y-28750714D01*
X115775214Y-28750714D02*
X115822833Y-28655476D01*
X115822833Y-28655476D02*
X115918071Y-28560238D01*
X115918071Y-28560238D02*
X116060928Y-28512619D01*
X116060928Y-28512619D02*
X116156166Y-28512619D01*
X116156166Y-28512619D02*
X116299023Y-28560238D01*
X116299023Y-28560238D02*
X116346642Y-28607857D01*
X117251404Y-28512619D02*
X116775214Y-28512619D01*
X116775214Y-28512619D02*
X116727595Y-28988809D01*
X116727595Y-28988809D02*
X116775214Y-28941190D01*
X116775214Y-28941190D02*
X116870452Y-28893571D01*
X116870452Y-28893571D02*
X117108547Y-28893571D01*
X117108547Y-28893571D02*
X117203785Y-28941190D01*
X117203785Y-28941190D02*
X117251404Y-28988809D01*
X117251404Y-28988809D02*
X117299023Y-29084047D01*
X117299023Y-29084047D02*
X117299023Y-29322142D01*
X117299023Y-29322142D02*
X117251404Y-29417380D01*
X117251404Y-29417380D02*
X117203785Y-29465000D01*
X117203785Y-29465000D02*
X117108547Y-29512619D01*
X117108547Y-29512619D02*
X116870452Y-29512619D01*
X116870452Y-29512619D02*
X116775214Y-29465000D01*
X116775214Y-29465000D02*
X116727595Y-29417380D01*
X118251404Y-29512619D02*
X117679976Y-29512619D01*
X117965690Y-29512619D02*
X117965690Y-28512619D01*
X117965690Y-28512619D02*
X117870452Y-28655476D01*
X117870452Y-28655476D02*
X117775214Y-28750714D01*
X117775214Y-28750714D02*
X117679976Y-28798333D01*
%TO.C,Q21*%
X29132857Y-105346428D02*
X29085238Y-105441666D01*
X29085238Y-105441666D02*
X28990000Y-105536904D01*
X28990000Y-105536904D02*
X28847142Y-105679761D01*
X28847142Y-105679761D02*
X28799523Y-105774999D01*
X28799523Y-105774999D02*
X28799523Y-105870237D01*
X29037619Y-105822618D02*
X28990000Y-105917856D01*
X28990000Y-105917856D02*
X28894761Y-106013094D01*
X28894761Y-106013094D02*
X28704285Y-106060713D01*
X28704285Y-106060713D02*
X28370952Y-106060713D01*
X28370952Y-106060713D02*
X28180476Y-106013094D01*
X28180476Y-106013094D02*
X28085238Y-105917856D01*
X28085238Y-105917856D02*
X28037619Y-105822618D01*
X28037619Y-105822618D02*
X28037619Y-105632142D01*
X28037619Y-105632142D02*
X28085238Y-105536904D01*
X28085238Y-105536904D02*
X28180476Y-105441666D01*
X28180476Y-105441666D02*
X28370952Y-105394047D01*
X28370952Y-105394047D02*
X28704285Y-105394047D01*
X28704285Y-105394047D02*
X28894761Y-105441666D01*
X28894761Y-105441666D02*
X28990000Y-105536904D01*
X28990000Y-105536904D02*
X29037619Y-105632142D01*
X29037619Y-105632142D02*
X29037619Y-105822618D01*
X28132857Y-105013094D02*
X28085238Y-104965475D01*
X28085238Y-104965475D02*
X28037619Y-104870237D01*
X28037619Y-104870237D02*
X28037619Y-104632142D01*
X28037619Y-104632142D02*
X28085238Y-104536904D01*
X28085238Y-104536904D02*
X28132857Y-104489285D01*
X28132857Y-104489285D02*
X28228095Y-104441666D01*
X28228095Y-104441666D02*
X28323333Y-104441666D01*
X28323333Y-104441666D02*
X28466190Y-104489285D01*
X28466190Y-104489285D02*
X29037619Y-105060713D01*
X29037619Y-105060713D02*
X29037619Y-104441666D01*
X29037619Y-103489285D02*
X29037619Y-104060713D01*
X29037619Y-103774999D02*
X28037619Y-103774999D01*
X28037619Y-103774999D02*
X28180476Y-103870237D01*
X28180476Y-103870237D02*
X28275714Y-103965475D01*
X28275714Y-103965475D02*
X28323333Y-104060713D01*
%TO.C,R1*%
X111102619Y-58586666D02*
X110626428Y-58919999D01*
X111102619Y-59158094D02*
X110102619Y-59158094D01*
X110102619Y-59158094D02*
X110102619Y-58777142D01*
X110102619Y-58777142D02*
X110150238Y-58681904D01*
X110150238Y-58681904D02*
X110197857Y-58634285D01*
X110197857Y-58634285D02*
X110293095Y-58586666D01*
X110293095Y-58586666D02*
X110435952Y-58586666D01*
X110435952Y-58586666D02*
X110531190Y-58634285D01*
X110531190Y-58634285D02*
X110578809Y-58681904D01*
X110578809Y-58681904D02*
X110626428Y-58777142D01*
X110626428Y-58777142D02*
X110626428Y-59158094D01*
X111102619Y-57634285D02*
X111102619Y-58205713D01*
X111102619Y-57919999D02*
X110102619Y-57919999D01*
X110102619Y-57919999D02*
X110245476Y-58015237D01*
X110245476Y-58015237D02*
X110340714Y-58110475D01*
X110340714Y-58110475D02*
X110388333Y-58205713D01*
%TO.C,R2*%
X113498333Y-46817619D02*
X113165000Y-46341428D01*
X112926905Y-46817619D02*
X112926905Y-45817619D01*
X112926905Y-45817619D02*
X113307857Y-45817619D01*
X113307857Y-45817619D02*
X113403095Y-45865238D01*
X113403095Y-45865238D02*
X113450714Y-45912857D01*
X113450714Y-45912857D02*
X113498333Y-46008095D01*
X113498333Y-46008095D02*
X113498333Y-46150952D01*
X113498333Y-46150952D02*
X113450714Y-46246190D01*
X113450714Y-46246190D02*
X113403095Y-46293809D01*
X113403095Y-46293809D02*
X113307857Y-46341428D01*
X113307857Y-46341428D02*
X112926905Y-46341428D01*
X113879286Y-45912857D02*
X113926905Y-45865238D01*
X113926905Y-45865238D02*
X114022143Y-45817619D01*
X114022143Y-45817619D02*
X114260238Y-45817619D01*
X114260238Y-45817619D02*
X114355476Y-45865238D01*
X114355476Y-45865238D02*
X114403095Y-45912857D01*
X114403095Y-45912857D02*
X114450714Y-46008095D01*
X114450714Y-46008095D02*
X114450714Y-46103333D01*
X114450714Y-46103333D02*
X114403095Y-46246190D01*
X114403095Y-46246190D02*
X113831667Y-46817619D01*
X113831667Y-46817619D02*
X114450714Y-46817619D01*
%TO.C,U3*%
X83693095Y-50262619D02*
X83693095Y-51072142D01*
X83693095Y-51072142D02*
X83740714Y-51167380D01*
X83740714Y-51167380D02*
X83788333Y-51215000D01*
X83788333Y-51215000D02*
X83883571Y-51262619D01*
X83883571Y-51262619D02*
X84074047Y-51262619D01*
X84074047Y-51262619D02*
X84169285Y-51215000D01*
X84169285Y-51215000D02*
X84216904Y-51167380D01*
X84216904Y-51167380D02*
X84264523Y-51072142D01*
X84264523Y-51072142D02*
X84264523Y-50262619D01*
X84645476Y-50262619D02*
X85264523Y-50262619D01*
X85264523Y-50262619D02*
X84931190Y-50643571D01*
X84931190Y-50643571D02*
X85074047Y-50643571D01*
X85074047Y-50643571D02*
X85169285Y-50691190D01*
X85169285Y-50691190D02*
X85216904Y-50738809D01*
X85216904Y-50738809D02*
X85264523Y-50834047D01*
X85264523Y-50834047D02*
X85264523Y-51072142D01*
X85264523Y-51072142D02*
X85216904Y-51167380D01*
X85216904Y-51167380D02*
X85169285Y-51215000D01*
X85169285Y-51215000D02*
X85074047Y-51262619D01*
X85074047Y-51262619D02*
X84788333Y-51262619D01*
X84788333Y-51262619D02*
X84693095Y-51215000D01*
X84693095Y-51215000D02*
X84645476Y-51167380D01*
%TO.C,D6*%
X28462619Y-69738094D02*
X27462619Y-69738094D01*
X27462619Y-69738094D02*
X27462619Y-69499999D01*
X27462619Y-69499999D02*
X27510238Y-69357142D01*
X27510238Y-69357142D02*
X27605476Y-69261904D01*
X27605476Y-69261904D02*
X27700714Y-69214285D01*
X27700714Y-69214285D02*
X27891190Y-69166666D01*
X27891190Y-69166666D02*
X28034047Y-69166666D01*
X28034047Y-69166666D02*
X28224523Y-69214285D01*
X28224523Y-69214285D02*
X28319761Y-69261904D01*
X28319761Y-69261904D02*
X28415000Y-69357142D01*
X28415000Y-69357142D02*
X28462619Y-69499999D01*
X28462619Y-69499999D02*
X28462619Y-69738094D01*
X27462619Y-68309523D02*
X27462619Y-68499999D01*
X27462619Y-68499999D02*
X27510238Y-68595237D01*
X27510238Y-68595237D02*
X27557857Y-68642856D01*
X27557857Y-68642856D02*
X27700714Y-68738094D01*
X27700714Y-68738094D02*
X27891190Y-68785713D01*
X27891190Y-68785713D02*
X28272142Y-68785713D01*
X28272142Y-68785713D02*
X28367380Y-68738094D01*
X28367380Y-68738094D02*
X28415000Y-68690475D01*
X28415000Y-68690475D02*
X28462619Y-68595237D01*
X28462619Y-68595237D02*
X28462619Y-68404761D01*
X28462619Y-68404761D02*
X28415000Y-68309523D01*
X28415000Y-68309523D02*
X28367380Y-68261904D01*
X28367380Y-68261904D02*
X28272142Y-68214285D01*
X28272142Y-68214285D02*
X28034047Y-68214285D01*
X28034047Y-68214285D02*
X27938809Y-68261904D01*
X27938809Y-68261904D02*
X27891190Y-68309523D01*
X27891190Y-68309523D02*
X27843571Y-68404761D01*
X27843571Y-68404761D02*
X27843571Y-68595237D01*
X27843571Y-68595237D02*
X27891190Y-68690475D01*
X27891190Y-68690475D02*
X27938809Y-68738094D01*
X27938809Y-68738094D02*
X28034047Y-68785713D01*
D14*
%TO.C,R9*%
X50545276Y-26782500D02*
X51054724Y-26782500D01*
X50545276Y-27827500D02*
X51054724Y-27827500D01*
%TO.C,C37*%
X73130248Y-37238000D02*
X73652752Y-37238000D01*
X73130248Y-38708000D02*
X73652752Y-38708000D01*
%TO.C,M8*%
X109280000Y-28635000D02*
X107950000Y-28635000D01*
X109280000Y-27305000D02*
X109280000Y-28635000D01*
X109280000Y-26035000D02*
X109280000Y-20895000D01*
X109280000Y-26035000D02*
X106620000Y-26035000D01*
X109280000Y-20895000D02*
X106620000Y-20895000D01*
X106620000Y-26035000D02*
X106620000Y-20895000D01*
%TO.C,R5*%
X90917500Y-52324724D02*
X90917500Y-51815276D01*
X91962500Y-52324724D02*
X91962500Y-51815276D01*
%TO.C,C60*%
X94761267Y-37340000D02*
X94468733Y-37340000D01*
X94761267Y-36320000D02*
X94468733Y-36320000D01*
%TO.C,R27*%
X116232198Y-81717526D02*
X115722750Y-81717526D01*
X116232198Y-80672526D02*
X115722750Y-80672526D01*
%TO.C,JP2*%
X23830000Y-29700000D02*
X24430000Y-29700000D01*
X22630000Y-30250000D02*
X22630000Y-30850000D01*
X25130000Y-30350000D02*
X25130000Y-33150000D01*
X22930000Y-30550000D02*
X22630000Y-30250000D01*
X22930000Y-30550000D02*
X22630000Y-30850000D01*
X23130000Y-33150000D02*
X23130000Y-30350000D01*
X24430000Y-33800000D02*
X23830000Y-33800000D01*
X25130000Y-30400000D02*
G75*
G03*
X24430000Y-29700000I-699999J1D01*
G01*
X23830000Y-29700000D02*
G75*
G03*
X23130000Y-30400000I-1J-699999D01*
G01*
X24430000Y-33800000D02*
G75*
G03*
X25130000Y-33100000I0J700000D01*
G01*
X23130000Y-33100000D02*
G75*
G03*
X23830000Y-33800000I700000J0D01*
G01*
%TO.C,U10*%
X115365000Y-32352973D02*
X111865000Y-32352973D01*
X115365000Y-32352973D02*
X117315000Y-32352973D01*
X115365000Y-42472973D02*
X113415000Y-42472973D01*
X115365000Y-42472973D02*
X117315000Y-42472973D01*
%TO.C,JP3*%
X27605000Y-33800000D02*
X27005000Y-33800000D01*
X28805000Y-33250000D02*
X28805000Y-32650000D01*
X26305000Y-33150000D02*
X26305000Y-30350000D01*
X28505000Y-32950000D02*
X28805000Y-33250000D01*
X28505000Y-32950000D02*
X28805000Y-32650000D01*
X28305000Y-30350000D02*
X28305000Y-33150000D01*
X27005000Y-29700000D02*
X27605000Y-29700000D01*
X26305000Y-33100000D02*
G75*
G03*
X27005000Y-33800000I699999J-1D01*
G01*
X27605000Y-33800000D02*
G75*
G03*
X28305000Y-33100000I1J699999D01*
G01*
X27005000Y-29700000D02*
G75*
G03*
X26305000Y-30400000I0J-700000D01*
G01*
X28305000Y-30400000D02*
G75*
G03*
X27605000Y-29700000I-700000J0D01*
G01*
%TO.C,C30*%
X104240000Y-53713748D02*
X104240000Y-54236252D01*
X102770000Y-53713748D02*
X102770000Y-54236252D01*
%TO.C,C26*%
X70995000Y-34778733D02*
X70995000Y-35071267D01*
X69975000Y-34778733D02*
X69975000Y-35071267D01*
%TO.C,JP4*%
X99050000Y-42700000D02*
X99050000Y-43300000D01*
X98500000Y-41500000D02*
X97900000Y-41500000D01*
X98400000Y-44000000D02*
X95600000Y-44000000D01*
X98200000Y-41800000D02*
X98500000Y-41500000D01*
X98200000Y-41800000D02*
X97900000Y-41500000D01*
X95600000Y-42000000D02*
X98400000Y-42000000D01*
X94950000Y-43300000D02*
X94950000Y-42700000D01*
X98350000Y-44000000D02*
G75*
G03*
X99050000Y-43300000I1J699999D01*
G01*
X99050000Y-42700000D02*
G75*
G03*
X98350000Y-42000000I-699999J1D01*
G01*
X94950000Y-43300000D02*
G75*
G03*
X95650000Y-44000000I700000J0D01*
G01*
X95650000Y-42000000D02*
G75*
G03*
X94950000Y-42700000I0J-700000D01*
G01*
D15*
%TO.C,CN3*%
X58902999Y-25025102D02*
X58902999Y-20524975D01*
X58902999Y-20524975D02*
X44902999Y-20524975D01*
X44902999Y-25025102D02*
X58902999Y-25025102D01*
X44902999Y-20524975D02*
X44902999Y-25025102D01*
X45976150Y-21208998D02*
G75*
G03*
X45976150Y-21208998I-359156J0D01*
G01*
D16*
X44805971Y-25152102D02*
G75*
G03*
X44805971Y-25152102I-29972J0D01*
G01*
D14*
%TO.C,R25*%
X91569724Y-45677500D02*
X91060276Y-45677500D01*
X91569724Y-44632500D02*
X91060276Y-44632500D01*
%TO.C,C6*%
X89410000Y-48113733D02*
X89410000Y-48406267D01*
X88390000Y-48113733D02*
X88390000Y-48406267D01*
%TO.C,C7*%
X110983500Y-47758733D02*
X110983500Y-48051267D01*
X109963500Y-47758733D02*
X109963500Y-48051267D01*
%TO.C,C42*%
X73130248Y-34952000D02*
X73652752Y-34952000D01*
X73130248Y-36422000D02*
X73652752Y-36422000D01*
%TO.C,R29*%
X24875276Y-80707263D02*
X25384724Y-80707263D01*
X24875276Y-81752263D02*
X25384724Y-81752263D01*
D13*
%TO.C,U17*%
X33526000Y-34803973D02*
X33576000Y-34803973D01*
X33526000Y-34803973D02*
X33526000Y-30653973D01*
X33576000Y-34803973D02*
X33576000Y-36203973D01*
X38676000Y-34803973D02*
X38531000Y-34803973D01*
X38676000Y-34803973D02*
X38676000Y-30653973D01*
X33526000Y-30653973D02*
X33671000Y-30653973D01*
X38676000Y-30653973D02*
X38531000Y-30653973D01*
D14*
%TO.C,R17*%
X115824724Y-99955526D02*
X115315276Y-99955526D01*
X115824724Y-98910526D02*
X115315276Y-98910526D01*
%TO.C,C5*%
X79885000Y-48018733D02*
X79885000Y-48311267D01*
X78865000Y-48018733D02*
X78865000Y-48311267D01*
D15*
%TO.C,U18*%
X25294975Y-84610036D02*
X22695025Y-84610036D01*
X21035030Y-85610036D02*
X21035030Y-89510010D01*
X25294975Y-85689970D02*
X25294975Y-84610036D01*
X25294975Y-89670005D02*
X25294975Y-90590020D01*
X25294975Y-90590020D02*
X22688193Y-90590020D01*
D16*
X25980090Y-84630000D02*
G75*
G03*
X25980090Y-84630000I-29997J0D01*
G01*
D15*
X24932389Y-85130635D02*
G75*
G03*
X24932389Y-85130635I-124968J0D01*
G01*
%TO.C,U5*%
X94282500Y-51618500D02*
X95401347Y-51618500D01*
X94282500Y-51618500D02*
X94282525Y-46218500D01*
X98363653Y-51618500D02*
X99482500Y-51618500D01*
X95401347Y-46218500D02*
X94282525Y-46218500D01*
X99482475Y-46218500D02*
X99482500Y-51618500D01*
X99482475Y-46218500D02*
X98363653Y-46218500D01*
D16*
X99512421Y-51618525D02*
G75*
G03*
X99512421Y-51618525I-29972J0D01*
G01*
D14*
%TO.C,C50*%
X28450000Y-76688733D02*
X28450000Y-76981267D01*
X27430000Y-76688733D02*
X27430000Y-76981267D01*
D15*
%TO.C,CN4*%
X43655000Y-24973075D02*
X43655000Y-20472948D01*
X43655000Y-20472948D02*
X29655000Y-20472948D01*
X29655000Y-24973075D02*
X43655000Y-24973075D01*
X29655000Y-20472948D02*
X29655000Y-24973075D01*
X30728151Y-21156971D02*
G75*
G03*
X30728151Y-21156971I-359156J0D01*
G01*
D16*
X29557972Y-25100075D02*
G75*
G03*
X29557972Y-25100075I-29972J0D01*
G01*
D14*
%TO.C,R8*%
X66420276Y-26147500D02*
X66929724Y-26147500D01*
X66420276Y-27192500D02*
X66929724Y-27192500D01*
%TO.C,R6*%
X91962500Y-48005276D02*
X91962500Y-48514724D01*
X90917500Y-48005276D02*
X90917500Y-48514724D01*
D13*
%TO.C,U16*%
X48774000Y-34927973D02*
X48824000Y-34927973D01*
X48774000Y-34927973D02*
X48774000Y-30777973D01*
X48824000Y-34927973D02*
X48824000Y-36327973D01*
X53924000Y-34927973D02*
X53779000Y-34927973D01*
X53924000Y-34927973D02*
X53924000Y-30777973D01*
X48774000Y-30777973D02*
X48919000Y-30777973D01*
X53924000Y-30777973D02*
X53779000Y-30777973D01*
D14*
%TO.C,C11*%
X88665248Y-28932000D02*
X89187752Y-28932000D01*
X88665248Y-30402000D02*
X89187752Y-30402000D01*
%TO.C,C29*%
X113176267Y-30990000D02*
X112883733Y-30990000D01*
X113176267Y-29970000D02*
X112883733Y-29970000D01*
%TO.C,C28*%
X40515000Y-34778733D02*
X40515000Y-35071267D01*
X39495000Y-34778733D02*
X39495000Y-35071267D01*
%TO.C,C36*%
X88665248Y-37238000D02*
X89187752Y-37238000D01*
X88665248Y-38708000D02*
X89187752Y-38708000D01*
D13*
%TO.C,U13*%
X79134000Y-34803973D02*
X79184000Y-34803973D01*
X79134000Y-34803973D02*
X79134000Y-30653973D01*
X79184000Y-34803973D02*
X79184000Y-36203973D01*
X84284000Y-34803973D02*
X84139000Y-34803973D01*
X84284000Y-34803973D02*
X84284000Y-30653973D01*
X79134000Y-30653973D02*
X79279000Y-30653973D01*
X84284000Y-30653973D02*
X84139000Y-30653973D01*
D14*
%TO.C,C4*%
X42806233Y-26795000D02*
X43098767Y-26795000D01*
X42806233Y-27815000D02*
X43098767Y-27815000D01*
%TO.C,R23*%
X26782500Y-65089724D02*
X26782500Y-64580276D01*
X27827500Y-65089724D02*
X27827500Y-64580276D01*
%TO.C,C14*%
X102577500Y-50183767D02*
X102577500Y-49891233D01*
X103597500Y-50183767D02*
X103597500Y-49891233D01*
%TO.C,Q25*%
X25400000Y-96215000D02*
X23725000Y-96215000D01*
X25400000Y-96215000D02*
X26050000Y-96215000D01*
X25400000Y-99335000D02*
X24750000Y-99335000D01*
X25400000Y-99335000D02*
X26050000Y-99335000D01*
D17*
%TO.C,U4*%
X106282295Y-48498308D02*
X108060705Y-48498308D01*
X106282295Y-51576692D02*
X108060705Y-51576692D01*
D10*
X106020115Y-48369225D02*
G75*
G03*
X106020115Y-48369225I-150114J0D01*
G01*
D16*
X105801498Y-48574482D02*
G75*
G03*
X105801498Y-48574482I-29998J0D01*
G01*
D14*
%TO.C,C3*%
X58046233Y-26795000D02*
X58338767Y-26795000D01*
X58046233Y-27815000D02*
X58338767Y-27815000D01*
%TO.C,D1*%
X118065000Y-119070000D02*
X118065000Y-117150000D01*
X118065000Y-117150000D02*
X115205000Y-117150000D01*
X115205000Y-119070000D02*
X118065000Y-119070000D01*
%TO.C,M6*%
X99330000Y-28635000D02*
X98000000Y-28635000D01*
X99330000Y-27305000D02*
X99330000Y-28635000D01*
X99330000Y-26035000D02*
X99330000Y-20895000D01*
X99330000Y-26035000D02*
X96670000Y-26035000D01*
X99330000Y-20895000D02*
X96670000Y-20895000D01*
X96670000Y-26035000D02*
X96670000Y-20895000D01*
%TO.C,R7*%
X81025276Y-26782500D02*
X81534724Y-26782500D01*
X81025276Y-27827500D02*
X81534724Y-27827500D01*
%TO.C,C59*%
X118845000Y-48633748D02*
X118845000Y-49156252D01*
X117375000Y-48633748D02*
X117375000Y-49156252D01*
%TO.C,Q17*%
X91440000Y-33042973D02*
X91440000Y-34717973D01*
X91440000Y-33042973D02*
X91440000Y-32392973D01*
X94560000Y-33042973D02*
X94560000Y-33692973D01*
X94560000Y-33042973D02*
X94560000Y-32392973D01*
%TO.C,C39*%
X42945248Y-36095000D02*
X43467752Y-36095000D01*
X42945248Y-37565000D02*
X43467752Y-37565000D01*
%TO.C,C25*%
X86235000Y-34778733D02*
X86235000Y-35071267D01*
X85215000Y-34778733D02*
X85215000Y-35071267D01*
%TO.C,M5*%
X94330000Y-28635000D02*
X93000000Y-28635000D01*
X94330000Y-27305000D02*
X94330000Y-28635000D01*
X94330000Y-26035000D02*
X94330000Y-20895000D01*
X94330000Y-26035000D02*
X91670000Y-26035000D01*
X94330000Y-20895000D02*
X91670000Y-20895000D01*
X91670000Y-26035000D02*
X91670000Y-20895000D01*
%TO.C,D7*%
X117837474Y-85457026D02*
X117837474Y-83537026D01*
X117837474Y-83537026D02*
X114977474Y-83537026D01*
X114977474Y-85457026D02*
X117837474Y-85457026D01*
%TO.C,D3*%
X117430000Y-103695026D02*
X117430000Y-101775026D01*
X117430000Y-101775026D02*
X114570000Y-101775026D01*
X114570000Y-103695026D02*
X117430000Y-103695026D01*
%TO.C,C2*%
X72991233Y-26795000D02*
X73283767Y-26795000D01*
X72991233Y-27815000D02*
X73283767Y-27815000D01*
D15*
%TO.C,CN2*%
X73942999Y-24989075D02*
X73942999Y-20488948D01*
X73942999Y-20488948D02*
X59942999Y-20488948D01*
X59942999Y-24989075D02*
X73942999Y-24989075D01*
X59942999Y-20488948D02*
X59942999Y-24989075D01*
X61016150Y-21172971D02*
G75*
G03*
X61016150Y-21172971I-359156J0D01*
G01*
D16*
X59845971Y-25116075D02*
G75*
G03*
X59845971Y-25116075I-29972J0D01*
G01*
D14*
%TO.C,C54*%
X42945248Y-33555000D02*
X43467752Y-33555000D01*
X42945248Y-35025000D02*
X43467752Y-35025000D01*
D13*
%TO.C,U15*%
X63814000Y-34819973D02*
X63864000Y-34819973D01*
X63814000Y-34819973D02*
X63814000Y-30669973D01*
X63864000Y-34819973D02*
X63864000Y-36219973D01*
X68964000Y-34819973D02*
X68819000Y-34819973D01*
X68964000Y-34819973D02*
X68964000Y-30669973D01*
X63814000Y-30669973D02*
X63959000Y-30669973D01*
X68964000Y-30669973D02*
X68819000Y-30669973D01*
D14*
%TO.C,U1*%
X20775000Y-61500000D02*
X21075000Y-61500000D01*
X20775000Y-61500000D02*
X20775000Y-40500000D01*
X23175000Y-61500000D02*
X23575000Y-61500000D01*
X23442000Y-61500000D02*
X23442000Y-58493000D01*
X25775000Y-61500000D02*
X26175000Y-61500000D01*
X28275000Y-61500000D02*
X28675000Y-61500000D01*
X30875000Y-61500000D02*
X31275000Y-61500000D01*
X33375000Y-61500000D02*
X33775000Y-61500000D01*
X35875000Y-61500000D02*
X36275000Y-61500000D01*
X38475000Y-61500000D02*
X38875000Y-61500000D01*
X40975000Y-61500000D02*
X41375000Y-61500000D01*
X43575000Y-61500000D02*
X43975000Y-61500000D01*
X46075000Y-61500000D02*
X46475000Y-61500000D01*
X48575000Y-61500000D02*
X48975000Y-61500000D01*
X51175000Y-61500000D02*
X51575000Y-61500000D01*
X53675000Y-61500000D02*
X54075000Y-61500000D01*
X56275000Y-61500000D02*
X56675000Y-61500000D01*
X58775000Y-61500000D02*
X59175000Y-61500000D01*
X61375000Y-61500000D02*
X61775000Y-61500000D01*
X63875000Y-61500000D02*
X64275000Y-61500000D01*
X66375000Y-61500000D02*
X66775000Y-61500000D01*
X68975000Y-61500000D02*
X69375000Y-61500000D01*
X71775000Y-54700000D02*
X71775000Y-61500000D01*
X20775000Y-40500000D02*
X21075000Y-40500000D01*
X23175000Y-40500000D02*
X23575000Y-40500000D01*
X25775000Y-40500000D02*
X26175000Y-40500000D01*
X28275000Y-40500000D02*
X28675000Y-40500000D01*
X30875000Y-40500000D02*
X31275000Y-40500000D01*
X33375000Y-40500000D02*
X33775000Y-40500000D01*
X35875000Y-40500000D02*
X36275000Y-40500000D01*
X38475000Y-40500000D02*
X38875000Y-40500000D01*
X40975000Y-40500000D02*
X41375000Y-40500000D01*
X43575000Y-40500000D02*
X43975000Y-40500000D01*
X46075000Y-40500000D02*
X46475000Y-40500000D01*
X48575000Y-40500000D02*
X48975000Y-40500000D01*
X51175000Y-40500000D02*
X51575000Y-40500000D01*
X53675000Y-40500000D02*
X54075000Y-40500000D01*
X56275000Y-40500000D02*
X56675000Y-40500000D01*
X58775000Y-40500000D02*
X59175000Y-40500000D01*
X61375000Y-40500000D02*
X61775000Y-40500000D01*
X63875000Y-40500000D02*
X64275000Y-40500000D01*
X66375000Y-40500000D02*
X66775000Y-40500000D01*
X68975000Y-40500000D02*
X69375000Y-40500000D01*
X71775000Y-40500000D02*
X71775000Y-47300000D01*
%TO.C,C13*%
X106780000Y-53713748D02*
X106780000Y-54236252D01*
X105310000Y-53713748D02*
X105310000Y-54236252D01*
%TO.C,C47*%
X58185248Y-34952000D02*
X58707752Y-34952000D01*
X58185248Y-36422000D02*
X58707752Y-36422000D01*
%TO.C,R20*%
X116459724Y-116092500D02*
X115950276Y-116092500D01*
X116459724Y-115047500D02*
X115950276Y-115047500D01*
%TO.C,R10*%
X35305276Y-26782500D02*
X35814724Y-26782500D01*
X35305276Y-27827500D02*
X35814724Y-27827500D01*
%TO.C,C38*%
X58185248Y-37238000D02*
X58707752Y-37238000D01*
X58185248Y-38708000D02*
X58707752Y-38708000D01*
%TO.C,C45*%
X58185248Y-28932000D02*
X58707752Y-28932000D01*
X58185248Y-30402000D02*
X58707752Y-30402000D01*
%TO.C,C46*%
X58185248Y-31941999D02*
X58707752Y-31941999D01*
X58185248Y-33411999D02*
X58707752Y-33411999D01*
%TO.C,R4*%
X111600000Y-48918724D02*
X111600000Y-48409276D01*
X112645000Y-48918724D02*
X112645000Y-48409276D01*
%TO.C,R26*%
X87485276Y-44632500D02*
X87994724Y-44632500D01*
X87485276Y-45677500D02*
X87994724Y-45677500D01*
%TO.C,R30*%
X24875276Y-82707263D02*
X25384724Y-82707263D01*
X24875276Y-83752263D02*
X25384724Y-83752263D01*
%TO.C,R21*%
X21622500Y-64952224D02*
X21622500Y-64442776D01*
X22667500Y-64952224D02*
X22667500Y-64442776D01*
%TO.C,C58*%
X101701248Y-46128500D02*
X102223752Y-46128500D01*
X101701248Y-47598500D02*
X102223752Y-47598500D01*
%TO.C,C1*%
X88526233Y-26795000D02*
X88818767Y-26795000D01*
X88526233Y-27815000D02*
X88818767Y-27815000D01*
%TO.C,Q24*%
X25400000Y-92665000D02*
X23725000Y-92665000D01*
X25400000Y-92665000D02*
X26050000Y-92665000D01*
X25400000Y-95785000D02*
X24750000Y-95785000D01*
X25400000Y-95785000D02*
X26050000Y-95785000D01*
%TO.C,M7*%
X104330000Y-28635000D02*
X103000000Y-28635000D01*
X104330000Y-27305000D02*
X104330000Y-28635000D01*
X104330000Y-26035000D02*
X104330000Y-20895000D01*
X104330000Y-26035000D02*
X101670000Y-26035000D01*
X104330000Y-20895000D02*
X101670000Y-20895000D01*
X101670000Y-26035000D02*
X101670000Y-20895000D01*
D15*
%TO.C,U7*%
X93690000Y-53185000D02*
X93690000Y-62385000D01*
X93690000Y-53185000D02*
X101890000Y-53185000D01*
X93690000Y-62385000D02*
X101890051Y-62385000D01*
X101890000Y-53185000D02*
X101890000Y-62385000D01*
D16*
X93592997Y-53058000D02*
G75*
G03*
X93592997Y-53058000I-29997J0D01*
G01*
D15*
X99060003Y-57785000D02*
G75*
G03*
X99060003Y-57785000I-1270003J0D01*
G01*
D14*
%TO.C,C15*%
X91178748Y-42445000D02*
X91701252Y-42445000D01*
X91178748Y-43915000D02*
X91701252Y-43915000D01*
%TO.C,D5*%
X22690000Y-35210000D02*
X22690000Y-38510000D01*
X22690000Y-35210000D02*
X29700000Y-35210000D01*
X22690000Y-38510000D02*
X29700000Y-38510000D01*
D15*
%TO.C,U6*%
X35699911Y-63040025D02*
X113299911Y-63040025D01*
X35699911Y-69008885D02*
X35699911Y-63040025D01*
X35699911Y-87508885D02*
X35699911Y-76871166D01*
X35699911Y-106008885D02*
X35699911Y-95371166D01*
X35699911Y-119840025D02*
X35699911Y-113871166D01*
X113299911Y-63040025D02*
X113299911Y-69008885D01*
X113299911Y-76871166D02*
X113299911Y-87508885D01*
X113299911Y-95371166D02*
X113299911Y-106008885D01*
X113299911Y-113871166D02*
X113299911Y-119840025D01*
X113299911Y-119840025D02*
X35699911Y-119840025D01*
D16*
X31279921Y-63040025D02*
G75*
G03*
X31279921Y-63040025I-29998J0D01*
G01*
D14*
%TO.C,U12*%
X26565000Y-76832263D02*
X26565000Y-77007263D01*
X25890000Y-79552263D02*
X26565000Y-79552263D01*
X25890000Y-76832263D02*
X26565000Y-76832263D01*
X24020000Y-79552263D02*
X23345000Y-79552263D01*
X24020000Y-76832263D02*
X23345000Y-76832263D01*
X23345000Y-79552263D02*
X23345000Y-79377263D01*
X23345000Y-76832263D02*
X23345000Y-77007263D01*
%TO.C,JP1*%
X84050000Y-43515000D02*
X84050000Y-44115000D01*
X83500000Y-42315000D02*
X82900000Y-42315000D01*
X83400000Y-44815000D02*
X80600000Y-44815000D01*
X83200000Y-42615000D02*
X83500000Y-42315000D01*
X83200000Y-42615000D02*
X82900000Y-42315000D01*
X80600000Y-42815000D02*
X83400000Y-42815000D01*
X79950000Y-44115000D02*
X79950000Y-43515000D01*
X83350000Y-44815000D02*
G75*
G03*
X84050000Y-44115000I1J699999D01*
G01*
X84050000Y-43515000D02*
G75*
G03*
X83350000Y-42815000I-699999J1D01*
G01*
X79950000Y-44115000D02*
G75*
G03*
X80650000Y-44815000I700000J0D01*
G01*
X80650000Y-42815000D02*
G75*
G03*
X79950000Y-43515000I0J-700000D01*
G01*
%TO.C,C61*%
X114446267Y-45595000D02*
X114153733Y-45595000D01*
X114446267Y-44575000D02*
X114153733Y-44575000D01*
%TO.C,C8*%
X102608748Y-41175000D02*
X103131252Y-41175000D01*
X102608748Y-42645000D02*
X103131252Y-42645000D01*
%TO.C,C27*%
X55755000Y-34778733D02*
X55755000Y-35071267D01*
X54735000Y-34778733D02*
X54735000Y-35071267D01*
%TO.C,Q22*%
X25400000Y-99840000D02*
X23725000Y-99840000D01*
X25400000Y-99840000D02*
X26050000Y-99840000D01*
X25400000Y-102960000D02*
X24750000Y-102960000D01*
X25400000Y-102960000D02*
X26050000Y-102960000D01*
%TO.C,C52*%
X42945248Y-28932000D02*
X43467752Y-28932000D01*
X42945248Y-30402000D02*
X43467752Y-30402000D01*
%TO.C,C16*%
X21715000Y-76981267D02*
X21715000Y-76688733D01*
X22735000Y-76981267D02*
X22735000Y-76688733D01*
D15*
%TO.C,CN1*%
X89262999Y-24973075D02*
X89262999Y-20472948D01*
X89262999Y-20472948D02*
X75262999Y-20472948D01*
X75262999Y-24973075D02*
X89262999Y-24973075D01*
X75262999Y-20472948D02*
X75262999Y-24973075D01*
X76336150Y-21156971D02*
G75*
G03*
X76336150Y-21156971I-359156J0D01*
G01*
D16*
X75165971Y-25100075D02*
G75*
G03*
X75165971Y-25100075I-29972J0D01*
G01*
D15*
%TO.C,F2*%
X114340000Y-68100000D02*
X119340000Y-68100000D01*
X113940000Y-67800000D02*
X113940000Y-65800000D01*
X119740000Y-67800000D02*
X119740000Y-65800000D01*
X113940000Y-61200000D02*
X113940000Y-59200000D01*
X119740000Y-61200000D02*
X119740000Y-59200000D01*
X114340000Y-58900000D02*
X119340000Y-58900000D01*
X116839999Y-63500000D02*
G75*
G03*
X115315997Y-63500000I-762001J0D01*
G01*
X116839969Y-63499727D02*
G75*
G03*
X118364003Y-63245999I769034J84716D01*
G01*
D16*
X119369997Y-67200000D02*
G75*
G03*
X119369997Y-67200000I-29997J0D01*
G01*
D14*
%TO.C,R3*%
X116455000Y-48745276D02*
X116455000Y-49254724D01*
X115410000Y-48745276D02*
X115410000Y-49254724D01*
%TO.C,C31*%
X100352500Y-50298752D02*
X100352500Y-49776248D01*
X101822500Y-50298752D02*
X101822500Y-49776248D01*
%TO.C,C57*%
X101701248Y-43588500D02*
X102223752Y-43588500D01*
X101701248Y-45058500D02*
X102223752Y-45058500D01*
%TO.C,Q18*%
X96440000Y-33042973D02*
X96440000Y-34717973D01*
X96440000Y-33042973D02*
X96440000Y-32392973D01*
X99560000Y-33042973D02*
X99560000Y-33692973D01*
X99560000Y-33042973D02*
X99560000Y-32392973D01*
%TO.C,Q23*%
X25400000Y-107140000D02*
X23725000Y-107140000D01*
X25400000Y-107140000D02*
X26050000Y-107140000D01*
X25400000Y-110260000D02*
X24750000Y-110260000D01*
X25400000Y-110260000D02*
X26050000Y-110260000D01*
%TO.C,C53*%
X42945248Y-31015000D02*
X43467752Y-31015000D01*
X42945248Y-32485000D02*
X43467752Y-32485000D01*
%TO.C,D4*%
X107625000Y-55835000D02*
X109545000Y-55835000D01*
X109545000Y-55835000D02*
X109545000Y-52975000D01*
X107625000Y-52975000D02*
X107625000Y-55835000D01*
%TO.C,C32*%
X88665248Y-31941999D02*
X89187752Y-31941999D01*
X88665248Y-33411999D02*
X89187752Y-33411999D01*
%TO.C,Q20*%
X106440000Y-33042973D02*
X106440000Y-34717973D01*
X106440000Y-33042973D02*
X106440000Y-32392973D01*
X109560000Y-33042973D02*
X109560000Y-33692973D01*
X109560000Y-33042973D02*
X109560000Y-32392973D01*
%TO.C,C41*%
X73130248Y-31941999D02*
X73652752Y-31941999D01*
X73130248Y-33411999D02*
X73652752Y-33411999D01*
%TO.C,C40*%
X73130248Y-28932000D02*
X73652752Y-28932000D01*
X73130248Y-30402000D02*
X73652752Y-30402000D01*
%TO.C,C51*%
X116843233Y-29970000D02*
X117135767Y-29970000D01*
X116843233Y-30990000D02*
X117135767Y-30990000D01*
%TO.C,Q21*%
X25400000Y-103440000D02*
X23725000Y-103440000D01*
X25400000Y-103440000D02*
X26050000Y-103440000D01*
X25400000Y-106560000D02*
X24750000Y-106560000D01*
X25400000Y-106560000D02*
X26050000Y-106560000D01*
%TO.C,Q19*%
X101440000Y-33042973D02*
X101440000Y-34717973D01*
X101440000Y-33042973D02*
X101440000Y-32392973D01*
X104560000Y-33042973D02*
X104560000Y-33692973D01*
X104560000Y-33042973D02*
X104560000Y-32392973D01*
%TO.C,R1*%
X108062500Y-58674724D02*
X108062500Y-58165276D01*
X109107500Y-58674724D02*
X109107500Y-58165276D01*
%TO.C,C33*%
X88665248Y-34952000D02*
X89187752Y-34952000D01*
X88665248Y-36422000D02*
X89187752Y-36422000D01*
%TO.C,R2*%
X113505000Y-49254724D02*
X113505000Y-48745276D01*
X114550000Y-49254724D02*
X114550000Y-48745276D01*
D17*
%TO.C,U3*%
X89611210Y-52063913D02*
X79298790Y-52063913D01*
X89611210Y-55087713D02*
X89611210Y-52063913D01*
X79298790Y-55087713D02*
X79298790Y-52063913D01*
D16*
X89468157Y-46942958D02*
G75*
G03*
X89468157Y-46942958I-29972J0D01*
G01*
D15*
X87969859Y-47159925D02*
G75*
G03*
X87969859Y-47159925I-127000J0D01*
G01*
D14*
%TO.C,D6*%
X21430000Y-74615000D02*
X21430000Y-68515000D01*
X22530000Y-74615000D02*
X21430000Y-74615000D01*
X26830000Y-68515000D02*
X26830000Y-73515000D01*
%TO.C,R22*%
X24162500Y-64952224D02*
X24162500Y-64442776D01*
X25207500Y-64952224D02*
X25207500Y-64442776D01*
%TD*%
%LPC*%
D18*
%TO.C,R9*%
X49887500Y-27305000D03*
X51712500Y-27305000D03*
%TD*%
D19*
%TO.C,C37*%
X72354000Y-37973000D03*
X74429000Y-37973000D03*
%TD*%
D20*
%TO.C,M8*%
X107950000Y-27305000D03*
D21*
X107950000Y-24765000D03*
X107950000Y-22225000D03*
%TD*%
D22*
%TO.C,R5*%
X91440000Y-52982500D03*
X91440000Y-51157500D03*
%TD*%
D23*
%TO.C,C60*%
X95477500Y-36830000D03*
X93752500Y-36830000D03*
%TD*%
D24*
%TO.C,R27*%
X116889974Y-81195026D03*
X115064974Y-81195026D03*
%TD*%
D25*
%TO.C,JP2*%
X24130000Y-30450000D03*
D26*
X24130000Y-31750000D03*
D27*
X24130000Y-33050000D03*
%TD*%
D28*
%TO.C,U10*%
X112865000Y-32967973D03*
X112865000Y-34237973D03*
X112865000Y-35507973D03*
X112865000Y-36777973D03*
X112865000Y-38047973D03*
X112865000Y-39317973D03*
X112865000Y-40587973D03*
X112865000Y-41857973D03*
X117865000Y-41857973D03*
X117865000Y-40587973D03*
X117865000Y-39317973D03*
X117865000Y-38047973D03*
X117865000Y-36777973D03*
X117865000Y-35507973D03*
X117865000Y-34237973D03*
X117865000Y-32967973D03*
%TD*%
D29*
%TO.C,JP3*%
X27305000Y-33050000D03*
D26*
X27305000Y-31750000D03*
D30*
X27305000Y-30450000D03*
%TD*%
D31*
%TO.C,C30*%
X103505000Y-52937500D03*
X103505000Y-55012500D03*
%TD*%
D32*
%TO.C,C26*%
X70485000Y-34062500D03*
X70485000Y-35787500D03*
%TD*%
D33*
%TO.C,JP4*%
X98300000Y-43000000D03*
D34*
X97000000Y-43000000D03*
D35*
X95700000Y-43000000D03*
%TD*%
D36*
%TO.C,CN3*%
X46902999Y-22225000D03*
X48902999Y-22225000D03*
X50902999Y-22225000D03*
X52902999Y-22225000D03*
X54902999Y-22225000D03*
X56902999Y-22225000D03*
%TD*%
D24*
%TO.C,R25*%
X92227500Y-45155000D03*
X90402500Y-45155000D03*
%TD*%
D32*
%TO.C,C6*%
X88900000Y-47397500D03*
X88900000Y-49122500D03*
%TD*%
%TO.C,C7*%
X110473500Y-47042500D03*
X110473500Y-48767500D03*
%TD*%
D19*
%TO.C,C42*%
X72354000Y-35687000D03*
X74429000Y-35687000D03*
%TD*%
D18*
%TO.C,R29*%
X24217500Y-81229763D03*
X26042500Y-81229763D03*
%TD*%
D37*
%TO.C,U17*%
X36101000Y-32728973D03*
D38*
X34196000Y-35603973D03*
X35466000Y-35603973D03*
X36736000Y-35603973D03*
X38006000Y-35603973D03*
X38006000Y-29853973D03*
X36736000Y-29853973D03*
X35466000Y-29853973D03*
X34196000Y-29853973D03*
D39*
X34801000Y-33378973D03*
X36101000Y-33378973D03*
X37401000Y-33378973D03*
X34801000Y-32078973D03*
X36101000Y-32078973D03*
X37401000Y-32078973D03*
%TD*%
D24*
%TO.C,R17*%
X116482500Y-99433026D03*
X114657500Y-99433026D03*
%TD*%
D32*
%TO.C,C5*%
X79375000Y-47302500D03*
X79375000Y-49027500D03*
%TD*%
D40*
%TO.C,U18*%
X25433024Y-86130127D03*
X25433024Y-87130127D03*
X25432516Y-88130381D03*
X25432516Y-89130381D03*
D41*
X21556976Y-90430102D03*
X21557484Y-84829898D03*
%TD*%
D42*
%TO.C,U5*%
X96882500Y-50968538D03*
X96882500Y-46868462D03*
%TD*%
D32*
%TO.C,C50*%
X27940000Y-75972500D03*
X27940000Y-77697500D03*
%TD*%
D36*
%TO.C,CN4*%
X31655000Y-22172973D03*
X33655000Y-22172973D03*
X35655000Y-22172973D03*
X37655000Y-22172973D03*
X39655000Y-22172973D03*
X41655000Y-22172973D03*
%TD*%
D18*
%TO.C,R8*%
X65762500Y-26670000D03*
X67587500Y-26670000D03*
%TD*%
D43*
%TO.C,R6*%
X91440000Y-47347500D03*
X91440000Y-49172500D03*
%TD*%
D37*
%TO.C,U16*%
X51349000Y-32852973D03*
D38*
X49444000Y-35727973D03*
X50714000Y-35727973D03*
X51984000Y-35727973D03*
X53254000Y-35727973D03*
X53254000Y-29977973D03*
X51984000Y-29977973D03*
X50714000Y-29977973D03*
X49444000Y-29977973D03*
D39*
X50049000Y-33502973D03*
X51349000Y-33502973D03*
X52649000Y-33502973D03*
X50049000Y-32202973D03*
X51349000Y-32202973D03*
X52649000Y-32202973D03*
%TD*%
D19*
%TO.C,C11*%
X87889000Y-29667000D03*
X89964000Y-29667000D03*
%TD*%
D23*
%TO.C,C29*%
X113892500Y-30480000D03*
X112167500Y-30480000D03*
%TD*%
D32*
%TO.C,C28*%
X40005000Y-34062500D03*
X40005000Y-35787500D03*
%TD*%
D19*
%TO.C,C36*%
X87889000Y-37973000D03*
X89964000Y-37973000D03*
%TD*%
D37*
%TO.C,U13*%
X81709000Y-32728973D03*
D38*
X79804000Y-35603973D03*
X81074000Y-35603973D03*
X82344000Y-35603973D03*
X83614000Y-35603973D03*
X83614000Y-29853973D03*
X82344000Y-29853973D03*
X81074000Y-29853973D03*
X79804000Y-29853973D03*
D39*
X80409000Y-33378973D03*
X81709000Y-33378973D03*
X83009000Y-33378973D03*
X80409000Y-32078973D03*
X81709000Y-32078973D03*
X83009000Y-32078973D03*
%TD*%
D44*
%TO.C,H2*%
X25000000Y-115000000D03*
%TD*%
D45*
%TO.C,C4*%
X42090000Y-27305000D03*
X43815000Y-27305000D03*
%TD*%
D22*
%TO.C,R23*%
X27305000Y-65747500D03*
X27305000Y-63922500D03*
%TD*%
D46*
%TO.C,C14*%
X103087500Y-50900000D03*
X103087500Y-49175000D03*
%TD*%
D47*
%TO.C,Q25*%
X24462500Y-96825000D03*
X24462500Y-98725000D03*
X26337500Y-97775000D03*
%TD*%
D48*
%TO.C,U4*%
X106022402Y-49087538D03*
X106022402Y-50037500D03*
X106022402Y-50987462D03*
X108320598Y-50987462D03*
X108320598Y-50037500D03*
X108320598Y-49087538D03*
%TD*%
D45*
%TO.C,C3*%
X57330000Y-27305000D03*
X59055000Y-27305000D03*
%TD*%
D49*
%TO.C,D1*%
X117230000Y-118110000D03*
X115180000Y-118110000D03*
%TD*%
D20*
%TO.C,M6*%
X98000000Y-27305000D03*
D21*
X98000000Y-24765000D03*
X98000000Y-22225000D03*
%TD*%
D18*
%TO.C,R7*%
X80367500Y-27305000D03*
X82192500Y-27305000D03*
%TD*%
D31*
%TO.C,C59*%
X118110000Y-47857500D03*
X118110000Y-49932500D03*
%TD*%
D50*
%TO.C,Q17*%
X92050000Y-33980473D03*
X93950000Y-33980473D03*
X93000000Y-32105473D03*
%TD*%
D19*
%TO.C,C39*%
X42169000Y-36830000D03*
X44244000Y-36830000D03*
%TD*%
D32*
%TO.C,C25*%
X85725000Y-34062500D03*
X85725000Y-35787500D03*
%TD*%
D20*
%TO.C,M5*%
X93000000Y-27305000D03*
D21*
X93000000Y-24765000D03*
X93000000Y-22225000D03*
%TD*%
D49*
%TO.C,D7*%
X117002474Y-84497026D03*
X114952474Y-84497026D03*
%TD*%
%TO.C,D3*%
X116595000Y-102735026D03*
X114545000Y-102735026D03*
%TD*%
D45*
%TO.C,C2*%
X72275000Y-27305000D03*
X74000000Y-27305000D03*
%TD*%
D36*
%TO.C,CN2*%
X61942999Y-22188973D03*
X63942999Y-22188973D03*
X65942999Y-22188973D03*
X67942999Y-22188973D03*
X69942999Y-22188973D03*
X71942999Y-22188973D03*
%TD*%
D19*
%TO.C,C54*%
X42169000Y-34290000D03*
X44244000Y-34290000D03*
%TD*%
D37*
%TO.C,U15*%
X66389000Y-32744973D03*
D38*
X64484000Y-35619973D03*
X65754000Y-35619973D03*
X67024000Y-35619973D03*
X68294000Y-35619973D03*
X68294000Y-29869973D03*
X67024000Y-29869973D03*
X65754000Y-29869973D03*
X64484000Y-29869973D03*
D39*
X65089000Y-33394973D03*
X66389000Y-33394973D03*
X67689000Y-33394973D03*
X65089000Y-32094973D03*
X66389000Y-32094973D03*
X67689000Y-32094973D03*
%TD*%
D51*
%TO.C,U1*%
X22275000Y-53725000D03*
D52*
X25305000Y-53425000D03*
X25305000Y-48575000D03*
D51*
X22275000Y-48275000D03*
D53*
X22145000Y-60790000D03*
X24685000Y-60790000D03*
X27225000Y-60790000D03*
X29765000Y-60790000D03*
X32305000Y-60790000D03*
X34845000Y-60790000D03*
X37385000Y-60790000D03*
X39925000Y-60790000D03*
X42465000Y-60790000D03*
X45005000Y-60790000D03*
X47545000Y-60790000D03*
X50085000Y-60790000D03*
X52625000Y-60790000D03*
X55165000Y-60790000D03*
X57705000Y-60790000D03*
X60245000Y-60790000D03*
X62785000Y-60790000D03*
X65325000Y-60790000D03*
X67865000Y-60790000D03*
X70405000Y-60790000D03*
X70405000Y-41210000D03*
X67865000Y-41210000D03*
X65325000Y-41210000D03*
X62785000Y-41210000D03*
X60245000Y-41210000D03*
X57705000Y-41210000D03*
X55165000Y-41210000D03*
X52625000Y-41210000D03*
X50085000Y-41210000D03*
X47545000Y-41210000D03*
X45005000Y-41210000D03*
X42465000Y-41210000D03*
X39925000Y-41210000D03*
X37385000Y-41210000D03*
X34845000Y-41210000D03*
X32305000Y-41210000D03*
X29765000Y-41210000D03*
X27225000Y-41210000D03*
X24685000Y-41210000D03*
X22145000Y-41210000D03*
%TD*%
D31*
%TO.C,C13*%
X106045000Y-52937500D03*
X106045000Y-55012500D03*
%TD*%
D19*
%TO.C,C47*%
X57409000Y-35687000D03*
X59484000Y-35687000D03*
%TD*%
D24*
%TO.C,R20*%
X117117500Y-115570000D03*
X115292500Y-115570000D03*
%TD*%
D18*
%TO.C,R10*%
X34647500Y-27305000D03*
X36472500Y-27305000D03*
%TD*%
D19*
%TO.C,C38*%
X57409000Y-37973000D03*
X59484000Y-37973000D03*
%TD*%
%TO.C,C45*%
X57409000Y-29667000D03*
X59484000Y-29667000D03*
%TD*%
%TO.C,C46*%
X57409000Y-32676999D03*
X59484000Y-32676999D03*
%TD*%
D22*
%TO.C,R4*%
X112122500Y-49576500D03*
X112122500Y-47751500D03*
%TD*%
D18*
%TO.C,R26*%
X86827500Y-45155000D03*
X88652500Y-45155000D03*
%TD*%
%TO.C,R30*%
X24217500Y-83229763D03*
X26042500Y-83229763D03*
%TD*%
D22*
%TO.C,R21*%
X22145000Y-65610000D03*
X22145000Y-63785000D03*
%TD*%
D19*
%TO.C,C58*%
X100925000Y-46863500D03*
X103000000Y-46863500D03*
%TD*%
D45*
%TO.C,C1*%
X87810000Y-27305000D03*
X89535000Y-27305000D03*
%TD*%
D47*
%TO.C,Q24*%
X24462500Y-93275000D03*
X24462500Y-95175000D03*
X26337500Y-94225000D03*
%TD*%
D44*
%TO.C,H1*%
X115000000Y-25000000D03*
%TD*%
D20*
%TO.C,M7*%
X103000000Y-27305000D03*
D21*
X103000000Y-24765000D03*
X103000000Y-22225000D03*
%TD*%
D54*
%TO.C,U7*%
X95249995Y-55244995D03*
X97790000Y-55244995D03*
X100330005Y-55244995D03*
X95249995Y-60325005D03*
X97790000Y-60325005D03*
X100330005Y-60325005D03*
%TD*%
D19*
%TO.C,C15*%
X90402500Y-43180000D03*
X92477500Y-43180000D03*
%TD*%
D55*
%TO.C,D5*%
X24700000Y-36860000D03*
X29700000Y-36860000D03*
%TD*%
D54*
%TO.C,U6*%
X38499860Y-65589987D03*
D56*
X33350000Y-72940000D03*
X115649974Y-72940000D03*
X33350000Y-91440127D03*
X115649974Y-91440127D03*
X33350000Y-109940000D03*
X115649974Y-109940000D03*
%TD*%
D57*
%TO.C,U12*%
X26117500Y-78942263D03*
X26117500Y-78442263D03*
X26117500Y-77942263D03*
X26117500Y-77442263D03*
D58*
X25455000Y-77279763D03*
X24955000Y-77279763D03*
X24455000Y-77279763D03*
D57*
X23792500Y-77442263D03*
X23792500Y-77942263D03*
X23792500Y-78442263D03*
X23792500Y-78942263D03*
D58*
X24455000Y-79104763D03*
X24955000Y-79104763D03*
X25455000Y-79104763D03*
%TD*%
D33*
%TO.C,JP1*%
X83300000Y-43815000D03*
D34*
X82000000Y-43815000D03*
D35*
X80700000Y-43815000D03*
%TD*%
D23*
%TO.C,C61*%
X115162500Y-45085000D03*
X113437500Y-45085000D03*
%TD*%
D19*
%TO.C,C8*%
X101832500Y-41910000D03*
X103907500Y-41910000D03*
%TD*%
D32*
%TO.C,C27*%
X55245000Y-34062500D03*
X55245000Y-35787500D03*
%TD*%
D47*
%TO.C,Q22*%
X24462500Y-100450000D03*
X24462500Y-102350000D03*
X26337500Y-101400000D03*
%TD*%
D19*
%TO.C,C52*%
X42169000Y-29667000D03*
X44244000Y-29667000D03*
%TD*%
D46*
%TO.C,C16*%
X22225000Y-77697500D03*
X22225000Y-75972500D03*
%TD*%
D36*
%TO.C,CN1*%
X77262999Y-22172973D03*
X79262999Y-22172973D03*
X81262999Y-22172973D03*
X83262999Y-22172973D03*
X85262999Y-22172973D03*
X87262999Y-22172973D03*
%TD*%
D59*
%TO.C,F2*%
X116840000Y-66800000D03*
X116840000Y-60200051D03*
%TD*%
D43*
%TO.C,R3*%
X115932500Y-48087500D03*
X115932500Y-49912500D03*
%TD*%
D60*
%TO.C,C31*%
X101087500Y-51075000D03*
X101087500Y-49000000D03*
%TD*%
D19*
%TO.C,C57*%
X100925000Y-44323500D03*
X103000000Y-44323500D03*
%TD*%
D50*
%TO.C,Q18*%
X97050000Y-33980473D03*
X98950000Y-33980473D03*
X98000000Y-32105473D03*
%TD*%
D47*
%TO.C,Q23*%
X24462500Y-107750000D03*
X24462500Y-109650000D03*
X26337500Y-108700000D03*
%TD*%
D44*
%TO.C,H4*%
X25000000Y-25000000D03*
%TD*%
D19*
%TO.C,C53*%
X42169000Y-31750000D03*
X44244000Y-31750000D03*
%TD*%
D61*
%TO.C,D4*%
X108585000Y-55000000D03*
X108585000Y-52950000D03*
%TD*%
D19*
%TO.C,C32*%
X87889000Y-32676999D03*
X89964000Y-32676999D03*
%TD*%
D50*
%TO.C,Q20*%
X107050000Y-33980473D03*
X108950000Y-33980473D03*
X108000000Y-32105473D03*
%TD*%
D44*
%TO.C,H3*%
X115000000Y-55000000D03*
%TD*%
D19*
%TO.C,C41*%
X72354000Y-32676999D03*
X74429000Y-32676999D03*
%TD*%
%TO.C,C40*%
X72354000Y-29667000D03*
X74429000Y-29667000D03*
%TD*%
D45*
%TO.C,C51*%
X116127000Y-30480000D03*
X117852000Y-30480000D03*
%TD*%
D47*
%TO.C,Q21*%
X24462500Y-104050000D03*
X24462500Y-105950000D03*
X26337500Y-105000000D03*
%TD*%
D50*
%TO.C,Q19*%
X102050000Y-33980473D03*
X103950000Y-33980473D03*
X103000000Y-32105473D03*
%TD*%
D22*
%TO.C,R1*%
X108585000Y-59332500D03*
X108585000Y-57507500D03*
%TD*%
D19*
%TO.C,C33*%
X87889000Y-35687000D03*
X89964000Y-35687000D03*
%TD*%
D22*
%TO.C,R2*%
X114027500Y-49912500D03*
X114027500Y-48087500D03*
%TD*%
D62*
%TO.C,U3*%
X86995005Y-48258731D03*
X81914995Y-48258731D03*
D63*
X84455000Y-58830487D03*
%TD*%
D64*
%TO.C,D6*%
X22430000Y-73415000D03*
X24130000Y-73415000D03*
X25830000Y-73415000D03*
X25830000Y-68615000D03*
X24130000Y-68615000D03*
X22430000Y-68615000D03*
%TD*%
D22*
%TO.C,R22*%
X24685000Y-65610000D03*
X24685000Y-63785000D03*
%TD*%
%LPD*%
M02*
