%TF.GenerationSoftware,KiCad,Pcbnew,7.0.2-0*%
%TF.CreationDate,2024-06-06T04:37:27-07:00*%
%TF.ProjectId,version_1,76657273-696f-46e5-9f31-2e6b69636164,rev?*%
%TF.SameCoordinates,Original*%
%TF.FileFunction,Copper,L3,Inr*%
%TF.FilePolarity,Positive*%
%FSLAX46Y46*%
G04 Gerber Fmt 4.6, Leading zero omitted, Abs format (unit mm)*
G04 Created by KiCad (PCBNEW 7.0.2-0) date 2024-06-06 04:37:27*
%MOMM*%
%LPD*%
G01*
G04 APERTURE LIST*
%TA.AperFunction,ComponentPad*%
%ADD10R,1.700000X1.700000*%
%TD*%
%TA.AperFunction,ComponentPad*%
%ADD11O,1.700000X1.700000*%
%TD*%
%TA.AperFunction,ComponentPad*%
%ADD12C,1.600000*%
%TD*%
%TA.AperFunction,ComponentPad*%
%ADD13C,0.630000*%
%TD*%
%TA.AperFunction,ComponentPad*%
%ADD14C,1.800000*%
%TD*%
%TA.AperFunction,ViaPad*%
%ADD15C,0.500000*%
%TD*%
%TA.AperFunction,ViaPad*%
%ADD16C,0.800000*%
%TD*%
%TA.AperFunction,ViaPad*%
%ADD17C,0.600000*%
%TD*%
G04 APERTURE END LIST*
D10*
%TO.N,/Servo/PWM*%
%TO.C,M8*%
X107950000Y-27305000D03*
D11*
%TO.N,Net-(M8-+)*%
X107950000Y-24765000D03*
%TO.N,GND*%
X107950000Y-22225000D03*
%TD*%
D12*
%TO.N,Net-(U16-OUT2)*%
%TO.C,CN3*%
X46902999Y-22225000D03*
%TO.N,ENC_PWR_G*%
X48902999Y-22225000D03*
%TO.N,/ENCODER5*%
X50902999Y-22225000D03*
%TO.N,/ENCODER6*%
X52902999Y-22225000D03*
%TO.N,ENC_PWR_P*%
X54902999Y-22225000D03*
%TO.N,Net-(U16-OUT1)*%
X56902999Y-22225000D03*
%TD*%
D13*
%TO.N,GND*%
%TO.C,U17*%
X34801000Y-33378973D03*
X36101000Y-33378973D03*
X37401000Y-33378973D03*
X34801000Y-32078973D03*
X36101000Y-32078973D03*
X37401000Y-32078973D03*
%TD*%
D12*
%TO.N,Net-(U17-OUT2)*%
%TO.C,CN4*%
X31655000Y-22172973D03*
%TO.N,ENC_PWR_G*%
X33655000Y-22172973D03*
%TO.N,/ENCODER7*%
X35655000Y-22172973D03*
%TO.N,/ENCODER8*%
X37655000Y-22172973D03*
%TO.N,ENC_PWR_P*%
X39655000Y-22172973D03*
%TO.N,Net-(U17-OUT1)*%
X41655000Y-22172973D03*
%TD*%
D13*
%TO.N,GND*%
%TO.C,U16*%
X50049000Y-33502973D03*
X51349000Y-33502973D03*
X52649000Y-33502973D03*
X50049000Y-32202973D03*
X51349000Y-32202973D03*
X52649000Y-32202973D03*
%TD*%
%TO.N,GND*%
%TO.C,U13*%
X80409000Y-33378973D03*
X81709000Y-33378973D03*
X83009000Y-33378973D03*
X80409000Y-32078973D03*
X81709000Y-32078973D03*
X83009000Y-32078973D03*
%TD*%
D10*
%TO.N,/Untitled Sheet4/PWM*%
%TO.C,M6*%
X98000000Y-27305000D03*
D11*
%TO.N,Net-(M6-+)*%
X98000000Y-24765000D03*
%TO.N,GND*%
X98000000Y-22225000D03*
%TD*%
D10*
%TO.N,/Untitled Sheet7/PWM*%
%TO.C,M5*%
X93000000Y-27305000D03*
D11*
%TO.N,Net-(M5-+)*%
X93000000Y-24765000D03*
%TO.N,GND*%
X93000000Y-22225000D03*
%TD*%
D12*
%TO.N,Net-(U15-OUT2)*%
%TO.C,CN2*%
X61942999Y-22188973D03*
%TO.N,ENC_PWR_G*%
X63942999Y-22188973D03*
%TO.N,/ENCODER3*%
X65942999Y-22188973D03*
%TO.N,/ENCODER4*%
X67942999Y-22188973D03*
%TO.N,ENC_PWR_P*%
X69942999Y-22188973D03*
%TO.N,Net-(U15-OUT1)*%
X71942999Y-22188973D03*
%TD*%
D13*
%TO.N,GND*%
%TO.C,U15*%
X65089000Y-33394973D03*
X66389000Y-33394973D03*
X67689000Y-33394973D03*
X65089000Y-32094973D03*
X66389000Y-32094973D03*
X67689000Y-32094973D03*
%TD*%
D10*
%TO.N,/Servo2/PWM*%
%TO.C,M7*%
X103000000Y-27305000D03*
D11*
%TO.N,Net-(M7-+)*%
X103000000Y-24765000D03*
%TO.N,GND*%
X103000000Y-22225000D03*
%TD*%
D14*
%TO.N,VCC*%
%TO.C,U7*%
X95249995Y-55244995D03*
%TO.N,Net-(F2-Pad2)*%
X97790000Y-55244995D03*
%TO.N,unconnected-(U7-Pad3)*%
X100330005Y-55244995D03*
%TO.N,VCC*%
X95249995Y-60325005D03*
%TO.N,Net-(F2-Pad2)*%
X97790000Y-60325005D03*
%TO.N,unconnected-(U7-Pad6)*%
X100330005Y-60325005D03*
%TD*%
D12*
%TO.N,Net-(U13-OUT2)*%
%TO.C,CN1*%
X77262999Y-22172973D03*
%TO.N,ENC_PWR_G*%
X79262999Y-22172973D03*
%TO.N,/ENCODER1*%
X81262999Y-22172973D03*
%TO.N,/ENCODER2*%
X83262999Y-22172973D03*
%TO.N,ENC_PWR_P*%
X85262999Y-22172973D03*
%TO.N,Net-(U13-OUT1)*%
X87262999Y-22172973D03*
%TD*%
D15*
%TO.N,VCC*%
X92075000Y-39370000D03*
D16*
X70797546Y-26347546D03*
X40005000Y-26670000D03*
D15*
X93980000Y-42545000D03*
D16*
X85939174Y-26249174D03*
X55269290Y-27031512D03*
%TO.N,GND*%
X60325000Y-34290000D03*
X52705000Y-71755000D03*
X82550000Y-61637973D03*
X80645000Y-58325000D03*
X75565000Y-72390000D03*
D15*
X106680000Y-60325000D03*
D16*
X85725000Y-105410000D03*
X50800000Y-71755000D03*
X84455000Y-60367973D03*
D15*
X52966011Y-27198900D03*
D16*
X97790000Y-117475000D03*
D15*
X118745000Y-51435000D03*
D16*
X88265000Y-61637973D03*
X85725000Y-103505000D03*
X97155000Y-86995000D03*
X88265000Y-56515000D03*
X45720000Y-71755000D03*
X97155000Y-68580000D03*
X89535000Y-117475000D03*
D15*
X38100000Y-38735000D03*
D16*
X74295000Y-82550000D03*
X68580000Y-38100000D03*
X74295000Y-97790000D03*
X84455000Y-56515000D03*
X100330000Y-117475000D03*
X37465000Y-117475000D03*
X61595000Y-100330000D03*
D15*
X112395000Y-45085000D03*
D16*
X45482500Y-31115000D03*
X21927500Y-93345000D03*
X85725000Y-85090000D03*
X28575000Y-21590000D03*
X80645000Y-117475000D03*
X21292500Y-109220000D03*
X86360000Y-58462973D03*
X97155000Y-80010000D03*
X40005000Y-117475000D03*
X61595000Y-104775000D03*
X95885000Y-117475000D03*
X96520000Y-100965000D03*
X34925000Y-117475000D03*
X115297500Y-47498500D03*
X74295000Y-85090000D03*
D15*
X66675000Y-27940000D03*
D16*
X97155000Y-75565000D03*
X48260000Y-117475000D03*
X21292500Y-95250000D03*
X62230000Y-85090000D03*
X86360000Y-60367973D03*
X45085000Y-35560000D03*
X74295000Y-102870000D03*
X21927500Y-107200237D03*
X21590000Y-33020000D03*
X85725000Y-100965000D03*
D15*
X24130000Y-85725000D03*
D16*
X40005000Y-50165000D03*
X40005000Y-52705000D03*
X42545000Y-56515000D03*
X64135000Y-117475000D03*
X82550000Y-60367973D03*
X21292500Y-97155000D03*
X29845000Y-33020000D03*
X22562500Y-94500237D03*
X88265000Y-58462973D03*
X27305000Y-43815000D03*
X86995000Y-117475000D03*
X88265000Y-60367973D03*
X40005000Y-54610000D03*
X61595000Y-97790000D03*
X26670000Y-57785000D03*
X22562500Y-97675237D03*
X80645000Y-59595000D03*
X84455000Y-58462973D03*
X21292500Y-102870000D03*
X24765000Y-71185000D03*
X85725000Y-86995000D03*
X21292500Y-99060000D03*
X45085000Y-27940000D03*
X112395000Y-59055000D03*
D15*
X93345000Y-35560000D03*
D16*
X80645000Y-56420000D03*
D15*
X118745000Y-29210000D03*
D16*
X97155000Y-85090000D03*
X22362500Y-98700000D03*
X96520000Y-98425000D03*
X85725000Y-98425000D03*
X60325000Y-31115000D03*
X85725000Y-82550000D03*
X107950000Y-43815000D03*
X73660000Y-117475000D03*
X105137500Y-45593500D03*
D15*
X36830000Y-26035000D03*
D16*
X21590000Y-81915000D03*
X21292500Y-111125000D03*
X92075000Y-117475000D03*
X22562500Y-103390237D03*
D15*
X33020000Y-32385000D03*
D16*
X66675000Y-117475000D03*
D15*
X83185000Y-27305000D03*
D16*
X61595000Y-102870000D03*
X50800000Y-117475000D03*
X55880000Y-37465000D03*
X62230000Y-80010000D03*
X66675000Y-64135000D03*
D15*
X40005000Y-37465000D03*
D17*
X24755000Y-78204763D03*
D16*
X48989500Y-38100000D03*
X40005000Y-47625000D03*
X115873000Y-36904973D03*
X84455000Y-61637973D03*
X74295000Y-80010000D03*
X22362500Y-101700000D03*
X85725000Y-51435000D03*
X74915500Y-28321000D03*
X22225000Y-28575000D03*
X102870000Y-117475000D03*
X62230000Y-86995000D03*
X75565000Y-67310000D03*
X75565000Y-34290000D03*
X85725000Y-80010000D03*
X96520000Y-105410000D03*
D15*
X90929252Y-37151626D03*
D16*
X45085000Y-38100000D03*
X75565000Y-36830000D03*
X83820000Y-38100000D03*
X22562500Y-111010237D03*
X78105000Y-117475000D03*
X75565000Y-69850000D03*
X22860000Y-71185000D03*
X48260000Y-71755000D03*
X86360000Y-61637973D03*
X21292500Y-105410000D03*
X80645000Y-61500000D03*
X79349500Y-36670819D03*
X82550000Y-58462973D03*
D15*
X29210000Y-29845000D03*
D16*
X59690000Y-117475000D03*
X75565000Y-31115000D03*
D15*
X105410000Y-41910000D03*
D16*
X85090000Y-117475000D03*
X45482500Y-33655000D03*
X53340000Y-117475000D03*
X74295000Y-86995000D03*
D15*
X22225000Y-30480000D03*
D16*
X97155000Y-82550000D03*
X24042316Y-57758725D03*
X21292500Y-100330000D03*
X97155000Y-73660000D03*
X75565000Y-74295000D03*
X62230000Y-82550000D03*
X22362500Y-95700000D03*
X61595000Y-117475000D03*
D15*
X90805000Y-31115000D03*
D16*
X21590000Y-36195000D03*
X74295000Y-100330000D03*
X70485000Y-27940000D03*
X22362500Y-105700000D03*
X64029500Y-36686819D03*
X74295000Y-104775000D03*
X75565000Y-117475000D03*
X21292500Y-107950000D03*
D15*
X90704500Y-34163000D03*
D16*
X53975000Y-64135000D03*
X46355000Y-117475000D03*
X86360000Y-56515000D03*
D15*
X91440000Y-38100000D03*
D16*
X27940000Y-85090000D03*
X75565000Y-38100000D03*
X26670000Y-71185000D03*
D15*
X110490000Y-40005000D03*
D16*
X22362500Y-109700000D03*
X33020000Y-117475000D03*
X97155000Y-71120000D03*
X105772500Y-47663000D03*
X96520000Y-103505000D03*
D15*
X112395000Y-29210000D03*
D16*
X82550000Y-56515000D03*
%TO.N,+5V*%
X110490000Y-32332973D03*
X96520000Y-36275500D03*
X116381000Y-31824973D03*
D15*
X85725000Y-31750000D03*
X70485000Y-31115000D03*
X97155000Y-41275000D03*
X40005000Y-32385000D03*
D16*
X99695000Y-35507973D03*
X117475000Y-43762973D03*
D15*
X55245000Y-32385000D03*
D16*
X105410000Y-33602973D03*
D15*
%TO.N,+3.3V*%
X26035000Y-34290000D03*
D16*
X28575000Y-63565000D03*
D15*
X32222573Y-39058849D03*
D16*
X29210000Y-58000000D03*
%TO.N,/ENCODER2*%
X73660000Y-45720000D03*
X77672388Y-30480000D03*
X75565000Y-40640000D03*
D15*
X78105000Y-27940000D03*
D16*
%TO.N,/ENCODER1*%
X76613041Y-29297545D03*
D15*
X77470000Y-27305000D03*
D16*
X73660000Y-44450000D03*
X74295000Y-40640000D03*
D15*
%TO.N,/ENCODER4*%
X62230000Y-63500000D03*
X62230000Y-37465000D03*
D16*
X63356502Y-27576413D03*
D15*
X53975000Y-45720000D03*
D16*
X62303000Y-29312973D03*
D15*
X55245000Y-57150000D03*
%TO.N,/ENCODER3*%
X53340000Y-45085000D03*
D16*
X62303000Y-27576413D03*
D15*
X60325000Y-63500000D03*
X53975000Y-57150000D03*
X60960000Y-37465000D03*
D16*
X60862209Y-28549686D03*
%TO.N,/ENCODER6*%
X48386408Y-27499802D03*
D15*
X48895000Y-45085000D03*
D16*
X47263000Y-29420973D03*
D15*
X47625000Y-38735000D03*
%TO.N,/ENCODER5*%
X46990000Y-45085000D03*
X46355000Y-38735000D03*
D16*
X47487458Y-26950473D03*
X46263000Y-28420973D03*
D15*
%TO.N,/ENCODER8*%
X44450000Y-45085000D03*
D16*
X32015000Y-29296973D03*
D15*
X32385000Y-34925000D03*
D16*
X33015000Y-27296973D03*
D15*
%TO.N,/ENCODER7*%
X31115000Y-34290000D03*
D16*
X32015000Y-26296973D03*
D15*
X43180000Y-45720000D03*
D16*
X31015000Y-28296973D03*
D15*
%TO.N,/PWM_CS*%
X45085000Y-64770000D03*
X41842500Y-64770000D03*
%TO.N,Net-(U1-GPIO28_ADC2)*%
X80010000Y-51000000D03*
X56515000Y-56515000D03*
D17*
%TO.N,Net-(U1-GPIO4)*%
X28246500Y-64835000D03*
X34825000Y-65060000D03*
D16*
%TO.N,/SCL*%
X27940000Y-83185000D03*
X31115000Y-82000000D03*
%TO.N,Net-(U4-SW)*%
X107042500Y-46863500D03*
X104502500Y-50038500D03*
X99422500Y-50038500D03*
%TO.N,ENC_PWR_G*%
X29273000Y-24966973D03*
%TO.N,ENC_PWR_P*%
X52060000Y-25135473D03*
X29527000Y-27506973D03*
X67110000Y-25021973D03*
X36575000Y-24966971D03*
X82415270Y-25338672D03*
D15*
%TO.N,1S*%
X36830000Y-80010000D03*
X40005000Y-76835000D03*
%TO.N,Net-(D5-A)*%
X33655000Y-38100000D03*
X37595454Y-43684546D03*
X78236160Y-51566160D03*
X56455682Y-57844318D03*
D17*
%TO.N,Net-(Q21-G)*%
X26362500Y-103620000D03*
X26362500Y-106160000D03*
X26362500Y-100445000D03*
D16*
X37087552Y-81562449D03*
X41910000Y-77615500D03*
D17*
X26362500Y-96635000D03*
X26362500Y-95024500D03*
X26362500Y-93425500D03*
X26362500Y-102350000D03*
X26362500Y-99175000D03*
%TD*%
%TA.AperFunction,Conductor*%
%TO.N,GND*%
G36*
X119015723Y-20020502D02*
G01*
X119036697Y-20037405D01*
X119962594Y-20963302D01*
X119996620Y-21025614D01*
X119999499Y-21052397D01*
X119999499Y-118947602D01*
X119979497Y-119015723D01*
X119962598Y-119036692D01*
X119036695Y-119962596D01*
X118974385Y-119996620D01*
X118947602Y-119999500D01*
X21052397Y-119999500D01*
X20984276Y-119979498D01*
X20963306Y-119962599D01*
X20037402Y-119036694D01*
X20003379Y-118974385D01*
X20000500Y-118947602D01*
X20000500Y-115067766D01*
X23145787Y-115067766D01*
X23175413Y-115337015D01*
X23175414Y-115337018D01*
X23243928Y-115599088D01*
X23349870Y-115848390D01*
X23490982Y-116079610D01*
X23664255Y-116287820D01*
X23664256Y-116287821D01*
X23664258Y-116287823D01*
X23865993Y-116468578D01*
X23865995Y-116468579D01*
X23865998Y-116468582D01*
X24091910Y-116618044D01*
X24224104Y-116680014D01*
X24337171Y-116733018D01*
X24337173Y-116733018D01*
X24337176Y-116733020D01*
X24596569Y-116811060D01*
X24596572Y-116811060D01*
X24596574Y-116811061D01*
X24864558Y-116850500D01*
X24864561Y-116850500D01*
X25065330Y-116850500D01*
X25067631Y-116850500D01*
X25270156Y-116835677D01*
X25534553Y-116776780D01*
X25787558Y-116680014D01*
X26023777Y-116547441D01*
X26238177Y-116381888D01*
X26426186Y-116186881D01*
X26583799Y-115966579D01*
X26707656Y-115725675D01*
X26795118Y-115469305D01*
X26844319Y-115202933D01*
X26854212Y-114932235D01*
X26824586Y-114662982D01*
X26756072Y-114400912D01*
X26650130Y-114151610D01*
X26509018Y-113920390D01*
X26335745Y-113712180D01*
X26230759Y-113618112D01*
X26134006Y-113531421D01*
X26134003Y-113531419D01*
X26134002Y-113531418D01*
X25908090Y-113381956D01*
X25908086Y-113381954D01*
X25662828Y-113266981D01*
X25403425Y-113188938D01*
X25135442Y-113149500D01*
X25135439Y-113149500D01*
X24932369Y-113149500D01*
X24930099Y-113149666D01*
X24930075Y-113149667D01*
X24729839Y-113164323D01*
X24465449Y-113223219D01*
X24212441Y-113319985D01*
X23976225Y-113452557D01*
X23761820Y-113618114D01*
X23573815Y-113813117D01*
X23416200Y-114033422D01*
X23292342Y-114274328D01*
X23204882Y-114530693D01*
X23155681Y-114797065D01*
X23145787Y-115067766D01*
X20000500Y-115067766D01*
X20000500Y-106160000D01*
X25751977Y-106160000D01*
X25772779Y-106318014D01*
X25833772Y-106465263D01*
X25930794Y-106591705D01*
X26057236Y-106688727D01*
X26057237Y-106688727D01*
X26057238Y-106688728D01*
X26204485Y-106749720D01*
X26362500Y-106770523D01*
X26520515Y-106749720D01*
X26667762Y-106688728D01*
X26794205Y-106591705D01*
X26891228Y-106465262D01*
X26952220Y-106318015D01*
X26973023Y-106160000D01*
X26952220Y-106001985D01*
X26891228Y-105854739D01*
X26794205Y-105728295D01*
X26794203Y-105728293D01*
X26794202Y-105728292D01*
X26667763Y-105631272D01*
X26520514Y-105570279D01*
X26383302Y-105552215D01*
X26362500Y-105549477D01*
X26362499Y-105549477D01*
X26204485Y-105570279D01*
X26057239Y-105631271D01*
X25930795Y-105728295D01*
X25833771Y-105854739D01*
X25772779Y-106001985D01*
X25751977Y-106160000D01*
X20000500Y-106160000D01*
X20000500Y-103620000D01*
X25751977Y-103620000D01*
X25772779Y-103778014D01*
X25833772Y-103925263D01*
X25930794Y-104051705D01*
X26057236Y-104148727D01*
X26057237Y-104148727D01*
X26057238Y-104148728D01*
X26204485Y-104209720D01*
X26362500Y-104230523D01*
X26520515Y-104209720D01*
X26667762Y-104148728D01*
X26794205Y-104051705D01*
X26891228Y-103925262D01*
X26952220Y-103778015D01*
X26973023Y-103620000D01*
X26952220Y-103461985D01*
X26891228Y-103314739D01*
X26794205Y-103188295D01*
X26667762Y-103091272D01*
X26659539Y-103084962D01*
X26617672Y-103027624D01*
X26613450Y-102956754D01*
X26648214Y-102894851D01*
X26659539Y-102885038D01*
X26688865Y-102862535D01*
X26794205Y-102781705D01*
X26891228Y-102655262D01*
X26952220Y-102508015D01*
X26973023Y-102350000D01*
X26952220Y-102191985D01*
X26891228Y-102044739D01*
X26794205Y-101918295D01*
X26794203Y-101918293D01*
X26794202Y-101918292D01*
X26667763Y-101821272D01*
X26520514Y-101760279D01*
X26362500Y-101739477D01*
X26204485Y-101760279D01*
X26057239Y-101821271D01*
X25930795Y-101918295D01*
X25833771Y-102044739D01*
X25772779Y-102191985D01*
X25751977Y-102349999D01*
X25772779Y-102508014D01*
X25833772Y-102655263D01*
X25930794Y-102781705D01*
X26065460Y-102885038D01*
X26107327Y-102942376D01*
X26111549Y-103013247D01*
X26076785Y-103075150D01*
X26065460Y-103084962D01*
X25930797Y-103188292D01*
X25833771Y-103314739D01*
X25772779Y-103461985D01*
X25751977Y-103620000D01*
X20000500Y-103620000D01*
X20000500Y-100445000D01*
X25751977Y-100445000D01*
X25772779Y-100603014D01*
X25833772Y-100750263D01*
X25930794Y-100876705D01*
X26057236Y-100973727D01*
X26057237Y-100973727D01*
X26057238Y-100973728D01*
X26204485Y-101034720D01*
X26362500Y-101055523D01*
X26520515Y-101034720D01*
X26667762Y-100973728D01*
X26794205Y-100876705D01*
X26891228Y-100750262D01*
X26952220Y-100603015D01*
X26973023Y-100445000D01*
X26952220Y-100286985D01*
X26891228Y-100139739D01*
X26794205Y-100013295D01*
X26667762Y-99916272D01*
X26659539Y-99909962D01*
X26617672Y-99852624D01*
X26613450Y-99781754D01*
X26648214Y-99719851D01*
X26659539Y-99710038D01*
X26688865Y-99687535D01*
X26794205Y-99606705D01*
X26891228Y-99480262D01*
X26952220Y-99333015D01*
X26973023Y-99175000D01*
X26952220Y-99016985D01*
X26891228Y-98869739D01*
X26794205Y-98743295D01*
X26794203Y-98743293D01*
X26794202Y-98743292D01*
X26667763Y-98646272D01*
X26520514Y-98585279D01*
X26383302Y-98567215D01*
X26362500Y-98564477D01*
X26362499Y-98564477D01*
X26204485Y-98585279D01*
X26057239Y-98646271D01*
X25930795Y-98743295D01*
X25833771Y-98869739D01*
X25772779Y-99016985D01*
X25751977Y-99175000D01*
X25772779Y-99333014D01*
X25833772Y-99480263D01*
X25930794Y-99606705D01*
X26065460Y-99710038D01*
X26107327Y-99767376D01*
X26111549Y-99838247D01*
X26076785Y-99900150D01*
X26065460Y-99909962D01*
X25930797Y-100013292D01*
X25833771Y-100139739D01*
X25772779Y-100286985D01*
X25751977Y-100445000D01*
X20000500Y-100445000D01*
X20000500Y-96635000D01*
X25751977Y-96635000D01*
X25772779Y-96793014D01*
X25833772Y-96940263D01*
X25930794Y-97066705D01*
X26057236Y-97163727D01*
X26057237Y-97163727D01*
X26057238Y-97163728D01*
X26204485Y-97224720D01*
X26362500Y-97245523D01*
X26520515Y-97224720D01*
X26667762Y-97163728D01*
X26794205Y-97066705D01*
X26891228Y-96940262D01*
X26952220Y-96793015D01*
X26973023Y-96635000D01*
X26952220Y-96476985D01*
X26891228Y-96329739D01*
X26794205Y-96203295D01*
X26794203Y-96203293D01*
X26794202Y-96203292D01*
X26667763Y-96106272D01*
X26520514Y-96045279D01*
X26383302Y-96027215D01*
X26362500Y-96024477D01*
X26362499Y-96024477D01*
X26204485Y-96045279D01*
X26057239Y-96106271D01*
X25930795Y-96203295D01*
X25833771Y-96329739D01*
X25772779Y-96476985D01*
X25751977Y-96635000D01*
X20000500Y-96635000D01*
X20000500Y-95024500D01*
X25751977Y-95024500D01*
X25772779Y-95182514D01*
X25833772Y-95329763D01*
X25930794Y-95456205D01*
X26057236Y-95553227D01*
X26057237Y-95553227D01*
X26057238Y-95553228D01*
X26204485Y-95614220D01*
X26362500Y-95635023D01*
X26520515Y-95614220D01*
X26667762Y-95553228D01*
X26794205Y-95456205D01*
X26891228Y-95329762D01*
X26952220Y-95182515D01*
X26973023Y-95024500D01*
X26952220Y-94866485D01*
X26891228Y-94719239D01*
X26794205Y-94592795D01*
X26794203Y-94592793D01*
X26794202Y-94592792D01*
X26667763Y-94495772D01*
X26520514Y-94434779D01*
X26362500Y-94413977D01*
X26204485Y-94434779D01*
X26057239Y-94495771D01*
X25930795Y-94592795D01*
X25833771Y-94719239D01*
X25772779Y-94866485D01*
X25751977Y-95024500D01*
X20000500Y-95024500D01*
X20000500Y-93425499D01*
X25751977Y-93425499D01*
X25772779Y-93583514D01*
X25833772Y-93730763D01*
X25930794Y-93857205D01*
X26057236Y-93954227D01*
X26057237Y-93954227D01*
X26057238Y-93954228D01*
X26204485Y-94015220D01*
X26362500Y-94036023D01*
X26520515Y-94015220D01*
X26667762Y-93954228D01*
X26794205Y-93857205D01*
X26891228Y-93730762D01*
X26952220Y-93583515D01*
X26973023Y-93425500D01*
X26952220Y-93267485D01*
X26891228Y-93120239D01*
X26794205Y-92993795D01*
X26794203Y-92993793D01*
X26794202Y-92993792D01*
X26667763Y-92896772D01*
X26520514Y-92835779D01*
X26383301Y-92817715D01*
X26362500Y-92814977D01*
X26362499Y-92814977D01*
X26204485Y-92835779D01*
X26057239Y-92896771D01*
X25930795Y-92993795D01*
X25833771Y-93120239D01*
X25772779Y-93267485D01*
X25751977Y-93425499D01*
X20000500Y-93425499D01*
X20000500Y-83185000D01*
X27229520Y-83185000D01*
X27250164Y-83355027D01*
X27310899Y-83515174D01*
X27310900Y-83515176D01*
X27310901Y-83515177D01*
X27408198Y-83656135D01*
X27536401Y-83769714D01*
X27688060Y-83849310D01*
X27854361Y-83890300D01*
X27854363Y-83890300D01*
X28025637Y-83890300D01*
X28025639Y-83890300D01*
X28191940Y-83849310D01*
X28343599Y-83769714D01*
X28471802Y-83656135D01*
X28569099Y-83515177D01*
X28629835Y-83355029D01*
X28650480Y-83185000D01*
X28629835Y-83014971D01*
X28569099Y-82854823D01*
X28471802Y-82713865D01*
X28415866Y-82664310D01*
X28343598Y-82600285D01*
X28267769Y-82560487D01*
X28191940Y-82520690D01*
X28025639Y-82479700D01*
X27854361Y-82479700D01*
X27688060Y-82520690D01*
X27688058Y-82520690D01*
X27688058Y-82520691D01*
X27536401Y-82600285D01*
X27408199Y-82713863D01*
X27310899Y-82854825D01*
X27250164Y-83014972D01*
X27229520Y-83185000D01*
X20000500Y-83185000D01*
X20000500Y-82000000D01*
X30404520Y-82000000D01*
X30425164Y-82170027D01*
X30485899Y-82330174D01*
X30583199Y-82471136D01*
X30639135Y-82520691D01*
X30711401Y-82584714D01*
X30863060Y-82664310D01*
X31029361Y-82705300D01*
X31029363Y-82705300D01*
X31200637Y-82705300D01*
X31200639Y-82705300D01*
X31366940Y-82664310D01*
X31518599Y-82584714D01*
X31646802Y-82471135D01*
X31744099Y-82330177D01*
X31804835Y-82170029D01*
X31825480Y-82000000D01*
X31804835Y-81829971D01*
X31744099Y-81669823D01*
X31669983Y-81562448D01*
X36377072Y-81562448D01*
X36397716Y-81732476D01*
X36458451Y-81892623D01*
X36458452Y-81892625D01*
X36458453Y-81892626D01*
X36555750Y-82033584D01*
X36683953Y-82147163D01*
X36835612Y-82226759D01*
X37001913Y-82267749D01*
X37001915Y-82267749D01*
X37173189Y-82267749D01*
X37173191Y-82267749D01*
X37339492Y-82226759D01*
X37491151Y-82147163D01*
X37619354Y-82033584D01*
X37716651Y-81892626D01*
X37777387Y-81732478D01*
X37798032Y-81562449D01*
X37777387Y-81392420D01*
X37716651Y-81232272D01*
X37619354Y-81091314D01*
X37491151Y-80977735D01*
X37491150Y-80977734D01*
X37415321Y-80937936D01*
X37339492Y-80898139D01*
X37173191Y-80857149D01*
X37001913Y-80857149D01*
X36835612Y-80898139D01*
X36835610Y-80898139D01*
X36835610Y-80898140D01*
X36683953Y-80977734D01*
X36555751Y-81091312D01*
X36458451Y-81232274D01*
X36397716Y-81392421D01*
X36377072Y-81562448D01*
X31669983Y-81562448D01*
X31646802Y-81528865D01*
X31518599Y-81415286D01*
X31518598Y-81415285D01*
X31442769Y-81375488D01*
X31366940Y-81335690D01*
X31200639Y-81294700D01*
X31029361Y-81294700D01*
X30863060Y-81335690D01*
X30863058Y-81335690D01*
X30863058Y-81335691D01*
X30711401Y-81415285D01*
X30583199Y-81528863D01*
X30485899Y-81669825D01*
X30425164Y-81829972D01*
X30404520Y-82000000D01*
X20000500Y-82000000D01*
X20000500Y-80010000D01*
X36269908Y-80010000D01*
X36288992Y-80154961D01*
X36344945Y-80290044D01*
X36344946Y-80290046D01*
X36433955Y-80406045D01*
X36549954Y-80495054D01*
X36685038Y-80551007D01*
X36830000Y-80570092D01*
X36974962Y-80551007D01*
X37110046Y-80495054D01*
X37226045Y-80406045D01*
X37315054Y-80290046D01*
X37371007Y-80154962D01*
X37390092Y-80010000D01*
X37371007Y-79865038D01*
X37315054Y-79729954D01*
X37226045Y-79613955D01*
X37110046Y-79524946D01*
X37110044Y-79524945D01*
X36974961Y-79468992D01*
X36830000Y-79449908D01*
X36685038Y-79468992D01*
X36549955Y-79524945D01*
X36433955Y-79613955D01*
X36344945Y-79729955D01*
X36288992Y-79865038D01*
X36269908Y-80010000D01*
X20000500Y-80010000D01*
X20000500Y-77615499D01*
X41199520Y-77615499D01*
X41220164Y-77785527D01*
X41280899Y-77945674D01*
X41280900Y-77945676D01*
X41280901Y-77945677D01*
X41378198Y-78086635D01*
X41506401Y-78200214D01*
X41658060Y-78279810D01*
X41824361Y-78320800D01*
X41824363Y-78320800D01*
X41995637Y-78320800D01*
X41995639Y-78320800D01*
X42161940Y-78279810D01*
X42313599Y-78200214D01*
X42441802Y-78086635D01*
X42539099Y-77945677D01*
X42599835Y-77785529D01*
X42620480Y-77615500D01*
X42599835Y-77445471D01*
X42539099Y-77285323D01*
X42441802Y-77144365D01*
X42313599Y-77030786D01*
X42313598Y-77030785D01*
X42216759Y-76979961D01*
X42161940Y-76951190D01*
X41995639Y-76910200D01*
X41824361Y-76910200D01*
X41658060Y-76951190D01*
X41658058Y-76951190D01*
X41658058Y-76951191D01*
X41506401Y-77030785D01*
X41378199Y-77144363D01*
X41280899Y-77285325D01*
X41220164Y-77445472D01*
X41199520Y-77615499D01*
X20000500Y-77615499D01*
X20000500Y-76835000D01*
X39444908Y-76835000D01*
X39463992Y-76979961D01*
X39519945Y-77115044D01*
X39519946Y-77115046D01*
X39608955Y-77231045D01*
X39724954Y-77320054D01*
X39860038Y-77376007D01*
X40005000Y-77395092D01*
X40149962Y-77376007D01*
X40285046Y-77320054D01*
X40401045Y-77231045D01*
X40490054Y-77115046D01*
X40546007Y-76979962D01*
X40565092Y-76835000D01*
X40546007Y-76690038D01*
X40490054Y-76554954D01*
X40401045Y-76438955D01*
X40285046Y-76349946D01*
X40285044Y-76349945D01*
X40149961Y-76293992D01*
X40024083Y-76277420D01*
X40005000Y-76274908D01*
X40004999Y-76274908D01*
X39860038Y-76293992D01*
X39724955Y-76349945D01*
X39608955Y-76438955D01*
X39519945Y-76554955D01*
X39463992Y-76690038D01*
X39444908Y-76835000D01*
X20000500Y-76835000D01*
X20000500Y-65696597D01*
X37349360Y-65696597D01*
X37388538Y-65906184D01*
X37388539Y-65906185D01*
X37465562Y-66105008D01*
X37577807Y-66286288D01*
X37577808Y-66286289D01*
X37721453Y-66443859D01*
X37891605Y-66572353D01*
X38082471Y-66667392D01*
X38287550Y-66725743D01*
X38363341Y-66732765D01*
X38443749Y-66740217D01*
X38443755Y-66740217D01*
X38446666Y-66740487D01*
X38449579Y-66740487D01*
X38550141Y-66740487D01*
X38553054Y-66740487D01*
X38555965Y-66740217D01*
X38555970Y-66740217D01*
X38611114Y-66735106D01*
X38712170Y-66725743D01*
X38917249Y-66667392D01*
X39108115Y-66572353D01*
X39278267Y-66443859D01*
X39421912Y-66286289D01*
X39534158Y-66105006D01*
X39611181Y-65906185D01*
X39650360Y-65696597D01*
X39650360Y-65483377D01*
X39611181Y-65273789D01*
X39534158Y-65074968D01*
X39534157Y-65074965D01*
X39421912Y-64893685D01*
X39309157Y-64770000D01*
X39309156Y-64769999D01*
X41282408Y-64769999D01*
X41301492Y-64914961D01*
X41333823Y-64993015D01*
X41357446Y-65050046D01*
X41446455Y-65166045D01*
X41562454Y-65255054D01*
X41697538Y-65311007D01*
X41842500Y-65330092D01*
X41987462Y-65311007D01*
X42122546Y-65255054D01*
X42238545Y-65166045D01*
X42327554Y-65050046D01*
X42383507Y-64914962D01*
X42402592Y-64770000D01*
X42402592Y-64769999D01*
X44524908Y-64769999D01*
X44543992Y-64914961D01*
X44576323Y-64993015D01*
X44599946Y-65050046D01*
X44688955Y-65166045D01*
X44804954Y-65255054D01*
X44940038Y-65311007D01*
X45085000Y-65330092D01*
X45229962Y-65311007D01*
X45365046Y-65255054D01*
X45481045Y-65166045D01*
X45570054Y-65050046D01*
X45626007Y-64914962D01*
X45645092Y-64770000D01*
X45626007Y-64625038D01*
X45570054Y-64489954D01*
X45481045Y-64373955D01*
X45365046Y-64284946D01*
X45365044Y-64284945D01*
X45229961Y-64228992D01*
X45085000Y-64209908D01*
X44940038Y-64228992D01*
X44804955Y-64284945D01*
X44688955Y-64373955D01*
X44599945Y-64489955D01*
X44543992Y-64625038D01*
X44524908Y-64769999D01*
X42402592Y-64769999D01*
X42383507Y-64625038D01*
X42327554Y-64489954D01*
X42238545Y-64373955D01*
X42122546Y-64284946D01*
X42122544Y-64284945D01*
X41987461Y-64228992D01*
X41842500Y-64209908D01*
X41697538Y-64228992D01*
X41562455Y-64284945D01*
X41446455Y-64373955D01*
X41357445Y-64489955D01*
X41301492Y-64625038D01*
X41282408Y-64769999D01*
X39309156Y-64769999D01*
X39278267Y-64736115D01*
X39131179Y-64625038D01*
X39108117Y-64607622D01*
X38917247Y-64512581D01*
X38712166Y-64454230D01*
X38555970Y-64439756D01*
X38555944Y-64439754D01*
X38553054Y-64439487D01*
X38446666Y-64439487D01*
X38443776Y-64439754D01*
X38443749Y-64439756D01*
X38287553Y-64454230D01*
X38082472Y-64512581D01*
X37891602Y-64607622D01*
X37721454Y-64736114D01*
X37577807Y-64893685D01*
X37465562Y-65074965D01*
X37391283Y-65266705D01*
X37388539Y-65273789D01*
X37349360Y-65483377D01*
X37349360Y-65696597D01*
X20000500Y-65696597D01*
X20000500Y-64835000D01*
X27635977Y-64835000D01*
X27656779Y-64993014D01*
X27717772Y-65140263D01*
X27814794Y-65266705D01*
X27941236Y-65363727D01*
X27941237Y-65363727D01*
X27941238Y-65363728D01*
X28088485Y-65424720D01*
X28246500Y-65445523D01*
X28404515Y-65424720D01*
X28551762Y-65363728D01*
X28678205Y-65266705D01*
X28775228Y-65140262D01*
X28808474Y-65060000D01*
X34214477Y-65060000D01*
X34235279Y-65218014D01*
X34296272Y-65365263D01*
X34393294Y-65491705D01*
X34519736Y-65588727D01*
X34519737Y-65588727D01*
X34519738Y-65588728D01*
X34666985Y-65649720D01*
X34825000Y-65670523D01*
X34983015Y-65649720D01*
X35130262Y-65588728D01*
X35256705Y-65491705D01*
X35353728Y-65365262D01*
X35414720Y-65218015D01*
X35435523Y-65060000D01*
X35414720Y-64901985D01*
X35353728Y-64754739D01*
X35256705Y-64628295D01*
X35256703Y-64628293D01*
X35256702Y-64628292D01*
X35130263Y-64531272D01*
X34983014Y-64470279D01*
X34825000Y-64449477D01*
X34666985Y-64470279D01*
X34519739Y-64531271D01*
X34393295Y-64628295D01*
X34296271Y-64754739D01*
X34235279Y-64901985D01*
X34214477Y-65060000D01*
X28808474Y-65060000D01*
X28836220Y-64993015D01*
X28857023Y-64835000D01*
X28836220Y-64676985D01*
X28775228Y-64529739D01*
X28706925Y-64440724D01*
X28681326Y-64374506D01*
X28695591Y-64304957D01*
X28745192Y-64254161D01*
X28776727Y-64241686D01*
X28826940Y-64229310D01*
X28978599Y-64149714D01*
X29106802Y-64036135D01*
X29204099Y-63895177D01*
X29264835Y-63735029D01*
X29285480Y-63565000D01*
X29277588Y-63499999D01*
X59764908Y-63499999D01*
X59783992Y-63644961D01*
X59839945Y-63780044D01*
X59839946Y-63780046D01*
X59928955Y-63896045D01*
X60044954Y-63985054D01*
X60180038Y-64041007D01*
X60325000Y-64060092D01*
X60469962Y-64041007D01*
X60605046Y-63985054D01*
X60721045Y-63896045D01*
X60810054Y-63780046D01*
X60866007Y-63644962D01*
X60885092Y-63500000D01*
X61669908Y-63500000D01*
X61688992Y-63644961D01*
X61744945Y-63780044D01*
X61744946Y-63780046D01*
X61833955Y-63896045D01*
X61949954Y-63985054D01*
X62085038Y-64041007D01*
X62230000Y-64060092D01*
X62374962Y-64041007D01*
X62510046Y-63985054D01*
X62626045Y-63896045D01*
X62715054Y-63780046D01*
X62771007Y-63644962D01*
X62790092Y-63500000D01*
X62771007Y-63355038D01*
X62715054Y-63219954D01*
X62626045Y-63103955D01*
X62510046Y-63014946D01*
X62510044Y-63014945D01*
X62374961Y-62958992D01*
X62230000Y-62939908D01*
X62085038Y-62958992D01*
X61949955Y-63014945D01*
X61833955Y-63103955D01*
X61744945Y-63219955D01*
X61688992Y-63355038D01*
X61669908Y-63500000D01*
X60885092Y-63500000D01*
X60866007Y-63355038D01*
X60810054Y-63219954D01*
X60721045Y-63103955D01*
X60605046Y-63014946D01*
X60605044Y-63014945D01*
X60469961Y-62958992D01*
X60325000Y-62939908D01*
X60180038Y-62958992D01*
X60044955Y-63014945D01*
X59928955Y-63103955D01*
X59839945Y-63219955D01*
X59783992Y-63355038D01*
X59764908Y-63499999D01*
X29277588Y-63499999D01*
X29264835Y-63394971D01*
X29204099Y-63234823D01*
X29106802Y-63093865D01*
X28978599Y-62980286D01*
X28978598Y-62980285D01*
X28901664Y-62939908D01*
X28826940Y-62900690D01*
X28660639Y-62859700D01*
X28489361Y-62859700D01*
X28323060Y-62900690D01*
X28323058Y-62900690D01*
X28323058Y-62900691D01*
X28171401Y-62980285D01*
X28043199Y-63093863D01*
X27945899Y-63234825D01*
X27885164Y-63394972D01*
X27864520Y-63565000D01*
X27885164Y-63735027D01*
X27945899Y-63895174D01*
X27945900Y-63895176D01*
X27945901Y-63895177D01*
X28043198Y-64036135D01*
X28067671Y-64057816D01*
X28105396Y-64117960D01*
X28104616Y-64188952D01*
X28065578Y-64248253D01*
X28032337Y-64268536D01*
X27941240Y-64306270D01*
X27814795Y-64403295D01*
X27717771Y-64529739D01*
X27656779Y-64676985D01*
X27635977Y-64835000D01*
X20000500Y-64835000D01*
X20000500Y-60325005D01*
X94039531Y-60325005D01*
X94060141Y-60547429D01*
X94121271Y-60762278D01*
X94220836Y-60962230D01*
X94220838Y-60962232D01*
X94355451Y-61140489D01*
X94520527Y-61290976D01*
X94710445Y-61408568D01*
X94918736Y-61489260D01*
X95138307Y-61530305D01*
X95138309Y-61530305D01*
X95361681Y-61530305D01*
X95361683Y-61530305D01*
X95581254Y-61489260D01*
X95789545Y-61408568D01*
X95979463Y-61290976D01*
X96144539Y-61140489D01*
X96279152Y-60962232D01*
X96378719Y-60762275D01*
X96398807Y-60691672D01*
X96436687Y-60631626D01*
X96501018Y-60601592D01*
X96571374Y-60611104D01*
X96625419Y-60657145D01*
X96641187Y-60691672D01*
X96661276Y-60762278D01*
X96760841Y-60962230D01*
X96760843Y-60962232D01*
X96895456Y-61140489D01*
X97060532Y-61290976D01*
X97250450Y-61408568D01*
X97458741Y-61489260D01*
X97678312Y-61530305D01*
X97678314Y-61530305D01*
X97901686Y-61530305D01*
X97901688Y-61530305D01*
X98121259Y-61489260D01*
X98329550Y-61408568D01*
X98519468Y-61290976D01*
X98684544Y-61140489D01*
X98819157Y-60962232D01*
X98918724Y-60762275D01*
X98938812Y-60691672D01*
X98976692Y-60631626D01*
X99041023Y-60601592D01*
X99111379Y-60611104D01*
X99165424Y-60657145D01*
X99181192Y-60691672D01*
X99201281Y-60762278D01*
X99300846Y-60962230D01*
X99300848Y-60962232D01*
X99435461Y-61140489D01*
X99600537Y-61290976D01*
X99790455Y-61408568D01*
X99998746Y-61489260D01*
X100218317Y-61530305D01*
X100218319Y-61530305D01*
X100441691Y-61530305D01*
X100441693Y-61530305D01*
X100661264Y-61489260D01*
X100869555Y-61408568D01*
X101059473Y-61290976D01*
X101224549Y-61140489D01*
X101359162Y-60962232D01*
X101458729Y-60762275D01*
X101519859Y-60547427D01*
X101540469Y-60325005D01*
X101519859Y-60102583D01*
X101458729Y-59887735D01*
X101458728Y-59887732D01*
X101458728Y-59887731D01*
X101359163Y-59687779D01*
X101326204Y-59644134D01*
X101224549Y-59509521D01*
X101059473Y-59359034D01*
X101006684Y-59326348D01*
X100869556Y-59241442D01*
X100661264Y-59160750D01*
X100661263Y-59160749D01*
X100441693Y-59119705D01*
X100218317Y-59119705D01*
X100071936Y-59147068D01*
X99998745Y-59160750D01*
X99790453Y-59241442D01*
X99600538Y-59359033D01*
X99435460Y-59509522D01*
X99300846Y-59687779D01*
X99201282Y-59887730D01*
X99181192Y-59958338D01*
X99143311Y-60018384D01*
X99078980Y-60048418D01*
X99008623Y-60038904D01*
X98954579Y-59992863D01*
X98938812Y-59958336D01*
X98918723Y-59887732D01*
X98819158Y-59687779D01*
X98786199Y-59644134D01*
X98684544Y-59509521D01*
X98519468Y-59359034D01*
X98466679Y-59326348D01*
X98329551Y-59241442D01*
X98121259Y-59160750D01*
X97901688Y-59119705D01*
X97678312Y-59119705D01*
X97531931Y-59147068D01*
X97458740Y-59160750D01*
X97250448Y-59241442D01*
X97060533Y-59359033D01*
X96895455Y-59509522D01*
X96760841Y-59687779D01*
X96661277Y-59887730D01*
X96641187Y-59958338D01*
X96603306Y-60018384D01*
X96538975Y-60048418D01*
X96468618Y-60038904D01*
X96414574Y-59992863D01*
X96398807Y-59958336D01*
X96378718Y-59887732D01*
X96279153Y-59687779D01*
X96246194Y-59644134D01*
X96144539Y-59509521D01*
X95979463Y-59359034D01*
X95926674Y-59326348D01*
X95789546Y-59241442D01*
X95581254Y-59160750D01*
X95361683Y-59119705D01*
X95138307Y-59119705D01*
X94991926Y-59147068D01*
X94918735Y-59160750D01*
X94710443Y-59241442D01*
X94520528Y-59359033D01*
X94355450Y-59509522D01*
X94220836Y-59687779D01*
X94121271Y-59887731D01*
X94060141Y-60102580D01*
X94039531Y-60325005D01*
X20000500Y-60325005D01*
X20000500Y-57999999D01*
X28499520Y-57999999D01*
X28520164Y-58170027D01*
X28580899Y-58330174D01*
X28580900Y-58330176D01*
X28580901Y-58330177D01*
X28678198Y-58471135D01*
X28806401Y-58584714D01*
X28958060Y-58664310D01*
X29124361Y-58705300D01*
X29124363Y-58705300D01*
X29295637Y-58705300D01*
X29295639Y-58705300D01*
X29461940Y-58664310D01*
X29613599Y-58584714D01*
X29741802Y-58471135D01*
X29839099Y-58330177D01*
X29899835Y-58170029D01*
X29920480Y-58000000D01*
X29901577Y-57844318D01*
X55895590Y-57844318D01*
X55914674Y-57989279D01*
X55919115Y-58000000D01*
X55970628Y-58124364D01*
X56059637Y-58240363D01*
X56175636Y-58329372D01*
X56310720Y-58385325D01*
X56455682Y-58404410D01*
X56600644Y-58385325D01*
X56735728Y-58329372D01*
X56740774Y-58325500D01*
X58276415Y-58325500D01*
X58276458Y-58349999D01*
X58276500Y-58350099D01*
X58276616Y-58350382D01*
X58276617Y-58350383D01*
X58277000Y-58350541D01*
X58277002Y-58350539D01*
X58302014Y-58350524D01*
X58302014Y-58350528D01*
X58302158Y-58350500D01*
X71729842Y-58350500D01*
X71729985Y-58350528D01*
X71729986Y-58350524D01*
X71754997Y-58350539D01*
X71755000Y-58350541D01*
X71755383Y-58350383D01*
X71755500Y-58350099D01*
X71755541Y-58350000D01*
X71755541Y-58349999D01*
X71755584Y-58325500D01*
X71755500Y-58325072D01*
X71755500Y-55244994D01*
X94039531Y-55244994D01*
X94060141Y-55467419D01*
X94121271Y-55682268D01*
X94220836Y-55882220D01*
X94220838Y-55882222D01*
X94355451Y-56060479D01*
X94520527Y-56210966D01*
X94710445Y-56328558D01*
X94918736Y-56409250D01*
X95138307Y-56450295D01*
X95138309Y-56450295D01*
X95361681Y-56450295D01*
X95361683Y-56450295D01*
X95581254Y-56409250D01*
X95789545Y-56328558D01*
X95979463Y-56210966D01*
X96144539Y-56060479D01*
X96279152Y-55882222D01*
X96378719Y-55682265D01*
X96398807Y-55611662D01*
X96436687Y-55551616D01*
X96501018Y-55521582D01*
X96571374Y-55531094D01*
X96625419Y-55577135D01*
X96641187Y-55611662D01*
X96661276Y-55682268D01*
X96760841Y-55882220D01*
X96760843Y-55882222D01*
X96895456Y-56060479D01*
X97060532Y-56210966D01*
X97250450Y-56328558D01*
X97458741Y-56409250D01*
X97678312Y-56450295D01*
X97678314Y-56450295D01*
X97901686Y-56450295D01*
X97901688Y-56450295D01*
X98121259Y-56409250D01*
X98329550Y-56328558D01*
X98519468Y-56210966D01*
X98684544Y-56060479D01*
X98819157Y-55882222D01*
X98918724Y-55682265D01*
X98938812Y-55611662D01*
X98976692Y-55551616D01*
X99041023Y-55521582D01*
X99111379Y-55531094D01*
X99165424Y-55577135D01*
X99181192Y-55611662D01*
X99201281Y-55682268D01*
X99300846Y-55882220D01*
X99300848Y-55882222D01*
X99435461Y-56060479D01*
X99600537Y-56210966D01*
X99790455Y-56328558D01*
X99998746Y-56409250D01*
X100218317Y-56450295D01*
X100218319Y-56450295D01*
X100441691Y-56450295D01*
X100441693Y-56450295D01*
X100661264Y-56409250D01*
X100869555Y-56328558D01*
X101059473Y-56210966D01*
X101224549Y-56060479D01*
X101359162Y-55882222D01*
X101376009Y-55848388D01*
X101458728Y-55682268D01*
X101501741Y-55531094D01*
X101519859Y-55467417D01*
X101540469Y-55244995D01*
X101524047Y-55067766D01*
X113145787Y-55067766D01*
X113175413Y-55337015D01*
X113175414Y-55337018D01*
X113243928Y-55599088D01*
X113349870Y-55848390D01*
X113490982Y-56079610D01*
X113664255Y-56287820D01*
X113664256Y-56287821D01*
X113664258Y-56287823D01*
X113865993Y-56468578D01*
X113865995Y-56468579D01*
X113865998Y-56468582D01*
X114091910Y-56618044D01*
X114181327Y-56659961D01*
X114337171Y-56733018D01*
X114337173Y-56733018D01*
X114337176Y-56733020D01*
X114596569Y-56811060D01*
X114596572Y-56811060D01*
X114596574Y-56811061D01*
X114864558Y-56850500D01*
X114864561Y-56850500D01*
X115065330Y-56850500D01*
X115067631Y-56850500D01*
X115270156Y-56835677D01*
X115534553Y-56776780D01*
X115787558Y-56680014D01*
X116023777Y-56547441D01*
X116238177Y-56381888D01*
X116426186Y-56186881D01*
X116583799Y-55966579D01*
X116707656Y-55725675D01*
X116795118Y-55469305D01*
X116844319Y-55202933D01*
X116854212Y-54932235D01*
X116852079Y-54912853D01*
X116839339Y-54797065D01*
X116824586Y-54662982D01*
X116756072Y-54400912D01*
X116650130Y-54151610D01*
X116509018Y-53920390D01*
X116335745Y-53712180D01*
X116335741Y-53712176D01*
X116134006Y-53531421D01*
X116134003Y-53531419D01*
X116134002Y-53531418D01*
X115908090Y-53381956D01*
X115821918Y-53341560D01*
X115662828Y-53266981D01*
X115403425Y-53188938D01*
X115135442Y-53149500D01*
X115135439Y-53149500D01*
X114932369Y-53149500D01*
X114930099Y-53149666D01*
X114930075Y-53149667D01*
X114729839Y-53164323D01*
X114465449Y-53223219D01*
X114212441Y-53319985D01*
X113976225Y-53452557D01*
X113761820Y-53618114D01*
X113573815Y-53813117D01*
X113416200Y-54033422D01*
X113292342Y-54274328D01*
X113204882Y-54530693D01*
X113155681Y-54797065D01*
X113145787Y-55067766D01*
X101524047Y-55067766D01*
X101519859Y-55022573D01*
X101471817Y-54853724D01*
X101458728Y-54807721D01*
X101359163Y-54607769D01*
X101300958Y-54530693D01*
X101224549Y-54429511D01*
X101059473Y-54279024D01*
X100951815Y-54212365D01*
X100869556Y-54161432D01*
X100661264Y-54080740D01*
X100661263Y-54080740D01*
X100441693Y-54039695D01*
X100218317Y-54039695D01*
X100129708Y-54056259D01*
X99998745Y-54080740D01*
X99790453Y-54161432D01*
X99600538Y-54279023D01*
X99435460Y-54429512D01*
X99300846Y-54607769D01*
X99201282Y-54807720D01*
X99181192Y-54878328D01*
X99143311Y-54938374D01*
X99078980Y-54968408D01*
X99008623Y-54958894D01*
X98954579Y-54912853D01*
X98938812Y-54878326D01*
X98918723Y-54807722D01*
X98819158Y-54607769D01*
X98760953Y-54530693D01*
X98684544Y-54429511D01*
X98519468Y-54279024D01*
X98411810Y-54212365D01*
X98329551Y-54161432D01*
X98121259Y-54080740D01*
X97901688Y-54039695D01*
X97678312Y-54039695D01*
X97589703Y-54056259D01*
X97458740Y-54080740D01*
X97250448Y-54161432D01*
X97060533Y-54279023D01*
X96895455Y-54429512D01*
X96760841Y-54607769D01*
X96661277Y-54807720D01*
X96641187Y-54878328D01*
X96603306Y-54938374D01*
X96538975Y-54968408D01*
X96468618Y-54958894D01*
X96414574Y-54912853D01*
X96398807Y-54878326D01*
X96378718Y-54807722D01*
X96279153Y-54607769D01*
X96220948Y-54530693D01*
X96144539Y-54429511D01*
X95979463Y-54279024D01*
X95871805Y-54212365D01*
X95789546Y-54161432D01*
X95581254Y-54080740D01*
X95581253Y-54080740D01*
X95361683Y-54039695D01*
X95138307Y-54039695D01*
X95049698Y-54056259D01*
X94918735Y-54080740D01*
X94710443Y-54161432D01*
X94520528Y-54279023D01*
X94355450Y-54429512D01*
X94220836Y-54607769D01*
X94121271Y-54807721D01*
X94060141Y-55022570D01*
X94039531Y-55244994D01*
X71755500Y-55244994D01*
X71755500Y-51566159D01*
X77676068Y-51566159D01*
X77695152Y-51711121D01*
X77751105Y-51846204D01*
X77751106Y-51846206D01*
X77840115Y-51962205D01*
X77956114Y-52051214D01*
X78091198Y-52107167D01*
X78236160Y-52126252D01*
X78381122Y-52107167D01*
X78516206Y-52051214D01*
X78632205Y-51962205D01*
X78721214Y-51846206D01*
X78777167Y-51711122D01*
X78796252Y-51566160D01*
X78777167Y-51421198D01*
X78721214Y-51286114D01*
X78632205Y-51170115D01*
X78516206Y-51081106D01*
X78516204Y-51081105D01*
X78381121Y-51025152D01*
X78236160Y-51006068D01*
X78091198Y-51025152D01*
X77956115Y-51081105D01*
X77840115Y-51170115D01*
X77751105Y-51286115D01*
X77695152Y-51421198D01*
X77676068Y-51566159D01*
X71755500Y-51566159D01*
X71755500Y-51000000D01*
X79449908Y-51000000D01*
X79468992Y-51144961D01*
X79524945Y-51280044D01*
X79524946Y-51280046D01*
X79613955Y-51396045D01*
X79729954Y-51485054D01*
X79865038Y-51541007D01*
X80010000Y-51560092D01*
X80154962Y-51541007D01*
X80290046Y-51485054D01*
X80406045Y-51396045D01*
X80495054Y-51280046D01*
X80551007Y-51144962D01*
X80570092Y-51000000D01*
X80551007Y-50855038D01*
X80495054Y-50719954D01*
X80406045Y-50603955D01*
X80290046Y-50514946D01*
X80290044Y-50514945D01*
X80154961Y-50458992D01*
X80010000Y-50439908D01*
X79865038Y-50458992D01*
X79729955Y-50514945D01*
X79613955Y-50603955D01*
X79524945Y-50719955D01*
X79468992Y-50855038D01*
X79449908Y-51000000D01*
X71755500Y-51000000D01*
X71755500Y-50038500D01*
X98712020Y-50038500D01*
X98732664Y-50208527D01*
X98793399Y-50368674D01*
X98793400Y-50368676D01*
X98793401Y-50368677D01*
X98890698Y-50509635D01*
X99018901Y-50623214D01*
X99170560Y-50702810D01*
X99336861Y-50743800D01*
X99336863Y-50743800D01*
X99508137Y-50743800D01*
X99508139Y-50743800D01*
X99674440Y-50702810D01*
X99826099Y-50623214D01*
X99954302Y-50509635D01*
X100051599Y-50368677D01*
X100112335Y-50208529D01*
X100132980Y-50038500D01*
X103792020Y-50038500D01*
X103812664Y-50208527D01*
X103873399Y-50368674D01*
X103873400Y-50368676D01*
X103873401Y-50368677D01*
X103970698Y-50509635D01*
X104098901Y-50623214D01*
X104250560Y-50702810D01*
X104416861Y-50743800D01*
X104416863Y-50743800D01*
X104588137Y-50743800D01*
X104588139Y-50743800D01*
X104754440Y-50702810D01*
X104906099Y-50623214D01*
X105034302Y-50509635D01*
X105131599Y-50368677D01*
X105192335Y-50208529D01*
X105212980Y-50038500D01*
X105192335Y-49868471D01*
X105131599Y-49708323D01*
X105034302Y-49567365D01*
X104906099Y-49453786D01*
X104906098Y-49453785D01*
X104810713Y-49403724D01*
X104754440Y-49374190D01*
X104588139Y-49333200D01*
X104416861Y-49333200D01*
X104250560Y-49374190D01*
X104250558Y-49374190D01*
X104250558Y-49374191D01*
X104098901Y-49453785D01*
X103970699Y-49567363D01*
X103873399Y-49708325D01*
X103812664Y-49868472D01*
X103792020Y-50038500D01*
X100132980Y-50038500D01*
X100112335Y-49868471D01*
X100051599Y-49708323D01*
X99954302Y-49567365D01*
X99826099Y-49453786D01*
X99826098Y-49453785D01*
X99730713Y-49403724D01*
X99674440Y-49374190D01*
X99508139Y-49333200D01*
X99336861Y-49333200D01*
X99170560Y-49374190D01*
X99170558Y-49374190D01*
X99170558Y-49374191D01*
X99018901Y-49453785D01*
X98890699Y-49567363D01*
X98793399Y-49708325D01*
X98732664Y-49868472D01*
X98712020Y-50038500D01*
X71755500Y-50038500D01*
X71755500Y-46863499D01*
X106332020Y-46863499D01*
X106352664Y-47033527D01*
X106413399Y-47193674D01*
X106413400Y-47193676D01*
X106413401Y-47193677D01*
X106493023Y-47309029D01*
X106510699Y-47334636D01*
X106562419Y-47380456D01*
X106638901Y-47448214D01*
X106790560Y-47527810D01*
X106956861Y-47568800D01*
X106956863Y-47568800D01*
X107128137Y-47568800D01*
X107128139Y-47568800D01*
X107294440Y-47527810D01*
X107446099Y-47448214D01*
X107574302Y-47334635D01*
X107671599Y-47193677D01*
X107732335Y-47033529D01*
X107752980Y-46863500D01*
X107732335Y-46693471D01*
X107671599Y-46533323D01*
X107574302Y-46392365D01*
X107475365Y-46304714D01*
X107446098Y-46278785D01*
X107370269Y-46238988D01*
X107294440Y-46199190D01*
X107128139Y-46158200D01*
X106956861Y-46158200D01*
X106790560Y-46199190D01*
X106790558Y-46199190D01*
X106790558Y-46199191D01*
X106638901Y-46278785D01*
X106510699Y-46392363D01*
X106413399Y-46533325D01*
X106352664Y-46693472D01*
X106332020Y-46863499D01*
X71755500Y-46863499D01*
X71755500Y-45720000D01*
X72949520Y-45720000D01*
X72970164Y-45890027D01*
X73030899Y-46050174D01*
X73030900Y-46050176D01*
X73030901Y-46050177D01*
X73128198Y-46191135D01*
X73256401Y-46304714D01*
X73408060Y-46384310D01*
X73574361Y-46425300D01*
X73574363Y-46425300D01*
X73745637Y-46425300D01*
X73745639Y-46425300D01*
X73911940Y-46384310D01*
X74063599Y-46304714D01*
X74191802Y-46191135D01*
X74289099Y-46050177D01*
X74349835Y-45890029D01*
X74370480Y-45720000D01*
X74349835Y-45549971D01*
X74289099Y-45389823D01*
X74191802Y-45248865D01*
X74113292Y-45179310D01*
X74075568Y-45119168D01*
X74076348Y-45048176D01*
X74113292Y-44990689D01*
X74191802Y-44921135D01*
X74289099Y-44780177D01*
X74349835Y-44620029D01*
X74370480Y-44450000D01*
X74349835Y-44279971D01*
X74289099Y-44119823D01*
X74191802Y-43978865D01*
X74175691Y-43964592D01*
X74063598Y-43865285D01*
X73987769Y-43825488D01*
X73911940Y-43785690D01*
X73819775Y-43762973D01*
X116764520Y-43762973D01*
X116785164Y-43933000D01*
X116845899Y-44093147D01*
X116845900Y-44093149D01*
X116845901Y-44093150D01*
X116943198Y-44234108D01*
X117071401Y-44347687D01*
X117223060Y-44427283D01*
X117389361Y-44468273D01*
X117389363Y-44468273D01*
X117560637Y-44468273D01*
X117560639Y-44468273D01*
X117726940Y-44427283D01*
X117878599Y-44347687D01*
X118006802Y-44234108D01*
X118104099Y-44093150D01*
X118164835Y-43933002D01*
X118185480Y-43762973D01*
X118164835Y-43592944D01*
X118104099Y-43432796D01*
X118006802Y-43291838D01*
X118003035Y-43288501D01*
X117878598Y-43178258D01*
X117776081Y-43124454D01*
X117726940Y-43098663D01*
X117560639Y-43057673D01*
X117389361Y-43057673D01*
X117223060Y-43098663D01*
X117223058Y-43098663D01*
X117223058Y-43098664D01*
X117071401Y-43178258D01*
X116943199Y-43291836D01*
X116845899Y-43432798D01*
X116785164Y-43592945D01*
X116764520Y-43762973D01*
X73819775Y-43762973D01*
X73745639Y-43744700D01*
X73574361Y-43744700D01*
X73408060Y-43785690D01*
X73408058Y-43785690D01*
X73408058Y-43785691D01*
X73256401Y-43865285D01*
X73128199Y-43978863D01*
X73030899Y-44119825D01*
X72970164Y-44279972D01*
X72949520Y-44449999D01*
X72970164Y-44620027D01*
X73030899Y-44780174D01*
X73030900Y-44780176D01*
X73030901Y-44780177D01*
X73128198Y-44921135D01*
X73206706Y-44990688D01*
X73244431Y-45050831D01*
X73243651Y-45121823D01*
X73206707Y-45179310D01*
X73128199Y-45248863D01*
X73030899Y-45389825D01*
X72970164Y-45549972D01*
X72949520Y-45720000D01*
X71755500Y-45720000D01*
X71755500Y-43675157D01*
X71755528Y-43675014D01*
X71755524Y-43675014D01*
X71755539Y-43650002D01*
X71755541Y-43650000D01*
X71755383Y-43649617D01*
X71755379Y-43649615D01*
X71755097Y-43649499D01*
X71755000Y-43649459D01*
X71730048Y-43649459D01*
X71729842Y-43649500D01*
X58302158Y-43649500D01*
X58301952Y-43649459D01*
X58276999Y-43649459D01*
X58276900Y-43649500D01*
X58276618Y-43649615D01*
X58276617Y-43649617D01*
X58276459Y-43650000D01*
X58276476Y-43675014D01*
X58276471Y-43675014D01*
X58276500Y-43675157D01*
X58276500Y-58325072D01*
X58276415Y-58325500D01*
X56740774Y-58325500D01*
X56851727Y-58240363D01*
X56940736Y-58124364D01*
X56996689Y-57989280D01*
X57015774Y-57844318D01*
X56996689Y-57699356D01*
X56940736Y-57564272D01*
X56851727Y-57448273D01*
X56735728Y-57359264D01*
X56735726Y-57359263D01*
X56596346Y-57301530D01*
X56541065Y-57256982D01*
X56518644Y-57189618D01*
X56536202Y-57120827D01*
X56588164Y-57072449D01*
X56628117Y-57060199D01*
X56659962Y-57056007D01*
X56795046Y-57000054D01*
X56911045Y-56911045D01*
X57000054Y-56795046D01*
X57056007Y-56659962D01*
X57075092Y-56515000D01*
X57056007Y-56370038D01*
X57000054Y-56234954D01*
X56911045Y-56118955D01*
X56795046Y-56029946D01*
X56795044Y-56029945D01*
X56659961Y-55973992D01*
X56515000Y-55954908D01*
X56370038Y-55973992D01*
X56234955Y-56029945D01*
X56118955Y-56118955D01*
X56029945Y-56234955D01*
X55973992Y-56370038D01*
X55954908Y-56515000D01*
X55973992Y-56659961D01*
X56022380Y-56776780D01*
X56029946Y-56795046D01*
X56118955Y-56911045D01*
X56234954Y-57000054D01*
X56303924Y-57028622D01*
X56374335Y-57057787D01*
X56429616Y-57102335D01*
X56452037Y-57169699D01*
X56434479Y-57238490D01*
X56382517Y-57286868D01*
X56342565Y-57299118D01*
X56310719Y-57303310D01*
X56175637Y-57359263D01*
X56059637Y-57448273D01*
X55970627Y-57564273D01*
X55914674Y-57699356D01*
X55895590Y-57844318D01*
X29901577Y-57844318D01*
X29899835Y-57829971D01*
X29839099Y-57669823D01*
X29741802Y-57528865D01*
X29630259Y-57430046D01*
X29613598Y-57415285D01*
X29506855Y-57359263D01*
X29461940Y-57335690D01*
X29295639Y-57294700D01*
X29124361Y-57294700D01*
X28958060Y-57335690D01*
X28958058Y-57335690D01*
X28958058Y-57335691D01*
X28806401Y-57415285D01*
X28678199Y-57528863D01*
X28580899Y-57669825D01*
X28520164Y-57829972D01*
X28499520Y-57999999D01*
X20000500Y-57999999D01*
X20000500Y-57149999D01*
X53414908Y-57149999D01*
X53433992Y-57294961D01*
X53460627Y-57359263D01*
X53489946Y-57430046D01*
X53578955Y-57546045D01*
X53694954Y-57635054D01*
X53830038Y-57691007D01*
X53975000Y-57710092D01*
X54119962Y-57691007D01*
X54255046Y-57635054D01*
X54371045Y-57546045D01*
X54460054Y-57430046D01*
X54493591Y-57349078D01*
X54538139Y-57293798D01*
X54605502Y-57271377D01*
X54674294Y-57288935D01*
X54722672Y-57340897D01*
X54726406Y-57349073D01*
X54759946Y-57430046D01*
X54848955Y-57546045D01*
X54964954Y-57635054D01*
X55100038Y-57691007D01*
X55245000Y-57710092D01*
X55389962Y-57691007D01*
X55525046Y-57635054D01*
X55641045Y-57546045D01*
X55730054Y-57430046D01*
X55786007Y-57294962D01*
X55805092Y-57150000D01*
X55786007Y-57005038D01*
X55730054Y-56869954D01*
X55641045Y-56753955D01*
X55525046Y-56664946D01*
X55525044Y-56664945D01*
X55389961Y-56608992D01*
X55245000Y-56589908D01*
X55100038Y-56608992D01*
X54964955Y-56664945D01*
X54848955Y-56753955D01*
X54759945Y-56869955D01*
X54726409Y-56950920D01*
X54681861Y-57006201D01*
X54614497Y-57028622D01*
X54545706Y-57011064D01*
X54497328Y-56959102D01*
X54493591Y-56950920D01*
X54460054Y-56869955D01*
X54460054Y-56869954D01*
X54371045Y-56753955D01*
X54255046Y-56664946D01*
X54255044Y-56664945D01*
X54119961Y-56608992D01*
X53975000Y-56589908D01*
X53830038Y-56608992D01*
X53694955Y-56664945D01*
X53578955Y-56753955D01*
X53489945Y-56869955D01*
X53433992Y-57005038D01*
X53414908Y-57149999D01*
X20000500Y-57149999D01*
X20000500Y-57126500D01*
X20020502Y-57058379D01*
X20074158Y-57011886D01*
X20126500Y-57000500D01*
X34974842Y-57000500D01*
X34974985Y-57000528D01*
X34974986Y-57000524D01*
X34999997Y-57000539D01*
X35000000Y-57000541D01*
X35000383Y-57000383D01*
X35000500Y-57000099D01*
X35000541Y-57000000D01*
X35000584Y-56975500D01*
X35000500Y-56975072D01*
X35000500Y-45719999D01*
X42619908Y-45719999D01*
X42638992Y-45864961D01*
X42694945Y-46000044D01*
X42694946Y-46000046D01*
X42783955Y-46116045D01*
X42899954Y-46205054D01*
X43035038Y-46261007D01*
X43180000Y-46280092D01*
X43324962Y-46261007D01*
X43460046Y-46205054D01*
X43576045Y-46116045D01*
X43665054Y-46000046D01*
X43721007Y-45864962D01*
X43740092Y-45720000D01*
X43721007Y-45575038D01*
X43665054Y-45439954D01*
X43576045Y-45323955D01*
X43460046Y-45234946D01*
X43460044Y-45234945D01*
X43324961Y-45178992D01*
X43199083Y-45162420D01*
X43180000Y-45159908D01*
X43179999Y-45159908D01*
X43035038Y-45178992D01*
X42899955Y-45234945D01*
X42783955Y-45323955D01*
X42694945Y-45439955D01*
X42638992Y-45575038D01*
X42619908Y-45719999D01*
X35000500Y-45719999D01*
X35000500Y-45085000D01*
X43889908Y-45085000D01*
X43908992Y-45229961D01*
X43964945Y-45365044D01*
X43964946Y-45365046D01*
X44053955Y-45481045D01*
X44169954Y-45570054D01*
X44305038Y-45626007D01*
X44450000Y-45645092D01*
X44594962Y-45626007D01*
X44730046Y-45570054D01*
X44846045Y-45481045D01*
X44935054Y-45365046D01*
X44991007Y-45229962D01*
X45010092Y-45085000D01*
X46429908Y-45085000D01*
X46448992Y-45229961D01*
X46504945Y-45365044D01*
X46504946Y-45365046D01*
X46593955Y-45481045D01*
X46709954Y-45570054D01*
X46845038Y-45626007D01*
X46990000Y-45645092D01*
X47134962Y-45626007D01*
X47270046Y-45570054D01*
X47386045Y-45481045D01*
X47475054Y-45365046D01*
X47531007Y-45229962D01*
X47550092Y-45085000D01*
X48334908Y-45085000D01*
X48353992Y-45229961D01*
X48409945Y-45365044D01*
X48409946Y-45365046D01*
X48498955Y-45481045D01*
X48614954Y-45570054D01*
X48750038Y-45626007D01*
X48895000Y-45645092D01*
X49039962Y-45626007D01*
X49175046Y-45570054D01*
X49291045Y-45481045D01*
X49380054Y-45365046D01*
X49436007Y-45229962D01*
X49455092Y-45085000D01*
X52779908Y-45085000D01*
X52798992Y-45229961D01*
X52854945Y-45365044D01*
X52854946Y-45365046D01*
X52943955Y-45481045D01*
X53059954Y-45570054D01*
X53195038Y-45626007D01*
X53310339Y-45641187D01*
X53375264Y-45669908D01*
X53414356Y-45729173D01*
X53418813Y-45749662D01*
X53433992Y-45864961D01*
X53489945Y-46000044D01*
X53489946Y-46000046D01*
X53578955Y-46116045D01*
X53694954Y-46205054D01*
X53830038Y-46261007D01*
X53975000Y-46280092D01*
X54119962Y-46261007D01*
X54255046Y-46205054D01*
X54371045Y-46116045D01*
X54460054Y-46000046D01*
X54516007Y-45864962D01*
X54535092Y-45720000D01*
X54516007Y-45575038D01*
X54460054Y-45439954D01*
X54371045Y-45323955D01*
X54255046Y-45234946D01*
X54255044Y-45234945D01*
X54119961Y-45178992D01*
X54004662Y-45163813D01*
X53939734Y-45135090D01*
X53900643Y-45075825D01*
X53896187Y-45055345D01*
X53881007Y-44940038D01*
X53825054Y-44804954D01*
X53736045Y-44688955D01*
X53620046Y-44599946D01*
X53620044Y-44599945D01*
X53484961Y-44543992D01*
X53340000Y-44524908D01*
X53195038Y-44543992D01*
X53059955Y-44599945D01*
X52943955Y-44688955D01*
X52854945Y-44804955D01*
X52798992Y-44940038D01*
X52779908Y-45085000D01*
X49455092Y-45085000D01*
X49436007Y-44940038D01*
X49380054Y-44804954D01*
X49291045Y-44688955D01*
X49175046Y-44599946D01*
X49175044Y-44599945D01*
X49039961Y-44543992D01*
X48895000Y-44524908D01*
X48750038Y-44543992D01*
X48614955Y-44599945D01*
X48498955Y-44688955D01*
X48409945Y-44804955D01*
X48353992Y-44940038D01*
X48334908Y-45085000D01*
X47550092Y-45085000D01*
X47531007Y-44940038D01*
X47475054Y-44804954D01*
X47386045Y-44688955D01*
X47270046Y-44599946D01*
X47270044Y-44599945D01*
X47134961Y-44543992D01*
X47009084Y-44527420D01*
X46990000Y-44524908D01*
X46989999Y-44524908D01*
X46845038Y-44543992D01*
X46709955Y-44599945D01*
X46593955Y-44688955D01*
X46504945Y-44804955D01*
X46448992Y-44940038D01*
X46429908Y-45085000D01*
X45010092Y-45085000D01*
X44991007Y-44940038D01*
X44935054Y-44804954D01*
X44846045Y-44688955D01*
X44730046Y-44599946D01*
X44730044Y-44599945D01*
X44594961Y-44543992D01*
X44469084Y-44527420D01*
X44450000Y-44524908D01*
X44449999Y-44524908D01*
X44305038Y-44543992D01*
X44169955Y-44599945D01*
X44053955Y-44688955D01*
X43964945Y-44804955D01*
X43908992Y-44940038D01*
X43889908Y-45085000D01*
X35000500Y-45085000D01*
X35000500Y-45025157D01*
X35000528Y-45025014D01*
X35000524Y-45025014D01*
X35000539Y-45000002D01*
X35000541Y-45000000D01*
X35000383Y-44999617D01*
X35000099Y-44999500D01*
X35000000Y-44999459D01*
X34975048Y-44999459D01*
X34974842Y-44999500D01*
X20126500Y-44999500D01*
X20058379Y-44979498D01*
X20011886Y-44925842D01*
X20000500Y-44873500D01*
X20000500Y-43684545D01*
X37035362Y-43684545D01*
X37054446Y-43829507D01*
X37097314Y-43933000D01*
X37110400Y-43964592D01*
X37199409Y-44080591D01*
X37315408Y-44169600D01*
X37450492Y-44225553D01*
X37595454Y-44244638D01*
X37740416Y-44225553D01*
X37875500Y-44169600D01*
X37991499Y-44080591D01*
X38080508Y-43964592D01*
X38136461Y-43829508D01*
X38155546Y-43684546D01*
X38136461Y-43539584D01*
X38080508Y-43404500D01*
X37991499Y-43288501D01*
X37875500Y-43199492D01*
X37875498Y-43199491D01*
X37740415Y-43143538D01*
X37614537Y-43126966D01*
X37595454Y-43124454D01*
X37595453Y-43124454D01*
X37450492Y-43143538D01*
X37315409Y-43199491D01*
X37199409Y-43288501D01*
X37110399Y-43404501D01*
X37054446Y-43539584D01*
X37035362Y-43684545D01*
X20000500Y-43684545D01*
X20000500Y-42545000D01*
X93419908Y-42545000D01*
X93438992Y-42689961D01*
X93494945Y-42825044D01*
X93494946Y-42825046D01*
X93583955Y-42941045D01*
X93699954Y-43030054D01*
X93835038Y-43086007D01*
X93980000Y-43105092D01*
X94124962Y-43086007D01*
X94260046Y-43030054D01*
X94376045Y-42941045D01*
X94465054Y-42825046D01*
X94521007Y-42689962D01*
X94540092Y-42545000D01*
X94521007Y-42400038D01*
X94465054Y-42264954D01*
X94376045Y-42148955D01*
X94260046Y-42059946D01*
X94260044Y-42059945D01*
X94124961Y-42003992D01*
X93980000Y-41984908D01*
X93835038Y-42003992D01*
X93699955Y-42059945D01*
X93583955Y-42148955D01*
X93494945Y-42264955D01*
X93438992Y-42400038D01*
X93419908Y-42545000D01*
X20000500Y-42545000D01*
X20000500Y-40640000D01*
X73584520Y-40640000D01*
X73605164Y-40810027D01*
X73665899Y-40970174D01*
X73665900Y-40970176D01*
X73665901Y-40970177D01*
X73763198Y-41111135D01*
X73891401Y-41224714D01*
X74043060Y-41304310D01*
X74209361Y-41345300D01*
X74209363Y-41345300D01*
X74380637Y-41345300D01*
X74380639Y-41345300D01*
X74546940Y-41304310D01*
X74698599Y-41224714D01*
X74826802Y-41111135D01*
X74826802Y-41111134D01*
X74838253Y-41100990D01*
X74838862Y-41101678D01*
X74881461Y-41067157D01*
X74952029Y-41059373D01*
X75015604Y-41090977D01*
X75032652Y-41110651D01*
X75033197Y-41111134D01*
X75033198Y-41111135D01*
X75161401Y-41224714D01*
X75313060Y-41304310D01*
X75479361Y-41345300D01*
X75479363Y-41345300D01*
X75650637Y-41345300D01*
X75650639Y-41345300D01*
X75816940Y-41304310D01*
X75872788Y-41274999D01*
X96594908Y-41274999D01*
X96613992Y-41419961D01*
X96669945Y-41555044D01*
X96669946Y-41555046D01*
X96758955Y-41671045D01*
X96874954Y-41760054D01*
X97010038Y-41816007D01*
X97155000Y-41835092D01*
X97299962Y-41816007D01*
X97435046Y-41760054D01*
X97551045Y-41671045D01*
X97640054Y-41555046D01*
X97696007Y-41419962D01*
X97715092Y-41275000D01*
X97696007Y-41130038D01*
X97640054Y-40994954D01*
X97551045Y-40878955D01*
X97435046Y-40789946D01*
X97435044Y-40789945D01*
X97299961Y-40733992D01*
X97155000Y-40714908D01*
X97010038Y-40733992D01*
X96874955Y-40789945D01*
X96758955Y-40878955D01*
X96669945Y-40994955D01*
X96613992Y-41130038D01*
X96594908Y-41274999D01*
X75872788Y-41274999D01*
X75968599Y-41224714D01*
X76096802Y-41111135D01*
X76194099Y-40970177D01*
X76254835Y-40810029D01*
X76275480Y-40640000D01*
X76254835Y-40469971D01*
X76194099Y-40309823D01*
X76096802Y-40168865D01*
X75968599Y-40055286D01*
X75968598Y-40055285D01*
X75892769Y-40015488D01*
X75816940Y-39975690D01*
X75650639Y-39934700D01*
X75479361Y-39934700D01*
X75313060Y-39975690D01*
X75313058Y-39975690D01*
X75313058Y-39975691D01*
X75161401Y-40055285D01*
X75021747Y-40179010D01*
X75021137Y-40178321D01*
X74978535Y-40212844D01*
X74907966Y-40220625D01*
X74844393Y-40189019D01*
X74827349Y-40169350D01*
X74826799Y-40168863D01*
X74698599Y-40055286D01*
X74698598Y-40055285D01*
X74622769Y-40015488D01*
X74546940Y-39975690D01*
X74380639Y-39934700D01*
X74209361Y-39934700D01*
X74043060Y-39975690D01*
X74043058Y-39975690D01*
X74043058Y-39975691D01*
X73891401Y-40055285D01*
X73763199Y-40168863D01*
X73665899Y-40309825D01*
X73605164Y-40469972D01*
X73584520Y-40640000D01*
X20000500Y-40640000D01*
X20000500Y-39058848D01*
X31662481Y-39058848D01*
X31681565Y-39203810D01*
X31690358Y-39225038D01*
X31737519Y-39338895D01*
X31826528Y-39454894D01*
X31942527Y-39543903D01*
X32077611Y-39599856D01*
X32222573Y-39618941D01*
X32367535Y-39599856D01*
X32502619Y-39543903D01*
X32618618Y-39454894D01*
X32683759Y-39370000D01*
X91514908Y-39370000D01*
X91533992Y-39514961D01*
X91577062Y-39618941D01*
X91589946Y-39650046D01*
X91678955Y-39766045D01*
X91794954Y-39855054D01*
X91930038Y-39911007D01*
X92075000Y-39930092D01*
X92219962Y-39911007D01*
X92355046Y-39855054D01*
X92471045Y-39766045D01*
X92560054Y-39650046D01*
X92616007Y-39514962D01*
X92635092Y-39370000D01*
X92616007Y-39225038D01*
X92560054Y-39089954D01*
X92471045Y-38973955D01*
X92355046Y-38884946D01*
X92355044Y-38884945D01*
X92219961Y-38828992D01*
X92075000Y-38809908D01*
X91930038Y-38828992D01*
X91794955Y-38884945D01*
X91678955Y-38973955D01*
X91589945Y-39089955D01*
X91533992Y-39225038D01*
X91514908Y-39370000D01*
X32683759Y-39370000D01*
X32707627Y-39338895D01*
X32763580Y-39203811D01*
X32782665Y-39058849D01*
X32763580Y-38913887D01*
X32707627Y-38778803D01*
X32674015Y-38734999D01*
X45794908Y-38734999D01*
X45813992Y-38879961D01*
X45869945Y-39015044D01*
X45869946Y-39015046D01*
X45958955Y-39131045D01*
X46074954Y-39220054D01*
X46210038Y-39276007D01*
X46355000Y-39295092D01*
X46499962Y-39276007D01*
X46635046Y-39220054D01*
X46751045Y-39131045D01*
X46840054Y-39015046D01*
X46873591Y-38934078D01*
X46918139Y-38878798D01*
X46985502Y-38856377D01*
X47054294Y-38873935D01*
X47102672Y-38925897D01*
X47106406Y-38934073D01*
X47139946Y-39015046D01*
X47228955Y-39131045D01*
X47344954Y-39220054D01*
X47480038Y-39276007D01*
X47625000Y-39295092D01*
X47769962Y-39276007D01*
X47905046Y-39220054D01*
X48021045Y-39131045D01*
X48110054Y-39015046D01*
X48166007Y-38879962D01*
X48185092Y-38735000D01*
X48166007Y-38590038D01*
X48110054Y-38454954D01*
X48021045Y-38338955D01*
X47905046Y-38249946D01*
X47905044Y-38249945D01*
X47769961Y-38193992D01*
X47625000Y-38174908D01*
X47480038Y-38193992D01*
X47344955Y-38249945D01*
X47228955Y-38338955D01*
X47139945Y-38454955D01*
X47106409Y-38535920D01*
X47061861Y-38591201D01*
X46994497Y-38613622D01*
X46925706Y-38596064D01*
X46877328Y-38544102D01*
X46873591Y-38535920D01*
X46864278Y-38513437D01*
X46840054Y-38454954D01*
X46751045Y-38338955D01*
X46635046Y-38249946D01*
X46635044Y-38249945D01*
X46499961Y-38193992D01*
X46374084Y-38177420D01*
X46355000Y-38174908D01*
X46354999Y-38174908D01*
X46210038Y-38193992D01*
X46074955Y-38249945D01*
X45958955Y-38338955D01*
X45869945Y-38454955D01*
X45813992Y-38590038D01*
X45794908Y-38734999D01*
X32674015Y-38734999D01*
X32618618Y-38662804D01*
X32502619Y-38573795D01*
X32502617Y-38573794D01*
X32367534Y-38517841D01*
X32222573Y-38498757D01*
X32077611Y-38517841D01*
X31942528Y-38573794D01*
X31826528Y-38662804D01*
X31737518Y-38778804D01*
X31681565Y-38913887D01*
X31662481Y-39058848D01*
X20000500Y-39058848D01*
X20000500Y-38100000D01*
X33094908Y-38100000D01*
X33113992Y-38244961D01*
X33169945Y-38380044D01*
X33169946Y-38380046D01*
X33258955Y-38496045D01*
X33374954Y-38585054D01*
X33510038Y-38641007D01*
X33655000Y-38660092D01*
X33799962Y-38641007D01*
X33935046Y-38585054D01*
X34051045Y-38496045D01*
X34140054Y-38380046D01*
X34196007Y-38244962D01*
X34215092Y-38100000D01*
X34196007Y-37955038D01*
X34140054Y-37819954D01*
X34051045Y-37703955D01*
X33935046Y-37614946D01*
X33935044Y-37614945D01*
X33799961Y-37558992D01*
X33655000Y-37539908D01*
X33510038Y-37558992D01*
X33374955Y-37614945D01*
X33258955Y-37703955D01*
X33169945Y-37819955D01*
X33113992Y-37955038D01*
X33094908Y-38100000D01*
X20000500Y-38100000D01*
X20000500Y-37465000D01*
X60399908Y-37465000D01*
X60418992Y-37609961D01*
X60474945Y-37745043D01*
X60474946Y-37745046D01*
X60563955Y-37861045D01*
X60679954Y-37950054D01*
X60815038Y-38006007D01*
X60960000Y-38025092D01*
X61104962Y-38006007D01*
X61240046Y-37950054D01*
X61356045Y-37861045D01*
X61445054Y-37745046D01*
X61478591Y-37664077D01*
X61523137Y-37608799D01*
X61590500Y-37586377D01*
X61659292Y-37603934D01*
X61707671Y-37655896D01*
X61711408Y-37664078D01*
X61744946Y-37745046D01*
X61833955Y-37861045D01*
X61949954Y-37950054D01*
X62085038Y-38006007D01*
X62230000Y-38025092D01*
X62374962Y-38006007D01*
X62510046Y-37950054D01*
X62626045Y-37861045D01*
X62715054Y-37745046D01*
X62771007Y-37609962D01*
X62790092Y-37465000D01*
X62771007Y-37320038D01*
X62715054Y-37184954D01*
X62626045Y-37068955D01*
X62510046Y-36979946D01*
X62510044Y-36979945D01*
X62374961Y-36923992D01*
X62230000Y-36904908D01*
X62085038Y-36923992D01*
X61949955Y-36979945D01*
X61833955Y-37068955D01*
X61744945Y-37184955D01*
X61711409Y-37265920D01*
X61666861Y-37321201D01*
X61599497Y-37343622D01*
X61530706Y-37326064D01*
X61482328Y-37274102D01*
X61478591Y-37265920D01*
X61445054Y-37184955D01*
X61445054Y-37184954D01*
X61356045Y-37068955D01*
X61240046Y-36979946D01*
X61240044Y-36979945D01*
X61104961Y-36923992D01*
X60960000Y-36904908D01*
X60815038Y-36923992D01*
X60679955Y-36979945D01*
X60563955Y-37068955D01*
X60474945Y-37184955D01*
X60418992Y-37320038D01*
X60399908Y-37465000D01*
X20000500Y-37465000D01*
X20000500Y-36275499D01*
X95809520Y-36275499D01*
X95830164Y-36445527D01*
X95890899Y-36605674D01*
X95890900Y-36605676D01*
X95890901Y-36605677D01*
X95988198Y-36746635D01*
X96116401Y-36860214D01*
X96268060Y-36939810D01*
X96434361Y-36980800D01*
X96434363Y-36980800D01*
X96605637Y-36980800D01*
X96605639Y-36980800D01*
X96771940Y-36939810D01*
X96923599Y-36860214D01*
X97051802Y-36746635D01*
X97149099Y-36605677D01*
X97209835Y-36445529D01*
X97230480Y-36275500D01*
X97209835Y-36105471D01*
X97149099Y-35945323D01*
X97051802Y-35804365D01*
X96923599Y-35690786D01*
X96923598Y-35690785D01*
X96847769Y-35650987D01*
X96771940Y-35611190D01*
X96605639Y-35570200D01*
X96434361Y-35570200D01*
X96268060Y-35611190D01*
X96268058Y-35611190D01*
X96268058Y-35611191D01*
X96116401Y-35690785D01*
X95988199Y-35804363D01*
X95890899Y-35945325D01*
X95830164Y-36105472D01*
X95809520Y-36275499D01*
X20000500Y-36275499D01*
X20000500Y-35507973D01*
X98984520Y-35507973D01*
X99005164Y-35678000D01*
X99065899Y-35838147D01*
X99065900Y-35838149D01*
X99065901Y-35838150D01*
X99163198Y-35979108D01*
X99291401Y-36092687D01*
X99443060Y-36172283D01*
X99609361Y-36213273D01*
X99609363Y-36213273D01*
X99780637Y-36213273D01*
X99780639Y-36213273D01*
X99946940Y-36172283D01*
X100098599Y-36092687D01*
X100226802Y-35979108D01*
X100324099Y-35838150D01*
X100384835Y-35678002D01*
X100405480Y-35507973D01*
X100384835Y-35337944D01*
X100324099Y-35177796D01*
X100226802Y-35036838D01*
X100098599Y-34923259D01*
X100098598Y-34923258D01*
X100022769Y-34883460D01*
X99946940Y-34843663D01*
X99780639Y-34802673D01*
X99609361Y-34802673D01*
X99443060Y-34843663D01*
X99443058Y-34843663D01*
X99443058Y-34843664D01*
X99291401Y-34923258D01*
X99163199Y-35036836D01*
X99065899Y-35177798D01*
X99005164Y-35337945D01*
X98984520Y-35507973D01*
X20000500Y-35507973D01*
X20000500Y-34925000D01*
X31824908Y-34925000D01*
X31843992Y-35069961D01*
X31899945Y-35205044D01*
X31899946Y-35205046D01*
X31988955Y-35321045D01*
X32104954Y-35410054D01*
X32240038Y-35466007D01*
X32385000Y-35485092D01*
X32529962Y-35466007D01*
X32665046Y-35410054D01*
X32781045Y-35321045D01*
X32870054Y-35205046D01*
X32926007Y-35069962D01*
X32945092Y-34925000D01*
X32926007Y-34780038D01*
X32870054Y-34644954D01*
X32781045Y-34528955D01*
X32665046Y-34439946D01*
X32665044Y-34439945D01*
X32529961Y-34383992D01*
X32385000Y-34364908D01*
X32240038Y-34383992D01*
X32104955Y-34439945D01*
X31988955Y-34528955D01*
X31899945Y-34644955D01*
X31843992Y-34780038D01*
X31824908Y-34925000D01*
X20000500Y-34925000D01*
X20000500Y-34289999D01*
X25474908Y-34289999D01*
X25493992Y-34434961D01*
X25549945Y-34570044D01*
X25549946Y-34570046D01*
X25638955Y-34686045D01*
X25754954Y-34775054D01*
X25890038Y-34831007D01*
X26035000Y-34850092D01*
X26179962Y-34831007D01*
X26315046Y-34775054D01*
X26431045Y-34686045D01*
X26520054Y-34570046D01*
X26576007Y-34434962D01*
X26595092Y-34290000D01*
X26595092Y-34289999D01*
X30554908Y-34289999D01*
X30573992Y-34434961D01*
X30629945Y-34570044D01*
X30629946Y-34570046D01*
X30718955Y-34686045D01*
X30834954Y-34775054D01*
X30970038Y-34831007D01*
X31115000Y-34850092D01*
X31259962Y-34831007D01*
X31395046Y-34775054D01*
X31511045Y-34686045D01*
X31600054Y-34570046D01*
X31656007Y-34434962D01*
X31675092Y-34290000D01*
X31656007Y-34145038D01*
X31600054Y-34009954D01*
X31563804Y-33962712D01*
X49804785Y-33962712D01*
X49913723Y-34007835D01*
X50049000Y-34025644D01*
X50184276Y-34007835D01*
X50293213Y-33962712D01*
X51104785Y-33962712D01*
X51213723Y-34007835D01*
X51349000Y-34025644D01*
X51484276Y-34007835D01*
X51593213Y-33962712D01*
X52404785Y-33962712D01*
X52513723Y-34007835D01*
X52649000Y-34025644D01*
X52784276Y-34007835D01*
X52893213Y-33962712D01*
X52893213Y-33962711D01*
X52785214Y-33854712D01*
X64844785Y-33854712D01*
X64953723Y-33899835D01*
X65089000Y-33917644D01*
X65224276Y-33899835D01*
X65333213Y-33854712D01*
X66144785Y-33854712D01*
X66253723Y-33899835D01*
X66389000Y-33917644D01*
X66524276Y-33899835D01*
X66633213Y-33854712D01*
X67444786Y-33854712D01*
X67553723Y-33899835D01*
X67689000Y-33917644D01*
X67824276Y-33899835D01*
X67933213Y-33854712D01*
X67933213Y-33854711D01*
X67917214Y-33838712D01*
X80164786Y-33838712D01*
X80273723Y-33883835D01*
X80409000Y-33901644D01*
X80544276Y-33883835D01*
X80653213Y-33838712D01*
X81464785Y-33838712D01*
X81573723Y-33883835D01*
X81709000Y-33901644D01*
X81844276Y-33883835D01*
X81953213Y-33838712D01*
X82764785Y-33838712D01*
X82873723Y-33883835D01*
X83009000Y-33901644D01*
X83144276Y-33883835D01*
X83253213Y-33838712D01*
X83253213Y-33838711D01*
X83009001Y-33594499D01*
X83009000Y-33594499D01*
X82764785Y-33838712D01*
X81953213Y-33838712D01*
X81953213Y-33838711D01*
X81709001Y-33594499D01*
X81709000Y-33594499D01*
X81464785Y-33838712D01*
X80653213Y-33838712D01*
X80653213Y-33838711D01*
X80409001Y-33594499D01*
X80409000Y-33594499D01*
X80164786Y-33838712D01*
X67917214Y-33838712D01*
X67689001Y-33610499D01*
X67689000Y-33610499D01*
X67444786Y-33854712D01*
X66633213Y-33854712D01*
X66633213Y-33854711D01*
X66389001Y-33610499D01*
X66389000Y-33610499D01*
X66144785Y-33854712D01*
X65333213Y-33854712D01*
X65333213Y-33854711D01*
X65089001Y-33610499D01*
X65089000Y-33610499D01*
X64844785Y-33854712D01*
X52785214Y-33854712D01*
X52649001Y-33718499D01*
X52649000Y-33718499D01*
X52404785Y-33962712D01*
X51593213Y-33962712D01*
X51593213Y-33962711D01*
X51349001Y-33718499D01*
X51349000Y-33718499D01*
X51104785Y-33962712D01*
X50293213Y-33962712D01*
X50293213Y-33962711D01*
X50049001Y-33718499D01*
X50049000Y-33718499D01*
X49804785Y-33962712D01*
X31563804Y-33962712D01*
X31511045Y-33893955D01*
X31439051Y-33838712D01*
X34556785Y-33838712D01*
X34665723Y-33883835D01*
X34801000Y-33901644D01*
X34936276Y-33883835D01*
X35045213Y-33838712D01*
X35856785Y-33838712D01*
X35965723Y-33883835D01*
X36101000Y-33901644D01*
X36236276Y-33883835D01*
X36345213Y-33838712D01*
X37156785Y-33838712D01*
X37265723Y-33883835D01*
X37401000Y-33901644D01*
X37536276Y-33883835D01*
X37645213Y-33838712D01*
X37645213Y-33838711D01*
X37401001Y-33594499D01*
X37401000Y-33594499D01*
X37156785Y-33838712D01*
X36345213Y-33838712D01*
X36345213Y-33838711D01*
X36101001Y-33594499D01*
X36101000Y-33594499D01*
X35856785Y-33838712D01*
X35045213Y-33838712D01*
X35045213Y-33838711D01*
X34801001Y-33594499D01*
X34801000Y-33594499D01*
X34556785Y-33838712D01*
X31439051Y-33838712D01*
X31395046Y-33804946D01*
X31317926Y-33773002D01*
X31259961Y-33748992D01*
X31115000Y-33729908D01*
X30970038Y-33748992D01*
X30834955Y-33804945D01*
X30718955Y-33893955D01*
X30629945Y-34009955D01*
X30573992Y-34145038D01*
X30554908Y-34289999D01*
X26595092Y-34289999D01*
X26576007Y-34145038D01*
X26520054Y-34009954D01*
X26431045Y-33893955D01*
X26315046Y-33804946D01*
X26237926Y-33773002D01*
X26179961Y-33748992D01*
X26035000Y-33729908D01*
X25890038Y-33748992D01*
X25754955Y-33804945D01*
X25638955Y-33893955D01*
X25549945Y-34009955D01*
X25493992Y-34145038D01*
X25474908Y-34289999D01*
X20000500Y-34289999D01*
X20000500Y-33378972D01*
X34278328Y-33378972D01*
X34296137Y-33514250D01*
X34341260Y-33623186D01*
X34585474Y-33378972D01*
X34564991Y-33358489D01*
X34632301Y-33358489D01*
X34642105Y-33439234D01*
X34688310Y-33506173D01*
X34760331Y-33543973D01*
X34821035Y-33543973D01*
X34879974Y-33529446D01*
X34940856Y-33475509D01*
X34969699Y-33399457D01*
X34967212Y-33378974D01*
X35016526Y-33378974D01*
X35260738Y-33623186D01*
X35260739Y-33623186D01*
X35305862Y-33514249D01*
X35323671Y-33378973D01*
X35578328Y-33378973D01*
X35596137Y-33514250D01*
X35641259Y-33623186D01*
X35641260Y-33623186D01*
X35885474Y-33378972D01*
X35864991Y-33358489D01*
X35932301Y-33358489D01*
X35942105Y-33439234D01*
X35988310Y-33506173D01*
X36060331Y-33543973D01*
X36121035Y-33543973D01*
X36179974Y-33529446D01*
X36240856Y-33475509D01*
X36269699Y-33399457D01*
X36267212Y-33378974D01*
X36316526Y-33378974D01*
X36560738Y-33623186D01*
X36560739Y-33623186D01*
X36605862Y-33514249D01*
X36623671Y-33378973D01*
X36878328Y-33378973D01*
X36896137Y-33514250D01*
X36941259Y-33623186D01*
X36941260Y-33623186D01*
X37185474Y-33378972D01*
X37185474Y-33378971D01*
X37164992Y-33358489D01*
X37232301Y-33358489D01*
X37242105Y-33439234D01*
X37288310Y-33506173D01*
X37360331Y-33543973D01*
X37421035Y-33543973D01*
X37479974Y-33529446D01*
X37540856Y-33475509D01*
X37569699Y-33399457D01*
X37567212Y-33378974D01*
X37616526Y-33378974D01*
X37860738Y-33623186D01*
X37860739Y-33623186D01*
X37905862Y-33514249D01*
X37907346Y-33502973D01*
X49526328Y-33502973D01*
X49544137Y-33638250D01*
X49589259Y-33747186D01*
X49589260Y-33747186D01*
X49833474Y-33502972D01*
X49812991Y-33482489D01*
X49880301Y-33482489D01*
X49890105Y-33563234D01*
X49936310Y-33630173D01*
X50008331Y-33667973D01*
X50069035Y-33667973D01*
X50127974Y-33653446D01*
X50188856Y-33599509D01*
X50217699Y-33523457D01*
X50215212Y-33502972D01*
X50264525Y-33502972D01*
X50508738Y-33747186D01*
X50508739Y-33747186D01*
X50553862Y-33638249D01*
X50571671Y-33502973D01*
X50826328Y-33502973D01*
X50844137Y-33638250D01*
X50889259Y-33747186D01*
X50889260Y-33747186D01*
X51133474Y-33502972D01*
X51112991Y-33482489D01*
X51180301Y-33482489D01*
X51190105Y-33563234D01*
X51236310Y-33630173D01*
X51308331Y-33667973D01*
X51369035Y-33667973D01*
X51427974Y-33653446D01*
X51488856Y-33599509D01*
X51517699Y-33523457D01*
X51515212Y-33502974D01*
X51564526Y-33502974D01*
X51808738Y-33747186D01*
X51808739Y-33747186D01*
X51853862Y-33638249D01*
X51871671Y-33502973D01*
X52126328Y-33502973D01*
X52144137Y-33638250D01*
X52189259Y-33747186D01*
X52189260Y-33747186D01*
X52433474Y-33502972D01*
X52433474Y-33502971D01*
X52412992Y-33482489D01*
X52480301Y-33482489D01*
X52490105Y-33563234D01*
X52536310Y-33630173D01*
X52608331Y-33667973D01*
X52669035Y-33667973D01*
X52727974Y-33653446D01*
X52788856Y-33599509D01*
X52817699Y-33523457D01*
X52815212Y-33502974D01*
X52864526Y-33502974D01*
X53108738Y-33747186D01*
X53108739Y-33747186D01*
X53153862Y-33638249D01*
X53171671Y-33502973D01*
X53157453Y-33394973D01*
X64566328Y-33394973D01*
X64584137Y-33530250D01*
X64629260Y-33639186D01*
X64873474Y-33394972D01*
X64852991Y-33374489D01*
X64920301Y-33374489D01*
X64930105Y-33455234D01*
X64976310Y-33522173D01*
X65048331Y-33559973D01*
X65109035Y-33559973D01*
X65167974Y-33545446D01*
X65228856Y-33491509D01*
X65257699Y-33415457D01*
X65255212Y-33394974D01*
X65304526Y-33394974D01*
X65548738Y-33639186D01*
X65548739Y-33639186D01*
X65593862Y-33530249D01*
X65611671Y-33394973D01*
X65866328Y-33394973D01*
X65884137Y-33530250D01*
X65929259Y-33639186D01*
X65929260Y-33639186D01*
X66173474Y-33394972D01*
X66152991Y-33374489D01*
X66220301Y-33374489D01*
X66230105Y-33455234D01*
X66276310Y-33522173D01*
X66348331Y-33559973D01*
X66409035Y-33559973D01*
X66467974Y-33545446D01*
X66528856Y-33491509D01*
X66557699Y-33415457D01*
X66555212Y-33394974D01*
X66604526Y-33394974D01*
X66848738Y-33639186D01*
X66848739Y-33639186D01*
X66893862Y-33530249D01*
X66911671Y-33394973D01*
X66911671Y-33394972D01*
X67166328Y-33394972D01*
X67184137Y-33530250D01*
X67229259Y-33639186D01*
X67229260Y-33639186D01*
X67473474Y-33394972D01*
X67473474Y-33394971D01*
X67452992Y-33374489D01*
X67520301Y-33374489D01*
X67530105Y-33455234D01*
X67576310Y-33522173D01*
X67648331Y-33559973D01*
X67709035Y-33559973D01*
X67767974Y-33545446D01*
X67828856Y-33491509D01*
X67857699Y-33415457D01*
X67855212Y-33394972D01*
X67904526Y-33394972D01*
X68148738Y-33639185D01*
X68193862Y-33530247D01*
X68211671Y-33394973D01*
X68209565Y-33378973D01*
X79886328Y-33378973D01*
X79904137Y-33514250D01*
X79949260Y-33623186D01*
X80193474Y-33378972D01*
X80172991Y-33358489D01*
X80240301Y-33358489D01*
X80250105Y-33439234D01*
X80296310Y-33506173D01*
X80368331Y-33543973D01*
X80429035Y-33543973D01*
X80487974Y-33529446D01*
X80548856Y-33475509D01*
X80577699Y-33399457D01*
X80575212Y-33378974D01*
X80624526Y-33378974D01*
X80868738Y-33623186D01*
X80868739Y-33623186D01*
X80913862Y-33514249D01*
X80931671Y-33378973D01*
X81186328Y-33378973D01*
X81204137Y-33514250D01*
X81249259Y-33623186D01*
X81493474Y-33378972D01*
X81472991Y-33358489D01*
X81540301Y-33358489D01*
X81550105Y-33439234D01*
X81596310Y-33506173D01*
X81668331Y-33543973D01*
X81729035Y-33543973D01*
X81787974Y-33529446D01*
X81848856Y-33475509D01*
X81877699Y-33399457D01*
X81875212Y-33378973D01*
X81924525Y-33378973D01*
X82168738Y-33623186D01*
X82168739Y-33623186D01*
X82213862Y-33514249D01*
X82231671Y-33378973D01*
X82486328Y-33378973D01*
X82504137Y-33514250D01*
X82549259Y-33623186D01*
X82793474Y-33378972D01*
X82793474Y-33378971D01*
X82772992Y-33358489D01*
X82840301Y-33358489D01*
X82850105Y-33439234D01*
X82896310Y-33506173D01*
X82968331Y-33543973D01*
X83029035Y-33543973D01*
X83087974Y-33529446D01*
X83148856Y-33475509D01*
X83177699Y-33399457D01*
X83175212Y-33378974D01*
X83224526Y-33378974D01*
X83468738Y-33623186D01*
X83468739Y-33623186D01*
X83477112Y-33602972D01*
X104699520Y-33602972D01*
X104720164Y-33773000D01*
X104780899Y-33933147D01*
X104780900Y-33933149D01*
X104780901Y-33933150D01*
X104878198Y-34074108D01*
X105006401Y-34187687D01*
X105158060Y-34267283D01*
X105324361Y-34308273D01*
X105324363Y-34308273D01*
X105495637Y-34308273D01*
X105495639Y-34308273D01*
X105661940Y-34267283D01*
X105813599Y-34187687D01*
X105941802Y-34074108D01*
X106039099Y-33933150D01*
X106099835Y-33773002D01*
X106120480Y-33602973D01*
X106099835Y-33432944D01*
X106048823Y-33298437D01*
X106039100Y-33272798D01*
X106039099Y-33272796D01*
X105941802Y-33131838D01*
X105841787Y-33043232D01*
X105813598Y-33018258D01*
X105737769Y-32978460D01*
X105661940Y-32938663D01*
X105495639Y-32897673D01*
X105324361Y-32897673D01*
X105158060Y-32938663D01*
X105158058Y-32938663D01*
X105158058Y-32938664D01*
X105006401Y-33018258D01*
X104878199Y-33131836D01*
X104780899Y-33272798D01*
X104720164Y-33432945D01*
X104699520Y-33602972D01*
X83477112Y-33602972D01*
X83513862Y-33514249D01*
X83531671Y-33378973D01*
X83513862Y-33243696D01*
X83468739Y-33134759D01*
X83224526Y-33378972D01*
X83224526Y-33378974D01*
X83175212Y-33378974D01*
X83167895Y-33318712D01*
X83121690Y-33251773D01*
X83049669Y-33213973D01*
X82988965Y-33213973D01*
X82930026Y-33228500D01*
X82869144Y-33282437D01*
X82840301Y-33358489D01*
X82772992Y-33358489D01*
X82549261Y-33134759D01*
X82549259Y-33134759D01*
X82504137Y-33243695D01*
X82486328Y-33378973D01*
X82231671Y-33378973D01*
X82213862Y-33243696D01*
X82168739Y-33134758D01*
X82168738Y-33134758D01*
X81924525Y-33378972D01*
X81924525Y-33378973D01*
X81875212Y-33378973D01*
X81867895Y-33318712D01*
X81821690Y-33251773D01*
X81749669Y-33213973D01*
X81688965Y-33213973D01*
X81630026Y-33228500D01*
X81569144Y-33282437D01*
X81540301Y-33358489D01*
X81472991Y-33358489D01*
X81249261Y-33134759D01*
X81249259Y-33134759D01*
X81204137Y-33243695D01*
X81186328Y-33378973D01*
X80931671Y-33378973D01*
X80913862Y-33243696D01*
X80868739Y-33134759D01*
X80624526Y-33378972D01*
X80624526Y-33378974D01*
X80575212Y-33378974D01*
X80567895Y-33318712D01*
X80521690Y-33251773D01*
X80449669Y-33213973D01*
X80388965Y-33213973D01*
X80330026Y-33228500D01*
X80269144Y-33282437D01*
X80240301Y-33358489D01*
X80172991Y-33358489D01*
X79949259Y-33134759D01*
X79904137Y-33243695D01*
X79886328Y-33378973D01*
X68209565Y-33378973D01*
X68193862Y-33259696D01*
X68148738Y-33150758D01*
X67904526Y-33394971D01*
X67904526Y-33394972D01*
X67855212Y-33394972D01*
X67847895Y-33334712D01*
X67801690Y-33267773D01*
X67729669Y-33229973D01*
X67668965Y-33229973D01*
X67610026Y-33244500D01*
X67549144Y-33298437D01*
X67520301Y-33374489D01*
X67452992Y-33374489D01*
X67229261Y-33150759D01*
X67229259Y-33150759D01*
X67184137Y-33259695D01*
X67166328Y-33394972D01*
X66911671Y-33394972D01*
X66893862Y-33259696D01*
X66848739Y-33150759D01*
X66604526Y-33394972D01*
X66604526Y-33394974D01*
X66555212Y-33394974D01*
X66547895Y-33334712D01*
X66501690Y-33267773D01*
X66429669Y-33229973D01*
X66368965Y-33229973D01*
X66310026Y-33244500D01*
X66249144Y-33298437D01*
X66220301Y-33374489D01*
X66152991Y-33374489D01*
X65929261Y-33150759D01*
X65929259Y-33150759D01*
X65884137Y-33259695D01*
X65866328Y-33394973D01*
X65611671Y-33394973D01*
X65593862Y-33259696D01*
X65548739Y-33150759D01*
X65304526Y-33394972D01*
X65304526Y-33394974D01*
X65255212Y-33394974D01*
X65247895Y-33334712D01*
X65201690Y-33267773D01*
X65129669Y-33229973D01*
X65068965Y-33229973D01*
X65010026Y-33244500D01*
X64949144Y-33298437D01*
X64920301Y-33374489D01*
X64852991Y-33374489D01*
X64629259Y-33150759D01*
X64584137Y-33259695D01*
X64566328Y-33394973D01*
X53157453Y-33394973D01*
X53153862Y-33367696D01*
X53108739Y-33258759D01*
X52864526Y-33502972D01*
X52864526Y-33502974D01*
X52815212Y-33502974D01*
X52807895Y-33442712D01*
X52761690Y-33375773D01*
X52689669Y-33337973D01*
X52628965Y-33337973D01*
X52570026Y-33352500D01*
X52509144Y-33406437D01*
X52480301Y-33482489D01*
X52412992Y-33482489D01*
X52189261Y-33258759D01*
X52189259Y-33258759D01*
X52144137Y-33367695D01*
X52126328Y-33502973D01*
X51871671Y-33502973D01*
X51853862Y-33367696D01*
X51808739Y-33258759D01*
X51564526Y-33502972D01*
X51564526Y-33502974D01*
X51515212Y-33502974D01*
X51507895Y-33442712D01*
X51461690Y-33375773D01*
X51389669Y-33337973D01*
X51328965Y-33337973D01*
X51270026Y-33352500D01*
X51209144Y-33406437D01*
X51180301Y-33482489D01*
X51112991Y-33482489D01*
X50889261Y-33258759D01*
X50889259Y-33258759D01*
X50844137Y-33367695D01*
X50826328Y-33502973D01*
X50571671Y-33502973D01*
X50553862Y-33367696D01*
X50508739Y-33258758D01*
X50508738Y-33258758D01*
X50264525Y-33502972D01*
X50215212Y-33502972D01*
X50207895Y-33442712D01*
X50161690Y-33375773D01*
X50089669Y-33337973D01*
X50028965Y-33337973D01*
X49970026Y-33352500D01*
X49909144Y-33406437D01*
X49880301Y-33482489D01*
X49812991Y-33482489D01*
X49589261Y-33258759D01*
X49589259Y-33258759D01*
X49544137Y-33367695D01*
X49526328Y-33502973D01*
X37907346Y-33502973D01*
X37923671Y-33378972D01*
X37905862Y-33243696D01*
X37860739Y-33134759D01*
X37616526Y-33378972D01*
X37616526Y-33378974D01*
X37567212Y-33378974D01*
X37559895Y-33318712D01*
X37513690Y-33251773D01*
X37441669Y-33213973D01*
X37380965Y-33213973D01*
X37322026Y-33228500D01*
X37261144Y-33282437D01*
X37232301Y-33358489D01*
X37164992Y-33358489D01*
X36941261Y-33134759D01*
X36941259Y-33134759D01*
X36896137Y-33243695D01*
X36878328Y-33378973D01*
X36623671Y-33378973D01*
X36605862Y-33243696D01*
X36560739Y-33134759D01*
X36316526Y-33378972D01*
X36316526Y-33378974D01*
X36267212Y-33378974D01*
X36259895Y-33318712D01*
X36213690Y-33251773D01*
X36141669Y-33213973D01*
X36080965Y-33213973D01*
X36022026Y-33228500D01*
X35961144Y-33282437D01*
X35932301Y-33358489D01*
X35864991Y-33358489D01*
X35641261Y-33134759D01*
X35641259Y-33134759D01*
X35596137Y-33243695D01*
X35578328Y-33378973D01*
X35323671Y-33378973D01*
X35323671Y-33378972D01*
X35305862Y-33243696D01*
X35260739Y-33134759D01*
X35016526Y-33378972D01*
X35016526Y-33378974D01*
X34967212Y-33378974D01*
X34959895Y-33318712D01*
X34913690Y-33251773D01*
X34841669Y-33213973D01*
X34780965Y-33213973D01*
X34722026Y-33228500D01*
X34661144Y-33282437D01*
X34632301Y-33358489D01*
X34564991Y-33358489D01*
X34341259Y-33134759D01*
X34296137Y-33243695D01*
X34278328Y-33378972D01*
X20000500Y-33378972D01*
X20000500Y-32919234D01*
X34556786Y-32919234D01*
X34800999Y-33163447D01*
X34801000Y-33163447D01*
X35045212Y-32919234D01*
X35856786Y-32919234D01*
X36100999Y-33163447D01*
X36101000Y-33163447D01*
X36345212Y-32919234D01*
X37156786Y-32919234D01*
X37400999Y-33163447D01*
X37401000Y-33163447D01*
X37521213Y-33043234D01*
X49804786Y-33043234D01*
X50048998Y-33287446D01*
X50048999Y-33287446D01*
X50293211Y-33043234D01*
X51104786Y-33043234D01*
X51348999Y-33287447D01*
X51349000Y-33287447D01*
X51593212Y-33043234D01*
X52404786Y-33043234D01*
X52648999Y-33287447D01*
X52649000Y-33287447D01*
X52893213Y-33043233D01*
X52893213Y-33043232D01*
X52784277Y-32998110D01*
X52649000Y-32980301D01*
X52513722Y-32998110D01*
X52404786Y-33043232D01*
X52404786Y-33043234D01*
X51593212Y-33043234D01*
X51593213Y-33043233D01*
X51593213Y-33043232D01*
X51484277Y-32998110D01*
X51348999Y-32980301D01*
X51213722Y-32998110D01*
X51104786Y-33043232D01*
X51104786Y-33043234D01*
X50293211Y-33043234D01*
X50293213Y-33043232D01*
X50184277Y-32998110D01*
X50049000Y-32980301D01*
X49913722Y-32998110D01*
X49804786Y-33043232D01*
X49804786Y-33043234D01*
X37521213Y-33043234D01*
X37645213Y-32919233D01*
X37645213Y-32919232D01*
X37536277Y-32874110D01*
X37400999Y-32856301D01*
X37265722Y-32874110D01*
X37156786Y-32919232D01*
X37156786Y-32919234D01*
X36345212Y-32919234D01*
X36345213Y-32919233D01*
X36345213Y-32919232D01*
X36236277Y-32874110D01*
X36100999Y-32856301D01*
X35965722Y-32874110D01*
X35856786Y-32919232D01*
X35856786Y-32919234D01*
X35045212Y-32919234D01*
X35045213Y-32919233D01*
X35045213Y-32919232D01*
X34936277Y-32874110D01*
X34800999Y-32856301D01*
X34665722Y-32874110D01*
X34556786Y-32919232D01*
X34556786Y-32919234D01*
X20000500Y-32919234D01*
X20000500Y-32538712D01*
X34556785Y-32538712D01*
X34665723Y-32583835D01*
X34801000Y-32601644D01*
X34936276Y-32583835D01*
X35045213Y-32538712D01*
X35856785Y-32538712D01*
X35965723Y-32583835D01*
X36101000Y-32601644D01*
X36236276Y-32583835D01*
X36345213Y-32538712D01*
X37156785Y-32538712D01*
X37265723Y-32583835D01*
X37401000Y-32601644D01*
X37536276Y-32583835D01*
X37645213Y-32538712D01*
X37645213Y-32538711D01*
X37491502Y-32385000D01*
X39444908Y-32385000D01*
X39463992Y-32529961D01*
X39519945Y-32665044D01*
X39519946Y-32665046D01*
X39608955Y-32781045D01*
X39724954Y-32870054D01*
X39860038Y-32926007D01*
X40005000Y-32945092D01*
X40149962Y-32926007D01*
X40285046Y-32870054D01*
X40401045Y-32781045D01*
X40490054Y-32665046D01*
X40491021Y-32662712D01*
X49804785Y-32662712D01*
X49913723Y-32707835D01*
X50049000Y-32725644D01*
X50184276Y-32707835D01*
X50293213Y-32662712D01*
X51104785Y-32662712D01*
X51213723Y-32707835D01*
X51349000Y-32725644D01*
X51484276Y-32707835D01*
X51593213Y-32662712D01*
X52404785Y-32662712D01*
X52513723Y-32707835D01*
X52649000Y-32725644D01*
X52784276Y-32707835D01*
X52893213Y-32662712D01*
X52893213Y-32662711D01*
X52649001Y-32418499D01*
X52649000Y-32418499D01*
X52404785Y-32662712D01*
X51593213Y-32662712D01*
X51593213Y-32662711D01*
X51349001Y-32418499D01*
X51349000Y-32418499D01*
X51104785Y-32662712D01*
X50293213Y-32662712D01*
X50293213Y-32662711D01*
X50049001Y-32418499D01*
X50049000Y-32418499D01*
X49804785Y-32662712D01*
X40491021Y-32662712D01*
X40546007Y-32529962D01*
X40565092Y-32385000D01*
X40546007Y-32240038D01*
X40530654Y-32202973D01*
X49526328Y-32202973D01*
X49544137Y-32338250D01*
X49589260Y-32447186D01*
X49833474Y-32202972D01*
X49812991Y-32182489D01*
X49880301Y-32182489D01*
X49890105Y-32263234D01*
X49936310Y-32330173D01*
X50008331Y-32367973D01*
X50069035Y-32367973D01*
X50127974Y-32353446D01*
X50188856Y-32299509D01*
X50217699Y-32223457D01*
X50215212Y-32202974D01*
X50264526Y-32202974D01*
X50508738Y-32447186D01*
X50508739Y-32447186D01*
X50553862Y-32338249D01*
X50571671Y-32202973D01*
X50826328Y-32202973D01*
X50844137Y-32338250D01*
X50889260Y-32447186D01*
X51133474Y-32202973D01*
X51133474Y-32202972D01*
X51112991Y-32182489D01*
X51180301Y-32182489D01*
X51190105Y-32263234D01*
X51236310Y-32330173D01*
X51308331Y-32367973D01*
X51369035Y-32367973D01*
X51427974Y-32353446D01*
X51488856Y-32299509D01*
X51517699Y-32223457D01*
X51515212Y-32202972D01*
X51564526Y-32202972D01*
X51808738Y-32447185D01*
X51853862Y-32338247D01*
X51871671Y-32202973D01*
X51871671Y-32202972D01*
X52126328Y-32202972D01*
X52144137Y-32338250D01*
X52189259Y-32447186D01*
X52189260Y-32447186D01*
X52433474Y-32202972D01*
X52433474Y-32202971D01*
X52412992Y-32182489D01*
X52480301Y-32182489D01*
X52490105Y-32263234D01*
X52536310Y-32330173D01*
X52608331Y-32367973D01*
X52669035Y-32367973D01*
X52727974Y-32353446D01*
X52788856Y-32299509D01*
X52817699Y-32223457D01*
X52815212Y-32202972D01*
X52864526Y-32202972D01*
X53108738Y-32447185D01*
X53134496Y-32385000D01*
X54684908Y-32385000D01*
X54703992Y-32529961D01*
X54759945Y-32665044D01*
X54759946Y-32665046D01*
X54848955Y-32781045D01*
X54964954Y-32870054D01*
X55100038Y-32926007D01*
X55245000Y-32945092D01*
X55319877Y-32935234D01*
X64844786Y-32935234D01*
X65088998Y-33179446D01*
X65088999Y-33179446D01*
X65333213Y-32935232D01*
X66144785Y-32935232D01*
X66389000Y-33179446D01*
X66389001Y-33179446D01*
X66633213Y-32935233D01*
X66633213Y-32935232D01*
X67444785Y-32935232D01*
X67689000Y-33179446D01*
X67689001Y-33179446D01*
X67933213Y-32935233D01*
X67933213Y-32935232D01*
X67894590Y-32919234D01*
X80164786Y-32919234D01*
X80408999Y-33163447D01*
X80409000Y-33163447D01*
X80653212Y-32919234D01*
X81464786Y-32919234D01*
X81708999Y-33163447D01*
X81709000Y-33163447D01*
X81953212Y-32919234D01*
X82764786Y-32919234D01*
X83008999Y-33163447D01*
X83009000Y-33163447D01*
X83253213Y-32919233D01*
X83253213Y-32919232D01*
X83144277Y-32874110D01*
X83009000Y-32856301D01*
X82873722Y-32874110D01*
X82764786Y-32919232D01*
X82764786Y-32919234D01*
X81953212Y-32919234D01*
X81953213Y-32919233D01*
X81953213Y-32919232D01*
X81844277Y-32874110D01*
X81708999Y-32856301D01*
X81573722Y-32874110D01*
X81464786Y-32919232D01*
X81464786Y-32919234D01*
X80653212Y-32919234D01*
X80653213Y-32919233D01*
X80653213Y-32919232D01*
X80544277Y-32874110D01*
X80409000Y-32856301D01*
X80273722Y-32874110D01*
X80164786Y-32919232D01*
X80164786Y-32919234D01*
X67894590Y-32919234D01*
X67824277Y-32890110D01*
X67688999Y-32872301D01*
X67553722Y-32890110D01*
X67444785Y-32935232D01*
X66633213Y-32935232D01*
X66524277Y-32890110D01*
X66389000Y-32872301D01*
X66253722Y-32890110D01*
X66144785Y-32935232D01*
X65333213Y-32935232D01*
X65224277Y-32890110D01*
X65088999Y-32872301D01*
X64953722Y-32890110D01*
X64844786Y-32935232D01*
X64844786Y-32935234D01*
X55319877Y-32935234D01*
X55389962Y-32926007D01*
X55525046Y-32870054D01*
X55641045Y-32781045D01*
X55730054Y-32665046D01*
X55775755Y-32554712D01*
X64844785Y-32554712D01*
X64953723Y-32599835D01*
X65089000Y-32617644D01*
X65224276Y-32599835D01*
X65333213Y-32554712D01*
X66144785Y-32554712D01*
X66253723Y-32599835D01*
X66389000Y-32617644D01*
X66524276Y-32599835D01*
X66633213Y-32554712D01*
X67444785Y-32554712D01*
X67553723Y-32599835D01*
X67689000Y-32617644D01*
X67824276Y-32599835D01*
X67933213Y-32554712D01*
X67933213Y-32554711D01*
X67917214Y-32538712D01*
X80164785Y-32538712D01*
X80273723Y-32583835D01*
X80409000Y-32601644D01*
X80544276Y-32583835D01*
X80653213Y-32538712D01*
X81464785Y-32538712D01*
X81573723Y-32583835D01*
X81709000Y-32601644D01*
X81844276Y-32583835D01*
X81953213Y-32538712D01*
X82764785Y-32538712D01*
X82873723Y-32583835D01*
X83009000Y-32601644D01*
X83144276Y-32583835D01*
X83253213Y-32538712D01*
X83253213Y-32538711D01*
X83047474Y-32332972D01*
X109779520Y-32332972D01*
X109800164Y-32503000D01*
X109860899Y-32663147D01*
X109860900Y-32663149D01*
X109860901Y-32663150D01*
X109958198Y-32804108D01*
X110086401Y-32917687D01*
X110238060Y-32997283D01*
X110404361Y-33038273D01*
X110404363Y-33038273D01*
X110575637Y-33038273D01*
X110575639Y-33038273D01*
X110741940Y-32997283D01*
X110893599Y-32917687D01*
X111021802Y-32804108D01*
X111119099Y-32663150D01*
X111179835Y-32503002D01*
X111200480Y-32332973D01*
X111179835Y-32162944D01*
X111119099Y-32002796D01*
X111021802Y-31861838D01*
X111001659Y-31843993D01*
X110980190Y-31824973D01*
X115670520Y-31824973D01*
X115691164Y-31995000D01*
X115751899Y-32155147D01*
X115751900Y-32155149D01*
X115751901Y-32155150D01*
X115848087Y-32294499D01*
X115849199Y-32296109D01*
X115913919Y-32353446D01*
X115977401Y-32409687D01*
X116129060Y-32489283D01*
X116295361Y-32530273D01*
X116295363Y-32530273D01*
X116466637Y-32530273D01*
X116466639Y-32530273D01*
X116632940Y-32489283D01*
X116784599Y-32409687D01*
X116912802Y-32296108D01*
X117010099Y-32155150D01*
X117070835Y-31995002D01*
X117091480Y-31824973D01*
X117070835Y-31654944D01*
X117033425Y-31556301D01*
X117010100Y-31494798D01*
X116992952Y-31469955D01*
X116912802Y-31353838D01*
X116812463Y-31264945D01*
X116784598Y-31240258D01*
X116679882Y-31185300D01*
X116632940Y-31160663D01*
X116466639Y-31119673D01*
X116295361Y-31119673D01*
X116129060Y-31160663D01*
X116129058Y-31160663D01*
X116129058Y-31160664D01*
X115977401Y-31240258D01*
X115849199Y-31353836D01*
X115751899Y-31494798D01*
X115691164Y-31654945D01*
X115670520Y-31824973D01*
X110980190Y-31824973D01*
X110893598Y-31748258D01*
X110798047Y-31698110D01*
X110741940Y-31668663D01*
X110575639Y-31627673D01*
X110404361Y-31627673D01*
X110238060Y-31668663D01*
X110238058Y-31668663D01*
X110238058Y-31668664D01*
X110086401Y-31748258D01*
X109958199Y-31861836D01*
X109860899Y-32002798D01*
X109800164Y-32162945D01*
X109779520Y-32332972D01*
X83047474Y-32332972D01*
X83009001Y-32294499D01*
X83009000Y-32294499D01*
X82764785Y-32538712D01*
X81953213Y-32538712D01*
X81953213Y-32538711D01*
X81709001Y-32294499D01*
X81709000Y-32294499D01*
X81464785Y-32538712D01*
X80653213Y-32538712D01*
X80653213Y-32538711D01*
X80409001Y-32294499D01*
X80409000Y-32294499D01*
X80164785Y-32538712D01*
X67917214Y-32538712D01*
X67689001Y-32310499D01*
X67689000Y-32310499D01*
X67444785Y-32554712D01*
X66633213Y-32554712D01*
X66633213Y-32554711D01*
X66389001Y-32310499D01*
X66389000Y-32310499D01*
X66144785Y-32554712D01*
X65333213Y-32554712D01*
X65333213Y-32554711D01*
X65089001Y-32310499D01*
X65089000Y-32310499D01*
X64844785Y-32554712D01*
X55775755Y-32554712D01*
X55786007Y-32529962D01*
X55805092Y-32385000D01*
X55786007Y-32240038D01*
X55730054Y-32104954D01*
X55722395Y-32094973D01*
X64566328Y-32094973D01*
X64584137Y-32230250D01*
X64629259Y-32339186D01*
X64629260Y-32339186D01*
X64873474Y-32094972D01*
X64852991Y-32074489D01*
X64920301Y-32074489D01*
X64930105Y-32155234D01*
X64976310Y-32222173D01*
X65048331Y-32259973D01*
X65109035Y-32259973D01*
X65167974Y-32245446D01*
X65228856Y-32191509D01*
X65257699Y-32115457D01*
X65255212Y-32094974D01*
X65304526Y-32094974D01*
X65548738Y-32339186D01*
X65548739Y-32339186D01*
X65593862Y-32230249D01*
X65611671Y-32094973D01*
X65866328Y-32094973D01*
X65884137Y-32230250D01*
X65929260Y-32339186D01*
X66173474Y-32094972D01*
X66152991Y-32074489D01*
X66220301Y-32074489D01*
X66230105Y-32155234D01*
X66276310Y-32222173D01*
X66348331Y-32259973D01*
X66409035Y-32259973D01*
X66467974Y-32245446D01*
X66528856Y-32191509D01*
X66557699Y-32115457D01*
X66555212Y-32094974D01*
X66604526Y-32094974D01*
X66848738Y-32339186D01*
X66848739Y-32339186D01*
X66893862Y-32230249D01*
X66911671Y-32094973D01*
X67166328Y-32094973D01*
X67184137Y-32230250D01*
X67229259Y-32339186D01*
X67229260Y-32339186D01*
X67473474Y-32094972D01*
X67452991Y-32074489D01*
X67520301Y-32074489D01*
X67530105Y-32155234D01*
X67576310Y-32222173D01*
X67648331Y-32259973D01*
X67709035Y-32259973D01*
X67767974Y-32245446D01*
X67828856Y-32191509D01*
X67857699Y-32115457D01*
X67855212Y-32094973D01*
X67904526Y-32094973D01*
X68148738Y-32339186D01*
X68148739Y-32339186D01*
X68193862Y-32230249D01*
X68211671Y-32094973D01*
X68209564Y-32078972D01*
X79886328Y-32078972D01*
X79904137Y-32214250D01*
X79949259Y-32323186D01*
X80193473Y-32078972D01*
X80193473Y-32078970D01*
X80172992Y-32058489D01*
X80240301Y-32058489D01*
X80250105Y-32139234D01*
X80296310Y-32206173D01*
X80368331Y-32243973D01*
X80429035Y-32243973D01*
X80487974Y-32229446D01*
X80548856Y-32175509D01*
X80577699Y-32099457D01*
X80575212Y-32078973D01*
X80624526Y-32078973D01*
X80868738Y-32323186D01*
X80868739Y-32323186D01*
X80913862Y-32214249D01*
X80931671Y-32078973D01*
X80931671Y-32078972D01*
X81186328Y-32078972D01*
X81204137Y-32214250D01*
X81249260Y-32323186D01*
X81493474Y-32078973D01*
X81493474Y-32078972D01*
X81472991Y-32058489D01*
X81540301Y-32058489D01*
X81550105Y-32139234D01*
X81596310Y-32206173D01*
X81668331Y-32243973D01*
X81729035Y-32243973D01*
X81787974Y-32229446D01*
X81848856Y-32175509D01*
X81877699Y-32099457D01*
X81875212Y-32078974D01*
X81924526Y-32078974D01*
X82168738Y-32323186D01*
X82168739Y-32323186D01*
X82213862Y-32214249D01*
X82231671Y-32078972D01*
X82486328Y-32078972D01*
X82504137Y-32214250D01*
X82549259Y-32323186D01*
X82549260Y-32323186D01*
X82793474Y-32078972D01*
X82793474Y-32078971D01*
X82772992Y-32058489D01*
X82840301Y-32058489D01*
X82850105Y-32139234D01*
X82896310Y-32206173D01*
X82968331Y-32243973D01*
X83029035Y-32243973D01*
X83087974Y-32229446D01*
X83148856Y-32175509D01*
X83177699Y-32099457D01*
X83175212Y-32078972D01*
X83224526Y-32078972D01*
X83468738Y-32323185D01*
X83513862Y-32214247D01*
X83531671Y-32078973D01*
X83513862Y-31943696D01*
X83468738Y-31834758D01*
X83224526Y-32078970D01*
X83224526Y-32078972D01*
X83175212Y-32078972D01*
X83167895Y-32018712D01*
X83121690Y-31951773D01*
X83049669Y-31913973D01*
X82988965Y-31913973D01*
X82930026Y-31928500D01*
X82869144Y-31982437D01*
X82840301Y-32058489D01*
X82772992Y-32058489D01*
X82549261Y-31834759D01*
X82549259Y-31834759D01*
X82504137Y-31943695D01*
X82486328Y-32078972D01*
X82231671Y-32078972D01*
X82213862Y-31943696D01*
X82168739Y-31834759D01*
X81924526Y-32078972D01*
X81924526Y-32078974D01*
X81875212Y-32078974D01*
X81867895Y-32018712D01*
X81821690Y-31951773D01*
X81749669Y-31913973D01*
X81688965Y-31913973D01*
X81630026Y-31928500D01*
X81569144Y-31982437D01*
X81540301Y-32058489D01*
X81472991Y-32058489D01*
X81249259Y-31834759D01*
X81204137Y-31943695D01*
X81186328Y-32078972D01*
X80931671Y-32078972D01*
X80913862Y-31943696D01*
X80868739Y-31834759D01*
X80624526Y-32078972D01*
X80624526Y-32078973D01*
X80575212Y-32078973D01*
X80567895Y-32018712D01*
X80521690Y-31951773D01*
X80449669Y-31913973D01*
X80388965Y-31913973D01*
X80330026Y-31928500D01*
X80269144Y-31982437D01*
X80240301Y-32058489D01*
X80172992Y-32058489D01*
X79949261Y-31834759D01*
X79949259Y-31834759D01*
X79904137Y-31943695D01*
X79886328Y-32078972D01*
X68209564Y-32078972D01*
X68193862Y-31959696D01*
X68148739Y-31850759D01*
X67904526Y-32094972D01*
X67904526Y-32094973D01*
X67855212Y-32094973D01*
X67847895Y-32034712D01*
X67801690Y-31967773D01*
X67729669Y-31929973D01*
X67668965Y-31929973D01*
X67610026Y-31944500D01*
X67549144Y-31998437D01*
X67520301Y-32074489D01*
X67452991Y-32074489D01*
X67229261Y-31850759D01*
X67229259Y-31850759D01*
X67184137Y-31959695D01*
X67166328Y-32094973D01*
X66911671Y-32094973D01*
X66893862Y-31959696D01*
X66848739Y-31850759D01*
X66604526Y-32094972D01*
X66604526Y-32094974D01*
X66555212Y-32094974D01*
X66547895Y-32034712D01*
X66501690Y-31967773D01*
X66429669Y-31929973D01*
X66368965Y-31929973D01*
X66310026Y-31944500D01*
X66249144Y-31998437D01*
X66220301Y-32074489D01*
X66152991Y-32074489D01*
X65929259Y-31850759D01*
X65884137Y-31959695D01*
X65866328Y-32094973D01*
X65611671Y-32094973D01*
X65593862Y-31959696D01*
X65548739Y-31850759D01*
X65304526Y-32094972D01*
X65304526Y-32094974D01*
X65255212Y-32094974D01*
X65247895Y-32034712D01*
X65201690Y-31967773D01*
X65129669Y-31929973D01*
X65068965Y-31929973D01*
X65010026Y-31944500D01*
X64949144Y-31998437D01*
X64920301Y-32074489D01*
X64852991Y-32074489D01*
X64629261Y-31850759D01*
X64629259Y-31850759D01*
X64584137Y-31959695D01*
X64566328Y-32094973D01*
X55722395Y-32094973D01*
X55641045Y-31988955D01*
X55525046Y-31899946D01*
X55525044Y-31899945D01*
X55389961Y-31843992D01*
X55245000Y-31824908D01*
X55100038Y-31843992D01*
X54964955Y-31899945D01*
X54848955Y-31988955D01*
X54759945Y-32104955D01*
X54703992Y-32240038D01*
X54684908Y-32385000D01*
X53134496Y-32385000D01*
X53153862Y-32338247D01*
X53171671Y-32202973D01*
X53153862Y-32067696D01*
X53108738Y-31958758D01*
X52864526Y-32202971D01*
X52864526Y-32202972D01*
X52815212Y-32202972D01*
X52807895Y-32142712D01*
X52761690Y-32075773D01*
X52689669Y-32037973D01*
X52628965Y-32037973D01*
X52570026Y-32052500D01*
X52509144Y-32106437D01*
X52480301Y-32182489D01*
X52412992Y-32182489D01*
X52189261Y-31958759D01*
X52189259Y-31958759D01*
X52144137Y-32067695D01*
X52126328Y-32202972D01*
X51871671Y-32202972D01*
X51853862Y-32067696D01*
X51808738Y-31958758D01*
X51564526Y-32202970D01*
X51564526Y-32202972D01*
X51515212Y-32202972D01*
X51507895Y-32142712D01*
X51461690Y-32075773D01*
X51389669Y-32037973D01*
X51328965Y-32037973D01*
X51270026Y-32052500D01*
X51209144Y-32106437D01*
X51180301Y-32182489D01*
X51112991Y-32182489D01*
X50889259Y-31958759D01*
X50844137Y-32067695D01*
X50826328Y-32202973D01*
X50571671Y-32202973D01*
X50553862Y-32067696D01*
X50508739Y-31958759D01*
X50264526Y-32202972D01*
X50264526Y-32202974D01*
X50215212Y-32202974D01*
X50207895Y-32142712D01*
X50161690Y-32075773D01*
X50089669Y-32037973D01*
X50028965Y-32037973D01*
X49970026Y-32052500D01*
X49909144Y-32106437D01*
X49880301Y-32182489D01*
X49812991Y-32182489D01*
X49589259Y-31958759D01*
X49544137Y-32067695D01*
X49526328Y-32202973D01*
X40530654Y-32202973D01*
X40490054Y-32104954D01*
X40401045Y-31988955D01*
X40285046Y-31899946D01*
X40285044Y-31899945D01*
X40149961Y-31843992D01*
X40005000Y-31824908D01*
X39860038Y-31843992D01*
X39724955Y-31899945D01*
X39608955Y-31988955D01*
X39519945Y-32104955D01*
X39463992Y-32240038D01*
X39444908Y-32385000D01*
X37491502Y-32385000D01*
X37401001Y-32294499D01*
X37401000Y-32294499D01*
X37156785Y-32538712D01*
X36345213Y-32538712D01*
X36345213Y-32538711D01*
X36101001Y-32294499D01*
X36101000Y-32294499D01*
X35856785Y-32538712D01*
X35045213Y-32538712D01*
X35045213Y-32538711D01*
X34801001Y-32294499D01*
X34801000Y-32294499D01*
X34556785Y-32538712D01*
X20000500Y-32538712D01*
X20000500Y-32078972D01*
X34278328Y-32078972D01*
X34296137Y-32214250D01*
X34341259Y-32323186D01*
X34341260Y-32323186D01*
X34585474Y-32078972D01*
X34564991Y-32058489D01*
X34632301Y-32058489D01*
X34642105Y-32139234D01*
X34688310Y-32206173D01*
X34760331Y-32243973D01*
X34821035Y-32243973D01*
X34879974Y-32229446D01*
X34940856Y-32175509D01*
X34969699Y-32099457D01*
X34967212Y-32078972D01*
X35016526Y-32078972D01*
X35260738Y-32323185D01*
X35305862Y-32214247D01*
X35323671Y-32078973D01*
X35578328Y-32078973D01*
X35596137Y-32214250D01*
X35641260Y-32323186D01*
X35885474Y-32078972D01*
X35864991Y-32058489D01*
X35932301Y-32058489D01*
X35942105Y-32139234D01*
X35988310Y-32206173D01*
X36060331Y-32243973D01*
X36121035Y-32243973D01*
X36179974Y-32229446D01*
X36240856Y-32175509D01*
X36269699Y-32099457D01*
X36267212Y-32078974D01*
X36316526Y-32078974D01*
X36560738Y-32323186D01*
X36560739Y-32323186D01*
X36605862Y-32214249D01*
X36623671Y-32078973D01*
X36623671Y-32078972D01*
X36878328Y-32078972D01*
X36896137Y-32214250D01*
X36941259Y-32323186D01*
X36941260Y-32323186D01*
X37185474Y-32078972D01*
X37164991Y-32058489D01*
X37232301Y-32058489D01*
X37242105Y-32139234D01*
X37288310Y-32206173D01*
X37360331Y-32243973D01*
X37421035Y-32243973D01*
X37479974Y-32229446D01*
X37540856Y-32175509D01*
X37569699Y-32099457D01*
X37567212Y-32078974D01*
X37616526Y-32078974D01*
X37860738Y-32323186D01*
X37860739Y-32323186D01*
X37905862Y-32214249D01*
X37923671Y-32078972D01*
X37905862Y-31943696D01*
X37860739Y-31834759D01*
X37616526Y-32078972D01*
X37616526Y-32078974D01*
X37567212Y-32078974D01*
X37559895Y-32018712D01*
X37513690Y-31951773D01*
X37441669Y-31913973D01*
X37380965Y-31913973D01*
X37322026Y-31928500D01*
X37261144Y-31982437D01*
X37232301Y-32058489D01*
X37164991Y-32058489D01*
X36941261Y-31834759D01*
X36941259Y-31834759D01*
X36896137Y-31943695D01*
X36878328Y-32078972D01*
X36623671Y-32078972D01*
X36605862Y-31943696D01*
X36560739Y-31834759D01*
X36316526Y-32078972D01*
X36316526Y-32078974D01*
X36267212Y-32078974D01*
X36259895Y-32018712D01*
X36213690Y-31951773D01*
X36141669Y-31913973D01*
X36080965Y-31913973D01*
X36022026Y-31928500D01*
X35961144Y-31982437D01*
X35932301Y-32058489D01*
X35864991Y-32058489D01*
X35641259Y-31834759D01*
X35596137Y-31943695D01*
X35578328Y-32078973D01*
X35323671Y-32078973D01*
X35323671Y-32078972D01*
X35305862Y-31943696D01*
X35260738Y-31834758D01*
X35016526Y-32078970D01*
X35016526Y-32078972D01*
X34967212Y-32078972D01*
X34959895Y-32018712D01*
X34913690Y-31951773D01*
X34841669Y-31913973D01*
X34780965Y-31913973D01*
X34722026Y-31928500D01*
X34661144Y-31982437D01*
X34632301Y-32058489D01*
X34564991Y-32058489D01*
X34341261Y-31834759D01*
X34341259Y-31834759D01*
X34296137Y-31943695D01*
X34278328Y-32078972D01*
X20000500Y-32078972D01*
X20000500Y-31619234D01*
X34556786Y-31619234D01*
X34800999Y-31863447D01*
X34801000Y-31863447D01*
X35045212Y-31619234D01*
X35856786Y-31619234D01*
X36100999Y-31863447D01*
X36101000Y-31863447D01*
X36345212Y-31619234D01*
X37156786Y-31619234D01*
X37400999Y-31863447D01*
X37401000Y-31863447D01*
X37521215Y-31743232D01*
X49804786Y-31743232D01*
X50048999Y-31987447D01*
X50049000Y-31987447D01*
X50293212Y-31743234D01*
X51104786Y-31743234D01*
X51348999Y-31987447D01*
X51349000Y-31987447D01*
X51593212Y-31743234D01*
X52404786Y-31743234D01*
X52648999Y-31987447D01*
X52649000Y-31987447D01*
X52893213Y-31743233D01*
X52893213Y-31743232D01*
X52784277Y-31698110D01*
X52649000Y-31680301D01*
X52513722Y-31698110D01*
X52404786Y-31743232D01*
X52404786Y-31743234D01*
X51593212Y-31743234D01*
X51593213Y-31743233D01*
X51593213Y-31743232D01*
X51484277Y-31698110D01*
X51349000Y-31680301D01*
X51213722Y-31698110D01*
X51104786Y-31743232D01*
X51104786Y-31743234D01*
X50293212Y-31743234D01*
X50293213Y-31743233D01*
X50293213Y-31743232D01*
X50184277Y-31698110D01*
X50049000Y-31680301D01*
X49913722Y-31698110D01*
X49804786Y-31743232D01*
X37521215Y-31743232D01*
X37629212Y-31635234D01*
X64844786Y-31635234D01*
X65088999Y-31879447D01*
X65089000Y-31879447D01*
X65333213Y-31635233D01*
X65333213Y-31635232D01*
X66144785Y-31635232D01*
X66389000Y-31879446D01*
X66389001Y-31879446D01*
X66633213Y-31635233D01*
X66633213Y-31635232D01*
X67444785Y-31635232D01*
X67689000Y-31879446D01*
X67689001Y-31879446D01*
X67933213Y-31635233D01*
X67933213Y-31635232D01*
X67824277Y-31590110D01*
X67689000Y-31572301D01*
X67553722Y-31590110D01*
X67444785Y-31635232D01*
X66633213Y-31635232D01*
X66524277Y-31590110D01*
X66388999Y-31572301D01*
X66253722Y-31590110D01*
X66144785Y-31635232D01*
X65333213Y-31635232D01*
X65224277Y-31590110D01*
X65089000Y-31572301D01*
X64953722Y-31590110D01*
X64844786Y-31635232D01*
X64844786Y-31635234D01*
X37629212Y-31635234D01*
X37645213Y-31619233D01*
X37645213Y-31619232D01*
X37536277Y-31574110D01*
X37400999Y-31556301D01*
X37265722Y-31574110D01*
X37156786Y-31619232D01*
X37156786Y-31619234D01*
X36345212Y-31619234D01*
X36345213Y-31619233D01*
X36345213Y-31619232D01*
X36236277Y-31574110D01*
X36101000Y-31556301D01*
X35965722Y-31574110D01*
X35856786Y-31619232D01*
X35856786Y-31619234D01*
X35045212Y-31619234D01*
X35045213Y-31619233D01*
X35045213Y-31619232D01*
X34936277Y-31574110D01*
X34800999Y-31556301D01*
X34665722Y-31574110D01*
X34556786Y-31619232D01*
X34556786Y-31619234D01*
X20000500Y-31619234D01*
X20000500Y-31114999D01*
X69924908Y-31114999D01*
X69943992Y-31259961D01*
X69999945Y-31395044D01*
X69999946Y-31395046D01*
X70088955Y-31511045D01*
X70204954Y-31600054D01*
X70340038Y-31656007D01*
X70485000Y-31675092D01*
X70629962Y-31656007D01*
X70718746Y-31619232D01*
X80164785Y-31619232D01*
X80409000Y-31863446D01*
X80409001Y-31863446D01*
X80653212Y-31619234D01*
X81464786Y-31619234D01*
X81708999Y-31863447D01*
X81709000Y-31863447D01*
X81953212Y-31619234D01*
X82764786Y-31619234D01*
X83008999Y-31863447D01*
X83009000Y-31863447D01*
X83122447Y-31750000D01*
X85164908Y-31750000D01*
X85183992Y-31894961D01*
X85235251Y-32018712D01*
X85239946Y-32030046D01*
X85328955Y-32146045D01*
X85444954Y-32235054D01*
X85580038Y-32291007D01*
X85725000Y-32310092D01*
X85869962Y-32291007D01*
X86005046Y-32235054D01*
X86121045Y-32146045D01*
X86210054Y-32030046D01*
X86266007Y-31894962D01*
X86285092Y-31750000D01*
X86266007Y-31605038D01*
X86210054Y-31469954D01*
X86121045Y-31353955D01*
X86005046Y-31264946D01*
X86005044Y-31264945D01*
X85869961Y-31208992D01*
X85725000Y-31189908D01*
X85580038Y-31208992D01*
X85444955Y-31264945D01*
X85328955Y-31353955D01*
X85239945Y-31469955D01*
X85183992Y-31605038D01*
X85164908Y-31750000D01*
X83122447Y-31750000D01*
X83253213Y-31619233D01*
X83253213Y-31619232D01*
X83144277Y-31574110D01*
X83008999Y-31556301D01*
X82873722Y-31574110D01*
X82764786Y-31619232D01*
X82764786Y-31619234D01*
X81953212Y-31619234D01*
X81953213Y-31619233D01*
X81953213Y-31619232D01*
X81844277Y-31574110D01*
X81709000Y-31556301D01*
X81573722Y-31574110D01*
X81464786Y-31619232D01*
X81464786Y-31619234D01*
X80653212Y-31619234D01*
X80653213Y-31619233D01*
X80653213Y-31619232D01*
X80544277Y-31574110D01*
X80409000Y-31556301D01*
X80273722Y-31574110D01*
X80164785Y-31619232D01*
X70718746Y-31619232D01*
X70765046Y-31600054D01*
X70881045Y-31511045D01*
X70970054Y-31395046D01*
X71026007Y-31259962D01*
X71045092Y-31115000D01*
X71026007Y-30970038D01*
X70970054Y-30834954D01*
X70881045Y-30718955D01*
X70765046Y-30629946D01*
X70765044Y-30629945D01*
X70629961Y-30573992D01*
X70485000Y-30554908D01*
X70340038Y-30573992D01*
X70204955Y-30629945D01*
X70088955Y-30718955D01*
X69999945Y-30834955D01*
X69943992Y-30970038D01*
X69924908Y-31114999D01*
X20000500Y-31114999D01*
X20000500Y-28296973D01*
X30304520Y-28296973D01*
X30325164Y-28467000D01*
X30385899Y-28627147D01*
X30385900Y-28627149D01*
X30385901Y-28627150D01*
X30483198Y-28768108D01*
X30611401Y-28881687D01*
X30763060Y-28961283D01*
X30929361Y-29002273D01*
X30929363Y-29002273D01*
X31100640Y-29002273D01*
X31138757Y-28992877D01*
X31170457Y-28985064D01*
X31241385Y-28988181D01*
X31299368Y-29029151D01*
X31325997Y-29094965D01*
X31325693Y-29122589D01*
X31304519Y-29296972D01*
X31325164Y-29467000D01*
X31385899Y-29627147D01*
X31385900Y-29627149D01*
X31385901Y-29627150D01*
X31483198Y-29768108D01*
X31611401Y-29881687D01*
X31763060Y-29961283D01*
X31929361Y-30002273D01*
X31929363Y-30002273D01*
X32100637Y-30002273D01*
X32100639Y-30002273D01*
X32266940Y-29961283D01*
X32418599Y-29881687D01*
X32546802Y-29768108D01*
X32644099Y-29627150D01*
X32704835Y-29467002D01*
X32725480Y-29296973D01*
X32704835Y-29126944D01*
X32660971Y-29011285D01*
X32644100Y-28966798D01*
X32644099Y-28966796D01*
X32546802Y-28825838D01*
X32468721Y-28756664D01*
X32418598Y-28712258D01*
X32342769Y-28672460D01*
X32266940Y-28632663D01*
X32100639Y-28591673D01*
X31929361Y-28591673D01*
X31859540Y-28608882D01*
X31788612Y-28605763D01*
X31730630Y-28564793D01*
X31704002Y-28498979D01*
X31704306Y-28471355D01*
X31704835Y-28467000D01*
X31710424Y-28420973D01*
X45552520Y-28420973D01*
X45573164Y-28591000D01*
X45633899Y-28751147D01*
X45633900Y-28751149D01*
X45633901Y-28751150D01*
X45703080Y-28851373D01*
X45731199Y-28892109D01*
X45815505Y-28966798D01*
X45859401Y-29005687D01*
X46011060Y-29085283D01*
X46177361Y-29126273D01*
X46177363Y-29126273D01*
X46348640Y-29126273D01*
X46386757Y-29116877D01*
X46418457Y-29109064D01*
X46489385Y-29112181D01*
X46547368Y-29153151D01*
X46573997Y-29218965D01*
X46573693Y-29246589D01*
X46552519Y-29420972D01*
X46573164Y-29591000D01*
X46633899Y-29751147D01*
X46633900Y-29751149D01*
X46633901Y-29751150D01*
X46731198Y-29892108D01*
X46859401Y-30005687D01*
X47011060Y-30085283D01*
X47177361Y-30126273D01*
X47177363Y-30126273D01*
X47348637Y-30126273D01*
X47348639Y-30126273D01*
X47514940Y-30085283D01*
X47666599Y-30005687D01*
X47794802Y-29892108D01*
X47892099Y-29751150D01*
X47952835Y-29591002D01*
X47973480Y-29420973D01*
X47952835Y-29250944D01*
X47915728Y-29153102D01*
X47892100Y-29090798D01*
X47892099Y-29090796D01*
X47794802Y-28949838D01*
X47666599Y-28836259D01*
X47666598Y-28836258D01*
X47590769Y-28796461D01*
X47514940Y-28756663D01*
X47348639Y-28715673D01*
X47177361Y-28715673D01*
X47107540Y-28732882D01*
X47036612Y-28729763D01*
X46978630Y-28688793D01*
X46952002Y-28622979D01*
X46952306Y-28595355D01*
X46956017Y-28564793D01*
X46957851Y-28549685D01*
X60151729Y-28549685D01*
X60172373Y-28719713D01*
X60233108Y-28879860D01*
X60233109Y-28879862D01*
X60233110Y-28879863D01*
X60323404Y-29010676D01*
X60330408Y-29020822D01*
X60376114Y-29061314D01*
X60458610Y-29134400D01*
X60610269Y-29213996D01*
X60776570Y-29254986D01*
X60776572Y-29254986D01*
X60947846Y-29254986D01*
X60947848Y-29254986D01*
X61114149Y-29213996D01*
X61265808Y-29134400D01*
X61394011Y-29020821D01*
X61394011Y-29020820D01*
X61405462Y-29010676D01*
X61406002Y-29011285D01*
X61448882Y-28976536D01*
X61519451Y-28968752D01*
X61583025Y-29000356D01*
X61619421Y-29061314D01*
X61617082Y-29132272D01*
X61615233Y-29137490D01*
X61613164Y-29142943D01*
X61592520Y-29312973D01*
X61613164Y-29483000D01*
X61673899Y-29643147D01*
X61673900Y-29643149D01*
X61673901Y-29643150D01*
X61760549Y-29768681D01*
X61771199Y-29784109D01*
X61811356Y-29819685D01*
X61899401Y-29897687D01*
X62051060Y-29977283D01*
X62217361Y-30018273D01*
X62217363Y-30018273D01*
X62388637Y-30018273D01*
X62388639Y-30018273D01*
X62554940Y-29977283D01*
X62706599Y-29897687D01*
X62834802Y-29784108D01*
X62932099Y-29643150D01*
X62992835Y-29483002D01*
X63013480Y-29312973D01*
X63011607Y-29297545D01*
X75902561Y-29297545D01*
X75923205Y-29467572D01*
X75983940Y-29627719D01*
X76081240Y-29768681D01*
X76134302Y-29815690D01*
X76209442Y-29882259D01*
X76361101Y-29961855D01*
X76527402Y-30002845D01*
X76527404Y-30002845D01*
X76698678Y-30002845D01*
X76698680Y-30002845D01*
X76864981Y-29961855D01*
X76895384Y-29945898D01*
X76964995Y-29931953D01*
X77031097Y-29957857D01*
X77072701Y-30015386D01*
X77076598Y-30086276D01*
X77057632Y-30129042D01*
X77043289Y-30149820D01*
X76982552Y-30309972D01*
X76961908Y-30480000D01*
X76982552Y-30650027D01*
X77043287Y-30810174D01*
X77043288Y-30810176D01*
X77043289Y-30810177D01*
X77140586Y-30951135D01*
X77268789Y-31064714D01*
X77420448Y-31144310D01*
X77586749Y-31185300D01*
X77586751Y-31185300D01*
X77758025Y-31185300D01*
X77758027Y-31185300D01*
X77924328Y-31144310D01*
X78075987Y-31064714D01*
X78204190Y-30951135D01*
X78301487Y-30810177D01*
X78362223Y-30650029D01*
X78382868Y-30480000D01*
X78362223Y-30309971D01*
X78301487Y-30149823D01*
X78204190Y-30008865D01*
X78168539Y-29977281D01*
X78075986Y-29895285D01*
X77981298Y-29845590D01*
X77924328Y-29815690D01*
X77758027Y-29774700D01*
X77586749Y-29774700D01*
X77420448Y-29815690D01*
X77420447Y-29815690D01*
X77420445Y-29815691D01*
X77390044Y-29831646D01*
X77320430Y-29845590D01*
X77254328Y-29819685D01*
X77212726Y-29762155D01*
X77208830Y-29691265D01*
X77227795Y-29648503D01*
X77242140Y-29627722D01*
X77302876Y-29467574D01*
X77323521Y-29297545D01*
X77302876Y-29127516D01*
X77262412Y-29020821D01*
X77242141Y-28967370D01*
X77242140Y-28967368D01*
X77144843Y-28826410D01*
X77144197Y-28825838D01*
X77016639Y-28712830D01*
X76940810Y-28673033D01*
X76864981Y-28633235D01*
X76698680Y-28592245D01*
X76527402Y-28592245D01*
X76361101Y-28633235D01*
X76361099Y-28633235D01*
X76361099Y-28633236D01*
X76209442Y-28712830D01*
X76081240Y-28826408D01*
X75983940Y-28967370D01*
X75923205Y-29127517D01*
X75902561Y-29297545D01*
X63011607Y-29297545D01*
X62992835Y-29142944D01*
X62946520Y-29020821D01*
X62932100Y-28982798D01*
X62921451Y-28967370D01*
X62834802Y-28841838D01*
X62817385Y-28826408D01*
X62706598Y-28728258D01*
X62630769Y-28688461D01*
X62554940Y-28648663D01*
X62388639Y-28607673D01*
X62217361Y-28607673D01*
X62051060Y-28648663D01*
X62051058Y-28648663D01*
X62051058Y-28648664D01*
X61899401Y-28728258D01*
X61816919Y-28801332D01*
X61777497Y-28836258D01*
X61759747Y-28851983D01*
X61759207Y-28851373D01*
X61716315Y-28886127D01*
X61645745Y-28893904D01*
X61582174Y-28862294D01*
X61545784Y-28801332D01*
X61548129Y-28730375D01*
X61549954Y-28725225D01*
X61552044Y-28719715D01*
X61572689Y-28549686D01*
X61552044Y-28379657D01*
X61503230Y-28250944D01*
X61491309Y-28219511D01*
X61478241Y-28200579D01*
X61394011Y-28078551D01*
X61359017Y-28047549D01*
X61265807Y-27964971D01*
X61154569Y-27906590D01*
X61114149Y-27885376D01*
X60947848Y-27844386D01*
X60776570Y-27844386D01*
X60610269Y-27885376D01*
X60610267Y-27885376D01*
X60610267Y-27885377D01*
X60458610Y-27964971D01*
X60330408Y-28078549D01*
X60233108Y-28219511D01*
X60172373Y-28379658D01*
X60151729Y-28549685D01*
X46957851Y-28549685D01*
X46973480Y-28420973D01*
X46952835Y-28250944D01*
X46915728Y-28153102D01*
X46892100Y-28090798D01*
X46887764Y-28084516D01*
X46794802Y-27949838D01*
X46794051Y-27949173D01*
X46666598Y-27836258D01*
X46578562Y-27790054D01*
X46514940Y-27756663D01*
X46348639Y-27715673D01*
X46177361Y-27715673D01*
X46011060Y-27756663D01*
X46011058Y-27756663D01*
X46011058Y-27756664D01*
X45859401Y-27836258D01*
X45731199Y-27949836D01*
X45633899Y-28090798D01*
X45573164Y-28250945D01*
X45552520Y-28420973D01*
X31710424Y-28420973D01*
X31725480Y-28296973D01*
X31704835Y-28126944D01*
X31657554Y-28002273D01*
X31644100Y-27966798D01*
X31642839Y-27964971D01*
X31546802Y-27825838D01*
X31512036Y-27795038D01*
X31418598Y-27712258D01*
X31312442Y-27656544D01*
X31266940Y-27632663D01*
X31100639Y-27591673D01*
X30929361Y-27591673D01*
X30763060Y-27632663D01*
X30763058Y-27632663D01*
X30763058Y-27632664D01*
X30611401Y-27712258D01*
X30483199Y-27825836D01*
X30385899Y-27966798D01*
X30325164Y-28126945D01*
X30304520Y-28296973D01*
X20000500Y-28296973D01*
X20000500Y-27506973D01*
X28816520Y-27506973D01*
X28837164Y-27677000D01*
X28897899Y-27837147D01*
X28897900Y-27837149D01*
X28897901Y-27837150D01*
X28995198Y-27978108D01*
X29123401Y-28091687D01*
X29275060Y-28171283D01*
X29441361Y-28212273D01*
X29441363Y-28212273D01*
X29612637Y-28212273D01*
X29612639Y-28212273D01*
X29778940Y-28171283D01*
X29930599Y-28091687D01*
X30058802Y-27978108D01*
X30156099Y-27837150D01*
X30216835Y-27677002D01*
X30237480Y-27506973D01*
X30216835Y-27336944D01*
X30156099Y-27176796D01*
X30058802Y-27035838D01*
X30050705Y-27028665D01*
X29930598Y-26922258D01*
X29833147Y-26871113D01*
X29778940Y-26842663D01*
X29612639Y-26801673D01*
X29441361Y-26801673D01*
X29275060Y-26842663D01*
X29275058Y-26842663D01*
X29275058Y-26842664D01*
X29123401Y-26922258D01*
X28995199Y-27035836D01*
X28897899Y-27176798D01*
X28837164Y-27336945D01*
X28816520Y-27506973D01*
X20000500Y-27506973D01*
X20000500Y-25067766D01*
X23145787Y-25067766D01*
X23175413Y-25337015D01*
X23175414Y-25337018D01*
X23243928Y-25599088D01*
X23292020Y-25712258D01*
X23340285Y-25825836D01*
X23349870Y-25848390D01*
X23490982Y-26079610D01*
X23664255Y-26287820D01*
X23664256Y-26287821D01*
X23664258Y-26287823D01*
X23865993Y-26468578D01*
X23865995Y-26468579D01*
X23865998Y-26468582D01*
X24091910Y-26618044D01*
X24202742Y-26670000D01*
X24337171Y-26733018D01*
X24337173Y-26733018D01*
X24337176Y-26733020D01*
X24596569Y-26811060D01*
X24596572Y-26811060D01*
X24596574Y-26811061D01*
X24864558Y-26850500D01*
X24864561Y-26850500D01*
X25065330Y-26850500D01*
X25067631Y-26850500D01*
X25270156Y-26835677D01*
X25534553Y-26776780D01*
X25787558Y-26680014D01*
X26023777Y-26547441D01*
X26238177Y-26381888D01*
X26320045Y-26296973D01*
X31304520Y-26296973D01*
X31325164Y-26467000D01*
X31385899Y-26627147D01*
X31385900Y-26627149D01*
X31385901Y-26627150D01*
X31470925Y-26750328D01*
X31483199Y-26768109D01*
X31497122Y-26780444D01*
X31611401Y-26881687D01*
X31763060Y-26961283D01*
X31929361Y-27002273D01*
X31929363Y-27002273D01*
X32100640Y-27002273D01*
X32143543Y-26991698D01*
X32170457Y-26985064D01*
X32241385Y-26988181D01*
X32299368Y-27029151D01*
X32325997Y-27094965D01*
X32325693Y-27122589D01*
X32304519Y-27296972D01*
X32325164Y-27467000D01*
X32385899Y-27627147D01*
X32385900Y-27627149D01*
X32385901Y-27627150D01*
X32483198Y-27768108D01*
X32611401Y-27881687D01*
X32763060Y-27961283D01*
X32929361Y-28002273D01*
X32929363Y-28002273D01*
X33100637Y-28002273D01*
X33100639Y-28002273D01*
X33266940Y-27961283D01*
X33418599Y-27881687D01*
X33546802Y-27768108D01*
X33644099Y-27627150D01*
X33704835Y-27467002D01*
X33725480Y-27296973D01*
X33704835Y-27126944D01*
X33656758Y-27000174D01*
X33644100Y-26966798D01*
X33644099Y-26966796D01*
X33546802Y-26825838D01*
X33544324Y-26823643D01*
X33418598Y-26712258D01*
X33338080Y-26670000D01*
X39294520Y-26670000D01*
X39315164Y-26840027D01*
X39375899Y-27000174D01*
X39375900Y-27000176D01*
X39375901Y-27000177D01*
X39463403Y-27126945D01*
X39473199Y-27141136D01*
X39513453Y-27176798D01*
X39601401Y-27254714D01*
X39753060Y-27334310D01*
X39919361Y-27375300D01*
X39919363Y-27375300D01*
X40090637Y-27375300D01*
X40090639Y-27375300D01*
X40256940Y-27334310D01*
X40408599Y-27254714D01*
X40536802Y-27141135D01*
X40634099Y-27000177D01*
X40652950Y-26950472D01*
X46776978Y-26950472D01*
X46797622Y-27120500D01*
X46858357Y-27280647D01*
X46858358Y-27280649D01*
X46858359Y-27280650D01*
X46945148Y-27406385D01*
X46955657Y-27421609D01*
X47006895Y-27467002D01*
X47083859Y-27535187D01*
X47235518Y-27614783D01*
X47401819Y-27655773D01*
X47401821Y-27655773D01*
X47588397Y-27655773D01*
X47588397Y-27656544D01*
X47643676Y-27658970D01*
X47701662Y-27699935D01*
X47720724Y-27733513D01*
X47757308Y-27829976D01*
X47757309Y-27829979D01*
X47854606Y-27970937D01*
X47982809Y-28084516D01*
X48134468Y-28164112D01*
X48300769Y-28205102D01*
X48300771Y-28205102D01*
X48472045Y-28205102D01*
X48472047Y-28205102D01*
X48638348Y-28164112D01*
X48790007Y-28084516D01*
X48918210Y-27970937D01*
X49015507Y-27829979D01*
X49076243Y-27669831D01*
X49096888Y-27499802D01*
X49076243Y-27329773D01*
X49027610Y-27201539D01*
X49015508Y-27169627D01*
X49015507Y-27169625D01*
X48920173Y-27031511D01*
X54558810Y-27031511D01*
X54579454Y-27201539D01*
X54640189Y-27361686D01*
X54640190Y-27361688D01*
X54640191Y-27361689D01*
X54737488Y-27502647D01*
X54865691Y-27616226D01*
X55017350Y-27695822D01*
X55183651Y-27736812D01*
X55183653Y-27736812D01*
X55354927Y-27736812D01*
X55354929Y-27736812D01*
X55521230Y-27695822D01*
X55672889Y-27616226D01*
X55717829Y-27576412D01*
X61592520Y-27576412D01*
X61613164Y-27746440D01*
X61673899Y-27906587D01*
X61673900Y-27906589D01*
X61673901Y-27906590D01*
X61723267Y-27978109D01*
X61771199Y-28047549D01*
X61836244Y-28105174D01*
X61899401Y-28161127D01*
X62051060Y-28240723D01*
X62217361Y-28281713D01*
X62217363Y-28281713D01*
X62388637Y-28281713D01*
X62388639Y-28281713D01*
X62554940Y-28240723D01*
X62706599Y-28161127D01*
X62746197Y-28126045D01*
X62810446Y-28095845D01*
X62880827Y-28105174D01*
X62913304Y-28126045D01*
X62914319Y-28126944D01*
X62952903Y-28161127D01*
X63104562Y-28240723D01*
X63270863Y-28281713D01*
X63270865Y-28281713D01*
X63442139Y-28281713D01*
X63442141Y-28281713D01*
X63608442Y-28240723D01*
X63760101Y-28161127D01*
X63888304Y-28047548D01*
X63985601Y-27906590D01*
X64046337Y-27746442D01*
X64066982Y-27576413D01*
X64046337Y-27406384D01*
X64007887Y-27304999D01*
X76909908Y-27304999D01*
X76928992Y-27449961D01*
X76981370Y-27576412D01*
X76984946Y-27585046D01*
X77073955Y-27701045D01*
X77189954Y-27790054D01*
X77325038Y-27846007D01*
X77440339Y-27861187D01*
X77505264Y-27889908D01*
X77544356Y-27949173D01*
X77548813Y-27969662D01*
X77563992Y-28084961D01*
X77619724Y-28219511D01*
X77619946Y-28220046D01*
X77708955Y-28336045D01*
X77824954Y-28425054D01*
X77960038Y-28481007D01*
X78105000Y-28500092D01*
X78249962Y-28481007D01*
X78385046Y-28425054D01*
X78501045Y-28336045D01*
X78590054Y-28220046D01*
X78646007Y-28084962D01*
X78665092Y-27940000D01*
X78646007Y-27795038D01*
X78590054Y-27659954D01*
X78501045Y-27543955D01*
X78385046Y-27454946D01*
X78385044Y-27454945D01*
X78249961Y-27398992D01*
X78134662Y-27383813D01*
X78069734Y-27355090D01*
X78030643Y-27295825D01*
X78026187Y-27275345D01*
X78011007Y-27160038D01*
X77955054Y-27024954D01*
X77866045Y-26908955D01*
X77750046Y-26819946D01*
X77750044Y-26819945D01*
X77614961Y-26763992D01*
X77470000Y-26744908D01*
X77325038Y-26763992D01*
X77189955Y-26819945D01*
X77073955Y-26908955D01*
X76984945Y-27024955D01*
X76928992Y-27160038D01*
X76909908Y-27304999D01*
X64007887Y-27304999D01*
X64004408Y-27295825D01*
X63985602Y-27246238D01*
X63954750Y-27201541D01*
X63888304Y-27105278D01*
X63833787Y-27056980D01*
X63760100Y-26991698D01*
X63646848Y-26932260D01*
X63608442Y-26912103D01*
X63442141Y-26871113D01*
X63270863Y-26871113D01*
X63104562Y-26912103D01*
X63104560Y-26912103D01*
X63104560Y-26912104D01*
X62952903Y-26991698D01*
X62913304Y-27026780D01*
X62849051Y-27056980D01*
X62778670Y-27047648D01*
X62746198Y-27026780D01*
X62706598Y-26991698D01*
X62593346Y-26932260D01*
X62554940Y-26912103D01*
X62388639Y-26871113D01*
X62217361Y-26871113D01*
X62051060Y-26912103D01*
X62051058Y-26912103D01*
X62051058Y-26912104D01*
X61899401Y-26991698D01*
X61771199Y-27105276D01*
X61673899Y-27246238D01*
X61613164Y-27406385D01*
X61592520Y-27576412D01*
X55717829Y-27576412D01*
X55801092Y-27502647D01*
X55898389Y-27361689D01*
X55959125Y-27201541D01*
X55979770Y-27031512D01*
X55959125Y-26861483D01*
X55898389Y-26701335D01*
X55801092Y-26560377D01*
X55786490Y-26547441D01*
X55672888Y-26446797D01*
X55597059Y-26407000D01*
X55521230Y-26367202D01*
X55441479Y-26347545D01*
X70087066Y-26347545D01*
X70107710Y-26517573D01*
X70168445Y-26677720D01*
X70168446Y-26677722D01*
X70168447Y-26677723D01*
X70260484Y-26811061D01*
X70265745Y-26818682D01*
X70284721Y-26835493D01*
X70393947Y-26932260D01*
X70545606Y-27011856D01*
X70711907Y-27052846D01*
X70711909Y-27052846D01*
X70883183Y-27052846D01*
X70883185Y-27052846D01*
X71049486Y-27011856D01*
X71201145Y-26932260D01*
X71329348Y-26818681D01*
X71426645Y-26677723D01*
X71487381Y-26517575D01*
X71508026Y-26347546D01*
X71496082Y-26249174D01*
X85228694Y-26249174D01*
X85249338Y-26419201D01*
X85310073Y-26579348D01*
X85310074Y-26579350D01*
X85310075Y-26579351D01*
X85401815Y-26712259D01*
X85407373Y-26720310D01*
X85491118Y-26794502D01*
X85535575Y-26833888D01*
X85687234Y-26913484D01*
X85853535Y-26954474D01*
X85853537Y-26954474D01*
X86024811Y-26954474D01*
X86024813Y-26954474D01*
X86191114Y-26913484D01*
X86342773Y-26833888D01*
X86470976Y-26720309D01*
X86568273Y-26579351D01*
X86629009Y-26419203D01*
X86649654Y-26249174D01*
X86629009Y-26079145D01*
X86591902Y-25981303D01*
X86568274Y-25918999D01*
X86568273Y-25918997D01*
X86470976Y-25778039D01*
X86396726Y-25712259D01*
X86342772Y-25664459D01*
X86266943Y-25624662D01*
X86191114Y-25584864D01*
X86024813Y-25543874D01*
X85853535Y-25543874D01*
X85687234Y-25584864D01*
X85687232Y-25584864D01*
X85687232Y-25584865D01*
X85535575Y-25664459D01*
X85407373Y-25778037D01*
X85310073Y-25918999D01*
X85249338Y-26079146D01*
X85228694Y-26249174D01*
X71496082Y-26249174D01*
X71487381Y-26177517D01*
X71450074Y-26079146D01*
X71426646Y-26017371D01*
X71418584Y-26005691D01*
X71329348Y-25876411D01*
X71289121Y-25840773D01*
X71201144Y-25762831D01*
X71104783Y-25712258D01*
X71049486Y-25683236D01*
X70883185Y-25642246D01*
X70711907Y-25642246D01*
X70545606Y-25683236D01*
X70545604Y-25683236D01*
X70545604Y-25683237D01*
X70393947Y-25762831D01*
X70265745Y-25876409D01*
X70168445Y-26017371D01*
X70107710Y-26177518D01*
X70087066Y-26347545D01*
X55441479Y-26347545D01*
X55354929Y-26326212D01*
X55183651Y-26326212D01*
X55017350Y-26367202D01*
X55017348Y-26367202D01*
X55017348Y-26367203D01*
X54865691Y-26446797D01*
X54737489Y-26560375D01*
X54640189Y-26701337D01*
X54579454Y-26861484D01*
X54558810Y-27031511D01*
X48920173Y-27031511D01*
X48918210Y-27028667D01*
X48899234Y-27011856D01*
X48790006Y-26915087D01*
X48687870Y-26861483D01*
X48638348Y-26835492D01*
X48472047Y-26794502D01*
X48300769Y-26794502D01*
X48285470Y-26794502D01*
X48285470Y-26793731D01*
X48230175Y-26791299D01*
X48172193Y-26750328D01*
X48153141Y-26716761D01*
X48116557Y-26620296D01*
X48019260Y-26479338D01*
X48005333Y-26467000D01*
X47891056Y-26365758D01*
X47815227Y-26325961D01*
X47739398Y-26286163D01*
X47573097Y-26245173D01*
X47401819Y-26245173D01*
X47235518Y-26286163D01*
X47235516Y-26286163D01*
X47235516Y-26286164D01*
X47083859Y-26365758D01*
X46955657Y-26479336D01*
X46858357Y-26620298D01*
X46797622Y-26780445D01*
X46776978Y-26950472D01*
X40652950Y-26950472D01*
X40694835Y-26840029D01*
X40715480Y-26670000D01*
X40694835Y-26499971D01*
X40644483Y-26367203D01*
X40634100Y-26339825D01*
X40624704Y-26326212D01*
X40536802Y-26198865D01*
X40536690Y-26198766D01*
X40408598Y-26085285D01*
X40329881Y-26043972D01*
X40256940Y-26005690D01*
X40090639Y-25964700D01*
X39919361Y-25964700D01*
X39753060Y-26005690D01*
X39753058Y-26005690D01*
X39753058Y-26005691D01*
X39601401Y-26085285D01*
X39473199Y-26198863D01*
X39375899Y-26339825D01*
X39315164Y-26499972D01*
X39294520Y-26670000D01*
X33338080Y-26670000D01*
X33266940Y-26632663D01*
X33100639Y-26591673D01*
X32929361Y-26591673D01*
X32859540Y-26608882D01*
X32788612Y-26605763D01*
X32730630Y-26564793D01*
X32704002Y-26498979D01*
X32704306Y-26471355D01*
X32707288Y-26446797D01*
X32725480Y-26296973D01*
X32704835Y-26126944D01*
X32644099Y-25966796D01*
X32546802Y-25825838D01*
X32492846Y-25778037D01*
X32418598Y-25712258D01*
X32327523Y-25664459D01*
X32266940Y-25632663D01*
X32100639Y-25591673D01*
X31929361Y-25591673D01*
X31763060Y-25632663D01*
X31763058Y-25632663D01*
X31763058Y-25632664D01*
X31611401Y-25712258D01*
X31483199Y-25825836D01*
X31385899Y-25966798D01*
X31325164Y-26126945D01*
X31304520Y-26296973D01*
X26320045Y-26296973D01*
X26426186Y-26186881D01*
X26583799Y-25966579D01*
X26707656Y-25725675D01*
X26795118Y-25469305D01*
X26844319Y-25202933D01*
X26852943Y-24966971D01*
X28562520Y-24966971D01*
X28583164Y-25137000D01*
X28643899Y-25297147D01*
X28643900Y-25297148D01*
X28643901Y-25297150D01*
X28741198Y-25438108D01*
X28869401Y-25551687D01*
X29021060Y-25631283D01*
X29187361Y-25672273D01*
X29187363Y-25672273D01*
X29358637Y-25672273D01*
X29358639Y-25672273D01*
X29524940Y-25631283D01*
X29676599Y-25551687D01*
X29804802Y-25438108D01*
X29902099Y-25297150D01*
X29962835Y-25137002D01*
X29983480Y-24966973D01*
X29983480Y-24966970D01*
X35864520Y-24966970D01*
X35885164Y-25136998D01*
X35945899Y-25297145D01*
X35945900Y-25297147D01*
X35945901Y-25297148D01*
X36000185Y-25375792D01*
X36043199Y-25438107D01*
X36162584Y-25543874D01*
X36171401Y-25551685D01*
X36323060Y-25631281D01*
X36489361Y-25672271D01*
X36489363Y-25672271D01*
X36660637Y-25672271D01*
X36660639Y-25672271D01*
X36826940Y-25631281D01*
X36978599Y-25551685D01*
X37106802Y-25438106D01*
X37204099Y-25297148D01*
X37264835Y-25137000D01*
X37265020Y-25135473D01*
X51349520Y-25135473D01*
X51370164Y-25305500D01*
X51430899Y-25465647D01*
X51430900Y-25465649D01*
X51430901Y-25465650D01*
X51523007Y-25599088D01*
X51528199Y-25606609D01*
X51602318Y-25672273D01*
X51656401Y-25720187D01*
X51808060Y-25799783D01*
X51974361Y-25840773D01*
X51974363Y-25840773D01*
X52145637Y-25840773D01*
X52145639Y-25840773D01*
X52311940Y-25799783D01*
X52463599Y-25720187D01*
X52591802Y-25606608D01*
X52689099Y-25465650D01*
X52749835Y-25305502D01*
X52770480Y-25135473D01*
X52756699Y-25021972D01*
X66399520Y-25021972D01*
X66420164Y-25192000D01*
X66480899Y-25352147D01*
X66480900Y-25352149D01*
X66480901Y-25352150D01*
X66497221Y-25375794D01*
X66578199Y-25493109D01*
X66644317Y-25551685D01*
X66706401Y-25606687D01*
X66858060Y-25686283D01*
X67024361Y-25727273D01*
X67024363Y-25727273D01*
X67195637Y-25727273D01*
X67195639Y-25727273D01*
X67361940Y-25686283D01*
X67513599Y-25606687D01*
X67641802Y-25493108D01*
X67739099Y-25352150D01*
X67744211Y-25338672D01*
X81704790Y-25338672D01*
X81725434Y-25508699D01*
X81786169Y-25668846D01*
X81786170Y-25668848D01*
X81786171Y-25668849D01*
X81826498Y-25727273D01*
X81883469Y-25809808D01*
X81927019Y-25848390D01*
X82011671Y-25923386D01*
X82163330Y-26002982D01*
X82329631Y-26043972D01*
X82329633Y-26043972D01*
X82500907Y-26043972D01*
X82500909Y-26043972D01*
X82667210Y-26002982D01*
X82818869Y-25923386D01*
X82947072Y-25809807D01*
X83044369Y-25668849D01*
X83105105Y-25508701D01*
X83125750Y-25338672D01*
X83105105Y-25168643D01*
X83044369Y-25008495D01*
X82947072Y-24867537D01*
X82929472Y-24851945D01*
X82831333Y-24765000D01*
X91839751Y-24765000D01*
X91859506Y-24978197D01*
X91918099Y-25184128D01*
X92013537Y-25375794D01*
X92060593Y-25438106D01*
X92142566Y-25546655D01*
X92300794Y-25690899D01*
X92482833Y-25803612D01*
X92682483Y-25880957D01*
X92783530Y-25899846D01*
X92846814Y-25932024D01*
X92882656Y-25993309D01*
X92879675Y-26064243D01*
X92838817Y-26122305D01*
X92773055Y-26149060D01*
X92760376Y-26149700D01*
X92108058Y-26149700D01*
X92108040Y-26149700D01*
X92104422Y-26149701D01*
X92100812Y-26150119D01*
X92100806Y-26150120D01*
X92078890Y-26152661D01*
X91974473Y-26198766D01*
X91893766Y-26279473D01*
X91847662Y-26383889D01*
X91847662Y-26383890D01*
X91847662Y-26383891D01*
X91844700Y-26409421D01*
X91844700Y-26413066D01*
X91844700Y-26413067D01*
X91844700Y-28196941D01*
X91844700Y-28196958D01*
X91844701Y-28200578D01*
X91845119Y-28204188D01*
X91845120Y-28204193D01*
X91847661Y-28226109D01*
X91893766Y-28330526D01*
X91974473Y-28411233D01*
X91974474Y-28411233D01*
X91974475Y-28411234D01*
X92078891Y-28457338D01*
X92104421Y-28460300D01*
X93895578Y-28460299D01*
X93921109Y-28457338D01*
X94025525Y-28411234D01*
X94106234Y-28330525D01*
X94152338Y-28226109D01*
X94155300Y-28200579D01*
X94155299Y-26409422D01*
X94152338Y-26383891D01*
X94152337Y-26383889D01*
X94106233Y-26279473D01*
X94025526Y-26198766D01*
X93921110Y-26152662D01*
X93918002Y-26152301D01*
X93895579Y-26149700D01*
X93891932Y-26149700D01*
X93239624Y-26149700D01*
X93171503Y-26129698D01*
X93125010Y-26076042D01*
X93114906Y-26005768D01*
X93144400Y-25941188D01*
X93204126Y-25902804D01*
X93216455Y-25899849D01*
X93317517Y-25880957D01*
X93517167Y-25803612D01*
X93699206Y-25690899D01*
X93857434Y-25546655D01*
X93986464Y-25375792D01*
X94081900Y-25184130D01*
X94140494Y-24978195D01*
X94160249Y-24765000D01*
X96839751Y-24765000D01*
X96859506Y-24978197D01*
X96918099Y-25184128D01*
X97013537Y-25375794D01*
X97060593Y-25438106D01*
X97142566Y-25546655D01*
X97300794Y-25690899D01*
X97482833Y-25803612D01*
X97682483Y-25880957D01*
X97783530Y-25899846D01*
X97846814Y-25932024D01*
X97882656Y-25993309D01*
X97879675Y-26064243D01*
X97838817Y-26122305D01*
X97773055Y-26149060D01*
X97760376Y-26149700D01*
X97108058Y-26149700D01*
X97108040Y-26149700D01*
X97104422Y-26149701D01*
X97100812Y-26150119D01*
X97100806Y-26150120D01*
X97078890Y-26152661D01*
X96974473Y-26198766D01*
X96893766Y-26279473D01*
X96847662Y-26383889D01*
X96847662Y-26383890D01*
X96847662Y-26383891D01*
X96844700Y-26409421D01*
X96844700Y-26413066D01*
X96844700Y-26413067D01*
X96844700Y-28196941D01*
X96844700Y-28196958D01*
X96844701Y-28200578D01*
X96845119Y-28204188D01*
X96845120Y-28204193D01*
X96847661Y-28226109D01*
X96893766Y-28330526D01*
X96974473Y-28411233D01*
X96974474Y-28411233D01*
X96974475Y-28411234D01*
X97078891Y-28457338D01*
X97104421Y-28460300D01*
X98895578Y-28460299D01*
X98921109Y-28457338D01*
X99025525Y-28411234D01*
X99106234Y-28330525D01*
X99152338Y-28226109D01*
X99155300Y-28200579D01*
X99155299Y-26409422D01*
X99152338Y-26383891D01*
X99152337Y-26383889D01*
X99106233Y-26279473D01*
X99025526Y-26198766D01*
X98921110Y-26152662D01*
X98918002Y-26152301D01*
X98895579Y-26149700D01*
X98891932Y-26149700D01*
X98239624Y-26149700D01*
X98171503Y-26129698D01*
X98125010Y-26076042D01*
X98114906Y-26005768D01*
X98144400Y-25941188D01*
X98204126Y-25902804D01*
X98216455Y-25899849D01*
X98317517Y-25880957D01*
X98517167Y-25803612D01*
X98699206Y-25690899D01*
X98857434Y-25546655D01*
X98986464Y-25375792D01*
X99081900Y-25184130D01*
X99140494Y-24978195D01*
X99160249Y-24765000D01*
X101839751Y-24765000D01*
X101859506Y-24978197D01*
X101918099Y-25184128D01*
X102013537Y-25375794D01*
X102060593Y-25438106D01*
X102142566Y-25546655D01*
X102300794Y-25690899D01*
X102482833Y-25803612D01*
X102682483Y-25880957D01*
X102783530Y-25899846D01*
X102846814Y-25932024D01*
X102882656Y-25993309D01*
X102879675Y-26064243D01*
X102838817Y-26122305D01*
X102773055Y-26149060D01*
X102760376Y-26149700D01*
X102108058Y-26149700D01*
X102108040Y-26149700D01*
X102104422Y-26149701D01*
X102100812Y-26150119D01*
X102100806Y-26150120D01*
X102078890Y-26152661D01*
X101974473Y-26198766D01*
X101893766Y-26279473D01*
X101847662Y-26383889D01*
X101847662Y-26383890D01*
X101847662Y-26383891D01*
X101844700Y-26409421D01*
X101844700Y-26413066D01*
X101844700Y-26413067D01*
X101844700Y-28196941D01*
X101844700Y-28196958D01*
X101844701Y-28200578D01*
X101845119Y-28204188D01*
X101845120Y-28204193D01*
X101847661Y-28226109D01*
X101893766Y-28330526D01*
X101974473Y-28411233D01*
X101974474Y-28411233D01*
X101974475Y-28411234D01*
X102078891Y-28457338D01*
X102104421Y-28460300D01*
X103895578Y-28460299D01*
X103921109Y-28457338D01*
X104025525Y-28411234D01*
X104106234Y-28330525D01*
X104152338Y-28226109D01*
X104155300Y-28200579D01*
X104155299Y-26409422D01*
X104152338Y-26383891D01*
X104152337Y-26383889D01*
X104106233Y-26279473D01*
X104025526Y-26198766D01*
X103921110Y-26152662D01*
X103918002Y-26152301D01*
X103895579Y-26149700D01*
X103891932Y-26149700D01*
X103239624Y-26149700D01*
X103171503Y-26129698D01*
X103125010Y-26076042D01*
X103114906Y-26005768D01*
X103144400Y-25941188D01*
X103204126Y-25902804D01*
X103216455Y-25899849D01*
X103317517Y-25880957D01*
X103517167Y-25803612D01*
X103699206Y-25690899D01*
X103857434Y-25546655D01*
X103986464Y-25375792D01*
X104081900Y-25184130D01*
X104140494Y-24978195D01*
X104160249Y-24765000D01*
X106789751Y-24765000D01*
X106809506Y-24978197D01*
X106868099Y-25184128D01*
X106963537Y-25375794D01*
X107010593Y-25438106D01*
X107092566Y-25546655D01*
X107250794Y-25690899D01*
X107432833Y-25803612D01*
X107632483Y-25880957D01*
X107733530Y-25899846D01*
X107796814Y-25932024D01*
X107832656Y-25993309D01*
X107829675Y-26064243D01*
X107788817Y-26122305D01*
X107723055Y-26149060D01*
X107710376Y-26149700D01*
X107058058Y-26149700D01*
X107058040Y-26149700D01*
X107054422Y-26149701D01*
X107050812Y-26150119D01*
X107050806Y-26150120D01*
X107028890Y-26152661D01*
X106924473Y-26198766D01*
X106843766Y-26279473D01*
X106797662Y-26383889D01*
X106797662Y-26383890D01*
X106797662Y-26383891D01*
X106794700Y-26409421D01*
X106794700Y-26413066D01*
X106794700Y-26413067D01*
X106794700Y-28196941D01*
X106794700Y-28196958D01*
X106794701Y-28200578D01*
X106795119Y-28204188D01*
X106795120Y-28204193D01*
X106797661Y-28226109D01*
X106843766Y-28330526D01*
X106924473Y-28411233D01*
X106924474Y-28411233D01*
X106924475Y-28411234D01*
X107028891Y-28457338D01*
X107054421Y-28460300D01*
X108845578Y-28460299D01*
X108871109Y-28457338D01*
X108975525Y-28411234D01*
X109056234Y-28330525D01*
X109102338Y-28226109D01*
X109105300Y-28200579D01*
X109105299Y-26409422D01*
X109102338Y-26383891D01*
X109102337Y-26383889D01*
X109056233Y-26279473D01*
X108975526Y-26198766D01*
X108871110Y-26152662D01*
X108868002Y-26152301D01*
X108845579Y-26149700D01*
X108841932Y-26149700D01*
X108189624Y-26149700D01*
X108121503Y-26129698D01*
X108075010Y-26076042D01*
X108064906Y-26005768D01*
X108094400Y-25941188D01*
X108154126Y-25902804D01*
X108166455Y-25899849D01*
X108267517Y-25880957D01*
X108467167Y-25803612D01*
X108649206Y-25690899D01*
X108807434Y-25546655D01*
X108936464Y-25375792D01*
X109031900Y-25184130D01*
X109065009Y-25067766D01*
X113145787Y-25067766D01*
X113175413Y-25337015D01*
X113175414Y-25337018D01*
X113243928Y-25599088D01*
X113292020Y-25712258D01*
X113340285Y-25825836D01*
X113349870Y-25848390D01*
X113490982Y-26079610D01*
X113664255Y-26287820D01*
X113664256Y-26287821D01*
X113664258Y-26287823D01*
X113865993Y-26468578D01*
X113865995Y-26468579D01*
X113865998Y-26468582D01*
X114091910Y-26618044D01*
X114202742Y-26670000D01*
X114337171Y-26733018D01*
X114337173Y-26733018D01*
X114337176Y-26733020D01*
X114596569Y-26811060D01*
X114596572Y-26811060D01*
X114596574Y-26811061D01*
X114864558Y-26850500D01*
X114864561Y-26850500D01*
X115065330Y-26850500D01*
X115067631Y-26850500D01*
X115270156Y-26835677D01*
X115534553Y-26776780D01*
X115787558Y-26680014D01*
X116023777Y-26547441D01*
X116238177Y-26381888D01*
X116426186Y-26186881D01*
X116583799Y-25966579D01*
X116707656Y-25725675D01*
X116795118Y-25469305D01*
X116844319Y-25202933D01*
X116854212Y-24932235D01*
X116824586Y-24662982D01*
X116756072Y-24400912D01*
X116650130Y-24151610D01*
X116509018Y-23920390D01*
X116335745Y-23712180D01*
X116230759Y-23618112D01*
X116134006Y-23531421D01*
X116134003Y-23531419D01*
X116134002Y-23531418D01*
X115908090Y-23381956D01*
X115908086Y-23381954D01*
X115662828Y-23266981D01*
X115403425Y-23188938D01*
X115135442Y-23149500D01*
X115135439Y-23149500D01*
X114932369Y-23149500D01*
X114930099Y-23149666D01*
X114930075Y-23149667D01*
X114729839Y-23164323D01*
X114465449Y-23223219D01*
X114212441Y-23319985D01*
X113976225Y-23452557D01*
X113761820Y-23618114D01*
X113573815Y-23813117D01*
X113416200Y-24033422D01*
X113292342Y-24274328D01*
X113204882Y-24530693D01*
X113155681Y-24797065D01*
X113145787Y-25067766D01*
X109065009Y-25067766D01*
X109090494Y-24978195D01*
X109110249Y-24765000D01*
X109090494Y-24551805D01*
X109031900Y-24345870D01*
X108936464Y-24154208D01*
X108807434Y-23983345D01*
X108649206Y-23839101D01*
X108467167Y-23726388D01*
X108267517Y-23649043D01*
X108057054Y-23609700D01*
X107842946Y-23609700D01*
X107685098Y-23639207D01*
X107632482Y-23649043D01*
X107432833Y-23726388D01*
X107250793Y-23839101D01*
X107092565Y-23983346D01*
X106963537Y-24154205D01*
X106868099Y-24345871D01*
X106809506Y-24551802D01*
X106789751Y-24765000D01*
X104160249Y-24765000D01*
X104140494Y-24551805D01*
X104081900Y-24345870D01*
X103986464Y-24154208D01*
X103857434Y-23983345D01*
X103699206Y-23839101D01*
X103517167Y-23726388D01*
X103317517Y-23649043D01*
X103107054Y-23609700D01*
X102892946Y-23609700D01*
X102735098Y-23639207D01*
X102682482Y-23649043D01*
X102482833Y-23726388D01*
X102300793Y-23839101D01*
X102142565Y-23983346D01*
X102013537Y-24154205D01*
X101918099Y-24345871D01*
X101859506Y-24551802D01*
X101839751Y-24765000D01*
X99160249Y-24765000D01*
X99140494Y-24551805D01*
X99081900Y-24345870D01*
X98986464Y-24154208D01*
X98857434Y-23983345D01*
X98699206Y-23839101D01*
X98517167Y-23726388D01*
X98317517Y-23649043D01*
X98107054Y-23609700D01*
X97892946Y-23609700D01*
X97735098Y-23639207D01*
X97682482Y-23649043D01*
X97482833Y-23726388D01*
X97300793Y-23839101D01*
X97142565Y-23983346D01*
X97013537Y-24154205D01*
X96918099Y-24345871D01*
X96859506Y-24551802D01*
X96839751Y-24765000D01*
X94160249Y-24765000D01*
X94140494Y-24551805D01*
X94081900Y-24345870D01*
X93986464Y-24154208D01*
X93857434Y-23983345D01*
X93699206Y-23839101D01*
X93517167Y-23726388D01*
X93317517Y-23649043D01*
X93107054Y-23609700D01*
X92892946Y-23609700D01*
X92735098Y-23639207D01*
X92682482Y-23649043D01*
X92482833Y-23726388D01*
X92300793Y-23839101D01*
X92142565Y-23983346D01*
X92013537Y-24154205D01*
X91918099Y-24345871D01*
X91859506Y-24551802D01*
X91839751Y-24765000D01*
X82831333Y-24765000D01*
X82818868Y-24753957D01*
X82743039Y-24714160D01*
X82667210Y-24674362D01*
X82500909Y-24633372D01*
X82329631Y-24633372D01*
X82163330Y-24674362D01*
X82163328Y-24674362D01*
X82163328Y-24674363D01*
X82011671Y-24753957D01*
X81883469Y-24867535D01*
X81786169Y-25008497D01*
X81725434Y-25168644D01*
X81704790Y-25338672D01*
X67744211Y-25338672D01*
X67799835Y-25192002D01*
X67820480Y-25021973D01*
X67799835Y-24851944D01*
X67739099Y-24691796D01*
X67641802Y-24550838D01*
X67619065Y-24530695D01*
X67513598Y-24437258D01*
X67408800Y-24382257D01*
X67361940Y-24357663D01*
X67195639Y-24316673D01*
X67024361Y-24316673D01*
X66858060Y-24357663D01*
X66858058Y-24357663D01*
X66858058Y-24357664D01*
X66706401Y-24437258D01*
X66578199Y-24550836D01*
X66480899Y-24691798D01*
X66420164Y-24851945D01*
X66399520Y-25021972D01*
X52756699Y-25021972D01*
X52749835Y-24965444D01*
X52689099Y-24805296D01*
X52591802Y-24664338D01*
X52590271Y-24662982D01*
X52463598Y-24550758D01*
X52387769Y-24510961D01*
X52311940Y-24471163D01*
X52145639Y-24430173D01*
X51974361Y-24430173D01*
X51808060Y-24471163D01*
X51808058Y-24471163D01*
X51808058Y-24471164D01*
X51656401Y-24550758D01*
X51528199Y-24664336D01*
X51430899Y-24805298D01*
X51370164Y-24965445D01*
X51349520Y-25135473D01*
X37265020Y-25135473D01*
X37285480Y-24966971D01*
X37264835Y-24796942D01*
X37204099Y-24636794D01*
X37106802Y-24495836D01*
X37078953Y-24471164D01*
X36978598Y-24382256D01*
X36902769Y-24342458D01*
X36826940Y-24302661D01*
X36660639Y-24261671D01*
X36489361Y-24261671D01*
X36323060Y-24302661D01*
X36323058Y-24302661D01*
X36323058Y-24302662D01*
X36171401Y-24382256D01*
X36043199Y-24495834D01*
X35945899Y-24636796D01*
X35885164Y-24796943D01*
X35864520Y-24966970D01*
X29983480Y-24966970D01*
X29983294Y-24965445D01*
X29962835Y-24796945D01*
X29962834Y-24796943D01*
X29902099Y-24636796D01*
X29804802Y-24495838D01*
X29804797Y-24495834D01*
X29676598Y-24382258D01*
X29551634Y-24316673D01*
X29524940Y-24302663D01*
X29358639Y-24261673D01*
X29187361Y-24261673D01*
X29021060Y-24302663D01*
X29021058Y-24302663D01*
X29021058Y-24302664D01*
X28869401Y-24382258D01*
X28741199Y-24495836D01*
X28643899Y-24636798D01*
X28583164Y-24796945D01*
X28562520Y-24966971D01*
X26852943Y-24966971D01*
X26854212Y-24932235D01*
X26824586Y-24662982D01*
X26756072Y-24400912D01*
X26650130Y-24151610D01*
X26509018Y-23920390D01*
X26335745Y-23712180D01*
X26230759Y-23618112D01*
X26134006Y-23531421D01*
X26134003Y-23531419D01*
X26134002Y-23531418D01*
X25908090Y-23381956D01*
X25908086Y-23381954D01*
X25662828Y-23266981D01*
X25403425Y-23188938D01*
X25135442Y-23149500D01*
X25135439Y-23149500D01*
X24932369Y-23149500D01*
X24930099Y-23149666D01*
X24930075Y-23149667D01*
X24729839Y-23164323D01*
X24465449Y-23223219D01*
X24212441Y-23319985D01*
X23976225Y-23452557D01*
X23761820Y-23618114D01*
X23573815Y-23813117D01*
X23416200Y-24033422D01*
X23292342Y-24274328D01*
X23204882Y-24530693D01*
X23155681Y-24797065D01*
X23145787Y-25067766D01*
X20000500Y-25067766D01*
X20000500Y-22172973D01*
X30544965Y-22172973D01*
X30563865Y-22376941D01*
X30563865Y-22376944D01*
X30563866Y-22376945D01*
X30619923Y-22573966D01*
X30711227Y-22757329D01*
X30755550Y-22816022D01*
X30834674Y-22920799D01*
X30986054Y-23058800D01*
X30986056Y-23058801D01*
X30986057Y-23058802D01*
X31160211Y-23166634D01*
X31160213Y-23166634D01*
X31160215Y-23166636D01*
X31351225Y-23240633D01*
X31552579Y-23278273D01*
X31552581Y-23278273D01*
X31757419Y-23278273D01*
X31757421Y-23278273D01*
X31958775Y-23240633D01*
X32149785Y-23166636D01*
X32323946Y-23058800D01*
X32475326Y-22920799D01*
X32554451Y-22816019D01*
X32611462Y-22773714D01*
X32682298Y-22768946D01*
X32744467Y-22803232D01*
X32755549Y-22816021D01*
X32794838Y-22868048D01*
X32834674Y-22920799D01*
X32986054Y-23058800D01*
X32986056Y-23058801D01*
X32986057Y-23058802D01*
X33160211Y-23166634D01*
X33160213Y-23166634D01*
X33160215Y-23166636D01*
X33351225Y-23240633D01*
X33552579Y-23278273D01*
X33552581Y-23278273D01*
X33757419Y-23278273D01*
X33757421Y-23278273D01*
X33958775Y-23240633D01*
X34149785Y-23166636D01*
X34323946Y-23058800D01*
X34475326Y-22920799D01*
X34554451Y-22816020D01*
X34611463Y-22773714D01*
X34682300Y-22768946D01*
X34744469Y-22803232D01*
X34755546Y-22816016D01*
X34834674Y-22920799D01*
X34986054Y-23058800D01*
X34986056Y-23058801D01*
X34986057Y-23058802D01*
X35160211Y-23166634D01*
X35160213Y-23166634D01*
X35160215Y-23166636D01*
X35351225Y-23240633D01*
X35552579Y-23278273D01*
X35552581Y-23278273D01*
X35757419Y-23278273D01*
X35757421Y-23278273D01*
X35958775Y-23240633D01*
X36149785Y-23166636D01*
X36323946Y-23058800D01*
X36475326Y-22920799D01*
X36554451Y-22816020D01*
X36611463Y-22773714D01*
X36682300Y-22768946D01*
X36744469Y-22803232D01*
X36755546Y-22816016D01*
X36834674Y-22920799D01*
X36986054Y-23058800D01*
X36986056Y-23058801D01*
X36986057Y-23058802D01*
X37160211Y-23166634D01*
X37160213Y-23166634D01*
X37160215Y-23166636D01*
X37351225Y-23240633D01*
X37552579Y-23278273D01*
X37552581Y-23278273D01*
X37757419Y-23278273D01*
X37757421Y-23278273D01*
X37958775Y-23240633D01*
X38149785Y-23166636D01*
X38323946Y-23058800D01*
X38475326Y-22920799D01*
X38554451Y-22816020D01*
X38611463Y-22773714D01*
X38682300Y-22768946D01*
X38744469Y-22803232D01*
X38755546Y-22816016D01*
X38834674Y-22920799D01*
X38986054Y-23058800D01*
X38986056Y-23058801D01*
X38986057Y-23058802D01*
X39160211Y-23166634D01*
X39160213Y-23166634D01*
X39160215Y-23166636D01*
X39351225Y-23240633D01*
X39552579Y-23278273D01*
X39552581Y-23278273D01*
X39757419Y-23278273D01*
X39757421Y-23278273D01*
X39958775Y-23240633D01*
X40149785Y-23166636D01*
X40323946Y-23058800D01*
X40475326Y-22920799D01*
X40554451Y-22816020D01*
X40611463Y-22773714D01*
X40682300Y-22768946D01*
X40744469Y-22803232D01*
X40755546Y-22816016D01*
X40834674Y-22920799D01*
X40986054Y-23058800D01*
X40986056Y-23058801D01*
X40986057Y-23058802D01*
X41160211Y-23166634D01*
X41160213Y-23166634D01*
X41160215Y-23166636D01*
X41351225Y-23240633D01*
X41552579Y-23278273D01*
X41552581Y-23278273D01*
X41757419Y-23278273D01*
X41757421Y-23278273D01*
X41958775Y-23240633D01*
X42149785Y-23166636D01*
X42323946Y-23058800D01*
X42475326Y-22920799D01*
X42598771Y-22757331D01*
X42690077Y-22573964D01*
X42746135Y-22376941D01*
X42760214Y-22225000D01*
X45792964Y-22225000D01*
X45811864Y-22428968D01*
X45811864Y-22428971D01*
X45811865Y-22428972D01*
X45867922Y-22625993D01*
X45959226Y-22809356D01*
X46019674Y-22889402D01*
X46082673Y-22972826D01*
X46234053Y-23110827D01*
X46234055Y-23110828D01*
X46234056Y-23110829D01*
X46408210Y-23218661D01*
X46408212Y-23218661D01*
X46408214Y-23218663D01*
X46599224Y-23292660D01*
X46800578Y-23330300D01*
X46800580Y-23330300D01*
X47005418Y-23330300D01*
X47005420Y-23330300D01*
X47206774Y-23292660D01*
X47397784Y-23218663D01*
X47571945Y-23110827D01*
X47723325Y-22972826D01*
X47802450Y-22868047D01*
X47859462Y-22825741D01*
X47930299Y-22820973D01*
X47992468Y-22855259D01*
X48003545Y-22868043D01*
X48082673Y-22972826D01*
X48234053Y-23110827D01*
X48234055Y-23110828D01*
X48234056Y-23110829D01*
X48408210Y-23218661D01*
X48408212Y-23218661D01*
X48408214Y-23218663D01*
X48599224Y-23292660D01*
X48800578Y-23330300D01*
X48800580Y-23330300D01*
X49005418Y-23330300D01*
X49005420Y-23330300D01*
X49206774Y-23292660D01*
X49397784Y-23218663D01*
X49571945Y-23110827D01*
X49723325Y-22972826D01*
X49802450Y-22868047D01*
X49859462Y-22825741D01*
X49930299Y-22820973D01*
X49992468Y-22855259D01*
X50003545Y-22868043D01*
X50082673Y-22972826D01*
X50234053Y-23110827D01*
X50234055Y-23110828D01*
X50234056Y-23110829D01*
X50408210Y-23218661D01*
X50408212Y-23218661D01*
X50408214Y-23218663D01*
X50599224Y-23292660D01*
X50800578Y-23330300D01*
X50800580Y-23330300D01*
X51005418Y-23330300D01*
X51005420Y-23330300D01*
X51206774Y-23292660D01*
X51397784Y-23218663D01*
X51571945Y-23110827D01*
X51723325Y-22972826D01*
X51802450Y-22868047D01*
X51859462Y-22825741D01*
X51930299Y-22820973D01*
X51992468Y-22855259D01*
X52003545Y-22868043D01*
X52082673Y-22972826D01*
X52234053Y-23110827D01*
X52234055Y-23110828D01*
X52234056Y-23110829D01*
X52408210Y-23218661D01*
X52408212Y-23218661D01*
X52408214Y-23218663D01*
X52599224Y-23292660D01*
X52800578Y-23330300D01*
X52800580Y-23330300D01*
X53005418Y-23330300D01*
X53005420Y-23330300D01*
X53206774Y-23292660D01*
X53397784Y-23218663D01*
X53571945Y-23110827D01*
X53723325Y-22972826D01*
X53802450Y-22868047D01*
X53859462Y-22825741D01*
X53930299Y-22820973D01*
X53992468Y-22855259D01*
X54003545Y-22868043D01*
X54082673Y-22972826D01*
X54234053Y-23110827D01*
X54234055Y-23110828D01*
X54234056Y-23110829D01*
X54408210Y-23218661D01*
X54408212Y-23218661D01*
X54408214Y-23218663D01*
X54599224Y-23292660D01*
X54800578Y-23330300D01*
X54800580Y-23330300D01*
X55005418Y-23330300D01*
X55005420Y-23330300D01*
X55206774Y-23292660D01*
X55397784Y-23218663D01*
X55571945Y-23110827D01*
X55723325Y-22972826D01*
X55802450Y-22868047D01*
X55859462Y-22825741D01*
X55930299Y-22820973D01*
X55992468Y-22855259D01*
X56003545Y-22868043D01*
X56082673Y-22972826D01*
X56234053Y-23110827D01*
X56234055Y-23110828D01*
X56234056Y-23110829D01*
X56408210Y-23218661D01*
X56408212Y-23218661D01*
X56408214Y-23218663D01*
X56599224Y-23292660D01*
X56800578Y-23330300D01*
X56800580Y-23330300D01*
X57005418Y-23330300D01*
X57005420Y-23330300D01*
X57206774Y-23292660D01*
X57397784Y-23218663D01*
X57571945Y-23110827D01*
X57723325Y-22972826D01*
X57846770Y-22809358D01*
X57938076Y-22625991D01*
X57994134Y-22428968D01*
X58013034Y-22225000D01*
X58009696Y-22188973D01*
X60832964Y-22188973D01*
X60851864Y-22392941D01*
X60851864Y-22392944D01*
X60851865Y-22392945D01*
X60907922Y-22589966D01*
X60999226Y-22773329D01*
X61059674Y-22853374D01*
X61122673Y-22936799D01*
X61274053Y-23074800D01*
X61274055Y-23074801D01*
X61274056Y-23074802D01*
X61448210Y-23182634D01*
X61448212Y-23182634D01*
X61448214Y-23182636D01*
X61639224Y-23256633D01*
X61840578Y-23294273D01*
X61840580Y-23294273D01*
X62045418Y-23294273D01*
X62045420Y-23294273D01*
X62246774Y-23256633D01*
X62437784Y-23182636D01*
X62611945Y-23074800D01*
X62763325Y-22936799D01*
X62842450Y-22832020D01*
X62899462Y-22789714D01*
X62970299Y-22784946D01*
X63032468Y-22819232D01*
X63043545Y-22832016D01*
X63122673Y-22936799D01*
X63274053Y-23074800D01*
X63274055Y-23074801D01*
X63274056Y-23074802D01*
X63448210Y-23182634D01*
X63448212Y-23182634D01*
X63448214Y-23182636D01*
X63639224Y-23256633D01*
X63840578Y-23294273D01*
X63840580Y-23294273D01*
X64045418Y-23294273D01*
X64045420Y-23294273D01*
X64246774Y-23256633D01*
X64437784Y-23182636D01*
X64611945Y-23074800D01*
X64763325Y-22936799D01*
X64842450Y-22832020D01*
X64899462Y-22789714D01*
X64970299Y-22784946D01*
X65032468Y-22819232D01*
X65043545Y-22832016D01*
X65122673Y-22936799D01*
X65274053Y-23074800D01*
X65274055Y-23074801D01*
X65274056Y-23074802D01*
X65448210Y-23182634D01*
X65448212Y-23182634D01*
X65448214Y-23182636D01*
X65639224Y-23256633D01*
X65840578Y-23294273D01*
X65840580Y-23294273D01*
X66045418Y-23294273D01*
X66045420Y-23294273D01*
X66246774Y-23256633D01*
X66437784Y-23182636D01*
X66611945Y-23074800D01*
X66763325Y-22936799D01*
X66842450Y-22832020D01*
X66899462Y-22789714D01*
X66970299Y-22784946D01*
X67032468Y-22819232D01*
X67043545Y-22832016D01*
X67122673Y-22936799D01*
X67274053Y-23074800D01*
X67274055Y-23074801D01*
X67274056Y-23074802D01*
X67448210Y-23182634D01*
X67448212Y-23182634D01*
X67448214Y-23182636D01*
X67639224Y-23256633D01*
X67840578Y-23294273D01*
X67840580Y-23294273D01*
X68045418Y-23294273D01*
X68045420Y-23294273D01*
X68246774Y-23256633D01*
X68437784Y-23182636D01*
X68611945Y-23074800D01*
X68763325Y-22936799D01*
X68842450Y-22832020D01*
X68899462Y-22789714D01*
X68970299Y-22784946D01*
X69032468Y-22819232D01*
X69043545Y-22832016D01*
X69122673Y-22936799D01*
X69274053Y-23074800D01*
X69274055Y-23074801D01*
X69274056Y-23074802D01*
X69448210Y-23182634D01*
X69448212Y-23182634D01*
X69448214Y-23182636D01*
X69639224Y-23256633D01*
X69840578Y-23294273D01*
X69840580Y-23294273D01*
X70045418Y-23294273D01*
X70045420Y-23294273D01*
X70246774Y-23256633D01*
X70437784Y-23182636D01*
X70611945Y-23074800D01*
X70763325Y-22936799D01*
X70842450Y-22832020D01*
X70899462Y-22789714D01*
X70970299Y-22784946D01*
X71032468Y-22819232D01*
X71043545Y-22832016D01*
X71122673Y-22936799D01*
X71274053Y-23074800D01*
X71274055Y-23074801D01*
X71274056Y-23074802D01*
X71448210Y-23182634D01*
X71448212Y-23182634D01*
X71448214Y-23182636D01*
X71639224Y-23256633D01*
X71840578Y-23294273D01*
X71840580Y-23294273D01*
X72045418Y-23294273D01*
X72045420Y-23294273D01*
X72246774Y-23256633D01*
X72437784Y-23182636D01*
X72611945Y-23074800D01*
X72763325Y-22936799D01*
X72886770Y-22773331D01*
X72978076Y-22589964D01*
X73034134Y-22392941D01*
X73053034Y-22188973D01*
X73051551Y-22172973D01*
X76152964Y-22172973D01*
X76171864Y-22376941D01*
X76171864Y-22376944D01*
X76171865Y-22376945D01*
X76227922Y-22573966D01*
X76319226Y-22757329D01*
X76363549Y-22816022D01*
X76442673Y-22920799D01*
X76594053Y-23058800D01*
X76594055Y-23058801D01*
X76594056Y-23058802D01*
X76768210Y-23166634D01*
X76768212Y-23166634D01*
X76768214Y-23166636D01*
X76959224Y-23240633D01*
X77160578Y-23278273D01*
X77160580Y-23278273D01*
X77365418Y-23278273D01*
X77365420Y-23278273D01*
X77566774Y-23240633D01*
X77757784Y-23166636D01*
X77931945Y-23058800D01*
X78083325Y-22920799D01*
X78162450Y-22816020D01*
X78219462Y-22773714D01*
X78290299Y-22768946D01*
X78352468Y-22803232D01*
X78363545Y-22816016D01*
X78442673Y-22920799D01*
X78594053Y-23058800D01*
X78594055Y-23058801D01*
X78594056Y-23058802D01*
X78768210Y-23166634D01*
X78768212Y-23166634D01*
X78768214Y-23166636D01*
X78959224Y-23240633D01*
X79160578Y-23278273D01*
X79160580Y-23278273D01*
X79365418Y-23278273D01*
X79365420Y-23278273D01*
X79566774Y-23240633D01*
X79757784Y-23166636D01*
X79931945Y-23058800D01*
X80083325Y-22920799D01*
X80162450Y-22816020D01*
X80219462Y-22773714D01*
X80290299Y-22768946D01*
X80352468Y-22803232D01*
X80363545Y-22816016D01*
X80442673Y-22920799D01*
X80594053Y-23058800D01*
X80594055Y-23058801D01*
X80594056Y-23058802D01*
X80768210Y-23166634D01*
X80768212Y-23166634D01*
X80768214Y-23166636D01*
X80959224Y-23240633D01*
X81160578Y-23278273D01*
X81160580Y-23278273D01*
X81365418Y-23278273D01*
X81365420Y-23278273D01*
X81566774Y-23240633D01*
X81757784Y-23166636D01*
X81931945Y-23058800D01*
X82083325Y-22920799D01*
X82162450Y-22816020D01*
X82219462Y-22773714D01*
X82290299Y-22768946D01*
X82352468Y-22803232D01*
X82363545Y-22816016D01*
X82442673Y-22920799D01*
X82594053Y-23058800D01*
X82594055Y-23058801D01*
X82594056Y-23058802D01*
X82768210Y-23166634D01*
X82768212Y-23166634D01*
X82768214Y-23166636D01*
X82959224Y-23240633D01*
X83160578Y-23278273D01*
X83160580Y-23278273D01*
X83365418Y-23278273D01*
X83365420Y-23278273D01*
X83566774Y-23240633D01*
X83757784Y-23166636D01*
X83931945Y-23058800D01*
X84083325Y-22920799D01*
X84162450Y-22816020D01*
X84219462Y-22773714D01*
X84290299Y-22768946D01*
X84352468Y-22803232D01*
X84363545Y-22816016D01*
X84442673Y-22920799D01*
X84594053Y-23058800D01*
X84594055Y-23058801D01*
X84594056Y-23058802D01*
X84768210Y-23166634D01*
X84768212Y-23166634D01*
X84768214Y-23166636D01*
X84959224Y-23240633D01*
X85160578Y-23278273D01*
X85160580Y-23278273D01*
X85365418Y-23278273D01*
X85365420Y-23278273D01*
X85566774Y-23240633D01*
X85757784Y-23166636D01*
X85931945Y-23058800D01*
X86083325Y-22920799D01*
X86162450Y-22816020D01*
X86219462Y-22773714D01*
X86290299Y-22768946D01*
X86352468Y-22803232D01*
X86363545Y-22816016D01*
X86442673Y-22920799D01*
X86594053Y-23058800D01*
X86594055Y-23058801D01*
X86594056Y-23058802D01*
X86768210Y-23166634D01*
X86768212Y-23166634D01*
X86768214Y-23166636D01*
X86959224Y-23240633D01*
X87160578Y-23278273D01*
X87160580Y-23278273D01*
X87365418Y-23278273D01*
X87365420Y-23278273D01*
X87566774Y-23240633D01*
X87757784Y-23166636D01*
X87931945Y-23058800D01*
X88083325Y-22920799D01*
X88206770Y-22757331D01*
X88298076Y-22573964D01*
X88354134Y-22376941D01*
X88373034Y-22172973D01*
X88363733Y-22072599D01*
X91956713Y-22072599D01*
X91956714Y-22072600D01*
X92523640Y-22072600D01*
X92500000Y-22153111D01*
X92500000Y-22296889D01*
X92523640Y-22377400D01*
X91956714Y-22377400D01*
X91962038Y-22431464D01*
X92022261Y-22629990D01*
X92120058Y-22812958D01*
X92251671Y-22973328D01*
X92412041Y-23104941D01*
X92595005Y-23202736D01*
X92793542Y-23262961D01*
X92847599Y-23268285D01*
X92847600Y-23268285D01*
X92847600Y-22705074D01*
X92857685Y-22709680D01*
X92964237Y-22725000D01*
X93035763Y-22725000D01*
X93142315Y-22709680D01*
X93152400Y-22705074D01*
X93152400Y-23268285D01*
X93206457Y-23262961D01*
X93404994Y-23202736D01*
X93587958Y-23104941D01*
X93748328Y-22973328D01*
X93879941Y-22812958D01*
X93977738Y-22629990D01*
X94037961Y-22431464D01*
X94043286Y-22377400D01*
X93476360Y-22377400D01*
X93500000Y-22296889D01*
X93500000Y-22153111D01*
X93476360Y-22072600D01*
X94043286Y-22072600D01*
X94043286Y-22072599D01*
X96956713Y-22072599D01*
X96956714Y-22072600D01*
X97523640Y-22072600D01*
X97500000Y-22153111D01*
X97500000Y-22296889D01*
X97523640Y-22377400D01*
X96956714Y-22377400D01*
X96962038Y-22431464D01*
X97022261Y-22629990D01*
X97120058Y-22812958D01*
X97251671Y-22973328D01*
X97412041Y-23104941D01*
X97595005Y-23202736D01*
X97793542Y-23262961D01*
X97847599Y-23268285D01*
X97847600Y-23268284D01*
X97847600Y-22705074D01*
X97857685Y-22709680D01*
X97964237Y-22725000D01*
X98035763Y-22725000D01*
X98142315Y-22709680D01*
X98152400Y-22705074D01*
X98152400Y-23268285D01*
X98206457Y-23262961D01*
X98404994Y-23202736D01*
X98587958Y-23104941D01*
X98748328Y-22973328D01*
X98879941Y-22812958D01*
X98977738Y-22629990D01*
X99037961Y-22431464D01*
X99043286Y-22377400D01*
X98476360Y-22377400D01*
X98500000Y-22296889D01*
X98500000Y-22153111D01*
X98476360Y-22072600D01*
X99043286Y-22072600D01*
X99043286Y-22072599D01*
X101956713Y-22072599D01*
X101956714Y-22072600D01*
X102523640Y-22072600D01*
X102500000Y-22153111D01*
X102500000Y-22296889D01*
X102523640Y-22377400D01*
X101956714Y-22377400D01*
X101962038Y-22431464D01*
X102022261Y-22629990D01*
X102120058Y-22812958D01*
X102251671Y-22973328D01*
X102412041Y-23104941D01*
X102595005Y-23202736D01*
X102793542Y-23262961D01*
X102847599Y-23268285D01*
X102847600Y-23268285D01*
X102847600Y-22705074D01*
X102857685Y-22709680D01*
X102964237Y-22725000D01*
X103035763Y-22725000D01*
X103142315Y-22709680D01*
X103152400Y-22705074D01*
X103152400Y-23268285D01*
X103206457Y-23262961D01*
X103404994Y-23202736D01*
X103587958Y-23104941D01*
X103748328Y-22973328D01*
X103879941Y-22812958D01*
X103977738Y-22629990D01*
X104037961Y-22431464D01*
X104043286Y-22377400D01*
X103476360Y-22377400D01*
X103500000Y-22296889D01*
X103500000Y-22153111D01*
X103476360Y-22072600D01*
X104043286Y-22072600D01*
X104043286Y-22072599D01*
X106906713Y-22072599D01*
X106906714Y-22072600D01*
X107473640Y-22072600D01*
X107450000Y-22153111D01*
X107450000Y-22296889D01*
X107473640Y-22377400D01*
X106906714Y-22377400D01*
X106912038Y-22431464D01*
X106972261Y-22629990D01*
X107070058Y-22812958D01*
X107201671Y-22973328D01*
X107362041Y-23104941D01*
X107545005Y-23202736D01*
X107743542Y-23262961D01*
X107797599Y-23268285D01*
X107797600Y-23268285D01*
X107797600Y-22705074D01*
X107807685Y-22709680D01*
X107914237Y-22725000D01*
X107985763Y-22725000D01*
X108092315Y-22709680D01*
X108102400Y-22705074D01*
X108102400Y-23268285D01*
X108156457Y-23262961D01*
X108354994Y-23202736D01*
X108537958Y-23104941D01*
X108698328Y-22973328D01*
X108829941Y-22812958D01*
X108927738Y-22629990D01*
X108987961Y-22431464D01*
X108993286Y-22377400D01*
X108426360Y-22377400D01*
X108450000Y-22296889D01*
X108450000Y-22153111D01*
X108426360Y-22072600D01*
X108993286Y-22072600D01*
X108993286Y-22072599D01*
X108987961Y-22018535D01*
X108927738Y-21820009D01*
X108829941Y-21637041D01*
X108698328Y-21476671D01*
X108537958Y-21345058D01*
X108354990Y-21247261D01*
X108156464Y-21187038D01*
X108102400Y-21181713D01*
X108102400Y-21744925D01*
X108092315Y-21740320D01*
X107985763Y-21725000D01*
X107914237Y-21725000D01*
X107807685Y-21740320D01*
X107797600Y-21744925D01*
X107797600Y-21181714D01*
X107797599Y-21181713D01*
X107743535Y-21187038D01*
X107545009Y-21247261D01*
X107362041Y-21345058D01*
X107201671Y-21476671D01*
X107070058Y-21637041D01*
X106972261Y-21820009D01*
X106912038Y-22018535D01*
X106906713Y-22072599D01*
X104043286Y-22072599D01*
X104037961Y-22018535D01*
X103977738Y-21820009D01*
X103879941Y-21637041D01*
X103748328Y-21476671D01*
X103587958Y-21345058D01*
X103404990Y-21247261D01*
X103206464Y-21187038D01*
X103152400Y-21181713D01*
X103152400Y-21744925D01*
X103142315Y-21740320D01*
X103035763Y-21725000D01*
X102964237Y-21725000D01*
X102857685Y-21740320D01*
X102847600Y-21744925D01*
X102847600Y-21181714D01*
X102847599Y-21181713D01*
X102793535Y-21187038D01*
X102595009Y-21247261D01*
X102412041Y-21345058D01*
X102251671Y-21476671D01*
X102120058Y-21637041D01*
X102022261Y-21820009D01*
X101962038Y-22018535D01*
X101956713Y-22072599D01*
X99043286Y-22072599D01*
X99037961Y-22018535D01*
X98977738Y-21820009D01*
X98879941Y-21637041D01*
X98748328Y-21476671D01*
X98587958Y-21345058D01*
X98404990Y-21247261D01*
X98206464Y-21187038D01*
X98152400Y-21181713D01*
X98152400Y-21744925D01*
X98142315Y-21740320D01*
X98035763Y-21725000D01*
X97964237Y-21725000D01*
X97857685Y-21740320D01*
X97847600Y-21744925D01*
X97847600Y-21181713D01*
X97793535Y-21187038D01*
X97595009Y-21247261D01*
X97412041Y-21345058D01*
X97251671Y-21476671D01*
X97120058Y-21637041D01*
X97022261Y-21820009D01*
X96962038Y-22018535D01*
X96956713Y-22072599D01*
X94043286Y-22072599D01*
X94037961Y-22018535D01*
X93977738Y-21820009D01*
X93879941Y-21637041D01*
X93748328Y-21476671D01*
X93587958Y-21345058D01*
X93404990Y-21247261D01*
X93206464Y-21187038D01*
X93152400Y-21181713D01*
X93152400Y-21744925D01*
X93142315Y-21740320D01*
X93035763Y-21725000D01*
X92964237Y-21725000D01*
X92857685Y-21740320D01*
X92847600Y-21744925D01*
X92847600Y-21181714D01*
X92847599Y-21181713D01*
X92793535Y-21187038D01*
X92595009Y-21247261D01*
X92412041Y-21345058D01*
X92251671Y-21476671D01*
X92120058Y-21637041D01*
X92022261Y-21820009D01*
X91962038Y-22018535D01*
X91956713Y-22072599D01*
X88363733Y-22072599D01*
X88354134Y-21969005D01*
X88298076Y-21771982D01*
X88288905Y-21753564D01*
X88206771Y-21588616D01*
X88162449Y-21529924D01*
X88083325Y-21425147D01*
X87931945Y-21287146D01*
X87931942Y-21287144D01*
X87931941Y-21287143D01*
X87757787Y-21179311D01*
X87566774Y-21105313D01*
X87365420Y-21067673D01*
X87160578Y-21067673D01*
X87074987Y-21083673D01*
X86959223Y-21105313D01*
X86768210Y-21179311D01*
X86594056Y-21287143D01*
X86442672Y-21425148D01*
X86363549Y-21529924D01*
X86306535Y-21572232D01*
X86235699Y-21576999D01*
X86173530Y-21542712D01*
X86162449Y-21529924D01*
X86141219Y-21501811D01*
X86083325Y-21425147D01*
X85931945Y-21287146D01*
X85931942Y-21287144D01*
X85931941Y-21287143D01*
X85757787Y-21179311D01*
X85566774Y-21105313D01*
X85365420Y-21067673D01*
X85160578Y-21067673D01*
X85074987Y-21083673D01*
X84959223Y-21105313D01*
X84768210Y-21179311D01*
X84594056Y-21287143D01*
X84442672Y-21425148D01*
X84363549Y-21529924D01*
X84306535Y-21572232D01*
X84235699Y-21576999D01*
X84173530Y-21542712D01*
X84162449Y-21529924D01*
X84141219Y-21501811D01*
X84083325Y-21425147D01*
X83931945Y-21287146D01*
X83931942Y-21287144D01*
X83931941Y-21287143D01*
X83757787Y-21179311D01*
X83566774Y-21105313D01*
X83365420Y-21067673D01*
X83160578Y-21067673D01*
X83074987Y-21083673D01*
X82959223Y-21105313D01*
X82768210Y-21179311D01*
X82594056Y-21287143D01*
X82442672Y-21425148D01*
X82363549Y-21529924D01*
X82306535Y-21572232D01*
X82235699Y-21576999D01*
X82173530Y-21542712D01*
X82162449Y-21529924D01*
X82141219Y-21501811D01*
X82083325Y-21425147D01*
X81931945Y-21287146D01*
X81931942Y-21287144D01*
X81931941Y-21287143D01*
X81757787Y-21179311D01*
X81566774Y-21105313D01*
X81365420Y-21067673D01*
X81160578Y-21067673D01*
X81074987Y-21083673D01*
X80959223Y-21105313D01*
X80768210Y-21179311D01*
X80594056Y-21287143D01*
X80442672Y-21425148D01*
X80363549Y-21529924D01*
X80306535Y-21572232D01*
X80235699Y-21576999D01*
X80173530Y-21542712D01*
X80162449Y-21529924D01*
X80141219Y-21501811D01*
X80083325Y-21425147D01*
X79931945Y-21287146D01*
X79931942Y-21287144D01*
X79931941Y-21287143D01*
X79757787Y-21179311D01*
X79566774Y-21105313D01*
X79365420Y-21067673D01*
X79160578Y-21067673D01*
X79074987Y-21083673D01*
X78959223Y-21105313D01*
X78768210Y-21179311D01*
X78594056Y-21287143D01*
X78442672Y-21425148D01*
X78363549Y-21529924D01*
X78306535Y-21572232D01*
X78235699Y-21576999D01*
X78173530Y-21542712D01*
X78162449Y-21529924D01*
X78141219Y-21501811D01*
X78083325Y-21425147D01*
X77931945Y-21287146D01*
X77931942Y-21287144D01*
X77931941Y-21287143D01*
X77757787Y-21179311D01*
X77566774Y-21105313D01*
X77365420Y-21067673D01*
X77160578Y-21067673D01*
X77074987Y-21083673D01*
X76959223Y-21105313D01*
X76768210Y-21179311D01*
X76594056Y-21287143D01*
X76442672Y-21425148D01*
X76319226Y-21588616D01*
X76227922Y-21771979D01*
X76193147Y-21894202D01*
X76171864Y-21969005D01*
X76152964Y-22172973D01*
X73051551Y-22172973D01*
X73034134Y-21985005D01*
X72978076Y-21787982D01*
X72970109Y-21771982D01*
X72886771Y-21604616D01*
X72830366Y-21529924D01*
X72763325Y-21441147D01*
X72611945Y-21303146D01*
X72611942Y-21303144D01*
X72611941Y-21303143D01*
X72437787Y-21195311D01*
X72246774Y-21121313D01*
X72238145Y-21119700D01*
X72045420Y-21083673D01*
X71840578Y-21083673D01*
X71706342Y-21108766D01*
X71639223Y-21121313D01*
X71448210Y-21195311D01*
X71274056Y-21303143D01*
X71122672Y-21441148D01*
X71043549Y-21545924D01*
X70986535Y-21588232D01*
X70915699Y-21592999D01*
X70853530Y-21558712D01*
X70842449Y-21545924D01*
X70790531Y-21477174D01*
X70763325Y-21441147D01*
X70611945Y-21303146D01*
X70611942Y-21303144D01*
X70611941Y-21303143D01*
X70437787Y-21195311D01*
X70246774Y-21121313D01*
X70238145Y-21119700D01*
X70045420Y-21083673D01*
X69840578Y-21083673D01*
X69706342Y-21108766D01*
X69639223Y-21121313D01*
X69448210Y-21195311D01*
X69274056Y-21303143D01*
X69122672Y-21441148D01*
X69043549Y-21545924D01*
X68986535Y-21588232D01*
X68915699Y-21592999D01*
X68853530Y-21558712D01*
X68842449Y-21545924D01*
X68790531Y-21477174D01*
X68763325Y-21441147D01*
X68611945Y-21303146D01*
X68611942Y-21303144D01*
X68611941Y-21303143D01*
X68437787Y-21195311D01*
X68246774Y-21121313D01*
X68238145Y-21119700D01*
X68045420Y-21083673D01*
X67840578Y-21083673D01*
X67706342Y-21108766D01*
X67639223Y-21121313D01*
X67448210Y-21195311D01*
X67274056Y-21303143D01*
X67122674Y-21441146D01*
X67043548Y-21545925D01*
X66986533Y-21588232D01*
X66915697Y-21592999D01*
X66853529Y-21558712D01*
X66842460Y-21545939D01*
X66763325Y-21441147D01*
X66611945Y-21303146D01*
X66611942Y-21303144D01*
X66611941Y-21303143D01*
X66437787Y-21195311D01*
X66246774Y-21121313D01*
X66238145Y-21119700D01*
X66045420Y-21083673D01*
X65840578Y-21083673D01*
X65706342Y-21108766D01*
X65639223Y-21121313D01*
X65448210Y-21195311D01*
X65274056Y-21303143D01*
X65122674Y-21441146D01*
X65043548Y-21545925D01*
X64986533Y-21588232D01*
X64915697Y-21592999D01*
X64853529Y-21558712D01*
X64842460Y-21545939D01*
X64763325Y-21441147D01*
X64611945Y-21303146D01*
X64611942Y-21303144D01*
X64611941Y-21303143D01*
X64437787Y-21195311D01*
X64246774Y-21121313D01*
X64238145Y-21119700D01*
X64045420Y-21083673D01*
X63840578Y-21083673D01*
X63706342Y-21108766D01*
X63639223Y-21121313D01*
X63448210Y-21195311D01*
X63274056Y-21303143D01*
X63122674Y-21441146D01*
X63043548Y-21545925D01*
X62986533Y-21588232D01*
X62915697Y-21592999D01*
X62853529Y-21558712D01*
X62842460Y-21545939D01*
X62763325Y-21441147D01*
X62611945Y-21303146D01*
X62611942Y-21303144D01*
X62611941Y-21303143D01*
X62437787Y-21195311D01*
X62246774Y-21121313D01*
X62238145Y-21119700D01*
X62045420Y-21083673D01*
X61840578Y-21083673D01*
X61706342Y-21108766D01*
X61639223Y-21121313D01*
X61448210Y-21195311D01*
X61274056Y-21303143D01*
X61122672Y-21441148D01*
X60999226Y-21604616D01*
X60907922Y-21787979D01*
X60856416Y-21969005D01*
X60851864Y-21985005D01*
X60832964Y-22188973D01*
X58009696Y-22188973D01*
X57994134Y-22021032D01*
X57938076Y-21824009D01*
X57938075Y-21824006D01*
X57846771Y-21640643D01*
X57772817Y-21542712D01*
X57723325Y-21477174D01*
X57571945Y-21339173D01*
X57571942Y-21339171D01*
X57571941Y-21339170D01*
X57397787Y-21231338D01*
X57206774Y-21157340D01*
X57206773Y-21157340D01*
X57005420Y-21119700D01*
X56800578Y-21119700D01*
X56666341Y-21144793D01*
X56599223Y-21157340D01*
X56408210Y-21231338D01*
X56234056Y-21339170D01*
X56082674Y-21477173D01*
X56003548Y-21581952D01*
X55946533Y-21624259D01*
X55875697Y-21629026D01*
X55813529Y-21594739D01*
X55802460Y-21581966D01*
X55723325Y-21477174D01*
X55571945Y-21339173D01*
X55571942Y-21339171D01*
X55571941Y-21339170D01*
X55397787Y-21231338D01*
X55206774Y-21157340D01*
X55206773Y-21157340D01*
X55005420Y-21119700D01*
X54800578Y-21119700D01*
X54666341Y-21144793D01*
X54599223Y-21157340D01*
X54408210Y-21231338D01*
X54234056Y-21339170D01*
X54082674Y-21477173D01*
X54003548Y-21581952D01*
X53946533Y-21624259D01*
X53875697Y-21629026D01*
X53813529Y-21594739D01*
X53802460Y-21581966D01*
X53723325Y-21477174D01*
X53571945Y-21339173D01*
X53571942Y-21339171D01*
X53571941Y-21339170D01*
X53397787Y-21231338D01*
X53206774Y-21157340D01*
X53206773Y-21157340D01*
X53005420Y-21119700D01*
X52800578Y-21119700D01*
X52666341Y-21144793D01*
X52599223Y-21157340D01*
X52408210Y-21231338D01*
X52234056Y-21339170D01*
X52082674Y-21477173D01*
X52003548Y-21581952D01*
X51946533Y-21624259D01*
X51875697Y-21629026D01*
X51813529Y-21594739D01*
X51802460Y-21581966D01*
X51723325Y-21477174D01*
X51571945Y-21339173D01*
X51571942Y-21339171D01*
X51571941Y-21339170D01*
X51397787Y-21231338D01*
X51206774Y-21157340D01*
X51206773Y-21157340D01*
X51005420Y-21119700D01*
X50800578Y-21119700D01*
X50666341Y-21144793D01*
X50599223Y-21157340D01*
X50408210Y-21231338D01*
X50234056Y-21339170D01*
X50082674Y-21477173D01*
X50003548Y-21581952D01*
X49946533Y-21624259D01*
X49875697Y-21629026D01*
X49813529Y-21594739D01*
X49802460Y-21581966D01*
X49723325Y-21477174D01*
X49571945Y-21339173D01*
X49571942Y-21339171D01*
X49571941Y-21339170D01*
X49397787Y-21231338D01*
X49206774Y-21157340D01*
X49206773Y-21157340D01*
X49005420Y-21119700D01*
X48800578Y-21119700D01*
X48666341Y-21144793D01*
X48599223Y-21157340D01*
X48408210Y-21231338D01*
X48234056Y-21339170D01*
X48082674Y-21477173D01*
X48003548Y-21581952D01*
X47946533Y-21624259D01*
X47875697Y-21629026D01*
X47813529Y-21594739D01*
X47802460Y-21581966D01*
X47723325Y-21477174D01*
X47571945Y-21339173D01*
X47571942Y-21339171D01*
X47571941Y-21339170D01*
X47397787Y-21231338D01*
X47206774Y-21157340D01*
X47206773Y-21157340D01*
X47005420Y-21119700D01*
X46800578Y-21119700D01*
X46666341Y-21144793D01*
X46599223Y-21157340D01*
X46408210Y-21231338D01*
X46234056Y-21339170D01*
X46082672Y-21477175D01*
X45959226Y-21640643D01*
X45867922Y-21824006D01*
X45812574Y-22018535D01*
X45811864Y-22021032D01*
X45792964Y-22225000D01*
X42760214Y-22225000D01*
X42765035Y-22172973D01*
X42746135Y-21969005D01*
X42690077Y-21771982D01*
X42680906Y-21753564D01*
X42598772Y-21588616D01*
X42554450Y-21529924D01*
X42475326Y-21425147D01*
X42323946Y-21287146D01*
X42323943Y-21287144D01*
X42323942Y-21287143D01*
X42149788Y-21179311D01*
X41958775Y-21105313D01*
X41757421Y-21067673D01*
X41552579Y-21067673D01*
X41466988Y-21083673D01*
X41351224Y-21105313D01*
X41160211Y-21179311D01*
X40986057Y-21287143D01*
X40834673Y-21425148D01*
X40755550Y-21529924D01*
X40698536Y-21572232D01*
X40627700Y-21576999D01*
X40565531Y-21542712D01*
X40554450Y-21529924D01*
X40533220Y-21501811D01*
X40475326Y-21425147D01*
X40323946Y-21287146D01*
X40323943Y-21287144D01*
X40323942Y-21287143D01*
X40149788Y-21179311D01*
X39958775Y-21105313D01*
X39757421Y-21067673D01*
X39552579Y-21067673D01*
X39466988Y-21083673D01*
X39351224Y-21105313D01*
X39160211Y-21179311D01*
X38986057Y-21287143D01*
X38834673Y-21425148D01*
X38755550Y-21529924D01*
X38698536Y-21572232D01*
X38627700Y-21576999D01*
X38565531Y-21542712D01*
X38554450Y-21529924D01*
X38533220Y-21501811D01*
X38475326Y-21425147D01*
X38323946Y-21287146D01*
X38323943Y-21287144D01*
X38323942Y-21287143D01*
X38149788Y-21179311D01*
X37958775Y-21105313D01*
X37757421Y-21067673D01*
X37552579Y-21067673D01*
X37466988Y-21083673D01*
X37351224Y-21105313D01*
X37160211Y-21179311D01*
X36986057Y-21287143D01*
X36834673Y-21425148D01*
X36755550Y-21529924D01*
X36698536Y-21572232D01*
X36627700Y-21576999D01*
X36565531Y-21542712D01*
X36554450Y-21529924D01*
X36533220Y-21501811D01*
X36475326Y-21425147D01*
X36323946Y-21287146D01*
X36323943Y-21287144D01*
X36323942Y-21287143D01*
X36149788Y-21179311D01*
X35958775Y-21105313D01*
X35757421Y-21067673D01*
X35552579Y-21067673D01*
X35466988Y-21083673D01*
X35351224Y-21105313D01*
X35160211Y-21179311D01*
X34986057Y-21287143D01*
X34834673Y-21425148D01*
X34755550Y-21529924D01*
X34698536Y-21572232D01*
X34627700Y-21576999D01*
X34565531Y-21542712D01*
X34554450Y-21529924D01*
X34533220Y-21501811D01*
X34475326Y-21425147D01*
X34323946Y-21287146D01*
X34323943Y-21287144D01*
X34323942Y-21287143D01*
X34149788Y-21179311D01*
X33958775Y-21105313D01*
X33757421Y-21067673D01*
X33552579Y-21067673D01*
X33466988Y-21083673D01*
X33351224Y-21105313D01*
X33160211Y-21179311D01*
X32986057Y-21287143D01*
X32834673Y-21425148D01*
X32755550Y-21529924D01*
X32698536Y-21572232D01*
X32627700Y-21576999D01*
X32565531Y-21542712D01*
X32554450Y-21529924D01*
X32533220Y-21501811D01*
X32475326Y-21425147D01*
X32323946Y-21287146D01*
X32323943Y-21287144D01*
X32323942Y-21287143D01*
X32149788Y-21179311D01*
X31958775Y-21105313D01*
X31757421Y-21067673D01*
X31552579Y-21067673D01*
X31466988Y-21083673D01*
X31351224Y-21105313D01*
X31160211Y-21179311D01*
X30986057Y-21287143D01*
X30834673Y-21425148D01*
X30711227Y-21588616D01*
X30619923Y-21771979D01*
X30585148Y-21894202D01*
X30563865Y-21969005D01*
X30544965Y-22172973D01*
X20000500Y-22172973D01*
X20000500Y-21052396D01*
X20020502Y-20984275D01*
X20037396Y-20963310D01*
X20963304Y-20037402D01*
X21025614Y-20003379D01*
X21052397Y-20000500D01*
X118947602Y-20000500D01*
X119015723Y-20020502D01*
G37*
%TD.AperFunction*%
%TD*%
M02*
