%TF.GenerationSoftware,KiCad,Pcbnew,7.0.2-0*%
%TF.CreationDate,2024-06-06T04:37:27-07:00*%
%TF.ProjectId,version_1,76657273-696f-46e5-9f31-2e6b69636164,rev?*%
%TF.SameCoordinates,Original*%
%TF.FileFunction,Soldermask,Top*%
%TF.FilePolarity,Negative*%
%FSLAX46Y46*%
G04 Gerber Fmt 4.6, Leading zero omitted, Abs format (unit mm)*
G04 Created by KiCad (PCBNEW 7.0.2-0) date 2024-06-06 04:37:27*
%MOMM*%
%LPD*%
G01*
G04 APERTURE LIST*
G04 Aperture macros list*
%AMRoundRect*
0 Rectangle with rounded corners*
0 $1 Rounding radius*
0 $2 $3 $4 $5 $6 $7 $8 $9 X,Y pos of 4 corners*
0 Add a 4 corners polygon primitive as box body*
4,1,4,$2,$3,$4,$5,$6,$7,$8,$9,$2,$3,0*
0 Add four circle primitives for the rounded corners*
1,1,$1+$1,$2,$3*
1,1,$1+$1,$4,$5*
1,1,$1+$1,$6,$7*
1,1,$1+$1,$8,$9*
0 Add four rect primitives between the rounded corners*
20,1,$1+$1,$2,$3,$4,$5,0*
20,1,$1+$1,$4,$5,$6,$7,0*
20,1,$1+$1,$6,$7,$8,$9,0*
20,1,$1+$1,$8,$9,$2,$3,0*%
%AMFreePoly0*
4,1,19,0.550000,-0.750000,0.000000,-0.750000,0.000000,-0.744911,-0.071157,-0.744911,-0.207708,-0.704816,-0.327430,-0.627875,-0.420627,-0.520320,-0.479746,-0.390866,-0.500000,-0.250000,-0.500000,0.250000,-0.479746,0.390866,-0.420627,0.520320,-0.327430,0.627875,-0.207708,0.704816,-0.071157,0.744911,0.000000,0.744911,0.000000,0.750000,0.550000,0.750000,0.550000,-0.750000,0.550000,-0.750000,
$1*%
%AMFreePoly1*
4,1,19,0.000000,0.744911,0.071157,0.744911,0.207708,0.704816,0.327430,0.627875,0.420627,0.520320,0.479746,0.390866,0.500000,0.250000,0.500000,-0.250000,0.479746,-0.390866,0.420627,-0.520320,0.327430,-0.627875,0.207708,-0.704816,0.071157,-0.744911,0.000000,-0.744911,0.000000,-0.750000,-0.550000,-0.750000,-0.550000,0.750000,0.000000,0.750000,0.000000,0.744911,0.000000,0.744911,
$1*%
G04 Aperture macros list end*
%ADD10RoundRect,0.237500X-0.250000X-0.237500X0.250000X-0.237500X0.250000X0.237500X-0.250000X0.237500X0*%
%ADD11RoundRect,0.250000X-0.337500X-0.475000X0.337500X-0.475000X0.337500X0.475000X-0.337500X0.475000X0*%
%ADD12R,1.700000X1.700000*%
%ADD13O,1.700000X1.700000*%
%ADD14RoundRect,0.237500X0.237500X-0.250000X0.237500X0.250000X-0.237500X0.250000X-0.237500X-0.250000X0*%
%ADD15RoundRect,0.237500X0.300000X0.237500X-0.300000X0.237500X-0.300000X-0.237500X0.300000X-0.237500X0*%
%ADD16RoundRect,0.237500X0.250000X0.237500X-0.250000X0.237500X-0.250000X-0.237500X0.250000X-0.237500X0*%
%ADD17FreePoly0,270.000000*%
%ADD18R,1.500000X1.000000*%
%ADD19FreePoly1,270.000000*%
%ADD20RoundRect,0.150000X-0.850000X-0.150000X0.850000X-0.150000X0.850000X0.150000X-0.850000X0.150000X0*%
%ADD21FreePoly0,90.000000*%
%ADD22FreePoly1,90.000000*%
%ADD23RoundRect,0.250000X-0.475000X0.337500X-0.475000X-0.337500X0.475000X-0.337500X0.475000X0.337500X0*%
%ADD24RoundRect,0.237500X-0.237500X0.300000X-0.237500X-0.300000X0.237500X-0.300000X0.237500X0.300000X0*%
%ADD25FreePoly0,180.000000*%
%ADD26R,1.000000X1.500000*%
%ADD27FreePoly1,180.000000*%
%ADD28C,1.600000*%
%ADD29R,3.100000X2.400000*%
%ADD30RoundRect,0.070000X0.250000X-1.100000X0.250000X1.100000X-0.250000X1.100000X-0.250000X-1.100000X0*%
%ADD31C,0.770000*%
%ADD32R,1.550013X0.600000*%
%ADD33R,1.800000X1.200000*%
%ADD34R,2.500000X1.900000*%
%ADD35RoundRect,0.237500X-0.237500X0.250000X-0.237500X-0.250000X0.237500X-0.250000X0.237500X0.250000X0*%
%ADD36C,3.200000*%
%ADD37RoundRect,0.237500X-0.300000X-0.237500X0.300000X-0.237500X0.300000X0.237500X-0.300000X0.237500X0*%
%ADD38RoundRect,0.237500X0.237500X-0.300000X0.237500X0.300000X-0.237500X0.300000X-0.237500X-0.300000X0*%
%ADD39RoundRect,0.150000X-0.587500X-0.150000X0.587500X-0.150000X0.587500X0.150000X-0.587500X0.150000X0*%
%ADD40R,1.072009X0.532004*%
%ADD41RoundRect,0.250000X0.325000X0.450000X-0.325000X0.450000X-0.325000X-0.450000X0.325000X-0.450000X0*%
%ADD42RoundRect,0.150000X0.150000X-0.587500X0.150000X0.587500X-0.150000X0.587500X-0.150000X-0.587500X0*%
%ADD43O,1.800000X1.800000*%
%ADD44O,1.500000X1.500000*%
%ADD45R,1.700000X3.500000*%
%ADD46C,1.800000*%
%ADD47RoundRect,0.250000X-1.500000X-0.650000X1.500000X-0.650000X1.500000X0.650000X-1.500000X0.650000X0*%
%ADD48R,5.200000X7.400000*%
%ADD49RoundRect,0.087500X0.225000X0.087500X-0.225000X0.087500X-0.225000X-0.087500X0.225000X-0.087500X0*%
%ADD50RoundRect,0.087500X0.087500X0.225000X-0.087500X0.225000X-0.087500X-0.225000X0.087500X-0.225000X0*%
%ADD51R,5.300000X2.000000*%
%ADD52RoundRect,0.250000X0.475000X-0.337500X0.475000X0.337500X-0.475000X0.337500X-0.475000X-0.337500X0*%
%ADD53RoundRect,0.250000X0.450000X-0.325000X0.450000X0.325000X-0.450000X0.325000X-0.450000X-0.325000X0*%
%ADD54R,1.134011X3.358547*%
%ADD55R,10.566421X7.180544*%
%ADD56R,1.100000X2.000000*%
G04 APERTURE END LIST*
D10*
%TO.C,R9*%
X49887500Y-27305000D03*
X51712500Y-27305000D03*
%TD*%
D11*
%TO.C,C37*%
X72354000Y-37973000D03*
X74429000Y-37973000D03*
%TD*%
D12*
%TO.C,M8*%
X107950000Y-27305000D03*
D13*
X107950000Y-24765000D03*
X107950000Y-22225000D03*
%TD*%
D14*
%TO.C,R5*%
X91440000Y-52982500D03*
X91440000Y-51157500D03*
%TD*%
D15*
%TO.C,C60*%
X95477500Y-36830000D03*
X93752500Y-36830000D03*
%TD*%
D16*
%TO.C,R27*%
X116889974Y-81195026D03*
X115064974Y-81195026D03*
%TD*%
D17*
%TO.C,JP2*%
X24130000Y-30450000D03*
D18*
X24130000Y-31750000D03*
D19*
X24130000Y-33050000D03*
%TD*%
D20*
%TO.C,U10*%
X112865000Y-32967973D03*
X112865000Y-34237973D03*
X112865000Y-35507973D03*
X112865000Y-36777973D03*
X112865000Y-38047973D03*
X112865000Y-39317973D03*
X112865000Y-40587973D03*
X112865000Y-41857973D03*
X117865000Y-41857973D03*
X117865000Y-40587973D03*
X117865000Y-39317973D03*
X117865000Y-38047973D03*
X117865000Y-36777973D03*
X117865000Y-35507973D03*
X117865000Y-34237973D03*
X117865000Y-32967973D03*
%TD*%
D21*
%TO.C,JP3*%
X27305000Y-33050000D03*
D18*
X27305000Y-31750000D03*
D22*
X27305000Y-30450000D03*
%TD*%
D23*
%TO.C,C30*%
X103505000Y-52937500D03*
X103505000Y-55012500D03*
%TD*%
D24*
%TO.C,C26*%
X70485000Y-34062500D03*
X70485000Y-35787500D03*
%TD*%
D25*
%TO.C,JP4*%
X98300000Y-43000000D03*
D26*
X97000000Y-43000000D03*
D27*
X95700000Y-43000000D03*
%TD*%
D28*
%TO.C,CN3*%
X46902999Y-22225000D03*
X48902999Y-22225000D03*
X50902999Y-22225000D03*
X52902999Y-22225000D03*
X54902999Y-22225000D03*
X56902999Y-22225000D03*
%TD*%
D16*
%TO.C,R25*%
X92227500Y-45155000D03*
X90402500Y-45155000D03*
%TD*%
D24*
%TO.C,C6*%
X88900000Y-47397500D03*
X88900000Y-49122500D03*
%TD*%
%TO.C,C7*%
X110473500Y-47042500D03*
X110473500Y-48767500D03*
%TD*%
D11*
%TO.C,C42*%
X72354000Y-35687000D03*
X74429000Y-35687000D03*
%TD*%
D10*
%TO.C,R29*%
X24217500Y-81229763D03*
X26042500Y-81229763D03*
%TD*%
D29*
%TO.C,U17*%
X36101000Y-32728973D03*
D30*
X34196000Y-35603973D03*
X35466000Y-35603973D03*
X36736000Y-35603973D03*
X38006000Y-35603973D03*
X38006000Y-29853973D03*
X36736000Y-29853973D03*
X35466000Y-29853973D03*
X34196000Y-29853973D03*
D31*
X34801000Y-33378973D03*
X36101000Y-33378973D03*
X37401000Y-33378973D03*
X34801000Y-32078973D03*
X36101000Y-32078973D03*
X37401000Y-32078973D03*
%TD*%
D16*
%TO.C,R17*%
X116482500Y-99433026D03*
X114657500Y-99433026D03*
%TD*%
D24*
%TO.C,C5*%
X79375000Y-47302500D03*
X79375000Y-49027500D03*
%TD*%
D32*
%TO.C,U18*%
X25433024Y-86130127D03*
X25433024Y-87130127D03*
X25432516Y-88130381D03*
X25432516Y-89130381D03*
D33*
X21556976Y-90430102D03*
X21557484Y-84829898D03*
%TD*%
D34*
%TO.C,U5*%
X96882500Y-50968538D03*
X96882500Y-46868462D03*
%TD*%
D24*
%TO.C,C50*%
X27940000Y-75972500D03*
X27940000Y-77697500D03*
%TD*%
D28*
%TO.C,CN4*%
X31655000Y-22172973D03*
X33655000Y-22172973D03*
X35655000Y-22172973D03*
X37655000Y-22172973D03*
X39655000Y-22172973D03*
X41655000Y-22172973D03*
%TD*%
D10*
%TO.C,R8*%
X65762500Y-26670000D03*
X67587500Y-26670000D03*
%TD*%
D35*
%TO.C,R6*%
X91440000Y-47347500D03*
X91440000Y-49172500D03*
%TD*%
D29*
%TO.C,U16*%
X51349000Y-32852973D03*
D30*
X49444000Y-35727973D03*
X50714000Y-35727973D03*
X51984000Y-35727973D03*
X53254000Y-35727973D03*
X53254000Y-29977973D03*
X51984000Y-29977973D03*
X50714000Y-29977973D03*
X49444000Y-29977973D03*
D31*
X50049000Y-33502973D03*
X51349000Y-33502973D03*
X52649000Y-33502973D03*
X50049000Y-32202973D03*
X51349000Y-32202973D03*
X52649000Y-32202973D03*
%TD*%
D11*
%TO.C,C11*%
X87889000Y-29667000D03*
X89964000Y-29667000D03*
%TD*%
D15*
%TO.C,C29*%
X113892500Y-30480000D03*
X112167500Y-30480000D03*
%TD*%
D24*
%TO.C,C28*%
X40005000Y-34062500D03*
X40005000Y-35787500D03*
%TD*%
D11*
%TO.C,C36*%
X87889000Y-37973000D03*
X89964000Y-37973000D03*
%TD*%
D29*
%TO.C,U13*%
X81709000Y-32728973D03*
D30*
X79804000Y-35603973D03*
X81074000Y-35603973D03*
X82344000Y-35603973D03*
X83614000Y-35603973D03*
X83614000Y-29853973D03*
X82344000Y-29853973D03*
X81074000Y-29853973D03*
X79804000Y-29853973D03*
D31*
X80409000Y-33378973D03*
X81709000Y-33378973D03*
X83009000Y-33378973D03*
X80409000Y-32078973D03*
X81709000Y-32078973D03*
X83009000Y-32078973D03*
%TD*%
D36*
%TO.C,H2*%
X25000000Y-115000000D03*
%TD*%
D37*
%TO.C,C4*%
X42090000Y-27305000D03*
X43815000Y-27305000D03*
%TD*%
D14*
%TO.C,R23*%
X27305000Y-65747500D03*
X27305000Y-63922500D03*
%TD*%
D38*
%TO.C,C14*%
X103087500Y-50900000D03*
X103087500Y-49175000D03*
%TD*%
D39*
%TO.C,Q25*%
X24462500Y-96825000D03*
X24462500Y-98725000D03*
X26337500Y-97775000D03*
%TD*%
D40*
%TO.C,U4*%
X106022402Y-49087538D03*
X106022402Y-50037500D03*
X106022402Y-50987462D03*
X108320598Y-50987462D03*
X108320598Y-50037500D03*
X108320598Y-49087538D03*
%TD*%
D37*
%TO.C,C3*%
X57330000Y-27305000D03*
X59055000Y-27305000D03*
%TD*%
D41*
%TO.C,D1*%
X117230000Y-118110000D03*
X115180000Y-118110000D03*
%TD*%
D12*
%TO.C,M6*%
X98000000Y-27305000D03*
D13*
X98000000Y-24765000D03*
X98000000Y-22225000D03*
%TD*%
D10*
%TO.C,R7*%
X80367500Y-27305000D03*
X82192500Y-27305000D03*
%TD*%
D23*
%TO.C,C59*%
X118110000Y-47857500D03*
X118110000Y-49932500D03*
%TD*%
D42*
%TO.C,Q17*%
X92050000Y-33980473D03*
X93950000Y-33980473D03*
X93000000Y-32105473D03*
%TD*%
D11*
%TO.C,C39*%
X42169000Y-36830000D03*
X44244000Y-36830000D03*
%TD*%
D24*
%TO.C,C25*%
X85725000Y-34062500D03*
X85725000Y-35787500D03*
%TD*%
D12*
%TO.C,M5*%
X93000000Y-27305000D03*
D13*
X93000000Y-24765000D03*
X93000000Y-22225000D03*
%TD*%
D41*
%TO.C,D7*%
X117002474Y-84497026D03*
X114952474Y-84497026D03*
%TD*%
%TO.C,D3*%
X116595000Y-102735026D03*
X114545000Y-102735026D03*
%TD*%
D37*
%TO.C,C2*%
X72275000Y-27305000D03*
X74000000Y-27305000D03*
%TD*%
D28*
%TO.C,CN2*%
X61942999Y-22188973D03*
X63942999Y-22188973D03*
X65942999Y-22188973D03*
X67942999Y-22188973D03*
X69942999Y-22188973D03*
X71942999Y-22188973D03*
%TD*%
D11*
%TO.C,C54*%
X42169000Y-34290000D03*
X44244000Y-34290000D03*
%TD*%
D29*
%TO.C,U15*%
X66389000Y-32744973D03*
D30*
X64484000Y-35619973D03*
X65754000Y-35619973D03*
X67024000Y-35619973D03*
X68294000Y-35619973D03*
X68294000Y-29869973D03*
X67024000Y-29869973D03*
X65754000Y-29869973D03*
X64484000Y-29869973D03*
D31*
X65089000Y-33394973D03*
X66389000Y-33394973D03*
X67689000Y-33394973D03*
X65089000Y-32094973D03*
X66389000Y-32094973D03*
X67689000Y-32094973D03*
%TD*%
D43*
%TO.C,U1*%
X22275000Y-53725000D03*
D44*
X25305000Y-53425000D03*
X25305000Y-48575000D03*
D43*
X22275000Y-48275000D03*
D45*
X22145000Y-60790000D03*
X24685000Y-60790000D03*
X27225000Y-60790000D03*
X29765000Y-60790000D03*
X32305000Y-60790000D03*
X34845000Y-60790000D03*
X37385000Y-60790000D03*
X39925000Y-60790000D03*
X42465000Y-60790000D03*
X45005000Y-60790000D03*
X47545000Y-60790000D03*
X50085000Y-60790000D03*
X52625000Y-60790000D03*
X55165000Y-60790000D03*
X57705000Y-60790000D03*
X60245000Y-60790000D03*
X62785000Y-60790000D03*
X65325000Y-60790000D03*
X67865000Y-60790000D03*
X70405000Y-60790000D03*
X70405000Y-41210000D03*
X67865000Y-41210000D03*
X65325000Y-41210000D03*
X62785000Y-41210000D03*
X60245000Y-41210000D03*
X57705000Y-41210000D03*
X55165000Y-41210000D03*
X52625000Y-41210000D03*
X50085000Y-41210000D03*
X47545000Y-41210000D03*
X45005000Y-41210000D03*
X42465000Y-41210000D03*
X39925000Y-41210000D03*
X37385000Y-41210000D03*
X34845000Y-41210000D03*
X32305000Y-41210000D03*
X29765000Y-41210000D03*
X27225000Y-41210000D03*
X24685000Y-41210000D03*
X22145000Y-41210000D03*
%TD*%
D23*
%TO.C,C13*%
X106045000Y-52937500D03*
X106045000Y-55012500D03*
%TD*%
D11*
%TO.C,C47*%
X57409000Y-35687000D03*
X59484000Y-35687000D03*
%TD*%
D16*
%TO.C,R20*%
X117117500Y-115570000D03*
X115292500Y-115570000D03*
%TD*%
D10*
%TO.C,R10*%
X34647500Y-27305000D03*
X36472500Y-27305000D03*
%TD*%
D11*
%TO.C,C38*%
X57409000Y-37973000D03*
X59484000Y-37973000D03*
%TD*%
%TO.C,C45*%
X57409000Y-29667000D03*
X59484000Y-29667000D03*
%TD*%
%TO.C,C46*%
X57409000Y-32676999D03*
X59484000Y-32676999D03*
%TD*%
D14*
%TO.C,R4*%
X112122500Y-49576500D03*
X112122500Y-47751500D03*
%TD*%
D10*
%TO.C,R26*%
X86827500Y-45155000D03*
X88652500Y-45155000D03*
%TD*%
%TO.C,R30*%
X24217500Y-83229763D03*
X26042500Y-83229763D03*
%TD*%
D14*
%TO.C,R21*%
X22145000Y-65610000D03*
X22145000Y-63785000D03*
%TD*%
D11*
%TO.C,C58*%
X100925000Y-46863500D03*
X103000000Y-46863500D03*
%TD*%
D37*
%TO.C,C1*%
X87810000Y-27305000D03*
X89535000Y-27305000D03*
%TD*%
D39*
%TO.C,Q24*%
X24462500Y-93275000D03*
X24462500Y-95175000D03*
X26337500Y-94225000D03*
%TD*%
D36*
%TO.C,H1*%
X115000000Y-25000000D03*
%TD*%
D12*
%TO.C,M7*%
X103000000Y-27305000D03*
D13*
X103000000Y-24765000D03*
X103000000Y-22225000D03*
%TD*%
D46*
%TO.C,U7*%
X95249995Y-55244995D03*
X97790000Y-55244995D03*
X100330005Y-55244995D03*
X95249995Y-60325005D03*
X97790000Y-60325005D03*
X100330005Y-60325005D03*
%TD*%
D11*
%TO.C,C15*%
X90402500Y-43180000D03*
X92477500Y-43180000D03*
%TD*%
D47*
%TO.C,D5*%
X24700000Y-36860000D03*
X29700000Y-36860000D03*
%TD*%
D46*
%TO.C,U6*%
X38499860Y-65589987D03*
D48*
X33350000Y-72940000D03*
X115649974Y-72940000D03*
X33350000Y-91440127D03*
X115649974Y-91440127D03*
X33350000Y-109940000D03*
X115649974Y-109940000D03*
%TD*%
D49*
%TO.C,U12*%
X26117500Y-78942263D03*
X26117500Y-78442263D03*
X26117500Y-77942263D03*
X26117500Y-77442263D03*
D50*
X25455000Y-77279763D03*
X24955000Y-77279763D03*
X24455000Y-77279763D03*
D49*
X23792500Y-77442263D03*
X23792500Y-77942263D03*
X23792500Y-78442263D03*
X23792500Y-78942263D03*
D50*
X24455000Y-79104763D03*
X24955000Y-79104763D03*
X25455000Y-79104763D03*
%TD*%
D25*
%TO.C,JP1*%
X83300000Y-43815000D03*
D26*
X82000000Y-43815000D03*
D27*
X80700000Y-43815000D03*
%TD*%
D15*
%TO.C,C61*%
X115162500Y-45085000D03*
X113437500Y-45085000D03*
%TD*%
D11*
%TO.C,C8*%
X101832500Y-41910000D03*
X103907500Y-41910000D03*
%TD*%
D24*
%TO.C,C27*%
X55245000Y-34062500D03*
X55245000Y-35787500D03*
%TD*%
D39*
%TO.C,Q22*%
X24462500Y-100450000D03*
X24462500Y-102350000D03*
X26337500Y-101400000D03*
%TD*%
D11*
%TO.C,C52*%
X42169000Y-29667000D03*
X44244000Y-29667000D03*
%TD*%
D38*
%TO.C,C16*%
X22225000Y-77697500D03*
X22225000Y-75972500D03*
%TD*%
D28*
%TO.C,CN1*%
X77262999Y-22172973D03*
X79262999Y-22172973D03*
X81262999Y-22172973D03*
X83262999Y-22172973D03*
X85262999Y-22172973D03*
X87262999Y-22172973D03*
%TD*%
D51*
%TO.C,F2*%
X116840000Y-66800000D03*
X116840000Y-60200051D03*
%TD*%
D35*
%TO.C,R3*%
X115932500Y-48087500D03*
X115932500Y-49912500D03*
%TD*%
D52*
%TO.C,C31*%
X101087500Y-51075000D03*
X101087500Y-49000000D03*
%TD*%
D11*
%TO.C,C57*%
X100925000Y-44323500D03*
X103000000Y-44323500D03*
%TD*%
D42*
%TO.C,Q18*%
X97050000Y-33980473D03*
X98950000Y-33980473D03*
X98000000Y-32105473D03*
%TD*%
D39*
%TO.C,Q23*%
X24462500Y-107750000D03*
X24462500Y-109650000D03*
X26337500Y-108700000D03*
%TD*%
D36*
%TO.C,H4*%
X25000000Y-25000000D03*
%TD*%
D11*
%TO.C,C53*%
X42169000Y-31750000D03*
X44244000Y-31750000D03*
%TD*%
D53*
%TO.C,D4*%
X108585000Y-55000000D03*
X108585000Y-52950000D03*
%TD*%
D11*
%TO.C,C32*%
X87889000Y-32676999D03*
X89964000Y-32676999D03*
%TD*%
D42*
%TO.C,Q20*%
X107050000Y-33980473D03*
X108950000Y-33980473D03*
X108000000Y-32105473D03*
%TD*%
D36*
%TO.C,H3*%
X115000000Y-55000000D03*
%TD*%
D11*
%TO.C,C41*%
X72354000Y-32676999D03*
X74429000Y-32676999D03*
%TD*%
%TO.C,C40*%
X72354000Y-29667000D03*
X74429000Y-29667000D03*
%TD*%
D37*
%TO.C,C51*%
X116127000Y-30480000D03*
X117852000Y-30480000D03*
%TD*%
D39*
%TO.C,Q21*%
X24462500Y-104050000D03*
X24462500Y-105950000D03*
X26337500Y-105000000D03*
%TD*%
D42*
%TO.C,Q19*%
X102050000Y-33980473D03*
X103950000Y-33980473D03*
X103000000Y-32105473D03*
%TD*%
D14*
%TO.C,R1*%
X108585000Y-59332500D03*
X108585000Y-57507500D03*
%TD*%
D11*
%TO.C,C33*%
X87889000Y-35687000D03*
X89964000Y-35687000D03*
%TD*%
D14*
%TO.C,R2*%
X114027500Y-49912500D03*
X114027500Y-48087500D03*
%TD*%
D54*
%TO.C,U3*%
X86995005Y-48258731D03*
X81914995Y-48258731D03*
D55*
X84455000Y-58830487D03*
%TD*%
D56*
%TO.C,D6*%
X22430000Y-73415000D03*
X24130000Y-73415000D03*
X25830000Y-73415000D03*
X25830000Y-68615000D03*
X24130000Y-68615000D03*
X22430000Y-68615000D03*
%TD*%
D14*
%TO.C,R22*%
X24685000Y-65610000D03*
X24685000Y-63785000D03*
%TD*%
M02*
